%TF.GenerationSoftware,KiCad,Pcbnew,5.1.7-a382d34a8~88~ubuntu18.04.1*%
%TF.CreationDate,2021-02-25T09:22:48-05:00*%
%TF.ProjectId,LVPDU,4c565044-552e-46b6-9963-61645f706362,rev?*%
%TF.SameCoordinates,Original*%
%TF.FileFunction,Copper,L1,Top*%
%TF.FilePolarity,Positive*%
%FSLAX46Y46*%
G04 Gerber Fmt 4.6, Leading zero omitted, Abs format (unit mm)*
G04 Created by KiCad (PCBNEW 5.1.7-a382d34a8~88~ubuntu18.04.1) date 2021-02-25 09:22:48*
%MOMM*%
%LPD*%
G01*
G04 APERTURE LIST*
%TA.AperFunction,ComponentPad*%
%ADD10O,1.905000X2.000000*%
%TD*%
%TA.AperFunction,ComponentPad*%
%ADD11R,1.905000X2.000000*%
%TD*%
%TA.AperFunction,ComponentPad*%
%ADD12C,2.780000*%
%TD*%
%TA.AperFunction,ComponentPad*%
%ADD13C,2.625000*%
%TD*%
%TA.AperFunction,ComponentPad*%
%ADD14R,2.625000X2.625000*%
%TD*%
%TA.AperFunction,ComponentPad*%
%ADD15C,1.635000*%
%TD*%
%TA.AperFunction,ComponentPad*%
%ADD16O,2.925000X5.850000*%
%TD*%
%TA.AperFunction,ComponentPad*%
%ADD17O,5.340000X2.670000*%
%TD*%
%TA.AperFunction,ViaPad*%
%ADD18C,0.800000*%
%TD*%
%TA.AperFunction,Conductor*%
%ADD19C,2.400000*%
%TD*%
%TA.AperFunction,Conductor*%
%ADD20C,0.800000*%
%TD*%
%TA.AperFunction,Conductor*%
%ADD21C,1.200000*%
%TD*%
%TA.AperFunction,Conductor*%
%ADD22C,0.254000*%
%TD*%
%TA.AperFunction,Conductor*%
%ADD23C,0.100000*%
%TD*%
G04 APERTURE END LIST*
D10*
%TO.P,D1,3*%
%TO.N,/DCDC_Fused*%
X152908000Y-60856000D03*
%TO.P,D1,2*%
%TO.N,/BATT_IN*%
X150368000Y-60856000D03*
D11*
%TO.P,D1,1*%
%TO.N,/DCDC_Fused*%
X147828000Y-60856000D03*
%TD*%
D12*
%TO.P,F9,1*%
%TO.N,/DCDC_IN*%
X164084000Y-46228000D03*
X160684000Y-46228000D03*
%TO.P,F9,2*%
%TO.N,/DCDC_Fused*%
X164084000Y-56148000D03*
X160684000Y-56148000D03*
%TD*%
D13*
%TO.P,J1,14*%
%TO.N,/12V_OUT_2*%
X205104000Y-48832000D03*
%TO.P,J1,13*%
%TO.N,/FROM_BRB*%
X201104000Y-48832000D03*
%TO.P,J1,12*%
%TO.N,/DCDC_IN*%
X197104000Y-48832000D03*
%TO.P,J1,11*%
%TO.N,/TO_BRB*%
X193104000Y-48832000D03*
%TO.P,J1,10*%
%TO.N,/BATT_IN*%
X189104000Y-48832000D03*
%TO.P,J1,9*%
%TO.N,/SHUTDOWN_OUT*%
X203104000Y-52832000D03*
%TO.P,J1,8*%
%TO.N,GND*%
X199104000Y-52832000D03*
%TO.P,J1,7*%
%TO.N,/DCDC_IN*%
X195104000Y-52832000D03*
%TO.P,J1,6*%
%TO.N,/BATT_IN*%
X191104000Y-52832000D03*
%TO.P,J1,5*%
%TO.N,/RINEHART*%
X205104000Y-56832000D03*
%TO.P,J1,4*%
%TO.N,/12V_OUT_1*%
X201104000Y-56832000D03*
%TO.P,J1,3*%
%TO.N,/RADIATOR*%
X197104000Y-56832000D03*
%TO.P,J1,2*%
%TO.N,/DAQ*%
X193104000Y-56832000D03*
D14*
%TO.P,J1,1*%
%TO.N,/PUMP*%
X189104000Y-56832000D03*
%TD*%
D12*
%TO.P,F8,1*%
%TO.N,/TO_BRB*%
X173228000Y-46228000D03*
X169828000Y-46228000D03*
%TO.P,F8,2*%
%TO.N,/BATT_IN*%
X173228000Y-56148000D03*
X169828000Y-56148000D03*
%TD*%
%TO.P,F7,1*%
%TO.N,+12V*%
X235712000Y-45720000D03*
X235712000Y-42320000D03*
%TO.P,F7,2*%
%TO.N,/12V_OUT_2*%
X225792000Y-45720000D03*
X225792000Y-42320000D03*
%TD*%
D15*
%TO.P,K1,1*%
%TO.N,GND*%
X151058000Y-79225000D03*
%TO.P,K1,2*%
%TO.N,/FROM_BRB*%
X151058000Y-69065000D03*
D16*
%TO.P,K1,4*%
%TO.N,+12V*%
X166498000Y-83035000D03*
D17*
%TO.P,K1,3*%
%TO.N,/BATT_IN*%
X163068000Y-64285000D03*
%TD*%
D12*
%TO.P,F6,1*%
%TO.N,+12V*%
X211328000Y-84328000D03*
X214728000Y-84328000D03*
%TO.P,F6,2*%
%TO.N,/12V_OUT_1*%
X211328000Y-74408000D03*
X214728000Y-74408000D03*
%TD*%
%TO.P,F5,1*%
%TO.N,+12V*%
X182372000Y-84328000D03*
X185772000Y-84328000D03*
%TO.P,F5,2*%
%TO.N,/PUMP*%
X182372000Y-74408000D03*
X185772000Y-74408000D03*
%TD*%
%TO.P,F4,1*%
%TO.N,+12V*%
X201676000Y-84328000D03*
X205076000Y-84328000D03*
%TO.P,F4,2*%
%TO.N,/RADIATOR*%
X201676000Y-74408000D03*
X205076000Y-74408000D03*
%TD*%
%TO.P,F3,1*%
%TO.N,+12V*%
X235712000Y-63500000D03*
X235712000Y-60100000D03*
%TO.P,F3,2*%
%TO.N,/RINEHART*%
X225792000Y-63500000D03*
X225792000Y-60100000D03*
%TD*%
%TO.P,F2,1*%
%TO.N,+12V*%
X192024000Y-84328000D03*
X195424000Y-84328000D03*
%TO.P,F2,2*%
%TO.N,/DAQ*%
X192024000Y-74408000D03*
X195424000Y-74408000D03*
%TD*%
%TO.P,F1,1*%
%TO.N,+12V*%
X235712000Y-54356000D03*
X235712000Y-50956000D03*
%TO.P,F1,2*%
%TO.N,/SHUTDOWN_OUT*%
X225792000Y-54356000D03*
X225792000Y-50956000D03*
%TD*%
D18*
%TO.N,*%
X154305000Y-43180000D03*
X154305000Y-45720000D03*
X154305000Y-48260000D03*
X154305000Y-50800000D03*
X154305000Y-53340000D03*
%TO.N,/DCDC_IN*%
X164084000Y-41148000D03*
X166116000Y-41148000D03*
X168148000Y-41148000D03*
X170180000Y-41148000D03*
X172212000Y-41148000D03*
X174244000Y-41148000D03*
X176276000Y-41148000D03*
X178308000Y-41148000D03*
X180340000Y-41148000D03*
X182372000Y-41148000D03*
X184404000Y-41148000D03*
X186436000Y-41148000D03*
X188468000Y-41148000D03*
X190500000Y-41148000D03*
X192532000Y-41148000D03*
X194564000Y-41148000D03*
X196596000Y-41148000D03*
%TO.N,/BATT_IN*%
X183896000Y-49784000D03*
X182372000Y-50292000D03*
X180848000Y-50800000D03*
X179324000Y-51308000D03*
X177800000Y-51816000D03*
X176276000Y-52324000D03*
X183896000Y-51816000D03*
X182372000Y-52324000D03*
X180848000Y-52832000D03*
X179324000Y-53340000D03*
X177800000Y-53848000D03*
X176276000Y-54356000D03*
X150368000Y-65532000D03*
X151892000Y-65532000D03*
X153416000Y-65532000D03*
X154940000Y-65532000D03*
X156464000Y-65532000D03*
%TO.N,+12V*%
X221996000Y-79756000D03*
X223520000Y-78232000D03*
X225044000Y-76708000D03*
X226568000Y-75184000D03*
X228092000Y-73660000D03*
X229616000Y-72136000D03*
X231140000Y-70612000D03*
X232664000Y-69088000D03*
X234696000Y-72644000D03*
X224028000Y-83312000D03*
X230124000Y-77216000D03*
X233172000Y-74168000D03*
X228600000Y-78740000D03*
X225552000Y-81788000D03*
X227076000Y-80264000D03*
X231648000Y-75692000D03*
%TO.N,/SHUTDOWN_OUT*%
X211328000Y-52832000D03*
X213360000Y-52324000D03*
X215392000Y-51816000D03*
X217424000Y-51308000D03*
X219456000Y-50800000D03*
X213360000Y-54356000D03*
X215392000Y-53848000D03*
X217424000Y-53340000D03*
X219456000Y-52832000D03*
%TO.N,/DAQ*%
X194564000Y-60452000D03*
X195072000Y-62484000D03*
X195580000Y-64516000D03*
X196088000Y-66548000D03*
X196596000Y-68580000D03*
X191516000Y-60452000D03*
X191008000Y-62484000D03*
X190500000Y-64516000D03*
X189992000Y-66548000D03*
X189484000Y-68580000D03*
%TO.N,/RINEHART*%
X209296000Y-57404000D03*
X211328000Y-57912000D03*
X213360000Y-58420000D03*
X215392000Y-58928000D03*
X217424000Y-59436000D03*
X219456000Y-59944000D03*
X221488000Y-59944000D03*
X208280000Y-59436000D03*
X210312000Y-59944000D03*
X212344000Y-60452000D03*
X214376000Y-60960000D03*
X221488000Y-61976000D03*
X218948000Y-61976000D03*
X216408000Y-61468000D03*
%TO.N,/RADIATOR*%
X196596000Y-60452000D03*
X197104000Y-62484000D03*
X197612000Y-64516000D03*
X198120000Y-66548000D03*
X198628000Y-68580000D03*
X199136000Y-59944000D03*
X200660000Y-61976000D03*
X202184000Y-64008000D03*
X203708000Y-66040000D03*
X205232000Y-68072000D03*
X206756000Y-70104000D03*
%TO.N,/PUMP*%
X189484000Y-59944000D03*
X188976000Y-62484000D03*
X188468000Y-64516000D03*
X187960000Y-66548000D03*
X187452000Y-68580000D03*
X186436000Y-59944000D03*
X185420000Y-62484000D03*
X184404000Y-64516000D03*
X183388000Y-66548000D03*
X182372000Y-68580000D03*
%TO.N,/12V_OUT_1*%
X202692000Y-59436000D03*
X204216000Y-60960000D03*
X205740000Y-62484000D03*
X207264000Y-64008000D03*
X208788000Y-65532000D03*
X210312000Y-67056000D03*
%TO.N,/12V_OUT_2*%
X208788000Y-45720000D03*
X210820000Y-44196000D03*
X212852000Y-42672000D03*
X215392000Y-41656000D03*
X217932000Y-41656000D03*
X220472000Y-41656000D03*
X208788000Y-47752000D03*
X210820000Y-46228000D03*
X212852000Y-44704000D03*
X215392000Y-43688000D03*
X217932000Y-43688000D03*
X220472000Y-43688000D03*
%TD*%
D19*
%TO.N,/TO_BRB*%
X193104000Y-48832000D02*
X193104000Y-46800000D01*
X173916001Y-47932001D02*
X172212000Y-46228000D01*
X180868503Y-46119499D02*
X179056001Y-47932001D01*
X193104000Y-46800000D02*
X192423499Y-46119499D01*
X179056001Y-47932001D02*
X173916001Y-47932001D01*
X192423499Y-46119499D02*
X180868503Y-46119499D01*
X173228000Y-46228000D02*
X169828000Y-46228000D01*
D20*
%TO.N,GND*%
X199104000Y-52832000D02*
X200152000Y-52832000D01*
X203016501Y-49967499D02*
X203016501Y-41299431D01*
X200152000Y-52832000D02*
X203016501Y-49967499D01*
X199633060Y-37915990D02*
X147838940Y-37915990D01*
X203016501Y-41299431D02*
X199633060Y-37915990D01*
X147838940Y-37915990D02*
X143579990Y-42174940D01*
X143579990Y-71746990D02*
X151058000Y-79225000D01*
X143579990Y-42174940D02*
X143579990Y-71746990D01*
D21*
%TO.N,/FROM_BRB*%
X201104000Y-48832000D02*
X201104000Y-41084000D01*
X201104000Y-41084000D02*
X199136000Y-39116000D01*
X199136000Y-39116000D02*
X148336000Y-39116000D01*
X148336000Y-39116000D02*
X144780000Y-42672000D01*
X144780000Y-42672000D02*
X144780000Y-65024000D01*
X148821000Y-69065000D02*
X151058000Y-69065000D01*
X144780000Y-65024000D02*
X148821000Y-69065000D01*
D19*
%TO.N,/DCDC_Fused*%
X147828000Y-57404000D02*
X147828000Y-60960000D01*
X149084000Y-56148000D02*
X147828000Y-57404000D01*
X152908000Y-58928000D02*
X152908000Y-60960000D01*
X155688000Y-56148000D02*
X152908000Y-58928000D01*
X149084000Y-56148000D02*
X155688000Y-56148000D01*
X155688000Y-56148000D02*
X164084000Y-56148000D01*
%TD*%
D22*
%TO.N,/BATT_IN*%
X190830050Y-48063322D02*
X190969662Y-48288195D01*
X191072596Y-48532049D01*
X191137543Y-48793767D01*
X191156500Y-48907509D01*
X191156500Y-49023812D01*
X191231341Y-49400065D01*
X191243475Y-49429359D01*
X191285360Y-49680669D01*
X191287353Y-49690309D01*
X191361803Y-49991045D01*
X191367996Y-50009718D01*
X191487998Y-50295348D01*
X191497000Y-50312841D01*
X191659676Y-50576510D01*
X191671272Y-50592402D01*
X191872718Y-50827783D01*
X191879403Y-50835009D01*
X192361475Y-51317081D01*
X192525736Y-51504384D01*
X192661829Y-51708062D01*
X192770175Y-51927768D01*
X192848916Y-52159728D01*
X192896707Y-52399989D01*
X192913000Y-52648583D01*
X192913000Y-53434990D01*
X192891374Y-53698452D01*
X192828345Y-53949800D01*
X192725171Y-54187511D01*
X192698384Y-54229000D01*
X185928000Y-54229000D01*
X185804118Y-54241201D01*
X185684996Y-54277336D01*
X185575213Y-54336017D01*
X185478987Y-54414987D01*
X185400017Y-54511213D01*
X185341336Y-54620996D01*
X185305201Y-54740118D01*
X185293000Y-54864000D01*
X185293000Y-55482679D01*
X177017207Y-58701043D01*
X177008542Y-58704790D01*
X176740385Y-58832754D01*
X176724008Y-58842122D01*
X176477769Y-59008401D01*
X176470147Y-59013971D01*
X167601599Y-66015457D01*
X167391869Y-66159390D01*
X167168626Y-66272174D01*
X166932338Y-66354204D01*
X166687240Y-66404012D01*
X166433422Y-66421000D01*
X150340530Y-66421000D01*
X150069496Y-66401615D01*
X149808407Y-66344819D01*
X149558060Y-66251444D01*
X149323555Y-66123395D01*
X149109662Y-65963276D01*
X148920724Y-65774338D01*
X148760605Y-65560445D01*
X148632556Y-65325940D01*
X148539181Y-65075593D01*
X148482385Y-64814504D01*
X148463000Y-64543470D01*
X148463000Y-62684944D01*
X148533622Y-62663521D01*
X148852404Y-62493129D01*
X148860904Y-62486153D01*
X148904982Y-62481812D01*
X149024680Y-62445502D01*
X149134994Y-62386537D01*
X149231685Y-62307185D01*
X149311037Y-62210494D01*
X149370002Y-62100180D01*
X149406312Y-61980482D01*
X149416044Y-61881664D01*
X149531521Y-61665622D01*
X149636448Y-61319723D01*
X149663000Y-61050139D01*
X149663000Y-59693415D01*
X149808407Y-59639181D01*
X150069496Y-59582385D01*
X150340530Y-59563000D01*
X151073000Y-59563000D01*
X151073001Y-61050139D01*
X151099553Y-61319723D01*
X151204480Y-61665622D01*
X151374872Y-61984404D01*
X151604182Y-62263819D01*
X151883597Y-62493129D01*
X152202379Y-62663521D01*
X152548278Y-62768448D01*
X152908000Y-62803878D01*
X153267723Y-62768448D01*
X153613622Y-62663521D01*
X153932404Y-62493129D01*
X154211819Y-62263819D01*
X154343800Y-62103000D01*
X158691242Y-62103000D01*
X158700506Y-62102662D01*
X158991494Y-62081380D01*
X159009823Y-62078684D01*
X159294618Y-62015292D01*
X159312361Y-62009958D01*
X159584902Y-61905804D01*
X159601680Y-61897946D01*
X159856168Y-61755248D01*
X159871624Y-61745032D01*
X160102642Y-61566825D01*
X160109770Y-61560899D01*
X163895015Y-58173000D01*
X164283445Y-58173000D01*
X164674671Y-58095180D01*
X165043197Y-57942532D01*
X165374862Y-57720920D01*
X165656920Y-57438862D01*
X165878532Y-57107197D01*
X166031180Y-56738671D01*
X166109000Y-56347445D01*
X166109000Y-56191422D01*
X169437976Y-53211897D01*
X169646946Y-53049536D01*
X169872548Y-52919920D01*
X170118067Y-52821165D01*
X185160489Y-47954499D01*
X190736175Y-47954499D01*
X190830050Y-48063322D01*
%TA.AperFunction,Conductor*%
D23*
G36*
X190830050Y-48063322D02*
G01*
X190969662Y-48288195D01*
X191072596Y-48532049D01*
X191137543Y-48793767D01*
X191156500Y-48907509D01*
X191156500Y-49023812D01*
X191231341Y-49400065D01*
X191243475Y-49429359D01*
X191285360Y-49680669D01*
X191287353Y-49690309D01*
X191361803Y-49991045D01*
X191367996Y-50009718D01*
X191487998Y-50295348D01*
X191497000Y-50312841D01*
X191659676Y-50576510D01*
X191671272Y-50592402D01*
X191872718Y-50827783D01*
X191879403Y-50835009D01*
X192361475Y-51317081D01*
X192525736Y-51504384D01*
X192661829Y-51708062D01*
X192770175Y-51927768D01*
X192848916Y-52159728D01*
X192896707Y-52399989D01*
X192913000Y-52648583D01*
X192913000Y-53434990D01*
X192891374Y-53698452D01*
X192828345Y-53949800D01*
X192725171Y-54187511D01*
X192698384Y-54229000D01*
X185928000Y-54229000D01*
X185804118Y-54241201D01*
X185684996Y-54277336D01*
X185575213Y-54336017D01*
X185478987Y-54414987D01*
X185400017Y-54511213D01*
X185341336Y-54620996D01*
X185305201Y-54740118D01*
X185293000Y-54864000D01*
X185293000Y-55482679D01*
X177017207Y-58701043D01*
X177008542Y-58704790D01*
X176740385Y-58832754D01*
X176724008Y-58842122D01*
X176477769Y-59008401D01*
X176470147Y-59013971D01*
X167601599Y-66015457D01*
X167391869Y-66159390D01*
X167168626Y-66272174D01*
X166932338Y-66354204D01*
X166687240Y-66404012D01*
X166433422Y-66421000D01*
X150340530Y-66421000D01*
X150069496Y-66401615D01*
X149808407Y-66344819D01*
X149558060Y-66251444D01*
X149323555Y-66123395D01*
X149109662Y-65963276D01*
X148920724Y-65774338D01*
X148760605Y-65560445D01*
X148632556Y-65325940D01*
X148539181Y-65075593D01*
X148482385Y-64814504D01*
X148463000Y-64543470D01*
X148463000Y-62684944D01*
X148533622Y-62663521D01*
X148852404Y-62493129D01*
X148860904Y-62486153D01*
X148904982Y-62481812D01*
X149024680Y-62445502D01*
X149134994Y-62386537D01*
X149231685Y-62307185D01*
X149311037Y-62210494D01*
X149370002Y-62100180D01*
X149406312Y-61980482D01*
X149416044Y-61881664D01*
X149531521Y-61665622D01*
X149636448Y-61319723D01*
X149663000Y-61050139D01*
X149663000Y-59693415D01*
X149808407Y-59639181D01*
X150069496Y-59582385D01*
X150340530Y-59563000D01*
X151073000Y-59563000D01*
X151073001Y-61050139D01*
X151099553Y-61319723D01*
X151204480Y-61665622D01*
X151374872Y-61984404D01*
X151604182Y-62263819D01*
X151883597Y-62493129D01*
X152202379Y-62663521D01*
X152548278Y-62768448D01*
X152908000Y-62803878D01*
X153267723Y-62768448D01*
X153613622Y-62663521D01*
X153932404Y-62493129D01*
X154211819Y-62263819D01*
X154343800Y-62103000D01*
X158691242Y-62103000D01*
X158700506Y-62102662D01*
X158991494Y-62081380D01*
X159009823Y-62078684D01*
X159294618Y-62015292D01*
X159312361Y-62009958D01*
X159584902Y-61905804D01*
X159601680Y-61897946D01*
X159856168Y-61755248D01*
X159871624Y-61745032D01*
X160102642Y-61566825D01*
X160109770Y-61560899D01*
X163895015Y-58173000D01*
X164283445Y-58173000D01*
X164674671Y-58095180D01*
X165043197Y-57942532D01*
X165374862Y-57720920D01*
X165656920Y-57438862D01*
X165878532Y-57107197D01*
X166031180Y-56738671D01*
X166109000Y-56347445D01*
X166109000Y-56191422D01*
X169437976Y-53211897D01*
X169646946Y-53049536D01*
X169872548Y-52919920D01*
X170118067Y-52821165D01*
X185160489Y-47954499D01*
X190736175Y-47954499D01*
X190830050Y-48063322D01*
G37*
%TD.AperFunction*%
%TD*%
D22*
%TO.N,/DCDC_IN*%
X199869001Y-41595555D02*
X199869000Y-47314962D01*
X199862541Y-47319278D01*
X199591278Y-47590541D01*
X199378148Y-47909513D01*
X199231341Y-48263935D01*
X199156500Y-48640188D01*
X199156500Y-49023812D01*
X199170602Y-49094707D01*
X198234338Y-51084267D01*
X198181513Y-51106148D01*
X197862541Y-51319278D01*
X197591278Y-51590541D01*
X197378148Y-51909513D01*
X197231341Y-52263935D01*
X197156500Y-52640188D01*
X197156500Y-53023812D01*
X197205555Y-53270430D01*
X197023427Y-53657452D01*
X196891972Y-53892172D01*
X196731489Y-54102450D01*
X196602931Y-54229000D01*
X194000280Y-54229000D01*
X193942118Y-54160901D01*
X193827616Y-53974051D01*
X193743747Y-53771574D01*
X193692586Y-53558473D01*
X193675000Y-53335017D01*
X193675000Y-52293045D01*
X193697700Y-51999878D01*
X193764128Y-51718485D01*
X193874937Y-51446107D01*
X194466446Y-50263087D01*
X194470492Y-50254149D01*
X194494126Y-50196055D01*
X194616722Y-50073459D01*
X194829852Y-49754487D01*
X194976659Y-49400065D01*
X195051500Y-49023812D01*
X195051500Y-48640188D01*
X194976659Y-48263935D01*
X194939000Y-48173019D01*
X194939000Y-46890141D01*
X194947878Y-46800000D01*
X194912449Y-46440277D01*
X194815141Y-46119499D01*
X194807521Y-46094378D01*
X194648847Y-45797518D01*
X194607084Y-45605539D01*
X194601979Y-45588153D01*
X194502257Y-45320788D01*
X194494729Y-45304305D01*
X194357972Y-45053853D01*
X194348176Y-45038610D01*
X194177168Y-44810171D01*
X194165302Y-44796476D01*
X193963524Y-44594698D01*
X193949829Y-44582832D01*
X193721390Y-44411824D01*
X193706147Y-44402028D01*
X193455695Y-44265271D01*
X193439212Y-44257743D01*
X193171847Y-44158021D01*
X193154461Y-44152916D01*
X192875626Y-44092259D01*
X192857690Y-44089681D01*
X192573060Y-44069324D01*
X192564000Y-44069000D01*
X178644466Y-44069000D01*
X178380912Y-43959832D01*
X178065033Y-43897000D01*
X177742967Y-43897000D01*
X177427088Y-43959832D01*
X177163534Y-44069000D01*
X169132000Y-44069000D01*
X169122940Y-44069324D01*
X168838310Y-44089681D01*
X168820374Y-44092259D01*
X168541539Y-44152916D01*
X168524153Y-44158021D01*
X168256788Y-44257743D01*
X168240305Y-44265271D01*
X167989853Y-44402028D01*
X167974610Y-44411824D01*
X167746171Y-44582832D01*
X167732476Y-44594698D01*
X167530698Y-44796476D01*
X167518832Y-44810171D01*
X167347824Y-45038610D01*
X167338028Y-45053853D01*
X167201271Y-45304305D01*
X167193743Y-45320788D01*
X167094021Y-45588153D01*
X167088916Y-45605539D01*
X167028259Y-45884374D01*
X167025681Y-45902310D01*
X167005324Y-46186940D01*
X167005000Y-46196000D01*
X167005000Y-47779470D01*
X166985615Y-48050504D01*
X166928819Y-48311593D01*
X166835444Y-48561940D01*
X166707395Y-48796445D01*
X166547276Y-49010338D01*
X166358338Y-49199276D01*
X166144445Y-49359395D01*
X165909940Y-49487444D01*
X165659593Y-49580819D01*
X165398504Y-49637615D01*
X165127470Y-49657000D01*
X158976530Y-49657000D01*
X158705496Y-49637615D01*
X158444407Y-49580819D01*
X158194060Y-49487444D01*
X157959555Y-49359395D01*
X157745662Y-49199276D01*
X157556724Y-49010338D01*
X157396605Y-48796445D01*
X157268556Y-48561940D01*
X157175181Y-48311593D01*
X157118385Y-48050504D01*
X157099000Y-47779470D01*
X157099000Y-41628530D01*
X157118385Y-41357496D01*
X157175181Y-41096407D01*
X157268556Y-40846060D01*
X157396605Y-40611555D01*
X157556724Y-40397662D01*
X157603386Y-40351000D01*
X198624447Y-40351000D01*
X199869001Y-41595555D01*
%TA.AperFunction,Conductor*%
D23*
G36*
X199869001Y-41595555D02*
G01*
X199869000Y-47314962D01*
X199862541Y-47319278D01*
X199591278Y-47590541D01*
X199378148Y-47909513D01*
X199231341Y-48263935D01*
X199156500Y-48640188D01*
X199156500Y-49023812D01*
X199170602Y-49094707D01*
X198234338Y-51084267D01*
X198181513Y-51106148D01*
X197862541Y-51319278D01*
X197591278Y-51590541D01*
X197378148Y-51909513D01*
X197231341Y-52263935D01*
X197156500Y-52640188D01*
X197156500Y-53023812D01*
X197205555Y-53270430D01*
X197023427Y-53657452D01*
X196891972Y-53892172D01*
X196731489Y-54102450D01*
X196602931Y-54229000D01*
X194000280Y-54229000D01*
X193942118Y-54160901D01*
X193827616Y-53974051D01*
X193743747Y-53771574D01*
X193692586Y-53558473D01*
X193675000Y-53335017D01*
X193675000Y-52293045D01*
X193697700Y-51999878D01*
X193764128Y-51718485D01*
X193874937Y-51446107D01*
X194466446Y-50263087D01*
X194470492Y-50254149D01*
X194494126Y-50196055D01*
X194616722Y-50073459D01*
X194829852Y-49754487D01*
X194976659Y-49400065D01*
X195051500Y-49023812D01*
X195051500Y-48640188D01*
X194976659Y-48263935D01*
X194939000Y-48173019D01*
X194939000Y-46890141D01*
X194947878Y-46800000D01*
X194912449Y-46440277D01*
X194815141Y-46119499D01*
X194807521Y-46094378D01*
X194648847Y-45797518D01*
X194607084Y-45605539D01*
X194601979Y-45588153D01*
X194502257Y-45320788D01*
X194494729Y-45304305D01*
X194357972Y-45053853D01*
X194348176Y-45038610D01*
X194177168Y-44810171D01*
X194165302Y-44796476D01*
X193963524Y-44594698D01*
X193949829Y-44582832D01*
X193721390Y-44411824D01*
X193706147Y-44402028D01*
X193455695Y-44265271D01*
X193439212Y-44257743D01*
X193171847Y-44158021D01*
X193154461Y-44152916D01*
X192875626Y-44092259D01*
X192857690Y-44089681D01*
X192573060Y-44069324D01*
X192564000Y-44069000D01*
X178644466Y-44069000D01*
X178380912Y-43959832D01*
X178065033Y-43897000D01*
X177742967Y-43897000D01*
X177427088Y-43959832D01*
X177163534Y-44069000D01*
X169132000Y-44069000D01*
X169122940Y-44069324D01*
X168838310Y-44089681D01*
X168820374Y-44092259D01*
X168541539Y-44152916D01*
X168524153Y-44158021D01*
X168256788Y-44257743D01*
X168240305Y-44265271D01*
X167989853Y-44402028D01*
X167974610Y-44411824D01*
X167746171Y-44582832D01*
X167732476Y-44594698D01*
X167530698Y-44796476D01*
X167518832Y-44810171D01*
X167347824Y-45038610D01*
X167338028Y-45053853D01*
X167201271Y-45304305D01*
X167193743Y-45320788D01*
X167094021Y-45588153D01*
X167088916Y-45605539D01*
X167028259Y-45884374D01*
X167025681Y-45902310D01*
X167005324Y-46186940D01*
X167005000Y-46196000D01*
X167005000Y-47779470D01*
X166985615Y-48050504D01*
X166928819Y-48311593D01*
X166835444Y-48561940D01*
X166707395Y-48796445D01*
X166547276Y-49010338D01*
X166358338Y-49199276D01*
X166144445Y-49359395D01*
X165909940Y-49487444D01*
X165659593Y-49580819D01*
X165398504Y-49637615D01*
X165127470Y-49657000D01*
X158976530Y-49657000D01*
X158705496Y-49637615D01*
X158444407Y-49580819D01*
X158194060Y-49487444D01*
X157959555Y-49359395D01*
X157745662Y-49199276D01*
X157556724Y-49010338D01*
X157396605Y-48796445D01*
X157268556Y-48561940D01*
X157175181Y-48311593D01*
X157118385Y-48050504D01*
X157099000Y-47779470D01*
X157099000Y-41628530D01*
X157118385Y-41357496D01*
X157175181Y-41096407D01*
X157268556Y-40846060D01*
X157396605Y-40611555D01*
X157556724Y-40397662D01*
X157603386Y-40351000D01*
X198624447Y-40351000D01*
X199869001Y-41595555D01*
G37*
%TD.AperFunction*%
%TD*%
D22*
%TO.N,/PUMP*%
X190373000Y-58357121D02*
X187845331Y-70995466D01*
X187833000Y-71120000D01*
X187833000Y-77597000D01*
X179959000Y-77597000D01*
X179959000Y-71149980D01*
X186041592Y-58984796D01*
X186050490Y-58961544D01*
X186055000Y-58928000D01*
X186055000Y-54991000D01*
X190373000Y-54991000D01*
X190373000Y-58357121D01*
%TA.AperFunction,Conductor*%
D23*
G36*
X190373000Y-58357121D02*
G01*
X187845331Y-70995466D01*
X187833000Y-71120000D01*
X187833000Y-77597000D01*
X179959000Y-77597000D01*
X179959000Y-71149980D01*
X186041592Y-58984796D01*
X186050490Y-58961544D01*
X186055000Y-58928000D01*
X186055000Y-54991000D01*
X190373000Y-54991000D01*
X190373000Y-58357121D01*
G37*
%TD.AperFunction*%
%TD*%
D22*
%TO.N,/DAQ*%
X194437000Y-57912000D02*
X194460518Y-58083215D01*
X197993000Y-70699222D01*
X197993000Y-77597000D01*
X188595000Y-77597000D01*
X188595000Y-71132577D01*
X191132534Y-58444907D01*
X191135000Y-58420000D01*
X191135000Y-54991000D01*
X194437000Y-54991000D01*
X194437000Y-57912000D01*
%TA.AperFunction,Conductor*%
D23*
G36*
X194437000Y-57912000D02*
G01*
X194460518Y-58083215D01*
X197993000Y-70699222D01*
X197993000Y-77597000D01*
X188595000Y-77597000D01*
X188595000Y-71132577D01*
X191132534Y-58444907D01*
X191135000Y-58420000D01*
X191135000Y-54991000D01*
X194437000Y-54991000D01*
X194437000Y-57912000D01*
G37*
%TD.AperFunction*%
%TD*%
D22*
%TO.N,/RADIATOR*%
X198501000Y-57912000D02*
X198517914Y-58057584D01*
X198558192Y-58175369D01*
X198620676Y-58283034D01*
X207645000Y-70816817D01*
X207645000Y-77597000D01*
X198755000Y-77597000D01*
X198755000Y-70612000D01*
X198750296Y-70577757D01*
X195199000Y-57894557D01*
X195199000Y-54991000D01*
X198501000Y-54991000D01*
X198501000Y-57912000D01*
%TA.AperFunction,Conductor*%
D23*
G36*
X198501000Y-57912000D02*
G01*
X198517914Y-58057584D01*
X198558192Y-58175369D01*
X198620676Y-58283034D01*
X207645000Y-70816817D01*
X207645000Y-77597000D01*
X198755000Y-77597000D01*
X198755000Y-70612000D01*
X198750296Y-70577757D01*
X195199000Y-57894557D01*
X195199000Y-54991000D01*
X198501000Y-54991000D01*
X198501000Y-57912000D01*
G37*
%TD.AperFunction*%
%TD*%
D22*
%TO.N,/12V_OUT_1*%
X200581336Y-55107004D02*
X200640017Y-55216787D01*
X200718987Y-55313013D01*
X200815213Y-55391983D01*
X200924996Y-55450664D01*
X201044118Y-55486799D01*
X201168000Y-55499000D01*
X202565000Y-55499000D01*
X202565000Y-57912000D01*
X202581841Y-58057272D01*
X202622059Y-58175077D01*
X202684488Y-58282773D01*
X202766728Y-58376220D01*
X210378718Y-65480744D01*
X211386987Y-66489013D01*
X211483213Y-66567983D01*
X211592996Y-66626664D01*
X211712118Y-66662799D01*
X211836000Y-66675000D01*
X212477112Y-66675000D01*
X216789000Y-70667489D01*
X216789000Y-77597000D01*
X208407000Y-77597000D01*
X208407000Y-70612000D01*
X208404560Y-70587224D01*
X208397333Y-70563399D01*
X208383065Y-70537793D01*
X199263000Y-57871036D01*
X199263000Y-54991000D01*
X200546147Y-54991000D01*
X200581336Y-55107004D01*
%TA.AperFunction,Conductor*%
D23*
G36*
X200581336Y-55107004D02*
G01*
X200640017Y-55216787D01*
X200718987Y-55313013D01*
X200815213Y-55391983D01*
X200924996Y-55450664D01*
X201044118Y-55486799D01*
X201168000Y-55499000D01*
X202565000Y-55499000D01*
X202565000Y-57912000D01*
X202581841Y-58057272D01*
X202622059Y-58175077D01*
X202684488Y-58282773D01*
X202766728Y-58376220D01*
X210378718Y-65480744D01*
X211386987Y-66489013D01*
X211483213Y-66567983D01*
X211592996Y-66626664D01*
X211712118Y-66662799D01*
X211836000Y-66675000D01*
X212477112Y-66675000D01*
X216789000Y-70667489D01*
X216789000Y-77597000D01*
X208407000Y-77597000D01*
X208407000Y-70612000D01*
X208404560Y-70587224D01*
X208397333Y-70563399D01*
X208383065Y-70537793D01*
X199263000Y-57871036D01*
X199263000Y-54991000D01*
X200546147Y-54991000D01*
X200581336Y-55107004D01*
G37*
%TD.AperFunction*%
%TD*%
D22*
%TO.N,/RINEHART*%
X220855466Y-58026669D02*
X220980000Y-58039000D01*
X229489000Y-58039000D01*
X229489000Y-65913000D01*
X211888606Y-65913000D01*
X210909803Y-64934197D01*
X210906654Y-64931156D01*
X209342166Y-63470967D01*
X213169000Y-63470967D01*
X213169000Y-63793033D01*
X213231832Y-64108912D01*
X213355082Y-64406463D01*
X213534013Y-64674252D01*
X213761748Y-64901987D01*
X214029537Y-65080918D01*
X214327088Y-65204168D01*
X214642967Y-65267000D01*
X214965033Y-65267000D01*
X215280912Y-65204168D01*
X215578463Y-65080918D01*
X215846252Y-64901987D01*
X216073987Y-64674252D01*
X216252918Y-64406463D01*
X216376168Y-64108912D01*
X216439000Y-63793033D01*
X216439000Y-63470967D01*
X216376168Y-63155088D01*
X216252918Y-62857537D01*
X216073987Y-62589748D01*
X215846252Y-62362013D01*
X215578463Y-62183082D01*
X215280912Y-62059832D01*
X214965033Y-61997000D01*
X214642967Y-61997000D01*
X214327088Y-62059832D01*
X214029537Y-62183082D01*
X213761748Y-62362013D01*
X213534013Y-62589748D01*
X213355082Y-62857537D01*
X213231832Y-63155088D01*
X213169000Y-63470967D01*
X209342166Y-63470967D01*
X203327000Y-57856812D01*
X203327000Y-55499000D01*
X208217121Y-55499000D01*
X220855466Y-58026669D01*
%TA.AperFunction,Conductor*%
D23*
G36*
X220855466Y-58026669D02*
G01*
X220980000Y-58039000D01*
X229489000Y-58039000D01*
X229489000Y-65913000D01*
X211888606Y-65913000D01*
X210909803Y-64934197D01*
X210906654Y-64931156D01*
X209342166Y-63470967D01*
X213169000Y-63470967D01*
X213169000Y-63793033D01*
X213231832Y-64108912D01*
X213355082Y-64406463D01*
X213534013Y-64674252D01*
X213761748Y-64901987D01*
X214029537Y-65080918D01*
X214327088Y-65204168D01*
X214642967Y-65267000D01*
X214965033Y-65267000D01*
X215280912Y-65204168D01*
X215578463Y-65080918D01*
X215846252Y-64901987D01*
X216073987Y-64674252D01*
X216252918Y-64406463D01*
X216376168Y-64108912D01*
X216439000Y-63793033D01*
X216439000Y-63470967D01*
X216376168Y-63155088D01*
X216252918Y-62857537D01*
X216073987Y-62589748D01*
X215846252Y-62362013D01*
X215578463Y-62183082D01*
X215280912Y-62059832D01*
X214965033Y-61997000D01*
X214642967Y-61997000D01*
X214327088Y-62059832D01*
X214029537Y-62183082D01*
X213761748Y-62362013D01*
X213534013Y-62589748D01*
X213355082Y-62857537D01*
X213231832Y-63155088D01*
X213169000Y-63470967D01*
X209342166Y-63470967D01*
X203327000Y-57856812D01*
X203327000Y-55499000D01*
X208217121Y-55499000D01*
X220855466Y-58026669D01*
G37*
%TD.AperFunction*%
%TD*%
D22*
%TO.N,/12V_OUT_2*%
X229997000Y-48133000D02*
X219964000Y-48133000D01*
X219928165Y-48138161D01*
X211309712Y-50673000D01*
X203776431Y-50673000D01*
X203870931Y-50557852D01*
X203881235Y-50545297D01*
X203977341Y-50365493D01*
X203977342Y-50365492D01*
X204036525Y-50170394D01*
X204051501Y-50018337D01*
X204051501Y-50018328D01*
X204056507Y-49967500D01*
X204051501Y-49916672D01*
X204051501Y-46828967D01*
X206238501Y-45370967D01*
X214669000Y-45370967D01*
X214669000Y-45693033D01*
X214731832Y-46008912D01*
X214855082Y-46306463D01*
X215034013Y-46574252D01*
X215261748Y-46801987D01*
X215529537Y-46980918D01*
X215827088Y-47104168D01*
X216142967Y-47167000D01*
X216465033Y-47167000D01*
X216780912Y-47104168D01*
X217078463Y-46980918D01*
X217346252Y-46801987D01*
X217573987Y-46574252D01*
X217752918Y-46306463D01*
X217876168Y-46008912D01*
X217939000Y-45693033D01*
X217939000Y-45370967D01*
X217876168Y-45055088D01*
X217752918Y-44757537D01*
X217573987Y-44489748D01*
X217346252Y-44262013D01*
X217078463Y-44083082D01*
X216780912Y-43959832D01*
X216465033Y-43897000D01*
X216142967Y-43897000D01*
X215827088Y-43959832D01*
X215529537Y-44083082D01*
X215261748Y-44262013D01*
X215034013Y-44489748D01*
X214855082Y-44757537D01*
X214731832Y-45055088D01*
X214669000Y-45370967D01*
X206238501Y-45370967D01*
X213906452Y-40259000D01*
X229997000Y-40259000D01*
X229997000Y-48133000D01*
%TA.AperFunction,Conductor*%
D23*
G36*
X229997000Y-48133000D02*
G01*
X219964000Y-48133000D01*
X219928165Y-48138161D01*
X211309712Y-50673000D01*
X203776431Y-50673000D01*
X203870931Y-50557852D01*
X203881235Y-50545297D01*
X203977341Y-50365493D01*
X203977342Y-50365492D01*
X204036525Y-50170394D01*
X204051501Y-50018337D01*
X204051501Y-50018328D01*
X204056507Y-49967500D01*
X204051501Y-49916672D01*
X204051501Y-46828967D01*
X206238501Y-45370967D01*
X214669000Y-45370967D01*
X214669000Y-45693033D01*
X214731832Y-46008912D01*
X214855082Y-46306463D01*
X215034013Y-46574252D01*
X215261748Y-46801987D01*
X215529537Y-46980918D01*
X215827088Y-47104168D01*
X216142967Y-47167000D01*
X216465033Y-47167000D01*
X216780912Y-47104168D01*
X217078463Y-46980918D01*
X217346252Y-46801987D01*
X217573987Y-46574252D01*
X217752918Y-46306463D01*
X217876168Y-46008912D01*
X217939000Y-45693033D01*
X217939000Y-45370967D01*
X217876168Y-45055088D01*
X217752918Y-44757537D01*
X217573987Y-44489748D01*
X217346252Y-44262013D01*
X217078463Y-44083082D01*
X216780912Y-43959832D01*
X216465033Y-43897000D01*
X216142967Y-43897000D01*
X215827088Y-43959832D01*
X215529537Y-44083082D01*
X215261748Y-44262013D01*
X215034013Y-44489748D01*
X214855082Y-44757537D01*
X214731832Y-45055088D01*
X214669000Y-45370967D01*
X206238501Y-45370967D01*
X213906452Y-40259000D01*
X229997000Y-40259000D01*
X229997000Y-48133000D01*
G37*
%TD.AperFunction*%
%TD*%
D22*
%TO.N,/SHUTDOWN_OUT*%
X229489000Y-57277000D02*
X220992577Y-57277000D01*
X208304907Y-54739466D01*
X208280000Y-54737000D01*
X201295000Y-54737000D01*
X201295000Y-53152710D01*
X203036830Y-51410881D01*
X203076118Y-51422799D01*
X203200000Y-51435000D01*
X211328000Y-51435000D01*
X211507176Y-51409197D01*
X220055446Y-48895000D01*
X229489000Y-48895000D01*
X229489000Y-57277000D01*
%TA.AperFunction,Conductor*%
D23*
G36*
X229489000Y-57277000D02*
G01*
X220992577Y-57277000D01*
X208304907Y-54739466D01*
X208280000Y-54737000D01*
X201295000Y-54737000D01*
X201295000Y-53152710D01*
X203036830Y-51410881D01*
X203076118Y-51422799D01*
X203200000Y-51435000D01*
X211328000Y-51435000D01*
X211507176Y-51409197D01*
X220055446Y-48895000D01*
X229489000Y-48895000D01*
X229489000Y-57277000D01*
G37*
%TD.AperFunction*%
%TD*%
D22*
%TO.N,+12V*%
X237026504Y-38754385D02*
X237287593Y-38811181D01*
X237537940Y-38904556D01*
X237772445Y-39032605D01*
X237986338Y-39192724D01*
X238175276Y-39381662D01*
X238335395Y-39595555D01*
X238463444Y-39830060D01*
X238556819Y-40080407D01*
X238613615Y-40341496D01*
X238633000Y-40612530D01*
X238633000Y-76575398D01*
X238612056Y-76857060D01*
X238550729Y-77127926D01*
X238450019Y-77386739D01*
X238312137Y-77627814D01*
X238140117Y-77845847D01*
X237937750Y-78036034D01*
X237705588Y-78196898D01*
X221896669Y-87496263D01*
X221670568Y-87609769D01*
X221435429Y-87690923D01*
X221191594Y-87740196D01*
X220939154Y-87757000D01*
X163040530Y-87757000D01*
X162769496Y-87737615D01*
X162508407Y-87680819D01*
X162258060Y-87587444D01*
X162023555Y-87459395D01*
X161809662Y-87299276D01*
X161620724Y-87110338D01*
X161460605Y-86896445D01*
X161332556Y-86661940D01*
X161239181Y-86411593D01*
X161182385Y-86150504D01*
X161163000Y-85879470D01*
X161163000Y-80236530D01*
X161182385Y-79965496D01*
X161239181Y-79704407D01*
X161332556Y-79454060D01*
X161460605Y-79219555D01*
X161620724Y-79005662D01*
X161809662Y-78816724D01*
X162023555Y-78656605D01*
X162258060Y-78528556D01*
X162508407Y-78435181D01*
X162769496Y-78378385D01*
X163040530Y-78359000D01*
X220072464Y-78359000D01*
X220081473Y-78358680D01*
X220364508Y-78338551D01*
X220382345Y-78336001D01*
X220659683Y-78276021D01*
X220676979Y-78270973D01*
X220943038Y-78172348D01*
X220959446Y-78164902D01*
X221208870Y-78029617D01*
X221224059Y-78019925D01*
X221451828Y-77850704D01*
X221465493Y-77838959D01*
X221667021Y-77639208D01*
X221673194Y-77632639D01*
X231248730Y-66689169D01*
X231254490Y-66682089D01*
X231427652Y-66452857D01*
X231437574Y-66437548D01*
X231576107Y-66185871D01*
X231583733Y-66169299D01*
X231684778Y-65900372D01*
X231689951Y-65882879D01*
X231751425Y-65602248D01*
X231754039Y-65584193D01*
X231774672Y-65297651D01*
X231775000Y-65288530D01*
X231775000Y-40612530D01*
X231794385Y-40341496D01*
X231851181Y-40080407D01*
X231944556Y-39830060D01*
X232072605Y-39595555D01*
X232232724Y-39381662D01*
X232421662Y-39192724D01*
X232635555Y-39032605D01*
X232870060Y-38904556D01*
X233120407Y-38811181D01*
X233381496Y-38754385D01*
X233652530Y-38735000D01*
X236755470Y-38735000D01*
X237026504Y-38754385D01*
%TA.AperFunction,Conductor*%
D23*
G36*
X237026504Y-38754385D02*
G01*
X237287593Y-38811181D01*
X237537940Y-38904556D01*
X237772445Y-39032605D01*
X237986338Y-39192724D01*
X238175276Y-39381662D01*
X238335395Y-39595555D01*
X238463444Y-39830060D01*
X238556819Y-40080407D01*
X238613615Y-40341496D01*
X238633000Y-40612530D01*
X238633000Y-76575398D01*
X238612056Y-76857060D01*
X238550729Y-77127926D01*
X238450019Y-77386739D01*
X238312137Y-77627814D01*
X238140117Y-77845847D01*
X237937750Y-78036034D01*
X237705588Y-78196898D01*
X221896669Y-87496263D01*
X221670568Y-87609769D01*
X221435429Y-87690923D01*
X221191594Y-87740196D01*
X220939154Y-87757000D01*
X163040530Y-87757000D01*
X162769496Y-87737615D01*
X162508407Y-87680819D01*
X162258060Y-87587444D01*
X162023555Y-87459395D01*
X161809662Y-87299276D01*
X161620724Y-87110338D01*
X161460605Y-86896445D01*
X161332556Y-86661940D01*
X161239181Y-86411593D01*
X161182385Y-86150504D01*
X161163000Y-85879470D01*
X161163000Y-80236530D01*
X161182385Y-79965496D01*
X161239181Y-79704407D01*
X161332556Y-79454060D01*
X161460605Y-79219555D01*
X161620724Y-79005662D01*
X161809662Y-78816724D01*
X162023555Y-78656605D01*
X162258060Y-78528556D01*
X162508407Y-78435181D01*
X162769496Y-78378385D01*
X163040530Y-78359000D01*
X220072464Y-78359000D01*
X220081473Y-78358680D01*
X220364508Y-78338551D01*
X220382345Y-78336001D01*
X220659683Y-78276021D01*
X220676979Y-78270973D01*
X220943038Y-78172348D01*
X220959446Y-78164902D01*
X221208870Y-78029617D01*
X221224059Y-78019925D01*
X221451828Y-77850704D01*
X221465493Y-77838959D01*
X221667021Y-77639208D01*
X221673194Y-77632639D01*
X231248730Y-66689169D01*
X231254490Y-66682089D01*
X231427652Y-66452857D01*
X231437574Y-66437548D01*
X231576107Y-66185871D01*
X231583733Y-66169299D01*
X231684778Y-65900372D01*
X231689951Y-65882879D01*
X231751425Y-65602248D01*
X231754039Y-65584193D01*
X231774672Y-65297651D01*
X231775000Y-65288530D01*
X231775000Y-40612530D01*
X231794385Y-40341496D01*
X231851181Y-40080407D01*
X231944556Y-39830060D01*
X232072605Y-39595555D01*
X232232724Y-39381662D01*
X232421662Y-39192724D01*
X232635555Y-39032605D01*
X232870060Y-38904556D01*
X233120407Y-38811181D01*
X233381496Y-38754385D01*
X233652530Y-38735000D01*
X236755470Y-38735000D01*
X237026504Y-38754385D01*
G37*
%TD.AperFunction*%
%TD*%
M02*
