M48
; DRILL file {KiCad 5.1.7-a382d34a8~88~ubuntu18.04.1} date Thu Feb 25 09:23:25 2021
; FORMAT={-:-/ absolute / metric / decimal}
; #@! TF.CreationDate,2021-02-25T09:23:25-05:00
; #@! TF.GenerationSoftware,Kicad,Pcbnew,5.1.7-a382d34a8~88~ubuntu18.04.1
FMAT,2
METRIC
T1C0.400
T2C1.090
T3C1.100
T4C1.750
T5C1.780
T6C1.950
T7C2.000
T8C3.200
T9C3.500
%
G90
G05
T1
X150.368Y-65.532
X151.892Y-65.532
X153.416Y-65.532
X154.305Y-43.18
X154.305Y-45.72
X154.305Y-48.26
X154.305Y-50.8
X154.305Y-53.34
X154.94Y-65.532
X156.464Y-65.532
X164.084Y-41.148
X166.116Y-41.148
X168.148Y-41.148
X170.18Y-41.148
X172.212Y-41.148
X174.244Y-41.148
X176.276Y-41.148
X176.276Y-52.324
X176.276Y-54.356
X177.8Y-51.816
X177.8Y-53.848
X178.308Y-41.148
X179.324Y-51.308
X179.324Y-53.34
X180.34Y-41.148
X180.848Y-50.8
X180.848Y-52.832
X182.372Y-41.148
X182.372Y-50.292
X182.372Y-52.324
X182.372Y-68.58
X183.388Y-66.548
X183.896Y-49.784
X183.896Y-51.816
X184.404Y-41.148
X184.404Y-64.516
X185.42Y-62.484
X186.436Y-41.148
X186.436Y-59.944
X187.452Y-68.58
X187.96Y-66.548
X188.468Y-41.148
X188.468Y-64.516
X188.976Y-62.484
X189.484Y-59.944
X189.484Y-68.58
X189.992Y-66.548
X190.5Y-41.148
X190.5Y-64.516
X191.008Y-62.484
X191.516Y-60.452
X192.532Y-41.148
X194.564Y-41.148
X194.564Y-60.452
X195.072Y-62.484
X195.58Y-64.516
X196.088Y-66.548
X196.596Y-41.148
X196.596Y-60.452
X196.596Y-68.58
X197.104Y-62.484
X197.612Y-64.516
X198.12Y-66.548
X198.628Y-68.58
X199.136Y-59.944
X200.66Y-61.976
X202.184Y-64.008
X202.692Y-59.436
X203.708Y-66.04
X204.216Y-60.96
X205.232Y-68.072
X205.74Y-62.484
X206.756Y-70.104
X207.264Y-64.008
X208.28Y-59.436
X208.788Y-45.72
X208.788Y-47.752
X208.788Y-65.532
X209.296Y-57.404
X210.312Y-59.944
X210.312Y-67.056
X210.82Y-44.196
X210.82Y-46.228
X211.328Y-52.832
X211.328Y-57.912
X212.344Y-60.452
X212.852Y-42.672
X212.852Y-44.704
X213.36Y-52.324
X213.36Y-54.356
X213.36Y-58.42
X214.376Y-60.96
X215.392Y-41.656
X215.392Y-43.688
X215.392Y-51.816
X215.392Y-53.848
X215.392Y-58.928
X216.408Y-61.468
X217.424Y-51.308
X217.424Y-53.34
X217.424Y-59.436
X217.932Y-41.656
X217.932Y-43.688
X218.948Y-61.976
X219.456Y-50.8
X219.456Y-52.832
X219.456Y-59.944
X220.472Y-41.656
X220.472Y-43.688
X221.488Y-59.944
X221.488Y-61.976
X221.996Y-79.756
X223.52Y-78.232
X224.028Y-83.312
X225.044Y-76.708
X225.552Y-81.788
X226.568Y-75.184
X227.076Y-80.264
X228.092Y-73.66
X228.6Y-78.74
X229.616Y-72.136
X230.124Y-77.216
X231.14Y-70.612
X231.648Y-75.692
X232.664Y-69.088
X233.172Y-74.168
X234.696Y-72.644
T2
X151.058Y-69.065
X151.058Y-79.225
T3
X147.828Y-60.856
X150.368Y-60.856
X152.908Y-60.856
T4
X189.104Y-48.832
X189.104Y-56.832
X191.104Y-52.832
X193.104Y-48.832
X193.104Y-56.832
X195.104Y-52.832
X197.104Y-48.832
X197.104Y-56.832
X199.104Y-52.832
X201.104Y-48.832
X201.104Y-56.832
X203.104Y-52.832
X205.104Y-48.832
X205.104Y-56.832
T5
X201.676Y-74.408
X201.676Y-84.328
X205.076Y-74.408
X205.076Y-84.328
X211.328Y-74.408
X211.328Y-84.328
X214.728Y-74.408
X214.728Y-84.328
X225.792Y-50.956
X225.792Y-54.356
X235.712Y-50.956
X235.712Y-54.356
X225.792Y-42.32
X225.792Y-45.72
X235.712Y-42.32
X235.712Y-45.72
X192.024Y-74.408
X192.024Y-84.328
X195.424Y-74.408
X195.424Y-84.328
X160.684Y-46.228
X160.684Y-56.148
X164.084Y-46.228
X164.084Y-56.148
X225.792Y-60.1
X225.792Y-63.5
X235.712Y-60.1
X235.712Y-63.5
X182.372Y-74.408
X182.372Y-84.328
X185.772Y-74.408
X185.772Y-84.328
X169.828Y-46.228
X169.828Y-56.148
X173.228Y-46.228
X173.228Y-56.148
T7
X177.904Y-45.532
X179.404Y-63.632
X214.804Y-63.632
X216.304Y-45.532
T8
X221.488Y-70.612
T9
X150.368Y-44.196
T5
G00X163.843Y-64.285
M15
G01X162.293Y-64.285
M16
G05
T6
G00X166.498Y-82.01
M15
G01X166.498Y-84.06
M16
G05
T0
M30
