%TF.GenerationSoftware,KiCad,Pcbnew,5.1.7-a382d34a8~88~ubuntu18.04.1*%
%TF.CreationDate,2021-02-25T09:41:41-05:00*%
%TF.ProjectId,FaultLatcher,4661756c-744c-4617-9463-6865722e6b69,rev?*%
%TF.SameCoordinates,Original*%
%TF.FileFunction,Paste,Top*%
%TF.FilePolarity,Positive*%
%FSLAX46Y46*%
G04 Gerber Fmt 4.6, Leading zero omitted, Abs format (unit mm)*
G04 Created by KiCad (PCBNEW 5.1.7-a382d34a8~88~ubuntu18.04.1) date 2021-02-25 09:41:41*
%MOMM*%
%LPD*%
G01*
G04 APERTURE LIST*
%ADD10R,0.550000X1.600000*%
%ADD11R,1.600000X0.550000*%
G04 APERTURE END LIST*
%TO.C,R6*%
G36*
G01*
X162187900Y-94721500D02*
X161712900Y-94721500D01*
G75*
G02*
X161475400Y-94484000I0J237500D01*
G01*
X161475400Y-93984000D01*
G75*
G02*
X161712900Y-93746500I237500J0D01*
G01*
X162187900Y-93746500D01*
G75*
G02*
X162425400Y-93984000I0J-237500D01*
G01*
X162425400Y-94484000D01*
G75*
G02*
X162187900Y-94721500I-237500J0D01*
G01*
G37*
G36*
G01*
X162187900Y-96546500D02*
X161712900Y-96546500D01*
G75*
G02*
X161475400Y-96309000I0J237500D01*
G01*
X161475400Y-95809000D01*
G75*
G02*
X161712900Y-95571500I237500J0D01*
G01*
X162187900Y-95571500D01*
G75*
G02*
X162425400Y-95809000I0J-237500D01*
G01*
X162425400Y-96309000D01*
G75*
G02*
X162187900Y-96546500I-237500J0D01*
G01*
G37*
%TD*%
%TO.C,R7*%
G36*
G01*
X157877500Y-103220000D02*
X158352500Y-103220000D01*
G75*
G02*
X158590000Y-103457500I0J-237500D01*
G01*
X158590000Y-104032500D01*
G75*
G02*
X158352500Y-104270000I-237500J0D01*
G01*
X157877500Y-104270000D01*
G75*
G02*
X157640000Y-104032500I0J237500D01*
G01*
X157640000Y-103457500D01*
G75*
G02*
X157877500Y-103220000I237500J0D01*
G01*
G37*
G36*
G01*
X157877500Y-101470000D02*
X158352500Y-101470000D01*
G75*
G02*
X158590000Y-101707500I0J-237500D01*
G01*
X158590000Y-102282500D01*
G75*
G02*
X158352500Y-102520000I-237500J0D01*
G01*
X157877500Y-102520000D01*
G75*
G02*
X157640000Y-102282500I0J237500D01*
G01*
X157640000Y-101707500D01*
G75*
G02*
X157877500Y-101470000I237500J0D01*
G01*
G37*
%TD*%
%TO.C,D5*%
G36*
G01*
X157576000Y-100313500D02*
X157576000Y-99838500D01*
G75*
G02*
X157813500Y-99601000I237500J0D01*
G01*
X158388500Y-99601000D01*
G75*
G02*
X158626000Y-99838500I0J-237500D01*
G01*
X158626000Y-100313500D01*
G75*
G02*
X158388500Y-100551000I-237500J0D01*
G01*
X157813500Y-100551000D01*
G75*
G02*
X157576000Y-100313500I0J237500D01*
G01*
G37*
G36*
G01*
X155826000Y-100313500D02*
X155826000Y-99838500D01*
G75*
G02*
X156063500Y-99601000I237500J0D01*
G01*
X156638500Y-99601000D01*
G75*
G02*
X156876000Y-99838500I0J-237500D01*
G01*
X156876000Y-100313500D01*
G75*
G02*
X156638500Y-100551000I-237500J0D01*
G01*
X156063500Y-100551000D01*
G75*
G02*
X155826000Y-100313500I0J237500D01*
G01*
G37*
%TD*%
%TO.C,U3*%
G36*
G01*
X162202000Y-100673000D02*
X161902000Y-100673000D01*
G75*
G02*
X161752000Y-100523000I0J150000D01*
G01*
X161752000Y-98873000D01*
G75*
G02*
X161902000Y-98723000I150000J0D01*
G01*
X162202000Y-98723000D01*
G75*
G02*
X162352000Y-98873000I0J-150000D01*
G01*
X162352000Y-100523000D01*
G75*
G02*
X162202000Y-100673000I-150000J0D01*
G01*
G37*
G36*
G01*
X163472000Y-100673000D02*
X163172000Y-100673000D01*
G75*
G02*
X163022000Y-100523000I0J150000D01*
G01*
X163022000Y-98873000D01*
G75*
G02*
X163172000Y-98723000I150000J0D01*
G01*
X163472000Y-98723000D01*
G75*
G02*
X163622000Y-98873000I0J-150000D01*
G01*
X163622000Y-100523000D01*
G75*
G02*
X163472000Y-100673000I-150000J0D01*
G01*
G37*
G36*
G01*
X164742000Y-100673000D02*
X164442000Y-100673000D01*
G75*
G02*
X164292000Y-100523000I0J150000D01*
G01*
X164292000Y-98873000D01*
G75*
G02*
X164442000Y-98723000I150000J0D01*
G01*
X164742000Y-98723000D01*
G75*
G02*
X164892000Y-98873000I0J-150000D01*
G01*
X164892000Y-100523000D01*
G75*
G02*
X164742000Y-100673000I-150000J0D01*
G01*
G37*
G36*
G01*
X166012000Y-100673000D02*
X165712000Y-100673000D01*
G75*
G02*
X165562000Y-100523000I0J150000D01*
G01*
X165562000Y-98873000D01*
G75*
G02*
X165712000Y-98723000I150000J0D01*
G01*
X166012000Y-98723000D01*
G75*
G02*
X166162000Y-98873000I0J-150000D01*
G01*
X166162000Y-100523000D01*
G75*
G02*
X166012000Y-100673000I-150000J0D01*
G01*
G37*
G36*
G01*
X166012000Y-105623000D02*
X165712000Y-105623000D01*
G75*
G02*
X165562000Y-105473000I0J150000D01*
G01*
X165562000Y-103823000D01*
G75*
G02*
X165712000Y-103673000I150000J0D01*
G01*
X166012000Y-103673000D01*
G75*
G02*
X166162000Y-103823000I0J-150000D01*
G01*
X166162000Y-105473000D01*
G75*
G02*
X166012000Y-105623000I-150000J0D01*
G01*
G37*
G36*
G01*
X164742000Y-105623000D02*
X164442000Y-105623000D01*
G75*
G02*
X164292000Y-105473000I0J150000D01*
G01*
X164292000Y-103823000D01*
G75*
G02*
X164442000Y-103673000I150000J0D01*
G01*
X164742000Y-103673000D01*
G75*
G02*
X164892000Y-103823000I0J-150000D01*
G01*
X164892000Y-105473000D01*
G75*
G02*
X164742000Y-105623000I-150000J0D01*
G01*
G37*
G36*
G01*
X163472000Y-105623000D02*
X163172000Y-105623000D01*
G75*
G02*
X163022000Y-105473000I0J150000D01*
G01*
X163022000Y-103823000D01*
G75*
G02*
X163172000Y-103673000I150000J0D01*
G01*
X163472000Y-103673000D01*
G75*
G02*
X163622000Y-103823000I0J-150000D01*
G01*
X163622000Y-105473000D01*
G75*
G02*
X163472000Y-105623000I-150000J0D01*
G01*
G37*
G36*
G01*
X162202000Y-105623000D02*
X161902000Y-105623000D01*
G75*
G02*
X161752000Y-105473000I0J150000D01*
G01*
X161752000Y-103823000D01*
G75*
G02*
X161902000Y-103673000I150000J0D01*
G01*
X162202000Y-103673000D01*
G75*
G02*
X162352000Y-103823000I0J-150000D01*
G01*
X162352000Y-105473000D01*
G75*
G02*
X162202000Y-105623000I-150000J0D01*
G01*
G37*
%TD*%
%TO.C,U2*%
G36*
G01*
X160508000Y-117960000D02*
X160508000Y-118260000D01*
G75*
G02*
X160358000Y-118410000I-150000J0D01*
G01*
X158608000Y-118410000D01*
G75*
G02*
X158458000Y-118260000I0J150000D01*
G01*
X158458000Y-117960000D01*
G75*
G02*
X158608000Y-117810000I150000J0D01*
G01*
X160358000Y-117810000D01*
G75*
G02*
X160508000Y-117960000I0J-150000D01*
G01*
G37*
G36*
G01*
X160508000Y-116690000D02*
X160508000Y-116990000D01*
G75*
G02*
X160358000Y-117140000I-150000J0D01*
G01*
X158608000Y-117140000D01*
G75*
G02*
X158458000Y-116990000I0J150000D01*
G01*
X158458000Y-116690000D01*
G75*
G02*
X158608000Y-116540000I150000J0D01*
G01*
X160358000Y-116540000D01*
G75*
G02*
X160508000Y-116690000I0J-150000D01*
G01*
G37*
G36*
G01*
X160508000Y-115420000D02*
X160508000Y-115720000D01*
G75*
G02*
X160358000Y-115870000I-150000J0D01*
G01*
X158608000Y-115870000D01*
G75*
G02*
X158458000Y-115720000I0J150000D01*
G01*
X158458000Y-115420000D01*
G75*
G02*
X158608000Y-115270000I150000J0D01*
G01*
X160358000Y-115270000D01*
G75*
G02*
X160508000Y-115420000I0J-150000D01*
G01*
G37*
G36*
G01*
X160508000Y-114150000D02*
X160508000Y-114450000D01*
G75*
G02*
X160358000Y-114600000I-150000J0D01*
G01*
X158608000Y-114600000D01*
G75*
G02*
X158458000Y-114450000I0J150000D01*
G01*
X158458000Y-114150000D01*
G75*
G02*
X158608000Y-114000000I150000J0D01*
G01*
X160358000Y-114000000D01*
G75*
G02*
X160508000Y-114150000I0J-150000D01*
G01*
G37*
G36*
G01*
X160508000Y-112880000D02*
X160508000Y-113180000D01*
G75*
G02*
X160358000Y-113330000I-150000J0D01*
G01*
X158608000Y-113330000D01*
G75*
G02*
X158458000Y-113180000I0J150000D01*
G01*
X158458000Y-112880000D01*
G75*
G02*
X158608000Y-112730000I150000J0D01*
G01*
X160358000Y-112730000D01*
G75*
G02*
X160508000Y-112880000I0J-150000D01*
G01*
G37*
G36*
G01*
X160508000Y-111610000D02*
X160508000Y-111910000D01*
G75*
G02*
X160358000Y-112060000I-150000J0D01*
G01*
X158608000Y-112060000D01*
G75*
G02*
X158458000Y-111910000I0J150000D01*
G01*
X158458000Y-111610000D01*
G75*
G02*
X158608000Y-111460000I150000J0D01*
G01*
X160358000Y-111460000D01*
G75*
G02*
X160508000Y-111610000I0J-150000D01*
G01*
G37*
G36*
G01*
X160508000Y-110340000D02*
X160508000Y-110640000D01*
G75*
G02*
X160358000Y-110790000I-150000J0D01*
G01*
X158608000Y-110790000D01*
G75*
G02*
X158458000Y-110640000I0J150000D01*
G01*
X158458000Y-110340000D01*
G75*
G02*
X158608000Y-110190000I150000J0D01*
G01*
X160358000Y-110190000D01*
G75*
G02*
X160508000Y-110340000I0J-150000D01*
G01*
G37*
G36*
G01*
X160508000Y-109070000D02*
X160508000Y-109370000D01*
G75*
G02*
X160358000Y-109520000I-150000J0D01*
G01*
X158608000Y-109520000D01*
G75*
G02*
X158458000Y-109370000I0J150000D01*
G01*
X158458000Y-109070000D01*
G75*
G02*
X158608000Y-108920000I150000J0D01*
G01*
X160358000Y-108920000D01*
G75*
G02*
X160508000Y-109070000I0J-150000D01*
G01*
G37*
G36*
G01*
X160508000Y-107800000D02*
X160508000Y-108100000D01*
G75*
G02*
X160358000Y-108250000I-150000J0D01*
G01*
X158608000Y-108250000D01*
G75*
G02*
X158458000Y-108100000I0J150000D01*
G01*
X158458000Y-107800000D01*
G75*
G02*
X158608000Y-107650000I150000J0D01*
G01*
X160358000Y-107650000D01*
G75*
G02*
X160508000Y-107800000I0J-150000D01*
G01*
G37*
G36*
G01*
X169808000Y-107800000D02*
X169808000Y-108100000D01*
G75*
G02*
X169658000Y-108250000I-150000J0D01*
G01*
X167908000Y-108250000D01*
G75*
G02*
X167758000Y-108100000I0J150000D01*
G01*
X167758000Y-107800000D01*
G75*
G02*
X167908000Y-107650000I150000J0D01*
G01*
X169658000Y-107650000D01*
G75*
G02*
X169808000Y-107800000I0J-150000D01*
G01*
G37*
G36*
G01*
X169808000Y-109070000D02*
X169808000Y-109370000D01*
G75*
G02*
X169658000Y-109520000I-150000J0D01*
G01*
X167908000Y-109520000D01*
G75*
G02*
X167758000Y-109370000I0J150000D01*
G01*
X167758000Y-109070000D01*
G75*
G02*
X167908000Y-108920000I150000J0D01*
G01*
X169658000Y-108920000D01*
G75*
G02*
X169808000Y-109070000I0J-150000D01*
G01*
G37*
G36*
G01*
X169808000Y-110340000D02*
X169808000Y-110640000D01*
G75*
G02*
X169658000Y-110790000I-150000J0D01*
G01*
X167908000Y-110790000D01*
G75*
G02*
X167758000Y-110640000I0J150000D01*
G01*
X167758000Y-110340000D01*
G75*
G02*
X167908000Y-110190000I150000J0D01*
G01*
X169658000Y-110190000D01*
G75*
G02*
X169808000Y-110340000I0J-150000D01*
G01*
G37*
G36*
G01*
X169808000Y-111610000D02*
X169808000Y-111910000D01*
G75*
G02*
X169658000Y-112060000I-150000J0D01*
G01*
X167908000Y-112060000D01*
G75*
G02*
X167758000Y-111910000I0J150000D01*
G01*
X167758000Y-111610000D01*
G75*
G02*
X167908000Y-111460000I150000J0D01*
G01*
X169658000Y-111460000D01*
G75*
G02*
X169808000Y-111610000I0J-150000D01*
G01*
G37*
G36*
G01*
X169808000Y-112880000D02*
X169808000Y-113180000D01*
G75*
G02*
X169658000Y-113330000I-150000J0D01*
G01*
X167908000Y-113330000D01*
G75*
G02*
X167758000Y-113180000I0J150000D01*
G01*
X167758000Y-112880000D01*
G75*
G02*
X167908000Y-112730000I150000J0D01*
G01*
X169658000Y-112730000D01*
G75*
G02*
X169808000Y-112880000I0J-150000D01*
G01*
G37*
G36*
G01*
X169808000Y-114150000D02*
X169808000Y-114450000D01*
G75*
G02*
X169658000Y-114600000I-150000J0D01*
G01*
X167908000Y-114600000D01*
G75*
G02*
X167758000Y-114450000I0J150000D01*
G01*
X167758000Y-114150000D01*
G75*
G02*
X167908000Y-114000000I150000J0D01*
G01*
X169658000Y-114000000D01*
G75*
G02*
X169808000Y-114150000I0J-150000D01*
G01*
G37*
G36*
G01*
X169808000Y-115420000D02*
X169808000Y-115720000D01*
G75*
G02*
X169658000Y-115870000I-150000J0D01*
G01*
X167908000Y-115870000D01*
G75*
G02*
X167758000Y-115720000I0J150000D01*
G01*
X167758000Y-115420000D01*
G75*
G02*
X167908000Y-115270000I150000J0D01*
G01*
X169658000Y-115270000D01*
G75*
G02*
X169808000Y-115420000I0J-150000D01*
G01*
G37*
G36*
G01*
X169808000Y-116690000D02*
X169808000Y-116990000D01*
G75*
G02*
X169658000Y-117140000I-150000J0D01*
G01*
X167908000Y-117140000D01*
G75*
G02*
X167758000Y-116990000I0J150000D01*
G01*
X167758000Y-116690000D01*
G75*
G02*
X167908000Y-116540000I150000J0D01*
G01*
X169658000Y-116540000D01*
G75*
G02*
X169808000Y-116690000I0J-150000D01*
G01*
G37*
G36*
G01*
X169808000Y-117960000D02*
X169808000Y-118260000D01*
G75*
G02*
X169658000Y-118410000I-150000J0D01*
G01*
X167908000Y-118410000D01*
G75*
G02*
X167758000Y-118260000I0J150000D01*
G01*
X167758000Y-117960000D01*
G75*
G02*
X167908000Y-117810000I150000J0D01*
G01*
X169658000Y-117810000D01*
G75*
G02*
X169808000Y-117960000I0J-150000D01*
G01*
G37*
%TD*%
D10*
%TO.C,U1*%
X154241000Y-117357000D03*
X153441000Y-117357000D03*
X152641000Y-117357000D03*
X151841000Y-117357000D03*
X151041000Y-117357000D03*
X150241000Y-117357000D03*
X149441000Y-117357000D03*
X148641000Y-117357000D03*
D11*
X147191000Y-118807000D03*
X147191000Y-119607000D03*
X147191000Y-120407000D03*
X147191000Y-121207000D03*
X147191000Y-122007000D03*
X147191000Y-122807000D03*
X147191000Y-123607000D03*
X147191000Y-124407000D03*
D10*
X148641000Y-125857000D03*
X149441000Y-125857000D03*
X150241000Y-125857000D03*
X151041000Y-125857000D03*
X151841000Y-125857000D03*
X152641000Y-125857000D03*
X153441000Y-125857000D03*
X154241000Y-125857000D03*
D11*
X155691000Y-124407000D03*
X155691000Y-123607000D03*
X155691000Y-122807000D03*
X155691000Y-122007000D03*
X155691000Y-121207000D03*
X155691000Y-120407000D03*
X155691000Y-119607000D03*
X155691000Y-118807000D03*
%TD*%
%TO.C,C4*%
G36*
G01*
X168418500Y-103930500D02*
X168893500Y-103930500D01*
G75*
G02*
X169131000Y-104168000I0J-237500D01*
G01*
X169131000Y-104768000D01*
G75*
G02*
X168893500Y-105005500I-237500J0D01*
G01*
X168418500Y-105005500D01*
G75*
G02*
X168181000Y-104768000I0J237500D01*
G01*
X168181000Y-104168000D01*
G75*
G02*
X168418500Y-103930500I237500J0D01*
G01*
G37*
G36*
G01*
X168418500Y-102205500D02*
X168893500Y-102205500D01*
G75*
G02*
X169131000Y-102443000I0J-237500D01*
G01*
X169131000Y-103043000D01*
G75*
G02*
X168893500Y-103280500I-237500J0D01*
G01*
X168418500Y-103280500D01*
G75*
G02*
X168181000Y-103043000I0J237500D01*
G01*
X168181000Y-102443000D01*
G75*
G02*
X168418500Y-102205500I237500J0D01*
G01*
G37*
%TD*%
%TO.C,C1*%
G36*
G01*
X151260000Y-127778500D02*
X151260000Y-128253500D01*
G75*
G02*
X151022500Y-128491000I-237500J0D01*
G01*
X150422500Y-128491000D01*
G75*
G02*
X150185000Y-128253500I0J237500D01*
G01*
X150185000Y-127778500D01*
G75*
G02*
X150422500Y-127541000I237500J0D01*
G01*
X151022500Y-127541000D01*
G75*
G02*
X151260000Y-127778500I0J-237500D01*
G01*
G37*
G36*
G01*
X149535000Y-127778500D02*
X149535000Y-128253500D01*
G75*
G02*
X149297500Y-128491000I-237500J0D01*
G01*
X148697500Y-128491000D01*
G75*
G02*
X148460000Y-128253500I0J237500D01*
G01*
X148460000Y-127778500D01*
G75*
G02*
X148697500Y-127541000I237500J0D01*
G01*
X149297500Y-127541000D01*
G75*
G02*
X149535000Y-127778500I0J-237500D01*
G01*
G37*
%TD*%
M02*
