%TF.GenerationSoftware,KiCad,Pcbnew,5.1.7-a382d34a8~88~ubuntu18.04.1*%
%TF.CreationDate,2021-02-25T09:41:41-05:00*%
%TF.ProjectId,FaultLatcher,4661756c-744c-4617-9463-6865722e6b69,rev?*%
%TF.SameCoordinates,Original*%
%TF.FileFunction,Legend,Top*%
%TF.FilePolarity,Positive*%
%FSLAX46Y46*%
G04 Gerber Fmt 4.6, Leading zero omitted, Abs format (unit mm)*
G04 Created by KiCad (PCBNEW 5.1.7-a382d34a8~88~ubuntu18.04.1) date 2021-02-25 09:41:41*
%MOMM*%
%LPD*%
G01*
G04 APERTURE LIST*
%ADD10C,0.300000*%
%ADD11C,0.120000*%
%ADD12C,0.150000*%
G04 APERTURE END LIST*
D10*
X127191428Y-99587857D02*
X127405714Y-99659285D01*
X127477142Y-99730714D01*
X127548571Y-99873571D01*
X127548571Y-100087857D01*
X127477142Y-100230714D01*
X127405714Y-100302142D01*
X127262857Y-100373571D01*
X126691428Y-100373571D01*
X126691428Y-98873571D01*
X127191428Y-98873571D01*
X127334285Y-98945000D01*
X127405714Y-99016428D01*
X127477142Y-99159285D01*
X127477142Y-99302142D01*
X127405714Y-99445000D01*
X127334285Y-99516428D01*
X127191428Y-99587857D01*
X126691428Y-99587857D01*
X128191428Y-100373571D02*
X128191428Y-98873571D01*
X128691428Y-99945000D01*
X129191428Y-98873571D01*
X129191428Y-100373571D01*
X129834285Y-100302142D02*
X130048571Y-100373571D01*
X130405714Y-100373571D01*
X130548571Y-100302142D01*
X130620000Y-100230714D01*
X130691428Y-100087857D01*
X130691428Y-99945000D01*
X130620000Y-99802142D01*
X130548571Y-99730714D01*
X130405714Y-99659285D01*
X130120000Y-99587857D01*
X129977142Y-99516428D01*
X129905714Y-99445000D01*
X129834285Y-99302142D01*
X129834285Y-99159285D01*
X129905714Y-99016428D01*
X129977142Y-98945000D01*
X130120000Y-98873571D01*
X130477142Y-98873571D01*
X130691428Y-98945000D01*
X139334285Y-100373571D02*
X139334285Y-98873571D01*
X140048571Y-100373571D02*
X140048571Y-98873571D01*
X140548571Y-99945000D01*
X141048571Y-98873571D01*
X141048571Y-100373571D01*
X141762857Y-100373571D02*
X141762857Y-98873571D01*
X142120000Y-98873571D01*
X142334285Y-98945000D01*
X142477142Y-99087857D01*
X142548571Y-99230714D01*
X142620000Y-99516428D01*
X142620000Y-99730714D01*
X142548571Y-100016428D01*
X142477142Y-100159285D01*
X142334285Y-100302142D01*
X142120000Y-100373571D01*
X141762857Y-100373571D01*
X147698000Y-71510857D02*
X147198000Y-71510857D01*
X147198000Y-72296571D02*
X147198000Y-70796571D01*
X147912285Y-70796571D01*
X148412285Y-71868000D02*
X149126571Y-71868000D01*
X148269428Y-72296571D02*
X148769428Y-70796571D01*
X149269428Y-72296571D01*
X149769428Y-70796571D02*
X149769428Y-72010857D01*
X149840857Y-72153714D01*
X149912285Y-72225142D01*
X150055142Y-72296571D01*
X150340857Y-72296571D01*
X150483714Y-72225142D01*
X150555142Y-72153714D01*
X150626571Y-72010857D01*
X150626571Y-70796571D01*
X152055142Y-72296571D02*
X151340857Y-72296571D01*
X151340857Y-70796571D01*
X152340857Y-70796571D02*
X153198000Y-70796571D01*
X152769428Y-72296571D02*
X152769428Y-70796571D01*
X155555142Y-72296571D02*
X154840857Y-72296571D01*
X154840857Y-70796571D01*
X155983714Y-71868000D02*
X156698000Y-71868000D01*
X155840857Y-72296571D02*
X156340857Y-70796571D01*
X156840857Y-72296571D01*
X157126571Y-70796571D02*
X157983714Y-70796571D01*
X157555142Y-72296571D02*
X157555142Y-70796571D01*
X159340857Y-72153714D02*
X159269428Y-72225142D01*
X159055142Y-72296571D01*
X158912285Y-72296571D01*
X158698000Y-72225142D01*
X158555142Y-72082285D01*
X158483714Y-71939428D01*
X158412285Y-71653714D01*
X158412285Y-71439428D01*
X158483714Y-71153714D01*
X158555142Y-71010857D01*
X158698000Y-70868000D01*
X158912285Y-70796571D01*
X159055142Y-70796571D01*
X159269428Y-70868000D01*
X159340857Y-70939428D01*
X159983714Y-72296571D02*
X159983714Y-70796571D01*
X159983714Y-71510857D02*
X160840857Y-71510857D01*
X160840857Y-72296571D02*
X160840857Y-70796571D01*
X161555142Y-71510857D02*
X162055142Y-71510857D01*
X162269428Y-72296571D02*
X161555142Y-72296571D01*
X161555142Y-70796571D01*
X162269428Y-70796571D01*
X163769428Y-72296571D02*
X163269428Y-71582285D01*
X162912285Y-72296571D02*
X162912285Y-70796571D01*
X163483714Y-70796571D01*
X163626571Y-70868000D01*
X163698000Y-70939428D01*
X163769428Y-71082285D01*
X163769428Y-71296571D01*
X163698000Y-71439428D01*
X163626571Y-71510857D01*
X163483714Y-71582285D01*
X162912285Y-71582285D01*
X150055142Y-73418000D02*
X149912285Y-73346571D01*
X149698000Y-73346571D01*
X149483714Y-73418000D01*
X149340857Y-73560857D01*
X149269428Y-73703714D01*
X149198000Y-73989428D01*
X149198000Y-74203714D01*
X149269428Y-74489428D01*
X149340857Y-74632285D01*
X149483714Y-74775142D01*
X149698000Y-74846571D01*
X149840857Y-74846571D01*
X150055142Y-74775142D01*
X150126571Y-74703714D01*
X150126571Y-74203714D01*
X149840857Y-74203714D01*
X150769428Y-74703714D02*
X150840857Y-74775142D01*
X150769428Y-74846571D01*
X150698000Y-74775142D01*
X150769428Y-74703714D01*
X150769428Y-74846571D01*
X151412285Y-74775142D02*
X151626571Y-74846571D01*
X151983714Y-74846571D01*
X152126571Y-74775142D01*
X152198000Y-74703714D01*
X152269428Y-74560857D01*
X152269428Y-74418000D01*
X152198000Y-74275142D01*
X152126571Y-74203714D01*
X151983714Y-74132285D01*
X151698000Y-74060857D01*
X151555142Y-73989428D01*
X151483714Y-73918000D01*
X151412285Y-73775142D01*
X151412285Y-73632285D01*
X151483714Y-73489428D01*
X151555142Y-73418000D01*
X151698000Y-73346571D01*
X152055142Y-73346571D01*
X152269428Y-73418000D01*
X152912285Y-74846571D02*
X152912285Y-73346571D01*
X153483714Y-73346571D01*
X153626571Y-73418000D01*
X153698000Y-73489428D01*
X153769428Y-73632285D01*
X153769428Y-73846571D01*
X153698000Y-73989428D01*
X153626571Y-74060857D01*
X153483714Y-74132285D01*
X152912285Y-74132285D01*
X154412285Y-74060857D02*
X154912285Y-74060857D01*
X155126571Y-74846571D02*
X154412285Y-74846571D01*
X154412285Y-73346571D01*
X155126571Y-73346571D01*
X155698000Y-74418000D02*
X156412285Y-74418000D01*
X155555142Y-74846571D02*
X156055142Y-73346571D01*
X156555142Y-74846571D01*
X157912285Y-74846571D02*
X157412285Y-74132285D01*
X157055142Y-74846571D02*
X157055142Y-73346571D01*
X157626571Y-73346571D01*
X157769428Y-73418000D01*
X157840857Y-73489428D01*
X157912285Y-73632285D01*
X157912285Y-73846571D01*
X157840857Y-73989428D01*
X157769428Y-74060857D01*
X157626571Y-74132285D01*
X157055142Y-74132285D01*
X158555142Y-74846571D02*
X158555142Y-73346571D01*
X159269428Y-74846571D02*
X159269428Y-73346571D01*
X160126571Y-74846571D01*
X160126571Y-73346571D01*
X161626571Y-73418000D02*
X161483714Y-73346571D01*
X161269428Y-73346571D01*
X161055142Y-73418000D01*
X160912285Y-73560857D01*
X160840857Y-73703714D01*
X160769428Y-73989428D01*
X160769428Y-74203714D01*
X160840857Y-74489428D01*
X160912285Y-74632285D01*
X161055142Y-74775142D01*
X161269428Y-74846571D01*
X161412285Y-74846571D01*
X161626571Y-74775142D01*
X161698000Y-74703714D01*
X161698000Y-74203714D01*
X161412285Y-74203714D01*
X151805142Y-76039428D02*
X151876571Y-75968000D01*
X152019428Y-75896571D01*
X152376571Y-75896571D01*
X152519428Y-75968000D01*
X152590857Y-76039428D01*
X152662285Y-76182285D01*
X152662285Y-76325142D01*
X152590857Y-76539428D01*
X151733714Y-77396571D01*
X152662285Y-77396571D01*
X154090857Y-77396571D02*
X153233714Y-77396571D01*
X153662285Y-77396571D02*
X153662285Y-75896571D01*
X153519428Y-76110857D01*
X153376571Y-76253714D01*
X153233714Y-76325142D01*
X154733714Y-77253714D02*
X154805142Y-77325142D01*
X154733714Y-77396571D01*
X154662285Y-77325142D01*
X154733714Y-77253714D01*
X154733714Y-77396571D01*
X155733714Y-75896571D02*
X155876571Y-75896571D01*
X156019428Y-75968000D01*
X156090857Y-76039428D01*
X156162285Y-76182285D01*
X156233714Y-76468000D01*
X156233714Y-76825142D01*
X156162285Y-77110857D01*
X156090857Y-77253714D01*
X156019428Y-77325142D01*
X155876571Y-77396571D01*
X155733714Y-77396571D01*
X155590857Y-77325142D01*
X155519428Y-77253714D01*
X155448000Y-77110857D01*
X155376571Y-76825142D01*
X155376571Y-76468000D01*
X155448000Y-76182285D01*
X155519428Y-76039428D01*
X155590857Y-75968000D01*
X155733714Y-75896571D01*
X156805142Y-76039428D02*
X156876571Y-75968000D01*
X157019428Y-75896571D01*
X157376571Y-75896571D01*
X157519428Y-75968000D01*
X157590857Y-76039428D01*
X157662285Y-76182285D01*
X157662285Y-76325142D01*
X157590857Y-76539428D01*
X156733714Y-77396571D01*
X157662285Y-77396571D01*
X159090857Y-77396571D02*
X158233714Y-77396571D01*
X158662285Y-77396571D02*
X158662285Y-75896571D01*
X158519428Y-76110857D01*
X158376571Y-76253714D01*
X158233714Y-76325142D01*
D11*
%TO.C,R6*%
X161427900Y-95401224D02*
X161427900Y-94891776D01*
X162472900Y-95401224D02*
X162472900Y-94891776D01*
%TO.C,K4*%
X134858000Y-101828000D02*
X136068000Y-101828000D01*
X134858000Y-103128000D02*
X134858000Y-101828000D01*
X135018000Y-101978000D02*
X135018000Y-122568000D01*
X135018000Y-122568000D02*
X145398000Y-122568000D01*
X145398000Y-122568000D02*
X145398000Y-101978000D01*
X145398000Y-101978000D02*
X135018000Y-101978000D01*
X138698000Y-101978000D02*
X138698000Y-103018000D01*
X138698000Y-103038000D02*
X141698000Y-103038000D01*
X141698000Y-103038000D02*
X141698000Y-101978000D01*
X139868000Y-103818000D02*
X138768000Y-103818000D01*
X140568000Y-103818000D02*
X141668000Y-103818000D01*
X139868000Y-103988000D02*
X140568000Y-103588000D01*
X139868000Y-103188000D02*
X139868000Y-104388000D01*
X139868000Y-104388000D02*
X140568000Y-104388000D01*
X140568000Y-104388000D02*
X140568000Y-103188000D01*
X140568000Y-103188000D02*
X139868000Y-103188000D01*
%TO.C,R7*%
X157605000Y-102698733D02*
X157605000Y-103041267D01*
X158625000Y-102698733D02*
X158625000Y-103041267D01*
%TO.C,D5*%
X155566000Y-100811000D02*
X158026000Y-100811000D01*
X155566000Y-99341000D02*
X155566000Y-100811000D01*
X158026000Y-99341000D02*
X155566000Y-99341000D01*
%TO.C,U4*%
X146729000Y-115131000D02*
X146729000Y-103410000D01*
X155349000Y-115131000D02*
X155349000Y-103410000D01*
X146729000Y-115131000D02*
X155349000Y-115131000D01*
X146729000Y-103410000D02*
X155349000Y-103410000D01*
X154349000Y-115371000D02*
X155589000Y-115371000D01*
X155589000Y-115371000D02*
X155589000Y-114131000D01*
%TO.C,U3*%
X166517000Y-102173000D02*
X166517000Y-100223000D01*
X166517000Y-102173000D02*
X166517000Y-104123000D01*
X161397000Y-102173000D02*
X161397000Y-100223000D01*
X161397000Y-102173000D02*
X161397000Y-105623000D01*
%TO.C,U2*%
X164133000Y-107145000D02*
X160273000Y-107145000D01*
X160273000Y-107145000D02*
X160273000Y-107390000D01*
X164133000Y-107145000D02*
X167993000Y-107145000D01*
X167993000Y-107145000D02*
X167993000Y-107390000D01*
X164133000Y-118915000D02*
X160273000Y-118915000D01*
X160273000Y-118915000D02*
X160273000Y-118670000D01*
X164133000Y-118915000D02*
X167993000Y-118915000D01*
X167993000Y-118915000D02*
X167993000Y-118670000D01*
X167993000Y-118670000D02*
X169808000Y-118670000D01*
D12*
%TO.C,U1*%
X154841000Y-117982000D02*
X154841000Y-116557000D01*
X155066000Y-125232000D02*
X155066000Y-124907000D01*
X147816000Y-125232000D02*
X147816000Y-124907000D01*
X147816000Y-117982000D02*
X147816000Y-118307000D01*
X155066000Y-117982000D02*
X155066000Y-118307000D01*
X147816000Y-117982000D02*
X148141000Y-117982000D01*
X147816000Y-125232000D02*
X148141000Y-125232000D01*
X155066000Y-125232000D02*
X154741000Y-125232000D01*
X155066000Y-117982000D02*
X154841000Y-117982000D01*
D11*
%TO.C,IMD1*%
X143157000Y-128556000D02*
X143157000Y-123836000D01*
X143157000Y-123836000D02*
X137037000Y-123836000D01*
X137037000Y-123836000D02*
X137037000Y-128556000D01*
X137037000Y-128556000D02*
X143157000Y-128556000D01*
X141397000Y-128556000D02*
X141397000Y-128756000D01*
X141397000Y-128756000D02*
X141697000Y-128756000D01*
X141697000Y-128756000D02*
X141697000Y-128556000D01*
X141397000Y-128656000D02*
X141697000Y-128656000D01*
X140597000Y-128556000D02*
X140597000Y-127946000D01*
X140597000Y-127946000D02*
X142547000Y-127946000D01*
X142547000Y-127946000D02*
X142547000Y-124446000D01*
X142547000Y-124446000D02*
X137647000Y-124446000D01*
X137647000Y-124446000D02*
X137647000Y-127946000D01*
X137647000Y-127946000D02*
X139597000Y-127946000D01*
X139597000Y-127946000D02*
X139597000Y-128556000D01*
X143157000Y-127246000D02*
X142547000Y-127246000D01*
X143157000Y-125946000D02*
X142547000Y-125946000D01*
X137037000Y-127246000D02*
X137647000Y-127246000D01*
X137037000Y-125946000D02*
X137647000Y-125946000D01*
X140197000Y-124446000D02*
X140197000Y-124946000D01*
X140197000Y-124946000D02*
X139997000Y-124946000D01*
X139997000Y-124946000D02*
X139997000Y-124446000D01*
X140097000Y-124446000D02*
X140097000Y-124946000D01*
X142207000Y-128856000D02*
X143457000Y-128856000D01*
X143457000Y-128856000D02*
X143457000Y-127606000D01*
%TO.C,BMS1*%
X132108000Y-128556000D02*
X132108000Y-123836000D01*
X132108000Y-123836000D02*
X125988000Y-123836000D01*
X125988000Y-123836000D02*
X125988000Y-128556000D01*
X125988000Y-128556000D02*
X132108000Y-128556000D01*
X130348000Y-128556000D02*
X130348000Y-128756000D01*
X130348000Y-128756000D02*
X130648000Y-128756000D01*
X130648000Y-128756000D02*
X130648000Y-128556000D01*
X130348000Y-128656000D02*
X130648000Y-128656000D01*
X129548000Y-128556000D02*
X129548000Y-127946000D01*
X129548000Y-127946000D02*
X131498000Y-127946000D01*
X131498000Y-127946000D02*
X131498000Y-124446000D01*
X131498000Y-124446000D02*
X126598000Y-124446000D01*
X126598000Y-124446000D02*
X126598000Y-127946000D01*
X126598000Y-127946000D02*
X128548000Y-127946000D01*
X128548000Y-127946000D02*
X128548000Y-128556000D01*
X132108000Y-127246000D02*
X131498000Y-127246000D01*
X132108000Y-125946000D02*
X131498000Y-125946000D01*
X125988000Y-127246000D02*
X126598000Y-127246000D01*
X125988000Y-125946000D02*
X126598000Y-125946000D01*
X129148000Y-124446000D02*
X129148000Y-124946000D01*
X129148000Y-124946000D02*
X128948000Y-124946000D01*
X128948000Y-124946000D02*
X128948000Y-124446000D01*
X129048000Y-124446000D02*
X129048000Y-124946000D01*
X131158000Y-128856000D02*
X132408000Y-128856000D01*
X132408000Y-128856000D02*
X132408000Y-127606000D01*
%TO.C,K1*%
X123555000Y-101828000D02*
X124765000Y-101828000D01*
X123555000Y-103128000D02*
X123555000Y-101828000D01*
X123715000Y-101978000D02*
X123715000Y-122568000D01*
X123715000Y-122568000D02*
X134095000Y-122568000D01*
X134095000Y-122568000D02*
X134095000Y-101978000D01*
X134095000Y-101978000D02*
X123715000Y-101978000D01*
X127395000Y-101978000D02*
X127395000Y-103018000D01*
X127395000Y-103038000D02*
X130395000Y-103038000D01*
X130395000Y-103038000D02*
X130395000Y-101978000D01*
X128565000Y-103818000D02*
X127465000Y-103818000D01*
X129265000Y-103818000D02*
X130365000Y-103818000D01*
X128565000Y-103988000D02*
X129265000Y-103588000D01*
X128565000Y-103188000D02*
X128565000Y-104388000D01*
X128565000Y-104388000D02*
X129265000Y-104388000D01*
X129265000Y-104388000D02*
X129265000Y-103188000D01*
X129265000Y-103188000D02*
X128565000Y-103188000D01*
%TO.C,J1*%
X167954000Y-126298000D02*
X167954000Y-121098000D01*
X162814000Y-126298000D02*
X167954000Y-126298000D01*
X160214000Y-121098000D02*
X167954000Y-121098000D01*
X162814000Y-126298000D02*
X162814000Y-123698000D01*
X162814000Y-123698000D02*
X160214000Y-123698000D01*
X160214000Y-123698000D02*
X160214000Y-121098000D01*
X161544000Y-126298000D02*
X160214000Y-126298000D01*
X160214000Y-126298000D02*
X160214000Y-124968000D01*
%TO.C,C4*%
X169166000Y-103459233D02*
X169166000Y-103751767D01*
X168146000Y-103459233D02*
X168146000Y-103751767D01*
%TO.C,C1*%
X150006267Y-127506000D02*
X149713733Y-127506000D01*
X150006267Y-128526000D02*
X149713733Y-128526000D01*
%TO.C,R6*%
D12*
X160068019Y-94979833D02*
X160544209Y-94646500D01*
X160068019Y-94408404D02*
X161068019Y-94408404D01*
X161068019Y-94789357D01*
X161020400Y-94884595D01*
X160972780Y-94932214D01*
X160877542Y-94979833D01*
X160734685Y-94979833D01*
X160639447Y-94932214D01*
X160591828Y-94884595D01*
X160544209Y-94789357D01*
X160544209Y-94408404D01*
X161068019Y-95836976D02*
X161068019Y-95646500D01*
X161020400Y-95551261D01*
X160972780Y-95503642D01*
X160829923Y-95408404D01*
X160639447Y-95360785D01*
X160258495Y-95360785D01*
X160163257Y-95408404D01*
X160115638Y-95456023D01*
X160068019Y-95551261D01*
X160068019Y-95741738D01*
X160115638Y-95836976D01*
X160163257Y-95884595D01*
X160258495Y-95932214D01*
X160496590Y-95932214D01*
X160591828Y-95884595D01*
X160639447Y-95836976D01*
X160687066Y-95741738D01*
X160687066Y-95551261D01*
X160639447Y-95456023D01*
X160591828Y-95408404D01*
X160496590Y-95360785D01*
%TO.C,K4*%
X143533904Y-100782380D02*
X143533904Y-99782380D01*
X144105333Y-100782380D02*
X143676761Y-100210952D01*
X144105333Y-99782380D02*
X143533904Y-100353809D01*
X144962476Y-100115714D02*
X144962476Y-100782380D01*
X144724380Y-99734761D02*
X144486285Y-100449047D01*
X145105333Y-100449047D01*
%TO.C,R7*%
X157043380Y-102909666D02*
X156567190Y-103243000D01*
X157043380Y-103481095D02*
X156043380Y-103481095D01*
X156043380Y-103100142D01*
X156091000Y-103004904D01*
X156138619Y-102957285D01*
X156233857Y-102909666D01*
X156376714Y-102909666D01*
X156471952Y-102957285D01*
X156519571Y-103004904D01*
X156567190Y-103100142D01*
X156567190Y-103481095D01*
X156043380Y-102576333D02*
X156043380Y-101909666D01*
X157043380Y-102338238D01*
%TO.C,D5*%
X155138380Y-100814095D02*
X154138380Y-100814095D01*
X154138380Y-100576000D01*
X154186000Y-100433142D01*
X154281238Y-100337904D01*
X154376476Y-100290285D01*
X154566952Y-100242666D01*
X154709809Y-100242666D01*
X154900285Y-100290285D01*
X154995523Y-100337904D01*
X155090761Y-100433142D01*
X155138380Y-100576000D01*
X155138380Y-100814095D01*
X154138380Y-99337904D02*
X154138380Y-99814095D01*
X154614571Y-99861714D01*
X154566952Y-99814095D01*
X154519333Y-99718857D01*
X154519333Y-99480761D01*
X154566952Y-99385523D01*
X154614571Y-99337904D01*
X154709809Y-99290285D01*
X154947904Y-99290285D01*
X155043142Y-99337904D01*
X155090761Y-99385523D01*
X155138380Y-99480761D01*
X155138380Y-99718857D01*
X155090761Y-99814095D01*
X155043142Y-99861714D01*
%TO.C,U4*%
X152908095Y-101941380D02*
X152908095Y-102750904D01*
X152955714Y-102846142D01*
X153003333Y-102893761D01*
X153098571Y-102941380D01*
X153289047Y-102941380D01*
X153384285Y-102893761D01*
X153431904Y-102846142D01*
X153479523Y-102750904D01*
X153479523Y-101941380D01*
X154384285Y-102274714D02*
X154384285Y-102941380D01*
X154146190Y-101893761D02*
X153908095Y-102608047D01*
X154527142Y-102608047D01*
%TO.C,U3*%
X159726380Y-103631904D02*
X160535904Y-103631904D01*
X160631142Y-103584285D01*
X160678761Y-103536666D01*
X160726380Y-103441428D01*
X160726380Y-103250952D01*
X160678761Y-103155714D01*
X160631142Y-103108095D01*
X160535904Y-103060476D01*
X159726380Y-103060476D01*
X159726380Y-102679523D02*
X159726380Y-102060476D01*
X160107333Y-102393809D01*
X160107333Y-102250952D01*
X160154952Y-102155714D01*
X160202571Y-102108095D01*
X160297809Y-102060476D01*
X160535904Y-102060476D01*
X160631142Y-102108095D01*
X160678761Y-102155714D01*
X160726380Y-102250952D01*
X160726380Y-102536666D01*
X160678761Y-102631904D01*
X160631142Y-102679523D01*
%TO.C,U2*%
X159385095Y-105624380D02*
X159385095Y-106433904D01*
X159432714Y-106529142D01*
X159480333Y-106576761D01*
X159575571Y-106624380D01*
X159766047Y-106624380D01*
X159861285Y-106576761D01*
X159908904Y-106529142D01*
X159956523Y-106433904D01*
X159956523Y-105624380D01*
X160385095Y-105719619D02*
X160432714Y-105672000D01*
X160527952Y-105624380D01*
X160766047Y-105624380D01*
X160861285Y-105672000D01*
X160908904Y-105719619D01*
X160956523Y-105814857D01*
X160956523Y-105910095D01*
X160908904Y-106052952D01*
X160337476Y-106624380D01*
X160956523Y-106624380D01*
%TO.C,U1*%
X155575095Y-127341380D02*
X155575095Y-128150904D01*
X155622714Y-128246142D01*
X155670333Y-128293761D01*
X155765571Y-128341380D01*
X155956047Y-128341380D01*
X156051285Y-128293761D01*
X156098904Y-128246142D01*
X156146523Y-128150904D01*
X156146523Y-127341380D01*
X157146523Y-128341380D02*
X156575095Y-128341380D01*
X156860809Y-128341380D02*
X156860809Y-127341380D01*
X156765571Y-127484238D01*
X156670333Y-127579476D01*
X156575095Y-127627095D01*
%TO.C,IMD1*%
X135961380Y-127785619D02*
X134961380Y-127785619D01*
X135961380Y-127309428D02*
X134961380Y-127309428D01*
X135675666Y-126976095D01*
X134961380Y-126642761D01*
X135961380Y-126642761D01*
X135961380Y-126166571D02*
X134961380Y-126166571D01*
X134961380Y-125928476D01*
X135009000Y-125785619D01*
X135104238Y-125690380D01*
X135199476Y-125642761D01*
X135389952Y-125595142D01*
X135532809Y-125595142D01*
X135723285Y-125642761D01*
X135818523Y-125690380D01*
X135913761Y-125785619D01*
X135961380Y-125928476D01*
X135961380Y-126166571D01*
X135961380Y-124642761D02*
X135961380Y-125214190D01*
X135961380Y-124928476D02*
X134961380Y-124928476D01*
X135104238Y-125023714D01*
X135199476Y-125118952D01*
X135247095Y-125214190D01*
%TO.C,BMS1*%
X124388571Y-127690380D02*
X124436190Y-127547523D01*
X124483809Y-127499904D01*
X124579047Y-127452285D01*
X124721904Y-127452285D01*
X124817142Y-127499904D01*
X124864761Y-127547523D01*
X124912380Y-127642761D01*
X124912380Y-128023714D01*
X123912380Y-128023714D01*
X123912380Y-127690380D01*
X123960000Y-127595142D01*
X124007619Y-127547523D01*
X124102857Y-127499904D01*
X124198095Y-127499904D01*
X124293333Y-127547523D01*
X124340952Y-127595142D01*
X124388571Y-127690380D01*
X124388571Y-128023714D01*
X124912380Y-127023714D02*
X123912380Y-127023714D01*
X124626666Y-126690380D01*
X123912380Y-126357047D01*
X124912380Y-126357047D01*
X124864761Y-125928476D02*
X124912380Y-125785619D01*
X124912380Y-125547523D01*
X124864761Y-125452285D01*
X124817142Y-125404666D01*
X124721904Y-125357047D01*
X124626666Y-125357047D01*
X124531428Y-125404666D01*
X124483809Y-125452285D01*
X124436190Y-125547523D01*
X124388571Y-125738000D01*
X124340952Y-125833238D01*
X124293333Y-125880857D01*
X124198095Y-125928476D01*
X124102857Y-125928476D01*
X124007619Y-125880857D01*
X123960000Y-125833238D01*
X123912380Y-125738000D01*
X123912380Y-125499904D01*
X123960000Y-125357047D01*
X124912380Y-124404666D02*
X124912380Y-124976095D01*
X124912380Y-124690380D02*
X123912380Y-124690380D01*
X124055238Y-124785619D01*
X124150476Y-124880857D01*
X124198095Y-124976095D01*
%TO.C,K1*%
X132992904Y-100528380D02*
X132992904Y-99528380D01*
X133564333Y-100528380D02*
X133135761Y-99956952D01*
X133564333Y-99528380D02*
X132992904Y-100099809D01*
X134516714Y-100528380D02*
X133945285Y-100528380D01*
X134231000Y-100528380D02*
X134231000Y-99528380D01*
X134135761Y-99671238D01*
X134040523Y-99766476D01*
X133945285Y-99814095D01*
%TO.C,J1*%
X158666380Y-124031333D02*
X159380666Y-124031333D01*
X159523523Y-124078952D01*
X159618761Y-124174190D01*
X159666380Y-124317047D01*
X159666380Y-124412285D01*
X159666380Y-123031333D02*
X159666380Y-123602761D01*
X159666380Y-123317047D02*
X158666380Y-123317047D01*
X158809238Y-123412285D01*
X158904476Y-123507523D01*
X158952095Y-123602761D01*
%TO.C,C4*%
X170443142Y-103772166D02*
X170490761Y-103819785D01*
X170538380Y-103962642D01*
X170538380Y-104057880D01*
X170490761Y-104200738D01*
X170395523Y-104295976D01*
X170300285Y-104343595D01*
X170109809Y-104391214D01*
X169966952Y-104391214D01*
X169776476Y-104343595D01*
X169681238Y-104295976D01*
X169586000Y-104200738D01*
X169538380Y-104057880D01*
X169538380Y-103962642D01*
X169586000Y-103819785D01*
X169633619Y-103772166D01*
X169871714Y-102915023D02*
X170538380Y-102915023D01*
X169490761Y-103153119D02*
X170205047Y-103391214D01*
X170205047Y-102772166D01*
%TO.C,C1*%
X152741333Y-128500142D02*
X152693714Y-128547761D01*
X152550857Y-128595380D01*
X152455619Y-128595380D01*
X152312761Y-128547761D01*
X152217523Y-128452523D01*
X152169904Y-128357285D01*
X152122285Y-128166809D01*
X152122285Y-128023952D01*
X152169904Y-127833476D01*
X152217523Y-127738238D01*
X152312761Y-127643000D01*
X152455619Y-127595380D01*
X152550857Y-127595380D01*
X152693714Y-127643000D01*
X152741333Y-127690619D01*
X153693714Y-128595380D02*
X153122285Y-128595380D01*
X153408000Y-128595380D02*
X153408000Y-127595380D01*
X153312761Y-127738238D01*
X153217523Y-127833476D01*
X153122285Y-127881095D01*
%TD*%
M02*
