M48
; DRILL file {KiCad 5.1.7-a382d34a8~88~ubuntu18.04.1} date Thu Feb 25 09:41:40 2021
; FORMAT={-:-/ absolute / metric / decimal}
; #@! TF.CreationDate,2021-02-25T09:41:40-05:00
; #@! TF.GenerationSoftware,Kicad,Pcbnew,5.1.7-a382d34a8~88~ubuntu18.04.1
FMAT,2
METRIC
T1C0.400
T2C0.700
T3C0.750
T4C1.000
T5C1.750
T6C2.000
%
G90
G05
T1
X129.794Y-110.744
X131.191Y-117.983
X136.779Y-107.34
X136.855Y-118.11
X138.659Y-105.562
X139.395Y-121.006
X143.383Y-113.411
X145.161Y-123.952
X145.796Y-125.476
X146.812Y-126.492
X148.971Y-118.999
X149.606Y-121.92
X153.924Y-120.32
X154.457Y-114.325
X156.972Y-117.348
X157.734Y-118.237
X163.982Y-106.909
X166.878Y-109.093
X166.878Y-110.49
T2
X125.095Y-103.378
X125.095Y-110.998
X125.095Y-116.078
X125.095Y-121.158
X132.715Y-103.378
X132.715Y-110.998
X132.715Y-116.078
X132.715Y-121.158
X136.398Y-103.378
X136.398Y-110.998
X136.398Y-116.078
X136.398Y-121.158
X144.018Y-103.378
X144.018Y-110.998
X144.018Y-116.078
X144.018Y-121.158
T3
X128.048Y-126.746
X130.048Y-126.746
X139.097Y-126.746
X141.097Y-126.746
T4
X153.289Y-106.68
X153.289Y-109.22
X153.289Y-111.76
X161.544Y-122.428
X161.544Y-124.968
X164.084Y-122.428
X164.084Y-124.968
X166.624Y-122.428
X166.624Y-124.968
T5
X138.812Y-81.09
X138.812Y-89.09
X140.812Y-85.09
X142.812Y-81.09
X142.812Y-89.09
X144.812Y-85.09
X146.812Y-81.09
X146.812Y-89.09
X148.812Y-85.09
X150.812Y-81.09
X150.812Y-89.09
X152.812Y-85.09
X154.812Y-81.09
X154.812Y-89.09
T6
X127.612Y-92.39
X129.112Y-74.29
X164.512Y-74.29
X166.012Y-92.39
T0
M30
