%TF.GenerationSoftware,KiCad,Pcbnew,5.1.7-a382d34a8~88~ubuntu18.04.1*%
%TF.CreationDate,2021-02-25T09:41:41-05:00*%
%TF.ProjectId,FaultLatcher,4661756c-744c-4617-9463-6865722e6b69,rev?*%
%TF.SameCoordinates,Original*%
%TF.FileFunction,Copper,L1,Top*%
%TF.FilePolarity,Positive*%
%FSLAX46Y46*%
G04 Gerber Fmt 4.6, Leading zero omitted, Abs format (unit mm)*
G04 Created by KiCad (PCBNEW 5.1.7-a382d34a8~88~ubuntu18.04.1) date 2021-02-25 09:41:41*
%MOMM*%
%LPD*%
G01*
G04 APERTURE LIST*
%TA.AperFunction,ComponentPad*%
%ADD10C,2.625000*%
%TD*%
%TA.AperFunction,ComponentPad*%
%ADD11R,2.625000X2.625000*%
%TD*%
%TA.AperFunction,ComponentPad*%
%ADD12C,1.400000*%
%TD*%
%TA.AperFunction,ComponentPad*%
%ADD13R,1.400000X1.400000*%
%TD*%
%TA.AperFunction,ComponentPad*%
%ADD14O,2.300000X1.500000*%
%TD*%
%TA.AperFunction,ComponentPad*%
%ADD15R,2.300000X1.500000*%
%TD*%
%TA.AperFunction,SMDPad,CuDef*%
%ADD16R,0.550000X1.600000*%
%TD*%
%TA.AperFunction,SMDPad,CuDef*%
%ADD17R,1.600000X0.550000*%
%TD*%
%TA.AperFunction,ComponentPad*%
%ADD18O,1.200000X1.750000*%
%TD*%
%TA.AperFunction,ComponentPad*%
%ADD19O,1.700000X1.700000*%
%TD*%
%TA.AperFunction,ComponentPad*%
%ADD20R,1.700000X1.700000*%
%TD*%
%TA.AperFunction,ViaPad*%
%ADD21C,0.800000*%
%TD*%
%TA.AperFunction,Conductor*%
%ADD22C,0.250000*%
%TD*%
%TA.AperFunction,Conductor*%
%ADD23C,0.360000*%
%TD*%
%TA.AperFunction,Conductor*%
%ADD24C,1.200000*%
%TD*%
%TA.AperFunction,Conductor*%
%ADD25C,2.400000*%
%TD*%
%TA.AperFunction,Conductor*%
%ADD26C,0.200000*%
%TD*%
%TA.AperFunction,Conductor*%
%ADD27C,0.254000*%
%TD*%
%TA.AperFunction,Conductor*%
%ADD28C,0.100000*%
%TD*%
G04 APERTURE END LIST*
%TO.P,R6,2*%
%TO.N,/CAN-*%
%TA.AperFunction,SMDPad,CuDef*%
G36*
G01*
X162187900Y-94721500D02*
X161712900Y-94721500D01*
G75*
G02*
X161475400Y-94484000I0J237500D01*
G01*
X161475400Y-93984000D01*
G75*
G02*
X161712900Y-93746500I237500J0D01*
G01*
X162187900Y-93746500D01*
G75*
G02*
X162425400Y-93984000I0J-237500D01*
G01*
X162425400Y-94484000D01*
G75*
G02*
X162187900Y-94721500I-237500J0D01*
G01*
G37*
%TD.AperFunction*%
%TO.P,R6,1*%
%TO.N,/CAN+*%
%TA.AperFunction,SMDPad,CuDef*%
G36*
G01*
X162187900Y-96546500D02*
X161712900Y-96546500D01*
G75*
G02*
X161475400Y-96309000I0J237500D01*
G01*
X161475400Y-95809000D01*
G75*
G02*
X161712900Y-95571500I237500J0D01*
G01*
X162187900Y-95571500D01*
G75*
G02*
X162425400Y-95809000I0J-237500D01*
G01*
X162425400Y-96309000D01*
G75*
G02*
X162187900Y-96546500I-237500J0D01*
G01*
G37*
%TD.AperFunction*%
%TD*%
D10*
%TO.P,J2,14*%
%TO.N,/LOOP_IN*%
X138812000Y-89090000D03*
%TO.P,J2,13*%
%TO.N,/LOOP_OUT*%
X142812000Y-89090000D03*
%TO.P,J2,12*%
%TO.N,+12V*%
X146812000Y-89090000D03*
%TO.P,J2,11*%
%TO.N,/CAN+*%
X150812000Y-89090000D03*
%TO.P,J2,10*%
%TO.N,/CAN-*%
X154812000Y-89090000D03*
%TO.P,J2,9*%
%TO.N,/IMD_FAULT*%
X140812000Y-85090000D03*
%TO.P,J2,8*%
%TO.N,+12V*%
X144812000Y-85090000D03*
%TO.P,J2,7*%
%TO.N,/CAN+*%
X148812000Y-85090000D03*
%TO.P,J2,6*%
%TO.N,/CAN-*%
X152812000Y-85090000D03*
%TO.P,J2,5*%
%TO.N,/BMS_FAULT*%
X138812000Y-81090000D03*
%TO.P,J2,4*%
%TO.N,/NC*%
X142812000Y-81090000D03*
%TO.P,J2,3*%
X146812000Y-81090000D03*
%TO.P,J2,2*%
%TO.N,GND*%
X150812000Y-81090000D03*
D11*
%TO.P,J2,1*%
X154812000Y-81090000D03*
%TD*%
D12*
%TO.P,K4,13*%
%TO.N,/LOOP_OUT*%
X144018000Y-110998000D03*
%TO.P,K4,9*%
%TO.N,Net-(K1-Pad13)*%
X144018000Y-121158000D03*
%TO.P,K4,11*%
%TO.N,N/C*%
X144018000Y-116078000D03*
%TO.P,K4,4*%
%TO.N,/IMD_FAULT*%
X136398000Y-110998000D03*
%TO.P,K4,8*%
%TO.N,Net-(D4-Pad1)*%
X136398000Y-121158000D03*
%TO.P,K4,6*%
%TO.N,N/C*%
X136398000Y-116078000D03*
%TO.P,K4,16*%
%TO.N,GND*%
X144018000Y-103378000D03*
D13*
%TO.P,K4,1*%
%TO.N,Net-(D4-Pad1)*%
X136398000Y-103378000D03*
%TD*%
%TO.P,R7,2*%
%TO.N,+5V*%
%TA.AperFunction,SMDPad,CuDef*%
G36*
G01*
X157877500Y-103220000D02*
X158352500Y-103220000D01*
G75*
G02*
X158590000Y-103457500I0J-237500D01*
G01*
X158590000Y-104032500D01*
G75*
G02*
X158352500Y-104270000I-237500J0D01*
G01*
X157877500Y-104270000D01*
G75*
G02*
X157640000Y-104032500I0J237500D01*
G01*
X157640000Y-103457500D01*
G75*
G02*
X157877500Y-103220000I237500J0D01*
G01*
G37*
%TD.AperFunction*%
%TO.P,R7,1*%
%TO.N,Net-(D5-Pad2)*%
%TA.AperFunction,SMDPad,CuDef*%
G36*
G01*
X157877500Y-101470000D02*
X158352500Y-101470000D01*
G75*
G02*
X158590000Y-101707500I0J-237500D01*
G01*
X158590000Y-102282500D01*
G75*
G02*
X158352500Y-102520000I-237500J0D01*
G01*
X157877500Y-102520000D01*
G75*
G02*
X157640000Y-102282500I0J237500D01*
G01*
X157640000Y-101707500D01*
G75*
G02*
X157877500Y-101470000I237500J0D01*
G01*
G37*
%TD.AperFunction*%
%TD*%
%TO.P,D5,2*%
%TO.N,Net-(D5-Pad2)*%
%TA.AperFunction,SMDPad,CuDef*%
G36*
G01*
X157576000Y-100313500D02*
X157576000Y-99838500D01*
G75*
G02*
X157813500Y-99601000I237500J0D01*
G01*
X158388500Y-99601000D01*
G75*
G02*
X158626000Y-99838500I0J-237500D01*
G01*
X158626000Y-100313500D01*
G75*
G02*
X158388500Y-100551000I-237500J0D01*
G01*
X157813500Y-100551000D01*
G75*
G02*
X157576000Y-100313500I0J237500D01*
G01*
G37*
%TD.AperFunction*%
%TO.P,D5,1*%
%TO.N,GND*%
%TA.AperFunction,SMDPad,CuDef*%
G36*
G01*
X155826000Y-100313500D02*
X155826000Y-99838500D01*
G75*
G02*
X156063500Y-99601000I237500J0D01*
G01*
X156638500Y-99601000D01*
G75*
G02*
X156876000Y-99838500I0J-237500D01*
G01*
X156876000Y-100313500D01*
G75*
G02*
X156638500Y-100551000I-237500J0D01*
G01*
X156063500Y-100551000D01*
G75*
G02*
X155826000Y-100313500I0J237500D01*
G01*
G37*
%TD.AperFunction*%
%TD*%
D14*
%TO.P,U4,3*%
%TO.N,+5V*%
X153289000Y-106680000D03*
%TO.P,U4,2*%
%TO.N,GND*%
X153289000Y-109220000D03*
D15*
%TO.P,U4,1*%
%TO.N,+12C*%
X153289000Y-111760000D03*
%TD*%
%TO.P,U3,8*%
%TO.N,GND*%
%TA.AperFunction,SMDPad,CuDef*%
G36*
G01*
X162202000Y-100673000D02*
X161902000Y-100673000D01*
G75*
G02*
X161752000Y-100523000I0J150000D01*
G01*
X161752000Y-98873000D01*
G75*
G02*
X161902000Y-98723000I150000J0D01*
G01*
X162202000Y-98723000D01*
G75*
G02*
X162352000Y-98873000I0J-150000D01*
G01*
X162352000Y-100523000D01*
G75*
G02*
X162202000Y-100673000I-150000J0D01*
G01*
G37*
%TD.AperFunction*%
%TO.P,U3,7*%
%TO.N,/CAN+*%
%TA.AperFunction,SMDPad,CuDef*%
G36*
G01*
X163472000Y-100673000D02*
X163172000Y-100673000D01*
G75*
G02*
X163022000Y-100523000I0J150000D01*
G01*
X163022000Y-98873000D01*
G75*
G02*
X163172000Y-98723000I150000J0D01*
G01*
X163472000Y-98723000D01*
G75*
G02*
X163622000Y-98873000I0J-150000D01*
G01*
X163622000Y-100523000D01*
G75*
G02*
X163472000Y-100673000I-150000J0D01*
G01*
G37*
%TD.AperFunction*%
%TO.P,U3,6*%
%TO.N,/CAN-*%
%TA.AperFunction,SMDPad,CuDef*%
G36*
G01*
X164742000Y-100673000D02*
X164442000Y-100673000D01*
G75*
G02*
X164292000Y-100523000I0J150000D01*
G01*
X164292000Y-98873000D01*
G75*
G02*
X164442000Y-98723000I150000J0D01*
G01*
X164742000Y-98723000D01*
G75*
G02*
X164892000Y-98873000I0J-150000D01*
G01*
X164892000Y-100523000D01*
G75*
G02*
X164742000Y-100673000I-150000J0D01*
G01*
G37*
%TD.AperFunction*%
%TO.P,U3,5*%
%TO.N,N/C*%
%TA.AperFunction,SMDPad,CuDef*%
G36*
G01*
X166012000Y-100673000D02*
X165712000Y-100673000D01*
G75*
G02*
X165562000Y-100523000I0J150000D01*
G01*
X165562000Y-98873000D01*
G75*
G02*
X165712000Y-98723000I150000J0D01*
G01*
X166012000Y-98723000D01*
G75*
G02*
X166162000Y-98873000I0J-150000D01*
G01*
X166162000Y-100523000D01*
G75*
G02*
X166012000Y-100673000I-150000J0D01*
G01*
G37*
%TD.AperFunction*%
%TO.P,U3,4*%
%TO.N,/RXCAN*%
%TA.AperFunction,SMDPad,CuDef*%
G36*
G01*
X166012000Y-105623000D02*
X165712000Y-105623000D01*
G75*
G02*
X165562000Y-105473000I0J150000D01*
G01*
X165562000Y-103823000D01*
G75*
G02*
X165712000Y-103673000I150000J0D01*
G01*
X166012000Y-103673000D01*
G75*
G02*
X166162000Y-103823000I0J-150000D01*
G01*
X166162000Y-105473000D01*
G75*
G02*
X166012000Y-105623000I-150000J0D01*
G01*
G37*
%TD.AperFunction*%
%TO.P,U3,3*%
%TO.N,+5V*%
%TA.AperFunction,SMDPad,CuDef*%
G36*
G01*
X164742000Y-105623000D02*
X164442000Y-105623000D01*
G75*
G02*
X164292000Y-105473000I0J150000D01*
G01*
X164292000Y-103823000D01*
G75*
G02*
X164442000Y-103673000I150000J0D01*
G01*
X164742000Y-103673000D01*
G75*
G02*
X164892000Y-103823000I0J-150000D01*
G01*
X164892000Y-105473000D01*
G75*
G02*
X164742000Y-105623000I-150000J0D01*
G01*
G37*
%TD.AperFunction*%
%TO.P,U3,2*%
%TO.N,GND*%
%TA.AperFunction,SMDPad,CuDef*%
G36*
G01*
X163472000Y-105623000D02*
X163172000Y-105623000D01*
G75*
G02*
X163022000Y-105473000I0J150000D01*
G01*
X163022000Y-103823000D01*
G75*
G02*
X163172000Y-103673000I150000J0D01*
G01*
X163472000Y-103673000D01*
G75*
G02*
X163622000Y-103823000I0J-150000D01*
G01*
X163622000Y-105473000D01*
G75*
G02*
X163472000Y-105623000I-150000J0D01*
G01*
G37*
%TD.AperFunction*%
%TO.P,U3,1*%
%TO.N,/TXCAN*%
%TA.AperFunction,SMDPad,CuDef*%
G36*
G01*
X162202000Y-105623000D02*
X161902000Y-105623000D01*
G75*
G02*
X161752000Y-105473000I0J150000D01*
G01*
X161752000Y-103823000D01*
G75*
G02*
X161902000Y-103673000I150000J0D01*
G01*
X162202000Y-103673000D01*
G75*
G02*
X162352000Y-103823000I0J-150000D01*
G01*
X162352000Y-105473000D01*
G75*
G02*
X162202000Y-105623000I-150000J0D01*
G01*
G37*
%TD.AperFunction*%
%TD*%
%TO.P,U2,18*%
%TO.N,+5V*%
%TA.AperFunction,SMDPad,CuDef*%
G36*
G01*
X160508000Y-117960000D02*
X160508000Y-118260000D01*
G75*
G02*
X160358000Y-118410000I-150000J0D01*
G01*
X158608000Y-118410000D01*
G75*
G02*
X158458000Y-118260000I0J150000D01*
G01*
X158458000Y-117960000D01*
G75*
G02*
X158608000Y-117810000I150000J0D01*
G01*
X160358000Y-117810000D01*
G75*
G02*
X160508000Y-117960000I0J-150000D01*
G01*
G37*
%TD.AperFunction*%
%TO.P,U2,17*%
%TO.N,Net-(R5-Pad2)*%
%TA.AperFunction,SMDPad,CuDef*%
G36*
G01*
X160508000Y-116690000D02*
X160508000Y-116990000D01*
G75*
G02*
X160358000Y-117140000I-150000J0D01*
G01*
X158608000Y-117140000D01*
G75*
G02*
X158458000Y-116990000I0J150000D01*
G01*
X158458000Y-116690000D01*
G75*
G02*
X158608000Y-116540000I150000J0D01*
G01*
X160358000Y-116540000D01*
G75*
G02*
X160508000Y-116690000I0J-150000D01*
G01*
G37*
%TD.AperFunction*%
%TO.P,U2,16*%
%TO.N,/CAN_CS*%
%TA.AperFunction,SMDPad,CuDef*%
G36*
G01*
X160508000Y-115420000D02*
X160508000Y-115720000D01*
G75*
G02*
X160358000Y-115870000I-150000J0D01*
G01*
X158608000Y-115870000D01*
G75*
G02*
X158458000Y-115720000I0J150000D01*
G01*
X158458000Y-115420000D01*
G75*
G02*
X158608000Y-115270000I150000J0D01*
G01*
X160358000Y-115270000D01*
G75*
G02*
X160508000Y-115420000I0J-150000D01*
G01*
G37*
%TD.AperFunction*%
%TO.P,U2,15*%
%TO.N,/MISO*%
%TA.AperFunction,SMDPad,CuDef*%
G36*
G01*
X160508000Y-114150000D02*
X160508000Y-114450000D01*
G75*
G02*
X160358000Y-114600000I-150000J0D01*
G01*
X158608000Y-114600000D01*
G75*
G02*
X158458000Y-114450000I0J150000D01*
G01*
X158458000Y-114150000D01*
G75*
G02*
X158608000Y-114000000I150000J0D01*
G01*
X160358000Y-114000000D01*
G75*
G02*
X160508000Y-114150000I0J-150000D01*
G01*
G37*
%TD.AperFunction*%
%TO.P,U2,14*%
%TO.N,/MOSI*%
%TA.AperFunction,SMDPad,CuDef*%
G36*
G01*
X160508000Y-112880000D02*
X160508000Y-113180000D01*
G75*
G02*
X160358000Y-113330000I-150000J0D01*
G01*
X158608000Y-113330000D01*
G75*
G02*
X158458000Y-113180000I0J150000D01*
G01*
X158458000Y-112880000D01*
G75*
G02*
X158608000Y-112730000I150000J0D01*
G01*
X160358000Y-112730000D01*
G75*
G02*
X160508000Y-112880000I0J-150000D01*
G01*
G37*
%TD.AperFunction*%
%TO.P,U2,13*%
%TO.N,/SCK*%
%TA.AperFunction,SMDPad,CuDef*%
G36*
G01*
X160508000Y-111610000D02*
X160508000Y-111910000D01*
G75*
G02*
X160358000Y-112060000I-150000J0D01*
G01*
X158608000Y-112060000D01*
G75*
G02*
X158458000Y-111910000I0J150000D01*
G01*
X158458000Y-111610000D01*
G75*
G02*
X158608000Y-111460000I150000J0D01*
G01*
X160358000Y-111460000D01*
G75*
G02*
X160508000Y-111610000I0J-150000D01*
G01*
G37*
%TD.AperFunction*%
%TO.P,U2,12*%
%TO.N,/CAN_INT*%
%TA.AperFunction,SMDPad,CuDef*%
G36*
G01*
X160508000Y-110340000D02*
X160508000Y-110640000D01*
G75*
G02*
X160358000Y-110790000I-150000J0D01*
G01*
X158608000Y-110790000D01*
G75*
G02*
X158458000Y-110640000I0J150000D01*
G01*
X158458000Y-110340000D01*
G75*
G02*
X158608000Y-110190000I150000J0D01*
G01*
X160358000Y-110190000D01*
G75*
G02*
X160508000Y-110340000I0J-150000D01*
G01*
G37*
%TD.AperFunction*%
%TO.P,U2,11*%
%TO.N,N/C*%
%TA.AperFunction,SMDPad,CuDef*%
G36*
G01*
X160508000Y-109070000D02*
X160508000Y-109370000D01*
G75*
G02*
X160358000Y-109520000I-150000J0D01*
G01*
X158608000Y-109520000D01*
G75*
G02*
X158458000Y-109370000I0J150000D01*
G01*
X158458000Y-109070000D01*
G75*
G02*
X158608000Y-108920000I150000J0D01*
G01*
X160358000Y-108920000D01*
G75*
G02*
X160508000Y-109070000I0J-150000D01*
G01*
G37*
%TD.AperFunction*%
%TO.P,U2,10*%
%TA.AperFunction,SMDPad,CuDef*%
G36*
G01*
X160508000Y-107800000D02*
X160508000Y-108100000D01*
G75*
G02*
X160358000Y-108250000I-150000J0D01*
G01*
X158608000Y-108250000D01*
G75*
G02*
X158458000Y-108100000I0J150000D01*
G01*
X158458000Y-107800000D01*
G75*
G02*
X158608000Y-107650000I150000J0D01*
G01*
X160358000Y-107650000D01*
G75*
G02*
X160508000Y-107800000I0J-150000D01*
G01*
G37*
%TD.AperFunction*%
%TO.P,U2,9*%
%TO.N,GND*%
%TA.AperFunction,SMDPad,CuDef*%
G36*
G01*
X169808000Y-107800000D02*
X169808000Y-108100000D01*
G75*
G02*
X169658000Y-108250000I-150000J0D01*
G01*
X167908000Y-108250000D01*
G75*
G02*
X167758000Y-108100000I0J150000D01*
G01*
X167758000Y-107800000D01*
G75*
G02*
X167908000Y-107650000I150000J0D01*
G01*
X169658000Y-107650000D01*
G75*
G02*
X169808000Y-107800000I0J-150000D01*
G01*
G37*
%TD.AperFunction*%
%TO.P,U2,8*%
%TO.N,Net-(U2-Pad8)*%
%TA.AperFunction,SMDPad,CuDef*%
G36*
G01*
X169808000Y-109070000D02*
X169808000Y-109370000D01*
G75*
G02*
X169658000Y-109520000I-150000J0D01*
G01*
X167908000Y-109520000D01*
G75*
G02*
X167758000Y-109370000I0J150000D01*
G01*
X167758000Y-109070000D01*
G75*
G02*
X167908000Y-108920000I150000J0D01*
G01*
X169658000Y-108920000D01*
G75*
G02*
X169808000Y-109070000I0J-150000D01*
G01*
G37*
%TD.AperFunction*%
%TO.P,U2,7*%
%TO.N,Net-(U2-Pad7)*%
%TA.AperFunction,SMDPad,CuDef*%
G36*
G01*
X169808000Y-110340000D02*
X169808000Y-110640000D01*
G75*
G02*
X169658000Y-110790000I-150000J0D01*
G01*
X167908000Y-110790000D01*
G75*
G02*
X167758000Y-110640000I0J150000D01*
G01*
X167758000Y-110340000D01*
G75*
G02*
X167908000Y-110190000I150000J0D01*
G01*
X169658000Y-110190000D01*
G75*
G02*
X169808000Y-110340000I0J-150000D01*
G01*
G37*
%TD.AperFunction*%
%TO.P,U2,6*%
%TO.N,N/C*%
%TA.AperFunction,SMDPad,CuDef*%
G36*
G01*
X169808000Y-111610000D02*
X169808000Y-111910000D01*
G75*
G02*
X169658000Y-112060000I-150000J0D01*
G01*
X167908000Y-112060000D01*
G75*
G02*
X167758000Y-111910000I0J150000D01*
G01*
X167758000Y-111610000D01*
G75*
G02*
X167908000Y-111460000I150000J0D01*
G01*
X169658000Y-111460000D01*
G75*
G02*
X169808000Y-111610000I0J-150000D01*
G01*
G37*
%TD.AperFunction*%
%TO.P,U2,5*%
%TA.AperFunction,SMDPad,CuDef*%
G36*
G01*
X169808000Y-112880000D02*
X169808000Y-113180000D01*
G75*
G02*
X169658000Y-113330000I-150000J0D01*
G01*
X167908000Y-113330000D01*
G75*
G02*
X167758000Y-113180000I0J150000D01*
G01*
X167758000Y-112880000D01*
G75*
G02*
X167908000Y-112730000I150000J0D01*
G01*
X169658000Y-112730000D01*
G75*
G02*
X169808000Y-112880000I0J-150000D01*
G01*
G37*
%TD.AperFunction*%
%TO.P,U2,4*%
%TA.AperFunction,SMDPad,CuDef*%
G36*
G01*
X169808000Y-114150000D02*
X169808000Y-114450000D01*
G75*
G02*
X169658000Y-114600000I-150000J0D01*
G01*
X167908000Y-114600000D01*
G75*
G02*
X167758000Y-114450000I0J150000D01*
G01*
X167758000Y-114150000D01*
G75*
G02*
X167908000Y-114000000I150000J0D01*
G01*
X169658000Y-114000000D01*
G75*
G02*
X169808000Y-114150000I0J-150000D01*
G01*
G37*
%TD.AperFunction*%
%TO.P,U2,3*%
%TA.AperFunction,SMDPad,CuDef*%
G36*
G01*
X169808000Y-115420000D02*
X169808000Y-115720000D01*
G75*
G02*
X169658000Y-115870000I-150000J0D01*
G01*
X167908000Y-115870000D01*
G75*
G02*
X167758000Y-115720000I0J150000D01*
G01*
X167758000Y-115420000D01*
G75*
G02*
X167908000Y-115270000I150000J0D01*
G01*
X169658000Y-115270000D01*
G75*
G02*
X169808000Y-115420000I0J-150000D01*
G01*
G37*
%TD.AperFunction*%
%TO.P,U2,2*%
%TO.N,/RXCAN*%
%TA.AperFunction,SMDPad,CuDef*%
G36*
G01*
X169808000Y-116690000D02*
X169808000Y-116990000D01*
G75*
G02*
X169658000Y-117140000I-150000J0D01*
G01*
X167908000Y-117140000D01*
G75*
G02*
X167758000Y-116990000I0J150000D01*
G01*
X167758000Y-116690000D01*
G75*
G02*
X167908000Y-116540000I150000J0D01*
G01*
X169658000Y-116540000D01*
G75*
G02*
X169808000Y-116690000I0J-150000D01*
G01*
G37*
%TD.AperFunction*%
%TO.P,U2,1*%
%TO.N,/TXCAN*%
%TA.AperFunction,SMDPad,CuDef*%
G36*
G01*
X169808000Y-117960000D02*
X169808000Y-118260000D01*
G75*
G02*
X169658000Y-118410000I-150000J0D01*
G01*
X167908000Y-118410000D01*
G75*
G02*
X167758000Y-118260000I0J150000D01*
G01*
X167758000Y-117960000D01*
G75*
G02*
X167908000Y-117810000I150000J0D01*
G01*
X169658000Y-117810000D01*
G75*
G02*
X169808000Y-117960000I0J-150000D01*
G01*
G37*
%TD.AperFunction*%
%TD*%
D16*
%TO.P,U1,1*%
%TO.N,/IMD_IND*%
X154241000Y-117357000D03*
%TO.P,U1,2*%
%TO.N,N/C*%
X153441000Y-117357000D03*
%TO.P,U1,3*%
%TO.N,GND*%
X152641000Y-117357000D03*
%TO.P,U1,4*%
%TO.N,+5V*%
X151841000Y-117357000D03*
%TO.P,U1,5*%
%TO.N,GND*%
X151041000Y-117357000D03*
%TO.P,U1,6*%
%TO.N,+5V*%
X150241000Y-117357000D03*
%TO.P,U1,7*%
%TO.N,N/C*%
X149441000Y-117357000D03*
%TO.P,U1,8*%
X148641000Y-117357000D03*
D17*
%TO.P,U1,9*%
%TO.N,/CAN_CS*%
X147191000Y-118807000D03*
%TO.P,U1,10*%
%TO.N,N/C*%
X147191000Y-119607000D03*
%TO.P,U1,11*%
%TO.N,/BMS_IND*%
X147191000Y-120407000D03*
%TO.P,U1,12*%
%TO.N,N/C*%
X147191000Y-121207000D03*
%TO.P,U1,13*%
X147191000Y-122007000D03*
%TO.P,U1,14*%
X147191000Y-122807000D03*
%TO.P,U1,15*%
%TO.N,/MOSI*%
X147191000Y-123607000D03*
%TO.P,U1,16*%
%TO.N,/MISO*%
X147191000Y-124407000D03*
D16*
%TO.P,U1,17*%
%TO.N,/SCK*%
X148641000Y-125857000D03*
%TO.P,U1,18*%
%TO.N,+5V*%
X149441000Y-125857000D03*
%TO.P,U1,19*%
%TO.N,N/C*%
X150241000Y-125857000D03*
%TO.P,U1,20*%
%TO.N,Net-(C1-Pad1)*%
X151041000Y-125857000D03*
%TO.P,U1,21*%
%TO.N,GND*%
X151841000Y-125857000D03*
%TO.P,U1,22*%
%TO.N,N/C*%
X152641000Y-125857000D03*
%TO.P,U1,23*%
X153441000Y-125857000D03*
%TO.P,U1,24*%
X154241000Y-125857000D03*
D17*
%TO.P,U1,25*%
X155691000Y-124407000D03*
%TO.P,U1,26*%
X155691000Y-123607000D03*
%TO.P,U1,27*%
X155691000Y-122807000D03*
%TO.P,U1,28*%
X155691000Y-122007000D03*
%TO.P,U1,29*%
%TO.N,/RESET*%
X155691000Y-121207000D03*
%TO.P,U1,30*%
%TO.N,N/C*%
X155691000Y-120407000D03*
%TO.P,U1,31*%
X155691000Y-119607000D03*
%TO.P,U1,32*%
%TO.N,/CAN_INT*%
X155691000Y-118807000D03*
%TD*%
D18*
%TO.P,IMD1,2*%
%TO.N,Net-(D4-Pad1)*%
X139097000Y-126746000D03*
%TO.P,IMD1,1*%
%TO.N,+12C*%
%TA.AperFunction,ComponentPad*%
G36*
G01*
X141697000Y-126120999D02*
X141697000Y-127371001D01*
G75*
G02*
X141447001Y-127621000I-249999J0D01*
G01*
X140746999Y-127621000D01*
G75*
G02*
X140497000Y-127371001I0J249999D01*
G01*
X140497000Y-126120999D01*
G75*
G02*
X140746999Y-125871000I249999J0D01*
G01*
X141447001Y-125871000D01*
G75*
G02*
X141697000Y-126120999I0J-249999D01*
G01*
G37*
%TD.AperFunction*%
%TD*%
%TO.P,BMS1,2*%
%TO.N,Net-(BMS1-Pad2)*%
X128048000Y-126746000D03*
%TO.P,BMS1,1*%
%TO.N,GND*%
%TA.AperFunction,ComponentPad*%
G36*
G01*
X130648000Y-126120999D02*
X130648000Y-127371001D01*
G75*
G02*
X130398001Y-127621000I-249999J0D01*
G01*
X129697999Y-127621000D01*
G75*
G02*
X129448000Y-127371001I0J249999D01*
G01*
X129448000Y-126120999D01*
G75*
G02*
X129697999Y-125871000I249999J0D01*
G01*
X130398001Y-125871000D01*
G75*
G02*
X130648000Y-126120999I0J-249999D01*
G01*
G37*
%TD.AperFunction*%
%TD*%
D12*
%TO.P,K1,13*%
%TO.N,Net-(K1-Pad13)*%
X132715000Y-110998000D03*
%TO.P,K1,9*%
%TO.N,/LOOP_IN*%
X132715000Y-121158000D03*
%TO.P,K1,11*%
%TO.N,N/C*%
X132715000Y-116078000D03*
%TO.P,K1,4*%
%TO.N,/BMS_FAULT*%
X125095000Y-110998000D03*
%TO.P,K1,8*%
%TO.N,Net-(BMS1-Pad2)*%
X125095000Y-121158000D03*
%TO.P,K1,6*%
%TO.N,N/C*%
X125095000Y-116078000D03*
%TO.P,K1,16*%
%TO.N,+12C*%
X132715000Y-103378000D03*
D13*
%TO.P,K1,1*%
%TO.N,Net-(BMS1-Pad2)*%
X125095000Y-103378000D03*
%TD*%
D19*
%TO.P,J1,6*%
%TO.N,GND*%
X166624000Y-122428000D03*
%TO.P,J1,5*%
%TO.N,/RESET*%
X166624000Y-124968000D03*
%TO.P,J1,4*%
%TO.N,/MOSI*%
X164084000Y-122428000D03*
%TO.P,J1,3*%
%TO.N,/SCK*%
X164084000Y-124968000D03*
%TO.P,J1,2*%
%TO.N,+5V*%
X161544000Y-122428000D03*
D20*
%TO.P,J1,1*%
%TO.N,/MISO*%
X161544000Y-124968000D03*
%TD*%
%TO.P,C4,2*%
%TO.N,GND*%
%TA.AperFunction,SMDPad,CuDef*%
G36*
G01*
X168418500Y-103930500D02*
X168893500Y-103930500D01*
G75*
G02*
X169131000Y-104168000I0J-237500D01*
G01*
X169131000Y-104768000D01*
G75*
G02*
X168893500Y-105005500I-237500J0D01*
G01*
X168418500Y-105005500D01*
G75*
G02*
X168181000Y-104768000I0J237500D01*
G01*
X168181000Y-104168000D01*
G75*
G02*
X168418500Y-103930500I237500J0D01*
G01*
G37*
%TD.AperFunction*%
%TO.P,C4,1*%
%TO.N,+5V*%
%TA.AperFunction,SMDPad,CuDef*%
G36*
G01*
X168418500Y-102205500D02*
X168893500Y-102205500D01*
G75*
G02*
X169131000Y-102443000I0J-237500D01*
G01*
X169131000Y-103043000D01*
G75*
G02*
X168893500Y-103280500I-237500J0D01*
G01*
X168418500Y-103280500D01*
G75*
G02*
X168181000Y-103043000I0J237500D01*
G01*
X168181000Y-102443000D01*
G75*
G02*
X168418500Y-102205500I237500J0D01*
G01*
G37*
%TD.AperFunction*%
%TD*%
%TO.P,C1,1*%
%TO.N,Net-(C1-Pad1)*%
%TA.AperFunction,SMDPad,CuDef*%
G36*
G01*
X151260000Y-127778500D02*
X151260000Y-128253500D01*
G75*
G02*
X151022500Y-128491000I-237500J0D01*
G01*
X150422500Y-128491000D01*
G75*
G02*
X150185000Y-128253500I0J237500D01*
G01*
X150185000Y-127778500D01*
G75*
G02*
X150422500Y-127541000I237500J0D01*
G01*
X151022500Y-127541000D01*
G75*
G02*
X151260000Y-127778500I0J-237500D01*
G01*
G37*
%TD.AperFunction*%
%TO.P,C1,2*%
%TO.N,GND*%
%TA.AperFunction,SMDPad,CuDef*%
G36*
G01*
X149535000Y-127778500D02*
X149535000Y-128253500D01*
G75*
G02*
X149297500Y-128491000I-237500J0D01*
G01*
X148697500Y-128491000D01*
G75*
G02*
X148460000Y-128253500I0J237500D01*
G01*
X148460000Y-127778500D01*
G75*
G02*
X148697500Y-127541000I237500J0D01*
G01*
X149297500Y-127541000D01*
G75*
G02*
X149535000Y-127778500I0J-237500D01*
G01*
G37*
%TD.AperFunction*%
%TD*%
D21*
%TO.N,GND*%
X163982400Y-106908600D03*
X153924000Y-120319800D03*
X154457400Y-114325400D03*
X136855200Y-118110000D03*
X139395200Y-121005600D03*
X136779000Y-107340400D03*
X138658600Y-105562400D03*
%TO.N,+5V*%
X149606000Y-121920000D03*
X129794000Y-110744000D03*
%TO.N,/MOSI*%
X145161000Y-123952000D03*
%TO.N,/SCK*%
X146812000Y-126492000D03*
%TO.N,/MISO*%
X145796000Y-125476000D03*
%TO.N,/BMS_IND*%
X131191000Y-117983000D03*
%TO.N,/IMD_IND*%
X143383000Y-113411000D03*
%TO.N,Net-(R5-Pad2)*%
X157734000Y-118237000D03*
%TO.N,/CAN_CS*%
X156972000Y-117348000D03*
X148971000Y-118999000D03*
%TO.N,Net-(U2-Pad8)*%
X166878000Y-109093000D03*
%TO.N,Net-(U2-Pad7)*%
X166878000Y-110490000D03*
%TD*%
D22*
%TO.N,Net-(C1-Pad1)*%
X151041000Y-127697500D02*
X151041000Y-125857000D01*
X150722500Y-128016000D02*
X151041000Y-127697500D01*
%TO.N,+5V*%
X150241000Y-117357000D02*
X150241000Y-121285000D01*
X150241000Y-121285000D02*
X149606000Y-121920000D01*
X149606000Y-125692000D02*
X149441000Y-125857000D01*
X149606000Y-121920000D02*
X149606000Y-125692000D01*
X168656000Y-102743000D02*
X165481000Y-102743000D01*
X164592000Y-103632000D02*
X164592000Y-104648000D01*
X165481000Y-102743000D02*
X164592000Y-103632000D01*
X150241000Y-118407000D02*
X150833000Y-118999000D01*
X150241000Y-117357000D02*
X150241000Y-118407000D01*
X150833000Y-118999000D02*
X151257000Y-118999000D01*
X151841000Y-118415000D02*
X151841000Y-117357000D01*
X151257000Y-118999000D02*
X151841000Y-118415000D01*
X159483000Y-120367000D02*
X161544000Y-122428000D01*
X159483000Y-118110000D02*
X159483000Y-120367000D01*
X155180000Y-106680000D02*
X158115000Y-103745000D01*
X153289000Y-106680000D02*
X155180000Y-106680000D01*
X159117000Y-102743000D02*
X165481000Y-102743000D01*
X158115000Y-103745000D02*
X159117000Y-102743000D01*
D23*
X140275420Y-114191001D02*
X138479419Y-112395000D01*
X148034003Y-114191001D02*
X140275420Y-114191001D01*
X150241000Y-117357000D02*
X150241000Y-116397998D01*
X150241000Y-116397998D02*
X148034003Y-114191001D01*
X135593472Y-112395000D02*
X134295010Y-111096538D01*
X138479419Y-112395000D02*
X135593472Y-112395000D01*
X134295010Y-111096538D02*
X134295010Y-110343539D01*
X134295010Y-110343539D02*
X133369461Y-109417990D01*
X133369461Y-109417990D02*
X131120010Y-109417990D01*
X131120010Y-109417990D02*
X129794000Y-110744000D01*
D22*
%TO.N,/RESET*%
X156551002Y-121207000D02*
X159004000Y-123659998D01*
X155691000Y-121207000D02*
X156551002Y-121207000D01*
X159004000Y-123659998D02*
X159004000Y-124968000D01*
X159004000Y-124968000D02*
X160655000Y-126619000D01*
X164973000Y-126619000D02*
X166624000Y-124968000D01*
X160655000Y-126619000D02*
X164973000Y-126619000D01*
%TO.N,/MOSI*%
X160508000Y-113030000D02*
X159483000Y-113030000D01*
X164084000Y-122428000D02*
X164084000Y-116606000D01*
X164084000Y-116606000D02*
X160508000Y-113030000D01*
X147191000Y-123607000D02*
X145506000Y-123607000D01*
X145506000Y-123607000D02*
X145161000Y-123952000D01*
%TO.N,/SCK*%
X160508000Y-111760000D02*
X159483000Y-111760000D01*
X165448999Y-116700999D02*
X160508000Y-111760000D01*
X164084000Y-124968000D02*
X165448999Y-123603001D01*
X165448999Y-123603001D02*
X165448999Y-116700999D01*
X148641000Y-125857000D02*
X147447000Y-125857000D01*
X147447000Y-125857000D02*
X146812000Y-126492000D01*
%TO.N,/MISO*%
X160508000Y-114300000D02*
X159483000Y-114300000D01*
X162719001Y-116511001D02*
X160508000Y-114300000D01*
X161544000Y-124968000D02*
X162719001Y-123792999D01*
X162719001Y-123792999D02*
X162719001Y-116511001D01*
X147191000Y-124407000D02*
X146865000Y-124407000D01*
X146865000Y-124407000D02*
X145796000Y-125476000D01*
D24*
%TO.N,/IMD_FAULT*%
X140685000Y-85090000D02*
X137160000Y-85090000D01*
X137160000Y-85090000D02*
X134493000Y-87757000D01*
X134493000Y-109093000D02*
X136398000Y-110998000D01*
X134493000Y-87757000D02*
X134493000Y-109093000D01*
%TO.N,/BMS_FAULT*%
X133092990Y-86682010D02*
X138685000Y-81090000D01*
X133092990Y-99444010D02*
X133092990Y-86682010D01*
X125095000Y-110998000D02*
X125095000Y-107442000D01*
X125095000Y-107442000D02*
X133092990Y-99444010D01*
D25*
%TO.N,/LOOP_OUT*%
X141372501Y-108352501D02*
X144018000Y-110998000D01*
X142685000Y-89090000D02*
X141372501Y-90402499D01*
X141372501Y-90402499D02*
X141372501Y-108352501D01*
%TO.N,Net-(K1-Pad13)*%
X137827948Y-113977999D02*
X134942001Y-113977999D01*
X144018000Y-121158000D02*
X144018000Y-120168051D01*
X144018000Y-120168051D02*
X137827948Y-113977999D01*
X132715000Y-111750998D02*
X132715000Y-110998000D01*
X134942001Y-113977999D02*
X132715000Y-111750998D01*
D23*
%TO.N,/BMS_IND*%
X146031000Y-120407000D02*
X145598010Y-120839990D01*
X147191000Y-120407000D02*
X146031000Y-120407000D01*
X145598010Y-120839990D02*
X145598010Y-121812461D01*
X145598010Y-121812461D02*
X144672461Y-122738010D01*
X144672461Y-122738010D02*
X135946010Y-122738010D01*
X135946010Y-122738010D02*
X131191000Y-117983000D01*
%TO.N,/IMD_IND*%
X151455000Y-113411000D02*
X143383000Y-113411000D01*
X154241000Y-117357000D02*
X154241000Y-116197000D01*
X154241000Y-116197000D02*
X151455000Y-113411000D01*
D22*
%TO.N,Net-(R5-Pad2)*%
X157734000Y-117564000D02*
X157734000Y-118237000D01*
X159483000Y-116840000D02*
X158458000Y-116840000D01*
X158458000Y-116840000D02*
X157734000Y-117564000D01*
%TO.N,/CAN_INT*%
X155691000Y-113257000D02*
X155691000Y-118807000D01*
X159483000Y-110490000D02*
X158458000Y-110490000D01*
X158458000Y-110490000D02*
X155691000Y-113257000D01*
%TO.N,/CAN_CS*%
X159483000Y-115570000D02*
X158750000Y-115570000D01*
X158750000Y-115570000D02*
X156972000Y-117348000D01*
X147383000Y-118999000D02*
X147191000Y-118807000D01*
X148971000Y-118999000D02*
X147383000Y-118999000D01*
%TO.N,Net-(U2-Pad8)*%
X168656000Y-109093000D02*
X168783000Y-109220000D01*
X166878000Y-109093000D02*
X168656000Y-109093000D01*
%TO.N,Net-(U2-Pad7)*%
X166878000Y-110490000D02*
X168783000Y-110490000D01*
%TO.N,/RXCAN*%
X168356232Y-116840000D02*
X168783000Y-116840000D01*
X165862000Y-104648000D02*
X165862000Y-114345768D01*
X165862000Y-114345768D02*
X168356232Y-116840000D01*
%TO.N,/TXCAN*%
X168356232Y-118110000D02*
X168783000Y-118110000D01*
X162052000Y-104648000D02*
X162052000Y-111805768D01*
X162052000Y-111805768D02*
X168356232Y-118110000D01*
%TO.N,Net-(D5-Pad2)*%
X158115000Y-100090000D02*
X158101000Y-100076000D01*
X158115000Y-101995000D02*
X158115000Y-100090000D01*
D26*
%TO.N,/CAN+*%
X161950400Y-96059000D02*
X161262900Y-95371500D01*
X161262900Y-95371500D02*
X156966500Y-95371500D01*
X154366802Y-92771802D02*
X150685000Y-89090000D01*
X156966500Y-95371500D02*
X154366802Y-92771802D01*
D25*
X148685000Y-87090000D02*
X150685000Y-89090000D01*
X148685000Y-85090000D02*
X148685000Y-87090000D01*
D26*
X163732000Y-99288000D02*
X163343095Y-99676905D01*
X163732000Y-98180800D02*
X163732000Y-99288000D01*
X163702290Y-98050634D02*
X163724478Y-98114043D01*
X163498756Y-97888321D02*
X163562165Y-97910509D01*
X163048171Y-97873278D02*
X163114928Y-97880800D01*
X162984762Y-97851090D02*
X163048171Y-97873278D01*
X162880378Y-97767846D02*
X162927881Y-97815349D01*
X162822449Y-97647556D02*
X162844637Y-97710965D01*
X162814928Y-97580800D02*
X162822449Y-97647556D01*
X163724478Y-98114043D02*
X163732000Y-98180800D01*
X162822449Y-97514043D02*
X162814928Y-97580800D01*
X163432000Y-97880800D02*
X163498756Y-97888321D01*
X162844637Y-97450634D02*
X162822449Y-97514043D01*
X163702290Y-97110965D02*
X163666549Y-97167846D01*
X163666549Y-97167846D02*
X163619046Y-97215349D01*
X163114928Y-97280800D02*
X163048171Y-97288321D01*
X163562165Y-97910509D02*
X163619046Y-97946250D01*
X163724478Y-97047556D02*
X163702290Y-97110965D01*
X161950400Y-96059000D02*
X163139003Y-96059000D01*
X163139003Y-96059000D02*
X163732000Y-96651997D01*
X163619046Y-97946250D02*
X163666549Y-97993753D01*
X162927881Y-97815349D02*
X162984762Y-97851090D01*
X162844637Y-97710965D02*
X162880378Y-97767846D01*
X163732000Y-96651997D02*
X163732000Y-96980800D01*
X163619046Y-97215349D02*
X163562165Y-97251090D01*
X163048171Y-97288321D02*
X162984762Y-97310509D01*
X163114928Y-97880800D02*
X163432000Y-97880800D01*
X163562165Y-97251090D02*
X163498756Y-97273278D01*
X163498756Y-97273278D02*
X163432000Y-97280800D01*
X163343095Y-99676905D02*
X163322000Y-99698000D01*
X162927881Y-97346250D02*
X162880378Y-97393753D01*
X163666549Y-97993753D02*
X163702290Y-98050634D01*
X163432000Y-97280800D02*
X163114928Y-97280800D01*
X162984762Y-97310509D02*
X162927881Y-97346250D01*
X163732000Y-96980800D02*
X163724478Y-97047556D01*
X162880378Y-97393753D02*
X162844637Y-97450634D01*
%TO.N,/CAN-*%
X164182000Y-96465600D02*
X163457202Y-95740802D01*
X163457202Y-95740802D02*
X161950400Y-94234000D01*
X164592000Y-99698000D02*
X164182000Y-99288000D01*
X164182000Y-99288000D02*
X164182000Y-96465600D01*
D25*
X152685000Y-87090000D02*
X154685000Y-89090000D01*
X152685000Y-85090000D02*
X152685000Y-87090000D01*
D26*
X154685000Y-89877416D02*
X154685000Y-89090000D01*
X154685000Y-90653603D02*
X154685000Y-89877416D01*
X154655291Y-90783768D02*
X154677479Y-90720359D01*
X154619550Y-90840649D02*
X154655291Y-90783768D01*
X154572047Y-90888152D02*
X154619550Y-90840649D01*
X154515166Y-90923893D02*
X154572047Y-90888152D01*
X154451757Y-90946081D02*
X154515166Y-90923893D01*
X154385000Y-90953603D02*
X154451757Y-90946081D01*
X154049312Y-91019053D02*
X154106193Y-90983312D01*
X155263807Y-91583312D02*
X155200398Y-91561124D01*
X154049312Y-91488152D02*
X154001809Y-91440649D01*
X155426120Y-91786846D02*
X155403932Y-91723437D01*
X154985000Y-92153603D02*
X155133642Y-92153603D01*
X155200398Y-91561124D02*
X155133642Y-91553603D01*
X154854834Y-92183312D02*
X154918243Y-92161124D01*
X154001809Y-91066556D02*
X154049312Y-91019053D01*
X154750450Y-92266556D02*
X154797953Y-92219053D01*
X155320688Y-91619053D02*
X155263807Y-91583312D01*
X161950400Y-94234000D02*
X161262900Y-94921500D01*
X154918243Y-92161124D02*
X154985000Y-92153603D01*
X153943880Y-91320359D02*
X153936358Y-91253603D01*
X155433642Y-91853603D02*
X155426120Y-91786846D01*
X155200398Y-92146081D02*
X155263807Y-92123893D01*
X161262900Y-94921500D02*
X157152897Y-94921500D01*
X154685000Y-92453603D02*
X154692521Y-92386846D01*
X154169602Y-91546081D02*
X154106193Y-91523893D01*
X154692521Y-92386846D02*
X154714709Y-92323437D01*
X154714709Y-92323437D02*
X154750450Y-92266556D01*
X154677479Y-90720359D02*
X154685000Y-90653603D01*
X157152897Y-94921500D02*
X154685000Y-92453603D01*
X155403932Y-91983768D02*
X155426120Y-91920359D01*
X155320688Y-92088152D02*
X155368191Y-92040649D01*
X155426120Y-91920359D02*
X155433642Y-91853603D01*
X154236358Y-90953603D02*
X154385000Y-90953603D01*
X154797953Y-92219053D02*
X154854834Y-92183312D01*
X155368191Y-92040649D02*
X155403932Y-91983768D01*
X155403932Y-91723437D02*
X155368191Y-91666556D01*
X153966068Y-91383768D02*
X153943880Y-91320359D01*
X154106193Y-90983312D02*
X154169602Y-90961124D01*
X155133642Y-91553603D02*
X154236358Y-91553603D01*
X154169602Y-90961124D02*
X154236358Y-90953603D01*
X155263807Y-92123893D02*
X155320688Y-92088152D01*
X154236358Y-91553603D02*
X154169602Y-91546081D01*
X154106193Y-91523893D02*
X154049312Y-91488152D01*
X155368191Y-91666556D02*
X155320688Y-91619053D01*
X154001809Y-91440649D02*
X153966068Y-91383768D01*
X153936358Y-91253603D02*
X153943880Y-91186846D01*
X155133642Y-92153603D02*
X155200398Y-92146081D01*
X153943880Y-91186846D02*
X153966068Y-91123437D01*
X153966068Y-91123437D02*
X154001809Y-91066556D01*
D24*
%TO.N,Net-(BMS1-Pad2)*%
X125095000Y-123793000D02*
X128048000Y-126746000D01*
X125095000Y-121158000D02*
X125095000Y-123793000D01*
%TD*%
D27*
%TO.N,GND*%
X170938000Y-72364852D02*
X170938000Y-72364853D01*
X170938001Y-129028000D01*
X149877403Y-129028000D01*
X149889494Y-129021537D01*
X149986185Y-128942185D01*
X150044196Y-128871498D01*
X150144344Y-128925027D01*
X150280697Y-128966390D01*
X150422500Y-128980356D01*
X151022500Y-128980356D01*
X151164303Y-128966390D01*
X151300656Y-128925027D01*
X151426320Y-128857859D01*
X151536465Y-128767465D01*
X151626859Y-128657320D01*
X151694027Y-128531656D01*
X151735390Y-128395303D01*
X151749356Y-128253500D01*
X151749356Y-127778500D01*
X151735390Y-127636697D01*
X151694027Y-127500344D01*
X151653000Y-127423587D01*
X151653000Y-127194250D01*
X151714000Y-127133250D01*
X151714000Y-126939698D01*
X151722885Y-126928872D01*
X151768106Y-126844268D01*
X151795953Y-126752469D01*
X151805356Y-126657000D01*
X151805356Y-125057000D01*
X151795953Y-124961531D01*
X151768106Y-124869732D01*
X151722885Y-124785128D01*
X151714000Y-124774302D01*
X151714000Y-124580750D01*
X151555250Y-124422000D01*
X151438510Y-124431794D01*
X151318988Y-124468680D01*
X151208959Y-124528174D01*
X151161333Y-124567644D01*
X150766000Y-124567644D01*
X150670531Y-124577047D01*
X150641000Y-124586005D01*
X150611469Y-124577047D01*
X150516000Y-124567644D01*
X150218000Y-124567644D01*
X150218000Y-122562408D01*
X150294978Y-122485430D01*
X150392049Y-122340152D01*
X150458913Y-122178728D01*
X150493000Y-122007362D01*
X150493000Y-121898498D01*
X150652493Y-121739005D01*
X150675843Y-121719843D01*
X150695005Y-121696494D01*
X150695008Y-121696491D01*
X150752321Y-121626654D01*
X150778142Y-121578346D01*
X150809150Y-121520335D01*
X150844145Y-121404973D01*
X150853000Y-121315064D01*
X150853000Y-121315062D01*
X150855961Y-121285000D01*
X150853000Y-121254938D01*
X150853000Y-119611990D01*
X150863053Y-119611000D01*
X151226946Y-119611000D01*
X151257000Y-119613960D01*
X151287054Y-119611000D01*
X151287064Y-119611000D01*
X151376973Y-119602145D01*
X151492335Y-119567150D01*
X151598654Y-119510321D01*
X151691843Y-119433843D01*
X151711013Y-119410484D01*
X152252495Y-118869004D01*
X152275843Y-118849843D01*
X152295005Y-118826494D01*
X152295008Y-118826491D01*
X152325371Y-118789493D01*
X152355250Y-118792000D01*
X152514000Y-118633250D01*
X152514000Y-118439698D01*
X152522885Y-118428872D01*
X152568106Y-118344268D01*
X152595953Y-118252469D01*
X152605356Y-118157000D01*
X152605356Y-116557000D01*
X152595953Y-116461531D01*
X152568106Y-116369732D01*
X152522885Y-116285128D01*
X152514000Y-116274302D01*
X152514000Y-116080750D01*
X152355250Y-115922000D01*
X152238510Y-115931794D01*
X152118988Y-115968680D01*
X152008959Y-116028174D01*
X151961333Y-116067644D01*
X151720667Y-116067644D01*
X151673041Y-116028174D01*
X151563012Y-115968680D01*
X151443490Y-115931794D01*
X151326750Y-115922000D01*
X151168000Y-116080750D01*
X151168000Y-116274302D01*
X151159115Y-116285128D01*
X151113894Y-116369732D01*
X151086047Y-116461531D01*
X151076644Y-116557000D01*
X151076644Y-117504000D01*
X151005356Y-117504000D01*
X151005356Y-116557000D01*
X150995953Y-116461531D01*
X150968106Y-116369732D01*
X150922885Y-116285128D01*
X150914000Y-116274302D01*
X150914000Y-116080750D01*
X150755250Y-115922000D01*
X150715926Y-115925299D01*
X150714922Y-115924076D01*
X150689471Y-115903189D01*
X148864281Y-114078000D01*
X151178721Y-114078000D01*
X153031509Y-115930789D01*
X152926750Y-115922000D01*
X152768000Y-116080750D01*
X152768000Y-116274302D01*
X152759115Y-116285128D01*
X152713894Y-116369732D01*
X152686047Y-116461531D01*
X152676644Y-116557000D01*
X152676644Y-118157000D01*
X152686047Y-118252469D01*
X152713894Y-118344268D01*
X152759115Y-118428872D01*
X152768000Y-118439698D01*
X152768000Y-118633250D01*
X152926750Y-118792000D01*
X153043490Y-118782206D01*
X153163012Y-118745320D01*
X153273041Y-118685826D01*
X153320667Y-118646356D01*
X153716000Y-118646356D01*
X153811469Y-118636953D01*
X153841000Y-118627995D01*
X153870531Y-118636953D01*
X153966000Y-118646356D01*
X154401644Y-118646356D01*
X154401644Y-119082000D01*
X154411047Y-119177469D01*
X154420005Y-119207000D01*
X154411047Y-119236531D01*
X154401644Y-119332000D01*
X154401644Y-119882000D01*
X154411047Y-119977469D01*
X154420005Y-120007000D01*
X154411047Y-120036531D01*
X154401644Y-120132000D01*
X154401644Y-120682000D01*
X154411047Y-120777469D01*
X154420005Y-120807000D01*
X154411047Y-120836531D01*
X154401644Y-120932000D01*
X154401644Y-121482000D01*
X154411047Y-121577469D01*
X154420005Y-121607000D01*
X154411047Y-121636531D01*
X154401644Y-121732000D01*
X154401644Y-122282000D01*
X154411047Y-122377469D01*
X154420005Y-122407000D01*
X154411047Y-122436531D01*
X154401644Y-122532000D01*
X154401644Y-123082000D01*
X154411047Y-123177469D01*
X154420005Y-123207000D01*
X154411047Y-123236531D01*
X154401644Y-123332000D01*
X154401644Y-123882000D01*
X154411047Y-123977469D01*
X154420005Y-124007000D01*
X154411047Y-124036531D01*
X154401644Y-124132000D01*
X154401644Y-124567644D01*
X153966000Y-124567644D01*
X153870531Y-124577047D01*
X153841000Y-124586005D01*
X153811469Y-124577047D01*
X153716000Y-124567644D01*
X153166000Y-124567644D01*
X153070531Y-124577047D01*
X153041000Y-124586005D01*
X153011469Y-124577047D01*
X152916000Y-124567644D01*
X152520667Y-124567644D01*
X152473041Y-124528174D01*
X152363012Y-124468680D01*
X152243490Y-124431794D01*
X152126750Y-124422000D01*
X151968000Y-124580750D01*
X151968000Y-124774302D01*
X151959115Y-124785128D01*
X151913894Y-124869732D01*
X151886047Y-124961531D01*
X151876644Y-125057000D01*
X151876644Y-126657000D01*
X151886047Y-126752469D01*
X151913894Y-126844268D01*
X151959115Y-126928872D01*
X151968000Y-126939698D01*
X151968000Y-127133250D01*
X152126750Y-127292000D01*
X152243490Y-127282206D01*
X152363012Y-127245320D01*
X152473041Y-127185826D01*
X152520667Y-127146356D01*
X152916000Y-127146356D01*
X153011469Y-127136953D01*
X153041000Y-127127995D01*
X153070531Y-127136953D01*
X153166000Y-127146356D01*
X153716000Y-127146356D01*
X153811469Y-127136953D01*
X153841000Y-127127995D01*
X153870531Y-127136953D01*
X153966000Y-127146356D01*
X154516000Y-127146356D01*
X154611469Y-127136953D01*
X154703268Y-127109106D01*
X154787872Y-127063885D01*
X154862027Y-127003027D01*
X154922885Y-126928872D01*
X154968106Y-126844268D01*
X154995953Y-126752469D01*
X155005356Y-126657000D01*
X155005356Y-125171356D01*
X156491000Y-125171356D01*
X156586469Y-125161953D01*
X156678268Y-125134106D01*
X156762872Y-125088885D01*
X156837027Y-125028027D01*
X156897885Y-124953872D01*
X156943106Y-124869268D01*
X156970953Y-124777469D01*
X156980356Y-124682000D01*
X156980356Y-124132000D01*
X156970953Y-124036531D01*
X156961995Y-124007000D01*
X156970953Y-123977469D01*
X156980356Y-123882000D01*
X156980356Y-123332000D01*
X156970953Y-123236531D01*
X156961995Y-123207000D01*
X156970953Y-123177469D01*
X156980356Y-123082000D01*
X156980356Y-122532000D01*
X156977062Y-122498558D01*
X158392000Y-123913496D01*
X158392001Y-124937936D01*
X158389040Y-124968000D01*
X158392001Y-124998064D01*
X158400856Y-125087973D01*
X158414923Y-125134346D01*
X158435851Y-125203335D01*
X158492679Y-125309654D01*
X158538431Y-125365402D01*
X158569158Y-125402843D01*
X158592512Y-125422009D01*
X160200995Y-127030494D01*
X160220157Y-127053843D01*
X160243506Y-127073005D01*
X160243509Y-127073008D01*
X160283723Y-127106010D01*
X160313346Y-127130321D01*
X160419665Y-127187150D01*
X160535027Y-127222145D01*
X160624936Y-127231000D01*
X160624938Y-127231000D01*
X160655000Y-127233961D01*
X160685062Y-127231000D01*
X164942946Y-127231000D01*
X164973000Y-127233960D01*
X165003054Y-127231000D01*
X165003064Y-127231000D01*
X165092973Y-127222145D01*
X165208335Y-127187150D01*
X165314654Y-127130321D01*
X165407843Y-127053843D01*
X165427014Y-127030483D01*
X166212704Y-126244794D01*
X166234012Y-126253620D01*
X166492317Y-126305000D01*
X166755683Y-126305000D01*
X167013988Y-126253620D01*
X167257307Y-126152834D01*
X167476288Y-126006516D01*
X167662516Y-125820288D01*
X167808834Y-125601307D01*
X167909620Y-125357988D01*
X167961000Y-125099683D01*
X167961000Y-124836317D01*
X167909620Y-124578012D01*
X167808834Y-124334693D01*
X167662516Y-124115712D01*
X167476288Y-123929484D01*
X167257307Y-123783166D01*
X167234979Y-123773917D01*
X167390920Y-123699641D01*
X167624269Y-123525588D01*
X167819178Y-123309355D01*
X167968157Y-123059252D01*
X168065481Y-122784891D01*
X167944814Y-122555000D01*
X166751000Y-122555000D01*
X166751000Y-122575000D01*
X166497000Y-122575000D01*
X166497000Y-122555000D01*
X166477000Y-122555000D01*
X166477000Y-122301000D01*
X166497000Y-122301000D01*
X166497000Y-121107845D01*
X166751000Y-121107845D01*
X166751000Y-122301000D01*
X167944814Y-122301000D01*
X168065481Y-122071109D01*
X167968157Y-121796748D01*
X167819178Y-121546645D01*
X167624269Y-121330412D01*
X167390920Y-121156359D01*
X167128099Y-121031175D01*
X166980890Y-120986524D01*
X166751000Y-121107845D01*
X166497000Y-121107845D01*
X166267110Y-120986524D01*
X166119901Y-121031175D01*
X166060999Y-121059231D01*
X166060999Y-116731061D01*
X166063960Y-116700999D01*
X166062018Y-116681285D01*
X167275108Y-117894374D01*
X167268644Y-117960000D01*
X167268644Y-118260000D01*
X167280929Y-118384732D01*
X167317312Y-118504671D01*
X167376395Y-118615207D01*
X167455907Y-118712093D01*
X167552793Y-118791605D01*
X167663329Y-118850688D01*
X167783268Y-118887071D01*
X167908000Y-118899356D01*
X169658000Y-118899356D01*
X169782732Y-118887071D01*
X169902671Y-118850688D01*
X170013207Y-118791605D01*
X170110093Y-118712093D01*
X170189605Y-118615207D01*
X170248688Y-118504671D01*
X170285071Y-118384732D01*
X170297356Y-118260000D01*
X170297356Y-117960000D01*
X170285071Y-117835268D01*
X170248688Y-117715329D01*
X170189605Y-117604793D01*
X170110093Y-117507907D01*
X170069996Y-117475000D01*
X170110093Y-117442093D01*
X170189605Y-117345207D01*
X170248688Y-117234671D01*
X170285071Y-117114732D01*
X170297356Y-116990000D01*
X170297356Y-116690000D01*
X170285071Y-116565268D01*
X170248688Y-116445329D01*
X170189605Y-116334793D01*
X170110093Y-116237907D01*
X170069996Y-116205000D01*
X170110093Y-116172093D01*
X170189605Y-116075207D01*
X170248688Y-115964671D01*
X170285071Y-115844732D01*
X170297356Y-115720000D01*
X170297356Y-115420000D01*
X170285071Y-115295268D01*
X170248688Y-115175329D01*
X170189605Y-115064793D01*
X170110093Y-114967907D01*
X170069996Y-114935000D01*
X170110093Y-114902093D01*
X170189605Y-114805207D01*
X170248688Y-114694671D01*
X170285071Y-114574732D01*
X170297356Y-114450000D01*
X170297356Y-114150000D01*
X170285071Y-114025268D01*
X170248688Y-113905329D01*
X170189605Y-113794793D01*
X170110093Y-113697907D01*
X170069996Y-113665000D01*
X170110093Y-113632093D01*
X170189605Y-113535207D01*
X170248688Y-113424671D01*
X170285071Y-113304732D01*
X170297356Y-113180000D01*
X170297356Y-112880000D01*
X170285071Y-112755268D01*
X170248688Y-112635329D01*
X170189605Y-112524793D01*
X170110093Y-112427907D01*
X170069996Y-112395000D01*
X170110093Y-112362093D01*
X170189605Y-112265207D01*
X170248688Y-112154671D01*
X170285071Y-112034732D01*
X170297356Y-111910000D01*
X170297356Y-111610000D01*
X170285071Y-111485268D01*
X170248688Y-111365329D01*
X170189605Y-111254793D01*
X170110093Y-111157907D01*
X170069996Y-111125000D01*
X170110093Y-111092093D01*
X170189605Y-110995207D01*
X170248688Y-110884671D01*
X170285071Y-110764732D01*
X170297356Y-110640000D01*
X170297356Y-110340000D01*
X170285071Y-110215268D01*
X170248688Y-110095329D01*
X170189605Y-109984793D01*
X170110093Y-109887907D01*
X170069996Y-109855000D01*
X170110093Y-109822093D01*
X170189605Y-109725207D01*
X170248688Y-109614671D01*
X170285071Y-109494732D01*
X170297356Y-109370000D01*
X170297356Y-109070000D01*
X170285071Y-108945268D01*
X170248688Y-108825329D01*
X170205765Y-108745026D01*
X170259185Y-108701185D01*
X170338537Y-108604494D01*
X170397502Y-108494180D01*
X170433812Y-108374482D01*
X170446072Y-108250000D01*
X170443000Y-108235750D01*
X170284250Y-108077000D01*
X168910000Y-108077000D01*
X168910000Y-108097000D01*
X168656000Y-108097000D01*
X168656000Y-108077000D01*
X167281750Y-108077000D01*
X167123000Y-108235750D01*
X167122668Y-108237290D01*
X166965362Y-108206000D01*
X166790638Y-108206000D01*
X166619272Y-108240087D01*
X166474000Y-108300261D01*
X166474000Y-107650000D01*
X167119928Y-107650000D01*
X167123000Y-107664250D01*
X167281750Y-107823000D01*
X168656000Y-107823000D01*
X168656000Y-107173750D01*
X168910000Y-107173750D01*
X168910000Y-107823000D01*
X170284250Y-107823000D01*
X170443000Y-107664250D01*
X170446072Y-107650000D01*
X170433812Y-107525518D01*
X170397502Y-107405820D01*
X170338537Y-107295506D01*
X170259185Y-107198815D01*
X170162494Y-107119463D01*
X170052180Y-107060498D01*
X169932482Y-107024188D01*
X169808000Y-107011928D01*
X169068750Y-107015000D01*
X168910000Y-107173750D01*
X168656000Y-107173750D01*
X168497250Y-107015000D01*
X167758000Y-107011928D01*
X167633518Y-107024188D01*
X167513820Y-107060498D01*
X167403506Y-107119463D01*
X167306815Y-107198815D01*
X167227463Y-107295506D01*
X167168498Y-107405820D01*
X167132188Y-107525518D01*
X167119928Y-107650000D01*
X166474000Y-107650000D01*
X166474000Y-105913021D01*
X166543605Y-105828207D01*
X166602688Y-105717671D01*
X166639071Y-105597732D01*
X166651356Y-105473000D01*
X166651356Y-105005500D01*
X167542928Y-105005500D01*
X167555188Y-105129982D01*
X167591498Y-105249680D01*
X167650463Y-105359994D01*
X167729815Y-105456685D01*
X167826506Y-105536037D01*
X167936820Y-105595002D01*
X168056518Y-105631312D01*
X168181000Y-105643572D01*
X168370250Y-105640500D01*
X168529000Y-105481750D01*
X168529000Y-104595000D01*
X168783000Y-104595000D01*
X168783000Y-105481750D01*
X168941750Y-105640500D01*
X169131000Y-105643572D01*
X169255482Y-105631312D01*
X169375180Y-105595002D01*
X169485494Y-105536037D01*
X169582185Y-105456685D01*
X169661537Y-105359994D01*
X169720502Y-105249680D01*
X169756812Y-105129982D01*
X169769072Y-105005500D01*
X169766000Y-104753750D01*
X169607250Y-104595000D01*
X168783000Y-104595000D01*
X168529000Y-104595000D01*
X167704750Y-104595000D01*
X167546000Y-104753750D01*
X167542928Y-105005500D01*
X166651356Y-105005500D01*
X166651356Y-103823000D01*
X166639071Y-103698268D01*
X166602688Y-103578329D01*
X166543605Y-103467793D01*
X166464093Y-103370907D01*
X166444710Y-103355000D01*
X167765063Y-103355000D01*
X167800502Y-103421304D01*
X167729815Y-103479315D01*
X167650463Y-103576006D01*
X167591498Y-103686320D01*
X167555188Y-103806018D01*
X167542928Y-103930500D01*
X167546000Y-104182250D01*
X167704750Y-104341000D01*
X168529000Y-104341000D01*
X168529000Y-104321000D01*
X168783000Y-104321000D01*
X168783000Y-104341000D01*
X169607250Y-104341000D01*
X169766000Y-104182250D01*
X169769072Y-103930500D01*
X169756812Y-103806018D01*
X169720502Y-103686320D01*
X169661537Y-103576006D01*
X169582185Y-103479315D01*
X169511498Y-103421304D01*
X169565027Y-103321156D01*
X169606390Y-103184803D01*
X169620356Y-103043000D01*
X169620356Y-102443000D01*
X169606390Y-102301197D01*
X169565027Y-102164844D01*
X169497859Y-102039180D01*
X169407465Y-101929035D01*
X169297320Y-101838641D01*
X169171656Y-101771473D01*
X169035303Y-101730110D01*
X168893500Y-101716144D01*
X168418500Y-101716144D01*
X168276697Y-101730110D01*
X168140344Y-101771473D01*
X168014680Y-101838641D01*
X167904535Y-101929035D01*
X167814141Y-102039180D01*
X167765063Y-102131000D01*
X165511054Y-102131000D01*
X165481000Y-102128040D01*
X165450946Y-102131000D01*
X159147054Y-102131000D01*
X159117000Y-102128040D01*
X159086946Y-102131000D01*
X159086936Y-102131000D01*
X159079356Y-102131747D01*
X159079356Y-101707500D01*
X159065390Y-101565697D01*
X159024027Y-101429344D01*
X158956859Y-101303680D01*
X158866465Y-101193535D01*
X158756320Y-101103141D01*
X158727000Y-101087469D01*
X158727000Y-100952773D01*
X158792320Y-100917859D01*
X158902465Y-100827465D01*
X158992859Y-100717320D01*
X159016548Y-100673000D01*
X161113928Y-100673000D01*
X161126188Y-100797482D01*
X161162498Y-100917180D01*
X161221463Y-101027494D01*
X161300815Y-101124185D01*
X161397506Y-101203537D01*
X161507820Y-101262502D01*
X161627518Y-101298812D01*
X161752000Y-101311072D01*
X161766250Y-101308000D01*
X161925000Y-101149250D01*
X161925000Y-99825000D01*
X161275750Y-99825000D01*
X161117000Y-99983750D01*
X161113928Y-100673000D01*
X159016548Y-100673000D01*
X159060027Y-100591656D01*
X159101390Y-100455303D01*
X159115356Y-100313500D01*
X159115356Y-99838500D01*
X159101390Y-99696697D01*
X159060027Y-99560344D01*
X158992859Y-99434680D01*
X158902465Y-99324535D01*
X158792320Y-99234141D01*
X158666656Y-99166973D01*
X158530303Y-99125610D01*
X158388500Y-99111644D01*
X157813500Y-99111644D01*
X157671697Y-99125610D01*
X157535344Y-99166973D01*
X157409680Y-99234141D01*
X157401738Y-99240659D01*
X157327185Y-99149815D01*
X157230494Y-99070463D01*
X157120180Y-99011498D01*
X157000482Y-98975188D01*
X156876000Y-98962928D01*
X156636750Y-98966000D01*
X156478000Y-99124750D01*
X156478000Y-99949000D01*
X156498000Y-99949000D01*
X156498000Y-100203000D01*
X156478000Y-100203000D01*
X156478000Y-101027250D01*
X156636750Y-101186000D01*
X156876000Y-101189072D01*
X157000482Y-101176812D01*
X157120180Y-101140502D01*
X157230494Y-101081537D01*
X157327185Y-101002185D01*
X157401738Y-100911341D01*
X157409680Y-100917859D01*
X157503001Y-100967739D01*
X157503000Y-101087469D01*
X157473680Y-101103141D01*
X157363535Y-101193535D01*
X157273141Y-101303680D01*
X157205973Y-101429344D01*
X157164610Y-101565697D01*
X157150644Y-101707500D01*
X157150644Y-102282500D01*
X157164610Y-102424303D01*
X157205973Y-102560656D01*
X157273141Y-102686320D01*
X157363535Y-102796465D01*
X157453137Y-102870000D01*
X157363535Y-102943535D01*
X157273141Y-103053680D01*
X157205973Y-103179344D01*
X157164610Y-103315697D01*
X157150644Y-103457500D01*
X157150644Y-103843858D01*
X154926503Y-106068000D01*
X154764498Y-106068000D01*
X154722504Y-105989435D01*
X154567923Y-105801077D01*
X154379565Y-105646496D01*
X154164670Y-105531632D01*
X153931494Y-105460899D01*
X153749766Y-105443000D01*
X152828234Y-105443000D01*
X152646506Y-105460899D01*
X152413330Y-105531632D01*
X152198435Y-105646496D01*
X152010077Y-105801077D01*
X151855496Y-105989435D01*
X151740632Y-106204330D01*
X151669899Y-106437506D01*
X151646015Y-106680000D01*
X151669899Y-106922494D01*
X151740632Y-107155670D01*
X151855496Y-107370565D01*
X152010077Y-107558923D01*
X152198435Y-107713504D01*
X152413330Y-107828368D01*
X152561834Y-107873416D01*
X152494240Y-107886389D01*
X152241651Y-107989028D01*
X152013939Y-108138972D01*
X151819855Y-108330460D01*
X151666858Y-108556132D01*
X151560827Y-108807316D01*
X151546682Y-108878815D01*
X151669344Y-109093000D01*
X153162000Y-109093000D01*
X153162000Y-109073000D01*
X153416000Y-109073000D01*
X153416000Y-109093000D01*
X154908656Y-109093000D01*
X155031318Y-108878815D01*
X155017173Y-108807316D01*
X154911142Y-108556132D01*
X154758145Y-108330460D01*
X154564061Y-108138972D01*
X154336349Y-107989028D01*
X154083760Y-107886389D01*
X154016166Y-107873416D01*
X154164670Y-107828368D01*
X154379565Y-107713504D01*
X154567923Y-107558923D01*
X154722504Y-107370565D01*
X154764498Y-107292000D01*
X155149946Y-107292000D01*
X155180000Y-107294960D01*
X155210054Y-107292000D01*
X155210064Y-107292000D01*
X155299973Y-107283145D01*
X155415335Y-107248150D01*
X155521654Y-107191321D01*
X155614843Y-107114843D01*
X155634014Y-107091483D01*
X157966142Y-104759356D01*
X158352500Y-104759356D01*
X158494303Y-104745390D01*
X158630656Y-104704027D01*
X158756320Y-104636859D01*
X158866465Y-104546465D01*
X158956859Y-104436320D01*
X159024027Y-104310656D01*
X159065390Y-104174303D01*
X159079356Y-104032500D01*
X159079356Y-103646142D01*
X159370498Y-103355000D01*
X161469290Y-103355000D01*
X161449907Y-103370907D01*
X161370395Y-103467793D01*
X161311312Y-103578329D01*
X161274929Y-103698268D01*
X161262644Y-103823000D01*
X161262644Y-105473000D01*
X161274929Y-105597732D01*
X161311312Y-105717671D01*
X161370395Y-105828207D01*
X161440000Y-105913021D01*
X161440001Y-111775704D01*
X161437040Y-111805768D01*
X161438982Y-111825485D01*
X160962014Y-111348517D01*
X160942843Y-111325157D01*
X160915003Y-111302310D01*
X160889605Y-111254793D01*
X160810093Y-111157907D01*
X160769996Y-111125000D01*
X160810093Y-111092093D01*
X160889605Y-110995207D01*
X160948688Y-110884671D01*
X160985071Y-110764732D01*
X160997356Y-110640000D01*
X160997356Y-110340000D01*
X160985071Y-110215268D01*
X160948688Y-110095329D01*
X160889605Y-109984793D01*
X160810093Y-109887907D01*
X160769996Y-109855000D01*
X160810093Y-109822093D01*
X160889605Y-109725207D01*
X160948688Y-109614671D01*
X160985071Y-109494732D01*
X160997356Y-109370000D01*
X160997356Y-109070000D01*
X160985071Y-108945268D01*
X160948688Y-108825329D01*
X160889605Y-108714793D01*
X160810093Y-108617907D01*
X160769996Y-108585000D01*
X160810093Y-108552093D01*
X160889605Y-108455207D01*
X160948688Y-108344671D01*
X160985071Y-108224732D01*
X160997356Y-108100000D01*
X160997356Y-107800000D01*
X160985071Y-107675268D01*
X160948688Y-107555329D01*
X160889605Y-107444793D01*
X160810093Y-107347907D01*
X160713207Y-107268395D01*
X160602671Y-107209312D01*
X160482732Y-107172929D01*
X160358000Y-107160644D01*
X158608000Y-107160644D01*
X158483268Y-107172929D01*
X158363329Y-107209312D01*
X158252793Y-107268395D01*
X158155907Y-107347907D01*
X158076395Y-107444793D01*
X158017312Y-107555329D01*
X157980929Y-107675268D01*
X157968644Y-107800000D01*
X157968644Y-108100000D01*
X157980929Y-108224732D01*
X158017312Y-108344671D01*
X158076395Y-108455207D01*
X158155907Y-108552093D01*
X158196004Y-108585000D01*
X158155907Y-108617907D01*
X158076395Y-108714793D01*
X158017312Y-108825329D01*
X157980929Y-108945268D01*
X157968644Y-109070000D01*
X157968644Y-109370000D01*
X157980929Y-109494732D01*
X158017312Y-109614671D01*
X158076395Y-109725207D01*
X158155907Y-109822093D01*
X158196004Y-109855000D01*
X158155907Y-109887907D01*
X158076395Y-109984793D01*
X158050997Y-110032310D01*
X158023157Y-110055157D01*
X158003991Y-110078511D01*
X155279517Y-112802986D01*
X155256157Y-112822157D01*
X155208687Y-112880000D01*
X155179679Y-112915346D01*
X155154686Y-112962106D01*
X155122850Y-113021666D01*
X155087855Y-113137028D01*
X155079000Y-113226937D01*
X155079000Y-113226946D01*
X155076040Y-113257000D01*
X155079000Y-113287054D01*
X155079001Y-118042644D01*
X155005356Y-118042644D01*
X155005356Y-116557000D01*
X154995953Y-116461531D01*
X154968106Y-116369732D01*
X154922885Y-116285128D01*
X154908000Y-116266991D01*
X154908000Y-116229754D01*
X154911226Y-116197000D01*
X154908000Y-116164245D01*
X154908000Y-116164235D01*
X154898349Y-116066245D01*
X154860209Y-115940515D01*
X154798273Y-115824641D01*
X154735808Y-115748528D01*
X154714922Y-115723078D01*
X154689471Y-115702191D01*
X151949813Y-112962534D01*
X151947688Y-112959944D01*
X151951732Y-112962106D01*
X152043531Y-112989953D01*
X152139000Y-112999356D01*
X154439000Y-112999356D01*
X154534469Y-112989953D01*
X154626268Y-112962106D01*
X154710872Y-112916885D01*
X154785027Y-112856027D01*
X154845885Y-112781872D01*
X154891106Y-112697268D01*
X154918953Y-112605469D01*
X154928356Y-112510000D01*
X154928356Y-111010000D01*
X154918953Y-110914531D01*
X154891106Y-110822732D01*
X154845885Y-110738128D01*
X154785027Y-110663973D01*
X154710872Y-110603115D01*
X154626268Y-110557894D01*
X154534469Y-110530047D01*
X154439000Y-110520644D01*
X154164890Y-110520644D01*
X154336349Y-110450972D01*
X154564061Y-110301028D01*
X154758145Y-110109540D01*
X154911142Y-109883868D01*
X155017173Y-109632684D01*
X155031318Y-109561185D01*
X154908656Y-109347000D01*
X153416000Y-109347000D01*
X153416000Y-109367000D01*
X153162000Y-109367000D01*
X153162000Y-109347000D01*
X151669344Y-109347000D01*
X151546682Y-109561185D01*
X151560827Y-109632684D01*
X151666858Y-109883868D01*
X151819855Y-110109540D01*
X152013939Y-110301028D01*
X152241651Y-110450972D01*
X152413110Y-110520644D01*
X152139000Y-110520644D01*
X152043531Y-110530047D01*
X151951732Y-110557894D01*
X151867128Y-110603115D01*
X151792973Y-110663973D01*
X151732115Y-110738128D01*
X151686894Y-110822732D01*
X151659047Y-110914531D01*
X151649644Y-111010000D01*
X151649644Y-112510000D01*
X151659047Y-112605469D01*
X151686894Y-112697268D01*
X151732115Y-112781872D01*
X151762739Y-112819187D01*
X151711485Y-112791791D01*
X151585755Y-112753651D01*
X151487765Y-112744000D01*
X151487754Y-112744000D01*
X151455000Y-112740774D01*
X151422246Y-112744000D01*
X143970408Y-112744000D01*
X143948430Y-112722022D01*
X143885742Y-112680136D01*
X144018000Y-112693162D01*
X144348709Y-112660590D01*
X144666710Y-112564125D01*
X144959781Y-112407476D01*
X145216660Y-112196660D01*
X145427476Y-111939781D01*
X145584125Y-111646710D01*
X145680590Y-111328709D01*
X145713162Y-110998000D01*
X145680590Y-110667290D01*
X145584125Y-110349289D01*
X145427476Y-110056218D01*
X145269487Y-109863709D01*
X143059501Y-107653723D01*
X143059501Y-104299269D01*
X143276336Y-104299269D01*
X143335797Y-104533037D01*
X143574242Y-104643934D01*
X143829740Y-104706183D01*
X144092473Y-104717390D01*
X144352344Y-104677125D01*
X144599366Y-104586935D01*
X144700203Y-104533037D01*
X144759664Y-104299269D01*
X144018000Y-103557605D01*
X143276336Y-104299269D01*
X143059501Y-104299269D01*
X143059501Y-104110194D01*
X143096731Y-104119664D01*
X143838395Y-103378000D01*
X144197605Y-103378000D01*
X144939269Y-104119664D01*
X145173037Y-104060203D01*
X145283934Y-103821758D01*
X145346183Y-103566260D01*
X145357390Y-103303527D01*
X145317125Y-103043656D01*
X145226935Y-102796634D01*
X145173037Y-102695797D01*
X144939269Y-102636336D01*
X144197605Y-103378000D01*
X143838395Y-103378000D01*
X143096731Y-102636336D01*
X143059501Y-102645806D01*
X143059501Y-102456731D01*
X143276336Y-102456731D01*
X144018000Y-103198395D01*
X144759664Y-102456731D01*
X144700203Y-102222963D01*
X144461758Y-102112066D01*
X144206260Y-102049817D01*
X143943527Y-102038610D01*
X143683656Y-102078875D01*
X143436634Y-102169065D01*
X143335797Y-102222963D01*
X143276336Y-102456731D01*
X143059501Y-102456731D01*
X143059501Y-100551000D01*
X155187928Y-100551000D01*
X155200188Y-100675482D01*
X155236498Y-100795180D01*
X155295463Y-100905494D01*
X155374815Y-101002185D01*
X155471506Y-101081537D01*
X155581820Y-101140502D01*
X155701518Y-101176812D01*
X155826000Y-101189072D01*
X156065250Y-101186000D01*
X156224000Y-101027250D01*
X156224000Y-100203000D01*
X155349750Y-100203000D01*
X155191000Y-100361750D01*
X155187928Y-100551000D01*
X143059501Y-100551000D01*
X143059501Y-99601000D01*
X155187928Y-99601000D01*
X155191000Y-99790250D01*
X155349750Y-99949000D01*
X156224000Y-99949000D01*
X156224000Y-99124750D01*
X156065250Y-98966000D01*
X155826000Y-98962928D01*
X155701518Y-98975188D01*
X155581820Y-99011498D01*
X155471506Y-99070463D01*
X155374815Y-99149815D01*
X155295463Y-99246506D01*
X155236498Y-99356820D01*
X155200188Y-99476518D01*
X155187928Y-99601000D01*
X143059501Y-99601000D01*
X143059501Y-98723000D01*
X161113928Y-98723000D01*
X161117000Y-99412250D01*
X161275750Y-99571000D01*
X161925000Y-99571000D01*
X161925000Y-98246750D01*
X161766250Y-98088000D01*
X161752000Y-98084928D01*
X161627518Y-98097188D01*
X161507820Y-98133498D01*
X161397506Y-98192463D01*
X161300815Y-98271815D01*
X161221463Y-98368506D01*
X161162498Y-98478820D01*
X161126188Y-98598518D01*
X161113928Y-98723000D01*
X143059501Y-98723000D01*
X143059501Y-91101277D01*
X143342934Y-90817845D01*
X143664383Y-90684696D01*
X143959114Y-90487763D01*
X144209763Y-90237114D01*
X144406696Y-89942383D01*
X144542346Y-89614895D01*
X144611500Y-89267235D01*
X144611500Y-88912765D01*
X145012500Y-88912765D01*
X145012500Y-89267235D01*
X145081654Y-89614895D01*
X145217304Y-89942383D01*
X145414237Y-90237114D01*
X145664886Y-90487763D01*
X145959617Y-90684696D01*
X146287105Y-90820346D01*
X146634765Y-90889500D01*
X146989235Y-90889500D01*
X147336895Y-90820346D01*
X147664383Y-90684696D01*
X147959114Y-90487763D01*
X148209763Y-90237114D01*
X148406696Y-89942383D01*
X148542346Y-89614895D01*
X148589095Y-89379873D01*
X149349600Y-90140378D01*
X149414237Y-90237114D01*
X149664886Y-90487763D01*
X149959617Y-90684696D01*
X150287105Y-90820346D01*
X150634765Y-90889500D01*
X150989235Y-90889500D01*
X151336895Y-90820346D01*
X151512475Y-90747618D01*
X153972118Y-93207262D01*
X153972129Y-93207271D01*
X156531038Y-95766182D01*
X156549420Y-95788580D01*
X156638802Y-95861934D01*
X156740778Y-95916441D01*
X156831395Y-95943929D01*
X156851428Y-95950006D01*
X156966499Y-95961340D01*
X156995333Y-95958500D01*
X160986044Y-95958500D01*
X160986044Y-96309000D01*
X161000010Y-96450803D01*
X161041373Y-96587156D01*
X161108541Y-96712820D01*
X161198935Y-96822965D01*
X161309080Y-96913359D01*
X161434744Y-96980527D01*
X161571097Y-97021890D01*
X161712900Y-97035856D01*
X162187900Y-97035856D01*
X162329703Y-97021890D01*
X162458262Y-96982891D01*
X162451767Y-96988534D01*
X162421391Y-97027739D01*
X162389945Y-97066056D01*
X162372403Y-97098874D01*
X162358562Y-97120902D01*
X162336602Y-97150950D01*
X162315719Y-97195917D01*
X162293581Y-97240283D01*
X162283780Y-97276187D01*
X162275187Y-97300746D01*
X162260463Y-97334929D01*
X162250111Y-97383411D01*
X162238402Y-97431588D01*
X162236836Y-97468778D01*
X162233925Y-97494619D01*
X162227176Y-97531219D01*
X162227871Y-97580816D01*
X162227177Y-97630382D01*
X162233924Y-97666974D01*
X162236836Y-97692823D01*
X162238402Y-97730011D01*
X162250109Y-97778181D01*
X162260463Y-97826671D01*
X162275188Y-97860857D01*
X162283780Y-97885412D01*
X162293581Y-97921316D01*
X162315719Y-97965682D01*
X162336602Y-98010649D01*
X162358562Y-98040697D01*
X162372403Y-98062725D01*
X162386064Y-98088283D01*
X162352000Y-98084928D01*
X162337750Y-98088000D01*
X162179000Y-98246750D01*
X162179000Y-99571000D01*
X162199000Y-99571000D01*
X162199000Y-99825000D01*
X162179000Y-99825000D01*
X162179000Y-101149250D01*
X162337750Y-101308000D01*
X162352000Y-101311072D01*
X162476482Y-101298812D01*
X162596180Y-101262502D01*
X162706494Y-101203537D01*
X162803185Y-101124185D01*
X162847026Y-101070765D01*
X162927329Y-101113688D01*
X163047268Y-101150071D01*
X163172000Y-101162356D01*
X163472000Y-101162356D01*
X163596732Y-101150071D01*
X163716671Y-101113688D01*
X163827207Y-101054605D01*
X163924093Y-100975093D01*
X163957000Y-100934996D01*
X163989907Y-100975093D01*
X164086793Y-101054605D01*
X164197329Y-101113688D01*
X164317268Y-101150071D01*
X164442000Y-101162356D01*
X164742000Y-101162356D01*
X164866732Y-101150071D01*
X164986671Y-101113688D01*
X165097207Y-101054605D01*
X165194093Y-100975093D01*
X165227000Y-100934996D01*
X165259907Y-100975093D01*
X165356793Y-101054605D01*
X165467329Y-101113688D01*
X165587268Y-101150071D01*
X165712000Y-101162356D01*
X166012000Y-101162356D01*
X166136732Y-101150071D01*
X166256671Y-101113688D01*
X166367207Y-101054605D01*
X166464093Y-100975093D01*
X166543605Y-100878207D01*
X166602688Y-100767671D01*
X166639071Y-100647732D01*
X166651356Y-100523000D01*
X166651356Y-98873000D01*
X166639071Y-98748268D01*
X166602688Y-98628329D01*
X166543605Y-98517793D01*
X166464093Y-98420907D01*
X166367207Y-98341395D01*
X166256671Y-98282312D01*
X166136732Y-98245929D01*
X166012000Y-98233644D01*
X165712000Y-98233644D01*
X165587268Y-98245929D01*
X165467329Y-98282312D01*
X165356793Y-98341395D01*
X165259907Y-98420907D01*
X165227000Y-98461004D01*
X165194093Y-98420907D01*
X165097207Y-98341395D01*
X164986671Y-98282312D01*
X164866732Y-98245929D01*
X164769000Y-98236303D01*
X164769000Y-96494433D01*
X164771840Y-96465599D01*
X164760506Y-96350528D01*
X164752550Y-96324300D01*
X164726941Y-96239878D01*
X164672434Y-96137902D01*
X164599080Y-96048520D01*
X164576684Y-96030140D01*
X163892666Y-95346124D01*
X163892662Y-95346119D01*
X162914756Y-94368214D01*
X162914756Y-93984000D01*
X162900790Y-93842197D01*
X162859427Y-93705844D01*
X162792259Y-93580180D01*
X162701865Y-93470035D01*
X162591720Y-93379641D01*
X162466056Y-93312473D01*
X162329703Y-93271110D01*
X162187900Y-93257144D01*
X161712900Y-93257144D01*
X161571097Y-93271110D01*
X161434744Y-93312473D01*
X161309080Y-93379641D01*
X161198935Y-93470035D01*
X161108541Y-93580180D01*
X161041373Y-93705844D01*
X161000010Y-93842197D01*
X160986044Y-93984000D01*
X160986044Y-94334500D01*
X157396041Y-94334500D01*
X155643002Y-92581462D01*
X155648385Y-92578585D01*
X155686702Y-92547139D01*
X155725907Y-92516763D01*
X155750313Y-92488670D01*
X155768710Y-92470272D01*
X155796802Y-92445868D01*
X155827170Y-92406673D01*
X155858624Y-92368346D01*
X155876165Y-92335530D01*
X155890007Y-92313500D01*
X155911967Y-92283452D01*
X155930501Y-92243543D01*
X164525000Y-92243543D01*
X164525000Y-92536457D01*
X164582145Y-92823742D01*
X164694238Y-93094359D01*
X164856972Y-93337907D01*
X165064093Y-93545028D01*
X165307641Y-93707762D01*
X165578258Y-93819855D01*
X165865543Y-93877000D01*
X166158457Y-93877000D01*
X166445742Y-93819855D01*
X166716359Y-93707762D01*
X166959907Y-93545028D01*
X167167028Y-93337907D01*
X167329762Y-93094359D01*
X167441855Y-92823742D01*
X167499000Y-92536457D01*
X167499000Y-92243543D01*
X167441855Y-91956258D01*
X167329762Y-91685641D01*
X167167028Y-91442093D01*
X166959907Y-91234972D01*
X166716359Y-91072238D01*
X166445742Y-90960145D01*
X166158457Y-90903000D01*
X165865543Y-90903000D01*
X165578258Y-90960145D01*
X165307641Y-91072238D01*
X165064093Y-91234972D01*
X164856972Y-91442093D01*
X164694238Y-91685641D01*
X164582145Y-91956258D01*
X164525000Y-92243543D01*
X155930501Y-92243543D01*
X155932850Y-92238485D01*
X155954988Y-92194119D01*
X155964788Y-92158216D01*
X155973382Y-92133658D01*
X155988103Y-92099482D01*
X155998460Y-92050985D01*
X156010167Y-92002814D01*
X156011733Y-91965638D01*
X156014647Y-91939772D01*
X156021394Y-91903176D01*
X156020699Y-91853603D01*
X156021394Y-91804031D01*
X156014647Y-91767435D01*
X156011733Y-91741569D01*
X156010167Y-91704391D01*
X155998458Y-91656216D01*
X155988103Y-91607723D01*
X155973381Y-91573545D01*
X155964788Y-91548989D01*
X155954988Y-91513086D01*
X155932850Y-91468720D01*
X155911967Y-91423753D01*
X155890007Y-91393705D01*
X155876165Y-91371675D01*
X155858624Y-91338859D01*
X155827170Y-91300532D01*
X155796802Y-91261337D01*
X155768710Y-91236933D01*
X155750313Y-91218535D01*
X155725907Y-91190442D01*
X155686702Y-91160066D01*
X155648385Y-91128620D01*
X155615567Y-91111078D01*
X155593539Y-91097237D01*
X155563491Y-91075277D01*
X155518524Y-91054394D01*
X155474158Y-91032256D01*
X155438254Y-91022455D01*
X155413699Y-91013863D01*
X155379513Y-90999138D01*
X155331023Y-90988784D01*
X155282853Y-90977077D01*
X155250790Y-90975727D01*
X155248714Y-90975097D01*
X155212513Y-90971531D01*
X155216147Y-90958216D01*
X155224739Y-90933662D01*
X155239465Y-90899474D01*
X155249819Y-90850984D01*
X155253220Y-90836990D01*
X155336895Y-90820346D01*
X155664383Y-90684696D01*
X155959114Y-90487763D01*
X156209763Y-90237114D01*
X156406696Y-89942383D01*
X156542346Y-89614895D01*
X156611500Y-89267235D01*
X156611500Y-88912765D01*
X156542346Y-88565105D01*
X156406696Y-88237617D01*
X156209763Y-87942886D01*
X155959114Y-87692237D01*
X155664383Y-87495304D01*
X155342933Y-87362155D01*
X154372000Y-86391222D01*
X154372000Y-85994309D01*
X154406696Y-85942383D01*
X154542346Y-85614895D01*
X154611500Y-85267235D01*
X154611500Y-84912765D01*
X154542346Y-84565105D01*
X154406696Y-84237617D01*
X154209763Y-83942886D01*
X153959114Y-83692237D01*
X153664383Y-83495304D01*
X153336895Y-83359654D01*
X152989235Y-83290500D01*
X152634765Y-83290500D01*
X152287105Y-83359654D01*
X151959617Y-83495304D01*
X151664886Y-83692237D01*
X151414237Y-83942886D01*
X151283671Y-84138292D01*
X151275524Y-84148219D01*
X151269471Y-84159544D01*
X151217304Y-84237617D01*
X151181368Y-84324373D01*
X151118875Y-84441291D01*
X151022410Y-84759291D01*
X150998000Y-85007131D01*
X150998001Y-87007120D01*
X150997095Y-87016317D01*
X150372000Y-86391222D01*
X150372000Y-85994309D01*
X150406696Y-85942383D01*
X150542346Y-85614895D01*
X150611500Y-85267235D01*
X150611500Y-84912765D01*
X150542346Y-84565105D01*
X150406696Y-84237617D01*
X150209763Y-83942886D01*
X149959114Y-83692237D01*
X149664383Y-83495304D01*
X149336895Y-83359654D01*
X148989235Y-83290500D01*
X148634765Y-83290500D01*
X148287105Y-83359654D01*
X147959617Y-83495304D01*
X147664886Y-83692237D01*
X147414237Y-83942886D01*
X147283671Y-84138292D01*
X147275524Y-84148219D01*
X147269471Y-84159544D01*
X147217304Y-84237617D01*
X147181368Y-84324373D01*
X147118875Y-84441291D01*
X147022410Y-84759291D01*
X146998000Y-85007131D01*
X146998001Y-87007120D01*
X146989838Y-87090000D01*
X147009992Y-87294629D01*
X146989235Y-87290500D01*
X146634765Y-87290500D01*
X146287105Y-87359654D01*
X145959617Y-87495304D01*
X145664886Y-87692237D01*
X145414237Y-87942886D01*
X145217304Y-88237617D01*
X145081654Y-88565105D01*
X145012500Y-88912765D01*
X144611500Y-88912765D01*
X144542346Y-88565105D01*
X144406696Y-88237617D01*
X144209763Y-87942886D01*
X143959114Y-87692237D01*
X143664383Y-87495304D01*
X143336895Y-87359654D01*
X142989235Y-87290500D01*
X142634765Y-87290500D01*
X142287105Y-87359654D01*
X141959617Y-87495304D01*
X141664886Y-87692237D01*
X141414237Y-87942886D01*
X141349602Y-88039619D01*
X140589095Y-88800127D01*
X140542346Y-88565105D01*
X140406696Y-88237617D01*
X140209763Y-87942886D01*
X139959114Y-87692237D01*
X139664383Y-87495304D01*
X139336895Y-87359654D01*
X138989235Y-87290500D01*
X138634765Y-87290500D01*
X138287105Y-87359654D01*
X137959617Y-87495304D01*
X137664886Y-87692237D01*
X137414237Y-87942886D01*
X137217304Y-88237617D01*
X137081654Y-88565105D01*
X137012500Y-88912765D01*
X137012500Y-89267235D01*
X137081654Y-89614895D01*
X137217304Y-89942383D01*
X137414237Y-90237114D01*
X137664886Y-90487763D01*
X137959617Y-90684696D01*
X138287105Y-90820346D01*
X138634765Y-90889500D01*
X138989235Y-90889500D01*
X139336895Y-90820346D01*
X139664383Y-90684696D01*
X139685501Y-90670585D01*
X139685502Y-108269621D01*
X139677339Y-108352501D01*
X139709911Y-108683210D01*
X139772056Y-108888072D01*
X139806377Y-109001211D01*
X139963026Y-109294283D01*
X140173841Y-109551162D01*
X140238211Y-109603989D01*
X142883709Y-112249487D01*
X143076218Y-112407476D01*
X143294605Y-112524206D01*
X143124272Y-112558087D01*
X142962848Y-112624951D01*
X142817570Y-112722022D01*
X142694022Y-112845570D01*
X142596951Y-112990848D01*
X142530087Y-113152272D01*
X142496000Y-113323638D01*
X142496000Y-113498362D01*
X142501100Y-113524001D01*
X140551700Y-113524001D01*
X138974232Y-111946534D01*
X138953341Y-111921078D01*
X138851777Y-111837727D01*
X138735904Y-111775791D01*
X138610174Y-111737651D01*
X138512184Y-111728000D01*
X138512173Y-111728000D01*
X138479419Y-111724774D01*
X138446665Y-111728000D01*
X137337822Y-111728000D01*
X137449905Y-111560255D01*
X137539384Y-111344235D01*
X137585000Y-111114909D01*
X137585000Y-110881091D01*
X137539384Y-110651765D01*
X137449905Y-110435745D01*
X137320003Y-110241332D01*
X137154668Y-110075997D01*
X136960255Y-109946095D01*
X136828960Y-109891711D01*
X135580000Y-108642751D01*
X135580000Y-104551118D01*
X135602531Y-104557953D01*
X135698000Y-104567356D01*
X137098000Y-104567356D01*
X137193469Y-104557953D01*
X137285268Y-104530106D01*
X137369872Y-104484885D01*
X137444027Y-104424027D01*
X137504885Y-104349872D01*
X137550106Y-104265268D01*
X137577953Y-104173469D01*
X137587356Y-104078000D01*
X137587356Y-102678000D01*
X137577953Y-102582531D01*
X137550106Y-102490732D01*
X137504885Y-102406128D01*
X137444027Y-102331973D01*
X137369872Y-102271115D01*
X137285268Y-102225894D01*
X137193469Y-102198047D01*
X137098000Y-102188644D01*
X135698000Y-102188644D01*
X135602531Y-102198047D01*
X135580000Y-102204882D01*
X135580000Y-88207249D01*
X137610250Y-86177000D01*
X139374070Y-86177000D01*
X139414237Y-86237114D01*
X139664886Y-86487763D01*
X139959617Y-86684696D01*
X140287105Y-86820346D01*
X140634765Y-86889500D01*
X140989235Y-86889500D01*
X141336895Y-86820346D01*
X141664383Y-86684696D01*
X141959114Y-86487763D01*
X142209763Y-86237114D01*
X142406696Y-85942383D01*
X142542346Y-85614895D01*
X142611500Y-85267235D01*
X142611500Y-84912765D01*
X143012500Y-84912765D01*
X143012500Y-85267235D01*
X143081654Y-85614895D01*
X143217304Y-85942383D01*
X143414237Y-86237114D01*
X143664886Y-86487763D01*
X143959617Y-86684696D01*
X144287105Y-86820346D01*
X144634765Y-86889500D01*
X144989235Y-86889500D01*
X145336895Y-86820346D01*
X145664383Y-86684696D01*
X145959114Y-86487763D01*
X146209763Y-86237114D01*
X146406696Y-85942383D01*
X146542346Y-85614895D01*
X146611500Y-85267235D01*
X146611500Y-84912765D01*
X146542346Y-84565105D01*
X146406696Y-84237617D01*
X146209763Y-83942886D01*
X145959114Y-83692237D01*
X145664383Y-83495304D01*
X145336895Y-83359654D01*
X144989235Y-83290500D01*
X144634765Y-83290500D01*
X144287105Y-83359654D01*
X143959617Y-83495304D01*
X143664886Y-83692237D01*
X143414237Y-83942886D01*
X143217304Y-84237617D01*
X143081654Y-84565105D01*
X143012500Y-84912765D01*
X142611500Y-84912765D01*
X142542346Y-84565105D01*
X142406696Y-84237617D01*
X142209763Y-83942886D01*
X141959114Y-83692237D01*
X141664383Y-83495304D01*
X141336895Y-83359654D01*
X140989235Y-83290500D01*
X140634765Y-83290500D01*
X140287105Y-83359654D01*
X139959617Y-83495304D01*
X139664886Y-83692237D01*
X139414237Y-83942886D01*
X139374070Y-84003000D01*
X137309250Y-84003000D01*
X138457925Y-82854324D01*
X138634765Y-82889500D01*
X138989235Y-82889500D01*
X139336895Y-82820346D01*
X139664383Y-82684696D01*
X139959114Y-82487763D01*
X140209763Y-82237114D01*
X140406696Y-81942383D01*
X140542346Y-81614895D01*
X140611500Y-81267235D01*
X140611500Y-80912765D01*
X141012500Y-80912765D01*
X141012500Y-81267235D01*
X141081654Y-81614895D01*
X141217304Y-81942383D01*
X141414237Y-82237114D01*
X141664886Y-82487763D01*
X141959617Y-82684696D01*
X142287105Y-82820346D01*
X142634765Y-82889500D01*
X142989235Y-82889500D01*
X143336895Y-82820346D01*
X143664383Y-82684696D01*
X143959114Y-82487763D01*
X144209763Y-82237114D01*
X144406696Y-81942383D01*
X144542346Y-81614895D01*
X144611500Y-81267235D01*
X144611500Y-80912765D01*
X145012500Y-80912765D01*
X145012500Y-81267235D01*
X145081654Y-81614895D01*
X145217304Y-81942383D01*
X145414237Y-82237114D01*
X145664886Y-82487763D01*
X145959617Y-82684696D01*
X146287105Y-82820346D01*
X146634765Y-82889500D01*
X146989235Y-82889500D01*
X147336895Y-82820346D01*
X147664383Y-82684696D01*
X147959114Y-82487763D01*
X147998749Y-82448128D01*
X149633477Y-82448128D01*
X149766919Y-82744496D01*
X150109776Y-82916590D01*
X150479620Y-83018490D01*
X150862236Y-83046279D01*
X151242921Y-82998889D01*
X151607048Y-82878142D01*
X151857081Y-82744496D01*
X151990523Y-82448128D01*
X151944895Y-82402500D01*
X152861428Y-82402500D01*
X152873688Y-82526982D01*
X152909998Y-82646680D01*
X152968963Y-82756994D01*
X153048315Y-82853685D01*
X153145006Y-82933037D01*
X153255320Y-82992002D01*
X153375018Y-83028312D01*
X153499500Y-83040572D01*
X154526250Y-83037500D01*
X154685000Y-82878750D01*
X154685000Y-81217000D01*
X154939000Y-81217000D01*
X154939000Y-82878750D01*
X155097750Y-83037500D01*
X156124500Y-83040572D01*
X156248982Y-83028312D01*
X156368680Y-82992002D01*
X156478994Y-82933037D01*
X156575685Y-82853685D01*
X156655037Y-82756994D01*
X156714002Y-82646680D01*
X156750312Y-82526982D01*
X156762572Y-82402500D01*
X156759500Y-81375750D01*
X156600750Y-81217000D01*
X154939000Y-81217000D01*
X154685000Y-81217000D01*
X153023250Y-81217000D01*
X152864500Y-81375750D01*
X152861428Y-82402500D01*
X151944895Y-82402500D01*
X150812000Y-81269605D01*
X149633477Y-82448128D01*
X147998749Y-82448128D01*
X148209763Y-82237114D01*
X148406696Y-81942383D01*
X148542346Y-81614895D01*
X148611500Y-81267235D01*
X148611500Y-81140236D01*
X148855721Y-81140236D01*
X148903111Y-81520921D01*
X149023858Y-81885048D01*
X149157504Y-82135081D01*
X149453872Y-82268523D01*
X150632395Y-81090000D01*
X150991605Y-81090000D01*
X152170128Y-82268523D01*
X152466496Y-82135081D01*
X152638590Y-81792224D01*
X152740490Y-81422380D01*
X152768279Y-81039764D01*
X152720889Y-80659079D01*
X152600142Y-80294952D01*
X152466496Y-80044919D01*
X152170128Y-79911477D01*
X150991605Y-81090000D01*
X150632395Y-81090000D01*
X149453872Y-79911477D01*
X149157504Y-80044919D01*
X148985410Y-80387776D01*
X148883510Y-80757620D01*
X148855721Y-81140236D01*
X148611500Y-81140236D01*
X148611500Y-80912765D01*
X148542346Y-80565105D01*
X148406696Y-80237617D01*
X148209763Y-79942886D01*
X147998749Y-79731872D01*
X149633477Y-79731872D01*
X150812000Y-80910395D01*
X151944895Y-79777500D01*
X152861428Y-79777500D01*
X152864500Y-80804250D01*
X153023250Y-80963000D01*
X154685000Y-80963000D01*
X154685000Y-79301250D01*
X154939000Y-79301250D01*
X154939000Y-80963000D01*
X156600750Y-80963000D01*
X156759500Y-80804250D01*
X156762572Y-79777500D01*
X156750312Y-79653018D01*
X156714002Y-79533320D01*
X156655037Y-79423006D01*
X156575685Y-79326315D01*
X156478994Y-79246963D01*
X156368680Y-79187998D01*
X156248982Y-79151688D01*
X156124500Y-79139428D01*
X155097750Y-79142500D01*
X154939000Y-79301250D01*
X154685000Y-79301250D01*
X154526250Y-79142500D01*
X153499500Y-79139428D01*
X153375018Y-79151688D01*
X153255320Y-79187998D01*
X153145006Y-79246963D01*
X153048315Y-79326315D01*
X152968963Y-79423006D01*
X152909998Y-79533320D01*
X152873688Y-79653018D01*
X152861428Y-79777500D01*
X151944895Y-79777500D01*
X151990523Y-79731872D01*
X151857081Y-79435504D01*
X151514224Y-79263410D01*
X151144380Y-79161510D01*
X150761764Y-79133721D01*
X150381079Y-79181111D01*
X150016952Y-79301858D01*
X149766919Y-79435504D01*
X149633477Y-79731872D01*
X147998749Y-79731872D01*
X147959114Y-79692237D01*
X147664383Y-79495304D01*
X147336895Y-79359654D01*
X146989235Y-79290500D01*
X146634765Y-79290500D01*
X146287105Y-79359654D01*
X145959617Y-79495304D01*
X145664886Y-79692237D01*
X145414237Y-79942886D01*
X145217304Y-80237617D01*
X145081654Y-80565105D01*
X145012500Y-80912765D01*
X144611500Y-80912765D01*
X144542346Y-80565105D01*
X144406696Y-80237617D01*
X144209763Y-79942886D01*
X143959114Y-79692237D01*
X143664383Y-79495304D01*
X143336895Y-79359654D01*
X142989235Y-79290500D01*
X142634765Y-79290500D01*
X142287105Y-79359654D01*
X141959617Y-79495304D01*
X141664886Y-79692237D01*
X141414237Y-79942886D01*
X141217304Y-80237617D01*
X141081654Y-80565105D01*
X141012500Y-80912765D01*
X140611500Y-80912765D01*
X140542346Y-80565105D01*
X140406696Y-80237617D01*
X140209763Y-79942886D01*
X139959114Y-79692237D01*
X139664383Y-79495304D01*
X139336895Y-79359654D01*
X138989235Y-79290500D01*
X138634765Y-79290500D01*
X138287105Y-79359654D01*
X137959617Y-79495304D01*
X137664886Y-79692237D01*
X137414237Y-79942886D01*
X137217304Y-80237617D01*
X137081654Y-80565105D01*
X137012500Y-80912765D01*
X137012500Y-81225250D01*
X132362125Y-85875626D01*
X132320647Y-85909666D01*
X132286608Y-85951143D01*
X132184810Y-86075183D01*
X132083875Y-86264021D01*
X132021719Y-86468922D01*
X132000731Y-86682010D01*
X132005991Y-86735414D01*
X132005990Y-98993760D01*
X124364135Y-106635616D01*
X124322657Y-106669656D01*
X124288618Y-106711133D01*
X124186820Y-106835173D01*
X124129172Y-106943026D01*
X124085885Y-107024011D01*
X124029675Y-107209312D01*
X124023729Y-107228912D01*
X124002741Y-107442000D01*
X124008001Y-107495404D01*
X124008000Y-110520471D01*
X123953616Y-110651765D01*
X123908000Y-110881091D01*
X123908000Y-111114909D01*
X123953616Y-111344235D01*
X124043095Y-111560255D01*
X124172997Y-111754668D01*
X124338332Y-111920003D01*
X124532745Y-112049905D01*
X124748765Y-112139384D01*
X124978091Y-112185000D01*
X125211909Y-112185000D01*
X125441235Y-112139384D01*
X125657255Y-112049905D01*
X125851668Y-111920003D01*
X126017003Y-111754668D01*
X126146905Y-111560255D01*
X126236384Y-111344235D01*
X126282000Y-111114909D01*
X126282000Y-110881091D01*
X126236384Y-110651765D01*
X126182000Y-110520471D01*
X126182000Y-107892249D01*
X133406001Y-100668249D01*
X133406001Y-102412120D01*
X133277255Y-102326095D01*
X133061235Y-102236616D01*
X132831909Y-102191000D01*
X132598091Y-102191000D01*
X132368765Y-102236616D01*
X132152745Y-102326095D01*
X131958332Y-102455997D01*
X131792997Y-102621332D01*
X131663095Y-102815745D01*
X131573616Y-103031765D01*
X131528000Y-103261091D01*
X131528000Y-103494909D01*
X131573616Y-103724235D01*
X131663095Y-103940255D01*
X131792997Y-104134668D01*
X131958332Y-104300003D01*
X132152745Y-104429905D01*
X132368765Y-104519384D01*
X132598091Y-104565000D01*
X132831909Y-104565000D01*
X133061235Y-104519384D01*
X133277255Y-104429905D01*
X133406001Y-104343880D01*
X133406001Y-108751362D01*
X133402226Y-108750990D01*
X133402215Y-108750990D01*
X133369461Y-108747764D01*
X133336707Y-108750990D01*
X131152764Y-108750990D01*
X131120009Y-108747764D01*
X131087255Y-108750990D01*
X131087245Y-108750990D01*
X130989255Y-108760641D01*
X130863525Y-108798781D01*
X130813858Y-108825329D01*
X130747651Y-108860717D01*
X130671537Y-108923182D01*
X130671533Y-108923186D01*
X130646088Y-108944068D01*
X130625205Y-108969514D01*
X129737720Y-109857000D01*
X129706638Y-109857000D01*
X129535272Y-109891087D01*
X129373848Y-109957951D01*
X129228570Y-110055022D01*
X129105022Y-110178570D01*
X129007951Y-110323848D01*
X128941087Y-110485272D01*
X128907000Y-110656638D01*
X128907000Y-110831362D01*
X128941087Y-111002728D01*
X129007951Y-111164152D01*
X129105022Y-111309430D01*
X129228570Y-111432978D01*
X129373848Y-111530049D01*
X129535272Y-111596913D01*
X129706638Y-111631000D01*
X129881362Y-111631000D01*
X130052728Y-111596913D01*
X130214152Y-111530049D01*
X130359430Y-111432978D01*
X130482978Y-111309430D01*
X130580049Y-111164152D01*
X130646913Y-111002728D01*
X130681000Y-110831362D01*
X130681000Y-110800280D01*
X131168263Y-110313017D01*
X131148875Y-110349290D01*
X131052410Y-110667290D01*
X131028000Y-110915130D01*
X131028000Y-111668128D01*
X131019838Y-111750998D01*
X131028380Y-111837727D01*
X131052410Y-112081707D01*
X131148875Y-112399707D01*
X131305524Y-112692779D01*
X131516339Y-112949659D01*
X131580715Y-113002491D01*
X133690512Y-115112289D01*
X133743340Y-115176660D01*
X134000219Y-115387475D01*
X134293291Y-115544124D01*
X134608449Y-115639727D01*
X134611291Y-115640589D01*
X134942000Y-115673161D01*
X135024870Y-115664999D01*
X135284272Y-115664999D01*
X135256616Y-115731765D01*
X135211000Y-115961091D01*
X135211000Y-116194909D01*
X135256616Y-116424235D01*
X135346095Y-116640255D01*
X135475997Y-116834668D01*
X135641332Y-117000003D01*
X135835745Y-117129905D01*
X136051765Y-117219384D01*
X136281091Y-117265000D01*
X136514909Y-117265000D01*
X136744235Y-117219384D01*
X136960255Y-117129905D01*
X137154668Y-117000003D01*
X137320003Y-116834668D01*
X137449905Y-116640255D01*
X137539384Y-116424235D01*
X137585000Y-116194909D01*
X137585000Y-116120829D01*
X142331000Y-120866829D01*
X142331000Y-121240869D01*
X142355410Y-121488709D01*
X142451875Y-121806709D01*
X142593146Y-122071010D01*
X137163661Y-122071010D01*
X137320003Y-121914668D01*
X137449905Y-121720255D01*
X137539384Y-121504235D01*
X137585000Y-121274909D01*
X137585000Y-121041091D01*
X137539384Y-120811765D01*
X137449905Y-120595745D01*
X137320003Y-120401332D01*
X137154668Y-120235997D01*
X136960255Y-120106095D01*
X136744235Y-120016616D01*
X136514909Y-119971000D01*
X136281091Y-119971000D01*
X136051765Y-120016616D01*
X135835745Y-120106095D01*
X135641332Y-120235997D01*
X135475997Y-120401332D01*
X135346095Y-120595745D01*
X135256616Y-120811765D01*
X135211000Y-121041091D01*
X135211000Y-121059720D01*
X132078000Y-117926721D01*
X132078000Y-117895638D01*
X132043913Y-117724272D01*
X131977049Y-117562848D01*
X131879978Y-117417570D01*
X131756430Y-117294022D01*
X131611152Y-117196951D01*
X131449728Y-117130087D01*
X131278362Y-117096000D01*
X131103638Y-117096000D01*
X130932272Y-117130087D01*
X130770848Y-117196951D01*
X130625570Y-117294022D01*
X130502022Y-117417570D01*
X130404951Y-117562848D01*
X130338087Y-117724272D01*
X130304000Y-117895638D01*
X130304000Y-118070362D01*
X130338087Y-118241728D01*
X130404951Y-118403152D01*
X130502022Y-118548430D01*
X130625570Y-118671978D01*
X130770848Y-118769049D01*
X130932272Y-118835913D01*
X131103638Y-118870000D01*
X131134721Y-118870000D01*
X132306944Y-120042223D01*
X132152745Y-120106095D01*
X131958332Y-120235997D01*
X131792997Y-120401332D01*
X131663095Y-120595745D01*
X131573616Y-120811765D01*
X131528000Y-121041091D01*
X131528000Y-121274909D01*
X131573616Y-121504235D01*
X131663095Y-121720255D01*
X131792997Y-121914668D01*
X131958332Y-122080003D01*
X132152745Y-122209905D01*
X132368765Y-122299384D01*
X132598091Y-122345000D01*
X132831909Y-122345000D01*
X133061235Y-122299384D01*
X133277255Y-122209905D01*
X133471668Y-122080003D01*
X133637003Y-121914668D01*
X133766905Y-121720255D01*
X133830777Y-121566056D01*
X135451201Y-123186481D01*
X135472088Y-123211932D01*
X135573652Y-123295283D01*
X135689525Y-123357219D01*
X135815255Y-123395359D01*
X135913245Y-123405010D01*
X135913248Y-123405010D01*
X135946010Y-123408237D01*
X135978772Y-123405010D01*
X144459701Y-123405010D01*
X144374951Y-123531848D01*
X144308087Y-123693272D01*
X144274000Y-123864638D01*
X144274000Y-124039362D01*
X144308087Y-124210728D01*
X144374951Y-124372152D01*
X144472022Y-124517430D01*
X144595570Y-124640978D01*
X144740848Y-124738049D01*
X144902272Y-124804913D01*
X145073638Y-124839000D01*
X145178592Y-124839000D01*
X145107022Y-124910570D01*
X145009951Y-125055848D01*
X144943087Y-125217272D01*
X144909000Y-125388638D01*
X144909000Y-125563362D01*
X144943087Y-125734728D01*
X145009951Y-125896152D01*
X145107022Y-126041430D01*
X145230570Y-126164978D01*
X145375848Y-126262049D01*
X145537272Y-126328913D01*
X145708638Y-126363000D01*
X145883362Y-126363000D01*
X145935339Y-126352661D01*
X145925000Y-126404638D01*
X145925000Y-126579362D01*
X145959087Y-126750728D01*
X146025951Y-126912152D01*
X146123022Y-127057430D01*
X146246570Y-127180978D01*
X146391848Y-127278049D01*
X146553272Y-127344913D01*
X146724638Y-127379000D01*
X146899362Y-127379000D01*
X147070728Y-127344913D01*
X147232152Y-127278049D01*
X147377430Y-127180978D01*
X147500978Y-127057430D01*
X147598049Y-126912152D01*
X147664913Y-126750728D01*
X147699000Y-126579362D01*
X147699000Y-126470498D01*
X147700498Y-126469000D01*
X147876644Y-126469000D01*
X147876644Y-126657000D01*
X147886047Y-126752469D01*
X147913894Y-126844268D01*
X147959115Y-126928872D01*
X148019973Y-127003027D01*
X148067270Y-127041843D01*
X148008815Y-127089815D01*
X147929463Y-127186506D01*
X147870498Y-127296820D01*
X147834188Y-127416518D01*
X147821928Y-127541000D01*
X147825000Y-127730250D01*
X147983750Y-127889000D01*
X148870500Y-127889000D01*
X148870500Y-127869000D01*
X149124500Y-127869000D01*
X149124500Y-127889000D01*
X149144500Y-127889000D01*
X149144500Y-128143000D01*
X149124500Y-128143000D01*
X149124500Y-128163000D01*
X148870500Y-128163000D01*
X148870500Y-128143000D01*
X147983750Y-128143000D01*
X147825000Y-128301750D01*
X147821928Y-128491000D01*
X147834188Y-128615482D01*
X147870498Y-128735180D01*
X147929463Y-128845494D01*
X148008815Y-128942185D01*
X148105506Y-129021537D01*
X148117597Y-129028000D01*
X122432000Y-129028000D01*
X122432000Y-121041091D01*
X123908000Y-121041091D01*
X123908000Y-121274909D01*
X123953616Y-121504235D01*
X124008000Y-121635529D01*
X124008001Y-123739596D01*
X124002741Y-123793000D01*
X124020387Y-123972157D01*
X124023729Y-124006089D01*
X124050652Y-124094841D01*
X124085885Y-124210989D01*
X124186820Y-124399827D01*
X124233478Y-124456679D01*
X124322657Y-124565344D01*
X124364135Y-124599384D01*
X126974312Y-127209562D01*
X126976728Y-127234088D01*
X127038884Y-127438988D01*
X127139820Y-127627827D01*
X127275656Y-127793344D01*
X127441173Y-127929180D01*
X127630011Y-128030116D01*
X127834911Y-128092272D01*
X128048000Y-128113259D01*
X128261088Y-128092272D01*
X128465988Y-128030116D01*
X128654827Y-127929180D01*
X128820344Y-127793344D01*
X128832291Y-127778787D01*
X128858498Y-127865180D01*
X128917463Y-127975494D01*
X128996815Y-128072185D01*
X129093506Y-128151537D01*
X129203820Y-128210502D01*
X129323518Y-128246812D01*
X129448000Y-128259072D01*
X129762250Y-128256000D01*
X129921000Y-128097250D01*
X129921000Y-126873000D01*
X130175000Y-126873000D01*
X130175000Y-128097250D01*
X130333750Y-128256000D01*
X130648000Y-128259072D01*
X130772482Y-128246812D01*
X130892180Y-128210502D01*
X131002494Y-128151537D01*
X131099185Y-128072185D01*
X131178537Y-127975494D01*
X131237502Y-127865180D01*
X131273812Y-127745482D01*
X131286072Y-127621000D01*
X131283000Y-127031750D01*
X131124250Y-126873000D01*
X130175000Y-126873000D01*
X129921000Y-126873000D01*
X129901000Y-126873000D01*
X129901000Y-126619000D01*
X129921000Y-126619000D01*
X129921000Y-125394750D01*
X130175000Y-125394750D01*
X130175000Y-126619000D01*
X131124250Y-126619000D01*
X131283000Y-126460250D01*
X131283222Y-126417603D01*
X138010000Y-126417603D01*
X138010000Y-127074396D01*
X138025728Y-127234088D01*
X138087884Y-127438988D01*
X138188820Y-127627827D01*
X138324656Y-127793344D01*
X138490173Y-127929180D01*
X138679011Y-128030116D01*
X138883911Y-128092272D01*
X139097000Y-128113259D01*
X139310088Y-128092272D01*
X139514988Y-128030116D01*
X139703827Y-127929180D01*
X139869344Y-127793344D01*
X140005180Y-127627827D01*
X140037602Y-127567169D01*
X140063924Y-127653940D01*
X140132248Y-127781765D01*
X140224196Y-127893804D01*
X140336235Y-127985752D01*
X140464060Y-128054076D01*
X140602758Y-128096150D01*
X140746999Y-128110356D01*
X141447001Y-128110356D01*
X141591242Y-128096150D01*
X141729940Y-128054076D01*
X141857765Y-127985752D01*
X141969804Y-127893804D01*
X142061752Y-127781765D01*
X142130076Y-127653940D01*
X142172150Y-127515242D01*
X142186356Y-127371001D01*
X142186356Y-126120999D01*
X142172150Y-125976758D01*
X142130076Y-125838060D01*
X142061752Y-125710235D01*
X141969804Y-125598196D01*
X141857765Y-125506248D01*
X141729940Y-125437924D01*
X141591242Y-125395850D01*
X141447001Y-125381644D01*
X140746999Y-125381644D01*
X140602758Y-125395850D01*
X140464060Y-125437924D01*
X140336235Y-125506248D01*
X140224196Y-125598196D01*
X140132248Y-125710235D01*
X140063924Y-125838060D01*
X140037602Y-125924831D01*
X140005180Y-125864173D01*
X139869344Y-125698656D01*
X139703827Y-125562820D01*
X139514989Y-125461884D01*
X139310089Y-125399728D01*
X139097000Y-125378741D01*
X138883912Y-125399728D01*
X138679012Y-125461884D01*
X138490174Y-125562820D01*
X138324657Y-125698656D01*
X138188821Y-125864173D01*
X138087885Y-126053011D01*
X138025728Y-126257911D01*
X138010000Y-126417603D01*
X131283222Y-126417603D01*
X131286072Y-125871000D01*
X131273812Y-125746518D01*
X131237502Y-125626820D01*
X131178537Y-125516506D01*
X131099185Y-125419815D01*
X131002494Y-125340463D01*
X130892180Y-125281498D01*
X130772482Y-125245188D01*
X130648000Y-125232928D01*
X130333750Y-125236000D01*
X130175000Y-125394750D01*
X129921000Y-125394750D01*
X129762250Y-125236000D01*
X129448000Y-125232928D01*
X129323518Y-125245188D01*
X129203820Y-125281498D01*
X129093506Y-125340463D01*
X128996815Y-125419815D01*
X128917463Y-125516506D01*
X128858498Y-125626820D01*
X128832291Y-125713213D01*
X128820344Y-125698656D01*
X128654827Y-125562820D01*
X128465989Y-125461884D01*
X128261089Y-125399728D01*
X128236562Y-125397312D01*
X126182000Y-123342751D01*
X126182000Y-121635529D01*
X126236384Y-121504235D01*
X126282000Y-121274909D01*
X126282000Y-121041091D01*
X126236384Y-120811765D01*
X126146905Y-120595745D01*
X126017003Y-120401332D01*
X125851668Y-120235997D01*
X125657255Y-120106095D01*
X125441235Y-120016616D01*
X125211909Y-119971000D01*
X124978091Y-119971000D01*
X124748765Y-120016616D01*
X124532745Y-120106095D01*
X124338332Y-120235997D01*
X124172997Y-120401332D01*
X124043095Y-120595745D01*
X123953616Y-120811765D01*
X123908000Y-121041091D01*
X122432000Y-121041091D01*
X122432000Y-115961091D01*
X123908000Y-115961091D01*
X123908000Y-116194909D01*
X123953616Y-116424235D01*
X124043095Y-116640255D01*
X124172997Y-116834668D01*
X124338332Y-117000003D01*
X124532745Y-117129905D01*
X124748765Y-117219384D01*
X124978091Y-117265000D01*
X125211909Y-117265000D01*
X125441235Y-117219384D01*
X125657255Y-117129905D01*
X125851668Y-117000003D01*
X126017003Y-116834668D01*
X126146905Y-116640255D01*
X126236384Y-116424235D01*
X126282000Y-116194909D01*
X126282000Y-115961091D01*
X131528000Y-115961091D01*
X131528000Y-116194909D01*
X131573616Y-116424235D01*
X131663095Y-116640255D01*
X131792997Y-116834668D01*
X131958332Y-117000003D01*
X132152745Y-117129905D01*
X132368765Y-117219384D01*
X132598091Y-117265000D01*
X132831909Y-117265000D01*
X133061235Y-117219384D01*
X133277255Y-117129905D01*
X133471668Y-117000003D01*
X133637003Y-116834668D01*
X133766905Y-116640255D01*
X133856384Y-116424235D01*
X133902000Y-116194909D01*
X133902000Y-115961091D01*
X133856384Y-115731765D01*
X133766905Y-115515745D01*
X133637003Y-115321332D01*
X133471668Y-115155997D01*
X133277255Y-115026095D01*
X133061235Y-114936616D01*
X132831909Y-114891000D01*
X132598091Y-114891000D01*
X132368765Y-114936616D01*
X132152745Y-115026095D01*
X131958332Y-115155997D01*
X131792997Y-115321332D01*
X131663095Y-115515745D01*
X131573616Y-115731765D01*
X131528000Y-115961091D01*
X126282000Y-115961091D01*
X126236384Y-115731765D01*
X126146905Y-115515745D01*
X126017003Y-115321332D01*
X125851668Y-115155997D01*
X125657255Y-115026095D01*
X125441235Y-114936616D01*
X125211909Y-114891000D01*
X124978091Y-114891000D01*
X124748765Y-114936616D01*
X124532745Y-115026095D01*
X124338332Y-115155997D01*
X124172997Y-115321332D01*
X124043095Y-115515745D01*
X123953616Y-115731765D01*
X123908000Y-115961091D01*
X122432000Y-115961091D01*
X122432000Y-102678000D01*
X123905644Y-102678000D01*
X123905644Y-104078000D01*
X123915047Y-104173469D01*
X123942894Y-104265268D01*
X123988115Y-104349872D01*
X124048973Y-104424027D01*
X124123128Y-104484885D01*
X124207732Y-104530106D01*
X124299531Y-104557953D01*
X124395000Y-104567356D01*
X125795000Y-104567356D01*
X125890469Y-104557953D01*
X125982268Y-104530106D01*
X126066872Y-104484885D01*
X126141027Y-104424027D01*
X126201885Y-104349872D01*
X126247106Y-104265268D01*
X126274953Y-104173469D01*
X126284356Y-104078000D01*
X126284356Y-102678000D01*
X126274953Y-102582531D01*
X126247106Y-102490732D01*
X126201885Y-102406128D01*
X126141027Y-102331973D01*
X126066872Y-102271115D01*
X125982268Y-102225894D01*
X125890469Y-102198047D01*
X125795000Y-102188644D01*
X124395000Y-102188644D01*
X124299531Y-102198047D01*
X124207732Y-102225894D01*
X124123128Y-102271115D01*
X124048973Y-102331973D01*
X123988115Y-102406128D01*
X123942894Y-102490732D01*
X123915047Y-102582531D01*
X123905644Y-102678000D01*
X122432000Y-102678000D01*
X122432000Y-92243543D01*
X126125000Y-92243543D01*
X126125000Y-92536457D01*
X126182145Y-92823742D01*
X126294238Y-93094359D01*
X126456972Y-93337907D01*
X126664093Y-93545028D01*
X126907641Y-93707762D01*
X127178258Y-93819855D01*
X127465543Y-93877000D01*
X127758457Y-93877000D01*
X128045742Y-93819855D01*
X128316359Y-93707762D01*
X128559907Y-93545028D01*
X128767028Y-93337907D01*
X128929762Y-93094359D01*
X129041855Y-92823742D01*
X129099000Y-92536457D01*
X129099000Y-92243543D01*
X129041855Y-91956258D01*
X128929762Y-91685641D01*
X128767028Y-91442093D01*
X128559907Y-91234972D01*
X128316359Y-91072238D01*
X128045742Y-90960145D01*
X127758457Y-90903000D01*
X127465543Y-90903000D01*
X127178258Y-90960145D01*
X126907641Y-91072238D01*
X126664093Y-91234972D01*
X126456972Y-91442093D01*
X126294238Y-91685641D01*
X126182145Y-91956258D01*
X126125000Y-92243543D01*
X122432000Y-92243543D01*
X122432000Y-74143543D01*
X127625000Y-74143543D01*
X127625000Y-74436457D01*
X127682145Y-74723742D01*
X127794238Y-74994359D01*
X127956972Y-75237907D01*
X128164093Y-75445028D01*
X128407641Y-75607762D01*
X128678258Y-75719855D01*
X128965543Y-75777000D01*
X129258457Y-75777000D01*
X129545742Y-75719855D01*
X129816359Y-75607762D01*
X130059907Y-75445028D01*
X130267028Y-75237907D01*
X130429762Y-74994359D01*
X130541855Y-74723742D01*
X130599000Y-74436457D01*
X130599000Y-74143543D01*
X163025000Y-74143543D01*
X163025000Y-74436457D01*
X163082145Y-74723742D01*
X163194238Y-74994359D01*
X163356972Y-75237907D01*
X163564093Y-75445028D01*
X163807641Y-75607762D01*
X164078258Y-75719855D01*
X164365543Y-75777000D01*
X164658457Y-75777000D01*
X164945742Y-75719855D01*
X165216359Y-75607762D01*
X165459907Y-75445028D01*
X165667028Y-75237907D01*
X165829762Y-74994359D01*
X165941855Y-74723742D01*
X165999000Y-74436457D01*
X165999000Y-74143543D01*
X165941855Y-73856258D01*
X165829762Y-73585641D01*
X165667028Y-73342093D01*
X165459907Y-73134972D01*
X165216359Y-72972238D01*
X164945742Y-72860145D01*
X164658457Y-72803000D01*
X164365543Y-72803000D01*
X164078258Y-72860145D01*
X163807641Y-72972238D01*
X163564093Y-73134972D01*
X163356972Y-73342093D01*
X163194238Y-73585641D01*
X163082145Y-73856258D01*
X163025000Y-74143543D01*
X130599000Y-74143543D01*
X130541855Y-73856258D01*
X130429762Y-73585641D01*
X130267028Y-73342093D01*
X130059907Y-73134972D01*
X129816359Y-72972238D01*
X129545742Y-72860145D01*
X129258457Y-72803000D01*
X128965543Y-72803000D01*
X128678258Y-72860145D01*
X128407641Y-72972238D01*
X128164093Y-73134972D01*
X127956972Y-73342093D01*
X127794238Y-73585641D01*
X127682145Y-73856258D01*
X127625000Y-74143543D01*
X122432000Y-74143543D01*
X122432000Y-70362000D01*
X170938001Y-70362000D01*
X170938000Y-72364852D01*
%TA.AperFunction,Conductor*%
D28*
G36*
X170938000Y-72364852D02*
G01*
X170938000Y-72364853D01*
X170938001Y-129028000D01*
X149877403Y-129028000D01*
X149889494Y-129021537D01*
X149986185Y-128942185D01*
X150044196Y-128871498D01*
X150144344Y-128925027D01*
X150280697Y-128966390D01*
X150422500Y-128980356D01*
X151022500Y-128980356D01*
X151164303Y-128966390D01*
X151300656Y-128925027D01*
X151426320Y-128857859D01*
X151536465Y-128767465D01*
X151626859Y-128657320D01*
X151694027Y-128531656D01*
X151735390Y-128395303D01*
X151749356Y-128253500D01*
X151749356Y-127778500D01*
X151735390Y-127636697D01*
X151694027Y-127500344D01*
X151653000Y-127423587D01*
X151653000Y-127194250D01*
X151714000Y-127133250D01*
X151714000Y-126939698D01*
X151722885Y-126928872D01*
X151768106Y-126844268D01*
X151795953Y-126752469D01*
X151805356Y-126657000D01*
X151805356Y-125057000D01*
X151795953Y-124961531D01*
X151768106Y-124869732D01*
X151722885Y-124785128D01*
X151714000Y-124774302D01*
X151714000Y-124580750D01*
X151555250Y-124422000D01*
X151438510Y-124431794D01*
X151318988Y-124468680D01*
X151208959Y-124528174D01*
X151161333Y-124567644D01*
X150766000Y-124567644D01*
X150670531Y-124577047D01*
X150641000Y-124586005D01*
X150611469Y-124577047D01*
X150516000Y-124567644D01*
X150218000Y-124567644D01*
X150218000Y-122562408D01*
X150294978Y-122485430D01*
X150392049Y-122340152D01*
X150458913Y-122178728D01*
X150493000Y-122007362D01*
X150493000Y-121898498D01*
X150652493Y-121739005D01*
X150675843Y-121719843D01*
X150695005Y-121696494D01*
X150695008Y-121696491D01*
X150752321Y-121626654D01*
X150778142Y-121578346D01*
X150809150Y-121520335D01*
X150844145Y-121404973D01*
X150853000Y-121315064D01*
X150853000Y-121315062D01*
X150855961Y-121285000D01*
X150853000Y-121254938D01*
X150853000Y-119611990D01*
X150863053Y-119611000D01*
X151226946Y-119611000D01*
X151257000Y-119613960D01*
X151287054Y-119611000D01*
X151287064Y-119611000D01*
X151376973Y-119602145D01*
X151492335Y-119567150D01*
X151598654Y-119510321D01*
X151691843Y-119433843D01*
X151711013Y-119410484D01*
X152252495Y-118869004D01*
X152275843Y-118849843D01*
X152295005Y-118826494D01*
X152295008Y-118826491D01*
X152325371Y-118789493D01*
X152355250Y-118792000D01*
X152514000Y-118633250D01*
X152514000Y-118439698D01*
X152522885Y-118428872D01*
X152568106Y-118344268D01*
X152595953Y-118252469D01*
X152605356Y-118157000D01*
X152605356Y-116557000D01*
X152595953Y-116461531D01*
X152568106Y-116369732D01*
X152522885Y-116285128D01*
X152514000Y-116274302D01*
X152514000Y-116080750D01*
X152355250Y-115922000D01*
X152238510Y-115931794D01*
X152118988Y-115968680D01*
X152008959Y-116028174D01*
X151961333Y-116067644D01*
X151720667Y-116067644D01*
X151673041Y-116028174D01*
X151563012Y-115968680D01*
X151443490Y-115931794D01*
X151326750Y-115922000D01*
X151168000Y-116080750D01*
X151168000Y-116274302D01*
X151159115Y-116285128D01*
X151113894Y-116369732D01*
X151086047Y-116461531D01*
X151076644Y-116557000D01*
X151076644Y-117504000D01*
X151005356Y-117504000D01*
X151005356Y-116557000D01*
X150995953Y-116461531D01*
X150968106Y-116369732D01*
X150922885Y-116285128D01*
X150914000Y-116274302D01*
X150914000Y-116080750D01*
X150755250Y-115922000D01*
X150715926Y-115925299D01*
X150714922Y-115924076D01*
X150689471Y-115903189D01*
X148864281Y-114078000D01*
X151178721Y-114078000D01*
X153031509Y-115930789D01*
X152926750Y-115922000D01*
X152768000Y-116080750D01*
X152768000Y-116274302D01*
X152759115Y-116285128D01*
X152713894Y-116369732D01*
X152686047Y-116461531D01*
X152676644Y-116557000D01*
X152676644Y-118157000D01*
X152686047Y-118252469D01*
X152713894Y-118344268D01*
X152759115Y-118428872D01*
X152768000Y-118439698D01*
X152768000Y-118633250D01*
X152926750Y-118792000D01*
X153043490Y-118782206D01*
X153163012Y-118745320D01*
X153273041Y-118685826D01*
X153320667Y-118646356D01*
X153716000Y-118646356D01*
X153811469Y-118636953D01*
X153841000Y-118627995D01*
X153870531Y-118636953D01*
X153966000Y-118646356D01*
X154401644Y-118646356D01*
X154401644Y-119082000D01*
X154411047Y-119177469D01*
X154420005Y-119207000D01*
X154411047Y-119236531D01*
X154401644Y-119332000D01*
X154401644Y-119882000D01*
X154411047Y-119977469D01*
X154420005Y-120007000D01*
X154411047Y-120036531D01*
X154401644Y-120132000D01*
X154401644Y-120682000D01*
X154411047Y-120777469D01*
X154420005Y-120807000D01*
X154411047Y-120836531D01*
X154401644Y-120932000D01*
X154401644Y-121482000D01*
X154411047Y-121577469D01*
X154420005Y-121607000D01*
X154411047Y-121636531D01*
X154401644Y-121732000D01*
X154401644Y-122282000D01*
X154411047Y-122377469D01*
X154420005Y-122407000D01*
X154411047Y-122436531D01*
X154401644Y-122532000D01*
X154401644Y-123082000D01*
X154411047Y-123177469D01*
X154420005Y-123207000D01*
X154411047Y-123236531D01*
X154401644Y-123332000D01*
X154401644Y-123882000D01*
X154411047Y-123977469D01*
X154420005Y-124007000D01*
X154411047Y-124036531D01*
X154401644Y-124132000D01*
X154401644Y-124567644D01*
X153966000Y-124567644D01*
X153870531Y-124577047D01*
X153841000Y-124586005D01*
X153811469Y-124577047D01*
X153716000Y-124567644D01*
X153166000Y-124567644D01*
X153070531Y-124577047D01*
X153041000Y-124586005D01*
X153011469Y-124577047D01*
X152916000Y-124567644D01*
X152520667Y-124567644D01*
X152473041Y-124528174D01*
X152363012Y-124468680D01*
X152243490Y-124431794D01*
X152126750Y-124422000D01*
X151968000Y-124580750D01*
X151968000Y-124774302D01*
X151959115Y-124785128D01*
X151913894Y-124869732D01*
X151886047Y-124961531D01*
X151876644Y-125057000D01*
X151876644Y-126657000D01*
X151886047Y-126752469D01*
X151913894Y-126844268D01*
X151959115Y-126928872D01*
X151968000Y-126939698D01*
X151968000Y-127133250D01*
X152126750Y-127292000D01*
X152243490Y-127282206D01*
X152363012Y-127245320D01*
X152473041Y-127185826D01*
X152520667Y-127146356D01*
X152916000Y-127146356D01*
X153011469Y-127136953D01*
X153041000Y-127127995D01*
X153070531Y-127136953D01*
X153166000Y-127146356D01*
X153716000Y-127146356D01*
X153811469Y-127136953D01*
X153841000Y-127127995D01*
X153870531Y-127136953D01*
X153966000Y-127146356D01*
X154516000Y-127146356D01*
X154611469Y-127136953D01*
X154703268Y-127109106D01*
X154787872Y-127063885D01*
X154862027Y-127003027D01*
X154922885Y-126928872D01*
X154968106Y-126844268D01*
X154995953Y-126752469D01*
X155005356Y-126657000D01*
X155005356Y-125171356D01*
X156491000Y-125171356D01*
X156586469Y-125161953D01*
X156678268Y-125134106D01*
X156762872Y-125088885D01*
X156837027Y-125028027D01*
X156897885Y-124953872D01*
X156943106Y-124869268D01*
X156970953Y-124777469D01*
X156980356Y-124682000D01*
X156980356Y-124132000D01*
X156970953Y-124036531D01*
X156961995Y-124007000D01*
X156970953Y-123977469D01*
X156980356Y-123882000D01*
X156980356Y-123332000D01*
X156970953Y-123236531D01*
X156961995Y-123207000D01*
X156970953Y-123177469D01*
X156980356Y-123082000D01*
X156980356Y-122532000D01*
X156977062Y-122498558D01*
X158392000Y-123913496D01*
X158392001Y-124937936D01*
X158389040Y-124968000D01*
X158392001Y-124998064D01*
X158400856Y-125087973D01*
X158414923Y-125134346D01*
X158435851Y-125203335D01*
X158492679Y-125309654D01*
X158538431Y-125365402D01*
X158569158Y-125402843D01*
X158592512Y-125422009D01*
X160200995Y-127030494D01*
X160220157Y-127053843D01*
X160243506Y-127073005D01*
X160243509Y-127073008D01*
X160283723Y-127106010D01*
X160313346Y-127130321D01*
X160419665Y-127187150D01*
X160535027Y-127222145D01*
X160624936Y-127231000D01*
X160624938Y-127231000D01*
X160655000Y-127233961D01*
X160685062Y-127231000D01*
X164942946Y-127231000D01*
X164973000Y-127233960D01*
X165003054Y-127231000D01*
X165003064Y-127231000D01*
X165092973Y-127222145D01*
X165208335Y-127187150D01*
X165314654Y-127130321D01*
X165407843Y-127053843D01*
X165427014Y-127030483D01*
X166212704Y-126244794D01*
X166234012Y-126253620D01*
X166492317Y-126305000D01*
X166755683Y-126305000D01*
X167013988Y-126253620D01*
X167257307Y-126152834D01*
X167476288Y-126006516D01*
X167662516Y-125820288D01*
X167808834Y-125601307D01*
X167909620Y-125357988D01*
X167961000Y-125099683D01*
X167961000Y-124836317D01*
X167909620Y-124578012D01*
X167808834Y-124334693D01*
X167662516Y-124115712D01*
X167476288Y-123929484D01*
X167257307Y-123783166D01*
X167234979Y-123773917D01*
X167390920Y-123699641D01*
X167624269Y-123525588D01*
X167819178Y-123309355D01*
X167968157Y-123059252D01*
X168065481Y-122784891D01*
X167944814Y-122555000D01*
X166751000Y-122555000D01*
X166751000Y-122575000D01*
X166497000Y-122575000D01*
X166497000Y-122555000D01*
X166477000Y-122555000D01*
X166477000Y-122301000D01*
X166497000Y-122301000D01*
X166497000Y-121107845D01*
X166751000Y-121107845D01*
X166751000Y-122301000D01*
X167944814Y-122301000D01*
X168065481Y-122071109D01*
X167968157Y-121796748D01*
X167819178Y-121546645D01*
X167624269Y-121330412D01*
X167390920Y-121156359D01*
X167128099Y-121031175D01*
X166980890Y-120986524D01*
X166751000Y-121107845D01*
X166497000Y-121107845D01*
X166267110Y-120986524D01*
X166119901Y-121031175D01*
X166060999Y-121059231D01*
X166060999Y-116731061D01*
X166063960Y-116700999D01*
X166062018Y-116681285D01*
X167275108Y-117894374D01*
X167268644Y-117960000D01*
X167268644Y-118260000D01*
X167280929Y-118384732D01*
X167317312Y-118504671D01*
X167376395Y-118615207D01*
X167455907Y-118712093D01*
X167552793Y-118791605D01*
X167663329Y-118850688D01*
X167783268Y-118887071D01*
X167908000Y-118899356D01*
X169658000Y-118899356D01*
X169782732Y-118887071D01*
X169902671Y-118850688D01*
X170013207Y-118791605D01*
X170110093Y-118712093D01*
X170189605Y-118615207D01*
X170248688Y-118504671D01*
X170285071Y-118384732D01*
X170297356Y-118260000D01*
X170297356Y-117960000D01*
X170285071Y-117835268D01*
X170248688Y-117715329D01*
X170189605Y-117604793D01*
X170110093Y-117507907D01*
X170069996Y-117475000D01*
X170110093Y-117442093D01*
X170189605Y-117345207D01*
X170248688Y-117234671D01*
X170285071Y-117114732D01*
X170297356Y-116990000D01*
X170297356Y-116690000D01*
X170285071Y-116565268D01*
X170248688Y-116445329D01*
X170189605Y-116334793D01*
X170110093Y-116237907D01*
X170069996Y-116205000D01*
X170110093Y-116172093D01*
X170189605Y-116075207D01*
X170248688Y-115964671D01*
X170285071Y-115844732D01*
X170297356Y-115720000D01*
X170297356Y-115420000D01*
X170285071Y-115295268D01*
X170248688Y-115175329D01*
X170189605Y-115064793D01*
X170110093Y-114967907D01*
X170069996Y-114935000D01*
X170110093Y-114902093D01*
X170189605Y-114805207D01*
X170248688Y-114694671D01*
X170285071Y-114574732D01*
X170297356Y-114450000D01*
X170297356Y-114150000D01*
X170285071Y-114025268D01*
X170248688Y-113905329D01*
X170189605Y-113794793D01*
X170110093Y-113697907D01*
X170069996Y-113665000D01*
X170110093Y-113632093D01*
X170189605Y-113535207D01*
X170248688Y-113424671D01*
X170285071Y-113304732D01*
X170297356Y-113180000D01*
X170297356Y-112880000D01*
X170285071Y-112755268D01*
X170248688Y-112635329D01*
X170189605Y-112524793D01*
X170110093Y-112427907D01*
X170069996Y-112395000D01*
X170110093Y-112362093D01*
X170189605Y-112265207D01*
X170248688Y-112154671D01*
X170285071Y-112034732D01*
X170297356Y-111910000D01*
X170297356Y-111610000D01*
X170285071Y-111485268D01*
X170248688Y-111365329D01*
X170189605Y-111254793D01*
X170110093Y-111157907D01*
X170069996Y-111125000D01*
X170110093Y-111092093D01*
X170189605Y-110995207D01*
X170248688Y-110884671D01*
X170285071Y-110764732D01*
X170297356Y-110640000D01*
X170297356Y-110340000D01*
X170285071Y-110215268D01*
X170248688Y-110095329D01*
X170189605Y-109984793D01*
X170110093Y-109887907D01*
X170069996Y-109855000D01*
X170110093Y-109822093D01*
X170189605Y-109725207D01*
X170248688Y-109614671D01*
X170285071Y-109494732D01*
X170297356Y-109370000D01*
X170297356Y-109070000D01*
X170285071Y-108945268D01*
X170248688Y-108825329D01*
X170205765Y-108745026D01*
X170259185Y-108701185D01*
X170338537Y-108604494D01*
X170397502Y-108494180D01*
X170433812Y-108374482D01*
X170446072Y-108250000D01*
X170443000Y-108235750D01*
X170284250Y-108077000D01*
X168910000Y-108077000D01*
X168910000Y-108097000D01*
X168656000Y-108097000D01*
X168656000Y-108077000D01*
X167281750Y-108077000D01*
X167123000Y-108235750D01*
X167122668Y-108237290D01*
X166965362Y-108206000D01*
X166790638Y-108206000D01*
X166619272Y-108240087D01*
X166474000Y-108300261D01*
X166474000Y-107650000D01*
X167119928Y-107650000D01*
X167123000Y-107664250D01*
X167281750Y-107823000D01*
X168656000Y-107823000D01*
X168656000Y-107173750D01*
X168910000Y-107173750D01*
X168910000Y-107823000D01*
X170284250Y-107823000D01*
X170443000Y-107664250D01*
X170446072Y-107650000D01*
X170433812Y-107525518D01*
X170397502Y-107405820D01*
X170338537Y-107295506D01*
X170259185Y-107198815D01*
X170162494Y-107119463D01*
X170052180Y-107060498D01*
X169932482Y-107024188D01*
X169808000Y-107011928D01*
X169068750Y-107015000D01*
X168910000Y-107173750D01*
X168656000Y-107173750D01*
X168497250Y-107015000D01*
X167758000Y-107011928D01*
X167633518Y-107024188D01*
X167513820Y-107060498D01*
X167403506Y-107119463D01*
X167306815Y-107198815D01*
X167227463Y-107295506D01*
X167168498Y-107405820D01*
X167132188Y-107525518D01*
X167119928Y-107650000D01*
X166474000Y-107650000D01*
X166474000Y-105913021D01*
X166543605Y-105828207D01*
X166602688Y-105717671D01*
X166639071Y-105597732D01*
X166651356Y-105473000D01*
X166651356Y-105005500D01*
X167542928Y-105005500D01*
X167555188Y-105129982D01*
X167591498Y-105249680D01*
X167650463Y-105359994D01*
X167729815Y-105456685D01*
X167826506Y-105536037D01*
X167936820Y-105595002D01*
X168056518Y-105631312D01*
X168181000Y-105643572D01*
X168370250Y-105640500D01*
X168529000Y-105481750D01*
X168529000Y-104595000D01*
X168783000Y-104595000D01*
X168783000Y-105481750D01*
X168941750Y-105640500D01*
X169131000Y-105643572D01*
X169255482Y-105631312D01*
X169375180Y-105595002D01*
X169485494Y-105536037D01*
X169582185Y-105456685D01*
X169661537Y-105359994D01*
X169720502Y-105249680D01*
X169756812Y-105129982D01*
X169769072Y-105005500D01*
X169766000Y-104753750D01*
X169607250Y-104595000D01*
X168783000Y-104595000D01*
X168529000Y-104595000D01*
X167704750Y-104595000D01*
X167546000Y-104753750D01*
X167542928Y-105005500D01*
X166651356Y-105005500D01*
X166651356Y-103823000D01*
X166639071Y-103698268D01*
X166602688Y-103578329D01*
X166543605Y-103467793D01*
X166464093Y-103370907D01*
X166444710Y-103355000D01*
X167765063Y-103355000D01*
X167800502Y-103421304D01*
X167729815Y-103479315D01*
X167650463Y-103576006D01*
X167591498Y-103686320D01*
X167555188Y-103806018D01*
X167542928Y-103930500D01*
X167546000Y-104182250D01*
X167704750Y-104341000D01*
X168529000Y-104341000D01*
X168529000Y-104321000D01*
X168783000Y-104321000D01*
X168783000Y-104341000D01*
X169607250Y-104341000D01*
X169766000Y-104182250D01*
X169769072Y-103930500D01*
X169756812Y-103806018D01*
X169720502Y-103686320D01*
X169661537Y-103576006D01*
X169582185Y-103479315D01*
X169511498Y-103421304D01*
X169565027Y-103321156D01*
X169606390Y-103184803D01*
X169620356Y-103043000D01*
X169620356Y-102443000D01*
X169606390Y-102301197D01*
X169565027Y-102164844D01*
X169497859Y-102039180D01*
X169407465Y-101929035D01*
X169297320Y-101838641D01*
X169171656Y-101771473D01*
X169035303Y-101730110D01*
X168893500Y-101716144D01*
X168418500Y-101716144D01*
X168276697Y-101730110D01*
X168140344Y-101771473D01*
X168014680Y-101838641D01*
X167904535Y-101929035D01*
X167814141Y-102039180D01*
X167765063Y-102131000D01*
X165511054Y-102131000D01*
X165481000Y-102128040D01*
X165450946Y-102131000D01*
X159147054Y-102131000D01*
X159117000Y-102128040D01*
X159086946Y-102131000D01*
X159086936Y-102131000D01*
X159079356Y-102131747D01*
X159079356Y-101707500D01*
X159065390Y-101565697D01*
X159024027Y-101429344D01*
X158956859Y-101303680D01*
X158866465Y-101193535D01*
X158756320Y-101103141D01*
X158727000Y-101087469D01*
X158727000Y-100952773D01*
X158792320Y-100917859D01*
X158902465Y-100827465D01*
X158992859Y-100717320D01*
X159016548Y-100673000D01*
X161113928Y-100673000D01*
X161126188Y-100797482D01*
X161162498Y-100917180D01*
X161221463Y-101027494D01*
X161300815Y-101124185D01*
X161397506Y-101203537D01*
X161507820Y-101262502D01*
X161627518Y-101298812D01*
X161752000Y-101311072D01*
X161766250Y-101308000D01*
X161925000Y-101149250D01*
X161925000Y-99825000D01*
X161275750Y-99825000D01*
X161117000Y-99983750D01*
X161113928Y-100673000D01*
X159016548Y-100673000D01*
X159060027Y-100591656D01*
X159101390Y-100455303D01*
X159115356Y-100313500D01*
X159115356Y-99838500D01*
X159101390Y-99696697D01*
X159060027Y-99560344D01*
X158992859Y-99434680D01*
X158902465Y-99324535D01*
X158792320Y-99234141D01*
X158666656Y-99166973D01*
X158530303Y-99125610D01*
X158388500Y-99111644D01*
X157813500Y-99111644D01*
X157671697Y-99125610D01*
X157535344Y-99166973D01*
X157409680Y-99234141D01*
X157401738Y-99240659D01*
X157327185Y-99149815D01*
X157230494Y-99070463D01*
X157120180Y-99011498D01*
X157000482Y-98975188D01*
X156876000Y-98962928D01*
X156636750Y-98966000D01*
X156478000Y-99124750D01*
X156478000Y-99949000D01*
X156498000Y-99949000D01*
X156498000Y-100203000D01*
X156478000Y-100203000D01*
X156478000Y-101027250D01*
X156636750Y-101186000D01*
X156876000Y-101189072D01*
X157000482Y-101176812D01*
X157120180Y-101140502D01*
X157230494Y-101081537D01*
X157327185Y-101002185D01*
X157401738Y-100911341D01*
X157409680Y-100917859D01*
X157503001Y-100967739D01*
X157503000Y-101087469D01*
X157473680Y-101103141D01*
X157363535Y-101193535D01*
X157273141Y-101303680D01*
X157205973Y-101429344D01*
X157164610Y-101565697D01*
X157150644Y-101707500D01*
X157150644Y-102282500D01*
X157164610Y-102424303D01*
X157205973Y-102560656D01*
X157273141Y-102686320D01*
X157363535Y-102796465D01*
X157453137Y-102870000D01*
X157363535Y-102943535D01*
X157273141Y-103053680D01*
X157205973Y-103179344D01*
X157164610Y-103315697D01*
X157150644Y-103457500D01*
X157150644Y-103843858D01*
X154926503Y-106068000D01*
X154764498Y-106068000D01*
X154722504Y-105989435D01*
X154567923Y-105801077D01*
X154379565Y-105646496D01*
X154164670Y-105531632D01*
X153931494Y-105460899D01*
X153749766Y-105443000D01*
X152828234Y-105443000D01*
X152646506Y-105460899D01*
X152413330Y-105531632D01*
X152198435Y-105646496D01*
X152010077Y-105801077D01*
X151855496Y-105989435D01*
X151740632Y-106204330D01*
X151669899Y-106437506D01*
X151646015Y-106680000D01*
X151669899Y-106922494D01*
X151740632Y-107155670D01*
X151855496Y-107370565D01*
X152010077Y-107558923D01*
X152198435Y-107713504D01*
X152413330Y-107828368D01*
X152561834Y-107873416D01*
X152494240Y-107886389D01*
X152241651Y-107989028D01*
X152013939Y-108138972D01*
X151819855Y-108330460D01*
X151666858Y-108556132D01*
X151560827Y-108807316D01*
X151546682Y-108878815D01*
X151669344Y-109093000D01*
X153162000Y-109093000D01*
X153162000Y-109073000D01*
X153416000Y-109073000D01*
X153416000Y-109093000D01*
X154908656Y-109093000D01*
X155031318Y-108878815D01*
X155017173Y-108807316D01*
X154911142Y-108556132D01*
X154758145Y-108330460D01*
X154564061Y-108138972D01*
X154336349Y-107989028D01*
X154083760Y-107886389D01*
X154016166Y-107873416D01*
X154164670Y-107828368D01*
X154379565Y-107713504D01*
X154567923Y-107558923D01*
X154722504Y-107370565D01*
X154764498Y-107292000D01*
X155149946Y-107292000D01*
X155180000Y-107294960D01*
X155210054Y-107292000D01*
X155210064Y-107292000D01*
X155299973Y-107283145D01*
X155415335Y-107248150D01*
X155521654Y-107191321D01*
X155614843Y-107114843D01*
X155634014Y-107091483D01*
X157966142Y-104759356D01*
X158352500Y-104759356D01*
X158494303Y-104745390D01*
X158630656Y-104704027D01*
X158756320Y-104636859D01*
X158866465Y-104546465D01*
X158956859Y-104436320D01*
X159024027Y-104310656D01*
X159065390Y-104174303D01*
X159079356Y-104032500D01*
X159079356Y-103646142D01*
X159370498Y-103355000D01*
X161469290Y-103355000D01*
X161449907Y-103370907D01*
X161370395Y-103467793D01*
X161311312Y-103578329D01*
X161274929Y-103698268D01*
X161262644Y-103823000D01*
X161262644Y-105473000D01*
X161274929Y-105597732D01*
X161311312Y-105717671D01*
X161370395Y-105828207D01*
X161440000Y-105913021D01*
X161440001Y-111775704D01*
X161437040Y-111805768D01*
X161438982Y-111825485D01*
X160962014Y-111348517D01*
X160942843Y-111325157D01*
X160915003Y-111302310D01*
X160889605Y-111254793D01*
X160810093Y-111157907D01*
X160769996Y-111125000D01*
X160810093Y-111092093D01*
X160889605Y-110995207D01*
X160948688Y-110884671D01*
X160985071Y-110764732D01*
X160997356Y-110640000D01*
X160997356Y-110340000D01*
X160985071Y-110215268D01*
X160948688Y-110095329D01*
X160889605Y-109984793D01*
X160810093Y-109887907D01*
X160769996Y-109855000D01*
X160810093Y-109822093D01*
X160889605Y-109725207D01*
X160948688Y-109614671D01*
X160985071Y-109494732D01*
X160997356Y-109370000D01*
X160997356Y-109070000D01*
X160985071Y-108945268D01*
X160948688Y-108825329D01*
X160889605Y-108714793D01*
X160810093Y-108617907D01*
X160769996Y-108585000D01*
X160810093Y-108552093D01*
X160889605Y-108455207D01*
X160948688Y-108344671D01*
X160985071Y-108224732D01*
X160997356Y-108100000D01*
X160997356Y-107800000D01*
X160985071Y-107675268D01*
X160948688Y-107555329D01*
X160889605Y-107444793D01*
X160810093Y-107347907D01*
X160713207Y-107268395D01*
X160602671Y-107209312D01*
X160482732Y-107172929D01*
X160358000Y-107160644D01*
X158608000Y-107160644D01*
X158483268Y-107172929D01*
X158363329Y-107209312D01*
X158252793Y-107268395D01*
X158155907Y-107347907D01*
X158076395Y-107444793D01*
X158017312Y-107555329D01*
X157980929Y-107675268D01*
X157968644Y-107800000D01*
X157968644Y-108100000D01*
X157980929Y-108224732D01*
X158017312Y-108344671D01*
X158076395Y-108455207D01*
X158155907Y-108552093D01*
X158196004Y-108585000D01*
X158155907Y-108617907D01*
X158076395Y-108714793D01*
X158017312Y-108825329D01*
X157980929Y-108945268D01*
X157968644Y-109070000D01*
X157968644Y-109370000D01*
X157980929Y-109494732D01*
X158017312Y-109614671D01*
X158076395Y-109725207D01*
X158155907Y-109822093D01*
X158196004Y-109855000D01*
X158155907Y-109887907D01*
X158076395Y-109984793D01*
X158050997Y-110032310D01*
X158023157Y-110055157D01*
X158003991Y-110078511D01*
X155279517Y-112802986D01*
X155256157Y-112822157D01*
X155208687Y-112880000D01*
X155179679Y-112915346D01*
X155154686Y-112962106D01*
X155122850Y-113021666D01*
X155087855Y-113137028D01*
X155079000Y-113226937D01*
X155079000Y-113226946D01*
X155076040Y-113257000D01*
X155079000Y-113287054D01*
X155079001Y-118042644D01*
X155005356Y-118042644D01*
X155005356Y-116557000D01*
X154995953Y-116461531D01*
X154968106Y-116369732D01*
X154922885Y-116285128D01*
X154908000Y-116266991D01*
X154908000Y-116229754D01*
X154911226Y-116197000D01*
X154908000Y-116164245D01*
X154908000Y-116164235D01*
X154898349Y-116066245D01*
X154860209Y-115940515D01*
X154798273Y-115824641D01*
X154735808Y-115748528D01*
X154714922Y-115723078D01*
X154689471Y-115702191D01*
X151949813Y-112962534D01*
X151947688Y-112959944D01*
X151951732Y-112962106D01*
X152043531Y-112989953D01*
X152139000Y-112999356D01*
X154439000Y-112999356D01*
X154534469Y-112989953D01*
X154626268Y-112962106D01*
X154710872Y-112916885D01*
X154785027Y-112856027D01*
X154845885Y-112781872D01*
X154891106Y-112697268D01*
X154918953Y-112605469D01*
X154928356Y-112510000D01*
X154928356Y-111010000D01*
X154918953Y-110914531D01*
X154891106Y-110822732D01*
X154845885Y-110738128D01*
X154785027Y-110663973D01*
X154710872Y-110603115D01*
X154626268Y-110557894D01*
X154534469Y-110530047D01*
X154439000Y-110520644D01*
X154164890Y-110520644D01*
X154336349Y-110450972D01*
X154564061Y-110301028D01*
X154758145Y-110109540D01*
X154911142Y-109883868D01*
X155017173Y-109632684D01*
X155031318Y-109561185D01*
X154908656Y-109347000D01*
X153416000Y-109347000D01*
X153416000Y-109367000D01*
X153162000Y-109367000D01*
X153162000Y-109347000D01*
X151669344Y-109347000D01*
X151546682Y-109561185D01*
X151560827Y-109632684D01*
X151666858Y-109883868D01*
X151819855Y-110109540D01*
X152013939Y-110301028D01*
X152241651Y-110450972D01*
X152413110Y-110520644D01*
X152139000Y-110520644D01*
X152043531Y-110530047D01*
X151951732Y-110557894D01*
X151867128Y-110603115D01*
X151792973Y-110663973D01*
X151732115Y-110738128D01*
X151686894Y-110822732D01*
X151659047Y-110914531D01*
X151649644Y-111010000D01*
X151649644Y-112510000D01*
X151659047Y-112605469D01*
X151686894Y-112697268D01*
X151732115Y-112781872D01*
X151762739Y-112819187D01*
X151711485Y-112791791D01*
X151585755Y-112753651D01*
X151487765Y-112744000D01*
X151487754Y-112744000D01*
X151455000Y-112740774D01*
X151422246Y-112744000D01*
X143970408Y-112744000D01*
X143948430Y-112722022D01*
X143885742Y-112680136D01*
X144018000Y-112693162D01*
X144348709Y-112660590D01*
X144666710Y-112564125D01*
X144959781Y-112407476D01*
X145216660Y-112196660D01*
X145427476Y-111939781D01*
X145584125Y-111646710D01*
X145680590Y-111328709D01*
X145713162Y-110998000D01*
X145680590Y-110667290D01*
X145584125Y-110349289D01*
X145427476Y-110056218D01*
X145269487Y-109863709D01*
X143059501Y-107653723D01*
X143059501Y-104299269D01*
X143276336Y-104299269D01*
X143335797Y-104533037D01*
X143574242Y-104643934D01*
X143829740Y-104706183D01*
X144092473Y-104717390D01*
X144352344Y-104677125D01*
X144599366Y-104586935D01*
X144700203Y-104533037D01*
X144759664Y-104299269D01*
X144018000Y-103557605D01*
X143276336Y-104299269D01*
X143059501Y-104299269D01*
X143059501Y-104110194D01*
X143096731Y-104119664D01*
X143838395Y-103378000D01*
X144197605Y-103378000D01*
X144939269Y-104119664D01*
X145173037Y-104060203D01*
X145283934Y-103821758D01*
X145346183Y-103566260D01*
X145357390Y-103303527D01*
X145317125Y-103043656D01*
X145226935Y-102796634D01*
X145173037Y-102695797D01*
X144939269Y-102636336D01*
X144197605Y-103378000D01*
X143838395Y-103378000D01*
X143096731Y-102636336D01*
X143059501Y-102645806D01*
X143059501Y-102456731D01*
X143276336Y-102456731D01*
X144018000Y-103198395D01*
X144759664Y-102456731D01*
X144700203Y-102222963D01*
X144461758Y-102112066D01*
X144206260Y-102049817D01*
X143943527Y-102038610D01*
X143683656Y-102078875D01*
X143436634Y-102169065D01*
X143335797Y-102222963D01*
X143276336Y-102456731D01*
X143059501Y-102456731D01*
X143059501Y-100551000D01*
X155187928Y-100551000D01*
X155200188Y-100675482D01*
X155236498Y-100795180D01*
X155295463Y-100905494D01*
X155374815Y-101002185D01*
X155471506Y-101081537D01*
X155581820Y-101140502D01*
X155701518Y-101176812D01*
X155826000Y-101189072D01*
X156065250Y-101186000D01*
X156224000Y-101027250D01*
X156224000Y-100203000D01*
X155349750Y-100203000D01*
X155191000Y-100361750D01*
X155187928Y-100551000D01*
X143059501Y-100551000D01*
X143059501Y-99601000D01*
X155187928Y-99601000D01*
X155191000Y-99790250D01*
X155349750Y-99949000D01*
X156224000Y-99949000D01*
X156224000Y-99124750D01*
X156065250Y-98966000D01*
X155826000Y-98962928D01*
X155701518Y-98975188D01*
X155581820Y-99011498D01*
X155471506Y-99070463D01*
X155374815Y-99149815D01*
X155295463Y-99246506D01*
X155236498Y-99356820D01*
X155200188Y-99476518D01*
X155187928Y-99601000D01*
X143059501Y-99601000D01*
X143059501Y-98723000D01*
X161113928Y-98723000D01*
X161117000Y-99412250D01*
X161275750Y-99571000D01*
X161925000Y-99571000D01*
X161925000Y-98246750D01*
X161766250Y-98088000D01*
X161752000Y-98084928D01*
X161627518Y-98097188D01*
X161507820Y-98133498D01*
X161397506Y-98192463D01*
X161300815Y-98271815D01*
X161221463Y-98368506D01*
X161162498Y-98478820D01*
X161126188Y-98598518D01*
X161113928Y-98723000D01*
X143059501Y-98723000D01*
X143059501Y-91101277D01*
X143342934Y-90817845D01*
X143664383Y-90684696D01*
X143959114Y-90487763D01*
X144209763Y-90237114D01*
X144406696Y-89942383D01*
X144542346Y-89614895D01*
X144611500Y-89267235D01*
X144611500Y-88912765D01*
X145012500Y-88912765D01*
X145012500Y-89267235D01*
X145081654Y-89614895D01*
X145217304Y-89942383D01*
X145414237Y-90237114D01*
X145664886Y-90487763D01*
X145959617Y-90684696D01*
X146287105Y-90820346D01*
X146634765Y-90889500D01*
X146989235Y-90889500D01*
X147336895Y-90820346D01*
X147664383Y-90684696D01*
X147959114Y-90487763D01*
X148209763Y-90237114D01*
X148406696Y-89942383D01*
X148542346Y-89614895D01*
X148589095Y-89379873D01*
X149349600Y-90140378D01*
X149414237Y-90237114D01*
X149664886Y-90487763D01*
X149959617Y-90684696D01*
X150287105Y-90820346D01*
X150634765Y-90889500D01*
X150989235Y-90889500D01*
X151336895Y-90820346D01*
X151512475Y-90747618D01*
X153972118Y-93207262D01*
X153972129Y-93207271D01*
X156531038Y-95766182D01*
X156549420Y-95788580D01*
X156638802Y-95861934D01*
X156740778Y-95916441D01*
X156831395Y-95943929D01*
X156851428Y-95950006D01*
X156966499Y-95961340D01*
X156995333Y-95958500D01*
X160986044Y-95958500D01*
X160986044Y-96309000D01*
X161000010Y-96450803D01*
X161041373Y-96587156D01*
X161108541Y-96712820D01*
X161198935Y-96822965D01*
X161309080Y-96913359D01*
X161434744Y-96980527D01*
X161571097Y-97021890D01*
X161712900Y-97035856D01*
X162187900Y-97035856D01*
X162329703Y-97021890D01*
X162458262Y-96982891D01*
X162451767Y-96988534D01*
X162421391Y-97027739D01*
X162389945Y-97066056D01*
X162372403Y-97098874D01*
X162358562Y-97120902D01*
X162336602Y-97150950D01*
X162315719Y-97195917D01*
X162293581Y-97240283D01*
X162283780Y-97276187D01*
X162275187Y-97300746D01*
X162260463Y-97334929D01*
X162250111Y-97383411D01*
X162238402Y-97431588D01*
X162236836Y-97468778D01*
X162233925Y-97494619D01*
X162227176Y-97531219D01*
X162227871Y-97580816D01*
X162227177Y-97630382D01*
X162233924Y-97666974D01*
X162236836Y-97692823D01*
X162238402Y-97730011D01*
X162250109Y-97778181D01*
X162260463Y-97826671D01*
X162275188Y-97860857D01*
X162283780Y-97885412D01*
X162293581Y-97921316D01*
X162315719Y-97965682D01*
X162336602Y-98010649D01*
X162358562Y-98040697D01*
X162372403Y-98062725D01*
X162386064Y-98088283D01*
X162352000Y-98084928D01*
X162337750Y-98088000D01*
X162179000Y-98246750D01*
X162179000Y-99571000D01*
X162199000Y-99571000D01*
X162199000Y-99825000D01*
X162179000Y-99825000D01*
X162179000Y-101149250D01*
X162337750Y-101308000D01*
X162352000Y-101311072D01*
X162476482Y-101298812D01*
X162596180Y-101262502D01*
X162706494Y-101203537D01*
X162803185Y-101124185D01*
X162847026Y-101070765D01*
X162927329Y-101113688D01*
X163047268Y-101150071D01*
X163172000Y-101162356D01*
X163472000Y-101162356D01*
X163596732Y-101150071D01*
X163716671Y-101113688D01*
X163827207Y-101054605D01*
X163924093Y-100975093D01*
X163957000Y-100934996D01*
X163989907Y-100975093D01*
X164086793Y-101054605D01*
X164197329Y-101113688D01*
X164317268Y-101150071D01*
X164442000Y-101162356D01*
X164742000Y-101162356D01*
X164866732Y-101150071D01*
X164986671Y-101113688D01*
X165097207Y-101054605D01*
X165194093Y-100975093D01*
X165227000Y-100934996D01*
X165259907Y-100975093D01*
X165356793Y-101054605D01*
X165467329Y-101113688D01*
X165587268Y-101150071D01*
X165712000Y-101162356D01*
X166012000Y-101162356D01*
X166136732Y-101150071D01*
X166256671Y-101113688D01*
X166367207Y-101054605D01*
X166464093Y-100975093D01*
X166543605Y-100878207D01*
X166602688Y-100767671D01*
X166639071Y-100647732D01*
X166651356Y-100523000D01*
X166651356Y-98873000D01*
X166639071Y-98748268D01*
X166602688Y-98628329D01*
X166543605Y-98517793D01*
X166464093Y-98420907D01*
X166367207Y-98341395D01*
X166256671Y-98282312D01*
X166136732Y-98245929D01*
X166012000Y-98233644D01*
X165712000Y-98233644D01*
X165587268Y-98245929D01*
X165467329Y-98282312D01*
X165356793Y-98341395D01*
X165259907Y-98420907D01*
X165227000Y-98461004D01*
X165194093Y-98420907D01*
X165097207Y-98341395D01*
X164986671Y-98282312D01*
X164866732Y-98245929D01*
X164769000Y-98236303D01*
X164769000Y-96494433D01*
X164771840Y-96465599D01*
X164760506Y-96350528D01*
X164752550Y-96324300D01*
X164726941Y-96239878D01*
X164672434Y-96137902D01*
X164599080Y-96048520D01*
X164576684Y-96030140D01*
X163892666Y-95346124D01*
X163892662Y-95346119D01*
X162914756Y-94368214D01*
X162914756Y-93984000D01*
X162900790Y-93842197D01*
X162859427Y-93705844D01*
X162792259Y-93580180D01*
X162701865Y-93470035D01*
X162591720Y-93379641D01*
X162466056Y-93312473D01*
X162329703Y-93271110D01*
X162187900Y-93257144D01*
X161712900Y-93257144D01*
X161571097Y-93271110D01*
X161434744Y-93312473D01*
X161309080Y-93379641D01*
X161198935Y-93470035D01*
X161108541Y-93580180D01*
X161041373Y-93705844D01*
X161000010Y-93842197D01*
X160986044Y-93984000D01*
X160986044Y-94334500D01*
X157396041Y-94334500D01*
X155643002Y-92581462D01*
X155648385Y-92578585D01*
X155686702Y-92547139D01*
X155725907Y-92516763D01*
X155750313Y-92488670D01*
X155768710Y-92470272D01*
X155796802Y-92445868D01*
X155827170Y-92406673D01*
X155858624Y-92368346D01*
X155876165Y-92335530D01*
X155890007Y-92313500D01*
X155911967Y-92283452D01*
X155930501Y-92243543D01*
X164525000Y-92243543D01*
X164525000Y-92536457D01*
X164582145Y-92823742D01*
X164694238Y-93094359D01*
X164856972Y-93337907D01*
X165064093Y-93545028D01*
X165307641Y-93707762D01*
X165578258Y-93819855D01*
X165865543Y-93877000D01*
X166158457Y-93877000D01*
X166445742Y-93819855D01*
X166716359Y-93707762D01*
X166959907Y-93545028D01*
X167167028Y-93337907D01*
X167329762Y-93094359D01*
X167441855Y-92823742D01*
X167499000Y-92536457D01*
X167499000Y-92243543D01*
X167441855Y-91956258D01*
X167329762Y-91685641D01*
X167167028Y-91442093D01*
X166959907Y-91234972D01*
X166716359Y-91072238D01*
X166445742Y-90960145D01*
X166158457Y-90903000D01*
X165865543Y-90903000D01*
X165578258Y-90960145D01*
X165307641Y-91072238D01*
X165064093Y-91234972D01*
X164856972Y-91442093D01*
X164694238Y-91685641D01*
X164582145Y-91956258D01*
X164525000Y-92243543D01*
X155930501Y-92243543D01*
X155932850Y-92238485D01*
X155954988Y-92194119D01*
X155964788Y-92158216D01*
X155973382Y-92133658D01*
X155988103Y-92099482D01*
X155998460Y-92050985D01*
X156010167Y-92002814D01*
X156011733Y-91965638D01*
X156014647Y-91939772D01*
X156021394Y-91903176D01*
X156020699Y-91853603D01*
X156021394Y-91804031D01*
X156014647Y-91767435D01*
X156011733Y-91741569D01*
X156010167Y-91704391D01*
X155998458Y-91656216D01*
X155988103Y-91607723D01*
X155973381Y-91573545D01*
X155964788Y-91548989D01*
X155954988Y-91513086D01*
X155932850Y-91468720D01*
X155911967Y-91423753D01*
X155890007Y-91393705D01*
X155876165Y-91371675D01*
X155858624Y-91338859D01*
X155827170Y-91300532D01*
X155796802Y-91261337D01*
X155768710Y-91236933D01*
X155750313Y-91218535D01*
X155725907Y-91190442D01*
X155686702Y-91160066D01*
X155648385Y-91128620D01*
X155615567Y-91111078D01*
X155593539Y-91097237D01*
X155563491Y-91075277D01*
X155518524Y-91054394D01*
X155474158Y-91032256D01*
X155438254Y-91022455D01*
X155413699Y-91013863D01*
X155379513Y-90999138D01*
X155331023Y-90988784D01*
X155282853Y-90977077D01*
X155250790Y-90975727D01*
X155248714Y-90975097D01*
X155212513Y-90971531D01*
X155216147Y-90958216D01*
X155224739Y-90933662D01*
X155239465Y-90899474D01*
X155249819Y-90850984D01*
X155253220Y-90836990D01*
X155336895Y-90820346D01*
X155664383Y-90684696D01*
X155959114Y-90487763D01*
X156209763Y-90237114D01*
X156406696Y-89942383D01*
X156542346Y-89614895D01*
X156611500Y-89267235D01*
X156611500Y-88912765D01*
X156542346Y-88565105D01*
X156406696Y-88237617D01*
X156209763Y-87942886D01*
X155959114Y-87692237D01*
X155664383Y-87495304D01*
X155342933Y-87362155D01*
X154372000Y-86391222D01*
X154372000Y-85994309D01*
X154406696Y-85942383D01*
X154542346Y-85614895D01*
X154611500Y-85267235D01*
X154611500Y-84912765D01*
X154542346Y-84565105D01*
X154406696Y-84237617D01*
X154209763Y-83942886D01*
X153959114Y-83692237D01*
X153664383Y-83495304D01*
X153336895Y-83359654D01*
X152989235Y-83290500D01*
X152634765Y-83290500D01*
X152287105Y-83359654D01*
X151959617Y-83495304D01*
X151664886Y-83692237D01*
X151414237Y-83942886D01*
X151283671Y-84138292D01*
X151275524Y-84148219D01*
X151269471Y-84159544D01*
X151217304Y-84237617D01*
X151181368Y-84324373D01*
X151118875Y-84441291D01*
X151022410Y-84759291D01*
X150998000Y-85007131D01*
X150998001Y-87007120D01*
X150997095Y-87016317D01*
X150372000Y-86391222D01*
X150372000Y-85994309D01*
X150406696Y-85942383D01*
X150542346Y-85614895D01*
X150611500Y-85267235D01*
X150611500Y-84912765D01*
X150542346Y-84565105D01*
X150406696Y-84237617D01*
X150209763Y-83942886D01*
X149959114Y-83692237D01*
X149664383Y-83495304D01*
X149336895Y-83359654D01*
X148989235Y-83290500D01*
X148634765Y-83290500D01*
X148287105Y-83359654D01*
X147959617Y-83495304D01*
X147664886Y-83692237D01*
X147414237Y-83942886D01*
X147283671Y-84138292D01*
X147275524Y-84148219D01*
X147269471Y-84159544D01*
X147217304Y-84237617D01*
X147181368Y-84324373D01*
X147118875Y-84441291D01*
X147022410Y-84759291D01*
X146998000Y-85007131D01*
X146998001Y-87007120D01*
X146989838Y-87090000D01*
X147009992Y-87294629D01*
X146989235Y-87290500D01*
X146634765Y-87290500D01*
X146287105Y-87359654D01*
X145959617Y-87495304D01*
X145664886Y-87692237D01*
X145414237Y-87942886D01*
X145217304Y-88237617D01*
X145081654Y-88565105D01*
X145012500Y-88912765D01*
X144611500Y-88912765D01*
X144542346Y-88565105D01*
X144406696Y-88237617D01*
X144209763Y-87942886D01*
X143959114Y-87692237D01*
X143664383Y-87495304D01*
X143336895Y-87359654D01*
X142989235Y-87290500D01*
X142634765Y-87290500D01*
X142287105Y-87359654D01*
X141959617Y-87495304D01*
X141664886Y-87692237D01*
X141414237Y-87942886D01*
X141349602Y-88039619D01*
X140589095Y-88800127D01*
X140542346Y-88565105D01*
X140406696Y-88237617D01*
X140209763Y-87942886D01*
X139959114Y-87692237D01*
X139664383Y-87495304D01*
X139336895Y-87359654D01*
X138989235Y-87290500D01*
X138634765Y-87290500D01*
X138287105Y-87359654D01*
X137959617Y-87495304D01*
X137664886Y-87692237D01*
X137414237Y-87942886D01*
X137217304Y-88237617D01*
X137081654Y-88565105D01*
X137012500Y-88912765D01*
X137012500Y-89267235D01*
X137081654Y-89614895D01*
X137217304Y-89942383D01*
X137414237Y-90237114D01*
X137664886Y-90487763D01*
X137959617Y-90684696D01*
X138287105Y-90820346D01*
X138634765Y-90889500D01*
X138989235Y-90889500D01*
X139336895Y-90820346D01*
X139664383Y-90684696D01*
X139685501Y-90670585D01*
X139685502Y-108269621D01*
X139677339Y-108352501D01*
X139709911Y-108683210D01*
X139772056Y-108888072D01*
X139806377Y-109001211D01*
X139963026Y-109294283D01*
X140173841Y-109551162D01*
X140238211Y-109603989D01*
X142883709Y-112249487D01*
X143076218Y-112407476D01*
X143294605Y-112524206D01*
X143124272Y-112558087D01*
X142962848Y-112624951D01*
X142817570Y-112722022D01*
X142694022Y-112845570D01*
X142596951Y-112990848D01*
X142530087Y-113152272D01*
X142496000Y-113323638D01*
X142496000Y-113498362D01*
X142501100Y-113524001D01*
X140551700Y-113524001D01*
X138974232Y-111946534D01*
X138953341Y-111921078D01*
X138851777Y-111837727D01*
X138735904Y-111775791D01*
X138610174Y-111737651D01*
X138512184Y-111728000D01*
X138512173Y-111728000D01*
X138479419Y-111724774D01*
X138446665Y-111728000D01*
X137337822Y-111728000D01*
X137449905Y-111560255D01*
X137539384Y-111344235D01*
X137585000Y-111114909D01*
X137585000Y-110881091D01*
X137539384Y-110651765D01*
X137449905Y-110435745D01*
X137320003Y-110241332D01*
X137154668Y-110075997D01*
X136960255Y-109946095D01*
X136828960Y-109891711D01*
X135580000Y-108642751D01*
X135580000Y-104551118D01*
X135602531Y-104557953D01*
X135698000Y-104567356D01*
X137098000Y-104567356D01*
X137193469Y-104557953D01*
X137285268Y-104530106D01*
X137369872Y-104484885D01*
X137444027Y-104424027D01*
X137504885Y-104349872D01*
X137550106Y-104265268D01*
X137577953Y-104173469D01*
X137587356Y-104078000D01*
X137587356Y-102678000D01*
X137577953Y-102582531D01*
X137550106Y-102490732D01*
X137504885Y-102406128D01*
X137444027Y-102331973D01*
X137369872Y-102271115D01*
X137285268Y-102225894D01*
X137193469Y-102198047D01*
X137098000Y-102188644D01*
X135698000Y-102188644D01*
X135602531Y-102198047D01*
X135580000Y-102204882D01*
X135580000Y-88207249D01*
X137610250Y-86177000D01*
X139374070Y-86177000D01*
X139414237Y-86237114D01*
X139664886Y-86487763D01*
X139959617Y-86684696D01*
X140287105Y-86820346D01*
X140634765Y-86889500D01*
X140989235Y-86889500D01*
X141336895Y-86820346D01*
X141664383Y-86684696D01*
X141959114Y-86487763D01*
X142209763Y-86237114D01*
X142406696Y-85942383D01*
X142542346Y-85614895D01*
X142611500Y-85267235D01*
X142611500Y-84912765D01*
X143012500Y-84912765D01*
X143012500Y-85267235D01*
X143081654Y-85614895D01*
X143217304Y-85942383D01*
X143414237Y-86237114D01*
X143664886Y-86487763D01*
X143959617Y-86684696D01*
X144287105Y-86820346D01*
X144634765Y-86889500D01*
X144989235Y-86889500D01*
X145336895Y-86820346D01*
X145664383Y-86684696D01*
X145959114Y-86487763D01*
X146209763Y-86237114D01*
X146406696Y-85942383D01*
X146542346Y-85614895D01*
X146611500Y-85267235D01*
X146611500Y-84912765D01*
X146542346Y-84565105D01*
X146406696Y-84237617D01*
X146209763Y-83942886D01*
X145959114Y-83692237D01*
X145664383Y-83495304D01*
X145336895Y-83359654D01*
X144989235Y-83290500D01*
X144634765Y-83290500D01*
X144287105Y-83359654D01*
X143959617Y-83495304D01*
X143664886Y-83692237D01*
X143414237Y-83942886D01*
X143217304Y-84237617D01*
X143081654Y-84565105D01*
X143012500Y-84912765D01*
X142611500Y-84912765D01*
X142542346Y-84565105D01*
X142406696Y-84237617D01*
X142209763Y-83942886D01*
X141959114Y-83692237D01*
X141664383Y-83495304D01*
X141336895Y-83359654D01*
X140989235Y-83290500D01*
X140634765Y-83290500D01*
X140287105Y-83359654D01*
X139959617Y-83495304D01*
X139664886Y-83692237D01*
X139414237Y-83942886D01*
X139374070Y-84003000D01*
X137309250Y-84003000D01*
X138457925Y-82854324D01*
X138634765Y-82889500D01*
X138989235Y-82889500D01*
X139336895Y-82820346D01*
X139664383Y-82684696D01*
X139959114Y-82487763D01*
X140209763Y-82237114D01*
X140406696Y-81942383D01*
X140542346Y-81614895D01*
X140611500Y-81267235D01*
X140611500Y-80912765D01*
X141012500Y-80912765D01*
X141012500Y-81267235D01*
X141081654Y-81614895D01*
X141217304Y-81942383D01*
X141414237Y-82237114D01*
X141664886Y-82487763D01*
X141959617Y-82684696D01*
X142287105Y-82820346D01*
X142634765Y-82889500D01*
X142989235Y-82889500D01*
X143336895Y-82820346D01*
X143664383Y-82684696D01*
X143959114Y-82487763D01*
X144209763Y-82237114D01*
X144406696Y-81942383D01*
X144542346Y-81614895D01*
X144611500Y-81267235D01*
X144611500Y-80912765D01*
X145012500Y-80912765D01*
X145012500Y-81267235D01*
X145081654Y-81614895D01*
X145217304Y-81942383D01*
X145414237Y-82237114D01*
X145664886Y-82487763D01*
X145959617Y-82684696D01*
X146287105Y-82820346D01*
X146634765Y-82889500D01*
X146989235Y-82889500D01*
X147336895Y-82820346D01*
X147664383Y-82684696D01*
X147959114Y-82487763D01*
X147998749Y-82448128D01*
X149633477Y-82448128D01*
X149766919Y-82744496D01*
X150109776Y-82916590D01*
X150479620Y-83018490D01*
X150862236Y-83046279D01*
X151242921Y-82998889D01*
X151607048Y-82878142D01*
X151857081Y-82744496D01*
X151990523Y-82448128D01*
X151944895Y-82402500D01*
X152861428Y-82402500D01*
X152873688Y-82526982D01*
X152909998Y-82646680D01*
X152968963Y-82756994D01*
X153048315Y-82853685D01*
X153145006Y-82933037D01*
X153255320Y-82992002D01*
X153375018Y-83028312D01*
X153499500Y-83040572D01*
X154526250Y-83037500D01*
X154685000Y-82878750D01*
X154685000Y-81217000D01*
X154939000Y-81217000D01*
X154939000Y-82878750D01*
X155097750Y-83037500D01*
X156124500Y-83040572D01*
X156248982Y-83028312D01*
X156368680Y-82992002D01*
X156478994Y-82933037D01*
X156575685Y-82853685D01*
X156655037Y-82756994D01*
X156714002Y-82646680D01*
X156750312Y-82526982D01*
X156762572Y-82402500D01*
X156759500Y-81375750D01*
X156600750Y-81217000D01*
X154939000Y-81217000D01*
X154685000Y-81217000D01*
X153023250Y-81217000D01*
X152864500Y-81375750D01*
X152861428Y-82402500D01*
X151944895Y-82402500D01*
X150812000Y-81269605D01*
X149633477Y-82448128D01*
X147998749Y-82448128D01*
X148209763Y-82237114D01*
X148406696Y-81942383D01*
X148542346Y-81614895D01*
X148611500Y-81267235D01*
X148611500Y-81140236D01*
X148855721Y-81140236D01*
X148903111Y-81520921D01*
X149023858Y-81885048D01*
X149157504Y-82135081D01*
X149453872Y-82268523D01*
X150632395Y-81090000D01*
X150991605Y-81090000D01*
X152170128Y-82268523D01*
X152466496Y-82135081D01*
X152638590Y-81792224D01*
X152740490Y-81422380D01*
X152768279Y-81039764D01*
X152720889Y-80659079D01*
X152600142Y-80294952D01*
X152466496Y-80044919D01*
X152170128Y-79911477D01*
X150991605Y-81090000D01*
X150632395Y-81090000D01*
X149453872Y-79911477D01*
X149157504Y-80044919D01*
X148985410Y-80387776D01*
X148883510Y-80757620D01*
X148855721Y-81140236D01*
X148611500Y-81140236D01*
X148611500Y-80912765D01*
X148542346Y-80565105D01*
X148406696Y-80237617D01*
X148209763Y-79942886D01*
X147998749Y-79731872D01*
X149633477Y-79731872D01*
X150812000Y-80910395D01*
X151944895Y-79777500D01*
X152861428Y-79777500D01*
X152864500Y-80804250D01*
X153023250Y-80963000D01*
X154685000Y-80963000D01*
X154685000Y-79301250D01*
X154939000Y-79301250D01*
X154939000Y-80963000D01*
X156600750Y-80963000D01*
X156759500Y-80804250D01*
X156762572Y-79777500D01*
X156750312Y-79653018D01*
X156714002Y-79533320D01*
X156655037Y-79423006D01*
X156575685Y-79326315D01*
X156478994Y-79246963D01*
X156368680Y-79187998D01*
X156248982Y-79151688D01*
X156124500Y-79139428D01*
X155097750Y-79142500D01*
X154939000Y-79301250D01*
X154685000Y-79301250D01*
X154526250Y-79142500D01*
X153499500Y-79139428D01*
X153375018Y-79151688D01*
X153255320Y-79187998D01*
X153145006Y-79246963D01*
X153048315Y-79326315D01*
X152968963Y-79423006D01*
X152909998Y-79533320D01*
X152873688Y-79653018D01*
X152861428Y-79777500D01*
X151944895Y-79777500D01*
X151990523Y-79731872D01*
X151857081Y-79435504D01*
X151514224Y-79263410D01*
X151144380Y-79161510D01*
X150761764Y-79133721D01*
X150381079Y-79181111D01*
X150016952Y-79301858D01*
X149766919Y-79435504D01*
X149633477Y-79731872D01*
X147998749Y-79731872D01*
X147959114Y-79692237D01*
X147664383Y-79495304D01*
X147336895Y-79359654D01*
X146989235Y-79290500D01*
X146634765Y-79290500D01*
X146287105Y-79359654D01*
X145959617Y-79495304D01*
X145664886Y-79692237D01*
X145414237Y-79942886D01*
X145217304Y-80237617D01*
X145081654Y-80565105D01*
X145012500Y-80912765D01*
X144611500Y-80912765D01*
X144542346Y-80565105D01*
X144406696Y-80237617D01*
X144209763Y-79942886D01*
X143959114Y-79692237D01*
X143664383Y-79495304D01*
X143336895Y-79359654D01*
X142989235Y-79290500D01*
X142634765Y-79290500D01*
X142287105Y-79359654D01*
X141959617Y-79495304D01*
X141664886Y-79692237D01*
X141414237Y-79942886D01*
X141217304Y-80237617D01*
X141081654Y-80565105D01*
X141012500Y-80912765D01*
X140611500Y-80912765D01*
X140542346Y-80565105D01*
X140406696Y-80237617D01*
X140209763Y-79942886D01*
X139959114Y-79692237D01*
X139664383Y-79495304D01*
X139336895Y-79359654D01*
X138989235Y-79290500D01*
X138634765Y-79290500D01*
X138287105Y-79359654D01*
X137959617Y-79495304D01*
X137664886Y-79692237D01*
X137414237Y-79942886D01*
X137217304Y-80237617D01*
X137081654Y-80565105D01*
X137012500Y-80912765D01*
X137012500Y-81225250D01*
X132362125Y-85875626D01*
X132320647Y-85909666D01*
X132286608Y-85951143D01*
X132184810Y-86075183D01*
X132083875Y-86264021D01*
X132021719Y-86468922D01*
X132000731Y-86682010D01*
X132005991Y-86735414D01*
X132005990Y-98993760D01*
X124364135Y-106635616D01*
X124322657Y-106669656D01*
X124288618Y-106711133D01*
X124186820Y-106835173D01*
X124129172Y-106943026D01*
X124085885Y-107024011D01*
X124029675Y-107209312D01*
X124023729Y-107228912D01*
X124002741Y-107442000D01*
X124008001Y-107495404D01*
X124008000Y-110520471D01*
X123953616Y-110651765D01*
X123908000Y-110881091D01*
X123908000Y-111114909D01*
X123953616Y-111344235D01*
X124043095Y-111560255D01*
X124172997Y-111754668D01*
X124338332Y-111920003D01*
X124532745Y-112049905D01*
X124748765Y-112139384D01*
X124978091Y-112185000D01*
X125211909Y-112185000D01*
X125441235Y-112139384D01*
X125657255Y-112049905D01*
X125851668Y-111920003D01*
X126017003Y-111754668D01*
X126146905Y-111560255D01*
X126236384Y-111344235D01*
X126282000Y-111114909D01*
X126282000Y-110881091D01*
X126236384Y-110651765D01*
X126182000Y-110520471D01*
X126182000Y-107892249D01*
X133406001Y-100668249D01*
X133406001Y-102412120D01*
X133277255Y-102326095D01*
X133061235Y-102236616D01*
X132831909Y-102191000D01*
X132598091Y-102191000D01*
X132368765Y-102236616D01*
X132152745Y-102326095D01*
X131958332Y-102455997D01*
X131792997Y-102621332D01*
X131663095Y-102815745D01*
X131573616Y-103031765D01*
X131528000Y-103261091D01*
X131528000Y-103494909D01*
X131573616Y-103724235D01*
X131663095Y-103940255D01*
X131792997Y-104134668D01*
X131958332Y-104300003D01*
X132152745Y-104429905D01*
X132368765Y-104519384D01*
X132598091Y-104565000D01*
X132831909Y-104565000D01*
X133061235Y-104519384D01*
X133277255Y-104429905D01*
X133406001Y-104343880D01*
X133406001Y-108751362D01*
X133402226Y-108750990D01*
X133402215Y-108750990D01*
X133369461Y-108747764D01*
X133336707Y-108750990D01*
X131152764Y-108750990D01*
X131120009Y-108747764D01*
X131087255Y-108750990D01*
X131087245Y-108750990D01*
X130989255Y-108760641D01*
X130863525Y-108798781D01*
X130813858Y-108825329D01*
X130747651Y-108860717D01*
X130671537Y-108923182D01*
X130671533Y-108923186D01*
X130646088Y-108944068D01*
X130625205Y-108969514D01*
X129737720Y-109857000D01*
X129706638Y-109857000D01*
X129535272Y-109891087D01*
X129373848Y-109957951D01*
X129228570Y-110055022D01*
X129105022Y-110178570D01*
X129007951Y-110323848D01*
X128941087Y-110485272D01*
X128907000Y-110656638D01*
X128907000Y-110831362D01*
X128941087Y-111002728D01*
X129007951Y-111164152D01*
X129105022Y-111309430D01*
X129228570Y-111432978D01*
X129373848Y-111530049D01*
X129535272Y-111596913D01*
X129706638Y-111631000D01*
X129881362Y-111631000D01*
X130052728Y-111596913D01*
X130214152Y-111530049D01*
X130359430Y-111432978D01*
X130482978Y-111309430D01*
X130580049Y-111164152D01*
X130646913Y-111002728D01*
X130681000Y-110831362D01*
X130681000Y-110800280D01*
X131168263Y-110313017D01*
X131148875Y-110349290D01*
X131052410Y-110667290D01*
X131028000Y-110915130D01*
X131028000Y-111668128D01*
X131019838Y-111750998D01*
X131028380Y-111837727D01*
X131052410Y-112081707D01*
X131148875Y-112399707D01*
X131305524Y-112692779D01*
X131516339Y-112949659D01*
X131580715Y-113002491D01*
X133690512Y-115112289D01*
X133743340Y-115176660D01*
X134000219Y-115387475D01*
X134293291Y-115544124D01*
X134608449Y-115639727D01*
X134611291Y-115640589D01*
X134942000Y-115673161D01*
X135024870Y-115664999D01*
X135284272Y-115664999D01*
X135256616Y-115731765D01*
X135211000Y-115961091D01*
X135211000Y-116194909D01*
X135256616Y-116424235D01*
X135346095Y-116640255D01*
X135475997Y-116834668D01*
X135641332Y-117000003D01*
X135835745Y-117129905D01*
X136051765Y-117219384D01*
X136281091Y-117265000D01*
X136514909Y-117265000D01*
X136744235Y-117219384D01*
X136960255Y-117129905D01*
X137154668Y-117000003D01*
X137320003Y-116834668D01*
X137449905Y-116640255D01*
X137539384Y-116424235D01*
X137585000Y-116194909D01*
X137585000Y-116120829D01*
X142331000Y-120866829D01*
X142331000Y-121240869D01*
X142355410Y-121488709D01*
X142451875Y-121806709D01*
X142593146Y-122071010D01*
X137163661Y-122071010D01*
X137320003Y-121914668D01*
X137449905Y-121720255D01*
X137539384Y-121504235D01*
X137585000Y-121274909D01*
X137585000Y-121041091D01*
X137539384Y-120811765D01*
X137449905Y-120595745D01*
X137320003Y-120401332D01*
X137154668Y-120235997D01*
X136960255Y-120106095D01*
X136744235Y-120016616D01*
X136514909Y-119971000D01*
X136281091Y-119971000D01*
X136051765Y-120016616D01*
X135835745Y-120106095D01*
X135641332Y-120235997D01*
X135475997Y-120401332D01*
X135346095Y-120595745D01*
X135256616Y-120811765D01*
X135211000Y-121041091D01*
X135211000Y-121059720D01*
X132078000Y-117926721D01*
X132078000Y-117895638D01*
X132043913Y-117724272D01*
X131977049Y-117562848D01*
X131879978Y-117417570D01*
X131756430Y-117294022D01*
X131611152Y-117196951D01*
X131449728Y-117130087D01*
X131278362Y-117096000D01*
X131103638Y-117096000D01*
X130932272Y-117130087D01*
X130770848Y-117196951D01*
X130625570Y-117294022D01*
X130502022Y-117417570D01*
X130404951Y-117562848D01*
X130338087Y-117724272D01*
X130304000Y-117895638D01*
X130304000Y-118070362D01*
X130338087Y-118241728D01*
X130404951Y-118403152D01*
X130502022Y-118548430D01*
X130625570Y-118671978D01*
X130770848Y-118769049D01*
X130932272Y-118835913D01*
X131103638Y-118870000D01*
X131134721Y-118870000D01*
X132306944Y-120042223D01*
X132152745Y-120106095D01*
X131958332Y-120235997D01*
X131792997Y-120401332D01*
X131663095Y-120595745D01*
X131573616Y-120811765D01*
X131528000Y-121041091D01*
X131528000Y-121274909D01*
X131573616Y-121504235D01*
X131663095Y-121720255D01*
X131792997Y-121914668D01*
X131958332Y-122080003D01*
X132152745Y-122209905D01*
X132368765Y-122299384D01*
X132598091Y-122345000D01*
X132831909Y-122345000D01*
X133061235Y-122299384D01*
X133277255Y-122209905D01*
X133471668Y-122080003D01*
X133637003Y-121914668D01*
X133766905Y-121720255D01*
X133830777Y-121566056D01*
X135451201Y-123186481D01*
X135472088Y-123211932D01*
X135573652Y-123295283D01*
X135689525Y-123357219D01*
X135815255Y-123395359D01*
X135913245Y-123405010D01*
X135913248Y-123405010D01*
X135946010Y-123408237D01*
X135978772Y-123405010D01*
X144459701Y-123405010D01*
X144374951Y-123531848D01*
X144308087Y-123693272D01*
X144274000Y-123864638D01*
X144274000Y-124039362D01*
X144308087Y-124210728D01*
X144374951Y-124372152D01*
X144472022Y-124517430D01*
X144595570Y-124640978D01*
X144740848Y-124738049D01*
X144902272Y-124804913D01*
X145073638Y-124839000D01*
X145178592Y-124839000D01*
X145107022Y-124910570D01*
X145009951Y-125055848D01*
X144943087Y-125217272D01*
X144909000Y-125388638D01*
X144909000Y-125563362D01*
X144943087Y-125734728D01*
X145009951Y-125896152D01*
X145107022Y-126041430D01*
X145230570Y-126164978D01*
X145375848Y-126262049D01*
X145537272Y-126328913D01*
X145708638Y-126363000D01*
X145883362Y-126363000D01*
X145935339Y-126352661D01*
X145925000Y-126404638D01*
X145925000Y-126579362D01*
X145959087Y-126750728D01*
X146025951Y-126912152D01*
X146123022Y-127057430D01*
X146246570Y-127180978D01*
X146391848Y-127278049D01*
X146553272Y-127344913D01*
X146724638Y-127379000D01*
X146899362Y-127379000D01*
X147070728Y-127344913D01*
X147232152Y-127278049D01*
X147377430Y-127180978D01*
X147500978Y-127057430D01*
X147598049Y-126912152D01*
X147664913Y-126750728D01*
X147699000Y-126579362D01*
X147699000Y-126470498D01*
X147700498Y-126469000D01*
X147876644Y-126469000D01*
X147876644Y-126657000D01*
X147886047Y-126752469D01*
X147913894Y-126844268D01*
X147959115Y-126928872D01*
X148019973Y-127003027D01*
X148067270Y-127041843D01*
X148008815Y-127089815D01*
X147929463Y-127186506D01*
X147870498Y-127296820D01*
X147834188Y-127416518D01*
X147821928Y-127541000D01*
X147825000Y-127730250D01*
X147983750Y-127889000D01*
X148870500Y-127889000D01*
X148870500Y-127869000D01*
X149124500Y-127869000D01*
X149124500Y-127889000D01*
X149144500Y-127889000D01*
X149144500Y-128143000D01*
X149124500Y-128143000D01*
X149124500Y-128163000D01*
X148870500Y-128163000D01*
X148870500Y-128143000D01*
X147983750Y-128143000D01*
X147825000Y-128301750D01*
X147821928Y-128491000D01*
X147834188Y-128615482D01*
X147870498Y-128735180D01*
X147929463Y-128845494D01*
X148008815Y-128942185D01*
X148105506Y-129021537D01*
X148117597Y-129028000D01*
X122432000Y-129028000D01*
X122432000Y-121041091D01*
X123908000Y-121041091D01*
X123908000Y-121274909D01*
X123953616Y-121504235D01*
X124008000Y-121635529D01*
X124008001Y-123739596D01*
X124002741Y-123793000D01*
X124020387Y-123972157D01*
X124023729Y-124006089D01*
X124050652Y-124094841D01*
X124085885Y-124210989D01*
X124186820Y-124399827D01*
X124233478Y-124456679D01*
X124322657Y-124565344D01*
X124364135Y-124599384D01*
X126974312Y-127209562D01*
X126976728Y-127234088D01*
X127038884Y-127438988D01*
X127139820Y-127627827D01*
X127275656Y-127793344D01*
X127441173Y-127929180D01*
X127630011Y-128030116D01*
X127834911Y-128092272D01*
X128048000Y-128113259D01*
X128261088Y-128092272D01*
X128465988Y-128030116D01*
X128654827Y-127929180D01*
X128820344Y-127793344D01*
X128832291Y-127778787D01*
X128858498Y-127865180D01*
X128917463Y-127975494D01*
X128996815Y-128072185D01*
X129093506Y-128151537D01*
X129203820Y-128210502D01*
X129323518Y-128246812D01*
X129448000Y-128259072D01*
X129762250Y-128256000D01*
X129921000Y-128097250D01*
X129921000Y-126873000D01*
X130175000Y-126873000D01*
X130175000Y-128097250D01*
X130333750Y-128256000D01*
X130648000Y-128259072D01*
X130772482Y-128246812D01*
X130892180Y-128210502D01*
X131002494Y-128151537D01*
X131099185Y-128072185D01*
X131178537Y-127975494D01*
X131237502Y-127865180D01*
X131273812Y-127745482D01*
X131286072Y-127621000D01*
X131283000Y-127031750D01*
X131124250Y-126873000D01*
X130175000Y-126873000D01*
X129921000Y-126873000D01*
X129901000Y-126873000D01*
X129901000Y-126619000D01*
X129921000Y-126619000D01*
X129921000Y-125394750D01*
X130175000Y-125394750D01*
X130175000Y-126619000D01*
X131124250Y-126619000D01*
X131283000Y-126460250D01*
X131283222Y-126417603D01*
X138010000Y-126417603D01*
X138010000Y-127074396D01*
X138025728Y-127234088D01*
X138087884Y-127438988D01*
X138188820Y-127627827D01*
X138324656Y-127793344D01*
X138490173Y-127929180D01*
X138679011Y-128030116D01*
X138883911Y-128092272D01*
X139097000Y-128113259D01*
X139310088Y-128092272D01*
X139514988Y-128030116D01*
X139703827Y-127929180D01*
X139869344Y-127793344D01*
X140005180Y-127627827D01*
X140037602Y-127567169D01*
X140063924Y-127653940D01*
X140132248Y-127781765D01*
X140224196Y-127893804D01*
X140336235Y-127985752D01*
X140464060Y-128054076D01*
X140602758Y-128096150D01*
X140746999Y-128110356D01*
X141447001Y-128110356D01*
X141591242Y-128096150D01*
X141729940Y-128054076D01*
X141857765Y-127985752D01*
X141969804Y-127893804D01*
X142061752Y-127781765D01*
X142130076Y-127653940D01*
X142172150Y-127515242D01*
X142186356Y-127371001D01*
X142186356Y-126120999D01*
X142172150Y-125976758D01*
X142130076Y-125838060D01*
X142061752Y-125710235D01*
X141969804Y-125598196D01*
X141857765Y-125506248D01*
X141729940Y-125437924D01*
X141591242Y-125395850D01*
X141447001Y-125381644D01*
X140746999Y-125381644D01*
X140602758Y-125395850D01*
X140464060Y-125437924D01*
X140336235Y-125506248D01*
X140224196Y-125598196D01*
X140132248Y-125710235D01*
X140063924Y-125838060D01*
X140037602Y-125924831D01*
X140005180Y-125864173D01*
X139869344Y-125698656D01*
X139703827Y-125562820D01*
X139514989Y-125461884D01*
X139310089Y-125399728D01*
X139097000Y-125378741D01*
X138883912Y-125399728D01*
X138679012Y-125461884D01*
X138490174Y-125562820D01*
X138324657Y-125698656D01*
X138188821Y-125864173D01*
X138087885Y-126053011D01*
X138025728Y-126257911D01*
X138010000Y-126417603D01*
X131283222Y-126417603D01*
X131286072Y-125871000D01*
X131273812Y-125746518D01*
X131237502Y-125626820D01*
X131178537Y-125516506D01*
X131099185Y-125419815D01*
X131002494Y-125340463D01*
X130892180Y-125281498D01*
X130772482Y-125245188D01*
X130648000Y-125232928D01*
X130333750Y-125236000D01*
X130175000Y-125394750D01*
X129921000Y-125394750D01*
X129762250Y-125236000D01*
X129448000Y-125232928D01*
X129323518Y-125245188D01*
X129203820Y-125281498D01*
X129093506Y-125340463D01*
X128996815Y-125419815D01*
X128917463Y-125516506D01*
X128858498Y-125626820D01*
X128832291Y-125713213D01*
X128820344Y-125698656D01*
X128654827Y-125562820D01*
X128465989Y-125461884D01*
X128261089Y-125399728D01*
X128236562Y-125397312D01*
X126182000Y-123342751D01*
X126182000Y-121635529D01*
X126236384Y-121504235D01*
X126282000Y-121274909D01*
X126282000Y-121041091D01*
X126236384Y-120811765D01*
X126146905Y-120595745D01*
X126017003Y-120401332D01*
X125851668Y-120235997D01*
X125657255Y-120106095D01*
X125441235Y-120016616D01*
X125211909Y-119971000D01*
X124978091Y-119971000D01*
X124748765Y-120016616D01*
X124532745Y-120106095D01*
X124338332Y-120235997D01*
X124172997Y-120401332D01*
X124043095Y-120595745D01*
X123953616Y-120811765D01*
X123908000Y-121041091D01*
X122432000Y-121041091D01*
X122432000Y-115961091D01*
X123908000Y-115961091D01*
X123908000Y-116194909D01*
X123953616Y-116424235D01*
X124043095Y-116640255D01*
X124172997Y-116834668D01*
X124338332Y-117000003D01*
X124532745Y-117129905D01*
X124748765Y-117219384D01*
X124978091Y-117265000D01*
X125211909Y-117265000D01*
X125441235Y-117219384D01*
X125657255Y-117129905D01*
X125851668Y-117000003D01*
X126017003Y-116834668D01*
X126146905Y-116640255D01*
X126236384Y-116424235D01*
X126282000Y-116194909D01*
X126282000Y-115961091D01*
X131528000Y-115961091D01*
X131528000Y-116194909D01*
X131573616Y-116424235D01*
X131663095Y-116640255D01*
X131792997Y-116834668D01*
X131958332Y-117000003D01*
X132152745Y-117129905D01*
X132368765Y-117219384D01*
X132598091Y-117265000D01*
X132831909Y-117265000D01*
X133061235Y-117219384D01*
X133277255Y-117129905D01*
X133471668Y-117000003D01*
X133637003Y-116834668D01*
X133766905Y-116640255D01*
X133856384Y-116424235D01*
X133902000Y-116194909D01*
X133902000Y-115961091D01*
X133856384Y-115731765D01*
X133766905Y-115515745D01*
X133637003Y-115321332D01*
X133471668Y-115155997D01*
X133277255Y-115026095D01*
X133061235Y-114936616D01*
X132831909Y-114891000D01*
X132598091Y-114891000D01*
X132368765Y-114936616D01*
X132152745Y-115026095D01*
X131958332Y-115155997D01*
X131792997Y-115321332D01*
X131663095Y-115515745D01*
X131573616Y-115731765D01*
X131528000Y-115961091D01*
X126282000Y-115961091D01*
X126236384Y-115731765D01*
X126146905Y-115515745D01*
X126017003Y-115321332D01*
X125851668Y-115155997D01*
X125657255Y-115026095D01*
X125441235Y-114936616D01*
X125211909Y-114891000D01*
X124978091Y-114891000D01*
X124748765Y-114936616D01*
X124532745Y-115026095D01*
X124338332Y-115155997D01*
X124172997Y-115321332D01*
X124043095Y-115515745D01*
X123953616Y-115731765D01*
X123908000Y-115961091D01*
X122432000Y-115961091D01*
X122432000Y-102678000D01*
X123905644Y-102678000D01*
X123905644Y-104078000D01*
X123915047Y-104173469D01*
X123942894Y-104265268D01*
X123988115Y-104349872D01*
X124048973Y-104424027D01*
X124123128Y-104484885D01*
X124207732Y-104530106D01*
X124299531Y-104557953D01*
X124395000Y-104567356D01*
X125795000Y-104567356D01*
X125890469Y-104557953D01*
X125982268Y-104530106D01*
X126066872Y-104484885D01*
X126141027Y-104424027D01*
X126201885Y-104349872D01*
X126247106Y-104265268D01*
X126274953Y-104173469D01*
X126284356Y-104078000D01*
X126284356Y-102678000D01*
X126274953Y-102582531D01*
X126247106Y-102490732D01*
X126201885Y-102406128D01*
X126141027Y-102331973D01*
X126066872Y-102271115D01*
X125982268Y-102225894D01*
X125890469Y-102198047D01*
X125795000Y-102188644D01*
X124395000Y-102188644D01*
X124299531Y-102198047D01*
X124207732Y-102225894D01*
X124123128Y-102271115D01*
X124048973Y-102331973D01*
X123988115Y-102406128D01*
X123942894Y-102490732D01*
X123915047Y-102582531D01*
X123905644Y-102678000D01*
X122432000Y-102678000D01*
X122432000Y-92243543D01*
X126125000Y-92243543D01*
X126125000Y-92536457D01*
X126182145Y-92823742D01*
X126294238Y-93094359D01*
X126456972Y-93337907D01*
X126664093Y-93545028D01*
X126907641Y-93707762D01*
X127178258Y-93819855D01*
X127465543Y-93877000D01*
X127758457Y-93877000D01*
X128045742Y-93819855D01*
X128316359Y-93707762D01*
X128559907Y-93545028D01*
X128767028Y-93337907D01*
X128929762Y-93094359D01*
X129041855Y-92823742D01*
X129099000Y-92536457D01*
X129099000Y-92243543D01*
X129041855Y-91956258D01*
X128929762Y-91685641D01*
X128767028Y-91442093D01*
X128559907Y-91234972D01*
X128316359Y-91072238D01*
X128045742Y-90960145D01*
X127758457Y-90903000D01*
X127465543Y-90903000D01*
X127178258Y-90960145D01*
X126907641Y-91072238D01*
X126664093Y-91234972D01*
X126456972Y-91442093D01*
X126294238Y-91685641D01*
X126182145Y-91956258D01*
X126125000Y-92243543D01*
X122432000Y-92243543D01*
X122432000Y-74143543D01*
X127625000Y-74143543D01*
X127625000Y-74436457D01*
X127682145Y-74723742D01*
X127794238Y-74994359D01*
X127956972Y-75237907D01*
X128164093Y-75445028D01*
X128407641Y-75607762D01*
X128678258Y-75719855D01*
X128965543Y-75777000D01*
X129258457Y-75777000D01*
X129545742Y-75719855D01*
X129816359Y-75607762D01*
X130059907Y-75445028D01*
X130267028Y-75237907D01*
X130429762Y-74994359D01*
X130541855Y-74723742D01*
X130599000Y-74436457D01*
X130599000Y-74143543D01*
X163025000Y-74143543D01*
X163025000Y-74436457D01*
X163082145Y-74723742D01*
X163194238Y-74994359D01*
X163356972Y-75237907D01*
X163564093Y-75445028D01*
X163807641Y-75607762D01*
X164078258Y-75719855D01*
X164365543Y-75777000D01*
X164658457Y-75777000D01*
X164945742Y-75719855D01*
X165216359Y-75607762D01*
X165459907Y-75445028D01*
X165667028Y-75237907D01*
X165829762Y-74994359D01*
X165941855Y-74723742D01*
X165999000Y-74436457D01*
X165999000Y-74143543D01*
X165941855Y-73856258D01*
X165829762Y-73585641D01*
X165667028Y-73342093D01*
X165459907Y-73134972D01*
X165216359Y-72972238D01*
X164945742Y-72860145D01*
X164658457Y-72803000D01*
X164365543Y-72803000D01*
X164078258Y-72860145D01*
X163807641Y-72972238D01*
X163564093Y-73134972D01*
X163356972Y-73342093D01*
X163194238Y-73585641D01*
X163082145Y-73856258D01*
X163025000Y-74143543D01*
X130599000Y-74143543D01*
X130541855Y-73856258D01*
X130429762Y-73585641D01*
X130267028Y-73342093D01*
X130059907Y-73134972D01*
X129816359Y-72972238D01*
X129545742Y-72860145D01*
X129258457Y-72803000D01*
X128965543Y-72803000D01*
X128678258Y-72860145D01*
X128407641Y-72972238D01*
X128164093Y-73134972D01*
X127956972Y-73342093D01*
X127794238Y-73585641D01*
X127682145Y-73856258D01*
X127625000Y-74143543D01*
X122432000Y-74143543D01*
X122432000Y-70362000D01*
X170938001Y-70362000D01*
X170938000Y-72364852D01*
G37*
%TD.AperFunction*%
D27*
X163449000Y-104521000D02*
X163469000Y-104521000D01*
X163469000Y-104775000D01*
X163449000Y-104775000D01*
X163449000Y-106099250D01*
X163607750Y-106258000D01*
X163622000Y-106261072D01*
X163746482Y-106248812D01*
X163866180Y-106212502D01*
X163976494Y-106153537D01*
X164073185Y-106074185D01*
X164117026Y-106020765D01*
X164197329Y-106063688D01*
X164317268Y-106100071D01*
X164442000Y-106112356D01*
X164742000Y-106112356D01*
X164866732Y-106100071D01*
X164986671Y-106063688D01*
X165097207Y-106004605D01*
X165194093Y-105925093D01*
X165227000Y-105884996D01*
X165250000Y-105913021D01*
X165250001Y-114138271D01*
X162664000Y-111552271D01*
X162664000Y-106150660D01*
X162667506Y-106153537D01*
X162777820Y-106212502D01*
X162897518Y-106248812D01*
X163022000Y-106261072D01*
X163036250Y-106258000D01*
X163195000Y-106099250D01*
X163195000Y-104775000D01*
X163175000Y-104775000D01*
X163175000Y-104521000D01*
X163195000Y-104521000D01*
X163195000Y-104501000D01*
X163449000Y-104501000D01*
X163449000Y-104521000D01*
%TA.AperFunction,Conductor*%
D28*
G36*
X163449000Y-104521000D02*
G01*
X163469000Y-104521000D01*
X163469000Y-104775000D01*
X163449000Y-104775000D01*
X163449000Y-106099250D01*
X163607750Y-106258000D01*
X163622000Y-106261072D01*
X163746482Y-106248812D01*
X163866180Y-106212502D01*
X163976494Y-106153537D01*
X164073185Y-106074185D01*
X164117026Y-106020765D01*
X164197329Y-106063688D01*
X164317268Y-106100071D01*
X164442000Y-106112356D01*
X164742000Y-106112356D01*
X164866732Y-106100071D01*
X164986671Y-106063688D01*
X165097207Y-106004605D01*
X165194093Y-105925093D01*
X165227000Y-105884996D01*
X165250000Y-105913021D01*
X165250001Y-114138271D01*
X162664000Y-111552271D01*
X162664000Y-106150660D01*
X162667506Y-106153537D01*
X162777820Y-106212502D01*
X162897518Y-106248812D01*
X163022000Y-106261072D01*
X163036250Y-106258000D01*
X163195000Y-106099250D01*
X163195000Y-104775000D01*
X163175000Y-104775000D01*
X163175000Y-104521000D01*
X163195000Y-104521000D01*
X163195000Y-104501000D01*
X163449000Y-104501000D01*
X163449000Y-104521000D01*
G37*
%TD.AperFunction*%
%TD*%
M02*
