%TF.GenerationSoftware,KiCad,Pcbnew,5.1.7-a382d34a8~88~ubuntu18.04.1*%
%TF.CreationDate,2021-02-25T09:41:41-05:00*%
%TF.ProjectId,FaultLatcher,4661756c-744c-4617-9463-6865722e6b69,rev?*%
%TF.SameCoordinates,Original*%
%TF.FileFunction,Legend,Bot*%
%TF.FilePolarity,Positive*%
%FSLAX46Y46*%
G04 Gerber Fmt 4.6, Leading zero omitted, Abs format (unit mm)*
G04 Created by KiCad (PCBNEW 5.1.7-a382d34a8~88~ubuntu18.04.1) date 2021-02-25 09:41:41*
%MOMM*%
%LPD*%
G01*
G04 APERTURE LIST*
%ADD10C,0.300000*%
%ADD11C,0.127000*%
%ADD12C,0.500000*%
%ADD13C,0.120000*%
%ADD14C,0.050000*%
%ADD15C,0.150000*%
G04 APERTURE END LIST*
D10*
X140834285Y-100373571D02*
X140834285Y-98873571D01*
X140120000Y-100373571D02*
X140120000Y-98873571D01*
X139620000Y-99945000D01*
X139120000Y-98873571D01*
X139120000Y-100373571D01*
X138405714Y-100373571D02*
X138405714Y-98873571D01*
X138048571Y-98873571D01*
X137834285Y-98945000D01*
X137691428Y-99087857D01*
X137620000Y-99230714D01*
X137548571Y-99516428D01*
X137548571Y-99730714D01*
X137620000Y-100016428D01*
X137691428Y-100159285D01*
X137834285Y-100302142D01*
X138048571Y-100373571D01*
X138405714Y-100373571D01*
X131834285Y-99587857D02*
X131620000Y-99659285D01*
X131548571Y-99730714D01*
X131477142Y-99873571D01*
X131477142Y-100087857D01*
X131548571Y-100230714D01*
X131620000Y-100302142D01*
X131762857Y-100373571D01*
X132334285Y-100373571D01*
X132334285Y-98873571D01*
X131834285Y-98873571D01*
X131691428Y-98945000D01*
X131620000Y-99016428D01*
X131548571Y-99159285D01*
X131548571Y-99302142D01*
X131620000Y-99445000D01*
X131691428Y-99516428D01*
X131834285Y-99587857D01*
X132334285Y-99587857D01*
X130834285Y-100373571D02*
X130834285Y-98873571D01*
X130334285Y-99945000D01*
X129834285Y-98873571D01*
X129834285Y-100373571D01*
X129191428Y-100302142D02*
X128977142Y-100373571D01*
X128620000Y-100373571D01*
X128477142Y-100302142D01*
X128405714Y-100230714D01*
X128334285Y-100087857D01*
X128334285Y-99945000D01*
X128405714Y-99802142D01*
X128477142Y-99730714D01*
X128620000Y-99659285D01*
X128905714Y-99587857D01*
X129048571Y-99516428D01*
X129120000Y-99445000D01*
X129191428Y-99302142D01*
X129191428Y-99159285D01*
X129120000Y-99016428D01*
X129048571Y-98945000D01*
X128905714Y-98873571D01*
X128548571Y-98873571D01*
X128334285Y-98945000D01*
D11*
%TO.C,J2*%
X162512000Y-94890000D02*
X162512000Y-75290000D01*
X160512000Y-73290000D02*
X133112000Y-73290000D01*
X131112000Y-75290000D02*
X131112000Y-94890000D01*
X133112000Y-96890000D02*
X160512000Y-96890000D01*
X126412000Y-101140000D02*
X167212000Y-101140000D01*
X171212000Y-97140000D02*
X171212000Y-73040000D01*
X167212000Y-69040000D02*
X126412000Y-69040000D01*
X122412000Y-73040000D02*
X122412000Y-97140000D01*
D12*
X172320000Y-81090000D02*
G75*
G03*
X172320000Y-81090000I-175000J0D01*
G01*
D11*
X122412000Y-97140000D02*
G75*
G03*
X126412000Y-101140000I4000000J0D01*
G01*
X126412000Y-69040000D02*
G75*
G03*
X122412000Y-73040000I0J-4000000D01*
G01*
X171212000Y-73040000D02*
G75*
G03*
X167212000Y-69040000I-4000000J0D01*
G01*
X167212000Y-101140000D02*
G75*
G03*
X171212000Y-97140000I0J4000000D01*
G01*
X160512000Y-96890000D02*
G75*
G03*
X162512000Y-94890000I0J2000000D01*
G01*
X131112000Y-94890000D02*
G75*
G03*
X133112000Y-96890000I2000000J0D01*
G01*
X133112000Y-73290000D02*
G75*
G03*
X131112000Y-75290000I0J-2000000D01*
G01*
X162512000Y-75290000D02*
G75*
G03*
X160512000Y-73290000I-2000000J0D01*
G01*
D13*
%TO.C,R8*%
X139460500Y-110387224D02*
X139460500Y-109877776D01*
X138415500Y-110387224D02*
X138415500Y-109877776D01*
%TO.C,F1*%
X148150000Y-101015252D02*
X148150000Y-98242748D01*
X151570000Y-101015252D02*
X151570000Y-98242748D01*
%TO.C,D4*%
X138084000Y-119491000D02*
X141984000Y-119491000D01*
X138084000Y-117491000D02*
X141984000Y-117491000D01*
X138084000Y-119491000D02*
X138084000Y-117491000D01*
%TO.C,D1*%
X131537000Y-105680000D02*
X127637000Y-105680000D01*
X131537000Y-107680000D02*
X127637000Y-107680000D01*
X131537000Y-105680000D02*
X131537000Y-107680000D01*
%TO.C,Y1*%
X165284000Y-108112000D02*
X163284000Y-108112000D01*
X163284000Y-111712000D02*
X165284000Y-111712000D01*
X162884000Y-110662000D02*
X162484000Y-110662000D01*
X165284000Y-111912000D02*
X163284000Y-111912000D01*
X163284000Y-108112000D02*
X162884000Y-108112000D01*
X163284000Y-111712000D02*
X162884000Y-111712000D01*
X163284000Y-111912000D02*
X162884000Y-111912000D01*
X165284000Y-111712000D02*
X165284000Y-111562000D01*
X162884000Y-111712000D02*
X162884000Y-111562000D01*
X162884000Y-110662000D02*
X162884000Y-110712000D01*
X162884000Y-108112000D02*
X162884000Y-108262000D01*
X165284000Y-108112000D02*
X165284000Y-108262000D01*
%TO.C,R5*%
X159235224Y-119492500D02*
X158725776Y-119492500D01*
X159235224Y-120537500D02*
X158725776Y-120537500D01*
%TO.C,R4*%
X140574500Y-108052776D02*
X140574500Y-108562224D01*
X141619500Y-108052776D02*
X141619500Y-108562224D01*
%TO.C,R1*%
X129300500Y-119150224D02*
X129300500Y-118640776D01*
X128255500Y-119150224D02*
X128255500Y-118640776D01*
%TO.C,Q4*%
X139070000Y-113556000D02*
X140000000Y-113556000D01*
X142230000Y-113556000D02*
X141300000Y-113556000D01*
X142230000Y-113556000D02*
X142230000Y-115716000D01*
X139070000Y-113556000D02*
X139070000Y-115016000D01*
%TO.C,Q1*%
X130358000Y-114568000D02*
X129428000Y-114568000D01*
X127198000Y-114568000D02*
X128128000Y-114568000D01*
X127198000Y-114568000D02*
X127198000Y-112408000D01*
X130358000Y-114568000D02*
X130358000Y-113108000D01*
%TO.C,C6*%
X149350000Y-106687233D02*
X149350000Y-106979767D01*
X150370000Y-106687233D02*
X150370000Y-106979767D01*
%TO.C,C5*%
X150370000Y-110863767D02*
X150370000Y-110571233D01*
X149350000Y-110863767D02*
X149350000Y-110571233D01*
%TO.C,C3*%
X162440233Y-120398000D02*
X162732767Y-120398000D01*
X162440233Y-119378000D02*
X162732767Y-119378000D01*
%TO.C,C2*%
X151010233Y-119759000D02*
X151302767Y-119759000D01*
X151010233Y-120779000D02*
X151302767Y-120779000D01*
%TO.C,J2*%
D14*
X168234093Y-69844632D02*
X168234093Y-70845546D01*
X168300820Y-71045729D01*
X168434276Y-71179184D01*
X168634459Y-71245912D01*
X168767914Y-71245912D01*
X167633544Y-69978087D02*
X167566817Y-69911360D01*
X167433361Y-69844632D01*
X167099723Y-69844632D01*
X166966268Y-69911360D01*
X166899540Y-69978087D01*
X166832813Y-70111542D01*
X166832813Y-70244998D01*
X166899540Y-70445180D01*
X167700272Y-71245912D01*
X166832813Y-71245912D01*
%TO.C,R8*%
D15*
X141136666Y-111704380D02*
X141470000Y-111228190D01*
X141708095Y-111704380D02*
X141708095Y-110704380D01*
X141327142Y-110704380D01*
X141231904Y-110752000D01*
X141184285Y-110799619D01*
X141136666Y-110894857D01*
X141136666Y-111037714D01*
X141184285Y-111132952D01*
X141231904Y-111180571D01*
X141327142Y-111228190D01*
X141708095Y-111228190D01*
X140565238Y-111132952D02*
X140660476Y-111085333D01*
X140708095Y-111037714D01*
X140755714Y-110942476D01*
X140755714Y-110894857D01*
X140708095Y-110799619D01*
X140660476Y-110752000D01*
X140565238Y-110704380D01*
X140374761Y-110704380D01*
X140279523Y-110752000D01*
X140231904Y-110799619D01*
X140184285Y-110894857D01*
X140184285Y-110942476D01*
X140231904Y-111037714D01*
X140279523Y-111085333D01*
X140374761Y-111132952D01*
X140565238Y-111132952D01*
X140660476Y-111180571D01*
X140708095Y-111228190D01*
X140755714Y-111323428D01*
X140755714Y-111513904D01*
X140708095Y-111609142D01*
X140660476Y-111656761D01*
X140565238Y-111704380D01*
X140374761Y-111704380D01*
X140279523Y-111656761D01*
X140231904Y-111609142D01*
X140184285Y-111513904D01*
X140184285Y-111323428D01*
X140231904Y-111228190D01*
X140279523Y-111180571D01*
X140374761Y-111132952D01*
%TO.C,F1*%
X152438571Y-99295666D02*
X152438571Y-98962333D01*
X152962380Y-98962333D02*
X151962380Y-98962333D01*
X151962380Y-99438523D01*
X152962380Y-100343285D02*
X152962380Y-99771857D01*
X152962380Y-100057571D02*
X151962380Y-100057571D01*
X152105238Y-99962333D01*
X152200476Y-99867095D01*
X152248095Y-99771857D01*
%TO.C,D4*%
X141072095Y-120943380D02*
X141072095Y-119943380D01*
X140834000Y-119943380D01*
X140691142Y-119991000D01*
X140595904Y-120086238D01*
X140548285Y-120181476D01*
X140500666Y-120371952D01*
X140500666Y-120514809D01*
X140548285Y-120705285D01*
X140595904Y-120800523D01*
X140691142Y-120895761D01*
X140834000Y-120943380D01*
X141072095Y-120943380D01*
X139643523Y-120276714D02*
X139643523Y-120943380D01*
X139881619Y-119895761D02*
X140119714Y-120610047D01*
X139500666Y-120610047D01*
%TO.C,D1*%
X130025095Y-105132380D02*
X130025095Y-104132380D01*
X129787000Y-104132380D01*
X129644142Y-104180000D01*
X129548904Y-104275238D01*
X129501285Y-104370476D01*
X129453666Y-104560952D01*
X129453666Y-104703809D01*
X129501285Y-104894285D01*
X129548904Y-104989523D01*
X129644142Y-105084761D01*
X129787000Y-105132380D01*
X130025095Y-105132380D01*
X128501285Y-105132380D02*
X129072714Y-105132380D01*
X128787000Y-105132380D02*
X128787000Y-104132380D01*
X128882238Y-104275238D01*
X128977476Y-104370476D01*
X129072714Y-104418095D01*
%TO.C,Y1*%
X161139190Y-109251809D02*
X161615380Y-109251809D01*
X160615380Y-108918476D02*
X161139190Y-109251809D01*
X160615380Y-109585142D01*
X161615380Y-110442285D02*
X161615380Y-109870857D01*
X161615380Y-110156571D02*
X160615380Y-110156571D01*
X160758238Y-110061333D01*
X160853476Y-109966095D01*
X160901095Y-109870857D01*
%TO.C,R5*%
X159020166Y-121991380D02*
X159353500Y-121515190D01*
X159591595Y-121991380D02*
X159591595Y-120991380D01*
X159210642Y-120991380D01*
X159115404Y-121039000D01*
X159067785Y-121086619D01*
X159020166Y-121181857D01*
X159020166Y-121324714D01*
X159067785Y-121419952D01*
X159115404Y-121467571D01*
X159210642Y-121515190D01*
X159591595Y-121515190D01*
X158115404Y-120991380D02*
X158591595Y-120991380D01*
X158639214Y-121467571D01*
X158591595Y-121419952D01*
X158496357Y-121372333D01*
X158258261Y-121372333D01*
X158163023Y-121419952D01*
X158115404Y-121467571D01*
X158067785Y-121562809D01*
X158067785Y-121800904D01*
X158115404Y-121896142D01*
X158163023Y-121943761D01*
X158258261Y-121991380D01*
X158496357Y-121991380D01*
X158591595Y-121943761D01*
X158639214Y-121896142D01*
%TO.C,R4*%
X139358666Y-107513380D02*
X139692000Y-107037190D01*
X139930095Y-107513380D02*
X139930095Y-106513380D01*
X139549142Y-106513380D01*
X139453904Y-106561000D01*
X139406285Y-106608619D01*
X139358666Y-106703857D01*
X139358666Y-106846714D01*
X139406285Y-106941952D01*
X139453904Y-106989571D01*
X139549142Y-107037190D01*
X139930095Y-107037190D01*
X138501523Y-106846714D02*
X138501523Y-107513380D01*
X138739619Y-106465761D02*
X138977714Y-107180047D01*
X138358666Y-107180047D01*
%TO.C,R1*%
X130660380Y-118728833D02*
X130184190Y-118395500D01*
X130660380Y-118157404D02*
X129660380Y-118157404D01*
X129660380Y-118538357D01*
X129708000Y-118633595D01*
X129755619Y-118681214D01*
X129850857Y-118728833D01*
X129993714Y-118728833D01*
X130088952Y-118681214D01*
X130136571Y-118633595D01*
X130184190Y-118538357D01*
X130184190Y-118157404D01*
X130660380Y-119681214D02*
X130660380Y-119109785D01*
X130660380Y-119395500D02*
X129660380Y-119395500D01*
X129803238Y-119300261D01*
X129898476Y-119205023D01*
X129946095Y-119109785D01*
%TO.C,Q4*%
X143697619Y-114220761D02*
X143650000Y-114125523D01*
X143554761Y-114030285D01*
X143411904Y-113887428D01*
X143364285Y-113792190D01*
X143364285Y-113696952D01*
X143602380Y-113744571D02*
X143554761Y-113649333D01*
X143459523Y-113554095D01*
X143269047Y-113506476D01*
X142935714Y-113506476D01*
X142745238Y-113554095D01*
X142650000Y-113649333D01*
X142602380Y-113744571D01*
X142602380Y-113935047D01*
X142650000Y-114030285D01*
X142745238Y-114125523D01*
X142935714Y-114173142D01*
X143269047Y-114173142D01*
X143459523Y-114125523D01*
X143554761Y-114030285D01*
X143602380Y-113935047D01*
X143602380Y-113744571D01*
X142935714Y-115030285D02*
X143602380Y-115030285D01*
X142554761Y-114792190D02*
X143269047Y-114554095D01*
X143269047Y-115173142D01*
%TO.C,Q1*%
X126825619Y-113712761D02*
X126778000Y-113617523D01*
X126682761Y-113522285D01*
X126539904Y-113379428D01*
X126492285Y-113284190D01*
X126492285Y-113188952D01*
X126730380Y-113236571D02*
X126682761Y-113141333D01*
X126587523Y-113046095D01*
X126397047Y-112998476D01*
X126063714Y-112998476D01*
X125873238Y-113046095D01*
X125778000Y-113141333D01*
X125730380Y-113236571D01*
X125730380Y-113427047D01*
X125778000Y-113522285D01*
X125873238Y-113617523D01*
X126063714Y-113665142D01*
X126397047Y-113665142D01*
X126587523Y-113617523D01*
X126682761Y-113522285D01*
X126730380Y-113427047D01*
X126730380Y-113236571D01*
X126730380Y-114617523D02*
X126730380Y-114046095D01*
X126730380Y-114331809D02*
X125730380Y-114331809D01*
X125873238Y-114236571D01*
X125968476Y-114141333D01*
X126016095Y-114046095D01*
%TO.C,C6*%
X151487142Y-106894333D02*
X151534761Y-106846714D01*
X151582380Y-106703857D01*
X151582380Y-106608619D01*
X151534761Y-106465761D01*
X151439523Y-106370523D01*
X151344285Y-106322904D01*
X151153809Y-106275285D01*
X151010952Y-106275285D01*
X150820476Y-106322904D01*
X150725238Y-106370523D01*
X150630000Y-106465761D01*
X150582380Y-106608619D01*
X150582380Y-106703857D01*
X150630000Y-106846714D01*
X150677619Y-106894333D01*
X150582380Y-107751476D02*
X150582380Y-107561000D01*
X150630000Y-107465761D01*
X150677619Y-107418142D01*
X150820476Y-107322904D01*
X151010952Y-107275285D01*
X151391904Y-107275285D01*
X151487142Y-107322904D01*
X151534761Y-107370523D01*
X151582380Y-107465761D01*
X151582380Y-107656238D01*
X151534761Y-107751476D01*
X151487142Y-107799095D01*
X151391904Y-107846714D01*
X151153809Y-107846714D01*
X151058571Y-107799095D01*
X151010952Y-107751476D01*
X150963333Y-107656238D01*
X150963333Y-107465761D01*
X151010952Y-107370523D01*
X151058571Y-107322904D01*
X151153809Y-107275285D01*
%TO.C,C5*%
X151647142Y-110550833D02*
X151694761Y-110503214D01*
X151742380Y-110360357D01*
X151742380Y-110265119D01*
X151694761Y-110122261D01*
X151599523Y-110027023D01*
X151504285Y-109979404D01*
X151313809Y-109931785D01*
X151170952Y-109931785D01*
X150980476Y-109979404D01*
X150885238Y-110027023D01*
X150790000Y-110122261D01*
X150742380Y-110265119D01*
X150742380Y-110360357D01*
X150790000Y-110503214D01*
X150837619Y-110550833D01*
X150742380Y-111455595D02*
X150742380Y-110979404D01*
X151218571Y-110931785D01*
X151170952Y-110979404D01*
X151123333Y-111074642D01*
X151123333Y-111312738D01*
X151170952Y-111407976D01*
X151218571Y-111455595D01*
X151313809Y-111503214D01*
X151551904Y-111503214D01*
X151647142Y-111455595D01*
X151694761Y-111407976D01*
X151742380Y-111312738D01*
X151742380Y-111074642D01*
X151694761Y-110979404D01*
X151647142Y-110931785D01*
%TO.C,C3*%
X164504666Y-118594142D02*
X164552285Y-118641761D01*
X164695142Y-118689380D01*
X164790380Y-118689380D01*
X164933238Y-118641761D01*
X165028476Y-118546523D01*
X165076095Y-118451285D01*
X165123714Y-118260809D01*
X165123714Y-118117952D01*
X165076095Y-117927476D01*
X165028476Y-117832238D01*
X164933238Y-117737000D01*
X164790380Y-117689380D01*
X164695142Y-117689380D01*
X164552285Y-117737000D01*
X164504666Y-117784619D01*
X164171333Y-117689380D02*
X163552285Y-117689380D01*
X163885619Y-118070333D01*
X163742761Y-118070333D01*
X163647523Y-118117952D01*
X163599904Y-118165571D01*
X163552285Y-118260809D01*
X163552285Y-118498904D01*
X163599904Y-118594142D01*
X163647523Y-118641761D01*
X163742761Y-118689380D01*
X164028476Y-118689380D01*
X164123714Y-118641761D01*
X164171333Y-118594142D01*
%TO.C,C2*%
X148132357Y-122340666D02*
X148084738Y-122388285D01*
X148037119Y-122531142D01*
X148037119Y-122626380D01*
X148084738Y-122769238D01*
X148179976Y-122864476D01*
X148275214Y-122912095D01*
X148465690Y-122959714D01*
X148608547Y-122959714D01*
X148799023Y-122912095D01*
X148894261Y-122864476D01*
X148989500Y-122769238D01*
X149037119Y-122626380D01*
X149037119Y-122531142D01*
X148989500Y-122388285D01*
X148941880Y-122340666D01*
X148941880Y-121959714D02*
X148989500Y-121912095D01*
X149037119Y-121816857D01*
X149037119Y-121578761D01*
X148989500Y-121483523D01*
X148941880Y-121435904D01*
X148846642Y-121388285D01*
X148751404Y-121388285D01*
X148608547Y-121435904D01*
X148037119Y-122007333D01*
X148037119Y-121388285D01*
%TD*%
M02*
