%TF.GenerationSoftware,KiCad,Pcbnew,5.1.7-a382d34a8~88~ubuntu18.04.1*%
%TF.CreationDate,2021-02-25T09:45:04-05:00*%
%TF.ProjectId,PedalBaord,50656461-6c42-4616-9f72-642e6b696361,rev?*%
%TF.SameCoordinates,Original*%
%TF.FileFunction,Copper,L1,Top*%
%TF.FilePolarity,Positive*%
%FSLAX46Y46*%
G04 Gerber Fmt 4.6, Leading zero omitted, Abs format (unit mm)*
G04 Created by KiCad (PCBNEW 5.1.7-a382d34a8~88~ubuntu18.04.1) date 2021-02-25 09:45:04*
%MOMM*%
%LPD*%
G01*
G04 APERTURE LIST*
%TA.AperFunction,ComponentPad*%
%ADD10O,1.500000X2.300000*%
%TD*%
%TA.AperFunction,ComponentPad*%
%ADD11R,1.500000X2.300000*%
%TD*%
%TA.AperFunction,SMDPad,CuDef*%
%ADD12R,0.550000X1.600000*%
%TD*%
%TA.AperFunction,SMDPad,CuDef*%
%ADD13R,1.600000X0.550000*%
%TD*%
%TA.AperFunction,ComponentPad*%
%ADD14C,2.625000*%
%TD*%
%TA.AperFunction,ComponentPad*%
%ADD15R,2.625000X2.625000*%
%TD*%
%TA.AperFunction,ComponentPad*%
%ADD16O,1.700000X1.700000*%
%TD*%
%TA.AperFunction,ComponentPad*%
%ADD17R,1.700000X1.700000*%
%TD*%
%TA.AperFunction,ViaPad*%
%ADD18C,0.800000*%
%TD*%
%TA.AperFunction,Conductor*%
%ADD19C,0.600000*%
%TD*%
%TA.AperFunction,Conductor*%
%ADD20C,0.360000*%
%TD*%
%TA.AperFunction,Conductor*%
%ADD21C,0.254000*%
%TD*%
%TA.AperFunction,Conductor*%
%ADD22C,0.100000*%
%TD*%
G04 APERTURE END LIST*
%TO.P,U5,16*%
%TO.N,+5V*%
%TA.AperFunction,SMDPad,CuDef*%
G36*
G01*
X124230000Y-78590000D02*
X124230000Y-78890000D01*
G75*
G02*
X124080000Y-79040000I-150000J0D01*
G01*
X122430000Y-79040000D01*
G75*
G02*
X122280000Y-78890000I0J150000D01*
G01*
X122280000Y-78590000D01*
G75*
G02*
X122430000Y-78440000I150000J0D01*
G01*
X124080000Y-78440000D01*
G75*
G02*
X124230000Y-78590000I0J-150000D01*
G01*
G37*
%TD.AperFunction*%
%TO.P,U5,15*%
%TA.AperFunction,SMDPad,CuDef*%
G36*
G01*
X124230000Y-77320000D02*
X124230000Y-77620000D01*
G75*
G02*
X124080000Y-77770000I-150000J0D01*
G01*
X122430000Y-77770000D01*
G75*
G02*
X122280000Y-77620000I0J150000D01*
G01*
X122280000Y-77320000D01*
G75*
G02*
X122430000Y-77170000I150000J0D01*
G01*
X124080000Y-77170000D01*
G75*
G02*
X124230000Y-77320000I0J-150000D01*
G01*
G37*
%TD.AperFunction*%
%TO.P,U5,14*%
%TO.N,GND*%
%TA.AperFunction,SMDPad,CuDef*%
G36*
G01*
X124230000Y-76050000D02*
X124230000Y-76350000D01*
G75*
G02*
X124080000Y-76500000I-150000J0D01*
G01*
X122430000Y-76500000D01*
G75*
G02*
X122280000Y-76350000I0J150000D01*
G01*
X122280000Y-76050000D01*
G75*
G02*
X122430000Y-75900000I150000J0D01*
G01*
X124080000Y-75900000D01*
G75*
G02*
X124230000Y-76050000I0J-150000D01*
G01*
G37*
%TD.AperFunction*%
%TO.P,U5,13*%
%TO.N,/SCK*%
%TA.AperFunction,SMDPad,CuDef*%
G36*
G01*
X124230000Y-74780000D02*
X124230000Y-75080000D01*
G75*
G02*
X124080000Y-75230000I-150000J0D01*
G01*
X122430000Y-75230000D01*
G75*
G02*
X122280000Y-75080000I0J150000D01*
G01*
X122280000Y-74780000D01*
G75*
G02*
X122430000Y-74630000I150000J0D01*
G01*
X124080000Y-74630000D01*
G75*
G02*
X124230000Y-74780000I0J-150000D01*
G01*
G37*
%TD.AperFunction*%
%TO.P,U5,12*%
%TO.N,/MISO*%
%TA.AperFunction,SMDPad,CuDef*%
G36*
G01*
X124230000Y-73510000D02*
X124230000Y-73810000D01*
G75*
G02*
X124080000Y-73960000I-150000J0D01*
G01*
X122430000Y-73960000D01*
G75*
G02*
X122280000Y-73810000I0J150000D01*
G01*
X122280000Y-73510000D01*
G75*
G02*
X122430000Y-73360000I150000J0D01*
G01*
X124080000Y-73360000D01*
G75*
G02*
X124230000Y-73510000I0J-150000D01*
G01*
G37*
%TD.AperFunction*%
%TO.P,U5,11*%
%TO.N,/MOSI*%
%TA.AperFunction,SMDPad,CuDef*%
G36*
G01*
X124230000Y-72240000D02*
X124230000Y-72540000D01*
G75*
G02*
X124080000Y-72690000I-150000J0D01*
G01*
X122430000Y-72690000D01*
G75*
G02*
X122280000Y-72540000I0J150000D01*
G01*
X122280000Y-72240000D01*
G75*
G02*
X122430000Y-72090000I150000J0D01*
G01*
X124080000Y-72090000D01*
G75*
G02*
X124230000Y-72240000I0J-150000D01*
G01*
G37*
%TD.AperFunction*%
%TO.P,U5,10*%
%TO.N,/ADC_CS*%
%TA.AperFunction,SMDPad,CuDef*%
G36*
G01*
X124230000Y-70970000D02*
X124230000Y-71270000D01*
G75*
G02*
X124080000Y-71420000I-150000J0D01*
G01*
X122430000Y-71420000D01*
G75*
G02*
X122280000Y-71270000I0J150000D01*
G01*
X122280000Y-70970000D01*
G75*
G02*
X122430000Y-70820000I150000J0D01*
G01*
X124080000Y-70820000D01*
G75*
G02*
X124230000Y-70970000I0J-150000D01*
G01*
G37*
%TD.AperFunction*%
%TO.P,U5,9*%
%TO.N,GND*%
%TA.AperFunction,SMDPad,CuDef*%
G36*
G01*
X124230000Y-69700000D02*
X124230000Y-70000000D01*
G75*
G02*
X124080000Y-70150000I-150000J0D01*
G01*
X122430000Y-70150000D01*
G75*
G02*
X122280000Y-70000000I0J150000D01*
G01*
X122280000Y-69700000D01*
G75*
G02*
X122430000Y-69550000I150000J0D01*
G01*
X124080000Y-69550000D01*
G75*
G02*
X124230000Y-69700000I0J-150000D01*
G01*
G37*
%TD.AperFunction*%
%TO.P,U5,8*%
%TO.N,N/C*%
%TA.AperFunction,SMDPad,CuDef*%
G36*
G01*
X129180000Y-69700000D02*
X129180000Y-70000000D01*
G75*
G02*
X129030000Y-70150000I-150000J0D01*
G01*
X127380000Y-70150000D01*
G75*
G02*
X127230000Y-70000000I0J150000D01*
G01*
X127230000Y-69700000D01*
G75*
G02*
X127380000Y-69550000I150000J0D01*
G01*
X129030000Y-69550000D01*
G75*
G02*
X129180000Y-69700000I0J-150000D01*
G01*
G37*
%TD.AperFunction*%
%TO.P,U5,7*%
%TA.AperFunction,SMDPad,CuDef*%
G36*
G01*
X129180000Y-70970000D02*
X129180000Y-71270000D01*
G75*
G02*
X129030000Y-71420000I-150000J0D01*
G01*
X127380000Y-71420000D01*
G75*
G02*
X127230000Y-71270000I0J150000D01*
G01*
X127230000Y-70970000D01*
G75*
G02*
X127380000Y-70820000I150000J0D01*
G01*
X129030000Y-70820000D01*
G75*
G02*
X129180000Y-70970000I0J-150000D01*
G01*
G37*
%TD.AperFunction*%
%TO.P,U5,6*%
%TA.AperFunction,SMDPad,CuDef*%
G36*
G01*
X129180000Y-72240000D02*
X129180000Y-72540000D01*
G75*
G02*
X129030000Y-72690000I-150000J0D01*
G01*
X127380000Y-72690000D01*
G75*
G02*
X127230000Y-72540000I0J150000D01*
G01*
X127230000Y-72240000D01*
G75*
G02*
X127380000Y-72090000I150000J0D01*
G01*
X129030000Y-72090000D01*
G75*
G02*
X129180000Y-72240000I0J-150000D01*
G01*
G37*
%TD.AperFunction*%
%TO.P,U5,5*%
%TA.AperFunction,SMDPad,CuDef*%
G36*
G01*
X129180000Y-73510000D02*
X129180000Y-73810000D01*
G75*
G02*
X129030000Y-73960000I-150000J0D01*
G01*
X127380000Y-73960000D01*
G75*
G02*
X127230000Y-73810000I0J150000D01*
G01*
X127230000Y-73510000D01*
G75*
G02*
X127380000Y-73360000I150000J0D01*
G01*
X129030000Y-73360000D01*
G75*
G02*
X129180000Y-73510000I0J-150000D01*
G01*
G37*
%TD.AperFunction*%
%TO.P,U5,4*%
%TO.N,/DAMPER_R*%
%TA.AperFunction,SMDPad,CuDef*%
G36*
G01*
X129180000Y-74780000D02*
X129180000Y-75080000D01*
G75*
G02*
X129030000Y-75230000I-150000J0D01*
G01*
X127380000Y-75230000D01*
G75*
G02*
X127230000Y-75080000I0J150000D01*
G01*
X127230000Y-74780000D01*
G75*
G02*
X127380000Y-74630000I150000J0D01*
G01*
X129030000Y-74630000D01*
G75*
G02*
X129180000Y-74780000I0J-150000D01*
G01*
G37*
%TD.AperFunction*%
%TO.P,U5,3*%
%TO.N,/DAMPER_L*%
%TA.AperFunction,SMDPad,CuDef*%
G36*
G01*
X129180000Y-76050000D02*
X129180000Y-76350000D01*
G75*
G02*
X129030000Y-76500000I-150000J0D01*
G01*
X127380000Y-76500000D01*
G75*
G02*
X127230000Y-76350000I0J150000D01*
G01*
X127230000Y-76050000D01*
G75*
G02*
X127380000Y-75900000I150000J0D01*
G01*
X129030000Y-75900000D01*
G75*
G02*
X129180000Y-76050000I0J-150000D01*
G01*
G37*
%TD.AperFunction*%
%TO.P,U5,2*%
%TO.N,/WHEEL_R*%
%TA.AperFunction,SMDPad,CuDef*%
G36*
G01*
X129180000Y-77320000D02*
X129180000Y-77620000D01*
G75*
G02*
X129030000Y-77770000I-150000J0D01*
G01*
X127380000Y-77770000D01*
G75*
G02*
X127230000Y-77620000I0J150000D01*
G01*
X127230000Y-77320000D01*
G75*
G02*
X127380000Y-77170000I150000J0D01*
G01*
X129030000Y-77170000D01*
G75*
G02*
X129180000Y-77320000I0J-150000D01*
G01*
G37*
%TD.AperFunction*%
%TO.P,U5,1*%
%TO.N,/WHEEL_L*%
%TA.AperFunction,SMDPad,CuDef*%
G36*
G01*
X129180000Y-78590000D02*
X129180000Y-78890000D01*
G75*
G02*
X129030000Y-79040000I-150000J0D01*
G01*
X127380000Y-79040000D01*
G75*
G02*
X127230000Y-78890000I0J150000D01*
G01*
X127230000Y-78590000D01*
G75*
G02*
X127380000Y-78440000I150000J0D01*
G01*
X129030000Y-78440000D01*
G75*
G02*
X129180000Y-78590000I0J-150000D01*
G01*
G37*
%TD.AperFunction*%
%TD*%
%TO.P,C7,2*%
%TO.N,GND*%
%TA.AperFunction,SMDPad,CuDef*%
G36*
G01*
X126055000Y-80882500D02*
X126055000Y-80407500D01*
G75*
G02*
X126292500Y-80170000I237500J0D01*
G01*
X126892500Y-80170000D01*
G75*
G02*
X127130000Y-80407500I0J-237500D01*
G01*
X127130000Y-80882500D01*
G75*
G02*
X126892500Y-81120000I-237500J0D01*
G01*
X126292500Y-81120000D01*
G75*
G02*
X126055000Y-80882500I0J237500D01*
G01*
G37*
%TD.AperFunction*%
%TO.P,C7,1*%
%TO.N,+5V*%
%TA.AperFunction,SMDPad,CuDef*%
G36*
G01*
X124330000Y-80882500D02*
X124330000Y-80407500D01*
G75*
G02*
X124567500Y-80170000I237500J0D01*
G01*
X125167500Y-80170000D01*
G75*
G02*
X125405000Y-80407500I0J-237500D01*
G01*
X125405000Y-80882500D01*
G75*
G02*
X125167500Y-81120000I-237500J0D01*
G01*
X124567500Y-81120000D01*
G75*
G02*
X124330000Y-80882500I0J237500D01*
G01*
G37*
%TD.AperFunction*%
%TD*%
%TO.P,U3,18*%
%TO.N,+5V*%
%TA.AperFunction,SMDPad,CuDef*%
G36*
G01*
X135870000Y-80495000D02*
X135870000Y-80795000D01*
G75*
G02*
X135720000Y-80945000I-150000J0D01*
G01*
X133970000Y-80945000D01*
G75*
G02*
X133820000Y-80795000I0J150000D01*
G01*
X133820000Y-80495000D01*
G75*
G02*
X133970000Y-80345000I150000J0D01*
G01*
X135720000Y-80345000D01*
G75*
G02*
X135870000Y-80495000I0J-150000D01*
G01*
G37*
%TD.AperFunction*%
%TO.P,U3,17*%
%TO.N,Net-(R4-Pad2)*%
%TA.AperFunction,SMDPad,CuDef*%
G36*
G01*
X135870000Y-79225000D02*
X135870000Y-79525000D01*
G75*
G02*
X135720000Y-79675000I-150000J0D01*
G01*
X133970000Y-79675000D01*
G75*
G02*
X133820000Y-79525000I0J150000D01*
G01*
X133820000Y-79225000D01*
G75*
G02*
X133970000Y-79075000I150000J0D01*
G01*
X135720000Y-79075000D01*
G75*
G02*
X135870000Y-79225000I0J-150000D01*
G01*
G37*
%TD.AperFunction*%
%TO.P,U3,16*%
%TO.N,/CAN_CS*%
%TA.AperFunction,SMDPad,CuDef*%
G36*
G01*
X135870000Y-77955000D02*
X135870000Y-78255000D01*
G75*
G02*
X135720000Y-78405000I-150000J0D01*
G01*
X133970000Y-78405000D01*
G75*
G02*
X133820000Y-78255000I0J150000D01*
G01*
X133820000Y-77955000D01*
G75*
G02*
X133970000Y-77805000I150000J0D01*
G01*
X135720000Y-77805000D01*
G75*
G02*
X135870000Y-77955000I0J-150000D01*
G01*
G37*
%TD.AperFunction*%
%TO.P,U3,15*%
%TO.N,/MISO*%
%TA.AperFunction,SMDPad,CuDef*%
G36*
G01*
X135870000Y-76685000D02*
X135870000Y-76985000D01*
G75*
G02*
X135720000Y-77135000I-150000J0D01*
G01*
X133970000Y-77135000D01*
G75*
G02*
X133820000Y-76985000I0J150000D01*
G01*
X133820000Y-76685000D01*
G75*
G02*
X133970000Y-76535000I150000J0D01*
G01*
X135720000Y-76535000D01*
G75*
G02*
X135870000Y-76685000I0J-150000D01*
G01*
G37*
%TD.AperFunction*%
%TO.P,U3,14*%
%TO.N,/MOSI*%
%TA.AperFunction,SMDPad,CuDef*%
G36*
G01*
X135870000Y-75415000D02*
X135870000Y-75715000D01*
G75*
G02*
X135720000Y-75865000I-150000J0D01*
G01*
X133970000Y-75865000D01*
G75*
G02*
X133820000Y-75715000I0J150000D01*
G01*
X133820000Y-75415000D01*
G75*
G02*
X133970000Y-75265000I150000J0D01*
G01*
X135720000Y-75265000D01*
G75*
G02*
X135870000Y-75415000I0J-150000D01*
G01*
G37*
%TD.AperFunction*%
%TO.P,U3,13*%
%TO.N,/SCK*%
%TA.AperFunction,SMDPad,CuDef*%
G36*
G01*
X135870000Y-74145000D02*
X135870000Y-74445000D01*
G75*
G02*
X135720000Y-74595000I-150000J0D01*
G01*
X133970000Y-74595000D01*
G75*
G02*
X133820000Y-74445000I0J150000D01*
G01*
X133820000Y-74145000D01*
G75*
G02*
X133970000Y-73995000I150000J0D01*
G01*
X135720000Y-73995000D01*
G75*
G02*
X135870000Y-74145000I0J-150000D01*
G01*
G37*
%TD.AperFunction*%
%TO.P,U3,12*%
%TO.N,/CAN_INT*%
%TA.AperFunction,SMDPad,CuDef*%
G36*
G01*
X135870000Y-72875000D02*
X135870000Y-73175000D01*
G75*
G02*
X135720000Y-73325000I-150000J0D01*
G01*
X133970000Y-73325000D01*
G75*
G02*
X133820000Y-73175000I0J150000D01*
G01*
X133820000Y-72875000D01*
G75*
G02*
X133970000Y-72725000I150000J0D01*
G01*
X135720000Y-72725000D01*
G75*
G02*
X135870000Y-72875000I0J-150000D01*
G01*
G37*
%TD.AperFunction*%
%TO.P,U3,11*%
%TO.N,N/C*%
%TA.AperFunction,SMDPad,CuDef*%
G36*
G01*
X135870000Y-71605000D02*
X135870000Y-71905000D01*
G75*
G02*
X135720000Y-72055000I-150000J0D01*
G01*
X133970000Y-72055000D01*
G75*
G02*
X133820000Y-71905000I0J150000D01*
G01*
X133820000Y-71605000D01*
G75*
G02*
X133970000Y-71455000I150000J0D01*
G01*
X135720000Y-71455000D01*
G75*
G02*
X135870000Y-71605000I0J-150000D01*
G01*
G37*
%TD.AperFunction*%
%TO.P,U3,10*%
%TA.AperFunction,SMDPad,CuDef*%
G36*
G01*
X135870000Y-70335000D02*
X135870000Y-70635000D01*
G75*
G02*
X135720000Y-70785000I-150000J0D01*
G01*
X133970000Y-70785000D01*
G75*
G02*
X133820000Y-70635000I0J150000D01*
G01*
X133820000Y-70335000D01*
G75*
G02*
X133970000Y-70185000I150000J0D01*
G01*
X135720000Y-70185000D01*
G75*
G02*
X135870000Y-70335000I0J-150000D01*
G01*
G37*
%TD.AperFunction*%
%TO.P,U3,9*%
%TO.N,GND*%
%TA.AperFunction,SMDPad,CuDef*%
G36*
G01*
X145170000Y-70335000D02*
X145170000Y-70635000D01*
G75*
G02*
X145020000Y-70785000I-150000J0D01*
G01*
X143270000Y-70785000D01*
G75*
G02*
X143120000Y-70635000I0J150000D01*
G01*
X143120000Y-70335000D01*
G75*
G02*
X143270000Y-70185000I150000J0D01*
G01*
X145020000Y-70185000D01*
G75*
G02*
X145170000Y-70335000I0J-150000D01*
G01*
G37*
%TD.AperFunction*%
%TO.P,U3,8*%
%TO.N,Net-(U3-Pad8)*%
%TA.AperFunction,SMDPad,CuDef*%
G36*
G01*
X145170000Y-71605000D02*
X145170000Y-71905000D01*
G75*
G02*
X145020000Y-72055000I-150000J0D01*
G01*
X143270000Y-72055000D01*
G75*
G02*
X143120000Y-71905000I0J150000D01*
G01*
X143120000Y-71605000D01*
G75*
G02*
X143270000Y-71455000I150000J0D01*
G01*
X145020000Y-71455000D01*
G75*
G02*
X145170000Y-71605000I0J-150000D01*
G01*
G37*
%TD.AperFunction*%
%TO.P,U3,7*%
%TO.N,Net-(U3-Pad7)*%
%TA.AperFunction,SMDPad,CuDef*%
G36*
G01*
X145170000Y-72875000D02*
X145170000Y-73175000D01*
G75*
G02*
X145020000Y-73325000I-150000J0D01*
G01*
X143270000Y-73325000D01*
G75*
G02*
X143120000Y-73175000I0J150000D01*
G01*
X143120000Y-72875000D01*
G75*
G02*
X143270000Y-72725000I150000J0D01*
G01*
X145020000Y-72725000D01*
G75*
G02*
X145170000Y-72875000I0J-150000D01*
G01*
G37*
%TD.AperFunction*%
%TO.P,U3,6*%
%TO.N,N/C*%
%TA.AperFunction,SMDPad,CuDef*%
G36*
G01*
X145170000Y-74145000D02*
X145170000Y-74445000D01*
G75*
G02*
X145020000Y-74595000I-150000J0D01*
G01*
X143270000Y-74595000D01*
G75*
G02*
X143120000Y-74445000I0J150000D01*
G01*
X143120000Y-74145000D01*
G75*
G02*
X143270000Y-73995000I150000J0D01*
G01*
X145020000Y-73995000D01*
G75*
G02*
X145170000Y-74145000I0J-150000D01*
G01*
G37*
%TD.AperFunction*%
%TO.P,U3,5*%
%TA.AperFunction,SMDPad,CuDef*%
G36*
G01*
X145170000Y-75415000D02*
X145170000Y-75715000D01*
G75*
G02*
X145020000Y-75865000I-150000J0D01*
G01*
X143270000Y-75865000D01*
G75*
G02*
X143120000Y-75715000I0J150000D01*
G01*
X143120000Y-75415000D01*
G75*
G02*
X143270000Y-75265000I150000J0D01*
G01*
X145020000Y-75265000D01*
G75*
G02*
X145170000Y-75415000I0J-150000D01*
G01*
G37*
%TD.AperFunction*%
%TO.P,U3,4*%
%TA.AperFunction,SMDPad,CuDef*%
G36*
G01*
X145170000Y-76685000D02*
X145170000Y-76985000D01*
G75*
G02*
X145020000Y-77135000I-150000J0D01*
G01*
X143270000Y-77135000D01*
G75*
G02*
X143120000Y-76985000I0J150000D01*
G01*
X143120000Y-76685000D01*
G75*
G02*
X143270000Y-76535000I150000J0D01*
G01*
X145020000Y-76535000D01*
G75*
G02*
X145170000Y-76685000I0J-150000D01*
G01*
G37*
%TD.AperFunction*%
%TO.P,U3,3*%
%TA.AperFunction,SMDPad,CuDef*%
G36*
G01*
X145170000Y-77955000D02*
X145170000Y-78255000D01*
G75*
G02*
X145020000Y-78405000I-150000J0D01*
G01*
X143270000Y-78405000D01*
G75*
G02*
X143120000Y-78255000I0J150000D01*
G01*
X143120000Y-77955000D01*
G75*
G02*
X143270000Y-77805000I150000J0D01*
G01*
X145020000Y-77805000D01*
G75*
G02*
X145170000Y-77955000I0J-150000D01*
G01*
G37*
%TD.AperFunction*%
%TO.P,U3,2*%
%TO.N,/RXCAN*%
%TA.AperFunction,SMDPad,CuDef*%
G36*
G01*
X145170000Y-79225000D02*
X145170000Y-79525000D01*
G75*
G02*
X145020000Y-79675000I-150000J0D01*
G01*
X143270000Y-79675000D01*
G75*
G02*
X143120000Y-79525000I0J150000D01*
G01*
X143120000Y-79225000D01*
G75*
G02*
X143270000Y-79075000I150000J0D01*
G01*
X145020000Y-79075000D01*
G75*
G02*
X145170000Y-79225000I0J-150000D01*
G01*
G37*
%TD.AperFunction*%
%TO.P,U3,1*%
%TO.N,/TXCAN*%
%TA.AperFunction,SMDPad,CuDef*%
G36*
G01*
X145170000Y-80495000D02*
X145170000Y-80795000D01*
G75*
G02*
X145020000Y-80945000I-150000J0D01*
G01*
X143270000Y-80945000D01*
G75*
G02*
X143120000Y-80795000I0J150000D01*
G01*
X143120000Y-80495000D01*
G75*
G02*
X143270000Y-80345000I150000J0D01*
G01*
X145020000Y-80345000D01*
G75*
G02*
X145170000Y-80495000I0J-150000D01*
G01*
G37*
%TD.AperFunction*%
%TD*%
D10*
%TO.P,U2,3*%
%TO.N,+5V*%
X158115000Y-75565000D03*
%TO.P,U2,2*%
%TO.N,GND*%
X155575000Y-75565000D03*
D11*
%TO.P,U2,1*%
%TO.N,Net-(C3-Pad1)*%
X153035000Y-75565000D03*
%TD*%
D12*
%TO.P,U1,32*%
%TO.N,/CAN_INT*%
X111060000Y-70045000D03*
%TO.P,U1,31*%
%TO.N,N/C*%
X111860000Y-70045000D03*
%TO.P,U1,30*%
X112660000Y-70045000D03*
%TO.P,U1,29*%
%TO.N,/RESET*%
X113460000Y-70045000D03*
%TO.P,U1,28*%
%TO.N,N/C*%
X114260000Y-70045000D03*
%TO.P,U1,27*%
%TO.N,/ACC0*%
X115060000Y-70045000D03*
%TO.P,U1,26*%
%TO.N,/ACC1*%
X115860000Y-70045000D03*
%TO.P,U1,25*%
%TO.N,/BRAKE0*%
X116660000Y-70045000D03*
D13*
%TO.P,U1,24*%
%TO.N,/BRAKE1*%
X118110000Y-71495000D03*
%TO.P,U1,23*%
%TO.N,/STEER*%
X118110000Y-72295000D03*
%TO.P,U1,22*%
%TO.N,N/C*%
X118110000Y-73095000D03*
%TO.P,U1,21*%
%TO.N,GND*%
X118110000Y-73895000D03*
%TO.P,U1,20*%
%TO.N,Net-(C2-Pad1)*%
X118110000Y-74695000D03*
%TO.P,U1,19*%
%TO.N,N/C*%
X118110000Y-75495000D03*
%TO.P,U1,18*%
%TO.N,+5V*%
X118110000Y-76295000D03*
%TO.P,U1,17*%
%TO.N,/SCK*%
X118110000Y-77095000D03*
D12*
%TO.P,U1,16*%
%TO.N,/MISO*%
X116660000Y-78545000D03*
%TO.P,U1,15*%
%TO.N,/MOSI*%
X115860000Y-78545000D03*
%TO.P,U1,14*%
%TO.N,N/C*%
X115060000Y-78545000D03*
%TO.P,U1,13*%
%TO.N,/ADC_CS*%
X114260000Y-78545000D03*
%TO.P,U1,12*%
%TO.N,N/C*%
X113460000Y-78545000D03*
%TO.P,U1,11*%
X112660000Y-78545000D03*
%TO.P,U1,10*%
X111860000Y-78545000D03*
%TO.P,U1,9*%
%TO.N,/CAN_CS*%
X111060000Y-78545000D03*
D13*
%TO.P,U1,8*%
%TO.N,N/C*%
X109610000Y-77095000D03*
%TO.P,U1,7*%
X109610000Y-76295000D03*
%TO.P,U1,6*%
%TO.N,+5V*%
X109610000Y-75495000D03*
%TO.P,U1,5*%
%TO.N,GND*%
X109610000Y-74695000D03*
%TO.P,U1,4*%
%TO.N,+5V*%
X109610000Y-73895000D03*
%TO.P,U1,3*%
%TO.N,GND*%
X109610000Y-73095000D03*
%TO.P,U1,2*%
%TO.N,N/C*%
X109610000Y-72295000D03*
%TO.P,U1,1*%
X109610000Y-71495000D03*
%TD*%
%TO.P,R3,2*%
%TO.N,+5V*%
%TA.AperFunction,SMDPad,CuDef*%
G36*
G01*
X150007500Y-80247500D02*
X150007500Y-79772500D01*
G75*
G02*
X150245000Y-79535000I237500J0D01*
G01*
X150745000Y-79535000D01*
G75*
G02*
X150982500Y-79772500I0J-237500D01*
G01*
X150982500Y-80247500D01*
G75*
G02*
X150745000Y-80485000I-237500J0D01*
G01*
X150245000Y-80485000D01*
G75*
G02*
X150007500Y-80247500I0J237500D01*
G01*
G37*
%TD.AperFunction*%
%TO.P,R3,1*%
%TO.N,Net-(D1-Pad2)*%
%TA.AperFunction,SMDPad,CuDef*%
G36*
G01*
X148182500Y-80247500D02*
X148182500Y-79772500D01*
G75*
G02*
X148420000Y-79535000I237500J0D01*
G01*
X148920000Y-79535000D01*
G75*
G02*
X149157500Y-79772500I0J-237500D01*
G01*
X149157500Y-80247500D01*
G75*
G02*
X148920000Y-80485000I-237500J0D01*
G01*
X148420000Y-80485000D01*
G75*
G02*
X148182500Y-80247500I0J237500D01*
G01*
G37*
%TD.AperFunction*%
%TD*%
%TO.P,R2,2*%
%TO.N,GND*%
%TA.AperFunction,SMDPad,CuDef*%
G36*
G01*
X117622500Y-66912500D02*
X117622500Y-66437500D01*
G75*
G02*
X117860000Y-66200000I237500J0D01*
G01*
X118360000Y-66200000D01*
G75*
G02*
X118597500Y-66437500I0J-237500D01*
G01*
X118597500Y-66912500D01*
G75*
G02*
X118360000Y-67150000I-237500J0D01*
G01*
X117860000Y-67150000D01*
G75*
G02*
X117622500Y-66912500I0J237500D01*
G01*
G37*
%TD.AperFunction*%
%TO.P,R2,1*%
%TO.N,/ACC1*%
%TA.AperFunction,SMDPad,CuDef*%
G36*
G01*
X115797500Y-66912500D02*
X115797500Y-66437500D01*
G75*
G02*
X116035000Y-66200000I237500J0D01*
G01*
X116535000Y-66200000D01*
G75*
G02*
X116772500Y-66437500I0J-237500D01*
G01*
X116772500Y-66912500D01*
G75*
G02*
X116535000Y-67150000I-237500J0D01*
G01*
X116035000Y-67150000D01*
G75*
G02*
X115797500Y-66912500I0J237500D01*
G01*
G37*
%TD.AperFunction*%
%TD*%
%TO.P,R1,2*%
%TO.N,GND*%
%TA.AperFunction,SMDPad,CuDef*%
G36*
G01*
X112962500Y-66437500D02*
X112962500Y-66912500D01*
G75*
G02*
X112725000Y-67150000I-237500J0D01*
G01*
X112225000Y-67150000D01*
G75*
G02*
X111987500Y-66912500I0J237500D01*
G01*
X111987500Y-66437500D01*
G75*
G02*
X112225000Y-66200000I237500J0D01*
G01*
X112725000Y-66200000D01*
G75*
G02*
X112962500Y-66437500I0J-237500D01*
G01*
G37*
%TD.AperFunction*%
%TO.P,R1,1*%
%TO.N,/ACC0*%
%TA.AperFunction,SMDPad,CuDef*%
G36*
G01*
X114787500Y-66437500D02*
X114787500Y-66912500D01*
G75*
G02*
X114550000Y-67150000I-237500J0D01*
G01*
X114050000Y-67150000D01*
G75*
G02*
X113812500Y-66912500I0J237500D01*
G01*
X113812500Y-66437500D01*
G75*
G02*
X114050000Y-66200000I237500J0D01*
G01*
X114550000Y-66200000D01*
G75*
G02*
X114787500Y-66437500I0J-237500D01*
G01*
G37*
%TD.AperFunction*%
%TD*%
D14*
%TO.P,J2,22*%
%TO.N,/CAN-*%
X142060000Y-60660000D03*
%TO.P,J2,21*%
%TO.N,/CAN+*%
X138060000Y-60660000D03*
%TO.P,J2,20*%
%TO.N,/WHEEL_L*%
X134060000Y-60660000D03*
%TO.P,J2,19*%
%TO.N,/WHEEL_R*%
X130060000Y-60660000D03*
%TO.P,J2,18*%
%TO.N,/DAMPER_R*%
X126060000Y-60660000D03*
%TO.P,J2,17*%
%TO.N,/BRAKE1*%
X122060000Y-60660000D03*
%TO.P,J2,14*%
%TO.N,/CAN-*%
X140060000Y-56660000D03*
%TO.P,J2,13*%
%TO.N,/CAN+*%
X136060000Y-56660000D03*
%TO.P,J2,12*%
%TO.N,/DAMPER_L*%
X132060000Y-56660000D03*
%TO.P,J2,11*%
%TO.N,/STEER*%
X128060000Y-56660000D03*
%TO.P,J2,10*%
%TO.N,/ACC1*%
X124060000Y-56660000D03*
%TO.P,J2,7*%
%TO.N,+5V*%
X142060000Y-52660000D03*
%TO.P,J2,6*%
X138060000Y-52660000D03*
%TO.P,J2,5*%
X134060000Y-52660000D03*
%TO.P,J2,4*%
%TO.N,GND*%
X130060000Y-52660000D03*
%TO.P,J2,3*%
X126060000Y-52660000D03*
%TO.P,J2,2*%
X122060000Y-52660000D03*
%TO.P,J2,23*%
%TO.N,+12V*%
X146060000Y-60660000D03*
%TO.P,J2,16*%
%TO.N,/BRAKE0*%
X118060000Y-60660000D03*
%TO.P,J2,15*%
%TO.N,+12V*%
X144060000Y-56660000D03*
%TO.P,J2,9*%
%TO.N,/ACC0*%
X120060000Y-56660000D03*
%TO.P,J2,8*%
%TO.N,+5V*%
X146060000Y-52660000D03*
D15*
%TO.P,J2,1*%
%TO.N,GND*%
X118060000Y-52660000D03*
%TD*%
D16*
%TO.P,J1,6*%
%TO.N,GND*%
X106045000Y-76200000D03*
%TO.P,J1,5*%
%TO.N,/RESET*%
X103505000Y-76200000D03*
%TO.P,J1,4*%
%TO.N,/MOSI*%
X106045000Y-73660000D03*
%TO.P,J1,3*%
%TO.N,/SCK*%
X103505000Y-73660000D03*
%TO.P,J1,2*%
%TO.N,+5V*%
X106045000Y-71120000D03*
D17*
%TO.P,J1,1*%
%TO.N,/MISO*%
X103505000Y-71120000D03*
%TD*%
%TO.P,D1,2*%
%TO.N,Net-(D1-Pad2)*%
%TA.AperFunction,SMDPad,CuDef*%
G36*
G01*
X148875000Y-77232500D02*
X148875000Y-77707500D01*
G75*
G02*
X148637500Y-77945000I-237500J0D01*
G01*
X148062500Y-77945000D01*
G75*
G02*
X147825000Y-77707500I0J237500D01*
G01*
X147825000Y-77232500D01*
G75*
G02*
X148062500Y-76995000I237500J0D01*
G01*
X148637500Y-76995000D01*
G75*
G02*
X148875000Y-77232500I0J-237500D01*
G01*
G37*
%TD.AperFunction*%
%TO.P,D1,1*%
%TO.N,GND*%
%TA.AperFunction,SMDPad,CuDef*%
G36*
G01*
X150625000Y-77232500D02*
X150625000Y-77707500D01*
G75*
G02*
X150387500Y-77945000I-237500J0D01*
G01*
X149812500Y-77945000D01*
G75*
G02*
X149575000Y-77707500I0J237500D01*
G01*
X149575000Y-77232500D01*
G75*
G02*
X149812500Y-76995000I237500J0D01*
G01*
X150387500Y-76995000D01*
G75*
G02*
X150625000Y-77232500I0J-237500D01*
G01*
G37*
%TD.AperFunction*%
%TD*%
%TO.P,C4,2*%
%TO.N,GND*%
%TA.AperFunction,SMDPad,CuDef*%
G36*
G01*
X156747500Y-79137500D02*
X156747500Y-79612500D01*
G75*
G02*
X156510000Y-79850000I-237500J0D01*
G01*
X155910000Y-79850000D01*
G75*
G02*
X155672500Y-79612500I0J237500D01*
G01*
X155672500Y-79137500D01*
G75*
G02*
X155910000Y-78900000I237500J0D01*
G01*
X156510000Y-78900000D01*
G75*
G02*
X156747500Y-79137500I0J-237500D01*
G01*
G37*
%TD.AperFunction*%
%TO.P,C4,1*%
%TO.N,+5V*%
%TA.AperFunction,SMDPad,CuDef*%
G36*
G01*
X158472500Y-79137500D02*
X158472500Y-79612500D01*
G75*
G02*
X158235000Y-79850000I-237500J0D01*
G01*
X157635000Y-79850000D01*
G75*
G02*
X157397500Y-79612500I0J237500D01*
G01*
X157397500Y-79137500D01*
G75*
G02*
X157635000Y-78900000I237500J0D01*
G01*
X158235000Y-78900000D01*
G75*
G02*
X158472500Y-79137500I0J-237500D01*
G01*
G37*
%TD.AperFunction*%
%TD*%
%TO.P,C3,2*%
%TO.N,GND*%
%TA.AperFunction,SMDPad,CuDef*%
G36*
G01*
X153767500Y-79612500D02*
X153767500Y-79137500D01*
G75*
G02*
X154005000Y-78900000I237500J0D01*
G01*
X154605000Y-78900000D01*
G75*
G02*
X154842500Y-79137500I0J-237500D01*
G01*
X154842500Y-79612500D01*
G75*
G02*
X154605000Y-79850000I-237500J0D01*
G01*
X154005000Y-79850000D01*
G75*
G02*
X153767500Y-79612500I0J237500D01*
G01*
G37*
%TD.AperFunction*%
%TO.P,C3,1*%
%TO.N,Net-(C3-Pad1)*%
%TA.AperFunction,SMDPad,CuDef*%
G36*
G01*
X152042500Y-79612500D02*
X152042500Y-79137500D01*
G75*
G02*
X152280000Y-78900000I237500J0D01*
G01*
X152880000Y-78900000D01*
G75*
G02*
X153117500Y-79137500I0J-237500D01*
G01*
X153117500Y-79612500D01*
G75*
G02*
X152880000Y-79850000I-237500J0D01*
G01*
X152280000Y-79850000D01*
G75*
G02*
X152042500Y-79612500I0J237500D01*
G01*
G37*
%TD.AperFunction*%
%TD*%
%TO.P,C1,2*%
%TO.N,GND*%
%TA.AperFunction,SMDPad,CuDef*%
G36*
G01*
X104857500Y-79137500D02*
X104857500Y-79612500D01*
G75*
G02*
X104620000Y-79850000I-237500J0D01*
G01*
X104020000Y-79850000D01*
G75*
G02*
X103782500Y-79612500I0J237500D01*
G01*
X103782500Y-79137500D01*
G75*
G02*
X104020000Y-78900000I237500J0D01*
G01*
X104620000Y-78900000D01*
G75*
G02*
X104857500Y-79137500I0J-237500D01*
G01*
G37*
%TD.AperFunction*%
%TO.P,C1,1*%
%TO.N,+5V*%
%TA.AperFunction,SMDPad,CuDef*%
G36*
G01*
X106582500Y-79137500D02*
X106582500Y-79612500D01*
G75*
G02*
X106345000Y-79850000I-237500J0D01*
G01*
X105745000Y-79850000D01*
G75*
G02*
X105507500Y-79612500I0J237500D01*
G01*
X105507500Y-79137500D01*
G75*
G02*
X105745000Y-78900000I237500J0D01*
G01*
X106345000Y-78900000D01*
G75*
G02*
X106582500Y-79137500I0J-237500D01*
G01*
G37*
%TD.AperFunction*%
%TD*%
D18*
%TO.N,*%
X154940000Y-80645000D03*
%TO.N,GND*%
X118110000Y-63500000D03*
X111760000Y-72390000D03*
X107950000Y-68580000D03*
X118745000Y-80645000D03*
X120650000Y-80645000D03*
X130810000Y-80645000D03*
X132715000Y-80645000D03*
X152400000Y-80645000D03*
X149860000Y-75565000D03*
X111633000Y-74676000D03*
X119888000Y-73152000D03*
X102997000Y-81280000D03*
X104521000Y-81280000D03*
X105918000Y-81280000D03*
%TO.N,+5V*%
X107950000Y-80010000D03*
X136525000Y-80645000D03*
%TO.N,Net-(C2-Pad1)*%
X116205000Y-74295000D03*
%TO.N,/MOSI*%
X125095000Y-72390000D03*
X132860000Y-75530024D03*
X115709995Y-77075000D03*
%TO.N,/SCK*%
X125095000Y-74930000D03*
X137160000Y-74930000D03*
%TO.N,/MISO*%
X125095000Y-73660000D03*
X132715000Y-76835000D03*
X116709998Y-77075000D03*
X125095000Y-73660000D03*
%TO.N,Net-(R4-Pad2)*%
X136525000Y-79375000D03*
%TO.N,/CAN_INT*%
X132860000Y-73025000D03*
X112395000Y-68580000D03*
%TO.N,/CAN_CS*%
X111760000Y-77144998D03*
X131445000Y-78105000D03*
%TO.N,Net-(U3-Pad8)*%
X140970000Y-71755000D03*
%TO.N,Net-(U3-Pad7)*%
X140970000Y-73025000D03*
%TO.N,/RXCAN*%
X142240000Y-76835000D03*
%TO.N,/TXCAN*%
X146050000Y-79375000D03*
%TO.N,/ADC_CS*%
X114300000Y-76835000D03*
X121285000Y-71120000D03*
%TD*%
D19*
%TO.N,+5V*%
X108585000Y-81915000D02*
X106045000Y-79375000D01*
X158115000Y-75565000D02*
X158115000Y-80645000D01*
X158115000Y-80645000D02*
X156845000Y-81915000D01*
X126365000Y-81915000D02*
X125730000Y-81915000D01*
X124867500Y-81052500D02*
X124867500Y-80645000D01*
X125730000Y-81915000D02*
X124867500Y-81052500D01*
X133985000Y-81915000D02*
X132715000Y-81915000D01*
X133985000Y-81915000D02*
X126365000Y-81915000D01*
X152400000Y-81915000D02*
X151130000Y-81915000D01*
X156845000Y-81915000D02*
X152400000Y-81915000D01*
X150495000Y-81280000D02*
X150495000Y-80010000D01*
X151130000Y-81915000D02*
X150495000Y-81280000D01*
X109855000Y-81915000D02*
X107950000Y-80010000D01*
X112395000Y-81915000D02*
X109855000Y-81915000D01*
X112395000Y-81915000D02*
X108585000Y-81915000D01*
X126365000Y-81915000D02*
X112395000Y-81915000D01*
D20*
X111195000Y-75495000D02*
X109610000Y-75495000D01*
X111195000Y-75495000D02*
X114230000Y-75495000D01*
X115030000Y-76295000D02*
X118110000Y-76295000D01*
X114230000Y-75495000D02*
X115030000Y-76295000D01*
X108650998Y-73895000D02*
X109610000Y-73895000D01*
X106894999Y-72139001D02*
X108650998Y-73895000D01*
X106045000Y-71120000D02*
X106894999Y-71969999D01*
X106894999Y-71969999D02*
X106894999Y-72139001D01*
X123255000Y-78740000D02*
X124460000Y-78740000D01*
X124867500Y-79147500D02*
X124867500Y-80645000D01*
X124460000Y-78740000D02*
X124867500Y-79147500D01*
X123255000Y-77470000D02*
X124460000Y-77470000D01*
X124867500Y-77877500D02*
X124867500Y-79147500D01*
X124460000Y-77470000D02*
X124867500Y-77877500D01*
D19*
X136525000Y-81915000D02*
X133985000Y-81915000D01*
D20*
X136525000Y-81915000D02*
X135255000Y-81915000D01*
D19*
X152400000Y-81915000D02*
X136525000Y-81915000D01*
D20*
X134845000Y-81505000D02*
X134845000Y-80645000D01*
X135255000Y-81915000D02*
X134845000Y-81505000D01*
X112630000Y-73895000D02*
X114230000Y-75495000D01*
X109610000Y-73895000D02*
X112630000Y-73895000D01*
X136525000Y-80645000D02*
X134845000Y-80645000D01*
%TO.N,Net-(C2-Pad1)*%
X118110000Y-74695000D02*
X116605000Y-74695000D01*
X116605000Y-74695000D02*
X116205000Y-74295000D01*
%TO.N,Net-(C3-Pad1)*%
X152580000Y-79375000D02*
X152580000Y-78560000D01*
X153035000Y-78105000D02*
X153035000Y-75565000D01*
X152580000Y-78560000D02*
X153035000Y-78105000D01*
%TO.N,Net-(D1-Pad2)*%
X148350000Y-77470000D02*
X148350000Y-78500000D01*
X148670000Y-78820000D02*
X148670000Y-80010000D01*
X148350000Y-78500000D02*
X148670000Y-78820000D01*
%TO.N,/RESET*%
X112769401Y-67799999D02*
X103650001Y-67799999D01*
X113460000Y-70045000D02*
X113460000Y-68490598D01*
X113460000Y-68490598D02*
X112769401Y-67799999D01*
X103650001Y-67799999D02*
X102235000Y-69215000D01*
X102235000Y-74930000D02*
X103505000Y-76200000D01*
X102235000Y-69215000D02*
X102235000Y-74930000D01*
%TO.N,/MOSI*%
X115354002Y-80010000D02*
X110688346Y-80010000D01*
X115860000Y-78545000D02*
X115860000Y-79504002D01*
X115860000Y-79504002D02*
X115354002Y-80010000D01*
X106117375Y-73660000D02*
X106045000Y-73660000D01*
X107875010Y-75417635D02*
X106117375Y-73660000D01*
X110688346Y-80010000D02*
X107875010Y-77196664D01*
X107875010Y-77196664D02*
X107875010Y-75417635D01*
X123255000Y-72390000D02*
X125095000Y-72390000D01*
X134810024Y-75530024D02*
X134845000Y-75565000D01*
X132860000Y-75530024D02*
X134810024Y-75530024D01*
X115860000Y-78545000D02*
X115860000Y-77225005D01*
X115860000Y-77225005D02*
X115709995Y-77075000D01*
%TO.N,/SCK*%
X104775000Y-77470000D02*
X104775000Y-74930000D01*
X118110000Y-78854002D02*
X115729012Y-81234990D01*
X118110000Y-77095000D02*
X118110000Y-78854002D01*
X104775000Y-74930000D02*
X103505000Y-73660000D01*
X115729012Y-81234990D02*
X110329392Y-81234990D01*
X110329392Y-81234990D02*
X107199402Y-78105000D01*
X105410000Y-78105000D02*
X104775000Y-77470000D01*
X107199402Y-78105000D02*
X105410000Y-78105000D01*
X118110000Y-77095000D02*
X119755000Y-77095000D01*
X121920000Y-74930000D02*
X123255000Y-74930000D01*
X119755000Y-77095000D02*
X121920000Y-74930000D01*
X123255000Y-74930000D02*
X125095000Y-74930000D01*
X137160000Y-74930000D02*
X136525000Y-74295000D01*
X136525000Y-74295000D02*
X134845000Y-74295000D01*
%TO.N,/MISO*%
X115519002Y-80645000D02*
X110531374Y-80645000D01*
X116660000Y-78545000D02*
X116660000Y-79504002D01*
X116660000Y-79504002D02*
X115519002Y-80645000D01*
X110531374Y-80645000D02*
X107315000Y-77428626D01*
X107315000Y-75649598D02*
X106595402Y-74930000D01*
X107315000Y-77428626D02*
X107315000Y-75649598D01*
X104735001Y-72350001D02*
X103505000Y-71120000D01*
X105410000Y-74773028D02*
X104735001Y-74098029D01*
X104735001Y-74098029D02*
X104735001Y-72350001D01*
X106595402Y-74930000D02*
X105410000Y-74930000D01*
X123255000Y-73660000D02*
X125095000Y-73660000D01*
X132715000Y-76835000D02*
X134845000Y-76835000D01*
X116660000Y-78545000D02*
X116660000Y-77124998D01*
X116660000Y-77124998D02*
X116709998Y-77075000D01*
%TO.N,/ACC1*%
X121752501Y-58967499D02*
X116927501Y-58967499D01*
X124060000Y-56660000D02*
X121752501Y-58967499D01*
X116285000Y-59610000D02*
X116285000Y-66675000D01*
X116927501Y-58967499D02*
X116285000Y-59610000D01*
X116285000Y-66675000D02*
X116285000Y-67230000D01*
X115860000Y-67655000D02*
X115860000Y-70045000D01*
X116285000Y-67230000D02*
X115860000Y-67655000D01*
%TO.N,/ACC0*%
X114300000Y-60803028D02*
X114300000Y-66675000D01*
X120060000Y-56660000D02*
X118443028Y-56660000D01*
X118443028Y-56660000D02*
X114300000Y-60803028D01*
X114300000Y-66675000D02*
X114300000Y-67945000D01*
X115060000Y-68705000D02*
X115060000Y-70045000D01*
X114300000Y-67945000D02*
X115060000Y-68705000D01*
%TO.N,/BRAKE1*%
X122060000Y-60660000D02*
X120015000Y-62705000D01*
X120015000Y-62705000D02*
X120015000Y-68736972D01*
X118110000Y-70641972D02*
X118110000Y-71495000D01*
X120015000Y-68736972D02*
X118110000Y-70641972D01*
%TO.N,/BRAKE0*%
X118060000Y-60660000D02*
X118445000Y-60660000D01*
X118060000Y-60660000D02*
X119380000Y-61980000D01*
X119380000Y-61980000D02*
X119380000Y-68580000D01*
X117915000Y-70045000D02*
X116660000Y-70045000D01*
X119380000Y-68580000D02*
X117915000Y-70045000D01*
%TO.N,/STEER*%
X120015000Y-71755000D02*
X119475000Y-72295000D01*
X119475000Y-72295000D02*
X118110000Y-72295000D01*
X120015000Y-71120000D02*
X120015000Y-71755000D01*
X120650000Y-70485000D02*
X120015000Y-71120000D01*
X126367499Y-58352501D02*
X125797499Y-58352501D01*
X128060000Y-56660000D02*
X126367499Y-58352501D01*
X125797499Y-58352501D02*
X123752501Y-60397499D01*
X123752501Y-61667499D02*
X120650000Y-64770000D01*
X123752501Y-60397499D02*
X123752501Y-61667499D01*
X120650000Y-64770000D02*
X120650000Y-70485000D01*
%TO.N,Net-(R4-Pad2)*%
X136525000Y-79375000D02*
X134845000Y-79375000D01*
%TO.N,/CAN_INT*%
X134845000Y-73025000D02*
X132860000Y-73025000D01*
X111060000Y-69085998D02*
X111060000Y-70045000D01*
X111565998Y-68580000D02*
X111060000Y-69085998D01*
X112395000Y-68580000D02*
X111565998Y-68580000D01*
%TO.N,/CAN_CS*%
X111300002Y-77144998D02*
X111760000Y-77144998D01*
X111060000Y-78545000D02*
X111060000Y-77385000D01*
X111060000Y-77385000D02*
X111300002Y-77144998D01*
X131445000Y-78105000D02*
X134845000Y-78105000D01*
%TO.N,Net-(U3-Pad8)*%
X140970000Y-71755000D02*
X144145000Y-71755000D01*
%TO.N,Net-(U3-Pad7)*%
X140970000Y-73025000D02*
X144145000Y-73025000D01*
%TO.N,/RXCAN*%
X142240000Y-76835000D02*
X142240000Y-78740000D01*
X142875000Y-79375000D02*
X144145000Y-79375000D01*
X142240000Y-78740000D02*
X142875000Y-79375000D01*
%TO.N,/TXCAN*%
X146050000Y-79375000D02*
X146050000Y-80010000D01*
X145415000Y-80645000D02*
X144145000Y-80645000D01*
X146050000Y-80010000D02*
X145415000Y-80645000D01*
%TO.N,/DAMPER_R*%
X129180000Y-74930000D02*
X130175000Y-73935000D01*
X128205000Y-74930000D02*
X129180000Y-74930000D01*
X130175000Y-73935000D02*
X130175000Y-67945000D01*
X126060000Y-63830000D02*
X126060000Y-60660000D01*
X130175000Y-67945000D02*
X126060000Y-63830000D01*
%TO.N,/DAMPER_L*%
X129180000Y-76200000D02*
X130810000Y-74570000D01*
X128205000Y-76200000D02*
X129180000Y-76200000D01*
X130810000Y-74570000D02*
X130810000Y-67788028D01*
X130564902Y-56660000D02*
X132060000Y-56660000D01*
X127752501Y-59472401D02*
X130564902Y-56660000D01*
X130810000Y-67788028D02*
X127752501Y-64730529D01*
X127752501Y-64730529D02*
X127752501Y-59472401D01*
%TO.N,/WHEEL_L*%
X129180000Y-78740000D02*
X132080000Y-75840000D01*
X128205000Y-78740000D02*
X129180000Y-78740000D01*
X132080000Y-75840000D02*
X132080000Y-66040000D01*
X134060000Y-64060000D02*
X134060000Y-60660000D01*
X132080000Y-66040000D02*
X134060000Y-64060000D01*
%TO.N,/WHEEL_R*%
X131370010Y-75279990D02*
X131370010Y-67235010D01*
X128205000Y-77470000D02*
X129180000Y-77470000D01*
X129180000Y-77470000D02*
X131370010Y-75279990D01*
X130060000Y-65925000D02*
X130060000Y-60660000D01*
X131370010Y-67235010D02*
X130060000Y-65925000D01*
%TO.N,/ADC_CS*%
X114260000Y-78545000D02*
X114260000Y-76875000D01*
X114260000Y-76875000D02*
X114300000Y-76835000D01*
X121285000Y-71120000D02*
X123255000Y-71120000D01*
%TD*%
D21*
%TO.N,+5V*%
X133013190Y-51009344D02*
X132881477Y-51301872D01*
X134060000Y-52480395D01*
X135238523Y-51301872D01*
X135107006Y-51009780D01*
X137012815Y-51010177D01*
X136881477Y-51301872D01*
X138060000Y-52480395D01*
X139238523Y-51301872D01*
X139107382Y-51010614D01*
X141012440Y-51011010D01*
X140881477Y-51301872D01*
X142060000Y-52480395D01*
X143238523Y-51301872D01*
X143107757Y-51011447D01*
X145012065Y-51011844D01*
X144881477Y-51301872D01*
X146060000Y-52480395D01*
X147238523Y-51301872D01*
X147108132Y-51012280D01*
X154339181Y-51013787D01*
X159893000Y-56567606D01*
X159893000Y-77343000D01*
X158242002Y-77343000D01*
X158242002Y-77184657D01*
X158456185Y-77307318D01*
X158527684Y-77293173D01*
X158778868Y-77187142D01*
X159004540Y-77034145D01*
X159196028Y-76840061D01*
X159345972Y-76612349D01*
X159448611Y-76359760D01*
X159500000Y-76092000D01*
X159500000Y-75692000D01*
X158242000Y-75692000D01*
X158242000Y-75712000D01*
X157988000Y-75712000D01*
X157988000Y-75692000D01*
X157968000Y-75692000D01*
X157968000Y-75438000D01*
X157988000Y-75438000D01*
X157988000Y-73945344D01*
X158242000Y-73945344D01*
X158242000Y-75438000D01*
X159500000Y-75438000D01*
X159500000Y-75038000D01*
X159448611Y-74770240D01*
X159345972Y-74517651D01*
X159196028Y-74289939D01*
X159004540Y-74095855D01*
X158778868Y-73942858D01*
X158527684Y-73836827D01*
X158456185Y-73822682D01*
X158242000Y-73945344D01*
X157988000Y-73945344D01*
X157773815Y-73822682D01*
X157702316Y-73836827D01*
X157451132Y-73942858D01*
X157225460Y-74095855D01*
X157033972Y-74289939D01*
X156972000Y-74384053D01*
X156972000Y-57785000D01*
X156969560Y-57760224D01*
X156962333Y-57736399D01*
X156950597Y-57714443D01*
X156934803Y-57695197D01*
X153759803Y-54520197D01*
X153740557Y-54504403D01*
X153718601Y-54492667D01*
X153694776Y-54485440D01*
X153670000Y-54483000D01*
X146749930Y-54483000D01*
X146855048Y-54448142D01*
X147105081Y-54314496D01*
X147238523Y-54018128D01*
X146060000Y-52839605D01*
X144881477Y-54018128D01*
X145014919Y-54314496D01*
X145350624Y-54483000D01*
X142749930Y-54483000D01*
X142855048Y-54448142D01*
X143105081Y-54314496D01*
X143238523Y-54018128D01*
X142060000Y-52839605D01*
X140881477Y-54018128D01*
X141014919Y-54314496D01*
X141350624Y-54483000D01*
X138749930Y-54483000D01*
X138855048Y-54448142D01*
X139105081Y-54314496D01*
X139238523Y-54018128D01*
X138060000Y-52839605D01*
X136881477Y-54018128D01*
X137014919Y-54314496D01*
X137350624Y-54483000D01*
X134749930Y-54483000D01*
X134855048Y-54448142D01*
X135105081Y-54314496D01*
X135238523Y-54018128D01*
X134060000Y-52839605D01*
X132881477Y-54018128D01*
X133014919Y-54314496D01*
X133350624Y-54483000D01*
X132207000Y-54483000D01*
X132207000Y-53259461D01*
X132271858Y-53455048D01*
X132405504Y-53705081D01*
X132701872Y-53838523D01*
X133880395Y-52660000D01*
X134239605Y-52660000D01*
X135418128Y-53838523D01*
X135714496Y-53705081D01*
X135886590Y-53362224D01*
X135988490Y-52992380D01*
X136008981Y-52710236D01*
X136103721Y-52710236D01*
X136151111Y-53090921D01*
X136271858Y-53455048D01*
X136405504Y-53705081D01*
X136701872Y-53838523D01*
X137880395Y-52660000D01*
X138239605Y-52660000D01*
X139418128Y-53838523D01*
X139714496Y-53705081D01*
X139886590Y-53362224D01*
X139988490Y-52992380D01*
X140008981Y-52710236D01*
X140103721Y-52710236D01*
X140151111Y-53090921D01*
X140271858Y-53455048D01*
X140405504Y-53705081D01*
X140701872Y-53838523D01*
X141880395Y-52660000D01*
X142239605Y-52660000D01*
X143418128Y-53838523D01*
X143714496Y-53705081D01*
X143886590Y-53362224D01*
X143988490Y-52992380D01*
X144008981Y-52710236D01*
X144103721Y-52710236D01*
X144151111Y-53090921D01*
X144271858Y-53455048D01*
X144405504Y-53705081D01*
X144701872Y-53838523D01*
X145880395Y-52660000D01*
X146239605Y-52660000D01*
X147418128Y-53838523D01*
X147714496Y-53705081D01*
X147886590Y-53362224D01*
X147988490Y-52992380D01*
X148016279Y-52609764D01*
X147968889Y-52229079D01*
X147848142Y-51864952D01*
X147714496Y-51614919D01*
X147418128Y-51481477D01*
X146239605Y-52660000D01*
X145880395Y-52660000D01*
X144701872Y-51481477D01*
X144405504Y-51614919D01*
X144233410Y-51957776D01*
X144131510Y-52327620D01*
X144103721Y-52710236D01*
X144008981Y-52710236D01*
X144016279Y-52609764D01*
X143968889Y-52229079D01*
X143848142Y-51864952D01*
X143714496Y-51614919D01*
X143418128Y-51481477D01*
X142239605Y-52660000D01*
X141880395Y-52660000D01*
X140701872Y-51481477D01*
X140405504Y-51614919D01*
X140233410Y-51957776D01*
X140131510Y-52327620D01*
X140103721Y-52710236D01*
X140008981Y-52710236D01*
X140016279Y-52609764D01*
X139968889Y-52229079D01*
X139848142Y-51864952D01*
X139714496Y-51614919D01*
X139418128Y-51481477D01*
X138239605Y-52660000D01*
X137880395Y-52660000D01*
X136701872Y-51481477D01*
X136405504Y-51614919D01*
X136233410Y-51957776D01*
X136131510Y-52327620D01*
X136103721Y-52710236D01*
X136008981Y-52710236D01*
X136016279Y-52609764D01*
X135968889Y-52229079D01*
X135848142Y-51864952D01*
X135714496Y-51614919D01*
X135418128Y-51481477D01*
X134239605Y-52660000D01*
X133880395Y-52660000D01*
X132701872Y-51481477D01*
X132405504Y-51614919D01*
X132233410Y-51957776D01*
X132207000Y-52053631D01*
X132207000Y-51009176D01*
X133013190Y-51009344D01*
%TA.AperFunction,Conductor*%
D22*
G36*
X133013190Y-51009344D02*
G01*
X132881477Y-51301872D01*
X134060000Y-52480395D01*
X135238523Y-51301872D01*
X135107006Y-51009780D01*
X137012815Y-51010177D01*
X136881477Y-51301872D01*
X138060000Y-52480395D01*
X139238523Y-51301872D01*
X139107382Y-51010614D01*
X141012440Y-51011010D01*
X140881477Y-51301872D01*
X142060000Y-52480395D01*
X143238523Y-51301872D01*
X143107757Y-51011447D01*
X145012065Y-51011844D01*
X144881477Y-51301872D01*
X146060000Y-52480395D01*
X147238523Y-51301872D01*
X147108132Y-51012280D01*
X154339181Y-51013787D01*
X159893000Y-56567606D01*
X159893000Y-77343000D01*
X158242002Y-77343000D01*
X158242002Y-77184657D01*
X158456185Y-77307318D01*
X158527684Y-77293173D01*
X158778868Y-77187142D01*
X159004540Y-77034145D01*
X159196028Y-76840061D01*
X159345972Y-76612349D01*
X159448611Y-76359760D01*
X159500000Y-76092000D01*
X159500000Y-75692000D01*
X158242000Y-75692000D01*
X158242000Y-75712000D01*
X157988000Y-75712000D01*
X157988000Y-75692000D01*
X157968000Y-75692000D01*
X157968000Y-75438000D01*
X157988000Y-75438000D01*
X157988000Y-73945344D01*
X158242000Y-73945344D01*
X158242000Y-75438000D01*
X159500000Y-75438000D01*
X159500000Y-75038000D01*
X159448611Y-74770240D01*
X159345972Y-74517651D01*
X159196028Y-74289939D01*
X159004540Y-74095855D01*
X158778868Y-73942858D01*
X158527684Y-73836827D01*
X158456185Y-73822682D01*
X158242000Y-73945344D01*
X157988000Y-73945344D01*
X157773815Y-73822682D01*
X157702316Y-73836827D01*
X157451132Y-73942858D01*
X157225460Y-74095855D01*
X157033972Y-74289939D01*
X156972000Y-74384053D01*
X156972000Y-57785000D01*
X156969560Y-57760224D01*
X156962333Y-57736399D01*
X156950597Y-57714443D01*
X156934803Y-57695197D01*
X153759803Y-54520197D01*
X153740557Y-54504403D01*
X153718601Y-54492667D01*
X153694776Y-54485440D01*
X153670000Y-54483000D01*
X146749930Y-54483000D01*
X146855048Y-54448142D01*
X147105081Y-54314496D01*
X147238523Y-54018128D01*
X146060000Y-52839605D01*
X144881477Y-54018128D01*
X145014919Y-54314496D01*
X145350624Y-54483000D01*
X142749930Y-54483000D01*
X142855048Y-54448142D01*
X143105081Y-54314496D01*
X143238523Y-54018128D01*
X142060000Y-52839605D01*
X140881477Y-54018128D01*
X141014919Y-54314496D01*
X141350624Y-54483000D01*
X138749930Y-54483000D01*
X138855048Y-54448142D01*
X139105081Y-54314496D01*
X139238523Y-54018128D01*
X138060000Y-52839605D01*
X136881477Y-54018128D01*
X137014919Y-54314496D01*
X137350624Y-54483000D01*
X134749930Y-54483000D01*
X134855048Y-54448142D01*
X135105081Y-54314496D01*
X135238523Y-54018128D01*
X134060000Y-52839605D01*
X132881477Y-54018128D01*
X133014919Y-54314496D01*
X133350624Y-54483000D01*
X132207000Y-54483000D01*
X132207000Y-53259461D01*
X132271858Y-53455048D01*
X132405504Y-53705081D01*
X132701872Y-53838523D01*
X133880395Y-52660000D01*
X134239605Y-52660000D01*
X135418128Y-53838523D01*
X135714496Y-53705081D01*
X135886590Y-53362224D01*
X135988490Y-52992380D01*
X136008981Y-52710236D01*
X136103721Y-52710236D01*
X136151111Y-53090921D01*
X136271858Y-53455048D01*
X136405504Y-53705081D01*
X136701872Y-53838523D01*
X137880395Y-52660000D01*
X138239605Y-52660000D01*
X139418128Y-53838523D01*
X139714496Y-53705081D01*
X139886590Y-53362224D01*
X139988490Y-52992380D01*
X140008981Y-52710236D01*
X140103721Y-52710236D01*
X140151111Y-53090921D01*
X140271858Y-53455048D01*
X140405504Y-53705081D01*
X140701872Y-53838523D01*
X141880395Y-52660000D01*
X142239605Y-52660000D01*
X143418128Y-53838523D01*
X143714496Y-53705081D01*
X143886590Y-53362224D01*
X143988490Y-52992380D01*
X144008981Y-52710236D01*
X144103721Y-52710236D01*
X144151111Y-53090921D01*
X144271858Y-53455048D01*
X144405504Y-53705081D01*
X144701872Y-53838523D01*
X145880395Y-52660000D01*
X146239605Y-52660000D01*
X147418128Y-53838523D01*
X147714496Y-53705081D01*
X147886590Y-53362224D01*
X147988490Y-52992380D01*
X148016279Y-52609764D01*
X147968889Y-52229079D01*
X147848142Y-51864952D01*
X147714496Y-51614919D01*
X147418128Y-51481477D01*
X146239605Y-52660000D01*
X145880395Y-52660000D01*
X144701872Y-51481477D01*
X144405504Y-51614919D01*
X144233410Y-51957776D01*
X144131510Y-52327620D01*
X144103721Y-52710236D01*
X144008981Y-52710236D01*
X144016279Y-52609764D01*
X143968889Y-52229079D01*
X143848142Y-51864952D01*
X143714496Y-51614919D01*
X143418128Y-51481477D01*
X142239605Y-52660000D01*
X141880395Y-52660000D01*
X140701872Y-51481477D01*
X140405504Y-51614919D01*
X140233410Y-51957776D01*
X140131510Y-52327620D01*
X140103721Y-52710236D01*
X140008981Y-52710236D01*
X140016279Y-52609764D01*
X139968889Y-52229079D01*
X139848142Y-51864952D01*
X139714496Y-51614919D01*
X139418128Y-51481477D01*
X138239605Y-52660000D01*
X137880395Y-52660000D01*
X136701872Y-51481477D01*
X136405504Y-51614919D01*
X136233410Y-51957776D01*
X136131510Y-52327620D01*
X136103721Y-52710236D01*
X136008981Y-52710236D01*
X136016279Y-52609764D01*
X135968889Y-52229079D01*
X135848142Y-51864952D01*
X135714496Y-51614919D01*
X135418128Y-51481477D01*
X134239605Y-52660000D01*
X133880395Y-52660000D01*
X132701872Y-51481477D01*
X132405504Y-51614919D01*
X132233410Y-51957776D01*
X132207000Y-52053631D01*
X132207000Y-51009176D01*
X133013190Y-51009344D01*
G37*
%TD.AperFunction*%
%TD*%
D21*
%TO.N,GND*%
X102211475Y-75849754D02*
X102168000Y-76068317D01*
X102168000Y-76331683D01*
X102219380Y-76589988D01*
X102320166Y-76833307D01*
X102466484Y-77052288D01*
X102652712Y-77238516D01*
X102871693Y-77384834D01*
X103115012Y-77485620D01*
X103373317Y-77537000D01*
X103636683Y-77537000D01*
X103894988Y-77485620D01*
X104108000Y-77397388D01*
X104108000Y-77437245D01*
X104104774Y-77470000D01*
X104108000Y-77502754D01*
X104108000Y-77502764D01*
X104117651Y-77600754D01*
X104151702Y-77713004D01*
X104155791Y-77726484D01*
X104217727Y-77842358D01*
X104236039Y-77864671D01*
X104301078Y-77943922D01*
X104326534Y-77964813D01*
X104626468Y-78264747D01*
X104605750Y-78265000D01*
X104447000Y-78423750D01*
X104447000Y-79248000D01*
X104467000Y-79248000D01*
X104467000Y-79502000D01*
X104447000Y-79502000D01*
X104447000Y-80326250D01*
X104605750Y-80485000D01*
X104857500Y-80488072D01*
X104981982Y-80475812D01*
X105101680Y-80439502D01*
X105211994Y-80380537D01*
X105308685Y-80301185D01*
X105366696Y-80230498D01*
X105466844Y-80284027D01*
X105603197Y-80325390D01*
X105745000Y-80339356D01*
X105896371Y-80339356D01*
X107595014Y-82038000D01*
X102112000Y-82038000D01*
X102112000Y-79850000D01*
X103144428Y-79850000D01*
X103156688Y-79974482D01*
X103192998Y-80094180D01*
X103251963Y-80204494D01*
X103331315Y-80301185D01*
X103428006Y-80380537D01*
X103538320Y-80439502D01*
X103658018Y-80475812D01*
X103782500Y-80488072D01*
X104034250Y-80485000D01*
X104193000Y-80326250D01*
X104193000Y-79502000D01*
X103306250Y-79502000D01*
X103147500Y-79660750D01*
X103144428Y-79850000D01*
X102112000Y-79850000D01*
X102112000Y-78900000D01*
X103144428Y-78900000D01*
X103147500Y-79089250D01*
X103306250Y-79248000D01*
X104193000Y-79248000D01*
X104193000Y-78423750D01*
X104034250Y-78265000D01*
X103782500Y-78261928D01*
X103658018Y-78274188D01*
X103538320Y-78310498D01*
X103428006Y-78369463D01*
X103331315Y-78448815D01*
X103251963Y-78545506D01*
X103192998Y-78655820D01*
X103156688Y-78775518D01*
X103144428Y-78900000D01*
X102112000Y-78900000D01*
X102112000Y-75750280D01*
X102211475Y-75849754D01*
%TA.AperFunction,Conductor*%
D22*
G36*
X102211475Y-75849754D02*
G01*
X102168000Y-76068317D01*
X102168000Y-76331683D01*
X102219380Y-76589988D01*
X102320166Y-76833307D01*
X102466484Y-77052288D01*
X102652712Y-77238516D01*
X102871693Y-77384834D01*
X103115012Y-77485620D01*
X103373317Y-77537000D01*
X103636683Y-77537000D01*
X103894988Y-77485620D01*
X104108000Y-77397388D01*
X104108000Y-77437245D01*
X104104774Y-77470000D01*
X104108000Y-77502754D01*
X104108000Y-77502764D01*
X104117651Y-77600754D01*
X104151702Y-77713004D01*
X104155791Y-77726484D01*
X104217727Y-77842358D01*
X104236039Y-77864671D01*
X104301078Y-77943922D01*
X104326534Y-77964813D01*
X104626468Y-78264747D01*
X104605750Y-78265000D01*
X104447000Y-78423750D01*
X104447000Y-79248000D01*
X104467000Y-79248000D01*
X104467000Y-79502000D01*
X104447000Y-79502000D01*
X104447000Y-80326250D01*
X104605750Y-80485000D01*
X104857500Y-80488072D01*
X104981982Y-80475812D01*
X105101680Y-80439502D01*
X105211994Y-80380537D01*
X105308685Y-80301185D01*
X105366696Y-80230498D01*
X105466844Y-80284027D01*
X105603197Y-80325390D01*
X105745000Y-80339356D01*
X105896371Y-80339356D01*
X107595014Y-82038000D01*
X102112000Y-82038000D01*
X102112000Y-79850000D01*
X103144428Y-79850000D01*
X103156688Y-79974482D01*
X103192998Y-80094180D01*
X103251963Y-80204494D01*
X103331315Y-80301185D01*
X103428006Y-80380537D01*
X103538320Y-80439502D01*
X103658018Y-80475812D01*
X103782500Y-80488072D01*
X104034250Y-80485000D01*
X104193000Y-80326250D01*
X104193000Y-79502000D01*
X103306250Y-79502000D01*
X103147500Y-79660750D01*
X103144428Y-79850000D01*
X102112000Y-79850000D01*
X102112000Y-78900000D01*
X103144428Y-78900000D01*
X103147500Y-79089250D01*
X103306250Y-79248000D01*
X104193000Y-79248000D01*
X104193000Y-78423750D01*
X104034250Y-78265000D01*
X103782500Y-78261928D01*
X103658018Y-78274188D01*
X103538320Y-78310498D01*
X103428006Y-78369463D01*
X103331315Y-78448815D01*
X103251963Y-78545506D01*
X103192998Y-78655820D01*
X103156688Y-78775518D01*
X103144428Y-78900000D01*
X102112000Y-78900000D01*
X102112000Y-75750280D01*
X102211475Y-75849754D01*
G37*
%TD.AperFunction*%
D21*
X134912886Y-55262237D02*
X134662237Y-55512886D01*
X134465304Y-55807617D01*
X134329654Y-56135105D01*
X134260500Y-56482765D01*
X134260500Y-56837235D01*
X134329654Y-57184895D01*
X134465304Y-57512383D01*
X134662237Y-57807114D01*
X134912886Y-58057763D01*
X135207617Y-58254696D01*
X135535105Y-58390346D01*
X135882765Y-58459500D01*
X136237235Y-58459500D01*
X136584895Y-58390346D01*
X136912383Y-58254696D01*
X137207114Y-58057763D01*
X137457763Y-57807114D01*
X137654696Y-57512383D01*
X137790346Y-57184895D01*
X137859500Y-56837235D01*
X137859500Y-56482765D01*
X137790346Y-56135105D01*
X137654696Y-55807617D01*
X137457763Y-55512886D01*
X137207114Y-55262237D01*
X137181317Y-55245000D01*
X138938683Y-55245000D01*
X138912886Y-55262237D01*
X138662237Y-55512886D01*
X138465304Y-55807617D01*
X138329654Y-56135105D01*
X138260500Y-56482765D01*
X138260500Y-56837235D01*
X138329654Y-57184895D01*
X138465304Y-57512383D01*
X138662237Y-57807114D01*
X138912886Y-58057763D01*
X139207617Y-58254696D01*
X139535105Y-58390346D01*
X139882765Y-58459500D01*
X140237235Y-58459500D01*
X140584895Y-58390346D01*
X140912383Y-58254696D01*
X141207114Y-58057763D01*
X141457763Y-57807114D01*
X141654696Y-57512383D01*
X141790346Y-57184895D01*
X141859500Y-56837235D01*
X141859500Y-56482765D01*
X141790346Y-56135105D01*
X141654696Y-55807617D01*
X141457763Y-55512886D01*
X141207114Y-55262237D01*
X141181317Y-55245000D01*
X142938683Y-55245000D01*
X142912886Y-55262237D01*
X142662237Y-55512886D01*
X142465304Y-55807617D01*
X142329654Y-56135105D01*
X142260500Y-56482765D01*
X142260500Y-56837235D01*
X142329654Y-57184895D01*
X142465304Y-57512383D01*
X142662237Y-57807114D01*
X142912886Y-58057763D01*
X143207617Y-58254696D01*
X143535105Y-58390346D01*
X143882765Y-58459500D01*
X144237235Y-58459500D01*
X144584895Y-58390346D01*
X144912383Y-58254696D01*
X145207114Y-58057763D01*
X145457763Y-57807114D01*
X145654696Y-57512383D01*
X145790346Y-57184895D01*
X145832756Y-56971684D01*
X150648000Y-56971684D01*
X150648000Y-57348316D01*
X150721477Y-57717710D01*
X150865608Y-58065671D01*
X151074853Y-58378829D01*
X151341171Y-58645147D01*
X151654329Y-58854392D01*
X152002290Y-58998523D01*
X152371684Y-59072000D01*
X152748316Y-59072000D01*
X153117710Y-58998523D01*
X153465671Y-58854392D01*
X153778829Y-58645147D01*
X154045147Y-58378829D01*
X154254392Y-58065671D01*
X154398523Y-57717710D01*
X154472000Y-57348316D01*
X154472000Y-56971684D01*
X154398523Y-56602290D01*
X154254392Y-56254329D01*
X154045147Y-55941171D01*
X153778829Y-55674853D01*
X153465671Y-55465608D01*
X153117710Y-55321477D01*
X152748316Y-55248000D01*
X152371684Y-55248000D01*
X152002290Y-55321477D01*
X151654329Y-55465608D01*
X151341171Y-55674853D01*
X151074853Y-55941171D01*
X150865608Y-56254329D01*
X150721477Y-56602290D01*
X150648000Y-56971684D01*
X145832756Y-56971684D01*
X145859500Y-56837235D01*
X145859500Y-56482765D01*
X145790346Y-56135105D01*
X145654696Y-55807617D01*
X145457763Y-55512886D01*
X145207114Y-55262237D01*
X145181317Y-55245000D01*
X153406974Y-55245000D01*
X156210000Y-58048026D01*
X156210000Y-73930672D01*
X155987684Y-73836827D01*
X155916185Y-73822682D01*
X155702000Y-73945344D01*
X155702000Y-75438000D01*
X155722000Y-75438000D01*
X155722000Y-75692000D01*
X155702000Y-75692000D01*
X155702000Y-77184656D01*
X155916185Y-77307318D01*
X155987684Y-77293173D01*
X156210000Y-77199328D01*
X156210000Y-77470000D01*
X156222201Y-77593882D01*
X156258336Y-77713004D01*
X156317017Y-77822787D01*
X156395987Y-77919013D01*
X156492213Y-77997983D01*
X156601996Y-78056664D01*
X156721118Y-78092799D01*
X156845000Y-78105000D01*
X157328000Y-78105000D01*
X157328001Y-78481390D01*
X157256696Y-78519502D01*
X157198685Y-78448815D01*
X157101994Y-78369463D01*
X156991680Y-78310498D01*
X156871982Y-78274188D01*
X156747500Y-78261928D01*
X156495750Y-78265000D01*
X156337000Y-78423750D01*
X156337000Y-79248000D01*
X156357000Y-79248000D01*
X156357000Y-79502000D01*
X156337000Y-79502000D01*
X156337000Y-80326250D01*
X156495750Y-80485000D01*
X156747500Y-80488072D01*
X156871982Y-80475812D01*
X156991680Y-80439502D01*
X157101994Y-80380537D01*
X157198685Y-80301185D01*
X157256696Y-80230498D01*
X157328001Y-80268610D01*
X157328001Y-80319013D01*
X156519015Y-81128000D01*
X155684056Y-81128000D01*
X155726049Y-81065152D01*
X155792913Y-80903728D01*
X155827000Y-80732362D01*
X155827000Y-80557638D01*
X155812822Y-80486360D01*
X155924250Y-80485000D01*
X156083000Y-80326250D01*
X156083000Y-79502000D01*
X154432000Y-79502000D01*
X154432000Y-79522000D01*
X154178000Y-79522000D01*
X154178000Y-79502000D01*
X154158000Y-79502000D01*
X154158000Y-79248000D01*
X154178000Y-79248000D01*
X154178000Y-78423750D01*
X154432000Y-78423750D01*
X154432000Y-79248000D01*
X156083000Y-79248000D01*
X156083000Y-78423750D01*
X155924250Y-78265000D01*
X155672500Y-78261928D01*
X155548018Y-78274188D01*
X155428320Y-78310498D01*
X155318006Y-78369463D01*
X155257500Y-78419119D01*
X155196994Y-78369463D01*
X155086680Y-78310498D01*
X154966982Y-78274188D01*
X154842500Y-78261928D01*
X154590750Y-78265000D01*
X154432000Y-78423750D01*
X154178000Y-78423750D01*
X154019250Y-78265000D01*
X153767500Y-78261928D01*
X153681851Y-78270363D01*
X153692349Y-78235755D01*
X153702000Y-78137765D01*
X153702000Y-78137755D01*
X153705226Y-78105001D01*
X153702000Y-78072246D01*
X153702000Y-77204356D01*
X153785000Y-77204356D01*
X153880469Y-77194953D01*
X153972268Y-77167106D01*
X154056872Y-77121885D01*
X154131027Y-77061027D01*
X154191885Y-76986872D01*
X154237106Y-76902268D01*
X154264953Y-76810469D01*
X154274356Y-76715000D01*
X154274356Y-76440890D01*
X154344028Y-76612349D01*
X154493972Y-76840061D01*
X154685460Y-77034145D01*
X154911132Y-77187142D01*
X155162316Y-77293173D01*
X155233815Y-77307318D01*
X155448000Y-77184656D01*
X155448000Y-75692000D01*
X155428000Y-75692000D01*
X155428000Y-75438000D01*
X155448000Y-75438000D01*
X155448000Y-73945344D01*
X155233815Y-73822682D01*
X155162316Y-73836827D01*
X154911132Y-73942858D01*
X154685460Y-74095855D01*
X154493972Y-74289939D01*
X154344028Y-74517651D01*
X154274356Y-74689110D01*
X154274356Y-74415000D01*
X154264953Y-74319531D01*
X154237106Y-74227732D01*
X154191885Y-74143128D01*
X154131027Y-74068973D01*
X154056872Y-74008115D01*
X153972268Y-73962894D01*
X153880469Y-73935047D01*
X153785000Y-73925644D01*
X152285000Y-73925644D01*
X152189531Y-73935047D01*
X152097732Y-73962894D01*
X152013128Y-74008115D01*
X151938973Y-74068973D01*
X151878115Y-74143128D01*
X151832894Y-74227732D01*
X151805047Y-74319531D01*
X151795644Y-74415000D01*
X151795644Y-76715000D01*
X151805047Y-76810469D01*
X151832894Y-76902268D01*
X151878115Y-76986872D01*
X151938973Y-77061027D01*
X152013128Y-77121885D01*
X152097732Y-77167106D01*
X152189531Y-77194953D01*
X152285000Y-77204356D01*
X152368000Y-77204356D01*
X152368000Y-77828720D01*
X152131529Y-78065191D01*
X152106079Y-78086078D01*
X152085192Y-78111529D01*
X152022727Y-78187642D01*
X151960791Y-78303516D01*
X151948107Y-78345329D01*
X151922651Y-78429245D01*
X151914432Y-78512695D01*
X151876180Y-78533141D01*
X151766035Y-78623535D01*
X151675641Y-78733680D01*
X151608473Y-78859344D01*
X151567110Y-78995697D01*
X151553144Y-79137500D01*
X151553144Y-79612500D01*
X151567110Y-79754303D01*
X151608473Y-79890656D01*
X151675641Y-80016320D01*
X151766035Y-80126465D01*
X151876180Y-80216859D01*
X152001844Y-80284027D01*
X152138197Y-80325390D01*
X152280000Y-80339356D01*
X152880000Y-80339356D01*
X153021803Y-80325390D01*
X153158156Y-80284027D01*
X153258304Y-80230498D01*
X153316315Y-80301185D01*
X153413006Y-80380537D01*
X153523320Y-80439502D01*
X153643018Y-80475812D01*
X153767500Y-80488072D01*
X154019250Y-80485000D01*
X154079417Y-80424833D01*
X154053000Y-80557638D01*
X154053000Y-80732362D01*
X154087087Y-80903728D01*
X154153951Y-81065152D01*
X154195944Y-81128000D01*
X151455986Y-81128000D01*
X151282000Y-80954015D01*
X151282000Y-80733397D01*
X151349359Y-80651320D01*
X151416527Y-80525656D01*
X151457890Y-80389303D01*
X151471856Y-80247500D01*
X151471856Y-79772500D01*
X151457890Y-79630697D01*
X151416527Y-79494344D01*
X151349359Y-79368680D01*
X151258965Y-79258535D01*
X151148820Y-79168141D01*
X151023156Y-79100973D01*
X150886803Y-79059610D01*
X150745000Y-79045644D01*
X150245000Y-79045644D01*
X150103197Y-79059610D01*
X149966844Y-79100973D01*
X149841180Y-79168141D01*
X149731035Y-79258535D01*
X149640641Y-79368680D01*
X149582500Y-79477455D01*
X149524359Y-79368680D01*
X149433965Y-79258535D01*
X149337000Y-79178958D01*
X149337000Y-78852754D01*
X149340226Y-78819999D01*
X149337000Y-78787245D01*
X149337000Y-78787235D01*
X149327349Y-78689245D01*
X149289209Y-78563515D01*
X149250854Y-78491759D01*
X149330820Y-78534502D01*
X149450518Y-78570812D01*
X149575000Y-78583072D01*
X149814250Y-78580000D01*
X149973000Y-78421250D01*
X149973000Y-77597000D01*
X150227000Y-77597000D01*
X150227000Y-78421250D01*
X150385750Y-78580000D01*
X150625000Y-78583072D01*
X150749482Y-78570812D01*
X150869180Y-78534502D01*
X150979494Y-78475537D01*
X151076185Y-78396185D01*
X151155537Y-78299494D01*
X151214502Y-78189180D01*
X151250812Y-78069482D01*
X151263072Y-77945000D01*
X151260000Y-77755750D01*
X151101250Y-77597000D01*
X150227000Y-77597000D01*
X149973000Y-77597000D01*
X149953000Y-77597000D01*
X149953000Y-77343000D01*
X149973000Y-77343000D01*
X149973000Y-76518750D01*
X150227000Y-76518750D01*
X150227000Y-77343000D01*
X151101250Y-77343000D01*
X151260000Y-77184250D01*
X151263072Y-76995000D01*
X151250812Y-76870518D01*
X151214502Y-76750820D01*
X151155537Y-76640506D01*
X151076185Y-76543815D01*
X150979494Y-76464463D01*
X150869180Y-76405498D01*
X150749482Y-76369188D01*
X150625000Y-76356928D01*
X150385750Y-76360000D01*
X150227000Y-76518750D01*
X149973000Y-76518750D01*
X149814250Y-76360000D01*
X149575000Y-76356928D01*
X149450518Y-76369188D01*
X149330820Y-76405498D01*
X149220506Y-76464463D01*
X149123815Y-76543815D01*
X149049262Y-76634659D01*
X149041320Y-76628141D01*
X148915656Y-76560973D01*
X148779303Y-76519610D01*
X148637500Y-76505644D01*
X148062500Y-76505644D01*
X147920697Y-76519610D01*
X147784344Y-76560973D01*
X147658680Y-76628141D01*
X147548535Y-76718535D01*
X147458141Y-76828680D01*
X147390973Y-76954344D01*
X147349610Y-77090697D01*
X147335644Y-77232500D01*
X147335644Y-77707500D01*
X147349610Y-77849303D01*
X147390973Y-77985656D01*
X147458141Y-78111320D01*
X147548535Y-78221465D01*
X147658680Y-78311859D01*
X147683001Y-78324859D01*
X147683001Y-78467236D01*
X147679774Y-78500000D01*
X147683001Y-78532765D01*
X147692652Y-78630755D01*
X147702213Y-78662273D01*
X147730791Y-78756484D01*
X147792727Y-78872358D01*
X147829658Y-78917358D01*
X147876079Y-78973922D01*
X147901529Y-78994808D01*
X148003000Y-79096280D01*
X148003000Y-79178957D01*
X147906035Y-79258535D01*
X147815641Y-79368680D01*
X147748473Y-79494344D01*
X147707110Y-79630697D01*
X147693144Y-79772500D01*
X147693144Y-80247500D01*
X147707110Y-80389303D01*
X147748473Y-80525656D01*
X147815641Y-80651320D01*
X147906035Y-80761465D01*
X148016180Y-80851859D01*
X148141844Y-80919027D01*
X148278197Y-80960390D01*
X148420000Y-80974356D01*
X148920000Y-80974356D01*
X149061803Y-80960390D01*
X149198156Y-80919027D01*
X149323820Y-80851859D01*
X149433965Y-80761465D01*
X149524359Y-80651320D01*
X149582500Y-80542545D01*
X149640641Y-80651320D01*
X149708000Y-80733397D01*
X149708000Y-81128000D01*
X145877860Y-81128000D01*
X145888922Y-81118922D01*
X145909813Y-81093466D01*
X146498472Y-80504808D01*
X146523922Y-80483922D01*
X146607273Y-80382358D01*
X146669209Y-80266485D01*
X146707349Y-80140755D01*
X146717000Y-80042765D01*
X146717000Y-80042762D01*
X146720227Y-80010000D01*
X146717000Y-79977238D01*
X146717000Y-79962408D01*
X146738978Y-79940430D01*
X146836049Y-79795152D01*
X146902913Y-79633728D01*
X146937000Y-79462362D01*
X146937000Y-79287638D01*
X146902913Y-79116272D01*
X146836049Y-78954848D01*
X146738978Y-78809570D01*
X146615430Y-78686022D01*
X146470152Y-78588951D01*
X146308728Y-78522087D01*
X146137362Y-78488000D01*
X145962638Y-78488000D01*
X145791272Y-78522087D01*
X145629848Y-78588951D01*
X145495232Y-78678898D01*
X145551605Y-78610207D01*
X145610688Y-78499671D01*
X145647071Y-78379732D01*
X145659356Y-78255000D01*
X145659356Y-77955000D01*
X145647071Y-77830268D01*
X145610688Y-77710329D01*
X145551605Y-77599793D01*
X145472093Y-77502907D01*
X145431996Y-77470000D01*
X145472093Y-77437093D01*
X145551605Y-77340207D01*
X145610688Y-77229671D01*
X145647071Y-77109732D01*
X145659356Y-76985000D01*
X145659356Y-76685000D01*
X145647071Y-76560268D01*
X145610688Y-76440329D01*
X145551605Y-76329793D01*
X145472093Y-76232907D01*
X145431996Y-76200000D01*
X145472093Y-76167093D01*
X145551605Y-76070207D01*
X145610688Y-75959671D01*
X145647071Y-75839732D01*
X145659356Y-75715000D01*
X145659356Y-75415000D01*
X145647071Y-75290268D01*
X145610688Y-75170329D01*
X145551605Y-75059793D01*
X145472093Y-74962907D01*
X145431996Y-74930000D01*
X145472093Y-74897093D01*
X145551605Y-74800207D01*
X145610688Y-74689671D01*
X145647071Y-74569732D01*
X145659356Y-74445000D01*
X145659356Y-74145000D01*
X145647071Y-74020268D01*
X145610688Y-73900329D01*
X145551605Y-73789793D01*
X145472093Y-73692907D01*
X145431996Y-73660000D01*
X145472093Y-73627093D01*
X145551605Y-73530207D01*
X145610688Y-73419671D01*
X145647071Y-73299732D01*
X145659356Y-73175000D01*
X145659356Y-72875000D01*
X145647071Y-72750268D01*
X145610688Y-72630329D01*
X145551605Y-72519793D01*
X145472093Y-72422907D01*
X145431996Y-72390000D01*
X145472093Y-72357093D01*
X145551605Y-72260207D01*
X145610688Y-72149671D01*
X145647071Y-72029732D01*
X145659356Y-71905000D01*
X145659356Y-71605000D01*
X145647071Y-71480268D01*
X145610688Y-71360329D01*
X145567765Y-71280026D01*
X145621185Y-71236185D01*
X145700537Y-71139494D01*
X145759502Y-71029180D01*
X145795812Y-70909482D01*
X145808072Y-70785000D01*
X145805000Y-70770750D01*
X145646250Y-70612000D01*
X144272000Y-70612000D01*
X144272000Y-70632000D01*
X144018000Y-70632000D01*
X144018000Y-70612000D01*
X142643750Y-70612000D01*
X142485000Y-70770750D01*
X142481928Y-70785000D01*
X142494188Y-70909482D01*
X142530498Y-71029180D01*
X142561938Y-71088000D01*
X141557408Y-71088000D01*
X141535430Y-71066022D01*
X141390152Y-70968951D01*
X141228728Y-70902087D01*
X141057362Y-70868000D01*
X140882638Y-70868000D01*
X140711272Y-70902087D01*
X140549848Y-70968951D01*
X140404570Y-71066022D01*
X140281022Y-71189570D01*
X140183951Y-71334848D01*
X140117087Y-71496272D01*
X140083000Y-71667638D01*
X140083000Y-71842362D01*
X140117087Y-72013728D01*
X140183951Y-72175152D01*
X140281022Y-72320430D01*
X140350592Y-72390000D01*
X140281022Y-72459570D01*
X140183951Y-72604848D01*
X140117087Y-72766272D01*
X140083000Y-72937638D01*
X140083000Y-73112362D01*
X140117087Y-73283728D01*
X140183951Y-73445152D01*
X140281022Y-73590430D01*
X140404570Y-73713978D01*
X140549848Y-73811049D01*
X140711272Y-73877913D01*
X140882638Y-73912000D01*
X141057362Y-73912000D01*
X141228728Y-73877913D01*
X141390152Y-73811049D01*
X141535430Y-73713978D01*
X141557408Y-73692000D01*
X142819012Y-73692000D01*
X142817907Y-73692907D01*
X142738395Y-73789793D01*
X142679312Y-73900329D01*
X142642929Y-74020268D01*
X142630644Y-74145000D01*
X142630644Y-74445000D01*
X142642929Y-74569732D01*
X142679312Y-74689671D01*
X142738395Y-74800207D01*
X142817907Y-74897093D01*
X142858004Y-74930000D01*
X142817907Y-74962907D01*
X142738395Y-75059793D01*
X142679312Y-75170329D01*
X142642929Y-75290268D01*
X142630644Y-75415000D01*
X142630644Y-75715000D01*
X142642929Y-75839732D01*
X142679312Y-75959671D01*
X142738395Y-76070207D01*
X142794768Y-76138898D01*
X142660152Y-76048951D01*
X142498728Y-75982087D01*
X142327362Y-75948000D01*
X142152638Y-75948000D01*
X141981272Y-75982087D01*
X141819848Y-76048951D01*
X141674570Y-76146022D01*
X141551022Y-76269570D01*
X141453951Y-76414848D01*
X141387087Y-76576272D01*
X141353000Y-76747638D01*
X141353000Y-76922362D01*
X141387087Y-77093728D01*
X141453951Y-77255152D01*
X141551022Y-77400430D01*
X141573000Y-77422408D01*
X141573001Y-78707236D01*
X141569774Y-78740000D01*
X141573001Y-78772765D01*
X141582652Y-78870755D01*
X141587509Y-78886767D01*
X141620791Y-78996484D01*
X141682727Y-79112358D01*
X141745192Y-79188471D01*
X141766079Y-79213922D01*
X141791529Y-79234808D01*
X142380191Y-79823471D01*
X142401078Y-79848922D01*
X142502642Y-79932273D01*
X142618515Y-79994209D01*
X142744245Y-80032349D01*
X142821501Y-80039958D01*
X142817907Y-80042907D01*
X142738395Y-80139793D01*
X142679312Y-80250329D01*
X142642929Y-80370268D01*
X142630644Y-80495000D01*
X142630644Y-80795000D01*
X142642929Y-80919732D01*
X142679312Y-81039671D01*
X142726525Y-81128000D01*
X137269056Y-81128000D01*
X137311049Y-81065152D01*
X137377913Y-80903728D01*
X137412000Y-80732362D01*
X137412000Y-80557638D01*
X137377913Y-80386272D01*
X137311049Y-80224848D01*
X137213978Y-80079570D01*
X137144408Y-80010000D01*
X137213978Y-79940430D01*
X137311049Y-79795152D01*
X137377913Y-79633728D01*
X137412000Y-79462362D01*
X137412000Y-79287638D01*
X137377913Y-79116272D01*
X137311049Y-78954848D01*
X137213978Y-78809570D01*
X137090430Y-78686022D01*
X136945152Y-78588951D01*
X136783728Y-78522087D01*
X136612362Y-78488000D01*
X136437638Y-78488000D01*
X136302565Y-78514868D01*
X136310688Y-78499671D01*
X136347071Y-78379732D01*
X136359356Y-78255000D01*
X136359356Y-77955000D01*
X136347071Y-77830268D01*
X136310688Y-77710329D01*
X136251605Y-77599793D01*
X136172093Y-77502907D01*
X136131996Y-77470000D01*
X136172093Y-77437093D01*
X136251605Y-77340207D01*
X136310688Y-77229671D01*
X136347071Y-77109732D01*
X136359356Y-76985000D01*
X136359356Y-76685000D01*
X136347071Y-76560268D01*
X136310688Y-76440329D01*
X136251605Y-76329793D01*
X136172093Y-76232907D01*
X136131996Y-76200000D01*
X136172093Y-76167093D01*
X136251605Y-76070207D01*
X136310688Y-75959671D01*
X136347071Y-75839732D01*
X136359356Y-75715000D01*
X136359356Y-75415000D01*
X136347071Y-75290268D01*
X136341393Y-75271550D01*
X136373951Y-75350152D01*
X136471022Y-75495430D01*
X136594570Y-75618978D01*
X136739848Y-75716049D01*
X136901272Y-75782913D01*
X137072638Y-75817000D01*
X137247362Y-75817000D01*
X137418728Y-75782913D01*
X137580152Y-75716049D01*
X137725430Y-75618978D01*
X137848978Y-75495430D01*
X137946049Y-75350152D01*
X138012913Y-75188728D01*
X138047000Y-75017362D01*
X138047000Y-74842638D01*
X138012913Y-74671272D01*
X137946049Y-74509848D01*
X137848978Y-74364570D01*
X137725430Y-74241022D01*
X137580152Y-74143951D01*
X137418728Y-74077087D01*
X137247362Y-74043000D01*
X137216279Y-74043000D01*
X137019813Y-73846534D01*
X136998922Y-73821078D01*
X136897358Y-73737727D01*
X136781485Y-73675791D01*
X136655755Y-73637651D01*
X136557765Y-73628000D01*
X136557754Y-73628000D01*
X136525000Y-73624774D01*
X136492246Y-73628000D01*
X136170988Y-73628000D01*
X136172093Y-73627093D01*
X136251605Y-73530207D01*
X136310688Y-73419671D01*
X136347071Y-73299732D01*
X136359356Y-73175000D01*
X136359356Y-72875000D01*
X136347071Y-72750268D01*
X136310688Y-72630329D01*
X136251605Y-72519793D01*
X136172093Y-72422907D01*
X136131996Y-72390000D01*
X136172093Y-72357093D01*
X136251605Y-72260207D01*
X136310688Y-72149671D01*
X136347071Y-72029732D01*
X136359356Y-71905000D01*
X136359356Y-71605000D01*
X136347071Y-71480268D01*
X136310688Y-71360329D01*
X136251605Y-71249793D01*
X136172093Y-71152907D01*
X136131996Y-71120000D01*
X136172093Y-71087093D01*
X136251605Y-70990207D01*
X136310688Y-70879671D01*
X136347071Y-70759732D01*
X136359356Y-70635000D01*
X136359356Y-70335000D01*
X136347071Y-70210268D01*
X136339407Y-70185000D01*
X142481928Y-70185000D01*
X142485000Y-70199250D01*
X142643750Y-70358000D01*
X144018000Y-70358000D01*
X144018000Y-69708750D01*
X144272000Y-69708750D01*
X144272000Y-70358000D01*
X145646250Y-70358000D01*
X145805000Y-70199250D01*
X145808072Y-70185000D01*
X145795812Y-70060518D01*
X145759502Y-69940820D01*
X145700537Y-69830506D01*
X145621185Y-69733815D01*
X145524494Y-69654463D01*
X145414180Y-69595498D01*
X145294482Y-69559188D01*
X145170000Y-69546928D01*
X144430750Y-69550000D01*
X144272000Y-69708750D01*
X144018000Y-69708750D01*
X143859250Y-69550000D01*
X143120000Y-69546928D01*
X142995518Y-69559188D01*
X142875820Y-69595498D01*
X142765506Y-69654463D01*
X142668815Y-69733815D01*
X142589463Y-69830506D01*
X142530498Y-69940820D01*
X142494188Y-70060518D01*
X142481928Y-70185000D01*
X136339407Y-70185000D01*
X136310688Y-70090329D01*
X136251605Y-69979793D01*
X136172093Y-69882907D01*
X136075207Y-69803395D01*
X135964671Y-69744312D01*
X135844732Y-69707929D01*
X135720000Y-69695644D01*
X133970000Y-69695644D01*
X133845268Y-69707929D01*
X133725329Y-69744312D01*
X133614793Y-69803395D01*
X133517907Y-69882907D01*
X133438395Y-69979793D01*
X133379312Y-70090329D01*
X133342929Y-70210268D01*
X133330644Y-70335000D01*
X133330644Y-70635000D01*
X133342929Y-70759732D01*
X133379312Y-70879671D01*
X133438395Y-70990207D01*
X133517907Y-71087093D01*
X133558004Y-71120000D01*
X133517907Y-71152907D01*
X133438395Y-71249793D01*
X133379312Y-71360329D01*
X133342929Y-71480268D01*
X133330644Y-71605000D01*
X133330644Y-71905000D01*
X133342929Y-72029732D01*
X133379312Y-72149671D01*
X133438395Y-72260207D01*
X133517907Y-72357093D01*
X133519012Y-72358000D01*
X133447408Y-72358000D01*
X133425430Y-72336022D01*
X133280152Y-72238951D01*
X133118728Y-72172087D01*
X132947362Y-72138000D01*
X132772638Y-72138000D01*
X132747000Y-72143100D01*
X132747000Y-66316279D01*
X134508472Y-64554808D01*
X134533922Y-64533922D01*
X134603444Y-64449209D01*
X134617273Y-64432359D01*
X134679209Y-64316485D01*
X134690740Y-64278471D01*
X134717349Y-64190755D01*
X134727000Y-64092765D01*
X134727000Y-64092762D01*
X134730227Y-64060000D01*
X134727000Y-64027238D01*
X134727000Y-62331484D01*
X134912383Y-62254696D01*
X135207114Y-62057763D01*
X135457763Y-61807114D01*
X135654696Y-61512383D01*
X135790346Y-61184895D01*
X135859500Y-60837235D01*
X135859500Y-60482765D01*
X136260500Y-60482765D01*
X136260500Y-60837235D01*
X136329654Y-61184895D01*
X136465304Y-61512383D01*
X136662237Y-61807114D01*
X136912886Y-62057763D01*
X137207617Y-62254696D01*
X137535105Y-62390346D01*
X137882765Y-62459500D01*
X138237235Y-62459500D01*
X138584895Y-62390346D01*
X138912383Y-62254696D01*
X139207114Y-62057763D01*
X139457763Y-61807114D01*
X139654696Y-61512383D01*
X139790346Y-61184895D01*
X139859500Y-60837235D01*
X139859500Y-60482765D01*
X140260500Y-60482765D01*
X140260500Y-60837235D01*
X140329654Y-61184895D01*
X140465304Y-61512383D01*
X140662237Y-61807114D01*
X140912886Y-62057763D01*
X141207617Y-62254696D01*
X141535105Y-62390346D01*
X141882765Y-62459500D01*
X142237235Y-62459500D01*
X142584895Y-62390346D01*
X142912383Y-62254696D01*
X143207114Y-62057763D01*
X143457763Y-61807114D01*
X143654696Y-61512383D01*
X143790346Y-61184895D01*
X143859500Y-60837235D01*
X143859500Y-60482765D01*
X144260500Y-60482765D01*
X144260500Y-60837235D01*
X144329654Y-61184895D01*
X144465304Y-61512383D01*
X144662237Y-61807114D01*
X144912886Y-62057763D01*
X145207617Y-62254696D01*
X145535105Y-62390346D01*
X145882765Y-62459500D01*
X146237235Y-62459500D01*
X146584895Y-62390346D01*
X146912383Y-62254696D01*
X147207114Y-62057763D01*
X147457763Y-61807114D01*
X147654696Y-61512383D01*
X147790346Y-61184895D01*
X147859500Y-60837235D01*
X147859500Y-60482765D01*
X147790346Y-60135105D01*
X147654696Y-59807617D01*
X147457763Y-59512886D01*
X147207114Y-59262237D01*
X146912383Y-59065304D01*
X146584895Y-58929654D01*
X146237235Y-58860500D01*
X145882765Y-58860500D01*
X145535105Y-58929654D01*
X145207617Y-59065304D01*
X144912886Y-59262237D01*
X144662237Y-59512886D01*
X144465304Y-59807617D01*
X144329654Y-60135105D01*
X144260500Y-60482765D01*
X143859500Y-60482765D01*
X143790346Y-60135105D01*
X143654696Y-59807617D01*
X143457763Y-59512886D01*
X143207114Y-59262237D01*
X142912383Y-59065304D01*
X142584895Y-58929654D01*
X142237235Y-58860500D01*
X141882765Y-58860500D01*
X141535105Y-58929654D01*
X141207617Y-59065304D01*
X140912886Y-59262237D01*
X140662237Y-59512886D01*
X140465304Y-59807617D01*
X140329654Y-60135105D01*
X140260500Y-60482765D01*
X139859500Y-60482765D01*
X139790346Y-60135105D01*
X139654696Y-59807617D01*
X139457763Y-59512886D01*
X139207114Y-59262237D01*
X138912383Y-59065304D01*
X138584895Y-58929654D01*
X138237235Y-58860500D01*
X137882765Y-58860500D01*
X137535105Y-58929654D01*
X137207617Y-59065304D01*
X136912886Y-59262237D01*
X136662237Y-59512886D01*
X136465304Y-59807617D01*
X136329654Y-60135105D01*
X136260500Y-60482765D01*
X135859500Y-60482765D01*
X135790346Y-60135105D01*
X135654696Y-59807617D01*
X135457763Y-59512886D01*
X135207114Y-59262237D01*
X134912383Y-59065304D01*
X134584895Y-58929654D01*
X134237235Y-58860500D01*
X133882765Y-58860500D01*
X133535105Y-58929654D01*
X133207617Y-59065304D01*
X132912886Y-59262237D01*
X132662237Y-59512886D01*
X132465304Y-59807617D01*
X132329654Y-60135105D01*
X132260500Y-60482765D01*
X132260500Y-60837235D01*
X132329654Y-61184895D01*
X132465304Y-61512383D01*
X132662237Y-61807114D01*
X132912886Y-62057763D01*
X133207617Y-62254696D01*
X133393001Y-62331484D01*
X133393000Y-63783720D01*
X131631530Y-65545191D01*
X131606079Y-65566078D01*
X131585192Y-65591529D01*
X131522727Y-65667642D01*
X131460791Y-65783516D01*
X131445738Y-65833141D01*
X131422652Y-65909245D01*
X131413001Y-66007235D01*
X131409774Y-66040000D01*
X131413001Y-66072765D01*
X131413001Y-66334721D01*
X130727000Y-65648721D01*
X130727000Y-62331484D01*
X130912383Y-62254696D01*
X131207114Y-62057763D01*
X131457763Y-61807114D01*
X131654696Y-61512383D01*
X131790346Y-61184895D01*
X131859500Y-60837235D01*
X131859500Y-60482765D01*
X131790346Y-60135105D01*
X131654696Y-59807617D01*
X131457763Y-59512886D01*
X131207114Y-59262237D01*
X130912383Y-59065304D01*
X130584895Y-58929654D01*
X130237235Y-58860500D01*
X129882765Y-58860500D01*
X129535105Y-58929654D01*
X129207617Y-59065304D01*
X128912886Y-59262237D01*
X128662237Y-59512886D01*
X128465304Y-59807617D01*
X128419501Y-59918195D01*
X128419501Y-59748680D01*
X130541606Y-57626576D01*
X130662237Y-57807114D01*
X130912886Y-58057763D01*
X131207617Y-58254696D01*
X131535105Y-58390346D01*
X131882765Y-58459500D01*
X132237235Y-58459500D01*
X132584895Y-58390346D01*
X132912383Y-58254696D01*
X133207114Y-58057763D01*
X133457763Y-57807114D01*
X133654696Y-57512383D01*
X133790346Y-57184895D01*
X133859500Y-56837235D01*
X133859500Y-56482765D01*
X133790346Y-56135105D01*
X133654696Y-55807617D01*
X133457763Y-55512886D01*
X133207114Y-55262237D01*
X133181317Y-55245000D01*
X134938683Y-55245000D01*
X134912886Y-55262237D01*
%TA.AperFunction,Conductor*%
D22*
G36*
X134912886Y-55262237D02*
G01*
X134662237Y-55512886D01*
X134465304Y-55807617D01*
X134329654Y-56135105D01*
X134260500Y-56482765D01*
X134260500Y-56837235D01*
X134329654Y-57184895D01*
X134465304Y-57512383D01*
X134662237Y-57807114D01*
X134912886Y-58057763D01*
X135207617Y-58254696D01*
X135535105Y-58390346D01*
X135882765Y-58459500D01*
X136237235Y-58459500D01*
X136584895Y-58390346D01*
X136912383Y-58254696D01*
X137207114Y-58057763D01*
X137457763Y-57807114D01*
X137654696Y-57512383D01*
X137790346Y-57184895D01*
X137859500Y-56837235D01*
X137859500Y-56482765D01*
X137790346Y-56135105D01*
X137654696Y-55807617D01*
X137457763Y-55512886D01*
X137207114Y-55262237D01*
X137181317Y-55245000D01*
X138938683Y-55245000D01*
X138912886Y-55262237D01*
X138662237Y-55512886D01*
X138465304Y-55807617D01*
X138329654Y-56135105D01*
X138260500Y-56482765D01*
X138260500Y-56837235D01*
X138329654Y-57184895D01*
X138465304Y-57512383D01*
X138662237Y-57807114D01*
X138912886Y-58057763D01*
X139207617Y-58254696D01*
X139535105Y-58390346D01*
X139882765Y-58459500D01*
X140237235Y-58459500D01*
X140584895Y-58390346D01*
X140912383Y-58254696D01*
X141207114Y-58057763D01*
X141457763Y-57807114D01*
X141654696Y-57512383D01*
X141790346Y-57184895D01*
X141859500Y-56837235D01*
X141859500Y-56482765D01*
X141790346Y-56135105D01*
X141654696Y-55807617D01*
X141457763Y-55512886D01*
X141207114Y-55262237D01*
X141181317Y-55245000D01*
X142938683Y-55245000D01*
X142912886Y-55262237D01*
X142662237Y-55512886D01*
X142465304Y-55807617D01*
X142329654Y-56135105D01*
X142260500Y-56482765D01*
X142260500Y-56837235D01*
X142329654Y-57184895D01*
X142465304Y-57512383D01*
X142662237Y-57807114D01*
X142912886Y-58057763D01*
X143207617Y-58254696D01*
X143535105Y-58390346D01*
X143882765Y-58459500D01*
X144237235Y-58459500D01*
X144584895Y-58390346D01*
X144912383Y-58254696D01*
X145207114Y-58057763D01*
X145457763Y-57807114D01*
X145654696Y-57512383D01*
X145790346Y-57184895D01*
X145832756Y-56971684D01*
X150648000Y-56971684D01*
X150648000Y-57348316D01*
X150721477Y-57717710D01*
X150865608Y-58065671D01*
X151074853Y-58378829D01*
X151341171Y-58645147D01*
X151654329Y-58854392D01*
X152002290Y-58998523D01*
X152371684Y-59072000D01*
X152748316Y-59072000D01*
X153117710Y-58998523D01*
X153465671Y-58854392D01*
X153778829Y-58645147D01*
X154045147Y-58378829D01*
X154254392Y-58065671D01*
X154398523Y-57717710D01*
X154472000Y-57348316D01*
X154472000Y-56971684D01*
X154398523Y-56602290D01*
X154254392Y-56254329D01*
X154045147Y-55941171D01*
X153778829Y-55674853D01*
X153465671Y-55465608D01*
X153117710Y-55321477D01*
X152748316Y-55248000D01*
X152371684Y-55248000D01*
X152002290Y-55321477D01*
X151654329Y-55465608D01*
X151341171Y-55674853D01*
X151074853Y-55941171D01*
X150865608Y-56254329D01*
X150721477Y-56602290D01*
X150648000Y-56971684D01*
X145832756Y-56971684D01*
X145859500Y-56837235D01*
X145859500Y-56482765D01*
X145790346Y-56135105D01*
X145654696Y-55807617D01*
X145457763Y-55512886D01*
X145207114Y-55262237D01*
X145181317Y-55245000D01*
X153406974Y-55245000D01*
X156210000Y-58048026D01*
X156210000Y-73930672D01*
X155987684Y-73836827D01*
X155916185Y-73822682D01*
X155702000Y-73945344D01*
X155702000Y-75438000D01*
X155722000Y-75438000D01*
X155722000Y-75692000D01*
X155702000Y-75692000D01*
X155702000Y-77184656D01*
X155916185Y-77307318D01*
X155987684Y-77293173D01*
X156210000Y-77199328D01*
X156210000Y-77470000D01*
X156222201Y-77593882D01*
X156258336Y-77713004D01*
X156317017Y-77822787D01*
X156395987Y-77919013D01*
X156492213Y-77997983D01*
X156601996Y-78056664D01*
X156721118Y-78092799D01*
X156845000Y-78105000D01*
X157328000Y-78105000D01*
X157328001Y-78481390D01*
X157256696Y-78519502D01*
X157198685Y-78448815D01*
X157101994Y-78369463D01*
X156991680Y-78310498D01*
X156871982Y-78274188D01*
X156747500Y-78261928D01*
X156495750Y-78265000D01*
X156337000Y-78423750D01*
X156337000Y-79248000D01*
X156357000Y-79248000D01*
X156357000Y-79502000D01*
X156337000Y-79502000D01*
X156337000Y-80326250D01*
X156495750Y-80485000D01*
X156747500Y-80488072D01*
X156871982Y-80475812D01*
X156991680Y-80439502D01*
X157101994Y-80380537D01*
X157198685Y-80301185D01*
X157256696Y-80230498D01*
X157328001Y-80268610D01*
X157328001Y-80319013D01*
X156519015Y-81128000D01*
X155684056Y-81128000D01*
X155726049Y-81065152D01*
X155792913Y-80903728D01*
X155827000Y-80732362D01*
X155827000Y-80557638D01*
X155812822Y-80486360D01*
X155924250Y-80485000D01*
X156083000Y-80326250D01*
X156083000Y-79502000D01*
X154432000Y-79502000D01*
X154432000Y-79522000D01*
X154178000Y-79522000D01*
X154178000Y-79502000D01*
X154158000Y-79502000D01*
X154158000Y-79248000D01*
X154178000Y-79248000D01*
X154178000Y-78423750D01*
X154432000Y-78423750D01*
X154432000Y-79248000D01*
X156083000Y-79248000D01*
X156083000Y-78423750D01*
X155924250Y-78265000D01*
X155672500Y-78261928D01*
X155548018Y-78274188D01*
X155428320Y-78310498D01*
X155318006Y-78369463D01*
X155257500Y-78419119D01*
X155196994Y-78369463D01*
X155086680Y-78310498D01*
X154966982Y-78274188D01*
X154842500Y-78261928D01*
X154590750Y-78265000D01*
X154432000Y-78423750D01*
X154178000Y-78423750D01*
X154019250Y-78265000D01*
X153767500Y-78261928D01*
X153681851Y-78270363D01*
X153692349Y-78235755D01*
X153702000Y-78137765D01*
X153702000Y-78137755D01*
X153705226Y-78105001D01*
X153702000Y-78072246D01*
X153702000Y-77204356D01*
X153785000Y-77204356D01*
X153880469Y-77194953D01*
X153972268Y-77167106D01*
X154056872Y-77121885D01*
X154131027Y-77061027D01*
X154191885Y-76986872D01*
X154237106Y-76902268D01*
X154264953Y-76810469D01*
X154274356Y-76715000D01*
X154274356Y-76440890D01*
X154344028Y-76612349D01*
X154493972Y-76840061D01*
X154685460Y-77034145D01*
X154911132Y-77187142D01*
X155162316Y-77293173D01*
X155233815Y-77307318D01*
X155448000Y-77184656D01*
X155448000Y-75692000D01*
X155428000Y-75692000D01*
X155428000Y-75438000D01*
X155448000Y-75438000D01*
X155448000Y-73945344D01*
X155233815Y-73822682D01*
X155162316Y-73836827D01*
X154911132Y-73942858D01*
X154685460Y-74095855D01*
X154493972Y-74289939D01*
X154344028Y-74517651D01*
X154274356Y-74689110D01*
X154274356Y-74415000D01*
X154264953Y-74319531D01*
X154237106Y-74227732D01*
X154191885Y-74143128D01*
X154131027Y-74068973D01*
X154056872Y-74008115D01*
X153972268Y-73962894D01*
X153880469Y-73935047D01*
X153785000Y-73925644D01*
X152285000Y-73925644D01*
X152189531Y-73935047D01*
X152097732Y-73962894D01*
X152013128Y-74008115D01*
X151938973Y-74068973D01*
X151878115Y-74143128D01*
X151832894Y-74227732D01*
X151805047Y-74319531D01*
X151795644Y-74415000D01*
X151795644Y-76715000D01*
X151805047Y-76810469D01*
X151832894Y-76902268D01*
X151878115Y-76986872D01*
X151938973Y-77061027D01*
X152013128Y-77121885D01*
X152097732Y-77167106D01*
X152189531Y-77194953D01*
X152285000Y-77204356D01*
X152368000Y-77204356D01*
X152368000Y-77828720D01*
X152131529Y-78065191D01*
X152106079Y-78086078D01*
X152085192Y-78111529D01*
X152022727Y-78187642D01*
X151960791Y-78303516D01*
X151948107Y-78345329D01*
X151922651Y-78429245D01*
X151914432Y-78512695D01*
X151876180Y-78533141D01*
X151766035Y-78623535D01*
X151675641Y-78733680D01*
X151608473Y-78859344D01*
X151567110Y-78995697D01*
X151553144Y-79137500D01*
X151553144Y-79612500D01*
X151567110Y-79754303D01*
X151608473Y-79890656D01*
X151675641Y-80016320D01*
X151766035Y-80126465D01*
X151876180Y-80216859D01*
X152001844Y-80284027D01*
X152138197Y-80325390D01*
X152280000Y-80339356D01*
X152880000Y-80339356D01*
X153021803Y-80325390D01*
X153158156Y-80284027D01*
X153258304Y-80230498D01*
X153316315Y-80301185D01*
X153413006Y-80380537D01*
X153523320Y-80439502D01*
X153643018Y-80475812D01*
X153767500Y-80488072D01*
X154019250Y-80485000D01*
X154079417Y-80424833D01*
X154053000Y-80557638D01*
X154053000Y-80732362D01*
X154087087Y-80903728D01*
X154153951Y-81065152D01*
X154195944Y-81128000D01*
X151455986Y-81128000D01*
X151282000Y-80954015D01*
X151282000Y-80733397D01*
X151349359Y-80651320D01*
X151416527Y-80525656D01*
X151457890Y-80389303D01*
X151471856Y-80247500D01*
X151471856Y-79772500D01*
X151457890Y-79630697D01*
X151416527Y-79494344D01*
X151349359Y-79368680D01*
X151258965Y-79258535D01*
X151148820Y-79168141D01*
X151023156Y-79100973D01*
X150886803Y-79059610D01*
X150745000Y-79045644D01*
X150245000Y-79045644D01*
X150103197Y-79059610D01*
X149966844Y-79100973D01*
X149841180Y-79168141D01*
X149731035Y-79258535D01*
X149640641Y-79368680D01*
X149582500Y-79477455D01*
X149524359Y-79368680D01*
X149433965Y-79258535D01*
X149337000Y-79178958D01*
X149337000Y-78852754D01*
X149340226Y-78819999D01*
X149337000Y-78787245D01*
X149337000Y-78787235D01*
X149327349Y-78689245D01*
X149289209Y-78563515D01*
X149250854Y-78491759D01*
X149330820Y-78534502D01*
X149450518Y-78570812D01*
X149575000Y-78583072D01*
X149814250Y-78580000D01*
X149973000Y-78421250D01*
X149973000Y-77597000D01*
X150227000Y-77597000D01*
X150227000Y-78421250D01*
X150385750Y-78580000D01*
X150625000Y-78583072D01*
X150749482Y-78570812D01*
X150869180Y-78534502D01*
X150979494Y-78475537D01*
X151076185Y-78396185D01*
X151155537Y-78299494D01*
X151214502Y-78189180D01*
X151250812Y-78069482D01*
X151263072Y-77945000D01*
X151260000Y-77755750D01*
X151101250Y-77597000D01*
X150227000Y-77597000D01*
X149973000Y-77597000D01*
X149953000Y-77597000D01*
X149953000Y-77343000D01*
X149973000Y-77343000D01*
X149973000Y-76518750D01*
X150227000Y-76518750D01*
X150227000Y-77343000D01*
X151101250Y-77343000D01*
X151260000Y-77184250D01*
X151263072Y-76995000D01*
X151250812Y-76870518D01*
X151214502Y-76750820D01*
X151155537Y-76640506D01*
X151076185Y-76543815D01*
X150979494Y-76464463D01*
X150869180Y-76405498D01*
X150749482Y-76369188D01*
X150625000Y-76356928D01*
X150385750Y-76360000D01*
X150227000Y-76518750D01*
X149973000Y-76518750D01*
X149814250Y-76360000D01*
X149575000Y-76356928D01*
X149450518Y-76369188D01*
X149330820Y-76405498D01*
X149220506Y-76464463D01*
X149123815Y-76543815D01*
X149049262Y-76634659D01*
X149041320Y-76628141D01*
X148915656Y-76560973D01*
X148779303Y-76519610D01*
X148637500Y-76505644D01*
X148062500Y-76505644D01*
X147920697Y-76519610D01*
X147784344Y-76560973D01*
X147658680Y-76628141D01*
X147548535Y-76718535D01*
X147458141Y-76828680D01*
X147390973Y-76954344D01*
X147349610Y-77090697D01*
X147335644Y-77232500D01*
X147335644Y-77707500D01*
X147349610Y-77849303D01*
X147390973Y-77985656D01*
X147458141Y-78111320D01*
X147548535Y-78221465D01*
X147658680Y-78311859D01*
X147683001Y-78324859D01*
X147683001Y-78467236D01*
X147679774Y-78500000D01*
X147683001Y-78532765D01*
X147692652Y-78630755D01*
X147702213Y-78662273D01*
X147730791Y-78756484D01*
X147792727Y-78872358D01*
X147829658Y-78917358D01*
X147876079Y-78973922D01*
X147901529Y-78994808D01*
X148003000Y-79096280D01*
X148003000Y-79178957D01*
X147906035Y-79258535D01*
X147815641Y-79368680D01*
X147748473Y-79494344D01*
X147707110Y-79630697D01*
X147693144Y-79772500D01*
X147693144Y-80247500D01*
X147707110Y-80389303D01*
X147748473Y-80525656D01*
X147815641Y-80651320D01*
X147906035Y-80761465D01*
X148016180Y-80851859D01*
X148141844Y-80919027D01*
X148278197Y-80960390D01*
X148420000Y-80974356D01*
X148920000Y-80974356D01*
X149061803Y-80960390D01*
X149198156Y-80919027D01*
X149323820Y-80851859D01*
X149433965Y-80761465D01*
X149524359Y-80651320D01*
X149582500Y-80542545D01*
X149640641Y-80651320D01*
X149708000Y-80733397D01*
X149708000Y-81128000D01*
X145877860Y-81128000D01*
X145888922Y-81118922D01*
X145909813Y-81093466D01*
X146498472Y-80504808D01*
X146523922Y-80483922D01*
X146607273Y-80382358D01*
X146669209Y-80266485D01*
X146707349Y-80140755D01*
X146717000Y-80042765D01*
X146717000Y-80042762D01*
X146720227Y-80010000D01*
X146717000Y-79977238D01*
X146717000Y-79962408D01*
X146738978Y-79940430D01*
X146836049Y-79795152D01*
X146902913Y-79633728D01*
X146937000Y-79462362D01*
X146937000Y-79287638D01*
X146902913Y-79116272D01*
X146836049Y-78954848D01*
X146738978Y-78809570D01*
X146615430Y-78686022D01*
X146470152Y-78588951D01*
X146308728Y-78522087D01*
X146137362Y-78488000D01*
X145962638Y-78488000D01*
X145791272Y-78522087D01*
X145629848Y-78588951D01*
X145495232Y-78678898D01*
X145551605Y-78610207D01*
X145610688Y-78499671D01*
X145647071Y-78379732D01*
X145659356Y-78255000D01*
X145659356Y-77955000D01*
X145647071Y-77830268D01*
X145610688Y-77710329D01*
X145551605Y-77599793D01*
X145472093Y-77502907D01*
X145431996Y-77470000D01*
X145472093Y-77437093D01*
X145551605Y-77340207D01*
X145610688Y-77229671D01*
X145647071Y-77109732D01*
X145659356Y-76985000D01*
X145659356Y-76685000D01*
X145647071Y-76560268D01*
X145610688Y-76440329D01*
X145551605Y-76329793D01*
X145472093Y-76232907D01*
X145431996Y-76200000D01*
X145472093Y-76167093D01*
X145551605Y-76070207D01*
X145610688Y-75959671D01*
X145647071Y-75839732D01*
X145659356Y-75715000D01*
X145659356Y-75415000D01*
X145647071Y-75290268D01*
X145610688Y-75170329D01*
X145551605Y-75059793D01*
X145472093Y-74962907D01*
X145431996Y-74930000D01*
X145472093Y-74897093D01*
X145551605Y-74800207D01*
X145610688Y-74689671D01*
X145647071Y-74569732D01*
X145659356Y-74445000D01*
X145659356Y-74145000D01*
X145647071Y-74020268D01*
X145610688Y-73900329D01*
X145551605Y-73789793D01*
X145472093Y-73692907D01*
X145431996Y-73660000D01*
X145472093Y-73627093D01*
X145551605Y-73530207D01*
X145610688Y-73419671D01*
X145647071Y-73299732D01*
X145659356Y-73175000D01*
X145659356Y-72875000D01*
X145647071Y-72750268D01*
X145610688Y-72630329D01*
X145551605Y-72519793D01*
X145472093Y-72422907D01*
X145431996Y-72390000D01*
X145472093Y-72357093D01*
X145551605Y-72260207D01*
X145610688Y-72149671D01*
X145647071Y-72029732D01*
X145659356Y-71905000D01*
X145659356Y-71605000D01*
X145647071Y-71480268D01*
X145610688Y-71360329D01*
X145567765Y-71280026D01*
X145621185Y-71236185D01*
X145700537Y-71139494D01*
X145759502Y-71029180D01*
X145795812Y-70909482D01*
X145808072Y-70785000D01*
X145805000Y-70770750D01*
X145646250Y-70612000D01*
X144272000Y-70612000D01*
X144272000Y-70632000D01*
X144018000Y-70632000D01*
X144018000Y-70612000D01*
X142643750Y-70612000D01*
X142485000Y-70770750D01*
X142481928Y-70785000D01*
X142494188Y-70909482D01*
X142530498Y-71029180D01*
X142561938Y-71088000D01*
X141557408Y-71088000D01*
X141535430Y-71066022D01*
X141390152Y-70968951D01*
X141228728Y-70902087D01*
X141057362Y-70868000D01*
X140882638Y-70868000D01*
X140711272Y-70902087D01*
X140549848Y-70968951D01*
X140404570Y-71066022D01*
X140281022Y-71189570D01*
X140183951Y-71334848D01*
X140117087Y-71496272D01*
X140083000Y-71667638D01*
X140083000Y-71842362D01*
X140117087Y-72013728D01*
X140183951Y-72175152D01*
X140281022Y-72320430D01*
X140350592Y-72390000D01*
X140281022Y-72459570D01*
X140183951Y-72604848D01*
X140117087Y-72766272D01*
X140083000Y-72937638D01*
X140083000Y-73112362D01*
X140117087Y-73283728D01*
X140183951Y-73445152D01*
X140281022Y-73590430D01*
X140404570Y-73713978D01*
X140549848Y-73811049D01*
X140711272Y-73877913D01*
X140882638Y-73912000D01*
X141057362Y-73912000D01*
X141228728Y-73877913D01*
X141390152Y-73811049D01*
X141535430Y-73713978D01*
X141557408Y-73692000D01*
X142819012Y-73692000D01*
X142817907Y-73692907D01*
X142738395Y-73789793D01*
X142679312Y-73900329D01*
X142642929Y-74020268D01*
X142630644Y-74145000D01*
X142630644Y-74445000D01*
X142642929Y-74569732D01*
X142679312Y-74689671D01*
X142738395Y-74800207D01*
X142817907Y-74897093D01*
X142858004Y-74930000D01*
X142817907Y-74962907D01*
X142738395Y-75059793D01*
X142679312Y-75170329D01*
X142642929Y-75290268D01*
X142630644Y-75415000D01*
X142630644Y-75715000D01*
X142642929Y-75839732D01*
X142679312Y-75959671D01*
X142738395Y-76070207D01*
X142794768Y-76138898D01*
X142660152Y-76048951D01*
X142498728Y-75982087D01*
X142327362Y-75948000D01*
X142152638Y-75948000D01*
X141981272Y-75982087D01*
X141819848Y-76048951D01*
X141674570Y-76146022D01*
X141551022Y-76269570D01*
X141453951Y-76414848D01*
X141387087Y-76576272D01*
X141353000Y-76747638D01*
X141353000Y-76922362D01*
X141387087Y-77093728D01*
X141453951Y-77255152D01*
X141551022Y-77400430D01*
X141573000Y-77422408D01*
X141573001Y-78707236D01*
X141569774Y-78740000D01*
X141573001Y-78772765D01*
X141582652Y-78870755D01*
X141587509Y-78886767D01*
X141620791Y-78996484D01*
X141682727Y-79112358D01*
X141745192Y-79188471D01*
X141766079Y-79213922D01*
X141791529Y-79234808D01*
X142380191Y-79823471D01*
X142401078Y-79848922D01*
X142502642Y-79932273D01*
X142618515Y-79994209D01*
X142744245Y-80032349D01*
X142821501Y-80039958D01*
X142817907Y-80042907D01*
X142738395Y-80139793D01*
X142679312Y-80250329D01*
X142642929Y-80370268D01*
X142630644Y-80495000D01*
X142630644Y-80795000D01*
X142642929Y-80919732D01*
X142679312Y-81039671D01*
X142726525Y-81128000D01*
X137269056Y-81128000D01*
X137311049Y-81065152D01*
X137377913Y-80903728D01*
X137412000Y-80732362D01*
X137412000Y-80557638D01*
X137377913Y-80386272D01*
X137311049Y-80224848D01*
X137213978Y-80079570D01*
X137144408Y-80010000D01*
X137213978Y-79940430D01*
X137311049Y-79795152D01*
X137377913Y-79633728D01*
X137412000Y-79462362D01*
X137412000Y-79287638D01*
X137377913Y-79116272D01*
X137311049Y-78954848D01*
X137213978Y-78809570D01*
X137090430Y-78686022D01*
X136945152Y-78588951D01*
X136783728Y-78522087D01*
X136612362Y-78488000D01*
X136437638Y-78488000D01*
X136302565Y-78514868D01*
X136310688Y-78499671D01*
X136347071Y-78379732D01*
X136359356Y-78255000D01*
X136359356Y-77955000D01*
X136347071Y-77830268D01*
X136310688Y-77710329D01*
X136251605Y-77599793D01*
X136172093Y-77502907D01*
X136131996Y-77470000D01*
X136172093Y-77437093D01*
X136251605Y-77340207D01*
X136310688Y-77229671D01*
X136347071Y-77109732D01*
X136359356Y-76985000D01*
X136359356Y-76685000D01*
X136347071Y-76560268D01*
X136310688Y-76440329D01*
X136251605Y-76329793D01*
X136172093Y-76232907D01*
X136131996Y-76200000D01*
X136172093Y-76167093D01*
X136251605Y-76070207D01*
X136310688Y-75959671D01*
X136347071Y-75839732D01*
X136359356Y-75715000D01*
X136359356Y-75415000D01*
X136347071Y-75290268D01*
X136341393Y-75271550D01*
X136373951Y-75350152D01*
X136471022Y-75495430D01*
X136594570Y-75618978D01*
X136739848Y-75716049D01*
X136901272Y-75782913D01*
X137072638Y-75817000D01*
X137247362Y-75817000D01*
X137418728Y-75782913D01*
X137580152Y-75716049D01*
X137725430Y-75618978D01*
X137848978Y-75495430D01*
X137946049Y-75350152D01*
X138012913Y-75188728D01*
X138047000Y-75017362D01*
X138047000Y-74842638D01*
X138012913Y-74671272D01*
X137946049Y-74509848D01*
X137848978Y-74364570D01*
X137725430Y-74241022D01*
X137580152Y-74143951D01*
X137418728Y-74077087D01*
X137247362Y-74043000D01*
X137216279Y-74043000D01*
X137019813Y-73846534D01*
X136998922Y-73821078D01*
X136897358Y-73737727D01*
X136781485Y-73675791D01*
X136655755Y-73637651D01*
X136557765Y-73628000D01*
X136557754Y-73628000D01*
X136525000Y-73624774D01*
X136492246Y-73628000D01*
X136170988Y-73628000D01*
X136172093Y-73627093D01*
X136251605Y-73530207D01*
X136310688Y-73419671D01*
X136347071Y-73299732D01*
X136359356Y-73175000D01*
X136359356Y-72875000D01*
X136347071Y-72750268D01*
X136310688Y-72630329D01*
X136251605Y-72519793D01*
X136172093Y-72422907D01*
X136131996Y-72390000D01*
X136172093Y-72357093D01*
X136251605Y-72260207D01*
X136310688Y-72149671D01*
X136347071Y-72029732D01*
X136359356Y-71905000D01*
X136359356Y-71605000D01*
X136347071Y-71480268D01*
X136310688Y-71360329D01*
X136251605Y-71249793D01*
X136172093Y-71152907D01*
X136131996Y-71120000D01*
X136172093Y-71087093D01*
X136251605Y-70990207D01*
X136310688Y-70879671D01*
X136347071Y-70759732D01*
X136359356Y-70635000D01*
X136359356Y-70335000D01*
X136347071Y-70210268D01*
X136339407Y-70185000D01*
X142481928Y-70185000D01*
X142485000Y-70199250D01*
X142643750Y-70358000D01*
X144018000Y-70358000D01*
X144018000Y-69708750D01*
X144272000Y-69708750D01*
X144272000Y-70358000D01*
X145646250Y-70358000D01*
X145805000Y-70199250D01*
X145808072Y-70185000D01*
X145795812Y-70060518D01*
X145759502Y-69940820D01*
X145700537Y-69830506D01*
X145621185Y-69733815D01*
X145524494Y-69654463D01*
X145414180Y-69595498D01*
X145294482Y-69559188D01*
X145170000Y-69546928D01*
X144430750Y-69550000D01*
X144272000Y-69708750D01*
X144018000Y-69708750D01*
X143859250Y-69550000D01*
X143120000Y-69546928D01*
X142995518Y-69559188D01*
X142875820Y-69595498D01*
X142765506Y-69654463D01*
X142668815Y-69733815D01*
X142589463Y-69830506D01*
X142530498Y-69940820D01*
X142494188Y-70060518D01*
X142481928Y-70185000D01*
X136339407Y-70185000D01*
X136310688Y-70090329D01*
X136251605Y-69979793D01*
X136172093Y-69882907D01*
X136075207Y-69803395D01*
X135964671Y-69744312D01*
X135844732Y-69707929D01*
X135720000Y-69695644D01*
X133970000Y-69695644D01*
X133845268Y-69707929D01*
X133725329Y-69744312D01*
X133614793Y-69803395D01*
X133517907Y-69882907D01*
X133438395Y-69979793D01*
X133379312Y-70090329D01*
X133342929Y-70210268D01*
X133330644Y-70335000D01*
X133330644Y-70635000D01*
X133342929Y-70759732D01*
X133379312Y-70879671D01*
X133438395Y-70990207D01*
X133517907Y-71087093D01*
X133558004Y-71120000D01*
X133517907Y-71152907D01*
X133438395Y-71249793D01*
X133379312Y-71360329D01*
X133342929Y-71480268D01*
X133330644Y-71605000D01*
X133330644Y-71905000D01*
X133342929Y-72029732D01*
X133379312Y-72149671D01*
X133438395Y-72260207D01*
X133517907Y-72357093D01*
X133519012Y-72358000D01*
X133447408Y-72358000D01*
X133425430Y-72336022D01*
X133280152Y-72238951D01*
X133118728Y-72172087D01*
X132947362Y-72138000D01*
X132772638Y-72138000D01*
X132747000Y-72143100D01*
X132747000Y-66316279D01*
X134508472Y-64554808D01*
X134533922Y-64533922D01*
X134603444Y-64449209D01*
X134617273Y-64432359D01*
X134679209Y-64316485D01*
X134690740Y-64278471D01*
X134717349Y-64190755D01*
X134727000Y-64092765D01*
X134727000Y-64092762D01*
X134730227Y-64060000D01*
X134727000Y-64027238D01*
X134727000Y-62331484D01*
X134912383Y-62254696D01*
X135207114Y-62057763D01*
X135457763Y-61807114D01*
X135654696Y-61512383D01*
X135790346Y-61184895D01*
X135859500Y-60837235D01*
X135859500Y-60482765D01*
X136260500Y-60482765D01*
X136260500Y-60837235D01*
X136329654Y-61184895D01*
X136465304Y-61512383D01*
X136662237Y-61807114D01*
X136912886Y-62057763D01*
X137207617Y-62254696D01*
X137535105Y-62390346D01*
X137882765Y-62459500D01*
X138237235Y-62459500D01*
X138584895Y-62390346D01*
X138912383Y-62254696D01*
X139207114Y-62057763D01*
X139457763Y-61807114D01*
X139654696Y-61512383D01*
X139790346Y-61184895D01*
X139859500Y-60837235D01*
X139859500Y-60482765D01*
X140260500Y-60482765D01*
X140260500Y-60837235D01*
X140329654Y-61184895D01*
X140465304Y-61512383D01*
X140662237Y-61807114D01*
X140912886Y-62057763D01*
X141207617Y-62254696D01*
X141535105Y-62390346D01*
X141882765Y-62459500D01*
X142237235Y-62459500D01*
X142584895Y-62390346D01*
X142912383Y-62254696D01*
X143207114Y-62057763D01*
X143457763Y-61807114D01*
X143654696Y-61512383D01*
X143790346Y-61184895D01*
X143859500Y-60837235D01*
X143859500Y-60482765D01*
X144260500Y-60482765D01*
X144260500Y-60837235D01*
X144329654Y-61184895D01*
X144465304Y-61512383D01*
X144662237Y-61807114D01*
X144912886Y-62057763D01*
X145207617Y-62254696D01*
X145535105Y-62390346D01*
X145882765Y-62459500D01*
X146237235Y-62459500D01*
X146584895Y-62390346D01*
X146912383Y-62254696D01*
X147207114Y-62057763D01*
X147457763Y-61807114D01*
X147654696Y-61512383D01*
X147790346Y-61184895D01*
X147859500Y-60837235D01*
X147859500Y-60482765D01*
X147790346Y-60135105D01*
X147654696Y-59807617D01*
X147457763Y-59512886D01*
X147207114Y-59262237D01*
X146912383Y-59065304D01*
X146584895Y-58929654D01*
X146237235Y-58860500D01*
X145882765Y-58860500D01*
X145535105Y-58929654D01*
X145207617Y-59065304D01*
X144912886Y-59262237D01*
X144662237Y-59512886D01*
X144465304Y-59807617D01*
X144329654Y-60135105D01*
X144260500Y-60482765D01*
X143859500Y-60482765D01*
X143790346Y-60135105D01*
X143654696Y-59807617D01*
X143457763Y-59512886D01*
X143207114Y-59262237D01*
X142912383Y-59065304D01*
X142584895Y-58929654D01*
X142237235Y-58860500D01*
X141882765Y-58860500D01*
X141535105Y-58929654D01*
X141207617Y-59065304D01*
X140912886Y-59262237D01*
X140662237Y-59512886D01*
X140465304Y-59807617D01*
X140329654Y-60135105D01*
X140260500Y-60482765D01*
X139859500Y-60482765D01*
X139790346Y-60135105D01*
X139654696Y-59807617D01*
X139457763Y-59512886D01*
X139207114Y-59262237D01*
X138912383Y-59065304D01*
X138584895Y-58929654D01*
X138237235Y-58860500D01*
X137882765Y-58860500D01*
X137535105Y-58929654D01*
X137207617Y-59065304D01*
X136912886Y-59262237D01*
X136662237Y-59512886D01*
X136465304Y-59807617D01*
X136329654Y-60135105D01*
X136260500Y-60482765D01*
X135859500Y-60482765D01*
X135790346Y-60135105D01*
X135654696Y-59807617D01*
X135457763Y-59512886D01*
X135207114Y-59262237D01*
X134912383Y-59065304D01*
X134584895Y-58929654D01*
X134237235Y-58860500D01*
X133882765Y-58860500D01*
X133535105Y-58929654D01*
X133207617Y-59065304D01*
X132912886Y-59262237D01*
X132662237Y-59512886D01*
X132465304Y-59807617D01*
X132329654Y-60135105D01*
X132260500Y-60482765D01*
X132260500Y-60837235D01*
X132329654Y-61184895D01*
X132465304Y-61512383D01*
X132662237Y-61807114D01*
X132912886Y-62057763D01*
X133207617Y-62254696D01*
X133393001Y-62331484D01*
X133393000Y-63783720D01*
X131631530Y-65545191D01*
X131606079Y-65566078D01*
X131585192Y-65591529D01*
X131522727Y-65667642D01*
X131460791Y-65783516D01*
X131445738Y-65833141D01*
X131422652Y-65909245D01*
X131413001Y-66007235D01*
X131409774Y-66040000D01*
X131413001Y-66072765D01*
X131413001Y-66334721D01*
X130727000Y-65648721D01*
X130727000Y-62331484D01*
X130912383Y-62254696D01*
X131207114Y-62057763D01*
X131457763Y-61807114D01*
X131654696Y-61512383D01*
X131790346Y-61184895D01*
X131859500Y-60837235D01*
X131859500Y-60482765D01*
X131790346Y-60135105D01*
X131654696Y-59807617D01*
X131457763Y-59512886D01*
X131207114Y-59262237D01*
X130912383Y-59065304D01*
X130584895Y-58929654D01*
X130237235Y-58860500D01*
X129882765Y-58860500D01*
X129535105Y-58929654D01*
X129207617Y-59065304D01*
X128912886Y-59262237D01*
X128662237Y-59512886D01*
X128465304Y-59807617D01*
X128419501Y-59918195D01*
X128419501Y-59748680D01*
X130541606Y-57626576D01*
X130662237Y-57807114D01*
X130912886Y-58057763D01*
X131207617Y-58254696D01*
X131535105Y-58390346D01*
X131882765Y-58459500D01*
X132237235Y-58459500D01*
X132584895Y-58390346D01*
X132912383Y-58254696D01*
X133207114Y-58057763D01*
X133457763Y-57807114D01*
X133654696Y-57512383D01*
X133790346Y-57184895D01*
X133859500Y-56837235D01*
X133859500Y-56482765D01*
X133790346Y-56135105D01*
X133654696Y-55807617D01*
X133457763Y-55512886D01*
X133207114Y-55262237D01*
X133181317Y-55245000D01*
X134938683Y-55245000D01*
X134912886Y-55262237D01*
G37*
%TD.AperFunction*%
D21*
X124465304Y-61512383D02*
X124662237Y-61807114D01*
X124912886Y-62057763D01*
X125207617Y-62254696D01*
X125393000Y-62331484D01*
X125393000Y-63797245D01*
X125389774Y-63830000D01*
X125393000Y-63862754D01*
X125393000Y-63862764D01*
X125402651Y-63960754D01*
X125432757Y-64060000D01*
X125440791Y-64086484D01*
X125502727Y-64202358D01*
X125511237Y-64212727D01*
X125586078Y-64303922D01*
X125611534Y-64324813D01*
X129508001Y-68221281D01*
X129508001Y-69279476D01*
X129482093Y-69247907D01*
X129385207Y-69168395D01*
X129274671Y-69109312D01*
X129154732Y-69072929D01*
X129030000Y-69060644D01*
X127380000Y-69060644D01*
X127255268Y-69072929D01*
X127135329Y-69109312D01*
X127024793Y-69168395D01*
X126927907Y-69247907D01*
X126848395Y-69344793D01*
X126789312Y-69455329D01*
X126752929Y-69575268D01*
X126740644Y-69700000D01*
X126740644Y-70000000D01*
X126752929Y-70124732D01*
X126789312Y-70244671D01*
X126848395Y-70355207D01*
X126927907Y-70452093D01*
X126968004Y-70485000D01*
X126927907Y-70517907D01*
X126848395Y-70614793D01*
X126789312Y-70725329D01*
X126752929Y-70845268D01*
X126740644Y-70970000D01*
X126740644Y-71270000D01*
X126752929Y-71394732D01*
X126789312Y-71514671D01*
X126848395Y-71625207D01*
X126927907Y-71722093D01*
X126968004Y-71755000D01*
X126927907Y-71787907D01*
X126848395Y-71884793D01*
X126789312Y-71995329D01*
X126752929Y-72115268D01*
X126740644Y-72240000D01*
X126740644Y-72540000D01*
X126752929Y-72664732D01*
X126789312Y-72784671D01*
X126848395Y-72895207D01*
X126927907Y-72992093D01*
X126968004Y-73025000D01*
X126927907Y-73057907D01*
X126848395Y-73154793D01*
X126789312Y-73265329D01*
X126752929Y-73385268D01*
X126740644Y-73510000D01*
X126740644Y-73810000D01*
X126752929Y-73934732D01*
X126789312Y-74054671D01*
X126848395Y-74165207D01*
X126927907Y-74262093D01*
X126968004Y-74295000D01*
X126927907Y-74327907D01*
X126848395Y-74424793D01*
X126789312Y-74535329D01*
X126752929Y-74655268D01*
X126740644Y-74780000D01*
X126740644Y-75080000D01*
X126752929Y-75204732D01*
X126789312Y-75324671D01*
X126848395Y-75435207D01*
X126927907Y-75532093D01*
X126968004Y-75565000D01*
X126927907Y-75597907D01*
X126848395Y-75694793D01*
X126789312Y-75805329D01*
X126752929Y-75925268D01*
X126740644Y-76050000D01*
X126740644Y-76350000D01*
X126752929Y-76474732D01*
X126789312Y-76594671D01*
X126848395Y-76705207D01*
X126927907Y-76802093D01*
X126968004Y-76835000D01*
X126927907Y-76867907D01*
X126848395Y-76964793D01*
X126789312Y-77075329D01*
X126752929Y-77195268D01*
X126740644Y-77320000D01*
X126740644Y-77620000D01*
X126752929Y-77744732D01*
X126789312Y-77864671D01*
X126848395Y-77975207D01*
X126927907Y-78072093D01*
X126968004Y-78105000D01*
X126927907Y-78137907D01*
X126848395Y-78234793D01*
X126789312Y-78345329D01*
X126752929Y-78465268D01*
X126740644Y-78590000D01*
X126740644Y-78890000D01*
X126752929Y-79014732D01*
X126789312Y-79134671D01*
X126848395Y-79245207D01*
X126927907Y-79342093D01*
X127024793Y-79421605D01*
X127135329Y-79480688D01*
X127255268Y-79517071D01*
X127380000Y-79529356D01*
X129030000Y-79529356D01*
X129154732Y-79517071D01*
X129274671Y-79480688D01*
X129385207Y-79421605D01*
X129482093Y-79342093D01*
X129492710Y-79329156D01*
X129552358Y-79297273D01*
X129653922Y-79213922D01*
X129674813Y-79188466D01*
X130576734Y-78286545D01*
X130592087Y-78363728D01*
X130658951Y-78525152D01*
X130756022Y-78670430D01*
X130879570Y-78793978D01*
X131024848Y-78891049D01*
X131186272Y-78957913D01*
X131357638Y-78992000D01*
X131532362Y-78992000D01*
X131703728Y-78957913D01*
X131865152Y-78891049D01*
X132010430Y-78793978D01*
X132032408Y-78772000D01*
X133519012Y-78772000D01*
X133517907Y-78772907D01*
X133438395Y-78869793D01*
X133379312Y-78980329D01*
X133342929Y-79100268D01*
X133330644Y-79225000D01*
X133330644Y-79525000D01*
X133342929Y-79649732D01*
X133379312Y-79769671D01*
X133438395Y-79880207D01*
X133517907Y-79977093D01*
X133558004Y-80010000D01*
X133517907Y-80042907D01*
X133438395Y-80139793D01*
X133379312Y-80250329D01*
X133342929Y-80370268D01*
X133330644Y-80495000D01*
X133330644Y-80795000D01*
X133342929Y-80919732D01*
X133379312Y-81039671D01*
X133426525Y-81128000D01*
X127767284Y-81128000D01*
X127768072Y-81120000D01*
X127765000Y-80930750D01*
X127606250Y-80772000D01*
X126719500Y-80772000D01*
X126719500Y-80792000D01*
X126465500Y-80792000D01*
X126465500Y-80772000D01*
X126445500Y-80772000D01*
X126445500Y-80518000D01*
X126465500Y-80518000D01*
X126465500Y-79693750D01*
X126719500Y-79693750D01*
X126719500Y-80518000D01*
X127606250Y-80518000D01*
X127765000Y-80359250D01*
X127768072Y-80170000D01*
X127755812Y-80045518D01*
X127719502Y-79925820D01*
X127660537Y-79815506D01*
X127581185Y-79718815D01*
X127484494Y-79639463D01*
X127374180Y-79580498D01*
X127254482Y-79544188D01*
X127130000Y-79531928D01*
X126878250Y-79535000D01*
X126719500Y-79693750D01*
X126465500Y-79693750D01*
X126306750Y-79535000D01*
X126055000Y-79531928D01*
X125930518Y-79544188D01*
X125810820Y-79580498D01*
X125700506Y-79639463D01*
X125603815Y-79718815D01*
X125545804Y-79789502D01*
X125534500Y-79783461D01*
X125534500Y-79180254D01*
X125537726Y-79147499D01*
X125534500Y-79114745D01*
X125534500Y-77910254D01*
X125537726Y-77877499D01*
X125534500Y-77844745D01*
X125534500Y-77844735D01*
X125524849Y-77746745D01*
X125486709Y-77621015D01*
X125475879Y-77600754D01*
X125424773Y-77505141D01*
X125392214Y-77465469D01*
X125341422Y-77403578D01*
X125315967Y-77382688D01*
X124954814Y-77021535D01*
X124933922Y-76996078D01*
X124832358Y-76912727D01*
X124749217Y-76868287D01*
X124760537Y-76854494D01*
X124819502Y-76744180D01*
X124855812Y-76624482D01*
X124868072Y-76500000D01*
X124865000Y-76485750D01*
X124706250Y-76327000D01*
X123382000Y-76327000D01*
X123382000Y-76347000D01*
X123128000Y-76347000D01*
X123128000Y-76327000D01*
X121803750Y-76327000D01*
X121645000Y-76485750D01*
X121641928Y-76500000D01*
X121654188Y-76624482D01*
X121690498Y-76744180D01*
X121749463Y-76854494D01*
X121828815Y-76951185D01*
X121882235Y-76995026D01*
X121839312Y-77075329D01*
X121802929Y-77195268D01*
X121790644Y-77320000D01*
X121790644Y-77620000D01*
X121802929Y-77744732D01*
X121839312Y-77864671D01*
X121898395Y-77975207D01*
X121977907Y-78072093D01*
X122018004Y-78105000D01*
X121977907Y-78137907D01*
X121898395Y-78234793D01*
X121839312Y-78345329D01*
X121802929Y-78465268D01*
X121790644Y-78590000D01*
X121790644Y-78890000D01*
X121802929Y-79014732D01*
X121839312Y-79134671D01*
X121898395Y-79245207D01*
X121977907Y-79342093D01*
X122074793Y-79421605D01*
X122185329Y-79480688D01*
X122305268Y-79517071D01*
X122430000Y-79529356D01*
X124080000Y-79529356D01*
X124200500Y-79517488D01*
X124200500Y-79783460D01*
X124163680Y-79803141D01*
X124053535Y-79893535D01*
X123963141Y-80003680D01*
X123895973Y-80129344D01*
X123854610Y-80265697D01*
X123840644Y-80407500D01*
X123840644Y-80882500D01*
X123854610Y-81024303D01*
X123886067Y-81128000D01*
X116779281Y-81128000D01*
X118558471Y-79348811D01*
X118583922Y-79327924D01*
X118649514Y-79248000D01*
X118667274Y-79226360D01*
X118729209Y-79110487D01*
X118735651Y-79089250D01*
X118767349Y-78984757D01*
X118777000Y-78886767D01*
X118777000Y-78886764D01*
X118780227Y-78854002D01*
X118777000Y-78821240D01*
X118777000Y-77859356D01*
X118910000Y-77859356D01*
X119005469Y-77849953D01*
X119097268Y-77822106D01*
X119181872Y-77776885D01*
X119200009Y-77762000D01*
X119722246Y-77762000D01*
X119755000Y-77765226D01*
X119787754Y-77762000D01*
X119787765Y-77762000D01*
X119885755Y-77752349D01*
X120011485Y-77714209D01*
X120127358Y-77652273D01*
X120228922Y-77568922D01*
X120249813Y-77543466D01*
X121762015Y-76031265D01*
X121803750Y-76073000D01*
X123128000Y-76073000D01*
X123128000Y-76053000D01*
X123382000Y-76053000D01*
X123382000Y-76073000D01*
X124706250Y-76073000D01*
X124865000Y-75914250D01*
X124868072Y-75900000D01*
X124856945Y-75787025D01*
X125007638Y-75817000D01*
X125182362Y-75817000D01*
X125353728Y-75782913D01*
X125515152Y-75716049D01*
X125660430Y-75618978D01*
X125783978Y-75495430D01*
X125881049Y-75350152D01*
X125947913Y-75188728D01*
X125982000Y-75017362D01*
X125982000Y-74842638D01*
X125947913Y-74671272D01*
X125881049Y-74509848D01*
X125783978Y-74364570D01*
X125714408Y-74295000D01*
X125783978Y-74225430D01*
X125881049Y-74080152D01*
X125947913Y-73918728D01*
X125982000Y-73747362D01*
X125982000Y-73572638D01*
X125947913Y-73401272D01*
X125881049Y-73239848D01*
X125783978Y-73094570D01*
X125714408Y-73025000D01*
X125783978Y-72955430D01*
X125881049Y-72810152D01*
X125947913Y-72648728D01*
X125982000Y-72477362D01*
X125982000Y-72302638D01*
X125947913Y-72131272D01*
X125881049Y-71969848D01*
X125783978Y-71824570D01*
X125660430Y-71701022D01*
X125515152Y-71603951D01*
X125353728Y-71537087D01*
X125182362Y-71503000D01*
X125007638Y-71503000D01*
X124836272Y-71537087D01*
X124674848Y-71603951D01*
X124573444Y-71671707D01*
X124611605Y-71625207D01*
X124670688Y-71514671D01*
X124707071Y-71394732D01*
X124719356Y-71270000D01*
X124719356Y-70970000D01*
X124707071Y-70845268D01*
X124670688Y-70725329D01*
X124627765Y-70645026D01*
X124681185Y-70601185D01*
X124760537Y-70504494D01*
X124819502Y-70394180D01*
X124855812Y-70274482D01*
X124868072Y-70150000D01*
X124865000Y-70135750D01*
X124706250Y-69977000D01*
X123382000Y-69977000D01*
X123382000Y-69997000D01*
X123128000Y-69997000D01*
X123128000Y-69977000D01*
X121803750Y-69977000D01*
X121645000Y-70135750D01*
X121641928Y-70150000D01*
X121654188Y-70274482D01*
X121667496Y-70318353D01*
X121543728Y-70267087D01*
X121372362Y-70233000D01*
X121317000Y-70233000D01*
X121317000Y-69550000D01*
X121641928Y-69550000D01*
X121645000Y-69564250D01*
X121803750Y-69723000D01*
X123128000Y-69723000D01*
X123128000Y-69073750D01*
X123382000Y-69073750D01*
X123382000Y-69723000D01*
X124706250Y-69723000D01*
X124865000Y-69564250D01*
X124868072Y-69550000D01*
X124855812Y-69425518D01*
X124819502Y-69305820D01*
X124760537Y-69195506D01*
X124681185Y-69098815D01*
X124584494Y-69019463D01*
X124474180Y-68960498D01*
X124354482Y-68924188D01*
X124230000Y-68911928D01*
X123540750Y-68915000D01*
X123382000Y-69073750D01*
X123128000Y-69073750D01*
X122969250Y-68915000D01*
X122280000Y-68911928D01*
X122155518Y-68924188D01*
X122035820Y-68960498D01*
X121925506Y-69019463D01*
X121828815Y-69098815D01*
X121749463Y-69195506D01*
X121690498Y-69305820D01*
X121654188Y-69425518D01*
X121641928Y-69550000D01*
X121317000Y-69550000D01*
X121317000Y-65046279D01*
X124200972Y-62162308D01*
X124226423Y-62141421D01*
X124272077Y-62085791D01*
X124309774Y-62039858D01*
X124371710Y-61923984D01*
X124409850Y-61798254D01*
X124419501Y-61700264D01*
X124419501Y-61700254D01*
X124422727Y-61667499D01*
X124419501Y-61634745D01*
X124419501Y-61401805D01*
X124465304Y-61512383D01*
%TA.AperFunction,Conductor*%
D22*
G36*
X124465304Y-61512383D02*
G01*
X124662237Y-61807114D01*
X124912886Y-62057763D01*
X125207617Y-62254696D01*
X125393000Y-62331484D01*
X125393000Y-63797245D01*
X125389774Y-63830000D01*
X125393000Y-63862754D01*
X125393000Y-63862764D01*
X125402651Y-63960754D01*
X125432757Y-64060000D01*
X125440791Y-64086484D01*
X125502727Y-64202358D01*
X125511237Y-64212727D01*
X125586078Y-64303922D01*
X125611534Y-64324813D01*
X129508001Y-68221281D01*
X129508001Y-69279476D01*
X129482093Y-69247907D01*
X129385207Y-69168395D01*
X129274671Y-69109312D01*
X129154732Y-69072929D01*
X129030000Y-69060644D01*
X127380000Y-69060644D01*
X127255268Y-69072929D01*
X127135329Y-69109312D01*
X127024793Y-69168395D01*
X126927907Y-69247907D01*
X126848395Y-69344793D01*
X126789312Y-69455329D01*
X126752929Y-69575268D01*
X126740644Y-69700000D01*
X126740644Y-70000000D01*
X126752929Y-70124732D01*
X126789312Y-70244671D01*
X126848395Y-70355207D01*
X126927907Y-70452093D01*
X126968004Y-70485000D01*
X126927907Y-70517907D01*
X126848395Y-70614793D01*
X126789312Y-70725329D01*
X126752929Y-70845268D01*
X126740644Y-70970000D01*
X126740644Y-71270000D01*
X126752929Y-71394732D01*
X126789312Y-71514671D01*
X126848395Y-71625207D01*
X126927907Y-71722093D01*
X126968004Y-71755000D01*
X126927907Y-71787907D01*
X126848395Y-71884793D01*
X126789312Y-71995329D01*
X126752929Y-72115268D01*
X126740644Y-72240000D01*
X126740644Y-72540000D01*
X126752929Y-72664732D01*
X126789312Y-72784671D01*
X126848395Y-72895207D01*
X126927907Y-72992093D01*
X126968004Y-73025000D01*
X126927907Y-73057907D01*
X126848395Y-73154793D01*
X126789312Y-73265329D01*
X126752929Y-73385268D01*
X126740644Y-73510000D01*
X126740644Y-73810000D01*
X126752929Y-73934732D01*
X126789312Y-74054671D01*
X126848395Y-74165207D01*
X126927907Y-74262093D01*
X126968004Y-74295000D01*
X126927907Y-74327907D01*
X126848395Y-74424793D01*
X126789312Y-74535329D01*
X126752929Y-74655268D01*
X126740644Y-74780000D01*
X126740644Y-75080000D01*
X126752929Y-75204732D01*
X126789312Y-75324671D01*
X126848395Y-75435207D01*
X126927907Y-75532093D01*
X126968004Y-75565000D01*
X126927907Y-75597907D01*
X126848395Y-75694793D01*
X126789312Y-75805329D01*
X126752929Y-75925268D01*
X126740644Y-76050000D01*
X126740644Y-76350000D01*
X126752929Y-76474732D01*
X126789312Y-76594671D01*
X126848395Y-76705207D01*
X126927907Y-76802093D01*
X126968004Y-76835000D01*
X126927907Y-76867907D01*
X126848395Y-76964793D01*
X126789312Y-77075329D01*
X126752929Y-77195268D01*
X126740644Y-77320000D01*
X126740644Y-77620000D01*
X126752929Y-77744732D01*
X126789312Y-77864671D01*
X126848395Y-77975207D01*
X126927907Y-78072093D01*
X126968004Y-78105000D01*
X126927907Y-78137907D01*
X126848395Y-78234793D01*
X126789312Y-78345329D01*
X126752929Y-78465268D01*
X126740644Y-78590000D01*
X126740644Y-78890000D01*
X126752929Y-79014732D01*
X126789312Y-79134671D01*
X126848395Y-79245207D01*
X126927907Y-79342093D01*
X127024793Y-79421605D01*
X127135329Y-79480688D01*
X127255268Y-79517071D01*
X127380000Y-79529356D01*
X129030000Y-79529356D01*
X129154732Y-79517071D01*
X129274671Y-79480688D01*
X129385207Y-79421605D01*
X129482093Y-79342093D01*
X129492710Y-79329156D01*
X129552358Y-79297273D01*
X129653922Y-79213922D01*
X129674813Y-79188466D01*
X130576734Y-78286545D01*
X130592087Y-78363728D01*
X130658951Y-78525152D01*
X130756022Y-78670430D01*
X130879570Y-78793978D01*
X131024848Y-78891049D01*
X131186272Y-78957913D01*
X131357638Y-78992000D01*
X131532362Y-78992000D01*
X131703728Y-78957913D01*
X131865152Y-78891049D01*
X132010430Y-78793978D01*
X132032408Y-78772000D01*
X133519012Y-78772000D01*
X133517907Y-78772907D01*
X133438395Y-78869793D01*
X133379312Y-78980329D01*
X133342929Y-79100268D01*
X133330644Y-79225000D01*
X133330644Y-79525000D01*
X133342929Y-79649732D01*
X133379312Y-79769671D01*
X133438395Y-79880207D01*
X133517907Y-79977093D01*
X133558004Y-80010000D01*
X133517907Y-80042907D01*
X133438395Y-80139793D01*
X133379312Y-80250329D01*
X133342929Y-80370268D01*
X133330644Y-80495000D01*
X133330644Y-80795000D01*
X133342929Y-80919732D01*
X133379312Y-81039671D01*
X133426525Y-81128000D01*
X127767284Y-81128000D01*
X127768072Y-81120000D01*
X127765000Y-80930750D01*
X127606250Y-80772000D01*
X126719500Y-80772000D01*
X126719500Y-80792000D01*
X126465500Y-80792000D01*
X126465500Y-80772000D01*
X126445500Y-80772000D01*
X126445500Y-80518000D01*
X126465500Y-80518000D01*
X126465500Y-79693750D01*
X126719500Y-79693750D01*
X126719500Y-80518000D01*
X127606250Y-80518000D01*
X127765000Y-80359250D01*
X127768072Y-80170000D01*
X127755812Y-80045518D01*
X127719502Y-79925820D01*
X127660537Y-79815506D01*
X127581185Y-79718815D01*
X127484494Y-79639463D01*
X127374180Y-79580498D01*
X127254482Y-79544188D01*
X127130000Y-79531928D01*
X126878250Y-79535000D01*
X126719500Y-79693750D01*
X126465500Y-79693750D01*
X126306750Y-79535000D01*
X126055000Y-79531928D01*
X125930518Y-79544188D01*
X125810820Y-79580498D01*
X125700506Y-79639463D01*
X125603815Y-79718815D01*
X125545804Y-79789502D01*
X125534500Y-79783461D01*
X125534500Y-79180254D01*
X125537726Y-79147499D01*
X125534500Y-79114745D01*
X125534500Y-77910254D01*
X125537726Y-77877499D01*
X125534500Y-77844745D01*
X125534500Y-77844735D01*
X125524849Y-77746745D01*
X125486709Y-77621015D01*
X125475879Y-77600754D01*
X125424773Y-77505141D01*
X125392214Y-77465469D01*
X125341422Y-77403578D01*
X125315967Y-77382688D01*
X124954814Y-77021535D01*
X124933922Y-76996078D01*
X124832358Y-76912727D01*
X124749217Y-76868287D01*
X124760537Y-76854494D01*
X124819502Y-76744180D01*
X124855812Y-76624482D01*
X124868072Y-76500000D01*
X124865000Y-76485750D01*
X124706250Y-76327000D01*
X123382000Y-76327000D01*
X123382000Y-76347000D01*
X123128000Y-76347000D01*
X123128000Y-76327000D01*
X121803750Y-76327000D01*
X121645000Y-76485750D01*
X121641928Y-76500000D01*
X121654188Y-76624482D01*
X121690498Y-76744180D01*
X121749463Y-76854494D01*
X121828815Y-76951185D01*
X121882235Y-76995026D01*
X121839312Y-77075329D01*
X121802929Y-77195268D01*
X121790644Y-77320000D01*
X121790644Y-77620000D01*
X121802929Y-77744732D01*
X121839312Y-77864671D01*
X121898395Y-77975207D01*
X121977907Y-78072093D01*
X122018004Y-78105000D01*
X121977907Y-78137907D01*
X121898395Y-78234793D01*
X121839312Y-78345329D01*
X121802929Y-78465268D01*
X121790644Y-78590000D01*
X121790644Y-78890000D01*
X121802929Y-79014732D01*
X121839312Y-79134671D01*
X121898395Y-79245207D01*
X121977907Y-79342093D01*
X122074793Y-79421605D01*
X122185329Y-79480688D01*
X122305268Y-79517071D01*
X122430000Y-79529356D01*
X124080000Y-79529356D01*
X124200500Y-79517488D01*
X124200500Y-79783460D01*
X124163680Y-79803141D01*
X124053535Y-79893535D01*
X123963141Y-80003680D01*
X123895973Y-80129344D01*
X123854610Y-80265697D01*
X123840644Y-80407500D01*
X123840644Y-80882500D01*
X123854610Y-81024303D01*
X123886067Y-81128000D01*
X116779281Y-81128000D01*
X118558471Y-79348811D01*
X118583922Y-79327924D01*
X118649514Y-79248000D01*
X118667274Y-79226360D01*
X118729209Y-79110487D01*
X118735651Y-79089250D01*
X118767349Y-78984757D01*
X118777000Y-78886767D01*
X118777000Y-78886764D01*
X118780227Y-78854002D01*
X118777000Y-78821240D01*
X118777000Y-77859356D01*
X118910000Y-77859356D01*
X119005469Y-77849953D01*
X119097268Y-77822106D01*
X119181872Y-77776885D01*
X119200009Y-77762000D01*
X119722246Y-77762000D01*
X119755000Y-77765226D01*
X119787754Y-77762000D01*
X119787765Y-77762000D01*
X119885755Y-77752349D01*
X120011485Y-77714209D01*
X120127358Y-77652273D01*
X120228922Y-77568922D01*
X120249813Y-77543466D01*
X121762015Y-76031265D01*
X121803750Y-76073000D01*
X123128000Y-76073000D01*
X123128000Y-76053000D01*
X123382000Y-76053000D01*
X123382000Y-76073000D01*
X124706250Y-76073000D01*
X124865000Y-75914250D01*
X124868072Y-75900000D01*
X124856945Y-75787025D01*
X125007638Y-75817000D01*
X125182362Y-75817000D01*
X125353728Y-75782913D01*
X125515152Y-75716049D01*
X125660430Y-75618978D01*
X125783978Y-75495430D01*
X125881049Y-75350152D01*
X125947913Y-75188728D01*
X125982000Y-75017362D01*
X125982000Y-74842638D01*
X125947913Y-74671272D01*
X125881049Y-74509848D01*
X125783978Y-74364570D01*
X125714408Y-74295000D01*
X125783978Y-74225430D01*
X125881049Y-74080152D01*
X125947913Y-73918728D01*
X125982000Y-73747362D01*
X125982000Y-73572638D01*
X125947913Y-73401272D01*
X125881049Y-73239848D01*
X125783978Y-73094570D01*
X125714408Y-73025000D01*
X125783978Y-72955430D01*
X125881049Y-72810152D01*
X125947913Y-72648728D01*
X125982000Y-72477362D01*
X125982000Y-72302638D01*
X125947913Y-72131272D01*
X125881049Y-71969848D01*
X125783978Y-71824570D01*
X125660430Y-71701022D01*
X125515152Y-71603951D01*
X125353728Y-71537087D01*
X125182362Y-71503000D01*
X125007638Y-71503000D01*
X124836272Y-71537087D01*
X124674848Y-71603951D01*
X124573444Y-71671707D01*
X124611605Y-71625207D01*
X124670688Y-71514671D01*
X124707071Y-71394732D01*
X124719356Y-71270000D01*
X124719356Y-70970000D01*
X124707071Y-70845268D01*
X124670688Y-70725329D01*
X124627765Y-70645026D01*
X124681185Y-70601185D01*
X124760537Y-70504494D01*
X124819502Y-70394180D01*
X124855812Y-70274482D01*
X124868072Y-70150000D01*
X124865000Y-70135750D01*
X124706250Y-69977000D01*
X123382000Y-69977000D01*
X123382000Y-69997000D01*
X123128000Y-69997000D01*
X123128000Y-69977000D01*
X121803750Y-69977000D01*
X121645000Y-70135750D01*
X121641928Y-70150000D01*
X121654188Y-70274482D01*
X121667496Y-70318353D01*
X121543728Y-70267087D01*
X121372362Y-70233000D01*
X121317000Y-70233000D01*
X121317000Y-69550000D01*
X121641928Y-69550000D01*
X121645000Y-69564250D01*
X121803750Y-69723000D01*
X123128000Y-69723000D01*
X123128000Y-69073750D01*
X123382000Y-69073750D01*
X123382000Y-69723000D01*
X124706250Y-69723000D01*
X124865000Y-69564250D01*
X124868072Y-69550000D01*
X124855812Y-69425518D01*
X124819502Y-69305820D01*
X124760537Y-69195506D01*
X124681185Y-69098815D01*
X124584494Y-69019463D01*
X124474180Y-68960498D01*
X124354482Y-68924188D01*
X124230000Y-68911928D01*
X123540750Y-68915000D01*
X123382000Y-69073750D01*
X123128000Y-69073750D01*
X122969250Y-68915000D01*
X122280000Y-68911928D01*
X122155518Y-68924188D01*
X122035820Y-68960498D01*
X121925506Y-69019463D01*
X121828815Y-69098815D01*
X121749463Y-69195506D01*
X121690498Y-69305820D01*
X121654188Y-69425518D01*
X121641928Y-69550000D01*
X121317000Y-69550000D01*
X121317000Y-65046279D01*
X124200972Y-62162308D01*
X124226423Y-62141421D01*
X124272077Y-62085791D01*
X124309774Y-62039858D01*
X124371710Y-61923984D01*
X124409850Y-61798254D01*
X124419501Y-61700264D01*
X124419501Y-61700254D01*
X124422727Y-61667499D01*
X124419501Y-61634745D01*
X124419501Y-61401805D01*
X124465304Y-61512383D01*
G37*
%TD.AperFunction*%
D21*
X120719570Y-71808978D02*
X120864848Y-71906049D01*
X121026272Y-71972913D01*
X121197638Y-72007000D01*
X121372362Y-72007000D01*
X121543728Y-71972913D01*
X121705152Y-71906049D01*
X121850430Y-71808978D01*
X121872408Y-71787000D01*
X121979012Y-71787000D01*
X121977907Y-71787907D01*
X121898395Y-71884793D01*
X121839312Y-71995329D01*
X121802929Y-72115268D01*
X121790644Y-72240000D01*
X121790644Y-72540000D01*
X121802929Y-72664732D01*
X121839312Y-72784671D01*
X121898395Y-72895207D01*
X121977907Y-72992093D01*
X122018004Y-73025000D01*
X121977907Y-73057907D01*
X121898395Y-73154793D01*
X121839312Y-73265329D01*
X121802929Y-73385268D01*
X121790644Y-73510000D01*
X121790644Y-73810000D01*
X121802929Y-73934732D01*
X121839312Y-74054671D01*
X121898395Y-74165207D01*
X121977907Y-74262093D01*
X121979012Y-74263000D01*
X121952754Y-74263000D01*
X121919999Y-74259774D01*
X121887245Y-74263000D01*
X121887235Y-74263000D01*
X121789245Y-74272651D01*
X121663515Y-74310791D01*
X121605867Y-74341605D01*
X121547641Y-74372727D01*
X121471527Y-74435192D01*
X121471523Y-74435196D01*
X121446078Y-74456078D01*
X121425195Y-74481524D01*
X119478721Y-76428000D01*
X119399356Y-76428000D01*
X119399356Y-76020000D01*
X119389953Y-75924531D01*
X119380995Y-75895000D01*
X119389953Y-75865469D01*
X119399356Y-75770000D01*
X119399356Y-75220000D01*
X119389953Y-75124531D01*
X119380995Y-75095000D01*
X119389953Y-75065469D01*
X119399356Y-74970000D01*
X119399356Y-74574667D01*
X119438826Y-74527041D01*
X119498320Y-74417012D01*
X119535206Y-74297490D01*
X119545000Y-74180750D01*
X119386250Y-74022000D01*
X119192698Y-74022000D01*
X119181872Y-74013115D01*
X119097268Y-73967894D01*
X119005469Y-73940047D01*
X118910000Y-73930644D01*
X117963000Y-73930644D01*
X117963000Y-73859356D01*
X118910000Y-73859356D01*
X119005469Y-73849953D01*
X119097268Y-73822106D01*
X119181872Y-73776885D01*
X119192698Y-73768000D01*
X119386250Y-73768000D01*
X119545000Y-73609250D01*
X119535206Y-73492510D01*
X119498320Y-73372988D01*
X119438826Y-73262959D01*
X119399356Y-73215333D01*
X119399356Y-72962000D01*
X119442246Y-72962000D01*
X119475000Y-72965226D01*
X119507754Y-72962000D01*
X119507765Y-72962000D01*
X119605755Y-72952349D01*
X119731485Y-72914209D01*
X119847358Y-72852273D01*
X119948922Y-72768922D01*
X119969813Y-72743466D01*
X120463476Y-72249805D01*
X120488922Y-72228922D01*
X120509804Y-72203477D01*
X120509808Y-72203473D01*
X120572273Y-72127359D01*
X120593847Y-72086997D01*
X120634209Y-72011485D01*
X120672349Y-71885755D01*
X120682000Y-71787765D01*
X120682000Y-71787755D01*
X120683466Y-71772874D01*
X120719570Y-71808978D01*
%TA.AperFunction,Conductor*%
D22*
G36*
X120719570Y-71808978D02*
G01*
X120864848Y-71906049D01*
X121026272Y-71972913D01*
X121197638Y-72007000D01*
X121372362Y-72007000D01*
X121543728Y-71972913D01*
X121705152Y-71906049D01*
X121850430Y-71808978D01*
X121872408Y-71787000D01*
X121979012Y-71787000D01*
X121977907Y-71787907D01*
X121898395Y-71884793D01*
X121839312Y-71995329D01*
X121802929Y-72115268D01*
X121790644Y-72240000D01*
X121790644Y-72540000D01*
X121802929Y-72664732D01*
X121839312Y-72784671D01*
X121898395Y-72895207D01*
X121977907Y-72992093D01*
X122018004Y-73025000D01*
X121977907Y-73057907D01*
X121898395Y-73154793D01*
X121839312Y-73265329D01*
X121802929Y-73385268D01*
X121790644Y-73510000D01*
X121790644Y-73810000D01*
X121802929Y-73934732D01*
X121839312Y-74054671D01*
X121898395Y-74165207D01*
X121977907Y-74262093D01*
X121979012Y-74263000D01*
X121952754Y-74263000D01*
X121919999Y-74259774D01*
X121887245Y-74263000D01*
X121887235Y-74263000D01*
X121789245Y-74272651D01*
X121663515Y-74310791D01*
X121605867Y-74341605D01*
X121547641Y-74372727D01*
X121471527Y-74435192D01*
X121471523Y-74435196D01*
X121446078Y-74456078D01*
X121425195Y-74481524D01*
X119478721Y-76428000D01*
X119399356Y-76428000D01*
X119399356Y-76020000D01*
X119389953Y-75924531D01*
X119380995Y-75895000D01*
X119389953Y-75865469D01*
X119399356Y-75770000D01*
X119399356Y-75220000D01*
X119389953Y-75124531D01*
X119380995Y-75095000D01*
X119389953Y-75065469D01*
X119399356Y-74970000D01*
X119399356Y-74574667D01*
X119438826Y-74527041D01*
X119498320Y-74417012D01*
X119535206Y-74297490D01*
X119545000Y-74180750D01*
X119386250Y-74022000D01*
X119192698Y-74022000D01*
X119181872Y-74013115D01*
X119097268Y-73967894D01*
X119005469Y-73940047D01*
X118910000Y-73930644D01*
X117963000Y-73930644D01*
X117963000Y-73859356D01*
X118910000Y-73859356D01*
X119005469Y-73849953D01*
X119097268Y-73822106D01*
X119181872Y-73776885D01*
X119192698Y-73768000D01*
X119386250Y-73768000D01*
X119545000Y-73609250D01*
X119535206Y-73492510D01*
X119498320Y-73372988D01*
X119438826Y-73262959D01*
X119399356Y-73215333D01*
X119399356Y-72962000D01*
X119442246Y-72962000D01*
X119475000Y-72965226D01*
X119507754Y-72962000D01*
X119507765Y-72962000D01*
X119605755Y-72952349D01*
X119731485Y-72914209D01*
X119847358Y-72852273D01*
X119948922Y-72768922D01*
X119969813Y-72743466D01*
X120463476Y-72249805D01*
X120488922Y-72228922D01*
X120509804Y-72203477D01*
X120509808Y-72203473D01*
X120572273Y-72127359D01*
X120593847Y-72086997D01*
X120634209Y-72011485D01*
X120672349Y-71885755D01*
X120682000Y-71787765D01*
X120682000Y-71787755D01*
X120683466Y-71772874D01*
X120719570Y-71808978D01*
G37*
%TD.AperFunction*%
D21*
X106172000Y-76073000D02*
X106192000Y-76073000D01*
X106192000Y-76327000D01*
X106172000Y-76327000D01*
X106172000Y-76347000D01*
X105918000Y-76347000D01*
X105918000Y-76327000D01*
X105898000Y-76327000D01*
X105898000Y-76073000D01*
X105918000Y-76073000D01*
X105918000Y-76053000D01*
X106172000Y-76053000D01*
X106172000Y-76073000D01*
%TA.AperFunction,Conductor*%
D22*
G36*
X106172000Y-76073000D02*
G01*
X106192000Y-76073000D01*
X106192000Y-76327000D01*
X106172000Y-76327000D01*
X106172000Y-76347000D01*
X105918000Y-76347000D01*
X105918000Y-76327000D01*
X105898000Y-76327000D01*
X105898000Y-76073000D01*
X105918000Y-76073000D01*
X105918000Y-76053000D01*
X106172000Y-76053000D01*
X106172000Y-76073000D01*
G37*
%TD.AperFunction*%
D21*
X116289531Y-71324953D02*
X116385000Y-71334356D01*
X116820644Y-71334356D01*
X116820644Y-71770000D01*
X116830047Y-71865469D01*
X116839005Y-71895000D01*
X116830047Y-71924531D01*
X116820644Y-72020000D01*
X116820644Y-72570000D01*
X116830047Y-72665469D01*
X116839005Y-72695000D01*
X116830047Y-72724531D01*
X116820644Y-72820000D01*
X116820644Y-73215333D01*
X116781174Y-73262959D01*
X116721680Y-73372988D01*
X116684794Y-73492510D01*
X116680322Y-73545814D01*
X116625152Y-73508951D01*
X116463728Y-73442087D01*
X116292362Y-73408000D01*
X116117638Y-73408000D01*
X115946272Y-73442087D01*
X115784848Y-73508951D01*
X115639570Y-73606022D01*
X115516022Y-73729570D01*
X115418951Y-73874848D01*
X115352087Y-74036272D01*
X115318000Y-74207638D01*
X115318000Y-74382362D01*
X115352087Y-74553728D01*
X115418951Y-74715152D01*
X115516022Y-74860430D01*
X115639570Y-74983978D01*
X115784848Y-75081049D01*
X115946272Y-75147913D01*
X116117638Y-75182000D01*
X116147014Y-75182000D01*
X116156528Y-75189808D01*
X116232641Y-75252273D01*
X116272429Y-75273540D01*
X116348515Y-75314209D01*
X116474245Y-75352349D01*
X116572235Y-75362000D01*
X116572245Y-75362000D01*
X116604999Y-75365226D01*
X116637754Y-75362000D01*
X116820644Y-75362000D01*
X116820644Y-75628000D01*
X115306280Y-75628000D01*
X114724813Y-75046534D01*
X114703922Y-75021078D01*
X114678471Y-75000191D01*
X113124813Y-73446534D01*
X113103922Y-73421078D01*
X113002358Y-73337727D01*
X112886485Y-73275791D01*
X112760755Y-73237651D01*
X112662765Y-73228000D01*
X112662754Y-73228000D01*
X112630000Y-73224774D01*
X112597246Y-73228000D01*
X110892250Y-73228000D01*
X110886250Y-73222000D01*
X110692698Y-73222000D01*
X110681872Y-73213115D01*
X110597268Y-73167894D01*
X110505469Y-73140047D01*
X110410000Y-73130644D01*
X109463000Y-73130644D01*
X109463000Y-73059356D01*
X110410000Y-73059356D01*
X110505469Y-73049953D01*
X110597268Y-73022106D01*
X110681872Y-72976885D01*
X110692698Y-72968000D01*
X110886250Y-72968000D01*
X111045000Y-72809250D01*
X111035206Y-72692510D01*
X110998320Y-72572988D01*
X110938826Y-72462959D01*
X110899356Y-72415333D01*
X110899356Y-72020000D01*
X110889953Y-71924531D01*
X110880995Y-71895000D01*
X110889953Y-71865469D01*
X110899356Y-71770000D01*
X110899356Y-71334356D01*
X111335000Y-71334356D01*
X111430469Y-71324953D01*
X111460000Y-71315995D01*
X111489531Y-71324953D01*
X111585000Y-71334356D01*
X112135000Y-71334356D01*
X112230469Y-71324953D01*
X112260000Y-71315995D01*
X112289531Y-71324953D01*
X112385000Y-71334356D01*
X112935000Y-71334356D01*
X113030469Y-71324953D01*
X113060000Y-71315995D01*
X113089531Y-71324953D01*
X113185000Y-71334356D01*
X113735000Y-71334356D01*
X113830469Y-71324953D01*
X113860000Y-71315995D01*
X113889531Y-71324953D01*
X113985000Y-71334356D01*
X114535000Y-71334356D01*
X114630469Y-71324953D01*
X114660000Y-71315995D01*
X114689531Y-71324953D01*
X114785000Y-71334356D01*
X115335000Y-71334356D01*
X115430469Y-71324953D01*
X115460000Y-71315995D01*
X115489531Y-71324953D01*
X115585000Y-71334356D01*
X116135000Y-71334356D01*
X116230469Y-71324953D01*
X116260000Y-71315995D01*
X116289531Y-71324953D01*
%TA.AperFunction,Conductor*%
D22*
G36*
X116289531Y-71324953D02*
G01*
X116385000Y-71334356D01*
X116820644Y-71334356D01*
X116820644Y-71770000D01*
X116830047Y-71865469D01*
X116839005Y-71895000D01*
X116830047Y-71924531D01*
X116820644Y-72020000D01*
X116820644Y-72570000D01*
X116830047Y-72665469D01*
X116839005Y-72695000D01*
X116830047Y-72724531D01*
X116820644Y-72820000D01*
X116820644Y-73215333D01*
X116781174Y-73262959D01*
X116721680Y-73372988D01*
X116684794Y-73492510D01*
X116680322Y-73545814D01*
X116625152Y-73508951D01*
X116463728Y-73442087D01*
X116292362Y-73408000D01*
X116117638Y-73408000D01*
X115946272Y-73442087D01*
X115784848Y-73508951D01*
X115639570Y-73606022D01*
X115516022Y-73729570D01*
X115418951Y-73874848D01*
X115352087Y-74036272D01*
X115318000Y-74207638D01*
X115318000Y-74382362D01*
X115352087Y-74553728D01*
X115418951Y-74715152D01*
X115516022Y-74860430D01*
X115639570Y-74983978D01*
X115784848Y-75081049D01*
X115946272Y-75147913D01*
X116117638Y-75182000D01*
X116147014Y-75182000D01*
X116156528Y-75189808D01*
X116232641Y-75252273D01*
X116272429Y-75273540D01*
X116348515Y-75314209D01*
X116474245Y-75352349D01*
X116572235Y-75362000D01*
X116572245Y-75362000D01*
X116604999Y-75365226D01*
X116637754Y-75362000D01*
X116820644Y-75362000D01*
X116820644Y-75628000D01*
X115306280Y-75628000D01*
X114724813Y-75046534D01*
X114703922Y-75021078D01*
X114678471Y-75000191D01*
X113124813Y-73446534D01*
X113103922Y-73421078D01*
X113002358Y-73337727D01*
X112886485Y-73275791D01*
X112760755Y-73237651D01*
X112662765Y-73228000D01*
X112662754Y-73228000D01*
X112630000Y-73224774D01*
X112597246Y-73228000D01*
X110892250Y-73228000D01*
X110886250Y-73222000D01*
X110692698Y-73222000D01*
X110681872Y-73213115D01*
X110597268Y-73167894D01*
X110505469Y-73140047D01*
X110410000Y-73130644D01*
X109463000Y-73130644D01*
X109463000Y-73059356D01*
X110410000Y-73059356D01*
X110505469Y-73049953D01*
X110597268Y-73022106D01*
X110681872Y-72976885D01*
X110692698Y-72968000D01*
X110886250Y-72968000D01*
X111045000Y-72809250D01*
X111035206Y-72692510D01*
X110998320Y-72572988D01*
X110938826Y-72462959D01*
X110899356Y-72415333D01*
X110899356Y-72020000D01*
X110889953Y-71924531D01*
X110880995Y-71895000D01*
X110889953Y-71865469D01*
X110899356Y-71770000D01*
X110899356Y-71334356D01*
X111335000Y-71334356D01*
X111430469Y-71324953D01*
X111460000Y-71315995D01*
X111489531Y-71324953D01*
X111585000Y-71334356D01*
X112135000Y-71334356D01*
X112230469Y-71324953D01*
X112260000Y-71315995D01*
X112289531Y-71324953D01*
X112385000Y-71334356D01*
X112935000Y-71334356D01*
X113030469Y-71324953D01*
X113060000Y-71315995D01*
X113089531Y-71324953D01*
X113185000Y-71334356D01*
X113735000Y-71334356D01*
X113830469Y-71324953D01*
X113860000Y-71315995D01*
X113889531Y-71324953D01*
X113985000Y-71334356D01*
X114535000Y-71334356D01*
X114630469Y-71324953D01*
X114660000Y-71315995D01*
X114689531Y-71324953D01*
X114785000Y-71334356D01*
X115335000Y-71334356D01*
X115430469Y-71324953D01*
X115460000Y-71315995D01*
X115489531Y-71324953D01*
X115585000Y-71334356D01*
X116135000Y-71334356D01*
X116230469Y-71324953D01*
X116260000Y-71315995D01*
X116289531Y-71324953D01*
G37*
%TD.AperFunction*%
D21*
X108156189Y-74343471D02*
X108177076Y-74368922D01*
X108178299Y-74369926D01*
X108175000Y-74409250D01*
X108333750Y-74568000D01*
X108527302Y-74568000D01*
X108538128Y-74576885D01*
X108622732Y-74622106D01*
X108714531Y-74649953D01*
X108810000Y-74659356D01*
X110410000Y-74659356D01*
X110505469Y-74649953D01*
X110597268Y-74622106D01*
X110681872Y-74576885D01*
X110692698Y-74568000D01*
X110886250Y-74568000D01*
X110892250Y-74562000D01*
X112353721Y-74562000D01*
X112619721Y-74828000D01*
X110892250Y-74828000D01*
X110886250Y-74822000D01*
X110692698Y-74822000D01*
X110681872Y-74813115D01*
X110597268Y-74767894D01*
X110505469Y-74740047D01*
X110410000Y-74730644D01*
X108810000Y-74730644D01*
X108714531Y-74740047D01*
X108622732Y-74767894D01*
X108538128Y-74813115D01*
X108527302Y-74822000D01*
X108333750Y-74822000D01*
X108278203Y-74877547D01*
X107350533Y-73949878D01*
X107382000Y-73791683D01*
X107382000Y-73569282D01*
X108156189Y-74343471D01*
%TA.AperFunction,Conductor*%
D22*
G36*
X108156189Y-74343471D02*
G01*
X108177076Y-74368922D01*
X108178299Y-74369926D01*
X108175000Y-74409250D01*
X108333750Y-74568000D01*
X108527302Y-74568000D01*
X108538128Y-74576885D01*
X108622732Y-74622106D01*
X108714531Y-74649953D01*
X108810000Y-74659356D01*
X110410000Y-74659356D01*
X110505469Y-74649953D01*
X110597268Y-74622106D01*
X110681872Y-74576885D01*
X110692698Y-74568000D01*
X110886250Y-74568000D01*
X110892250Y-74562000D01*
X112353721Y-74562000D01*
X112619721Y-74828000D01*
X110892250Y-74828000D01*
X110886250Y-74822000D01*
X110692698Y-74822000D01*
X110681872Y-74813115D01*
X110597268Y-74767894D01*
X110505469Y-74740047D01*
X110410000Y-74730644D01*
X108810000Y-74730644D01*
X108714531Y-74740047D01*
X108622732Y-74767894D01*
X108538128Y-74813115D01*
X108527302Y-74822000D01*
X108333750Y-74822000D01*
X108278203Y-74877547D01*
X107350533Y-73949878D01*
X107382000Y-73791683D01*
X107382000Y-73569282D01*
X108156189Y-74343471D01*
G37*
%TD.AperFunction*%
D21*
X110611534Y-68591185D02*
X110586078Y-68612076D01*
X110548614Y-68657727D01*
X110502727Y-68713640D01*
X110472743Y-68769737D01*
X110440791Y-68829514D01*
X110408432Y-68936187D01*
X110378115Y-68973128D01*
X110332894Y-69057732D01*
X110305047Y-69149531D01*
X110295644Y-69245000D01*
X110295644Y-70730644D01*
X108810000Y-70730644D01*
X108714531Y-70740047D01*
X108622732Y-70767894D01*
X108538128Y-70813115D01*
X108463973Y-70873973D01*
X108403115Y-70948128D01*
X108357894Y-71032732D01*
X108330047Y-71124531D01*
X108320644Y-71220000D01*
X108320644Y-71770000D01*
X108330047Y-71865469D01*
X108339005Y-71895000D01*
X108330047Y-71924531D01*
X108320644Y-72020000D01*
X108320644Y-72415333D01*
X108281174Y-72462959D01*
X108239433Y-72540155D01*
X107553859Y-71854581D01*
X107552348Y-71839244D01*
X107514208Y-71713514D01*
X107499197Y-71685430D01*
X107452272Y-71597640D01*
X107397289Y-71530644D01*
X107368921Y-71496077D01*
X107343471Y-71475191D01*
X107338525Y-71470245D01*
X107382000Y-71251683D01*
X107382000Y-70988317D01*
X107330620Y-70730012D01*
X107229834Y-70486693D01*
X107083516Y-70267712D01*
X106897288Y-70081484D01*
X106678307Y-69935166D01*
X106434988Y-69834380D01*
X106176683Y-69783000D01*
X105913317Y-69783000D01*
X105655012Y-69834380D01*
X105411693Y-69935166D01*
X105192712Y-70081484D01*
X105006484Y-70267712D01*
X104860166Y-70486693D01*
X104844356Y-70524862D01*
X104844356Y-70270000D01*
X104834953Y-70174531D01*
X104807106Y-70082732D01*
X104761885Y-69998128D01*
X104701027Y-69923973D01*
X104626872Y-69863115D01*
X104542268Y-69817894D01*
X104450469Y-69790047D01*
X104355000Y-69780644D01*
X102902000Y-69780644D01*
X102902000Y-69491279D01*
X103926281Y-68466999D01*
X110735719Y-68466999D01*
X110611534Y-68591185D01*
%TA.AperFunction,Conductor*%
D22*
G36*
X110611534Y-68591185D02*
G01*
X110586078Y-68612076D01*
X110548614Y-68657727D01*
X110502727Y-68713640D01*
X110472743Y-68769737D01*
X110440791Y-68829514D01*
X110408432Y-68936187D01*
X110378115Y-68973128D01*
X110332894Y-69057732D01*
X110305047Y-69149531D01*
X110295644Y-69245000D01*
X110295644Y-70730644D01*
X108810000Y-70730644D01*
X108714531Y-70740047D01*
X108622732Y-70767894D01*
X108538128Y-70813115D01*
X108463973Y-70873973D01*
X108403115Y-70948128D01*
X108357894Y-71032732D01*
X108330047Y-71124531D01*
X108320644Y-71220000D01*
X108320644Y-71770000D01*
X108330047Y-71865469D01*
X108339005Y-71895000D01*
X108330047Y-71924531D01*
X108320644Y-72020000D01*
X108320644Y-72415333D01*
X108281174Y-72462959D01*
X108239433Y-72540155D01*
X107553859Y-71854581D01*
X107552348Y-71839244D01*
X107514208Y-71713514D01*
X107499197Y-71685430D01*
X107452272Y-71597640D01*
X107397289Y-71530644D01*
X107368921Y-71496077D01*
X107343471Y-71475191D01*
X107338525Y-71470245D01*
X107382000Y-71251683D01*
X107382000Y-70988317D01*
X107330620Y-70730012D01*
X107229834Y-70486693D01*
X107083516Y-70267712D01*
X106897288Y-70081484D01*
X106678307Y-69935166D01*
X106434988Y-69834380D01*
X106176683Y-69783000D01*
X105913317Y-69783000D01*
X105655012Y-69834380D01*
X105411693Y-69935166D01*
X105192712Y-70081484D01*
X105006484Y-70267712D01*
X104860166Y-70486693D01*
X104844356Y-70524862D01*
X104844356Y-70270000D01*
X104834953Y-70174531D01*
X104807106Y-70082732D01*
X104761885Y-69998128D01*
X104701027Y-69923973D01*
X104626872Y-69863115D01*
X104542268Y-69817894D01*
X104450469Y-69790047D01*
X104355000Y-69780644D01*
X102902000Y-69780644D01*
X102902000Y-69491279D01*
X103926281Y-68466999D01*
X110735719Y-68466999D01*
X110611534Y-68591185D01*
G37*
%TD.AperFunction*%
D21*
X117207617Y-62254696D02*
X117535105Y-62390346D01*
X117882765Y-62459500D01*
X118237235Y-62459500D01*
X118584895Y-62390346D01*
X118713000Y-62337283D01*
X118713001Y-65573303D01*
X118597500Y-65561928D01*
X118395750Y-65565000D01*
X118237000Y-65723750D01*
X118237000Y-66548000D01*
X118257000Y-66548000D01*
X118257000Y-66802000D01*
X118237000Y-66802000D01*
X118237000Y-67626250D01*
X118395750Y-67785000D01*
X118597500Y-67788072D01*
X118713001Y-67776697D01*
X118713001Y-68303719D01*
X117638721Y-69378000D01*
X117424356Y-69378000D01*
X117424356Y-69245000D01*
X117414953Y-69149531D01*
X117387106Y-69057732D01*
X117341885Y-68973128D01*
X117281027Y-68898973D01*
X117206872Y-68838115D01*
X117122268Y-68792894D01*
X117030469Y-68765047D01*
X116935000Y-68755644D01*
X116527000Y-68755644D01*
X116527000Y-67931279D01*
X116733465Y-67724814D01*
X116758922Y-67703922D01*
X116813969Y-67636847D01*
X116842273Y-67602359D01*
X116867637Y-67554907D01*
X116938820Y-67516859D01*
X117048965Y-67426465D01*
X117049746Y-67425513D01*
X117091963Y-67504494D01*
X117171315Y-67601185D01*
X117268006Y-67680537D01*
X117378320Y-67739502D01*
X117498018Y-67775812D01*
X117622500Y-67788072D01*
X117824250Y-67785000D01*
X117983000Y-67626250D01*
X117983000Y-66802000D01*
X117963000Y-66802000D01*
X117963000Y-66548000D01*
X117983000Y-66548000D01*
X117983000Y-65723750D01*
X117824250Y-65565000D01*
X117622500Y-65561928D01*
X117498018Y-65574188D01*
X117378320Y-65610498D01*
X117268006Y-65669463D01*
X117171315Y-65748815D01*
X117091963Y-65845506D01*
X117049746Y-65924487D01*
X117048965Y-65923535D01*
X116952000Y-65843958D01*
X116952000Y-62083898D01*
X117207617Y-62254696D01*
%TA.AperFunction,Conductor*%
D22*
G36*
X117207617Y-62254696D02*
G01*
X117535105Y-62390346D01*
X117882765Y-62459500D01*
X118237235Y-62459500D01*
X118584895Y-62390346D01*
X118713000Y-62337283D01*
X118713001Y-65573303D01*
X118597500Y-65561928D01*
X118395750Y-65565000D01*
X118237000Y-65723750D01*
X118237000Y-66548000D01*
X118257000Y-66548000D01*
X118257000Y-66802000D01*
X118237000Y-66802000D01*
X118237000Y-67626250D01*
X118395750Y-67785000D01*
X118597500Y-67788072D01*
X118713001Y-67776697D01*
X118713001Y-68303719D01*
X117638721Y-69378000D01*
X117424356Y-69378000D01*
X117424356Y-69245000D01*
X117414953Y-69149531D01*
X117387106Y-69057732D01*
X117341885Y-68973128D01*
X117281027Y-68898973D01*
X117206872Y-68838115D01*
X117122268Y-68792894D01*
X117030469Y-68765047D01*
X116935000Y-68755644D01*
X116527000Y-68755644D01*
X116527000Y-67931279D01*
X116733465Y-67724814D01*
X116758922Y-67703922D01*
X116813969Y-67636847D01*
X116842273Y-67602359D01*
X116867637Y-67554907D01*
X116938820Y-67516859D01*
X117048965Y-67426465D01*
X117049746Y-67425513D01*
X117091963Y-67504494D01*
X117171315Y-67601185D01*
X117268006Y-67680537D01*
X117378320Y-67739502D01*
X117498018Y-67775812D01*
X117622500Y-67788072D01*
X117824250Y-67785000D01*
X117983000Y-67626250D01*
X117983000Y-66802000D01*
X117963000Y-66802000D01*
X117963000Y-66548000D01*
X117983000Y-66548000D01*
X117983000Y-65723750D01*
X117824250Y-65565000D01*
X117622500Y-65561928D01*
X117498018Y-65574188D01*
X117378320Y-65610498D01*
X117268006Y-65669463D01*
X117171315Y-65748815D01*
X117091963Y-65845506D01*
X117049746Y-65924487D01*
X117048965Y-65923535D01*
X116952000Y-65843958D01*
X116952000Y-62083898D01*
X117207617Y-62254696D01*
G37*
%TD.AperFunction*%
D21*
X116216963Y-50993006D02*
X116157998Y-51103320D01*
X116121688Y-51223018D01*
X116109428Y-51347500D01*
X116112500Y-52374250D01*
X116271250Y-52533000D01*
X117933000Y-52533000D01*
X117933000Y-52513000D01*
X118187000Y-52513000D01*
X118187000Y-52533000D01*
X119848750Y-52533000D01*
X120007500Y-52374250D01*
X120010572Y-51347500D01*
X119998312Y-51223018D01*
X119962002Y-51103320D01*
X119903037Y-50993006D01*
X119848867Y-50927000D01*
X121161789Y-50927000D01*
X121014919Y-51005504D01*
X120881477Y-51301872D01*
X122060000Y-52480395D01*
X123238523Y-51301872D01*
X123105081Y-51005504D01*
X122948680Y-50927000D01*
X125161789Y-50927000D01*
X125014919Y-51005504D01*
X124881477Y-51301872D01*
X126060000Y-52480395D01*
X127238523Y-51301872D01*
X127105081Y-51005504D01*
X126948680Y-50927000D01*
X129161789Y-50927000D01*
X129014919Y-51005504D01*
X128881477Y-51301872D01*
X130060000Y-52480395D01*
X131238523Y-51301872D01*
X131105081Y-51005504D01*
X130948680Y-50927000D01*
X131445000Y-50927000D01*
X131445000Y-51493576D01*
X131418128Y-51481477D01*
X130239605Y-52660000D01*
X131418128Y-53838523D01*
X131445000Y-53826424D01*
X131445000Y-54610000D01*
X131457201Y-54733882D01*
X131493336Y-54853004D01*
X131534451Y-54929925D01*
X131207617Y-55065304D01*
X130912886Y-55262237D01*
X130662237Y-55512886D01*
X130465304Y-55807617D01*
X130377386Y-56019869D01*
X130308417Y-56040791D01*
X130192544Y-56102727D01*
X130090980Y-56186078D01*
X130070093Y-56211529D01*
X129849439Y-56432183D01*
X129790346Y-56135105D01*
X129654696Y-55807617D01*
X129457763Y-55512886D01*
X129207114Y-55262237D01*
X128912383Y-55065304D01*
X128584895Y-54929654D01*
X128237235Y-54860500D01*
X127882765Y-54860500D01*
X127535105Y-54929654D01*
X127207617Y-55065304D01*
X126912886Y-55262237D01*
X126662237Y-55512886D01*
X126465304Y-55807617D01*
X126329654Y-56135105D01*
X126260500Y-56482765D01*
X126260500Y-56837235D01*
X126329654Y-57184895D01*
X126406442Y-57370278D01*
X126091220Y-57685501D01*
X125830253Y-57685501D01*
X125797499Y-57682275D01*
X125764744Y-57685501D01*
X125764734Y-57685501D01*
X125666744Y-57695152D01*
X125541014Y-57733292D01*
X125488242Y-57761499D01*
X125654696Y-57512383D01*
X125790346Y-57184895D01*
X125859500Y-56837235D01*
X125859500Y-56482765D01*
X125790346Y-56135105D01*
X125654696Y-55807617D01*
X125457763Y-55512886D01*
X125207114Y-55262237D01*
X124912383Y-55065304D01*
X124584895Y-54929654D01*
X124237235Y-54860500D01*
X123882765Y-54860500D01*
X123535105Y-54929654D01*
X123207617Y-55065304D01*
X122912886Y-55262237D01*
X122662237Y-55512886D01*
X122465304Y-55807617D01*
X122329654Y-56135105D01*
X122260500Y-56482765D01*
X122260500Y-56837235D01*
X122329654Y-57184895D01*
X122406442Y-57370278D01*
X121476222Y-58300499D01*
X120801805Y-58300499D01*
X120912383Y-58254696D01*
X121207114Y-58057763D01*
X121457763Y-57807114D01*
X121654696Y-57512383D01*
X121790346Y-57184895D01*
X121859500Y-56837235D01*
X121859500Y-56482765D01*
X121790346Y-56135105D01*
X121654696Y-55807617D01*
X121457763Y-55512886D01*
X121207114Y-55262237D01*
X120912383Y-55065304D01*
X120584895Y-54929654D01*
X120237235Y-54860500D01*
X119882765Y-54860500D01*
X119535105Y-54929654D01*
X119207617Y-55065304D01*
X118912886Y-55262237D01*
X118662237Y-55512886D01*
X118465304Y-55807617D01*
X118387591Y-55995233D01*
X118312273Y-56002651D01*
X118186543Y-56040791D01*
X118111031Y-56081153D01*
X118070669Y-56102727D01*
X117994555Y-56165192D01*
X117994551Y-56165196D01*
X117969106Y-56186078D01*
X117948224Y-56211523D01*
X113851534Y-60308215D01*
X113826078Y-60329106D01*
X113774657Y-60391764D01*
X113742727Y-60430670D01*
X113714882Y-60482765D01*
X113680791Y-60546544D01*
X113642651Y-60672274D01*
X113633000Y-60770264D01*
X113633000Y-60770274D01*
X113629774Y-60803028D01*
X113633000Y-60835783D01*
X113633001Y-65843957D01*
X113536035Y-65923535D01*
X113535254Y-65924487D01*
X113493037Y-65845506D01*
X113413685Y-65748815D01*
X113316994Y-65669463D01*
X113206680Y-65610498D01*
X113086982Y-65574188D01*
X112962500Y-65561928D01*
X112760750Y-65565000D01*
X112602000Y-65723750D01*
X112602000Y-66548000D01*
X112622000Y-66548000D01*
X112622000Y-66802000D01*
X112602000Y-66802000D01*
X112602000Y-66822000D01*
X112348000Y-66822000D01*
X112348000Y-66802000D01*
X111511250Y-66802000D01*
X111352500Y-66960750D01*
X111349704Y-67132999D01*
X103682763Y-67132999D01*
X103650001Y-67129772D01*
X103617239Y-67132999D01*
X103617236Y-67132999D01*
X103519246Y-67142650D01*
X103393516Y-67180790D01*
X103277643Y-67242726D01*
X103176079Y-67326077D01*
X103155192Y-67351528D01*
X102112000Y-68394721D01*
X102112000Y-66200000D01*
X111349428Y-66200000D01*
X111352500Y-66389250D01*
X111511250Y-66548000D01*
X112348000Y-66548000D01*
X112348000Y-65723750D01*
X112189250Y-65565000D01*
X111987500Y-65561928D01*
X111863018Y-65574188D01*
X111743320Y-65610498D01*
X111633006Y-65669463D01*
X111536315Y-65748815D01*
X111456963Y-65845506D01*
X111397998Y-65955820D01*
X111361688Y-66075518D01*
X111349428Y-66200000D01*
X102112000Y-66200000D01*
X102112000Y-56971684D01*
X109648000Y-56971684D01*
X109648000Y-57348316D01*
X109721477Y-57717710D01*
X109865608Y-58065671D01*
X110074853Y-58378829D01*
X110341171Y-58645147D01*
X110654329Y-58854392D01*
X111002290Y-58998523D01*
X111371684Y-59072000D01*
X111748316Y-59072000D01*
X112117710Y-58998523D01*
X112465671Y-58854392D01*
X112778829Y-58645147D01*
X113045147Y-58378829D01*
X113254392Y-58065671D01*
X113398523Y-57717710D01*
X113472000Y-57348316D01*
X113472000Y-56971684D01*
X113398523Y-56602290D01*
X113254392Y-56254329D01*
X113045147Y-55941171D01*
X112778829Y-55674853D01*
X112465671Y-55465608D01*
X112117710Y-55321477D01*
X111748316Y-55248000D01*
X111371684Y-55248000D01*
X111002290Y-55321477D01*
X110654329Y-55465608D01*
X110341171Y-55674853D01*
X110074853Y-55941171D01*
X109865608Y-56254329D01*
X109721477Y-56602290D01*
X109648000Y-56971684D01*
X102112000Y-56971684D01*
X102112000Y-53972500D01*
X116109428Y-53972500D01*
X116121688Y-54096982D01*
X116157998Y-54216680D01*
X116216963Y-54326994D01*
X116296315Y-54423685D01*
X116393006Y-54503037D01*
X116503320Y-54562002D01*
X116623018Y-54598312D01*
X116747500Y-54610572D01*
X117774250Y-54607500D01*
X117933000Y-54448750D01*
X117933000Y-52787000D01*
X118187000Y-52787000D01*
X118187000Y-54448750D01*
X118345750Y-54607500D01*
X119372500Y-54610572D01*
X119496982Y-54598312D01*
X119616680Y-54562002D01*
X119726994Y-54503037D01*
X119823685Y-54423685D01*
X119903037Y-54326994D01*
X119962002Y-54216680D01*
X119998312Y-54096982D01*
X120006078Y-54018128D01*
X120881477Y-54018128D01*
X121014919Y-54314496D01*
X121357776Y-54486590D01*
X121727620Y-54588490D01*
X122110236Y-54616279D01*
X122490921Y-54568889D01*
X122855048Y-54448142D01*
X123105081Y-54314496D01*
X123238523Y-54018128D01*
X124881477Y-54018128D01*
X125014919Y-54314496D01*
X125357776Y-54486590D01*
X125727620Y-54588490D01*
X126110236Y-54616279D01*
X126490921Y-54568889D01*
X126855048Y-54448142D01*
X127105081Y-54314496D01*
X127238523Y-54018128D01*
X128881477Y-54018128D01*
X129014919Y-54314496D01*
X129357776Y-54486590D01*
X129727620Y-54588490D01*
X130110236Y-54616279D01*
X130490921Y-54568889D01*
X130855048Y-54448142D01*
X131105081Y-54314496D01*
X131238523Y-54018128D01*
X130060000Y-52839605D01*
X128881477Y-54018128D01*
X127238523Y-54018128D01*
X126060000Y-52839605D01*
X124881477Y-54018128D01*
X123238523Y-54018128D01*
X122060000Y-52839605D01*
X120881477Y-54018128D01*
X120006078Y-54018128D01*
X120010572Y-53972500D01*
X120007500Y-52945750D01*
X119848750Y-52787000D01*
X118187000Y-52787000D01*
X117933000Y-52787000D01*
X116271250Y-52787000D01*
X116112500Y-52945750D01*
X116109428Y-53972500D01*
X102112000Y-53972500D01*
X102112000Y-52710236D01*
X120103721Y-52710236D01*
X120151111Y-53090921D01*
X120271858Y-53455048D01*
X120405504Y-53705081D01*
X120701872Y-53838523D01*
X121880395Y-52660000D01*
X122239605Y-52660000D01*
X123418128Y-53838523D01*
X123714496Y-53705081D01*
X123886590Y-53362224D01*
X123988490Y-52992380D01*
X124008981Y-52710236D01*
X124103721Y-52710236D01*
X124151111Y-53090921D01*
X124271858Y-53455048D01*
X124405504Y-53705081D01*
X124701872Y-53838523D01*
X125880395Y-52660000D01*
X126239605Y-52660000D01*
X127418128Y-53838523D01*
X127714496Y-53705081D01*
X127886590Y-53362224D01*
X127988490Y-52992380D01*
X128008981Y-52710236D01*
X128103721Y-52710236D01*
X128151111Y-53090921D01*
X128271858Y-53455048D01*
X128405504Y-53705081D01*
X128701872Y-53838523D01*
X129880395Y-52660000D01*
X128701872Y-51481477D01*
X128405504Y-51614919D01*
X128233410Y-51957776D01*
X128131510Y-52327620D01*
X128103721Y-52710236D01*
X128008981Y-52710236D01*
X128016279Y-52609764D01*
X127968889Y-52229079D01*
X127848142Y-51864952D01*
X127714496Y-51614919D01*
X127418128Y-51481477D01*
X126239605Y-52660000D01*
X125880395Y-52660000D01*
X124701872Y-51481477D01*
X124405504Y-51614919D01*
X124233410Y-51957776D01*
X124131510Y-52327620D01*
X124103721Y-52710236D01*
X124008981Y-52710236D01*
X124016279Y-52609764D01*
X123968889Y-52229079D01*
X123848142Y-51864952D01*
X123714496Y-51614919D01*
X123418128Y-51481477D01*
X122239605Y-52660000D01*
X121880395Y-52660000D01*
X120701872Y-51481477D01*
X120405504Y-51614919D01*
X120233410Y-51957776D01*
X120131510Y-52327620D01*
X120103721Y-52710236D01*
X102112000Y-52710236D01*
X102112000Y-50927000D01*
X116271133Y-50927000D01*
X116216963Y-50993006D01*
%TA.AperFunction,Conductor*%
D22*
G36*
X116216963Y-50993006D02*
G01*
X116157998Y-51103320D01*
X116121688Y-51223018D01*
X116109428Y-51347500D01*
X116112500Y-52374250D01*
X116271250Y-52533000D01*
X117933000Y-52533000D01*
X117933000Y-52513000D01*
X118187000Y-52513000D01*
X118187000Y-52533000D01*
X119848750Y-52533000D01*
X120007500Y-52374250D01*
X120010572Y-51347500D01*
X119998312Y-51223018D01*
X119962002Y-51103320D01*
X119903037Y-50993006D01*
X119848867Y-50927000D01*
X121161789Y-50927000D01*
X121014919Y-51005504D01*
X120881477Y-51301872D01*
X122060000Y-52480395D01*
X123238523Y-51301872D01*
X123105081Y-51005504D01*
X122948680Y-50927000D01*
X125161789Y-50927000D01*
X125014919Y-51005504D01*
X124881477Y-51301872D01*
X126060000Y-52480395D01*
X127238523Y-51301872D01*
X127105081Y-51005504D01*
X126948680Y-50927000D01*
X129161789Y-50927000D01*
X129014919Y-51005504D01*
X128881477Y-51301872D01*
X130060000Y-52480395D01*
X131238523Y-51301872D01*
X131105081Y-51005504D01*
X130948680Y-50927000D01*
X131445000Y-50927000D01*
X131445000Y-51493576D01*
X131418128Y-51481477D01*
X130239605Y-52660000D01*
X131418128Y-53838523D01*
X131445000Y-53826424D01*
X131445000Y-54610000D01*
X131457201Y-54733882D01*
X131493336Y-54853004D01*
X131534451Y-54929925D01*
X131207617Y-55065304D01*
X130912886Y-55262237D01*
X130662237Y-55512886D01*
X130465304Y-55807617D01*
X130377386Y-56019869D01*
X130308417Y-56040791D01*
X130192544Y-56102727D01*
X130090980Y-56186078D01*
X130070093Y-56211529D01*
X129849439Y-56432183D01*
X129790346Y-56135105D01*
X129654696Y-55807617D01*
X129457763Y-55512886D01*
X129207114Y-55262237D01*
X128912383Y-55065304D01*
X128584895Y-54929654D01*
X128237235Y-54860500D01*
X127882765Y-54860500D01*
X127535105Y-54929654D01*
X127207617Y-55065304D01*
X126912886Y-55262237D01*
X126662237Y-55512886D01*
X126465304Y-55807617D01*
X126329654Y-56135105D01*
X126260500Y-56482765D01*
X126260500Y-56837235D01*
X126329654Y-57184895D01*
X126406442Y-57370278D01*
X126091220Y-57685501D01*
X125830253Y-57685501D01*
X125797499Y-57682275D01*
X125764744Y-57685501D01*
X125764734Y-57685501D01*
X125666744Y-57695152D01*
X125541014Y-57733292D01*
X125488242Y-57761499D01*
X125654696Y-57512383D01*
X125790346Y-57184895D01*
X125859500Y-56837235D01*
X125859500Y-56482765D01*
X125790346Y-56135105D01*
X125654696Y-55807617D01*
X125457763Y-55512886D01*
X125207114Y-55262237D01*
X124912383Y-55065304D01*
X124584895Y-54929654D01*
X124237235Y-54860500D01*
X123882765Y-54860500D01*
X123535105Y-54929654D01*
X123207617Y-55065304D01*
X122912886Y-55262237D01*
X122662237Y-55512886D01*
X122465304Y-55807617D01*
X122329654Y-56135105D01*
X122260500Y-56482765D01*
X122260500Y-56837235D01*
X122329654Y-57184895D01*
X122406442Y-57370278D01*
X121476222Y-58300499D01*
X120801805Y-58300499D01*
X120912383Y-58254696D01*
X121207114Y-58057763D01*
X121457763Y-57807114D01*
X121654696Y-57512383D01*
X121790346Y-57184895D01*
X121859500Y-56837235D01*
X121859500Y-56482765D01*
X121790346Y-56135105D01*
X121654696Y-55807617D01*
X121457763Y-55512886D01*
X121207114Y-55262237D01*
X120912383Y-55065304D01*
X120584895Y-54929654D01*
X120237235Y-54860500D01*
X119882765Y-54860500D01*
X119535105Y-54929654D01*
X119207617Y-55065304D01*
X118912886Y-55262237D01*
X118662237Y-55512886D01*
X118465304Y-55807617D01*
X118387591Y-55995233D01*
X118312273Y-56002651D01*
X118186543Y-56040791D01*
X118111031Y-56081153D01*
X118070669Y-56102727D01*
X117994555Y-56165192D01*
X117994551Y-56165196D01*
X117969106Y-56186078D01*
X117948224Y-56211523D01*
X113851534Y-60308215D01*
X113826078Y-60329106D01*
X113774657Y-60391764D01*
X113742727Y-60430670D01*
X113714882Y-60482765D01*
X113680791Y-60546544D01*
X113642651Y-60672274D01*
X113633000Y-60770264D01*
X113633000Y-60770274D01*
X113629774Y-60803028D01*
X113633000Y-60835783D01*
X113633001Y-65843957D01*
X113536035Y-65923535D01*
X113535254Y-65924487D01*
X113493037Y-65845506D01*
X113413685Y-65748815D01*
X113316994Y-65669463D01*
X113206680Y-65610498D01*
X113086982Y-65574188D01*
X112962500Y-65561928D01*
X112760750Y-65565000D01*
X112602000Y-65723750D01*
X112602000Y-66548000D01*
X112622000Y-66548000D01*
X112622000Y-66802000D01*
X112602000Y-66802000D01*
X112602000Y-66822000D01*
X112348000Y-66822000D01*
X112348000Y-66802000D01*
X111511250Y-66802000D01*
X111352500Y-66960750D01*
X111349704Y-67132999D01*
X103682763Y-67132999D01*
X103650001Y-67129772D01*
X103617239Y-67132999D01*
X103617236Y-67132999D01*
X103519246Y-67142650D01*
X103393516Y-67180790D01*
X103277643Y-67242726D01*
X103176079Y-67326077D01*
X103155192Y-67351528D01*
X102112000Y-68394721D01*
X102112000Y-66200000D01*
X111349428Y-66200000D01*
X111352500Y-66389250D01*
X111511250Y-66548000D01*
X112348000Y-66548000D01*
X112348000Y-65723750D01*
X112189250Y-65565000D01*
X111987500Y-65561928D01*
X111863018Y-65574188D01*
X111743320Y-65610498D01*
X111633006Y-65669463D01*
X111536315Y-65748815D01*
X111456963Y-65845506D01*
X111397998Y-65955820D01*
X111361688Y-66075518D01*
X111349428Y-66200000D01*
X102112000Y-66200000D01*
X102112000Y-56971684D01*
X109648000Y-56971684D01*
X109648000Y-57348316D01*
X109721477Y-57717710D01*
X109865608Y-58065671D01*
X110074853Y-58378829D01*
X110341171Y-58645147D01*
X110654329Y-58854392D01*
X111002290Y-58998523D01*
X111371684Y-59072000D01*
X111748316Y-59072000D01*
X112117710Y-58998523D01*
X112465671Y-58854392D01*
X112778829Y-58645147D01*
X113045147Y-58378829D01*
X113254392Y-58065671D01*
X113398523Y-57717710D01*
X113472000Y-57348316D01*
X113472000Y-56971684D01*
X113398523Y-56602290D01*
X113254392Y-56254329D01*
X113045147Y-55941171D01*
X112778829Y-55674853D01*
X112465671Y-55465608D01*
X112117710Y-55321477D01*
X111748316Y-55248000D01*
X111371684Y-55248000D01*
X111002290Y-55321477D01*
X110654329Y-55465608D01*
X110341171Y-55674853D01*
X110074853Y-55941171D01*
X109865608Y-56254329D01*
X109721477Y-56602290D01*
X109648000Y-56971684D01*
X102112000Y-56971684D01*
X102112000Y-53972500D01*
X116109428Y-53972500D01*
X116121688Y-54096982D01*
X116157998Y-54216680D01*
X116216963Y-54326994D01*
X116296315Y-54423685D01*
X116393006Y-54503037D01*
X116503320Y-54562002D01*
X116623018Y-54598312D01*
X116747500Y-54610572D01*
X117774250Y-54607500D01*
X117933000Y-54448750D01*
X117933000Y-52787000D01*
X118187000Y-52787000D01*
X118187000Y-54448750D01*
X118345750Y-54607500D01*
X119372500Y-54610572D01*
X119496982Y-54598312D01*
X119616680Y-54562002D01*
X119726994Y-54503037D01*
X119823685Y-54423685D01*
X119903037Y-54326994D01*
X119962002Y-54216680D01*
X119998312Y-54096982D01*
X120006078Y-54018128D01*
X120881477Y-54018128D01*
X121014919Y-54314496D01*
X121357776Y-54486590D01*
X121727620Y-54588490D01*
X122110236Y-54616279D01*
X122490921Y-54568889D01*
X122855048Y-54448142D01*
X123105081Y-54314496D01*
X123238523Y-54018128D01*
X124881477Y-54018128D01*
X125014919Y-54314496D01*
X125357776Y-54486590D01*
X125727620Y-54588490D01*
X126110236Y-54616279D01*
X126490921Y-54568889D01*
X126855048Y-54448142D01*
X127105081Y-54314496D01*
X127238523Y-54018128D01*
X128881477Y-54018128D01*
X129014919Y-54314496D01*
X129357776Y-54486590D01*
X129727620Y-54588490D01*
X130110236Y-54616279D01*
X130490921Y-54568889D01*
X130855048Y-54448142D01*
X131105081Y-54314496D01*
X131238523Y-54018128D01*
X130060000Y-52839605D01*
X128881477Y-54018128D01*
X127238523Y-54018128D01*
X126060000Y-52839605D01*
X124881477Y-54018128D01*
X123238523Y-54018128D01*
X122060000Y-52839605D01*
X120881477Y-54018128D01*
X120006078Y-54018128D01*
X120010572Y-53972500D01*
X120007500Y-52945750D01*
X119848750Y-52787000D01*
X118187000Y-52787000D01*
X117933000Y-52787000D01*
X116271250Y-52787000D01*
X116112500Y-52945750D01*
X116109428Y-53972500D01*
X102112000Y-53972500D01*
X102112000Y-52710236D01*
X120103721Y-52710236D01*
X120151111Y-53090921D01*
X120271858Y-53455048D01*
X120405504Y-53705081D01*
X120701872Y-53838523D01*
X121880395Y-52660000D01*
X122239605Y-52660000D01*
X123418128Y-53838523D01*
X123714496Y-53705081D01*
X123886590Y-53362224D01*
X123988490Y-52992380D01*
X124008981Y-52710236D01*
X124103721Y-52710236D01*
X124151111Y-53090921D01*
X124271858Y-53455048D01*
X124405504Y-53705081D01*
X124701872Y-53838523D01*
X125880395Y-52660000D01*
X126239605Y-52660000D01*
X127418128Y-53838523D01*
X127714496Y-53705081D01*
X127886590Y-53362224D01*
X127988490Y-52992380D01*
X128008981Y-52710236D01*
X128103721Y-52710236D01*
X128151111Y-53090921D01*
X128271858Y-53455048D01*
X128405504Y-53705081D01*
X128701872Y-53838523D01*
X129880395Y-52660000D01*
X128701872Y-51481477D01*
X128405504Y-51614919D01*
X128233410Y-51957776D01*
X128131510Y-52327620D01*
X128103721Y-52710236D01*
X128008981Y-52710236D01*
X128016279Y-52609764D01*
X127968889Y-52229079D01*
X127848142Y-51864952D01*
X127714496Y-51614919D01*
X127418128Y-51481477D01*
X126239605Y-52660000D01*
X125880395Y-52660000D01*
X124701872Y-51481477D01*
X124405504Y-51614919D01*
X124233410Y-51957776D01*
X124131510Y-52327620D01*
X124103721Y-52710236D01*
X124008981Y-52710236D01*
X124016279Y-52609764D01*
X123968889Y-52229079D01*
X123848142Y-51864952D01*
X123714496Y-51614919D01*
X123418128Y-51481477D01*
X122239605Y-52660000D01*
X121880395Y-52660000D01*
X120701872Y-51481477D01*
X120405504Y-51614919D01*
X120233410Y-51957776D01*
X120131510Y-52327620D01*
X120103721Y-52710236D01*
X102112000Y-52710236D01*
X102112000Y-50927000D01*
X116271133Y-50927000D01*
X116216963Y-50993006D01*
G37*
%TD.AperFunction*%
%TD*%
M02*
