%TF.GenerationSoftware,KiCad,Pcbnew,5.1.7-a382d34a8~88~ubuntu18.04.1*%
%TF.CreationDate,2021-02-25T09:45:04-05:00*%
%TF.ProjectId,PedalBaord,50656461-6c42-4616-9f72-642e6b696361,rev?*%
%TF.SameCoordinates,Original*%
%TF.FileFunction,Legend,Top*%
%TF.FilePolarity,Positive*%
%FSLAX46Y46*%
G04 Gerber Fmt 4.6, Leading zero omitted, Abs format (unit mm)*
G04 Created by KiCad (PCBNEW 5.1.7-a382d34a8~88~ubuntu18.04.1) date 2021-02-25 09:45:04*
%MOMM*%
%LPD*%
G01*
G04 APERTURE LIST*
%ADD10C,0.120000*%
%ADD11C,0.150000*%
%ADD12C,0.127000*%
%ADD13C,0.200000*%
%ADD14C,0.050000*%
G04 APERTURE END LIST*
D10*
%TO.C,U5*%
X125730000Y-79355000D02*
X129180000Y-79355000D01*
X125730000Y-79355000D02*
X123780000Y-79355000D01*
X125730000Y-69235000D02*
X127680000Y-69235000D01*
X125730000Y-69235000D02*
X123780000Y-69235000D01*
%TO.C,C7*%
X125583733Y-81155000D02*
X125876267Y-81155000D01*
X125583733Y-80135000D02*
X125876267Y-80135000D01*
%TO.C,U3*%
X139495000Y-69680000D02*
X135635000Y-69680000D01*
X135635000Y-69680000D02*
X135635000Y-69925000D01*
X139495000Y-69680000D02*
X143355000Y-69680000D01*
X143355000Y-69680000D02*
X143355000Y-69925000D01*
X139495000Y-81450000D02*
X135635000Y-81450000D01*
X135635000Y-81450000D02*
X135635000Y-81205000D01*
X139495000Y-81450000D02*
X143355000Y-81450000D01*
X143355000Y-81450000D02*
X143355000Y-81205000D01*
X143355000Y-81205000D02*
X145170000Y-81205000D01*
%TO.C,U2*%
X149664000Y-69005000D02*
X161385000Y-69005000D01*
X149664000Y-77625000D02*
X161385000Y-77625000D01*
X149664000Y-69005000D02*
X149664000Y-77625000D01*
X161385000Y-69005000D02*
X161385000Y-77625000D01*
X149424000Y-76625000D02*
X149424000Y-77865000D01*
X149424000Y-77865000D02*
X150664000Y-77865000D01*
D11*
%TO.C,U1*%
X110235000Y-70670000D02*
X110235000Y-70895000D01*
X117485000Y-70670000D02*
X117485000Y-70995000D01*
X117485000Y-77920000D02*
X117485000Y-77595000D01*
X110235000Y-77920000D02*
X110235000Y-77595000D01*
X110235000Y-70670000D02*
X110560000Y-70670000D01*
X110235000Y-77920000D02*
X110560000Y-77920000D01*
X117485000Y-77920000D02*
X117160000Y-77920000D01*
X117485000Y-70670000D02*
X117160000Y-70670000D01*
X110235000Y-70895000D02*
X108810000Y-70895000D01*
D10*
%TO.C,R3*%
X149327776Y-79487500D02*
X149837224Y-79487500D01*
X149327776Y-80532500D02*
X149837224Y-80532500D01*
%TO.C,R2*%
X116942776Y-66152500D02*
X117452224Y-66152500D01*
X116942776Y-67197500D02*
X117452224Y-67197500D01*
%TO.C,R1*%
X113642224Y-67197500D02*
X113132776Y-67197500D01*
X113642224Y-66152500D02*
X113132776Y-66152500D01*
D12*
%TO.C,J2*%
X162460000Y-68460000D02*
X101660000Y-68460000D01*
X162460000Y-50610000D02*
X101660000Y-50610000D01*
X101660000Y-50610000D02*
X101660000Y-68460000D01*
X162460000Y-68460000D02*
X162460000Y-50610000D01*
D13*
X118160000Y-49960000D02*
G75*
G03*
X118160000Y-49960000I-100000J0D01*
G01*
D10*
%TO.C,J1*%
X102175000Y-77530000D02*
X107375000Y-77530000D01*
X102175000Y-72390000D02*
X102175000Y-77530000D01*
X107375000Y-69790000D02*
X107375000Y-77530000D01*
X102175000Y-72390000D02*
X104775000Y-72390000D01*
X104775000Y-72390000D02*
X104775000Y-69790000D01*
X104775000Y-69790000D02*
X107375000Y-69790000D01*
X102175000Y-71120000D02*
X102175000Y-69790000D01*
X102175000Y-69790000D02*
X103505000Y-69790000D01*
%TO.C,D1*%
X148425000Y-78205000D02*
X150885000Y-78205000D01*
X150885000Y-78205000D02*
X150885000Y-76735000D01*
X150885000Y-76735000D02*
X148425000Y-76735000D01*
%TO.C,C4*%
X157218767Y-79885000D02*
X156926233Y-79885000D01*
X157218767Y-78865000D02*
X156926233Y-78865000D01*
%TO.C,C3*%
X153296233Y-78865000D02*
X153588767Y-78865000D01*
X153296233Y-79885000D02*
X153588767Y-79885000D01*
%TO.C,C1*%
X105328767Y-79885000D02*
X105036233Y-79885000D01*
X105328767Y-78865000D02*
X105036233Y-78865000D01*
%TO.C,U5*%
D11*
X127889095Y-80097380D02*
X127889095Y-80906904D01*
X127936714Y-81002142D01*
X127984333Y-81049761D01*
X128079571Y-81097380D01*
X128270047Y-81097380D01*
X128365285Y-81049761D01*
X128412904Y-81002142D01*
X128460523Y-80906904D01*
X128460523Y-80097380D01*
X129412904Y-80097380D02*
X128936714Y-80097380D01*
X128889095Y-80573571D01*
X128936714Y-80525952D01*
X129031952Y-80478333D01*
X129270047Y-80478333D01*
X129365285Y-80525952D01*
X129412904Y-80573571D01*
X129460523Y-80668809D01*
X129460523Y-80906904D01*
X129412904Y-81002142D01*
X129365285Y-81049761D01*
X129270047Y-81097380D01*
X129031952Y-81097380D01*
X128936714Y-81049761D01*
X128889095Y-81002142D01*
%TO.C,C7*%
X122769333Y-81002142D02*
X122721714Y-81049761D01*
X122578857Y-81097380D01*
X122483619Y-81097380D01*
X122340761Y-81049761D01*
X122245523Y-80954523D01*
X122197904Y-80859285D01*
X122150285Y-80668809D01*
X122150285Y-80525952D01*
X122197904Y-80335476D01*
X122245523Y-80240238D01*
X122340761Y-80145000D01*
X122483619Y-80097380D01*
X122578857Y-80097380D01*
X122721714Y-80145000D01*
X122769333Y-80192619D01*
X123102666Y-80097380D02*
X123769333Y-80097380D01*
X123340761Y-81097380D01*
%TO.C,U3*%
X145796095Y-80605380D02*
X145796095Y-81414904D01*
X145843714Y-81510142D01*
X145891333Y-81557761D01*
X145986571Y-81605380D01*
X146177047Y-81605380D01*
X146272285Y-81557761D01*
X146319904Y-81510142D01*
X146367523Y-81414904D01*
X146367523Y-80605380D01*
X146748476Y-80605380D02*
X147367523Y-80605380D01*
X147034190Y-80986333D01*
X147177047Y-80986333D01*
X147272285Y-81033952D01*
X147319904Y-81081571D01*
X147367523Y-81176809D01*
X147367523Y-81414904D01*
X147319904Y-81510142D01*
X147272285Y-81557761D01*
X147177047Y-81605380D01*
X146891333Y-81605380D01*
X146796095Y-81557761D01*
X146748476Y-81510142D01*
%TO.C,U2*%
X154813095Y-67457380D02*
X154813095Y-68266904D01*
X154860714Y-68362142D01*
X154908333Y-68409761D01*
X155003571Y-68457380D01*
X155194047Y-68457380D01*
X155289285Y-68409761D01*
X155336904Y-68362142D01*
X155384523Y-68266904D01*
X155384523Y-67457380D01*
X155813095Y-67552619D02*
X155860714Y-67505000D01*
X155955952Y-67457380D01*
X156194047Y-67457380D01*
X156289285Y-67505000D01*
X156336904Y-67552619D01*
X156384523Y-67647857D01*
X156384523Y-67743095D01*
X156336904Y-67885952D01*
X155765476Y-68457380D01*
X156384523Y-68457380D01*
%TO.C,U1*%
X109093095Y-66762380D02*
X109093095Y-67571904D01*
X109140714Y-67667142D01*
X109188333Y-67714761D01*
X109283571Y-67762380D01*
X109474047Y-67762380D01*
X109569285Y-67714761D01*
X109616904Y-67667142D01*
X109664523Y-67571904D01*
X109664523Y-66762380D01*
X110664523Y-67762380D02*
X110093095Y-67762380D01*
X110378809Y-67762380D02*
X110378809Y-66762380D01*
X110283571Y-66905238D01*
X110188333Y-67000476D01*
X110093095Y-67048095D01*
%TO.C,R3*%
X147026333Y-79700380D02*
X146693000Y-79224190D01*
X146454904Y-79700380D02*
X146454904Y-78700380D01*
X146835857Y-78700380D01*
X146931095Y-78748000D01*
X146978714Y-78795619D01*
X147026333Y-78890857D01*
X147026333Y-79033714D01*
X146978714Y-79128952D01*
X146931095Y-79176571D01*
X146835857Y-79224190D01*
X146454904Y-79224190D01*
X147359666Y-78700380D02*
X147978714Y-78700380D01*
X147645380Y-79081333D01*
X147788238Y-79081333D01*
X147883476Y-79128952D01*
X147931095Y-79176571D01*
X147978714Y-79271809D01*
X147978714Y-79509904D01*
X147931095Y-79605142D01*
X147883476Y-79652761D01*
X147788238Y-79700380D01*
X147502523Y-79700380D01*
X147407285Y-79652761D01*
X147359666Y-79605142D01*
%TO.C,R2*%
X117030833Y-65697380D02*
X116697500Y-65221190D01*
X116459404Y-65697380D02*
X116459404Y-64697380D01*
X116840357Y-64697380D01*
X116935595Y-64745000D01*
X116983214Y-64792619D01*
X117030833Y-64887857D01*
X117030833Y-65030714D01*
X116983214Y-65125952D01*
X116935595Y-65173571D01*
X116840357Y-65221190D01*
X116459404Y-65221190D01*
X117411785Y-64792619D02*
X117459404Y-64745000D01*
X117554642Y-64697380D01*
X117792738Y-64697380D01*
X117887976Y-64745000D01*
X117935595Y-64792619D01*
X117983214Y-64887857D01*
X117983214Y-64983095D01*
X117935595Y-65125952D01*
X117364166Y-65697380D01*
X117983214Y-65697380D01*
%TO.C,R1*%
X113220833Y-65857380D02*
X112887500Y-65381190D01*
X112649404Y-65857380D02*
X112649404Y-64857380D01*
X113030357Y-64857380D01*
X113125595Y-64905000D01*
X113173214Y-64952619D01*
X113220833Y-65047857D01*
X113220833Y-65190714D01*
X113173214Y-65285952D01*
X113125595Y-65333571D01*
X113030357Y-65381190D01*
X112649404Y-65381190D01*
X114173214Y-65857380D02*
X113601785Y-65857380D01*
X113887500Y-65857380D02*
X113887500Y-64857380D01*
X113792261Y-65000238D01*
X113697023Y-65095476D01*
X113601785Y-65143095D01*
%TO.C,J2*%
D14*
X149646933Y-51683676D02*
X149646933Y-52684533D01*
X149580209Y-52884704D01*
X149446761Y-53018152D01*
X149246590Y-53084876D01*
X149113142Y-53084876D01*
X150247447Y-51817123D02*
X150314171Y-51750400D01*
X150447619Y-51683676D01*
X150781238Y-51683676D01*
X150914685Y-51750400D01*
X150981409Y-51817123D01*
X151048133Y-51950571D01*
X151048133Y-52084019D01*
X150981409Y-52284190D01*
X150180723Y-53084876D01*
X151048133Y-53084876D01*
%TO.C,J1*%
D11*
X104441666Y-66762380D02*
X104441666Y-67476666D01*
X104394047Y-67619523D01*
X104298809Y-67714761D01*
X104155952Y-67762380D01*
X104060714Y-67762380D01*
X105441666Y-67762380D02*
X104870238Y-67762380D01*
X105155952Y-67762380D02*
X105155952Y-66762380D01*
X105060714Y-66905238D01*
X104965476Y-67000476D01*
X104870238Y-67048095D01*
%TO.C,D1*%
X145946904Y-77795380D02*
X145946904Y-76795380D01*
X146185000Y-76795380D01*
X146327857Y-76843000D01*
X146423095Y-76938238D01*
X146470714Y-77033476D01*
X146518333Y-77223952D01*
X146518333Y-77366809D01*
X146470714Y-77557285D01*
X146423095Y-77652523D01*
X146327857Y-77747761D01*
X146185000Y-77795380D01*
X145946904Y-77795380D01*
X147470714Y-77795380D02*
X146899285Y-77795380D01*
X147185000Y-77795380D02*
X147185000Y-76795380D01*
X147089761Y-76938238D01*
X146994523Y-77033476D01*
X146899285Y-77081095D01*
%TO.C,C4*%
X156905833Y-81162142D02*
X156858214Y-81209761D01*
X156715357Y-81257380D01*
X156620119Y-81257380D01*
X156477261Y-81209761D01*
X156382023Y-81114523D01*
X156334404Y-81019285D01*
X156286785Y-80828809D01*
X156286785Y-80685952D01*
X156334404Y-80495476D01*
X156382023Y-80400238D01*
X156477261Y-80305000D01*
X156620119Y-80257380D01*
X156715357Y-80257380D01*
X156858214Y-80305000D01*
X156905833Y-80352619D01*
X157762976Y-80590714D02*
X157762976Y-81257380D01*
X157524880Y-80209761D02*
X157286785Y-80924047D01*
X157905833Y-80924047D01*
%TO.C,C3*%
X153503333Y-81129142D02*
X153455714Y-81176761D01*
X153312857Y-81224380D01*
X153217619Y-81224380D01*
X153074761Y-81176761D01*
X152979523Y-81081523D01*
X152931904Y-80986285D01*
X152884285Y-80795809D01*
X152884285Y-80652952D01*
X152931904Y-80462476D01*
X152979523Y-80367238D01*
X153074761Y-80272000D01*
X153217619Y-80224380D01*
X153312857Y-80224380D01*
X153455714Y-80272000D01*
X153503333Y-80319619D01*
X153836666Y-80224380D02*
X154455714Y-80224380D01*
X154122380Y-80605333D01*
X154265238Y-80605333D01*
X154360476Y-80652952D01*
X154408095Y-80700571D01*
X154455714Y-80795809D01*
X154455714Y-81033904D01*
X154408095Y-81129142D01*
X154360476Y-81176761D01*
X154265238Y-81224380D01*
X153979523Y-81224380D01*
X153884285Y-81176761D01*
X153836666Y-81129142D01*
%TO.C,C1*%
X105015833Y-81162142D02*
X104968214Y-81209761D01*
X104825357Y-81257380D01*
X104730119Y-81257380D01*
X104587261Y-81209761D01*
X104492023Y-81114523D01*
X104444404Y-81019285D01*
X104396785Y-80828809D01*
X104396785Y-80685952D01*
X104444404Y-80495476D01*
X104492023Y-80400238D01*
X104587261Y-80305000D01*
X104730119Y-80257380D01*
X104825357Y-80257380D01*
X104968214Y-80305000D01*
X105015833Y-80352619D01*
X105968214Y-81257380D02*
X105396785Y-81257380D01*
X105682500Y-81257380D02*
X105682500Y-80257380D01*
X105587261Y-80400238D01*
X105492023Y-80495476D01*
X105396785Y-80543095D01*
%TD*%
M02*
