M48
; DRILL file {KiCad 5.1.7-a382d34a8~88~ubuntu18.04.1} date Thu Feb 25 09:45:02 2021
; FORMAT={-:-/ absolute / metric / decimal}
; #@! TF.CreationDate,2021-02-25T09:45:02-05:00
; #@! TF.GenerationSoftware,Kicad,Pcbnew,5.1.7-a382d34a8~88~ubuntu18.04.1
FMAT,2
METRIC
T1C0.400
T2C1.000
T3C1.750
T4C2.850
%
G90
G05
T1
X102.997Y-81.28
X104.521Y-81.28
X105.918Y-81.28
X107.95Y-68.58
X107.95Y-80.01
X111.633Y-74.676
X111.76Y-72.39
X111.76Y-77.145
X112.395Y-68.58
X114.3Y-76.835
X115.71Y-77.075
X116.205Y-74.295
X116.71Y-77.075
X118.11Y-63.5
X118.745Y-80.645
X119.888Y-73.152
X120.65Y-80.645
X121.285Y-71.12
X125.095Y-72.39
X125.095Y-73.66
X125.095Y-73.66
X125.095Y-74.93
X130.81Y-80.645
X131.445Y-78.105
X132.715Y-76.835
X132.715Y-80.645
X132.86Y-73.025
X132.86Y-75.53
X136.525Y-79.375
X136.525Y-80.645
X137.16Y-74.93
X140.97Y-71.755
X140.97Y-73.025
X142.24Y-76.835
X146.05Y-79.375
X149.86Y-75.565
X152.4Y-80.645
X154.94Y-80.645
T2
X153.035Y-75.565
X155.575Y-75.565
X158.115Y-75.565
X103.505Y-71.12
X103.505Y-73.66
X103.505Y-76.2
X106.045Y-71.12
X106.045Y-73.66
X106.045Y-76.2
T3
X118.06Y-52.66
X118.06Y-60.66
X120.06Y-56.66
X122.06Y-52.66
X122.06Y-60.66
X124.06Y-56.66
X126.06Y-52.66
X126.06Y-60.66
X128.06Y-56.66
X130.06Y-52.66
X130.06Y-60.66
X132.06Y-56.66
X134.06Y-52.66
X134.06Y-60.66
X136.06Y-56.66
X138.06Y-52.66
X138.06Y-60.66
X140.06Y-56.66
X142.06Y-52.66
X142.06Y-60.66
X144.06Y-56.66
X146.06Y-52.66
X146.06Y-60.66
T4
X111.56Y-57.16
X152.56Y-57.16
T0
M30
