%TF.GenerationSoftware,KiCad,Pcbnew,5.1.7-a382d34a8~88~ubuntu18.04.1*%
%TF.CreationDate,2021-02-25T09:22:48-05:00*%
%TF.ProjectId,LVPDU,4c565044-552e-46b6-9963-61645f706362,rev?*%
%TF.SameCoordinates,Original*%
%TF.FileFunction,Soldermask,Bot*%
%TF.FilePolarity,Negative*%
%FSLAX46Y46*%
G04 Gerber Fmt 4.6, Leading zero omitted, Abs format (unit mm)*
G04 Created by KiCad (PCBNEW 5.1.7-a382d34a8~88~ubuntu18.04.1) date 2021-02-25 09:22:48*
%MOMM*%
%LPD*%
G01*
G04 APERTURE LIST*
%ADD10O,1.905000X2.000000*%
%ADD11R,1.905000X2.000000*%
%ADD12O,3.500000X3.500000*%
%ADD13C,2.780000*%
%ADD14C,2.000000*%
%ADD15C,2.625000*%
%ADD16R,2.625000X2.625000*%
%ADD17C,1.635000*%
%ADD18O,2.925000X5.850000*%
%ADD19O,5.340000X2.670000*%
%ADD20C,3.200000*%
G04 APERTURE END LIST*
D10*
%TO.C,D1*%
X152908000Y-60856000D03*
X150368000Y-60856000D03*
D11*
X147828000Y-60856000D03*
D12*
X150368000Y-44196000D03*
%TD*%
D13*
%TO.C,F9*%
X164084000Y-46228000D03*
X160684000Y-46228000D03*
X164084000Y-56148000D03*
X160684000Y-56148000D03*
%TD*%
D14*
%TO.C,J1*%
X216304000Y-45532000D03*
X177904000Y-45532000D03*
X214804000Y-63632000D03*
X179404000Y-63632000D03*
D15*
X205104000Y-48832000D03*
X201104000Y-48832000D03*
X197104000Y-48832000D03*
X193104000Y-48832000D03*
X189104000Y-48832000D03*
X203104000Y-52832000D03*
X199104000Y-52832000D03*
X195104000Y-52832000D03*
X191104000Y-52832000D03*
X205104000Y-56832000D03*
X201104000Y-56832000D03*
X197104000Y-56832000D03*
X193104000Y-56832000D03*
D16*
X189104000Y-56832000D03*
%TD*%
D13*
%TO.C,F8*%
X173228000Y-46228000D03*
X169828000Y-46228000D03*
X173228000Y-56148000D03*
X169828000Y-56148000D03*
%TD*%
%TO.C,F7*%
X235712000Y-45720000D03*
X235712000Y-42320000D03*
X225792000Y-45720000D03*
X225792000Y-42320000D03*
%TD*%
D17*
%TO.C,K1*%
X151058000Y-79225000D03*
X151058000Y-69065000D03*
D18*
X166498000Y-83035000D03*
D19*
X163068000Y-64285000D03*
%TD*%
D20*
%TO.C,H1*%
X221488000Y-70612000D03*
%TD*%
D13*
%TO.C,F6*%
X211328000Y-84328000D03*
X214728000Y-84328000D03*
X211328000Y-74408000D03*
X214728000Y-74408000D03*
%TD*%
%TO.C,F5*%
X182372000Y-84328000D03*
X185772000Y-84328000D03*
X182372000Y-74408000D03*
X185772000Y-74408000D03*
%TD*%
%TO.C,F4*%
X201676000Y-84328000D03*
X205076000Y-84328000D03*
X201676000Y-74408000D03*
X205076000Y-74408000D03*
%TD*%
%TO.C,F3*%
X235712000Y-63500000D03*
X235712000Y-60100000D03*
X225792000Y-63500000D03*
X225792000Y-60100000D03*
%TD*%
%TO.C,F2*%
X192024000Y-84328000D03*
X195424000Y-84328000D03*
X192024000Y-74408000D03*
X195424000Y-74408000D03*
%TD*%
%TO.C,F1*%
X235712000Y-54356000D03*
X235712000Y-50956000D03*
X225792000Y-54356000D03*
X225792000Y-50956000D03*
%TD*%
M02*
