%TF.GenerationSoftware,KiCad,Pcbnew,5.1.7-a382d34a8~88~ubuntu18.04.1*%
%TF.CreationDate,2021-02-25T09:22:48-05:00*%
%TF.ProjectId,LVPDU,4c565044-552e-46b6-9963-61645f706362,rev?*%
%TF.SameCoordinates,Original*%
%TF.FileFunction,Legend,Bot*%
%TF.FilePolarity,Positive*%
%FSLAX46Y46*%
G04 Gerber Fmt 4.6, Leading zero omitted, Abs format (unit mm)*
G04 Created by KiCad (PCBNEW 5.1.7-a382d34a8~88~ubuntu18.04.1) date 2021-02-25 09:22:48*
%MOMM*%
%LPD*%
G01*
G04 APERTURE LIST*
%ADD10C,0.500000*%
%ADD11C,0.127000*%
%ADD12C,0.050000*%
G04 APERTURE END LIST*
D10*
%TO.C,J1*%
X171946000Y-56832000D02*
G75*
G03*
X171946000Y-56832000I-175000J0D01*
G01*
D11*
X221504000Y-64882000D02*
X221504000Y-40782000D01*
X176704000Y-68882000D02*
X217504000Y-68882000D01*
X172704000Y-40782000D02*
X172704000Y-64882000D01*
X217504000Y-36782000D02*
X176704000Y-36782000D01*
X210804000Y-41032000D02*
X183404000Y-41032000D01*
X212804000Y-62632000D02*
X212804000Y-43032000D01*
X183404000Y-64632000D02*
X210804000Y-64632000D01*
X181404000Y-43032000D02*
X181404000Y-62632000D01*
X221504000Y-40782000D02*
G75*
G03*
X217504000Y-36782000I-4000000J0D01*
G01*
X217504000Y-68882000D02*
G75*
G03*
X221504000Y-64882000I0J4000000D01*
G01*
X172704000Y-64882000D02*
G75*
G03*
X176704000Y-68882000I4000000J0D01*
G01*
X176704000Y-36782000D02*
G75*
G03*
X172704000Y-40782000I0J-4000000D01*
G01*
X183404000Y-41032000D02*
G75*
G03*
X181404000Y-43032000I0J-2000000D01*
G01*
X212804000Y-43032000D02*
G75*
G03*
X210804000Y-41032000I-2000000J0D01*
G01*
X210804000Y-64632000D02*
G75*
G03*
X212804000Y-62632000I0J2000000D01*
G01*
X181404000Y-62632000D02*
G75*
G03*
X183404000Y-64632000I2000000J0D01*
G01*
D12*
X181300293Y-69733732D02*
X181300293Y-70734646D01*
X181367020Y-70934829D01*
X181500476Y-71068284D01*
X181700659Y-71135012D01*
X181834114Y-71135012D01*
X179899013Y-71135012D02*
X180699744Y-71135012D01*
X180299379Y-71135012D02*
X180299379Y-69733732D01*
X180432834Y-69933915D01*
X180566289Y-70067370D01*
X180699744Y-70134098D01*
%TD*%
M02*
