%TF.GenerationSoftware,KiCad,Pcbnew,5.1.7-a382d34a8~88~ubuntu18.04.1*%
%TF.CreationDate,2021-02-25T09:22:48-05:00*%
%TF.ProjectId,LVPDU,4c565044-552e-46b6-9963-61645f706362,rev?*%
%TF.SameCoordinates,Original*%
%TF.FileFunction,Legend,Top*%
%TF.FilePolarity,Positive*%
%FSLAX46Y46*%
G04 Gerber Fmt 4.6, Leading zero omitted, Abs format (unit mm)*
G04 Created by KiCad (PCBNEW 5.1.7-a382d34a8~88~ubuntu18.04.1) date 2021-02-25 09:22:48*
%MOMM*%
%LPD*%
G01*
G04 APERTURE LIST*
%ADD10C,0.180000*%
%ADD11C,0.010000*%
%ADD12C,0.120000*%
%ADD13C,0.127000*%
%ADD14C,0.150000*%
%ADD15C,0.015000*%
G04 APERTURE END LIST*
D10*
X159429714Y-41690857D02*
X159429714Y-40490857D01*
X159715428Y-40490857D01*
X159886857Y-40548000D01*
X160001142Y-40662285D01*
X160058285Y-40776571D01*
X160115428Y-41005142D01*
X160115428Y-41176571D01*
X160058285Y-41405142D01*
X160001142Y-41519428D01*
X159886857Y-41633714D01*
X159715428Y-41690857D01*
X159429714Y-41690857D01*
X161315428Y-41576571D02*
X161258285Y-41633714D01*
X161086857Y-41690857D01*
X160972571Y-41690857D01*
X160801142Y-41633714D01*
X160686857Y-41519428D01*
X160629714Y-41405142D01*
X160572571Y-41176571D01*
X160572571Y-41005142D01*
X160629714Y-40776571D01*
X160686857Y-40662285D01*
X160801142Y-40548000D01*
X160972571Y-40490857D01*
X161086857Y-40490857D01*
X161258285Y-40548000D01*
X161315428Y-40605142D01*
X161829714Y-41690857D02*
X161829714Y-40490857D01*
X162115428Y-40490857D01*
X162286857Y-40548000D01*
X162401142Y-40662285D01*
X162458285Y-40776571D01*
X162515428Y-41005142D01*
X162515428Y-41176571D01*
X162458285Y-41405142D01*
X162401142Y-41519428D01*
X162286857Y-41633714D01*
X162115428Y-41690857D01*
X161829714Y-41690857D01*
X163715428Y-41576571D02*
X163658285Y-41633714D01*
X163486857Y-41690857D01*
X163372571Y-41690857D01*
X163201142Y-41633714D01*
X163086857Y-41519428D01*
X163029714Y-41405142D01*
X162972571Y-41176571D01*
X162972571Y-41005142D01*
X163029714Y-40776571D01*
X163086857Y-40662285D01*
X163201142Y-40548000D01*
X163372571Y-40490857D01*
X163486857Y-40490857D01*
X163658285Y-40548000D01*
X163715428Y-40605142D01*
X169065714Y-40554285D02*
X169237142Y-40611428D01*
X169294285Y-40668571D01*
X169351428Y-40782857D01*
X169351428Y-40954285D01*
X169294285Y-41068571D01*
X169237142Y-41125714D01*
X169122857Y-41182857D01*
X168665714Y-41182857D01*
X168665714Y-39982857D01*
X169065714Y-39982857D01*
X169180000Y-40040000D01*
X169237142Y-40097142D01*
X169294285Y-40211428D01*
X169294285Y-40325714D01*
X169237142Y-40440000D01*
X169180000Y-40497142D01*
X169065714Y-40554285D01*
X168665714Y-40554285D01*
X170551428Y-41182857D02*
X170151428Y-40611428D01*
X169865714Y-41182857D02*
X169865714Y-39982857D01*
X170322857Y-39982857D01*
X170437142Y-40040000D01*
X170494285Y-40097142D01*
X170551428Y-40211428D01*
X170551428Y-40382857D01*
X170494285Y-40497142D01*
X170437142Y-40554285D01*
X170322857Y-40611428D01*
X169865714Y-40611428D01*
X171465714Y-40554285D02*
X171637142Y-40611428D01*
X171694285Y-40668571D01*
X171751428Y-40782857D01*
X171751428Y-40954285D01*
X171694285Y-41068571D01*
X171637142Y-41125714D01*
X171522857Y-41182857D01*
X171065714Y-41182857D01*
X171065714Y-39982857D01*
X171465714Y-39982857D01*
X171580000Y-40040000D01*
X171637142Y-40097142D01*
X171694285Y-40211428D01*
X171694285Y-40325714D01*
X171637142Y-40440000D01*
X171580000Y-40497142D01*
X171465714Y-40554285D01*
X171065714Y-40554285D01*
X209731428Y-68049714D02*
X209902857Y-68106857D01*
X210188571Y-68106857D01*
X210302857Y-68049714D01*
X210360000Y-67992571D01*
X210417142Y-67878285D01*
X210417142Y-67764000D01*
X210360000Y-67649714D01*
X210302857Y-67592571D01*
X210188571Y-67535428D01*
X209960000Y-67478285D01*
X209845714Y-67421142D01*
X209788571Y-67364000D01*
X209731428Y-67249714D01*
X209731428Y-67135428D01*
X209788571Y-67021142D01*
X209845714Y-66964000D01*
X209960000Y-66906857D01*
X210245714Y-66906857D01*
X210417142Y-66964000D01*
X210931428Y-68106857D02*
X210931428Y-66906857D01*
X211388571Y-66906857D01*
X211502857Y-66964000D01*
X211560000Y-67021142D01*
X211617142Y-67135428D01*
X211617142Y-67306857D01*
X211560000Y-67421142D01*
X211502857Y-67478285D01*
X211388571Y-67535428D01*
X210931428Y-67535428D01*
X212074285Y-67764000D02*
X212645714Y-67764000D01*
X211960000Y-68106857D02*
X212360000Y-66906857D01*
X212760000Y-68106857D01*
X213845714Y-68106857D02*
X213445714Y-67535428D01*
X213160000Y-68106857D02*
X213160000Y-66906857D01*
X213617142Y-66906857D01*
X213731428Y-66964000D01*
X213788571Y-67021142D01*
X213845714Y-67135428D01*
X213845714Y-67306857D01*
X213788571Y-67421142D01*
X213731428Y-67478285D01*
X213617142Y-67535428D01*
X213160000Y-67535428D01*
X214360000Y-67478285D02*
X214760000Y-67478285D01*
X214931428Y-68106857D02*
X214360000Y-68106857D01*
X214360000Y-66906857D01*
X214931428Y-66906857D01*
X216988571Y-68106857D02*
X216302857Y-68106857D01*
X216645714Y-68106857D02*
X216645714Y-66906857D01*
X216531428Y-67078285D01*
X216417142Y-67192571D01*
X216302857Y-67249714D01*
X202228571Y-67478285D02*
X201828571Y-67478285D01*
X201828571Y-68106857D02*
X201828571Y-66906857D01*
X202400000Y-66906857D01*
X202800000Y-67764000D02*
X203371428Y-67764000D01*
X202685714Y-68106857D02*
X203085714Y-66906857D01*
X203485714Y-68106857D01*
X203885714Y-68106857D02*
X203885714Y-66906857D01*
X204571428Y-68106857D01*
X204571428Y-66906857D01*
X192090857Y-68106857D02*
X192090857Y-66906857D01*
X192376571Y-66906857D01*
X192548000Y-66964000D01*
X192662285Y-67078285D01*
X192719428Y-67192571D01*
X192776571Y-67421142D01*
X192776571Y-67592571D01*
X192719428Y-67821142D01*
X192662285Y-67935428D01*
X192548000Y-68049714D01*
X192376571Y-68106857D01*
X192090857Y-68106857D01*
X193233714Y-67764000D02*
X193805142Y-67764000D01*
X193119428Y-68106857D02*
X193519428Y-66906857D01*
X193919428Y-68106857D01*
X195119428Y-68221142D02*
X195005142Y-68164000D01*
X194890857Y-68049714D01*
X194719428Y-67878285D01*
X194605142Y-67821142D01*
X194490857Y-67821142D01*
X194548000Y-68106857D02*
X194433714Y-68049714D01*
X194319428Y-67935428D01*
X194262285Y-67706857D01*
X194262285Y-67306857D01*
X194319428Y-67078285D01*
X194433714Y-66964000D01*
X194548000Y-66906857D01*
X194776571Y-66906857D01*
X194890857Y-66964000D01*
X195005142Y-67078285D01*
X195062285Y-67306857D01*
X195062285Y-67706857D01*
X195005142Y-67935428D01*
X194890857Y-68049714D01*
X194776571Y-68106857D01*
X194548000Y-68106857D01*
X181667428Y-68106857D02*
X181667428Y-66906857D01*
X182124571Y-66906857D01*
X182238857Y-66964000D01*
X182296000Y-67021142D01*
X182353142Y-67135428D01*
X182353142Y-67306857D01*
X182296000Y-67421142D01*
X182238857Y-67478285D01*
X182124571Y-67535428D01*
X181667428Y-67535428D01*
X182867428Y-66906857D02*
X182867428Y-67878285D01*
X182924571Y-67992571D01*
X182981714Y-68049714D01*
X183096000Y-68106857D01*
X183324571Y-68106857D01*
X183438857Y-68049714D01*
X183496000Y-67992571D01*
X183553142Y-67878285D01*
X183553142Y-66906857D01*
X184124571Y-68106857D02*
X184124571Y-66906857D01*
X184524571Y-67764000D01*
X184924571Y-66906857D01*
X184924571Y-68106857D01*
X185496000Y-68106857D02*
X185496000Y-66906857D01*
X185953142Y-66906857D01*
X186067428Y-66964000D01*
X186124571Y-67021142D01*
X186181714Y-67135428D01*
X186181714Y-67306857D01*
X186124571Y-67421142D01*
X186067428Y-67478285D01*
X185953142Y-67535428D01*
X185496000Y-67535428D01*
X213630285Y-60994857D02*
X213230285Y-60423428D01*
X212944571Y-60994857D02*
X212944571Y-59794857D01*
X213401714Y-59794857D01*
X213516000Y-59852000D01*
X213573142Y-59909142D01*
X213630285Y-60023428D01*
X213630285Y-60194857D01*
X213573142Y-60309142D01*
X213516000Y-60366285D01*
X213401714Y-60423428D01*
X212944571Y-60423428D01*
X214144571Y-60994857D02*
X214144571Y-59794857D01*
X214716000Y-60994857D02*
X214716000Y-59794857D01*
X215401714Y-60994857D01*
X215401714Y-59794857D01*
X215973142Y-60366285D02*
X216373142Y-60366285D01*
X216544571Y-60994857D02*
X215973142Y-60994857D01*
X215973142Y-59794857D01*
X216544571Y-59794857D01*
X217058857Y-60994857D02*
X217058857Y-59794857D01*
X217058857Y-60366285D02*
X217744571Y-60366285D01*
X217744571Y-60994857D02*
X217744571Y-59794857D01*
X218258857Y-60652000D02*
X218830285Y-60652000D01*
X218144571Y-60994857D02*
X218544571Y-59794857D01*
X218944571Y-60994857D01*
X220030285Y-60994857D02*
X219630285Y-60423428D01*
X219344571Y-60994857D02*
X219344571Y-59794857D01*
X219801714Y-59794857D01*
X219916000Y-59852000D01*
X219973142Y-59909142D01*
X220030285Y-60023428D01*
X220030285Y-60194857D01*
X219973142Y-60309142D01*
X219916000Y-60366285D01*
X219801714Y-60423428D01*
X219344571Y-60423428D01*
X220373142Y-59794857D02*
X221058857Y-59794857D01*
X220716000Y-60994857D02*
X220716000Y-59794857D01*
X214208000Y-53825714D02*
X214379428Y-53882857D01*
X214665142Y-53882857D01*
X214779428Y-53825714D01*
X214836571Y-53768571D01*
X214893714Y-53654285D01*
X214893714Y-53540000D01*
X214836571Y-53425714D01*
X214779428Y-53368571D01*
X214665142Y-53311428D01*
X214436571Y-53254285D01*
X214322285Y-53197142D01*
X214265142Y-53140000D01*
X214208000Y-53025714D01*
X214208000Y-52911428D01*
X214265142Y-52797142D01*
X214322285Y-52740000D01*
X214436571Y-52682857D01*
X214722285Y-52682857D01*
X214893714Y-52740000D01*
X215408000Y-53882857D02*
X215408000Y-52682857D01*
X215408000Y-53254285D02*
X216093714Y-53254285D01*
X216093714Y-53882857D02*
X216093714Y-52682857D01*
X216665142Y-53882857D02*
X216665142Y-52682857D01*
X216950857Y-52682857D01*
X217122285Y-52740000D01*
X217236571Y-52854285D01*
X217293714Y-52968571D01*
X217350857Y-53197142D01*
X217350857Y-53368571D01*
X217293714Y-53597142D01*
X217236571Y-53711428D01*
X217122285Y-53825714D01*
X216950857Y-53882857D01*
X216665142Y-53882857D01*
X217865142Y-53882857D02*
X217865142Y-52682857D01*
X218550857Y-53882857D01*
X218550857Y-52682857D01*
X212049142Y-42649714D02*
X212220571Y-42706857D01*
X212506285Y-42706857D01*
X212620571Y-42649714D01*
X212677714Y-42592571D01*
X212734857Y-42478285D01*
X212734857Y-42364000D01*
X212677714Y-42249714D01*
X212620571Y-42192571D01*
X212506285Y-42135428D01*
X212277714Y-42078285D01*
X212163428Y-42021142D01*
X212106285Y-41964000D01*
X212049142Y-41849714D01*
X212049142Y-41735428D01*
X212106285Y-41621142D01*
X212163428Y-41564000D01*
X212277714Y-41506857D01*
X212563428Y-41506857D01*
X212734857Y-41564000D01*
X213249142Y-41906857D02*
X213249142Y-43106857D01*
X213249142Y-41964000D02*
X213363428Y-41906857D01*
X213592000Y-41906857D01*
X213706285Y-41964000D01*
X213763428Y-42021142D01*
X213820571Y-42135428D01*
X213820571Y-42478285D01*
X213763428Y-42592571D01*
X213706285Y-42649714D01*
X213592000Y-42706857D01*
X213363428Y-42706857D01*
X213249142Y-42649714D01*
X214849142Y-42706857D02*
X214849142Y-42078285D01*
X214792000Y-41964000D01*
X214677714Y-41906857D01*
X214449142Y-41906857D01*
X214334857Y-41964000D01*
X214849142Y-42649714D02*
X214734857Y-42706857D01*
X214449142Y-42706857D01*
X214334857Y-42649714D01*
X214277714Y-42535428D01*
X214277714Y-42421142D01*
X214334857Y-42306857D01*
X214449142Y-42249714D01*
X214734857Y-42249714D01*
X214849142Y-42192571D01*
X215420571Y-42706857D02*
X215420571Y-41906857D01*
X215420571Y-42135428D02*
X215477714Y-42021142D01*
X215534857Y-41964000D01*
X215649142Y-41906857D01*
X215763428Y-41906857D01*
X216620571Y-42649714D02*
X216506285Y-42706857D01*
X216277714Y-42706857D01*
X216163428Y-42649714D01*
X216106285Y-42535428D01*
X216106285Y-42078285D01*
X216163428Y-41964000D01*
X216277714Y-41906857D01*
X216506285Y-41906857D01*
X216620571Y-41964000D01*
X216677714Y-42078285D01*
X216677714Y-42192571D01*
X216106285Y-42306857D01*
X218049142Y-41621142D02*
X218106285Y-41564000D01*
X218220571Y-41506857D01*
X218506285Y-41506857D01*
X218620571Y-41564000D01*
X218677714Y-41621142D01*
X218734857Y-41735428D01*
X218734857Y-41849714D01*
X218677714Y-42021142D01*
X217992000Y-42706857D01*
X218734857Y-42706857D01*
X229794285Y-81875000D02*
X229680000Y-81817857D01*
X229508571Y-81817857D01*
X229337142Y-81875000D01*
X229222857Y-81989285D01*
X229165714Y-82103571D01*
X229108571Y-82332142D01*
X229108571Y-82503571D01*
X229165714Y-82732142D01*
X229222857Y-82846428D01*
X229337142Y-82960714D01*
X229508571Y-83017857D01*
X229622857Y-83017857D01*
X229794285Y-82960714D01*
X229851428Y-82903571D01*
X229851428Y-82503571D01*
X229622857Y-82503571D01*
X230365714Y-82903571D02*
X230422857Y-82960714D01*
X230365714Y-83017857D01*
X230308571Y-82960714D01*
X230365714Y-82903571D01*
X230365714Y-83017857D01*
X230880000Y-82960714D02*
X231051428Y-83017857D01*
X231337142Y-83017857D01*
X231451428Y-82960714D01*
X231508571Y-82903571D01*
X231565714Y-82789285D01*
X231565714Y-82675000D01*
X231508571Y-82560714D01*
X231451428Y-82503571D01*
X231337142Y-82446428D01*
X231108571Y-82389285D01*
X230994285Y-82332142D01*
X230937142Y-82275000D01*
X230880000Y-82160714D01*
X230880000Y-82046428D01*
X230937142Y-81932142D01*
X230994285Y-81875000D01*
X231108571Y-81817857D01*
X231394285Y-81817857D01*
X231565714Y-81875000D01*
X232080000Y-82217857D02*
X232080000Y-83417857D01*
X232080000Y-82275000D02*
X232194285Y-82217857D01*
X232422857Y-82217857D01*
X232537142Y-82275000D01*
X232594285Y-82332142D01*
X232651428Y-82446428D01*
X232651428Y-82789285D01*
X232594285Y-82903571D01*
X232537142Y-82960714D01*
X232422857Y-83017857D01*
X232194285Y-83017857D01*
X232080000Y-82960714D01*
X233622857Y-82960714D02*
X233508571Y-83017857D01*
X233280000Y-83017857D01*
X233165714Y-82960714D01*
X233108571Y-82846428D01*
X233108571Y-82389285D01*
X233165714Y-82275000D01*
X233280000Y-82217857D01*
X233508571Y-82217857D01*
X233622857Y-82275000D01*
X233680000Y-82389285D01*
X233680000Y-82503571D01*
X233108571Y-82617857D01*
X234708571Y-83017857D02*
X234708571Y-82389285D01*
X234651428Y-82275000D01*
X234537142Y-82217857D01*
X234308571Y-82217857D01*
X234194285Y-82275000D01*
X234708571Y-82960714D02*
X234594285Y-83017857D01*
X234308571Y-83017857D01*
X234194285Y-82960714D01*
X234137142Y-82846428D01*
X234137142Y-82732142D01*
X234194285Y-82617857D01*
X234308571Y-82560714D01*
X234594285Y-82560714D01*
X234708571Y-82503571D01*
X235280000Y-83017857D02*
X235280000Y-82217857D01*
X235280000Y-82446428D02*
X235337142Y-82332142D01*
X235394285Y-82275000D01*
X235508571Y-82217857D01*
X235622857Y-82217857D01*
X236022857Y-83017857D02*
X236022857Y-82217857D01*
X236022857Y-81817857D02*
X235965714Y-81875000D01*
X236022857Y-81932142D01*
X236080000Y-81875000D01*
X236022857Y-81817857D01*
X236022857Y-81932142D01*
X236594285Y-82217857D02*
X236594285Y-83017857D01*
X236594285Y-82332142D02*
X236651428Y-82275000D01*
X236765714Y-82217857D01*
X236937142Y-82217857D01*
X237051428Y-82275000D01*
X237108571Y-82389285D01*
X237108571Y-83017857D01*
X238194285Y-82217857D02*
X238194285Y-83189285D01*
X238137142Y-83303571D01*
X238080000Y-83360714D01*
X237965714Y-83417857D01*
X237794285Y-83417857D01*
X237680000Y-83360714D01*
X238194285Y-82960714D02*
X238080000Y-83017857D01*
X237851428Y-83017857D01*
X237737142Y-82960714D01*
X237680000Y-82903571D01*
X237622857Y-82789285D01*
X237622857Y-82446428D01*
X237680000Y-82332142D01*
X237737142Y-82275000D01*
X237851428Y-82217857D01*
X238080000Y-82217857D01*
X238194285Y-82275000D01*
X231708571Y-84997857D02*
X231137142Y-84997857D01*
X231137142Y-83797857D01*
X231937142Y-83797857D02*
X232337142Y-84997857D01*
X232737142Y-83797857D01*
X233137142Y-84997857D02*
X233137142Y-83797857D01*
X233594285Y-83797857D01*
X233708571Y-83855000D01*
X233765714Y-83912142D01*
X233822857Y-84026428D01*
X233822857Y-84197857D01*
X233765714Y-84312142D01*
X233708571Y-84369285D01*
X233594285Y-84426428D01*
X233137142Y-84426428D01*
X234337142Y-84997857D02*
X234337142Y-83797857D01*
X234622857Y-83797857D01*
X234794285Y-83855000D01*
X234908571Y-83969285D01*
X234965714Y-84083571D01*
X235022857Y-84312142D01*
X235022857Y-84483571D01*
X234965714Y-84712142D01*
X234908571Y-84826428D01*
X234794285Y-84940714D01*
X234622857Y-84997857D01*
X234337142Y-84997857D01*
X235537142Y-83797857D02*
X235537142Y-84769285D01*
X235594285Y-84883571D01*
X235651428Y-84940714D01*
X235765714Y-84997857D01*
X235994285Y-84997857D01*
X236108571Y-84940714D01*
X236165714Y-84883571D01*
X236222857Y-84769285D01*
X236222857Y-83797857D01*
X230765714Y-85892142D02*
X230822857Y-85835000D01*
X230937142Y-85777857D01*
X231222857Y-85777857D01*
X231337142Y-85835000D01*
X231394285Y-85892142D01*
X231451428Y-86006428D01*
X231451428Y-86120714D01*
X231394285Y-86292142D01*
X230708571Y-86977857D01*
X231451428Y-86977857D01*
X232594285Y-86977857D02*
X231908571Y-86977857D01*
X232251428Y-86977857D02*
X232251428Y-85777857D01*
X232137142Y-85949285D01*
X232022857Y-86063571D01*
X231908571Y-86120714D01*
X233108571Y-86863571D02*
X233165714Y-86920714D01*
X233108571Y-86977857D01*
X233051428Y-86920714D01*
X233108571Y-86863571D01*
X233108571Y-86977857D01*
X233908571Y-85777857D02*
X234022857Y-85777857D01*
X234137142Y-85835000D01*
X234194285Y-85892142D01*
X234251428Y-86006428D01*
X234308571Y-86235000D01*
X234308571Y-86520714D01*
X234251428Y-86749285D01*
X234194285Y-86863571D01*
X234137142Y-86920714D01*
X234022857Y-86977857D01*
X233908571Y-86977857D01*
X233794285Y-86920714D01*
X233737142Y-86863571D01*
X233680000Y-86749285D01*
X233622857Y-86520714D01*
X233622857Y-86235000D01*
X233680000Y-86006428D01*
X233737142Y-85892142D01*
X233794285Y-85835000D01*
X233908571Y-85777857D01*
X234708571Y-85777857D02*
X235451428Y-85777857D01*
X235051428Y-86235000D01*
X235222857Y-86235000D01*
X235337142Y-86292142D01*
X235394285Y-86349285D01*
X235451428Y-86463571D01*
X235451428Y-86749285D01*
X235394285Y-86863571D01*
X235337142Y-86920714D01*
X235222857Y-86977857D01*
X234880000Y-86977857D01*
X234765714Y-86920714D01*
X234708571Y-86863571D01*
X236137142Y-86292142D02*
X236022857Y-86235000D01*
X235965714Y-86177857D01*
X235908571Y-86063571D01*
X235908571Y-86006428D01*
X235965714Y-85892142D01*
X236022857Y-85835000D01*
X236137142Y-85777857D01*
X236365714Y-85777857D01*
X236480000Y-85835000D01*
X236537142Y-85892142D01*
X236594285Y-86006428D01*
X236594285Y-86063571D01*
X236537142Y-86177857D01*
X236480000Y-86235000D01*
X236365714Y-86292142D01*
X236137142Y-86292142D01*
X236022857Y-86349285D01*
X235965714Y-86406428D01*
X235908571Y-86520714D01*
X235908571Y-86749285D01*
X235965714Y-86863571D01*
X236022857Y-86920714D01*
X236137142Y-86977857D01*
X236365714Y-86977857D01*
X236480000Y-86920714D01*
X236537142Y-86863571D01*
X236594285Y-86749285D01*
X236594285Y-86520714D01*
X236537142Y-86406428D01*
X236480000Y-86349285D01*
X236365714Y-86292142D01*
D11*
%TO.C,G\u002A\u002A\u002A*%
G36*
X235986976Y-69704354D02*
G01*
X236405936Y-69284908D01*
X238504130Y-69284908D01*
X239377556Y-70159242D01*
X238986968Y-70549323D01*
X238596381Y-70939403D01*
X238408240Y-70939403D01*
X238408240Y-70356834D01*
X238485422Y-70282027D01*
X238562604Y-70207219D01*
X238405597Y-70048999D01*
X238248589Y-69890779D01*
X236685181Y-69890779D01*
X236453027Y-70123807D01*
X236220874Y-70356834D01*
X238408240Y-70356834D01*
X238408240Y-70939403D01*
X236382620Y-70939403D01*
X235975318Y-70531602D01*
X235568015Y-70123800D01*
X235986976Y-69704354D01*
G37*
X235986976Y-69704354D02*
X236405936Y-69284908D01*
X238504130Y-69284908D01*
X239377556Y-70159242D01*
X238986968Y-70549323D01*
X238596381Y-70939403D01*
X238408240Y-70939403D01*
X238408240Y-70356834D01*
X238485422Y-70282027D01*
X238562604Y-70207219D01*
X238405597Y-70048999D01*
X238248589Y-69890779D01*
X236685181Y-69890779D01*
X236453027Y-70123807D01*
X236220874Y-70356834D01*
X238408240Y-70356834D01*
X238408240Y-70939403D01*
X236382620Y-70939403D01*
X235975318Y-70531602D01*
X235568015Y-70123800D01*
X235986976Y-69704354D01*
G36*
X236243886Y-71242339D02*
G01*
X236848252Y-71242339D01*
X237256998Y-71649191D01*
X237472974Y-71434114D01*
X237688949Y-71219036D01*
X238595415Y-71219036D01*
X238718826Y-71097159D01*
X238842236Y-70975281D01*
X239110008Y-71243053D01*
X239377779Y-71510825D01*
X238853211Y-72033535D01*
X238596881Y-71803623D01*
X238293547Y-71802614D01*
X237990214Y-71801605D01*
X237734679Y-72057935D01*
X237479143Y-72314266D01*
X238621935Y-72314266D01*
X238736951Y-72197495D01*
X238851966Y-72080724D01*
X239114744Y-72342757D01*
X239203933Y-72432591D01*
X239280151Y-72511075D01*
X239337811Y-72572318D01*
X239371323Y-72610424D01*
X239377523Y-72619856D01*
X239361520Y-72640267D01*
X239317324Y-72686859D01*
X239250657Y-72753844D01*
X239167241Y-72835434D01*
X239110528Y-72889949D01*
X238843533Y-73144977D01*
X238721003Y-73020906D01*
X238598473Y-72896834D01*
X237175184Y-72896834D01*
X237175184Y-72360871D01*
X236878188Y-72063875D01*
X236581193Y-71766879D01*
X235987201Y-72360871D01*
X237175184Y-72360871D01*
X237175184Y-72896834D01*
X236314562Y-72896834D01*
X236179749Y-73030241D01*
X236044935Y-73163648D01*
X235812055Y-72931642D01*
X235579174Y-72699635D01*
X235579174Y-71905865D01*
X236243886Y-71242339D01*
G37*
X236243886Y-71242339D02*
X236848252Y-71242339D01*
X237256998Y-71649191D01*
X237472974Y-71434114D01*
X237688949Y-71219036D01*
X238595415Y-71219036D01*
X238718826Y-71097159D01*
X238842236Y-70975281D01*
X239110008Y-71243053D01*
X239377779Y-71510825D01*
X238853211Y-72033535D01*
X238596881Y-71803623D01*
X238293547Y-71802614D01*
X237990214Y-71801605D01*
X237734679Y-72057935D01*
X237479143Y-72314266D01*
X238621935Y-72314266D01*
X238736951Y-72197495D01*
X238851966Y-72080724D01*
X239114744Y-72342757D01*
X239203933Y-72432591D01*
X239280151Y-72511075D01*
X239337811Y-72572318D01*
X239371323Y-72610424D01*
X239377523Y-72619856D01*
X239361520Y-72640267D01*
X239317324Y-72686859D01*
X239250657Y-72753844D01*
X239167241Y-72835434D01*
X239110528Y-72889949D01*
X238843533Y-73144977D01*
X238721003Y-73020906D01*
X238598473Y-72896834D01*
X237175184Y-72896834D01*
X237175184Y-72360871D01*
X236878188Y-72063875D01*
X236581193Y-71766879D01*
X235987201Y-72360871D01*
X237175184Y-72360871D01*
X237175184Y-72896834D01*
X236314562Y-72896834D01*
X236179749Y-73030241D01*
X236044935Y-73163648D01*
X235812055Y-72931642D01*
X235579174Y-72699635D01*
X235579174Y-71905865D01*
X236243886Y-71242339D01*
G36*
X236015140Y-75711608D02*
G01*
X236441151Y-75286063D01*
X236662719Y-75506710D01*
X236884287Y-75727356D01*
X236243927Y-76368944D01*
X237212316Y-76368944D01*
X237198716Y-75484008D01*
X237484174Y-75768833D01*
X237769633Y-76053658D01*
X237769633Y-76368944D01*
X238443041Y-76368944D01*
X238506396Y-76285882D01*
X238569750Y-76202820D01*
X238096112Y-75727564D01*
X238516556Y-75307120D01*
X238947039Y-75739776D01*
X239062280Y-75856006D01*
X239165877Y-75961275D01*
X239253512Y-76051130D01*
X239320866Y-76121120D01*
X239363621Y-76166792D01*
X239377523Y-76183568D01*
X239361751Y-76202491D01*
X239317522Y-76249481D01*
X239249462Y-76319781D01*
X239162199Y-76408633D01*
X239060361Y-76511280D01*
X238998596Y-76573108D01*
X238619669Y-76951513D01*
X236408062Y-76951513D01*
X235998596Y-76544333D01*
X235589129Y-76137152D01*
X236015140Y-75711608D01*
G37*
X236015140Y-75711608D02*
X236441151Y-75286063D01*
X236662719Y-75506710D01*
X236884287Y-75727356D01*
X236243927Y-76368944D01*
X237212316Y-76368944D01*
X237198716Y-75484008D01*
X237484174Y-75768833D01*
X237769633Y-76053658D01*
X237769633Y-76368944D01*
X238443041Y-76368944D01*
X238506396Y-76285882D01*
X238569750Y-76202820D01*
X238096112Y-75727564D01*
X238516556Y-75307120D01*
X238947039Y-75739776D01*
X239062280Y-75856006D01*
X239165877Y-75961275D01*
X239253512Y-76051130D01*
X239320866Y-76121120D01*
X239363621Y-76166792D01*
X239377523Y-76183568D01*
X239361751Y-76202491D01*
X239317522Y-76249481D01*
X239249462Y-76319781D01*
X239162199Y-76408633D01*
X239060361Y-76511280D01*
X238998596Y-76573108D01*
X238619669Y-76951513D01*
X236408062Y-76951513D01*
X235998596Y-76544333D01*
X235589129Y-76137152D01*
X236015140Y-75711608D01*
G36*
X235981377Y-77772698D02*
G01*
X236383605Y-77370963D01*
X238595415Y-77370963D01*
X238718826Y-77249085D01*
X238842236Y-77127208D01*
X239110008Y-77394980D01*
X239377779Y-77662752D01*
X238841979Y-78197032D01*
X238595415Y-77953532D01*
X238119174Y-77953532D01*
X238119174Y-78466192D01*
X238595415Y-78466192D01*
X238718826Y-78344315D01*
X238842236Y-78222437D01*
X239110008Y-78490209D01*
X239377779Y-78757981D01*
X238841979Y-79292261D01*
X238595415Y-79048761D01*
X237513303Y-79048761D01*
X237513303Y-78466192D01*
X237513303Y-77953532D01*
X236754668Y-77953532D01*
X236487334Y-78208681D01*
X236220000Y-78463831D01*
X236866651Y-78465011D01*
X237513303Y-78466192D01*
X237513303Y-79048761D01*
X236452567Y-79048761D01*
X236015858Y-78611597D01*
X235579149Y-78174434D01*
X235981377Y-77772698D01*
G37*
X235981377Y-77772698D02*
X236383605Y-77370963D01*
X238595415Y-77370963D01*
X238718826Y-77249085D01*
X238842236Y-77127208D01*
X239110008Y-77394980D01*
X239377779Y-77662752D01*
X238841979Y-78197032D01*
X238595415Y-77953532D01*
X238119174Y-77953532D01*
X238119174Y-78466192D01*
X238595415Y-78466192D01*
X238718826Y-78344315D01*
X238842236Y-78222437D01*
X239110008Y-78490209D01*
X239377779Y-78757981D01*
X238841979Y-79292261D01*
X238595415Y-79048761D01*
X237513303Y-79048761D01*
X237513303Y-78466192D01*
X237513303Y-77953532D01*
X236754668Y-77953532D01*
X236487334Y-78208681D01*
X236220000Y-78463831D01*
X236866651Y-78465011D01*
X237513303Y-78466192D01*
X237513303Y-79048761D01*
X236452567Y-79048761D01*
X236015858Y-78611597D01*
X235579149Y-78174434D01*
X235981377Y-77772698D01*
G36*
X236115138Y-73700779D02*
G01*
X236767615Y-73940032D01*
X236767615Y-73577941D01*
X236767894Y-73441356D01*
X236769236Y-73345317D01*
X236772399Y-73283767D01*
X236778143Y-73250648D01*
X236787225Y-73239902D01*
X236800403Y-73245471D01*
X236808394Y-73252150D01*
X236832919Y-73270801D01*
X236891574Y-73313904D01*
X236980611Y-73378760D01*
X237096280Y-73462670D01*
X237234830Y-73562939D01*
X237392511Y-73676866D01*
X237565575Y-73801754D01*
X237750270Y-73934906D01*
X237942846Y-74073622D01*
X238139555Y-74215206D01*
X238336645Y-74356959D01*
X238530368Y-74496183D01*
X238716972Y-74630180D01*
X238892708Y-74756252D01*
X239053827Y-74871701D01*
X239196578Y-74973830D01*
X239317211Y-75059939D01*
X239411976Y-75127331D01*
X239477123Y-75173309D01*
X239508903Y-75195173D01*
X239509655Y-75195652D01*
X239497273Y-75193812D01*
X239445011Y-75177983D01*
X239356990Y-75149541D01*
X239237330Y-75109862D01*
X239090151Y-75060324D01*
X238919575Y-75002302D01*
X238729720Y-74937173D01*
X238550454Y-74875239D01*
X238344915Y-74804049D01*
X238153314Y-74737772D01*
X237980054Y-74677925D01*
X237829540Y-74626024D01*
X237706175Y-74583589D01*
X237614363Y-74552135D01*
X237558509Y-74533180D01*
X237542610Y-74528027D01*
X237540511Y-74549981D01*
X237538732Y-74610447D01*
X237537414Y-74701333D01*
X237536696Y-74814545D01*
X237536605Y-74874325D01*
X237536605Y-75220622D01*
X236948211Y-74960354D01*
X236762004Y-74878068D01*
X236560723Y-74789257D01*
X236357005Y-74699488D01*
X236163484Y-74614327D01*
X235992798Y-74539339D01*
X235911238Y-74503576D01*
X235462661Y-74307066D01*
X235462661Y-73461527D01*
X236115138Y-73700779D01*
G37*
X236115138Y-73700779D02*
X236767615Y-73940032D01*
X236767615Y-73577941D01*
X236767894Y-73441356D01*
X236769236Y-73345317D01*
X236772399Y-73283767D01*
X236778143Y-73250648D01*
X236787225Y-73239902D01*
X236800403Y-73245471D01*
X236808394Y-73252150D01*
X236832919Y-73270801D01*
X236891574Y-73313904D01*
X236980611Y-73378760D01*
X237096280Y-73462670D01*
X237234830Y-73562939D01*
X237392511Y-73676866D01*
X237565575Y-73801754D01*
X237750270Y-73934906D01*
X237942846Y-74073622D01*
X238139555Y-74215206D01*
X238336645Y-74356959D01*
X238530368Y-74496183D01*
X238716972Y-74630180D01*
X238892708Y-74756252D01*
X239053827Y-74871701D01*
X239196578Y-74973830D01*
X239317211Y-75059939D01*
X239411976Y-75127331D01*
X239477123Y-75173309D01*
X239508903Y-75195173D01*
X239509655Y-75195652D01*
X239497273Y-75193812D01*
X239445011Y-75177983D01*
X239356990Y-75149541D01*
X239237330Y-75109862D01*
X239090151Y-75060324D01*
X238919575Y-75002302D01*
X238729720Y-74937173D01*
X238550454Y-74875239D01*
X238344915Y-74804049D01*
X238153314Y-74737772D01*
X237980054Y-74677925D01*
X237829540Y-74626024D01*
X237706175Y-74583589D01*
X237614363Y-74552135D01*
X237558509Y-74533180D01*
X237542610Y-74528027D01*
X237540511Y-74549981D01*
X237538732Y-74610447D01*
X237537414Y-74701333D01*
X237536696Y-74814545D01*
X237536605Y-74874325D01*
X237536605Y-75220622D01*
X236948211Y-74960354D01*
X236762004Y-74878068D01*
X236560723Y-74789257D01*
X236357005Y-74699488D01*
X236163484Y-74614327D01*
X235992798Y-74539339D01*
X235911238Y-74503576D01*
X235462661Y-74307066D01*
X235462661Y-73461527D01*
X236115138Y-73700779D01*
D12*
%TO.C,D1*%
X145248000Y-57166000D02*
X155488000Y-57166000D01*
X145248000Y-41276000D02*
X155488000Y-41276000D01*
X145248000Y-41276000D02*
X145248000Y-57166000D01*
X155488000Y-41276000D02*
X155488000Y-57166000D01*
X147828000Y-57166000D02*
X147828000Y-59706000D01*
X150368000Y-57166000D02*
X150368000Y-59706000D01*
X152908000Y-57166000D02*
X152908000Y-59706000D01*
%TO.C,F9*%
X165854000Y-43088000D02*
X158914000Y-43088000D01*
X158914000Y-43088000D02*
X158914000Y-59288000D01*
X158914000Y-59288000D02*
X165854000Y-59288000D01*
X165854000Y-59288000D02*
X165854000Y-43088000D01*
X162384000Y-50438000D02*
X162384000Y-51938000D01*
X160384000Y-52788000D02*
X160384000Y-49588000D01*
X164384000Y-49588000D02*
X164384000Y-52788000D01*
%TO.C,F8*%
X174998000Y-43088000D02*
X168058000Y-43088000D01*
X168058000Y-43088000D02*
X168058000Y-59288000D01*
X168058000Y-59288000D02*
X174998000Y-59288000D01*
X174998000Y-59288000D02*
X174998000Y-43088000D01*
X171528000Y-50438000D02*
X171528000Y-51938000D01*
X169528000Y-52788000D02*
X169528000Y-49588000D01*
X173528000Y-49588000D02*
X173528000Y-52788000D01*
%TO.C,F7*%
X238852000Y-47490000D02*
X238852000Y-40550000D01*
X238852000Y-40550000D02*
X222652000Y-40550000D01*
X222652000Y-40550000D02*
X222652000Y-47490000D01*
X222652000Y-47490000D02*
X238852000Y-47490000D01*
X231502000Y-44020000D02*
X230002000Y-44020000D01*
X229152000Y-42020000D02*
X232352000Y-42020000D01*
X232352000Y-46020000D02*
X229152000Y-46020000D01*
D13*
%TO.C,K1*%
X176657100Y-62484800D02*
X176657100Y-86914600D01*
X160557220Y-60985000D02*
X175157000Y-60985000D01*
X145647200Y-63270700D02*
X158295100Y-63270700D01*
X163857100Y-86914600D02*
X163857100Y-83844700D01*
X159057100Y-62508700D02*
X159057100Y-62484800D01*
X163095100Y-83082700D02*
X145647200Y-83082700D01*
X175157000Y-88415000D02*
X165357220Y-88415000D01*
X144147100Y-81582580D02*
X144147100Y-64770820D01*
X145647201Y-83082700D02*
G75*
G02*
X144147100Y-81582580I12J1500113D01*
G01*
X165357221Y-88415000D02*
G75*
G02*
X163857094Y-86914600I139J1500266D01*
G01*
X176657100Y-86914599D02*
G75*
G02*
X175157000Y-88414700I-1500103J2D01*
G01*
X175156999Y-60985000D02*
G75*
G02*
X176657100Y-62484800I148J-1499953D01*
G01*
X159057100Y-62484801D02*
G75*
G02*
X160557220Y-60984700I1500113J-12D01*
G01*
X144147100Y-64770821D02*
G75*
G02*
X145647200Y-63270700I1500113J8D01*
G01*
X163095100Y-83082700D02*
G75*
G02*
X163857100Y-83844700I0J-762000D01*
G01*
X159057100Y-62508700D02*
G75*
G02*
X158295100Y-63270700I-762000J0D01*
G01*
D12*
%TO.C,F6*%
X211028000Y-80968000D02*
X211028000Y-77768000D01*
X215028000Y-77768000D02*
X215028000Y-80968000D01*
X213028000Y-80118000D02*
X213028000Y-78618000D01*
X209558000Y-71268000D02*
X209558000Y-87468000D01*
X216498000Y-71268000D02*
X209558000Y-71268000D01*
X216498000Y-87468000D02*
X216498000Y-71268000D01*
X209558000Y-87468000D02*
X216498000Y-87468000D01*
%TO.C,F5*%
X182072000Y-80968000D02*
X182072000Y-77768000D01*
X186072000Y-77768000D02*
X186072000Y-80968000D01*
X184072000Y-80118000D02*
X184072000Y-78618000D01*
X180602000Y-71268000D02*
X180602000Y-87468000D01*
X187542000Y-71268000D02*
X180602000Y-71268000D01*
X187542000Y-87468000D02*
X187542000Y-71268000D01*
X180602000Y-87468000D02*
X187542000Y-87468000D01*
%TO.C,F4*%
X201376000Y-80968000D02*
X201376000Y-77768000D01*
X205376000Y-77768000D02*
X205376000Y-80968000D01*
X203376000Y-80118000D02*
X203376000Y-78618000D01*
X199906000Y-71268000D02*
X199906000Y-87468000D01*
X206846000Y-71268000D02*
X199906000Y-71268000D01*
X206846000Y-87468000D02*
X206846000Y-71268000D01*
X199906000Y-87468000D02*
X206846000Y-87468000D01*
%TO.C,F3*%
X232352000Y-63800000D02*
X229152000Y-63800000D01*
X229152000Y-59800000D02*
X232352000Y-59800000D01*
X231502000Y-61800000D02*
X230002000Y-61800000D01*
X222652000Y-65270000D02*
X238852000Y-65270000D01*
X222652000Y-58330000D02*
X222652000Y-65270000D01*
X238852000Y-58330000D02*
X222652000Y-58330000D01*
X238852000Y-65270000D02*
X238852000Y-58330000D01*
%TO.C,F2*%
X191724000Y-80968000D02*
X191724000Y-77768000D01*
X195724000Y-77768000D02*
X195724000Y-80968000D01*
X193724000Y-80118000D02*
X193724000Y-78618000D01*
X190254000Y-71268000D02*
X190254000Y-87468000D01*
X197194000Y-71268000D02*
X190254000Y-71268000D01*
X197194000Y-87468000D02*
X197194000Y-71268000D01*
X190254000Y-87468000D02*
X197194000Y-87468000D01*
%TO.C,F1*%
X232352000Y-54656000D02*
X229152000Y-54656000D01*
X229152000Y-50656000D02*
X232352000Y-50656000D01*
X231502000Y-52656000D02*
X230002000Y-52656000D01*
X222652000Y-56126000D02*
X238852000Y-56126000D01*
X222652000Y-49186000D02*
X222652000Y-56126000D01*
X238852000Y-49186000D02*
X222652000Y-49186000D01*
X238852000Y-56126000D02*
X238852000Y-49186000D01*
%TO.C,D1*%
D14*
X149629904Y-40728380D02*
X149629904Y-39728380D01*
X149868000Y-39728380D01*
X150010857Y-39776000D01*
X150106095Y-39871238D01*
X150153714Y-39966476D01*
X150201333Y-40156952D01*
X150201333Y-40299809D01*
X150153714Y-40490285D01*
X150106095Y-40585523D01*
X150010857Y-40680761D01*
X149868000Y-40728380D01*
X149629904Y-40728380D01*
X151153714Y-40728380D02*
X150582285Y-40728380D01*
X150868000Y-40728380D02*
X150868000Y-39728380D01*
X150772761Y-39871238D01*
X150677523Y-39966476D01*
X150582285Y-40014095D01*
%TO.C,F9*%
X166552571Y-49101333D02*
X166552571Y-49434666D01*
X167076380Y-49434666D02*
X166076380Y-49434666D01*
X166076380Y-48958476D01*
X167076380Y-48529904D02*
X167076380Y-48339428D01*
X167028761Y-48244190D01*
X166981142Y-48196571D01*
X166838285Y-48101333D01*
X166647809Y-48053714D01*
X166266857Y-48053714D01*
X166171619Y-48101333D01*
X166124000Y-48148952D01*
X166076380Y-48244190D01*
X166076380Y-48434666D01*
X166124000Y-48529904D01*
X166171619Y-48577523D01*
X166266857Y-48625142D01*
X166504952Y-48625142D01*
X166600190Y-48577523D01*
X166647809Y-48529904D01*
X166695428Y-48434666D01*
X166695428Y-48244190D01*
X166647809Y-48148952D01*
X166600190Y-48101333D01*
X166504952Y-48053714D01*
%TO.C,F8*%
X167060571Y-53165333D02*
X167060571Y-53498666D01*
X167584380Y-53498666D02*
X166584380Y-53498666D01*
X166584380Y-53022476D01*
X167012952Y-52498666D02*
X166965333Y-52593904D01*
X166917714Y-52641523D01*
X166822476Y-52689142D01*
X166774857Y-52689142D01*
X166679619Y-52641523D01*
X166632000Y-52593904D01*
X166584380Y-52498666D01*
X166584380Y-52308190D01*
X166632000Y-52212952D01*
X166679619Y-52165333D01*
X166774857Y-52117714D01*
X166822476Y-52117714D01*
X166917714Y-52165333D01*
X166965333Y-52212952D01*
X167012952Y-52308190D01*
X167012952Y-52498666D01*
X167060571Y-52593904D01*
X167108190Y-52641523D01*
X167203428Y-52689142D01*
X167393904Y-52689142D01*
X167489142Y-52641523D01*
X167536761Y-52593904D01*
X167584380Y-52498666D01*
X167584380Y-52308190D01*
X167536761Y-52212952D01*
X167489142Y-52165333D01*
X167393904Y-52117714D01*
X167203428Y-52117714D01*
X167108190Y-52165333D01*
X167060571Y-52212952D01*
X167012952Y-52308190D01*
%TO.C,F7*%
X230418666Y-48318571D02*
X230085333Y-48318571D01*
X230085333Y-48842380D02*
X230085333Y-47842380D01*
X230561523Y-47842380D01*
X230847238Y-47842380D02*
X231513904Y-47842380D01*
X231085333Y-48842380D01*
%TO.C,K1*%
D15*
X174877743Y-65042002D02*
X173476837Y-65042002D01*
X174877743Y-64241484D02*
X174077225Y-64841872D01*
X173476837Y-64241484D02*
X174277354Y-65042002D01*
X174877743Y-62907288D02*
X174877743Y-63707805D01*
X174877743Y-63307547D02*
X173476837Y-63307547D01*
X173676966Y-63440966D01*
X173810386Y-63574386D01*
X173877096Y-63707805D01*
%TO.C,F6*%
D14*
X208586571Y-79701333D02*
X208586571Y-80034666D01*
X209110380Y-80034666D02*
X208110380Y-80034666D01*
X208110380Y-79558476D01*
X208110380Y-78748952D02*
X208110380Y-78939428D01*
X208158000Y-79034666D01*
X208205619Y-79082285D01*
X208348476Y-79177523D01*
X208538952Y-79225142D01*
X208919904Y-79225142D01*
X209015142Y-79177523D01*
X209062761Y-79129904D01*
X209110380Y-79034666D01*
X209110380Y-78844190D01*
X209062761Y-78748952D01*
X209015142Y-78701333D01*
X208919904Y-78653714D01*
X208681809Y-78653714D01*
X208586571Y-78701333D01*
X208538952Y-78748952D01*
X208491333Y-78844190D01*
X208491333Y-79034666D01*
X208538952Y-79129904D01*
X208586571Y-79177523D01*
X208681809Y-79225142D01*
%TO.C,F5*%
X179630571Y-79701333D02*
X179630571Y-80034666D01*
X180154380Y-80034666D02*
X179154380Y-80034666D01*
X179154380Y-79558476D01*
X179154380Y-78701333D02*
X179154380Y-79177523D01*
X179630571Y-79225142D01*
X179582952Y-79177523D01*
X179535333Y-79082285D01*
X179535333Y-78844190D01*
X179582952Y-78748952D01*
X179630571Y-78701333D01*
X179725809Y-78653714D01*
X179963904Y-78653714D01*
X180059142Y-78701333D01*
X180106761Y-78748952D01*
X180154380Y-78844190D01*
X180154380Y-79082285D01*
X180106761Y-79177523D01*
X180059142Y-79225142D01*
%TO.C,F4*%
X198934571Y-79701333D02*
X198934571Y-80034666D01*
X199458380Y-80034666D02*
X198458380Y-80034666D01*
X198458380Y-79558476D01*
X198791714Y-78748952D02*
X199458380Y-78748952D01*
X198410761Y-78987047D02*
X199125047Y-79225142D01*
X199125047Y-78606095D01*
%TO.C,F3*%
X230418666Y-66098571D02*
X230085333Y-66098571D01*
X230085333Y-66622380D02*
X230085333Y-65622380D01*
X230561523Y-65622380D01*
X230847238Y-65622380D02*
X231466285Y-65622380D01*
X231132952Y-66003333D01*
X231275809Y-66003333D01*
X231371047Y-66050952D01*
X231418666Y-66098571D01*
X231466285Y-66193809D01*
X231466285Y-66431904D01*
X231418666Y-66527142D01*
X231371047Y-66574761D01*
X231275809Y-66622380D01*
X230990095Y-66622380D01*
X230894857Y-66574761D01*
X230847238Y-66527142D01*
%TO.C,F2*%
X189282571Y-79701333D02*
X189282571Y-80034666D01*
X189806380Y-80034666D02*
X188806380Y-80034666D01*
X188806380Y-79558476D01*
X188901619Y-79225142D02*
X188854000Y-79177523D01*
X188806380Y-79082285D01*
X188806380Y-78844190D01*
X188854000Y-78748952D01*
X188901619Y-78701333D01*
X188996857Y-78653714D01*
X189092095Y-78653714D01*
X189234952Y-78701333D01*
X189806380Y-79272761D01*
X189806380Y-78653714D01*
%TO.C,F1*%
X230418666Y-56954571D02*
X230085333Y-56954571D01*
X230085333Y-57478380D02*
X230085333Y-56478380D01*
X230561523Y-56478380D01*
X231466285Y-57478380D02*
X230894857Y-57478380D01*
X231180571Y-57478380D02*
X231180571Y-56478380D01*
X231085333Y-56621238D01*
X230990095Y-56716476D01*
X230894857Y-56764095D01*
%TD*%
M02*
