%TF.GenerationSoftware,KiCad,Pcbnew,5.1.7-a382d34a8~88~ubuntu18.04.1*%
%TF.CreationDate,2021-02-25T09:43:27-05:00*%
%TF.ProjectId,TSAL,5453414c-2e6b-4696-9361-645f70636258,rev?*%
%TF.SameCoordinates,Original*%
%TF.FileFunction,Legend,Top*%
%TF.FilePolarity,Positive*%
%FSLAX46Y46*%
G04 Gerber Fmt 4.6, Leading zero omitted, Abs format (unit mm)*
G04 Created by KiCad (PCBNEW 5.1.7-a382d34a8~88~ubuntu18.04.1) date 2021-02-25 09:43:27*
%MOMM*%
%LPD*%
G01*
G04 APERTURE LIST*
%ADD10C,0.150000*%
%ADD11C,0.120000*%
G04 APERTURE END LIST*
D10*
X137914119Y-82740666D02*
X138914119Y-82740666D01*
X138437928Y-82740666D02*
X138437928Y-83312095D01*
X137914119Y-83312095D02*
X138914119Y-83312095D01*
X138914119Y-83645428D02*
X137914119Y-83978761D01*
X138914119Y-84312095D01*
X138295071Y-84645428D02*
X138295071Y-85407333D01*
X137914119Y-77851166D02*
X138914119Y-77851166D01*
X138437928Y-77851166D02*
X138437928Y-78422595D01*
X137914119Y-78422595D02*
X138914119Y-78422595D01*
X138914119Y-78755928D02*
X137914119Y-79089261D01*
X138914119Y-79422595D01*
X138295071Y-79755928D02*
X138295071Y-80517833D01*
X137914119Y-80136880D02*
X138676023Y-80136880D01*
X171132571Y-83828000D02*
X171037333Y-83780380D01*
X170894476Y-83780380D01*
X170751619Y-83828000D01*
X170656380Y-83923238D01*
X170608761Y-84018476D01*
X170561142Y-84208952D01*
X170561142Y-84351809D01*
X170608761Y-84542285D01*
X170656380Y-84637523D01*
X170751619Y-84732761D01*
X170894476Y-84780380D01*
X170989714Y-84780380D01*
X171132571Y-84732761D01*
X171180190Y-84685142D01*
X171180190Y-84351809D01*
X170989714Y-84351809D01*
X172084952Y-84780380D02*
X171608761Y-84780380D01*
X171608761Y-83780380D01*
X172275428Y-83780380D02*
X172608761Y-84780380D01*
X172942095Y-83780380D01*
X178173142Y-84780380D02*
X177696952Y-84780380D01*
X177696952Y-83780380D01*
X178506476Y-84256571D02*
X178839809Y-84256571D01*
X178982666Y-84780380D02*
X178506476Y-84780380D01*
X178506476Y-83780380D01*
X178982666Y-83780380D01*
X179411238Y-84780380D02*
X179411238Y-83780380D01*
X179649333Y-83780380D01*
X179792190Y-83828000D01*
X179887428Y-83923238D01*
X179935047Y-84018476D01*
X179982666Y-84208952D01*
X179982666Y-84351809D01*
X179935047Y-84542285D01*
X179887428Y-84637523D01*
X179792190Y-84732761D01*
X179649333Y-84780380D01*
X179411238Y-84780380D01*
X150885619Y-78454642D02*
X150885619Y-77978452D01*
X150409428Y-77930833D01*
X150457047Y-77978452D01*
X150504666Y-78073690D01*
X150504666Y-78311785D01*
X150457047Y-78407023D01*
X150409428Y-78454642D01*
X150314190Y-78502261D01*
X150076095Y-78502261D01*
X149980857Y-78454642D01*
X149933238Y-78407023D01*
X149885619Y-78311785D01*
X149885619Y-78073690D01*
X149933238Y-77978452D01*
X149980857Y-77930833D01*
X149980857Y-78930833D02*
X149933238Y-78978452D01*
X149885619Y-78930833D01*
X149933238Y-78883214D01*
X149980857Y-78930833D01*
X149885619Y-78930833D01*
X150885619Y-79311785D02*
X150885619Y-79978452D01*
X149885619Y-79549880D01*
X149885619Y-80883214D02*
X149885619Y-80311785D01*
X149885619Y-80597500D02*
X150885619Y-80597500D01*
X150742761Y-80502261D01*
X150647523Y-80407023D01*
X150599904Y-80311785D01*
X150885619Y-81787976D02*
X150885619Y-81311785D01*
X150409428Y-81264166D01*
X150457047Y-81311785D01*
X150504666Y-81407023D01*
X150504666Y-81645119D01*
X150457047Y-81740357D01*
X150409428Y-81787976D01*
X150314190Y-81835595D01*
X150076095Y-81835595D01*
X149980857Y-81787976D01*
X149933238Y-81740357D01*
X149885619Y-81645119D01*
X149885619Y-81407023D01*
X149933238Y-81311785D01*
X149980857Y-81264166D01*
X149885619Y-83026071D02*
X150552285Y-83026071D01*
X150457047Y-83026071D02*
X150504666Y-83073690D01*
X150552285Y-83168928D01*
X150552285Y-83311785D01*
X150504666Y-83407023D01*
X150409428Y-83454642D01*
X149885619Y-83454642D01*
X150409428Y-83454642D02*
X150504666Y-83502261D01*
X150552285Y-83597500D01*
X150552285Y-83740357D01*
X150504666Y-83835595D01*
X150409428Y-83883214D01*
X149885619Y-83883214D01*
X149885619Y-84359404D02*
X150552285Y-84359404D01*
X150457047Y-84359404D02*
X150504666Y-84407023D01*
X150552285Y-84502261D01*
X150552285Y-84645119D01*
X150504666Y-84740357D01*
X150409428Y-84787976D01*
X149885619Y-84787976D01*
X150409428Y-84787976D02*
X150504666Y-84835595D01*
X150552285Y-84930833D01*
X150552285Y-85073690D01*
X150504666Y-85168928D01*
X150409428Y-85216547D01*
X149885619Y-85216547D01*
X151638000Y-78740000D02*
X151638000Y-84455000D01*
X151892000Y-78740000D02*
X151051579Y-78740000D01*
X151892000Y-84455000D02*
X151051579Y-84455000D01*
X151638000Y-84455000D02*
X151051579Y-83328496D01*
X151638000Y-84455000D02*
X152224421Y-83328496D01*
X151638000Y-78740000D02*
X151051579Y-79866504D01*
X151638000Y-78740000D02*
X152224421Y-79866504D01*
X131119761Y-93052380D02*
X131691190Y-93052380D01*
X131405476Y-94052380D02*
X131405476Y-93052380D01*
X131976904Y-94004761D02*
X132119761Y-94052380D01*
X132357857Y-94052380D01*
X132453095Y-94004761D01*
X132500714Y-93957142D01*
X132548333Y-93861904D01*
X132548333Y-93766666D01*
X132500714Y-93671428D01*
X132453095Y-93623809D01*
X132357857Y-93576190D01*
X132167380Y-93528571D01*
X132072142Y-93480952D01*
X132024523Y-93433333D01*
X131976904Y-93338095D01*
X131976904Y-93242857D01*
X132024523Y-93147619D01*
X132072142Y-93100000D01*
X132167380Y-93052380D01*
X132405476Y-93052380D01*
X132548333Y-93100000D01*
X132929285Y-93766666D02*
X133405476Y-93766666D01*
X132834047Y-94052380D02*
X133167380Y-93052380D01*
X133500714Y-94052380D01*
X134310238Y-94052380D02*
X133834047Y-94052380D01*
X133834047Y-93052380D01*
X129476904Y-94750000D02*
X129381666Y-94702380D01*
X129238809Y-94702380D01*
X129095952Y-94750000D01*
X129000714Y-94845238D01*
X128953095Y-94940476D01*
X128905476Y-95130952D01*
X128905476Y-95273809D01*
X128953095Y-95464285D01*
X129000714Y-95559523D01*
X129095952Y-95654761D01*
X129238809Y-95702380D01*
X129334047Y-95702380D01*
X129476904Y-95654761D01*
X129524523Y-95607142D01*
X129524523Y-95273809D01*
X129334047Y-95273809D01*
X129953095Y-95607142D02*
X130000714Y-95654761D01*
X129953095Y-95702380D01*
X129905476Y-95654761D01*
X129953095Y-95607142D01*
X129953095Y-95702380D01*
X130381666Y-95654761D02*
X130524523Y-95702380D01*
X130762619Y-95702380D01*
X130857857Y-95654761D01*
X130905476Y-95607142D01*
X130953095Y-95511904D01*
X130953095Y-95416666D01*
X130905476Y-95321428D01*
X130857857Y-95273809D01*
X130762619Y-95226190D01*
X130572142Y-95178571D01*
X130476904Y-95130952D01*
X130429285Y-95083333D01*
X130381666Y-94988095D01*
X130381666Y-94892857D01*
X130429285Y-94797619D01*
X130476904Y-94750000D01*
X130572142Y-94702380D01*
X130810238Y-94702380D01*
X130953095Y-94750000D01*
X131381666Y-95035714D02*
X131381666Y-96035714D01*
X131381666Y-95083333D02*
X131476904Y-95035714D01*
X131667380Y-95035714D01*
X131762619Y-95083333D01*
X131810238Y-95130952D01*
X131857857Y-95226190D01*
X131857857Y-95511904D01*
X131810238Y-95607142D01*
X131762619Y-95654761D01*
X131667380Y-95702380D01*
X131476904Y-95702380D01*
X131381666Y-95654761D01*
X132667380Y-95654761D02*
X132572142Y-95702380D01*
X132381666Y-95702380D01*
X132286428Y-95654761D01*
X132238809Y-95559523D01*
X132238809Y-95178571D01*
X132286428Y-95083333D01*
X132381666Y-95035714D01*
X132572142Y-95035714D01*
X132667380Y-95083333D01*
X132715000Y-95178571D01*
X132715000Y-95273809D01*
X132238809Y-95369047D01*
X133572142Y-95702380D02*
X133572142Y-95178571D01*
X133524523Y-95083333D01*
X133429285Y-95035714D01*
X133238809Y-95035714D01*
X133143571Y-95083333D01*
X133572142Y-95654761D02*
X133476904Y-95702380D01*
X133238809Y-95702380D01*
X133143571Y-95654761D01*
X133095952Y-95559523D01*
X133095952Y-95464285D01*
X133143571Y-95369047D01*
X133238809Y-95321428D01*
X133476904Y-95321428D01*
X133572142Y-95273809D01*
X134048333Y-95702380D02*
X134048333Y-95035714D01*
X134048333Y-95226190D02*
X134095952Y-95130952D01*
X134143571Y-95083333D01*
X134238809Y-95035714D01*
X134334047Y-95035714D01*
X134667380Y-95702380D02*
X134667380Y-95035714D01*
X134667380Y-94702380D02*
X134619761Y-94750000D01*
X134667380Y-94797619D01*
X134715000Y-94750000D01*
X134667380Y-94702380D01*
X134667380Y-94797619D01*
X135143571Y-95035714D02*
X135143571Y-95702380D01*
X135143571Y-95130952D02*
X135191190Y-95083333D01*
X135286428Y-95035714D01*
X135429285Y-95035714D01*
X135524523Y-95083333D01*
X135572142Y-95178571D01*
X135572142Y-95702380D01*
X136476904Y-95035714D02*
X136476904Y-95845238D01*
X136429285Y-95940476D01*
X136381666Y-95988095D01*
X136286428Y-96035714D01*
X136143571Y-96035714D01*
X136048333Y-95988095D01*
X136476904Y-95654761D02*
X136381666Y-95702380D01*
X136191190Y-95702380D01*
X136095952Y-95654761D01*
X136048333Y-95607142D01*
X136000714Y-95511904D01*
X136000714Y-95226190D01*
X136048333Y-95130952D01*
X136095952Y-95083333D01*
X136191190Y-95035714D01*
X136381666Y-95035714D01*
X136476904Y-95083333D01*
X130286428Y-96447619D02*
X130334047Y-96400000D01*
X130429285Y-96352380D01*
X130667380Y-96352380D01*
X130762619Y-96400000D01*
X130810238Y-96447619D01*
X130857857Y-96542857D01*
X130857857Y-96638095D01*
X130810238Y-96780952D01*
X130238809Y-97352380D01*
X130857857Y-97352380D01*
X131476904Y-96352380D02*
X131572142Y-96352380D01*
X131667380Y-96400000D01*
X131715000Y-96447619D01*
X131762619Y-96542857D01*
X131810238Y-96733333D01*
X131810238Y-96971428D01*
X131762619Y-97161904D01*
X131715000Y-97257142D01*
X131667380Y-97304761D01*
X131572142Y-97352380D01*
X131476904Y-97352380D01*
X131381666Y-97304761D01*
X131334047Y-97257142D01*
X131286428Y-97161904D01*
X131238809Y-96971428D01*
X131238809Y-96733333D01*
X131286428Y-96542857D01*
X131334047Y-96447619D01*
X131381666Y-96400000D01*
X131476904Y-96352380D01*
X132238809Y-97257142D02*
X132286428Y-97304761D01*
X132238809Y-97352380D01*
X132191190Y-97304761D01*
X132238809Y-97257142D01*
X132238809Y-97352380D01*
X132619761Y-96352380D02*
X133238809Y-96352380D01*
X132905476Y-96733333D01*
X133048333Y-96733333D01*
X133143571Y-96780952D01*
X133191190Y-96828571D01*
X133238809Y-96923809D01*
X133238809Y-97161904D01*
X133191190Y-97257142D01*
X133143571Y-97304761D01*
X133048333Y-97352380D01*
X132762619Y-97352380D01*
X132667380Y-97304761D01*
X132619761Y-97257142D01*
X133857857Y-96352380D02*
X133953095Y-96352380D01*
X134048333Y-96400000D01*
X134095952Y-96447619D01*
X134143571Y-96542857D01*
X134191190Y-96733333D01*
X134191190Y-96971428D01*
X134143571Y-97161904D01*
X134095952Y-97257142D01*
X134048333Y-97304761D01*
X133953095Y-97352380D01*
X133857857Y-97352380D01*
X133762619Y-97304761D01*
X133715000Y-97257142D01*
X133667380Y-97161904D01*
X133619761Y-96971428D01*
X133619761Y-96733333D01*
X133667380Y-96542857D01*
X133715000Y-96447619D01*
X133762619Y-96400000D01*
X133857857Y-96352380D01*
X134667380Y-97352380D02*
X134857857Y-97352380D01*
X134953095Y-97304761D01*
X135000714Y-97257142D01*
X135095952Y-97114285D01*
X135143571Y-96923809D01*
X135143571Y-96542857D01*
X135095952Y-96447619D01*
X135048333Y-96400000D01*
X134953095Y-96352380D01*
X134762619Y-96352380D01*
X134667380Y-96400000D01*
X134619761Y-96447619D01*
X134572142Y-96542857D01*
X134572142Y-96780952D01*
X134619761Y-96876190D01*
X134667380Y-96923809D01*
X134762619Y-96971428D01*
X134953095Y-96971428D01*
X135048333Y-96923809D01*
X135095952Y-96876190D01*
X135143571Y-96780952D01*
X142113571Y-76652380D02*
X142113571Y-75652380D01*
X142113571Y-76128571D02*
X142685000Y-76128571D01*
X142685000Y-76652380D02*
X142685000Y-75652380D01*
X143161190Y-76652380D02*
X143161190Y-75985714D01*
X143161190Y-75652380D02*
X143113571Y-75700000D01*
X143161190Y-75747619D01*
X143208809Y-75700000D01*
X143161190Y-75652380D01*
X143161190Y-75747619D01*
X144065952Y-75985714D02*
X144065952Y-76795238D01*
X144018333Y-76890476D01*
X143970714Y-76938095D01*
X143875476Y-76985714D01*
X143732619Y-76985714D01*
X143637380Y-76938095D01*
X144065952Y-76604761D02*
X143970714Y-76652380D01*
X143780238Y-76652380D01*
X143685000Y-76604761D01*
X143637380Y-76557142D01*
X143589761Y-76461904D01*
X143589761Y-76176190D01*
X143637380Y-76080952D01*
X143685000Y-76033333D01*
X143780238Y-75985714D01*
X143970714Y-75985714D01*
X144065952Y-76033333D01*
X144542142Y-76652380D02*
X144542142Y-75652380D01*
X144970714Y-76652380D02*
X144970714Y-76128571D01*
X144923095Y-76033333D01*
X144827857Y-75985714D01*
X144685000Y-75985714D01*
X144589761Y-76033333D01*
X144542142Y-76080952D01*
X146065952Y-75652380D02*
X146399285Y-76652380D01*
X146732619Y-75652380D01*
X147208809Y-76652380D02*
X147113571Y-76604761D01*
X147065952Y-76557142D01*
X147018333Y-76461904D01*
X147018333Y-76176190D01*
X147065952Y-76080952D01*
X147113571Y-76033333D01*
X147208809Y-75985714D01*
X147351666Y-75985714D01*
X147446904Y-76033333D01*
X147494523Y-76080952D01*
X147542142Y-76176190D01*
X147542142Y-76461904D01*
X147494523Y-76557142D01*
X147446904Y-76604761D01*
X147351666Y-76652380D01*
X147208809Y-76652380D01*
X148113571Y-76652380D02*
X148018333Y-76604761D01*
X147970714Y-76509523D01*
X147970714Y-75652380D01*
X148351666Y-75985714D02*
X148732619Y-75985714D01*
X148494523Y-75652380D02*
X148494523Y-76509523D01*
X148542142Y-76604761D01*
X148637380Y-76652380D01*
X148732619Y-76652380D01*
X149494523Y-76652380D02*
X149494523Y-76128571D01*
X149446904Y-76033333D01*
X149351666Y-75985714D01*
X149161190Y-75985714D01*
X149065952Y-76033333D01*
X149494523Y-76604761D02*
X149399285Y-76652380D01*
X149161190Y-76652380D01*
X149065952Y-76604761D01*
X149018333Y-76509523D01*
X149018333Y-76414285D01*
X149065952Y-76319047D01*
X149161190Y-76271428D01*
X149399285Y-76271428D01*
X149494523Y-76223809D01*
X150399285Y-75985714D02*
X150399285Y-76795238D01*
X150351666Y-76890476D01*
X150304047Y-76938095D01*
X150208809Y-76985714D01*
X150065952Y-76985714D01*
X149970714Y-76938095D01*
X150399285Y-76604761D02*
X150304047Y-76652380D01*
X150113571Y-76652380D01*
X150018333Y-76604761D01*
X149970714Y-76557142D01*
X149923095Y-76461904D01*
X149923095Y-76176190D01*
X149970714Y-76080952D01*
X150018333Y-76033333D01*
X150113571Y-75985714D01*
X150304047Y-75985714D01*
X150399285Y-76033333D01*
X151256428Y-76604761D02*
X151161190Y-76652380D01*
X150970714Y-76652380D01*
X150875476Y-76604761D01*
X150827857Y-76509523D01*
X150827857Y-76128571D01*
X150875476Y-76033333D01*
X150970714Y-75985714D01*
X151161190Y-75985714D01*
X151256428Y-76033333D01*
X151304047Y-76128571D01*
X151304047Y-76223809D01*
X150827857Y-76319047D01*
X144716571Y-82050000D02*
X144621333Y-82002380D01*
X144478476Y-82002380D01*
X144335619Y-82050000D01*
X144240380Y-82145238D01*
X144192761Y-82240476D01*
X144145142Y-82430952D01*
X144145142Y-82573809D01*
X144192761Y-82764285D01*
X144240380Y-82859523D01*
X144335619Y-82954761D01*
X144478476Y-83002380D01*
X144573714Y-83002380D01*
X144716571Y-82954761D01*
X144764190Y-82907142D01*
X144764190Y-82573809D01*
X144573714Y-82573809D01*
X145668952Y-83002380D02*
X145192761Y-83002380D01*
X145192761Y-82002380D01*
X145859428Y-82002380D02*
X146192761Y-83002380D01*
X146526095Y-82002380D01*
X146478476Y-80557619D02*
X145907047Y-80557619D01*
X146192761Y-79557619D02*
X146192761Y-80557619D01*
X145621333Y-79605238D02*
X145478476Y-79557619D01*
X145240380Y-79557619D01*
X145145142Y-79605238D01*
X145097523Y-79652857D01*
X145049904Y-79748095D01*
X145049904Y-79843333D01*
X145097523Y-79938571D01*
X145145142Y-79986190D01*
X145240380Y-80033809D01*
X145430857Y-80081428D01*
X145526095Y-80129047D01*
X145573714Y-80176666D01*
X145621333Y-80271904D01*
X145621333Y-80367142D01*
X145573714Y-80462380D01*
X145526095Y-80510000D01*
X145430857Y-80557619D01*
X145192761Y-80557619D01*
X145049904Y-80510000D01*
X144764190Y-80557619D02*
X144430857Y-79557619D01*
X144097523Y-80557619D01*
D11*
X142240000Y-81280000D02*
X142240000Y-90424000D01*
X149098000Y-81280000D02*
X142240000Y-81280000D01*
%TO.C,C3*%
X153033000Y-89339267D02*
X153033000Y-88996733D01*
X154053000Y-89339267D02*
X154053000Y-88996733D01*
%TO.C,U2*%
X154920000Y-93280000D02*
X154920000Y-96730000D01*
X154920000Y-93280000D02*
X154920000Y-91330000D01*
X160040000Y-93280000D02*
X160040000Y-95230000D01*
X160040000Y-93280000D02*
X160040000Y-91330000D01*
%TO.C,U1*%
X160080000Y-84830000D02*
X160080000Y-82595000D01*
X154880000Y-84830000D02*
X160080000Y-84830000D01*
X154880000Y-78360000D02*
X154880000Y-84830000D01*
X160080000Y-78360000D02*
X154880000Y-78360000D01*
X160080000Y-80595000D02*
X160080000Y-78360000D01*
X160080000Y-82595000D02*
G75*
G02*
X160080000Y-80595000I0J1000000D01*
G01*
%TO.C,R6*%
X179410564Y-93540000D02*
X175306436Y-93540000D01*
X179410564Y-96960000D02*
X175306436Y-96960000D01*
%TO.C,R5*%
X161415000Y-95078733D02*
X161415000Y-95421267D01*
X162435000Y-95078733D02*
X162435000Y-95421267D01*
%TO.C,R4*%
X150464733Y-94617000D02*
X150807267Y-94617000D01*
X150464733Y-93597000D02*
X150807267Y-93597000D01*
%TO.C,R3*%
X149096000Y-90774733D02*
X149096000Y-91117267D01*
X150116000Y-90774733D02*
X150116000Y-91117267D01*
%TO.C,R2*%
X151128000Y-90760733D02*
X151128000Y-91103267D01*
X152148000Y-90760733D02*
X152148000Y-91103267D01*
%TO.C,R1*%
X129710000Y-71120000D02*
X134890000Y-71120000D01*
X157310000Y-71120000D02*
X152130000Y-71120000D01*
X134890000Y-74240000D02*
X152130000Y-74240000D01*
X134890000Y-68000000D02*
X134890000Y-74240000D01*
X152130000Y-68000000D02*
X134890000Y-68000000D01*
X152130000Y-74240000D02*
X152130000Y-68000000D01*
%TO.C,Q2*%
X174949000Y-91826000D02*
X173849000Y-91826000D01*
X174949000Y-92096000D02*
X174949000Y-91826000D01*
X176449000Y-92096000D02*
X174949000Y-92096000D01*
X174949000Y-85466000D02*
X172119000Y-85466000D01*
X174949000Y-85196000D02*
X174949000Y-85466000D01*
X176449000Y-85196000D02*
X174949000Y-85196000D01*
%TO.C,Q1*%
X163825000Y-89410000D02*
X163825000Y-88310000D01*
X163555000Y-89410000D02*
X163825000Y-89410000D01*
X163555000Y-90910000D02*
X163555000Y-89410000D01*
X170185000Y-89410000D02*
X170185000Y-86580000D01*
X170455000Y-89410000D02*
X170185000Y-89410000D01*
X170455000Y-90910000D02*
X170455000Y-89410000D01*
%TO.C,J3*%
X182694264Y-79040000D02*
X182270000Y-78740000D01*
X182694264Y-78440000D02*
X182694264Y-79040000D01*
X182270000Y-78740000D02*
X182694264Y-78440000D01*
X182730000Y-71850000D02*
X181970000Y-71850000D01*
X182730000Y-73210000D02*
X182730000Y-71850000D01*
X181970000Y-73210000D02*
X182730000Y-73210000D01*
X182730000Y-75990000D02*
X181970000Y-75990000D01*
X182730000Y-77350000D02*
X182730000Y-75990000D01*
X181970000Y-77350000D02*
X182730000Y-77350000D01*
X182730000Y-80335000D02*
X181970000Y-80335000D01*
X182730000Y-81695000D02*
X182730000Y-80335000D01*
X181970000Y-81695000D02*
X182730000Y-81695000D01*
X177460000Y-82995000D02*
X177460000Y-81695000D01*
X180680000Y-82995000D02*
X177460000Y-82995000D01*
X180680000Y-81695000D02*
X180680000Y-82995000D01*
X176170000Y-71645000D02*
X177966698Y-71645000D01*
X176170000Y-81695000D02*
X176170000Y-71645000D01*
X179070000Y-81695000D02*
X176170000Y-81695000D01*
X181970000Y-71645000D02*
X180173302Y-71645000D01*
X181970000Y-81695000D02*
X181970000Y-71645000D01*
X179070000Y-81695000D02*
X181970000Y-81695000D01*
%TO.C,J2*%
X175074264Y-79040000D02*
X174650000Y-78740000D01*
X175074264Y-78440000D02*
X175074264Y-79040000D01*
X174650000Y-78740000D02*
X175074264Y-78440000D01*
X175110000Y-71850000D02*
X174350000Y-71850000D01*
X175110000Y-73210000D02*
X175110000Y-71850000D01*
X174350000Y-73210000D02*
X175110000Y-73210000D01*
X175110000Y-75990000D02*
X174350000Y-75990000D01*
X175110000Y-77350000D02*
X175110000Y-75990000D01*
X174350000Y-77350000D02*
X175110000Y-77350000D01*
X175110000Y-80335000D02*
X174350000Y-80335000D01*
X175110000Y-81695000D02*
X175110000Y-80335000D01*
X174350000Y-81695000D02*
X175110000Y-81695000D01*
X169840000Y-82995000D02*
X169840000Y-81695000D01*
X173060000Y-82995000D02*
X169840000Y-82995000D01*
X173060000Y-81695000D02*
X173060000Y-82995000D01*
X168550000Y-71645000D02*
X170346698Y-71645000D01*
X168550000Y-81695000D02*
X168550000Y-71645000D01*
X171450000Y-81695000D02*
X168550000Y-81695000D01*
X174350000Y-71645000D02*
X172553302Y-71645000D01*
X174350000Y-81695000D02*
X174350000Y-71645000D01*
X171450000Y-81695000D02*
X174350000Y-81695000D01*
%TO.C,J1*%
X128970000Y-78820000D02*
X128970000Y-81840000D01*
X128020000Y-78820000D02*
X128970000Y-78820000D01*
X128020000Y-77400000D02*
X128020000Y-78820000D01*
X136240000Y-77400000D02*
X128020000Y-77400000D01*
X136240000Y-81840000D02*
X136240000Y-77400000D01*
X128970000Y-84860000D02*
X128970000Y-81840000D01*
X128020000Y-84860000D02*
X128970000Y-84860000D01*
X128020000Y-86280000D02*
X128020000Y-84860000D01*
X136240000Y-86280000D02*
X128020000Y-86280000D01*
X136240000Y-81840000D02*
X136240000Y-86280000D01*
X128580000Y-83820000D02*
G75*
G03*
X128580000Y-83820000I-250000J0D01*
G01*
%TO.C,C2*%
X150793267Y-96264000D02*
X150450733Y-96264000D01*
X150793267Y-97284000D02*
X150450733Y-97284000D01*
%TO.C,C1*%
X162435000Y-89706267D02*
X162435000Y-89363733D01*
X161415000Y-89706267D02*
X161415000Y-89363733D01*
%TO.C,C3*%
D10*
X153503333Y-86971142D02*
X153455714Y-87018761D01*
X153312857Y-87066380D01*
X153217619Y-87066380D01*
X153074761Y-87018761D01*
X152979523Y-86923523D01*
X152931904Y-86828285D01*
X152884285Y-86637809D01*
X152884285Y-86494952D01*
X152931904Y-86304476D01*
X152979523Y-86209238D01*
X153074761Y-86114000D01*
X153217619Y-86066380D01*
X153312857Y-86066380D01*
X153455714Y-86114000D01*
X153503333Y-86161619D01*
X153836666Y-86066380D02*
X154455714Y-86066380D01*
X154122380Y-86447333D01*
X154265238Y-86447333D01*
X154360476Y-86494952D01*
X154408095Y-86542571D01*
X154455714Y-86637809D01*
X154455714Y-86875904D01*
X154408095Y-86971142D01*
X154360476Y-87018761D01*
X154265238Y-87066380D01*
X153979523Y-87066380D01*
X153884285Y-87018761D01*
X153836666Y-86971142D01*
%TO.C,U2*%
X153630380Y-94360904D02*
X154439904Y-94360904D01*
X154535142Y-94313285D01*
X154582761Y-94265666D01*
X154630380Y-94170428D01*
X154630380Y-93979952D01*
X154582761Y-93884714D01*
X154535142Y-93837095D01*
X154439904Y-93789476D01*
X153630380Y-93789476D01*
X153725619Y-93360904D02*
X153678000Y-93313285D01*
X153630380Y-93218047D01*
X153630380Y-92979952D01*
X153678000Y-92884714D01*
X153725619Y-92837095D01*
X153820857Y-92789476D01*
X153916095Y-92789476D01*
X154058952Y-92837095D01*
X154630380Y-93408523D01*
X154630380Y-92789476D01*
%TO.C,U1*%
X160234380Y-93090904D02*
X161043904Y-93090904D01*
X161139142Y-93043285D01*
X161186761Y-92995666D01*
X161234380Y-92900428D01*
X161234380Y-92709952D01*
X161186761Y-92614714D01*
X161139142Y-92567095D01*
X161043904Y-92519476D01*
X160234380Y-92519476D01*
X161234380Y-91519476D02*
X161234380Y-92090904D01*
X161234380Y-91805190D02*
X160234380Y-91805190D01*
X160377238Y-91900428D01*
X160472476Y-91995666D01*
X160520095Y-92090904D01*
%TO.C,R6*%
X173172380Y-94654666D02*
X172696190Y-94988000D01*
X173172380Y-95226095D02*
X172172380Y-95226095D01*
X172172380Y-94845142D01*
X172220000Y-94749904D01*
X172267619Y-94702285D01*
X172362857Y-94654666D01*
X172505714Y-94654666D01*
X172600952Y-94702285D01*
X172648571Y-94749904D01*
X172696190Y-94845142D01*
X172696190Y-95226095D01*
X172172380Y-93797523D02*
X172172380Y-93988000D01*
X172220000Y-94083238D01*
X172267619Y-94130857D01*
X172410476Y-94226095D01*
X172600952Y-94273714D01*
X172981904Y-94273714D01*
X173077142Y-94226095D01*
X173124761Y-94178476D01*
X173172380Y-94083238D01*
X173172380Y-93892761D01*
X173124761Y-93797523D01*
X173077142Y-93749904D01*
X172981904Y-93702285D01*
X172743809Y-93702285D01*
X172648571Y-93749904D01*
X172600952Y-93797523D01*
X172553333Y-93892761D01*
X172553333Y-94083238D01*
X172600952Y-94178476D01*
X172648571Y-94226095D01*
X172743809Y-94273714D01*
%TO.C,R5*%
X162885380Y-92636666D02*
X162409190Y-92970000D01*
X162885380Y-93208095D02*
X161885380Y-93208095D01*
X161885380Y-92827142D01*
X161933000Y-92731904D01*
X161980619Y-92684285D01*
X162075857Y-92636666D01*
X162218714Y-92636666D01*
X162313952Y-92684285D01*
X162361571Y-92731904D01*
X162409190Y-92827142D01*
X162409190Y-93208095D01*
X161885380Y-91731904D02*
X161885380Y-92208095D01*
X162361571Y-92255714D01*
X162313952Y-92208095D01*
X162266333Y-92112857D01*
X162266333Y-91874761D01*
X162313952Y-91779523D01*
X162361571Y-91731904D01*
X162456809Y-91684285D01*
X162694904Y-91684285D01*
X162790142Y-91731904D01*
X162837761Y-91779523D01*
X162885380Y-91874761D01*
X162885380Y-92112857D01*
X162837761Y-92208095D01*
X162790142Y-92255714D01*
%TO.C,R4*%
X147788333Y-94432380D02*
X147455000Y-93956190D01*
X147216904Y-94432380D02*
X147216904Y-93432380D01*
X147597857Y-93432380D01*
X147693095Y-93480000D01*
X147740714Y-93527619D01*
X147788333Y-93622857D01*
X147788333Y-93765714D01*
X147740714Y-93860952D01*
X147693095Y-93908571D01*
X147597857Y-93956190D01*
X147216904Y-93956190D01*
X148645476Y-93765714D02*
X148645476Y-94432380D01*
X148407380Y-93384761D02*
X148169285Y-94099047D01*
X148788333Y-94099047D01*
%TO.C,R3*%
X149439333Y-87701380D02*
X149106000Y-87225190D01*
X148867904Y-87701380D02*
X148867904Y-86701380D01*
X149248857Y-86701380D01*
X149344095Y-86749000D01*
X149391714Y-86796619D01*
X149439333Y-86891857D01*
X149439333Y-87034714D01*
X149391714Y-87129952D01*
X149344095Y-87177571D01*
X149248857Y-87225190D01*
X148867904Y-87225190D01*
X149772666Y-86701380D02*
X150391714Y-86701380D01*
X150058380Y-87082333D01*
X150201238Y-87082333D01*
X150296476Y-87129952D01*
X150344095Y-87177571D01*
X150391714Y-87272809D01*
X150391714Y-87510904D01*
X150344095Y-87606142D01*
X150296476Y-87653761D01*
X150201238Y-87701380D01*
X149915523Y-87701380D01*
X149820285Y-87653761D01*
X149772666Y-87606142D01*
%TO.C,R2*%
X151471333Y-87701380D02*
X151138000Y-87225190D01*
X150899904Y-87701380D02*
X150899904Y-86701380D01*
X151280857Y-86701380D01*
X151376095Y-86749000D01*
X151423714Y-86796619D01*
X151471333Y-86891857D01*
X151471333Y-87034714D01*
X151423714Y-87129952D01*
X151376095Y-87177571D01*
X151280857Y-87225190D01*
X150899904Y-87225190D01*
X151852285Y-86796619D02*
X151899904Y-86749000D01*
X151995142Y-86701380D01*
X152233238Y-86701380D01*
X152328476Y-86749000D01*
X152376095Y-86796619D01*
X152423714Y-86891857D01*
X152423714Y-86987095D01*
X152376095Y-87129952D01*
X151804666Y-87701380D01*
X152423714Y-87701380D01*
%TO.C,R1*%
X132548333Y-74112380D02*
X132215000Y-73636190D01*
X131976904Y-74112380D02*
X131976904Y-73112380D01*
X132357857Y-73112380D01*
X132453095Y-73160000D01*
X132500714Y-73207619D01*
X132548333Y-73302857D01*
X132548333Y-73445714D01*
X132500714Y-73540952D01*
X132453095Y-73588571D01*
X132357857Y-73636190D01*
X131976904Y-73636190D01*
X133500714Y-74112380D02*
X132929285Y-74112380D01*
X133215000Y-74112380D02*
X133215000Y-73112380D01*
X133119761Y-73255238D01*
X133024523Y-73350476D01*
X132929285Y-73398095D01*
%TO.C,Q2*%
X168560761Y-85891619D02*
X168465523Y-85844000D01*
X168370285Y-85748761D01*
X168227428Y-85605904D01*
X168132190Y-85558285D01*
X168036952Y-85558285D01*
X168084571Y-85796380D02*
X167989333Y-85748761D01*
X167894095Y-85653523D01*
X167846476Y-85463047D01*
X167846476Y-85129714D01*
X167894095Y-84939238D01*
X167989333Y-84844000D01*
X168084571Y-84796380D01*
X168275047Y-84796380D01*
X168370285Y-84844000D01*
X168465523Y-84939238D01*
X168513142Y-85129714D01*
X168513142Y-85463047D01*
X168465523Y-85653523D01*
X168370285Y-85748761D01*
X168275047Y-85796380D01*
X168084571Y-85796380D01*
X168894095Y-84891619D02*
X168941714Y-84844000D01*
X169036952Y-84796380D01*
X169275047Y-84796380D01*
X169370285Y-84844000D01*
X169417904Y-84891619D01*
X169465523Y-84986857D01*
X169465523Y-85082095D01*
X169417904Y-85224952D01*
X168846476Y-85796380D01*
X169465523Y-85796380D01*
%TO.C,Q1*%
X163988761Y-86018619D02*
X163893523Y-85971000D01*
X163798285Y-85875761D01*
X163655428Y-85732904D01*
X163560190Y-85685285D01*
X163464952Y-85685285D01*
X163512571Y-85923380D02*
X163417333Y-85875761D01*
X163322095Y-85780523D01*
X163274476Y-85590047D01*
X163274476Y-85256714D01*
X163322095Y-85066238D01*
X163417333Y-84971000D01*
X163512571Y-84923380D01*
X163703047Y-84923380D01*
X163798285Y-84971000D01*
X163893523Y-85066238D01*
X163941142Y-85256714D01*
X163941142Y-85590047D01*
X163893523Y-85780523D01*
X163798285Y-85875761D01*
X163703047Y-85923380D01*
X163512571Y-85923380D01*
X164893523Y-85923380D02*
X164322095Y-85923380D01*
X164607809Y-85923380D02*
X164607809Y-84923380D01*
X164512571Y-85066238D01*
X164417333Y-85161476D01*
X164322095Y-85209095D01*
%TO.C,J3*%
X181530666Y-69556380D02*
X181530666Y-70270666D01*
X181483047Y-70413523D01*
X181387809Y-70508761D01*
X181244952Y-70556380D01*
X181149714Y-70556380D01*
X181911619Y-69556380D02*
X182530666Y-69556380D01*
X182197333Y-69937333D01*
X182340190Y-69937333D01*
X182435428Y-69984952D01*
X182483047Y-70032571D01*
X182530666Y-70127809D01*
X182530666Y-70365904D01*
X182483047Y-70461142D01*
X182435428Y-70508761D01*
X182340190Y-70556380D01*
X182054476Y-70556380D01*
X181959238Y-70508761D01*
X181911619Y-70461142D01*
%TO.C,J2*%
X167814666Y-69556380D02*
X167814666Y-70270666D01*
X167767047Y-70413523D01*
X167671809Y-70508761D01*
X167528952Y-70556380D01*
X167433714Y-70556380D01*
X168243238Y-69651619D02*
X168290857Y-69604000D01*
X168386095Y-69556380D01*
X168624190Y-69556380D01*
X168719428Y-69604000D01*
X168767047Y-69651619D01*
X168814666Y-69746857D01*
X168814666Y-69842095D01*
X168767047Y-69984952D01*
X168195619Y-70556380D01*
X168814666Y-70556380D01*
%TO.C,J1*%
X128571666Y-86828380D02*
X128571666Y-87542666D01*
X128524047Y-87685523D01*
X128428809Y-87780761D01*
X128285952Y-87828380D01*
X128190714Y-87828380D01*
X129571666Y-87828380D02*
X129000238Y-87828380D01*
X129285952Y-87828380D02*
X129285952Y-86828380D01*
X129190714Y-86971238D01*
X129095476Y-87066476D01*
X129000238Y-87114095D01*
%TO.C,C2*%
X147788333Y-97004142D02*
X147740714Y-97051761D01*
X147597857Y-97099380D01*
X147502619Y-97099380D01*
X147359761Y-97051761D01*
X147264523Y-96956523D01*
X147216904Y-96861285D01*
X147169285Y-96670809D01*
X147169285Y-96527952D01*
X147216904Y-96337476D01*
X147264523Y-96242238D01*
X147359761Y-96147000D01*
X147502619Y-96099380D01*
X147597857Y-96099380D01*
X147740714Y-96147000D01*
X147788333Y-96194619D01*
X148169285Y-96194619D02*
X148216904Y-96147000D01*
X148312142Y-96099380D01*
X148550238Y-96099380D01*
X148645476Y-96147000D01*
X148693095Y-96194619D01*
X148740714Y-96289857D01*
X148740714Y-96385095D01*
X148693095Y-96527952D01*
X148121666Y-97099380D01*
X148740714Y-97099380D01*
%TO.C,C1*%
X162282142Y-86907666D02*
X162329761Y-86955285D01*
X162377380Y-87098142D01*
X162377380Y-87193380D01*
X162329761Y-87336238D01*
X162234523Y-87431476D01*
X162139285Y-87479095D01*
X161948809Y-87526714D01*
X161805952Y-87526714D01*
X161615476Y-87479095D01*
X161520238Y-87431476D01*
X161425000Y-87336238D01*
X161377380Y-87193380D01*
X161377380Y-87098142D01*
X161425000Y-86955285D01*
X161472619Y-86907666D01*
X162377380Y-85955285D02*
X162377380Y-86526714D01*
X162377380Y-86241000D02*
X161377380Y-86241000D01*
X161520238Y-86336238D01*
X161615476Y-86431476D01*
X161663095Y-86526714D01*
%TD*%
M02*
