%TF.GenerationSoftware,KiCad,Pcbnew,5.1.7-a382d34a8~88~ubuntu18.04.1*%
%TF.CreationDate,2021-02-25T09:43:27-05:00*%
%TF.ProjectId,TSAL,5453414c-2e6b-4696-9361-645f70636258,rev?*%
%TF.SameCoordinates,Original*%
%TF.FileFunction,Copper,L1,Top*%
%TF.FilePolarity,Positive*%
%FSLAX46Y46*%
G04 Gerber Fmt 4.6, Leading zero omitted, Abs format (unit mm)*
G04 Created by KiCad (PCBNEW 5.1.7-a382d34a8~88~ubuntu18.04.1) date 2021-02-25 09:43:27*
%MOMM*%
%LPD*%
G01*
G04 APERTURE LIST*
%TA.AperFunction,SMDPad,CuDef*%
%ADD10R,1.780000X2.000000*%
%TD*%
%TA.AperFunction,ComponentPad*%
%ADD11O,2.400000X2.400000*%
%TD*%
%TA.AperFunction,ComponentPad*%
%ADD12C,2.400000*%
%TD*%
%TA.AperFunction,SMDPad,CuDef*%
%ADD13R,6.400000X5.800000*%
%TD*%
%TA.AperFunction,SMDPad,CuDef*%
%ADD14R,2.200000X1.200000*%
%TD*%
%TA.AperFunction,SMDPad,CuDef*%
%ADD15R,5.800000X6.400000*%
%TD*%
%TA.AperFunction,SMDPad,CuDef*%
%ADD16R,1.200000X2.200000*%
%TD*%
%TA.AperFunction,ComponentPad*%
%ADD17O,3.300000X2.640000*%
%TD*%
%TA.AperFunction,ComponentPad*%
%ADD18O,2.800000X2.460000*%
%TD*%
%TA.AperFunction,ViaPad*%
%ADD19C,0.800000*%
%TD*%
%TA.AperFunction,Conductor*%
%ADD20C,0.360000*%
%TD*%
%TA.AperFunction,Conductor*%
%ADD21C,1.600000*%
%TD*%
%TA.AperFunction,Conductor*%
%ADD22C,1.200000*%
%TD*%
%TA.AperFunction,Conductor*%
%ADD23C,0.254000*%
%TD*%
%TA.AperFunction,Conductor*%
%ADD24C,0.100000*%
%TD*%
G04 APERTURE END LIST*
%TO.P,C3,2*%
%TO.N,GND*%
%TA.AperFunction,SMDPad,CuDef*%
G36*
G01*
X153780500Y-88818000D02*
X153305500Y-88818000D01*
G75*
G02*
X153068000Y-88580500I0J237500D01*
G01*
X153068000Y-88005500D01*
G75*
G02*
X153305500Y-87768000I237500J0D01*
G01*
X153780500Y-87768000D01*
G75*
G02*
X154018000Y-88005500I0J-237500D01*
G01*
X154018000Y-88580500D01*
G75*
G02*
X153780500Y-88818000I-237500J0D01*
G01*
G37*
%TD.AperFunction*%
%TO.P,C3,1*%
%TO.N,VCC*%
%TA.AperFunction,SMDPad,CuDef*%
G36*
G01*
X153780500Y-90568000D02*
X153305500Y-90568000D01*
G75*
G02*
X153068000Y-90330500I0J237500D01*
G01*
X153068000Y-89755500D01*
G75*
G02*
X153305500Y-89518000I237500J0D01*
G01*
X153780500Y-89518000D01*
G75*
G02*
X154018000Y-89755500I0J-237500D01*
G01*
X154018000Y-90330500D01*
G75*
G02*
X153780500Y-90568000I-237500J0D01*
G01*
G37*
%TD.AperFunction*%
%TD*%
%TO.P,U2,8*%
%TO.N,VCC*%
%TA.AperFunction,SMDPad,CuDef*%
G36*
G01*
X155725000Y-91780000D02*
X155425000Y-91780000D01*
G75*
G02*
X155275000Y-91630000I0J150000D01*
G01*
X155275000Y-89980000D01*
G75*
G02*
X155425000Y-89830000I150000J0D01*
G01*
X155725000Y-89830000D01*
G75*
G02*
X155875000Y-89980000I0J-150000D01*
G01*
X155875000Y-91630000D01*
G75*
G02*
X155725000Y-91780000I-150000J0D01*
G01*
G37*
%TD.AperFunction*%
%TO.P,U2,7*%
%TO.N,Net-(R3-Pad2)*%
%TA.AperFunction,SMDPad,CuDef*%
G36*
G01*
X156995000Y-91780000D02*
X156695000Y-91780000D01*
G75*
G02*
X156545000Y-91630000I0J150000D01*
G01*
X156545000Y-89980000D01*
G75*
G02*
X156695000Y-89830000I150000J0D01*
G01*
X156995000Y-89830000D01*
G75*
G02*
X157145000Y-89980000I0J-150000D01*
G01*
X157145000Y-91630000D01*
G75*
G02*
X156995000Y-91780000I-150000J0D01*
G01*
G37*
%TD.AperFunction*%
%TO.P,U2,6*%
%TO.N,/pass*%
%TA.AperFunction,SMDPad,CuDef*%
G36*
G01*
X158265000Y-91780000D02*
X157965000Y-91780000D01*
G75*
G02*
X157815000Y-91630000I0J150000D01*
G01*
X157815000Y-89980000D01*
G75*
G02*
X157965000Y-89830000I150000J0D01*
G01*
X158265000Y-89830000D01*
G75*
G02*
X158415000Y-89980000I0J-150000D01*
G01*
X158415000Y-91630000D01*
G75*
G02*
X158265000Y-91780000I-150000J0D01*
G01*
G37*
%TD.AperFunction*%
%TO.P,U2,5*%
%TO.N,Net-(C1-Pad1)*%
%TA.AperFunction,SMDPad,CuDef*%
G36*
G01*
X159535000Y-91780000D02*
X159235000Y-91780000D01*
G75*
G02*
X159085000Y-91630000I0J150000D01*
G01*
X159085000Y-89980000D01*
G75*
G02*
X159235000Y-89830000I150000J0D01*
G01*
X159535000Y-89830000D01*
G75*
G02*
X159685000Y-89980000I0J-150000D01*
G01*
X159685000Y-91630000D01*
G75*
G02*
X159535000Y-91780000I-150000J0D01*
G01*
G37*
%TD.AperFunction*%
%TO.P,U2,4*%
%TO.N,VCC*%
%TA.AperFunction,SMDPad,CuDef*%
G36*
G01*
X159535000Y-96730000D02*
X159235000Y-96730000D01*
G75*
G02*
X159085000Y-96580000I0J150000D01*
G01*
X159085000Y-94930000D01*
G75*
G02*
X159235000Y-94780000I150000J0D01*
G01*
X159535000Y-94780000D01*
G75*
G02*
X159685000Y-94930000I0J-150000D01*
G01*
X159685000Y-96580000D01*
G75*
G02*
X159535000Y-96730000I-150000J0D01*
G01*
G37*
%TD.AperFunction*%
%TO.P,U2,3*%
%TO.N,/555_OUT*%
%TA.AperFunction,SMDPad,CuDef*%
G36*
G01*
X158265000Y-96730000D02*
X157965000Y-96730000D01*
G75*
G02*
X157815000Y-96580000I0J150000D01*
G01*
X157815000Y-94930000D01*
G75*
G02*
X157965000Y-94780000I150000J0D01*
G01*
X158265000Y-94780000D01*
G75*
G02*
X158415000Y-94930000I0J-150000D01*
G01*
X158415000Y-96580000D01*
G75*
G02*
X158265000Y-96730000I-150000J0D01*
G01*
G37*
%TD.AperFunction*%
%TO.P,U2,2*%
%TO.N,/pass*%
%TA.AperFunction,SMDPad,CuDef*%
G36*
G01*
X156995000Y-96730000D02*
X156695000Y-96730000D01*
G75*
G02*
X156545000Y-96580000I0J150000D01*
G01*
X156545000Y-94930000D01*
G75*
G02*
X156695000Y-94780000I150000J0D01*
G01*
X156995000Y-94780000D01*
G75*
G02*
X157145000Y-94930000I0J-150000D01*
G01*
X157145000Y-96580000D01*
G75*
G02*
X156995000Y-96730000I-150000J0D01*
G01*
G37*
%TD.AperFunction*%
%TO.P,U2,1*%
%TO.N,GND*%
%TA.AperFunction,SMDPad,CuDef*%
G36*
G01*
X155725000Y-96730000D02*
X155425000Y-96730000D01*
G75*
G02*
X155275000Y-96580000I0J150000D01*
G01*
X155275000Y-94930000D01*
G75*
G02*
X155425000Y-94780000I150000J0D01*
G01*
X155725000Y-94780000D01*
G75*
G02*
X155875000Y-94930000I0J-150000D01*
G01*
X155875000Y-96580000D01*
G75*
G02*
X155725000Y-96730000I-150000J0D01*
G01*
G37*
%TD.AperFunction*%
%TD*%
D10*
%TO.P,U1,4*%
%TO.N,+12V*%
X158750000Y-86360000D03*
%TO.P,U1,2*%
%TO.N,/HV-*%
X156210000Y-76830000D03*
%TO.P,U1,3*%
%TO.N,VCC*%
X156210000Y-86360000D03*
%TO.P,U1,1*%
%TO.N,Net-(R1-Pad1)*%
X158750000Y-76830000D03*
%TD*%
%TO.P,R6,2*%
%TO.N,Net-(Q1-Pad1)*%
%TA.AperFunction,SMDPad,CuDef*%
G36*
G01*
X175133500Y-93824999D02*
X175133500Y-96675001D01*
G75*
G02*
X174883501Y-96925000I-249999J0D01*
G01*
X173858499Y-96925000D01*
G75*
G02*
X173608500Y-96675001I0J249999D01*
G01*
X173608500Y-93824999D01*
G75*
G02*
X173858499Y-93575000I249999J0D01*
G01*
X174883501Y-93575000D01*
G75*
G02*
X175133500Y-93824999I0J-249999D01*
G01*
G37*
%TD.AperFunction*%
%TO.P,R6,1*%
%TO.N,GND*%
%TA.AperFunction,SMDPad,CuDef*%
G36*
G01*
X181108500Y-93824999D02*
X181108500Y-96675001D01*
G75*
G02*
X180858501Y-96925000I-249999J0D01*
G01*
X179833499Y-96925000D01*
G75*
G02*
X179583500Y-96675001I0J249999D01*
G01*
X179583500Y-93824999D01*
G75*
G02*
X179833499Y-93575000I249999J0D01*
G01*
X180858501Y-93575000D01*
G75*
G02*
X181108500Y-93824999I0J-249999D01*
G01*
G37*
%TD.AperFunction*%
%TD*%
%TO.P,R5,2*%
%TO.N,/555_OUT*%
%TA.AperFunction,SMDPad,CuDef*%
G36*
G01*
X161687500Y-95600000D02*
X162162500Y-95600000D01*
G75*
G02*
X162400000Y-95837500I0J-237500D01*
G01*
X162400000Y-96412500D01*
G75*
G02*
X162162500Y-96650000I-237500J0D01*
G01*
X161687500Y-96650000D01*
G75*
G02*
X161450000Y-96412500I0J237500D01*
G01*
X161450000Y-95837500D01*
G75*
G02*
X161687500Y-95600000I237500J0D01*
G01*
G37*
%TD.AperFunction*%
%TO.P,R5,1*%
%TO.N,Net-(Q1-Pad2)*%
%TA.AperFunction,SMDPad,CuDef*%
G36*
G01*
X161687500Y-93850000D02*
X162162500Y-93850000D01*
G75*
G02*
X162400000Y-94087500I0J-237500D01*
G01*
X162400000Y-94662500D01*
G75*
G02*
X162162500Y-94900000I-237500J0D01*
G01*
X161687500Y-94900000D01*
G75*
G02*
X161450000Y-94662500I0J237500D01*
G01*
X161450000Y-94087500D01*
G75*
G02*
X161687500Y-93850000I237500J0D01*
G01*
G37*
%TD.AperFunction*%
%TD*%
%TO.P,R4,2*%
%TO.N,/pass*%
%TA.AperFunction,SMDPad,CuDef*%
G36*
G01*
X150986000Y-94344500D02*
X150986000Y-93869500D01*
G75*
G02*
X151223500Y-93632000I237500J0D01*
G01*
X151798500Y-93632000D01*
G75*
G02*
X152036000Y-93869500I0J-237500D01*
G01*
X152036000Y-94344500D01*
G75*
G02*
X151798500Y-94582000I-237500J0D01*
G01*
X151223500Y-94582000D01*
G75*
G02*
X150986000Y-94344500I0J237500D01*
G01*
G37*
%TD.AperFunction*%
%TO.P,R4,1*%
%TO.N,Net-(R3-Pad2)*%
%TA.AperFunction,SMDPad,CuDef*%
G36*
G01*
X149236000Y-94344500D02*
X149236000Y-93869500D01*
G75*
G02*
X149473500Y-93632000I237500J0D01*
G01*
X150048500Y-93632000D01*
G75*
G02*
X150286000Y-93869500I0J-237500D01*
G01*
X150286000Y-94344500D01*
G75*
G02*
X150048500Y-94582000I-237500J0D01*
G01*
X149473500Y-94582000D01*
G75*
G02*
X149236000Y-94344500I0J237500D01*
G01*
G37*
%TD.AperFunction*%
%TD*%
%TO.P,R3,2*%
%TO.N,Net-(R3-Pad2)*%
%TA.AperFunction,SMDPad,CuDef*%
G36*
G01*
X149368500Y-91296000D02*
X149843500Y-91296000D01*
G75*
G02*
X150081000Y-91533500I0J-237500D01*
G01*
X150081000Y-92108500D01*
G75*
G02*
X149843500Y-92346000I-237500J0D01*
G01*
X149368500Y-92346000D01*
G75*
G02*
X149131000Y-92108500I0J237500D01*
G01*
X149131000Y-91533500D01*
G75*
G02*
X149368500Y-91296000I237500J0D01*
G01*
G37*
%TD.AperFunction*%
%TO.P,R3,1*%
%TO.N,VCC*%
%TA.AperFunction,SMDPad,CuDef*%
G36*
G01*
X149368500Y-89546000D02*
X149843500Y-89546000D01*
G75*
G02*
X150081000Y-89783500I0J-237500D01*
G01*
X150081000Y-90358500D01*
G75*
G02*
X149843500Y-90596000I-237500J0D01*
G01*
X149368500Y-90596000D01*
G75*
G02*
X149131000Y-90358500I0J237500D01*
G01*
X149131000Y-89783500D01*
G75*
G02*
X149368500Y-89546000I237500J0D01*
G01*
G37*
%TD.AperFunction*%
%TD*%
%TO.P,R2,2*%
%TO.N,GND*%
%TA.AperFunction,SMDPad,CuDef*%
G36*
G01*
X151400500Y-91282000D02*
X151875500Y-91282000D01*
G75*
G02*
X152113000Y-91519500I0J-237500D01*
G01*
X152113000Y-92094500D01*
G75*
G02*
X151875500Y-92332000I-237500J0D01*
G01*
X151400500Y-92332000D01*
G75*
G02*
X151163000Y-92094500I0J237500D01*
G01*
X151163000Y-91519500D01*
G75*
G02*
X151400500Y-91282000I237500J0D01*
G01*
G37*
%TD.AperFunction*%
%TO.P,R2,1*%
%TO.N,VCC*%
%TA.AperFunction,SMDPad,CuDef*%
G36*
G01*
X151400500Y-89532000D02*
X151875500Y-89532000D01*
G75*
G02*
X152113000Y-89769500I0J-237500D01*
G01*
X152113000Y-90344500D01*
G75*
G02*
X151875500Y-90582000I-237500J0D01*
G01*
X151400500Y-90582000D01*
G75*
G02*
X151163000Y-90344500I0J237500D01*
G01*
X151163000Y-89769500D01*
G75*
G02*
X151400500Y-89532000I237500J0D01*
G01*
G37*
%TD.AperFunction*%
%TD*%
D11*
%TO.P,R1,2*%
%TO.N,/HV+*%
X128270000Y-71120000D03*
D12*
%TO.P,R1,1*%
%TO.N,Net-(R1-Pad1)*%
X158750000Y-71120000D03*
%TD*%
D13*
%TO.P,Q2,2*%
%TO.N,/RED_ON*%
X179519000Y-88646000D03*
D14*
%TO.P,Q2,3*%
%TO.N,Net-(Q1-Pad1)*%
X173219000Y-90926000D03*
%TO.P,Q2,2*%
%TO.N,/RED_ON*%
X173219000Y-88646000D03*
%TO.P,Q2,1*%
%TO.N,Net-(Q1-Pad2)*%
X173219000Y-86366000D03*
%TD*%
D15*
%TO.P,Q1,2*%
%TO.N,Net-(Q1-Pad2)*%
X167005000Y-93980000D03*
D16*
%TO.P,Q1,3*%
%TO.N,GND*%
X164725000Y-87680000D03*
%TO.P,Q1,2*%
%TO.N,Net-(Q1-Pad2)*%
X167005000Y-87680000D03*
%TO.P,Q1,1*%
%TO.N,Net-(Q1-Pad1)*%
X169285000Y-87680000D03*
%TD*%
D17*
%TO.P,J3,2*%
%TO.N,+12V*%
X179070000Y-74600000D03*
%TO.P,J3,1*%
%TO.N,/RED_ON*%
%TA.AperFunction,ComponentPad*%
G36*
G01*
X180720000Y-77670000D02*
X180720000Y-79810000D01*
G75*
G02*
X180470000Y-80060000I-250000J0D01*
G01*
X177670000Y-80060000D01*
G75*
G02*
X177420000Y-79810000I0J250000D01*
G01*
X177420000Y-77670000D01*
G75*
G02*
X177670000Y-77420000I250000J0D01*
G01*
X180470000Y-77420000D01*
G75*
G02*
X180720000Y-77670000I0J-250000D01*
G01*
G37*
%TD.AperFunction*%
%TD*%
%TO.P,J2,2*%
%TO.N,GND*%
X171450000Y-74600000D03*
%TO.P,J2,1*%
%TO.N,+12V*%
%TA.AperFunction,ComponentPad*%
G36*
G01*
X173100000Y-77670000D02*
X173100000Y-79810000D01*
G75*
G02*
X172850000Y-80060000I-250000J0D01*
G01*
X170050000Y-80060000D01*
G75*
G02*
X169800000Y-79810000I0J250000D01*
G01*
X169800000Y-77670000D01*
G75*
G02*
X170050000Y-77420000I250000J0D01*
G01*
X172850000Y-77420000D01*
G75*
G02*
X173100000Y-77670000I0J-250000D01*
G01*
G37*
%TD.AperFunction*%
%TD*%
D18*
%TO.P,J1,2*%
%TO.N,/HV+*%
X132080000Y-79860000D03*
%TO.P,J1,1*%
%TO.N,/HV-*%
%TA.AperFunction,ComponentPad*%
G36*
G01*
X133230001Y-85050000D02*
X130929999Y-85050000D01*
G75*
G02*
X130680000Y-84800001I0J249999D01*
G01*
X130680000Y-82839999D01*
G75*
G02*
X130929999Y-82590000I249999J0D01*
G01*
X133230001Y-82590000D01*
G75*
G02*
X133480000Y-82839999I0J-249999D01*
G01*
X133480000Y-84800001D01*
G75*
G02*
X133230001Y-85050000I-249999J0D01*
G01*
G37*
%TD.AperFunction*%
%TD*%
%TO.P,C2,2*%
%TO.N,GND*%
%TA.AperFunction,SMDPad,CuDef*%
G36*
G01*
X150272000Y-96536500D02*
X150272000Y-97011500D01*
G75*
G02*
X150034500Y-97249000I-237500J0D01*
G01*
X149459500Y-97249000D01*
G75*
G02*
X149222000Y-97011500I0J237500D01*
G01*
X149222000Y-96536500D01*
G75*
G02*
X149459500Y-96299000I237500J0D01*
G01*
X150034500Y-96299000D01*
G75*
G02*
X150272000Y-96536500I0J-237500D01*
G01*
G37*
%TD.AperFunction*%
%TO.P,C2,1*%
%TO.N,/pass*%
%TA.AperFunction,SMDPad,CuDef*%
G36*
G01*
X152022000Y-96536500D02*
X152022000Y-97011500D01*
G75*
G02*
X151784500Y-97249000I-237500J0D01*
G01*
X151209500Y-97249000D01*
G75*
G02*
X150972000Y-97011500I0J237500D01*
G01*
X150972000Y-96536500D01*
G75*
G02*
X151209500Y-96299000I237500J0D01*
G01*
X151784500Y-96299000D01*
G75*
G02*
X152022000Y-96536500I0J-237500D01*
G01*
G37*
%TD.AperFunction*%
%TD*%
%TO.P,C1,2*%
%TO.N,GND*%
%TA.AperFunction,SMDPad,CuDef*%
G36*
G01*
X162162500Y-89185000D02*
X161687500Y-89185000D01*
G75*
G02*
X161450000Y-88947500I0J237500D01*
G01*
X161450000Y-88372500D01*
G75*
G02*
X161687500Y-88135000I237500J0D01*
G01*
X162162500Y-88135000D01*
G75*
G02*
X162400000Y-88372500I0J-237500D01*
G01*
X162400000Y-88947500D01*
G75*
G02*
X162162500Y-89185000I-237500J0D01*
G01*
G37*
%TD.AperFunction*%
%TO.P,C1,1*%
%TO.N,Net-(C1-Pad1)*%
%TA.AperFunction,SMDPad,CuDef*%
G36*
G01*
X162162500Y-90935000D02*
X161687500Y-90935000D01*
G75*
G02*
X161450000Y-90697500I0J237500D01*
G01*
X161450000Y-90122500D01*
G75*
G02*
X161687500Y-89885000I237500J0D01*
G01*
X162162500Y-89885000D01*
G75*
G02*
X162400000Y-90122500I0J-237500D01*
G01*
X162400000Y-90697500D01*
G75*
G02*
X162162500Y-90935000I-237500J0D01*
G01*
G37*
%TD.AperFunction*%
%TD*%
D19*
%TO.N,GND*%
X168148000Y-82804000D03*
X166878000Y-83820000D03*
X165608000Y-84836000D03*
X160274000Y-88646000D03*
X158750000Y-88646000D03*
X156972000Y-88646000D03*
X153670000Y-91821000D03*
X151765000Y-88392000D03*
X153670000Y-96012000D03*
X182372000Y-92964000D03*
X182372000Y-94488000D03*
X182372000Y-96012000D03*
X182372000Y-97536000D03*
X171704000Y-92964000D03*
X171704000Y-94488000D03*
X171704000Y-96012000D03*
X171704000Y-97536000D03*
X177292000Y-92964000D03*
X177292000Y-94488000D03*
X177292000Y-96012000D03*
X177292000Y-97536000D03*
X149860000Y-88392000D03*
%TO.N,/pass*%
X158115000Y-92710000D03*
X153035000Y-94234000D03*
%TO.N,Net-(R3-Pad2)*%
X152654000Y-92964000D03*
X156355000Y-92964000D03*
%TD*%
D20*
%TO.N,Net-(C1-Pad1)*%
X161530000Y-90805000D02*
X161925000Y-90410000D01*
X159385000Y-90805000D02*
X161530000Y-90805000D01*
%TO.N,/pass*%
X151497000Y-94121000D02*
X151511000Y-94107000D01*
X151497000Y-96774000D02*
X151497000Y-94121000D01*
X151497000Y-96774000D02*
X152726598Y-96774000D01*
X152726598Y-96774000D02*
X153669183Y-97716586D01*
X153669183Y-97716586D02*
X156312788Y-97687212D01*
X156845000Y-97155000D02*
X156845000Y-95755000D01*
X156312788Y-97687212D02*
X156845000Y-97155000D01*
X158115000Y-90805000D02*
X158115000Y-92710000D01*
X151638000Y-94234000D02*
X151511000Y-94107000D01*
X153035000Y-94234000D02*
X151638000Y-94234000D01*
D21*
%TO.N,/HV+*%
X128270000Y-71120000D02*
X132080000Y-74930000D01*
X132080000Y-74930000D02*
X132080000Y-79860000D01*
%TO.N,/HV-*%
X141610000Y-76830000D02*
X156210000Y-76830000D01*
X132080000Y-83820000D02*
X134620000Y-83820000D01*
X134620000Y-83820000D02*
X141610000Y-76830000D01*
%TO.N,/RED_ON*%
X173219000Y-88646000D02*
X179519000Y-88646000D01*
D22*
%TO.N,Net-(Q1-Pad1)*%
X169285000Y-87680000D02*
X169285000Y-88513000D01*
X171698000Y-90926000D02*
X173219000Y-90926000D01*
X169285000Y-88513000D02*
X171698000Y-90926000D01*
X173219000Y-90926000D02*
X173219000Y-91939000D01*
X174371000Y-93091000D02*
X174371000Y-95250000D01*
X173219000Y-91939000D02*
X174371000Y-93091000D01*
D21*
%TO.N,Net-(R1-Pad1)*%
X158750000Y-76830000D02*
X158750000Y-71120000D01*
D20*
%TO.N,VCC*%
X159385000Y-94780000D02*
X158585000Y-93980000D01*
X159385000Y-95755000D02*
X159385000Y-94780000D01*
X158585000Y-93980000D02*
X156210000Y-93980000D01*
X155575000Y-93345000D02*
X155575000Y-90805000D01*
X156210000Y-93980000D02*
X155575000Y-93345000D01*
X156210000Y-87630000D02*
X156210000Y-86360000D01*
X155575000Y-90805000D02*
X155575000Y-88265000D01*
X155575000Y-88265000D02*
X156210000Y-87630000D01*
X154305000Y-90043000D02*
X153543000Y-90043000D01*
X154686000Y-89662000D02*
X154305000Y-90043000D01*
X155575000Y-88265000D02*
X154686000Y-89154000D01*
X154686000Y-89154000D02*
X154686000Y-89662000D01*
X151652000Y-90043000D02*
X151638000Y-90057000D01*
X153543000Y-90043000D02*
X151652000Y-90043000D01*
X149620000Y-90057000D02*
X149606000Y-90071000D01*
X151638000Y-90057000D02*
X149620000Y-90057000D01*
%TO.N,Net-(R3-Pad2)*%
X149606000Y-93952000D02*
X149761000Y-94107000D01*
X149606000Y-91821000D02*
X149606000Y-93952000D01*
X149606000Y-91821000D02*
X149606000Y-92456000D01*
X149606000Y-92456000D02*
X150114000Y-92964000D01*
X150114000Y-92964000D02*
X152654000Y-92964000D01*
X156355000Y-92964000D02*
X156863000Y-92456000D01*
X156863000Y-90823000D02*
X156845000Y-90805000D01*
X156863000Y-92456000D02*
X156863000Y-90823000D01*
D21*
%TO.N,+12V*%
X179070000Y-74600000D02*
X176860000Y-74600000D01*
X176860000Y-74600000D02*
X175260000Y-76200000D01*
X175260000Y-76200000D02*
X175260000Y-77470000D01*
X173990000Y-78740000D02*
X171450000Y-78740000D01*
X175260000Y-77470000D02*
X173990000Y-78740000D01*
X169152863Y-78740000D02*
X171450000Y-78740000D01*
X158750000Y-86360000D02*
X161532863Y-86360000D01*
X161532863Y-86360000D02*
X169152863Y-78740000D01*
%TO.N,Net-(Q1-Pad2)*%
X166610000Y-94375000D02*
X167005000Y-93980000D01*
X161925000Y-94375000D02*
X166610000Y-94375000D01*
X167005000Y-87680000D02*
X167005000Y-93980000D01*
X167005000Y-87680000D02*
X167005000Y-86360000D01*
X167005000Y-86360000D02*
X169545000Y-83820000D01*
X169545000Y-83820000D02*
X172085000Y-83820000D01*
X173219000Y-84954000D02*
X173219000Y-86366000D01*
X172085000Y-83820000D02*
X173219000Y-84954000D01*
D20*
%TO.N,/555_OUT*%
X161925000Y-96365000D02*
X161445000Y-96365000D01*
X161445000Y-96365000D02*
X160165597Y-97644403D01*
X160165597Y-97644403D02*
X158748557Y-97660148D01*
X158115000Y-97026591D02*
X158115000Y-95755000D01*
X158748557Y-97660148D02*
X158115000Y-97026591D01*
%TD*%
D23*
%TO.N,/RED_ON*%
X183003000Y-76956502D02*
X183003001Y-91942487D01*
X174680643Y-91852999D01*
X174725885Y-91797872D01*
X174771106Y-91713268D01*
X174798953Y-91621469D01*
X174808356Y-91526000D01*
X174808356Y-90326000D01*
X174798953Y-90230531D01*
X174771106Y-90138732D01*
X174725885Y-90054128D01*
X174665027Y-89979973D01*
X174590872Y-89919115D01*
X174506268Y-89873894D01*
X174414469Y-89846047D01*
X174319000Y-89836644D01*
X173248475Y-89836644D01*
X173219000Y-89833741D01*
X173189525Y-89836644D01*
X172145894Y-89836644D01*
X171831000Y-89521750D01*
X171831000Y-87359649D01*
X171847128Y-87372885D01*
X171931732Y-87418106D01*
X172023531Y-87445953D01*
X172119000Y-87455356D01*
X172526859Y-87455356D01*
X172724104Y-87560786D01*
X172966705Y-87634378D01*
X173219000Y-87659227D01*
X173471296Y-87634378D01*
X173713897Y-87560786D01*
X173911142Y-87455356D01*
X174319000Y-87455356D01*
X174414469Y-87445953D01*
X174506268Y-87418106D01*
X174590872Y-87372885D01*
X174665027Y-87312027D01*
X174725885Y-87237872D01*
X174771106Y-87153268D01*
X174798953Y-87061469D01*
X174808356Y-86966000D01*
X174808356Y-85766000D01*
X174798953Y-85670531D01*
X174771106Y-85578732D01*
X174725885Y-85494128D01*
X174665027Y-85419973D01*
X174590872Y-85359115D01*
X174506268Y-85313894D01*
X174506000Y-85313813D01*
X174506000Y-85017220D01*
X174512227Y-84953999D01*
X174506000Y-84890776D01*
X174487378Y-84701704D01*
X174413786Y-84459103D01*
X174294279Y-84235522D01*
X174133450Y-84039550D01*
X174084339Y-83999246D01*
X173039759Y-82954667D01*
X172999450Y-82905550D01*
X172803478Y-82744721D01*
X172579897Y-82625214D01*
X172337296Y-82551622D01*
X172148224Y-82533000D01*
X172148221Y-82533000D01*
X172085000Y-82526773D01*
X172021779Y-82533000D01*
X171831000Y-82533000D01*
X171831000Y-80549356D01*
X172850000Y-80549356D01*
X172994241Y-80535149D01*
X173132939Y-80493076D01*
X173260764Y-80424752D01*
X173372804Y-80332804D01*
X173464752Y-80220764D01*
X173533076Y-80092939D01*
X173553078Y-80027000D01*
X173926779Y-80027000D01*
X173990000Y-80033227D01*
X174053221Y-80027000D01*
X174053224Y-80027000D01*
X174242296Y-80008378D01*
X174484897Y-79934786D01*
X174708478Y-79815279D01*
X174904450Y-79654450D01*
X174944759Y-79605333D01*
X176125338Y-78424755D01*
X176174450Y-78384450D01*
X176335279Y-78188478D01*
X176454786Y-77964897D01*
X176528378Y-77722296D01*
X176547000Y-77533224D01*
X176547000Y-77533222D01*
X176553227Y-77470001D01*
X176547000Y-77406780D01*
X176547000Y-76887083D01*
X183003000Y-76956502D01*
%TA.AperFunction,Conductor*%
D24*
G36*
X183003000Y-76956502D02*
G01*
X183003001Y-91942487D01*
X174680643Y-91852999D01*
X174725885Y-91797872D01*
X174771106Y-91713268D01*
X174798953Y-91621469D01*
X174808356Y-91526000D01*
X174808356Y-90326000D01*
X174798953Y-90230531D01*
X174771106Y-90138732D01*
X174725885Y-90054128D01*
X174665027Y-89979973D01*
X174590872Y-89919115D01*
X174506268Y-89873894D01*
X174414469Y-89846047D01*
X174319000Y-89836644D01*
X173248475Y-89836644D01*
X173219000Y-89833741D01*
X173189525Y-89836644D01*
X172145894Y-89836644D01*
X171831000Y-89521750D01*
X171831000Y-87359649D01*
X171847128Y-87372885D01*
X171931732Y-87418106D01*
X172023531Y-87445953D01*
X172119000Y-87455356D01*
X172526859Y-87455356D01*
X172724104Y-87560786D01*
X172966705Y-87634378D01*
X173219000Y-87659227D01*
X173471296Y-87634378D01*
X173713897Y-87560786D01*
X173911142Y-87455356D01*
X174319000Y-87455356D01*
X174414469Y-87445953D01*
X174506268Y-87418106D01*
X174590872Y-87372885D01*
X174665027Y-87312027D01*
X174725885Y-87237872D01*
X174771106Y-87153268D01*
X174798953Y-87061469D01*
X174808356Y-86966000D01*
X174808356Y-85766000D01*
X174798953Y-85670531D01*
X174771106Y-85578732D01*
X174725885Y-85494128D01*
X174665027Y-85419973D01*
X174590872Y-85359115D01*
X174506268Y-85313894D01*
X174506000Y-85313813D01*
X174506000Y-85017220D01*
X174512227Y-84953999D01*
X174506000Y-84890776D01*
X174487378Y-84701704D01*
X174413786Y-84459103D01*
X174294279Y-84235522D01*
X174133450Y-84039550D01*
X174084339Y-83999246D01*
X173039759Y-82954667D01*
X172999450Y-82905550D01*
X172803478Y-82744721D01*
X172579897Y-82625214D01*
X172337296Y-82551622D01*
X172148224Y-82533000D01*
X172148221Y-82533000D01*
X172085000Y-82526773D01*
X172021779Y-82533000D01*
X171831000Y-82533000D01*
X171831000Y-80549356D01*
X172850000Y-80549356D01*
X172994241Y-80535149D01*
X173132939Y-80493076D01*
X173260764Y-80424752D01*
X173372804Y-80332804D01*
X173464752Y-80220764D01*
X173533076Y-80092939D01*
X173553078Y-80027000D01*
X173926779Y-80027000D01*
X173990000Y-80033227D01*
X174053221Y-80027000D01*
X174053224Y-80027000D01*
X174242296Y-80008378D01*
X174484897Y-79934786D01*
X174708478Y-79815279D01*
X174904450Y-79654450D01*
X174944759Y-79605333D01*
X176125338Y-78424755D01*
X176174450Y-78384450D01*
X176335279Y-78188478D01*
X176454786Y-77964897D01*
X176528378Y-77722296D01*
X176547000Y-77533224D01*
X176547000Y-77533222D01*
X176553227Y-77470001D01*
X176547000Y-77406780D01*
X176547000Y-76887083D01*
X183003000Y-76956502D01*
G37*
%TD.AperFunction*%
%TD*%
D23*
%TO.N,GND*%
X170891616Y-91656866D02*
X170925656Y-91698344D01*
X170994365Y-91754732D01*
X171091172Y-91834180D01*
X171166926Y-91874671D01*
X171217000Y-91901436D01*
X171217000Y-91948000D01*
X171225364Y-92037868D01*
X171252093Y-92129518D01*
X171296189Y-92214193D01*
X171355956Y-92288639D01*
X171429099Y-92349993D01*
X171512806Y-92395899D01*
X171603861Y-92424593D01*
X171698764Y-92434972D01*
X172254763Y-92440950D01*
X172310820Y-92545827D01*
X172348419Y-92591641D01*
X172446657Y-92711344D01*
X172488135Y-92745384D01*
X173213526Y-93470776D01*
X173175424Y-93542060D01*
X173133350Y-93680758D01*
X173119144Y-93824999D01*
X173119144Y-96675001D01*
X173133350Y-96819242D01*
X173175424Y-96957940D01*
X173243748Y-97085765D01*
X173335696Y-97197804D01*
X173447735Y-97289752D01*
X173575560Y-97358076D01*
X173714258Y-97400150D01*
X173858499Y-97414356D01*
X174883501Y-97414356D01*
X175027742Y-97400150D01*
X175166440Y-97358076D01*
X175294265Y-97289752D01*
X175406304Y-97197804D01*
X175498252Y-97085765D01*
X175566576Y-96957940D01*
X175576568Y-96925000D01*
X178852982Y-96925000D01*
X178867019Y-97067517D01*
X178908589Y-97204557D01*
X178976096Y-97330854D01*
X179066946Y-97441554D01*
X179177646Y-97532404D01*
X179303943Y-97599911D01*
X179440983Y-97641481D01*
X179583500Y-97655518D01*
X179991250Y-97652000D01*
X180173000Y-97470250D01*
X180173000Y-95423000D01*
X180519000Y-95423000D01*
X180519000Y-97470250D01*
X180700750Y-97652000D01*
X181108500Y-97655518D01*
X181251017Y-97641481D01*
X181388057Y-97599911D01*
X181514354Y-97532404D01*
X181625054Y-97441554D01*
X181715904Y-97330854D01*
X181783411Y-97204557D01*
X181824981Y-97067517D01*
X181839018Y-96925000D01*
X181835500Y-95604750D01*
X181653750Y-95423000D01*
X180519000Y-95423000D01*
X180173000Y-95423000D01*
X179038250Y-95423000D01*
X178856500Y-95604750D01*
X178852982Y-96925000D01*
X175576568Y-96925000D01*
X175608650Y-96819242D01*
X175622856Y-96675001D01*
X175622856Y-93824999D01*
X175608650Y-93680758D01*
X175576569Y-93575000D01*
X178852982Y-93575000D01*
X178856500Y-94895250D01*
X179038250Y-95077000D01*
X180173000Y-95077000D01*
X180173000Y-93029750D01*
X180519000Y-93029750D01*
X180519000Y-95077000D01*
X181653750Y-95077000D01*
X181835500Y-94895250D01*
X181839018Y-93575000D01*
X181824981Y-93432483D01*
X181783411Y-93295443D01*
X181715904Y-93169146D01*
X181625054Y-93058446D01*
X181514354Y-92967596D01*
X181388057Y-92900089D01*
X181251017Y-92858519D01*
X181108500Y-92844482D01*
X180700750Y-92848000D01*
X180519000Y-93029750D01*
X180173000Y-93029750D01*
X179991250Y-92848000D01*
X179583500Y-92844482D01*
X179440983Y-92858519D01*
X179303943Y-92900089D01*
X179177646Y-92967596D01*
X179066946Y-93058446D01*
X178976096Y-93169146D01*
X178908589Y-93295443D01*
X178867019Y-93432483D01*
X178852982Y-93575000D01*
X175576569Y-93575000D01*
X175566576Y-93542060D01*
X175498252Y-93414235D01*
X175458000Y-93365188D01*
X175458000Y-93144393D01*
X175463259Y-93090999D01*
X175457375Y-93031259D01*
X175442272Y-92877911D01*
X175380116Y-92673011D01*
X175333131Y-92585108D01*
X175279180Y-92484172D01*
X175270320Y-92473376D01*
X183003001Y-92556523D01*
X183003001Y-97913000D01*
X160840279Y-97913000D01*
X161620520Y-97132759D01*
X161687500Y-97139356D01*
X162162500Y-97139356D01*
X162304303Y-97125390D01*
X162440656Y-97084027D01*
X162566320Y-97016859D01*
X162676465Y-96926465D01*
X162766859Y-96816320D01*
X162834027Y-96690656D01*
X162875390Y-96554303D01*
X162889356Y-96412500D01*
X162889356Y-95837500D01*
X162875390Y-95695697D01*
X162865168Y-95662000D01*
X163615644Y-95662000D01*
X163615644Y-97180000D01*
X163625047Y-97275469D01*
X163652894Y-97367268D01*
X163698115Y-97451872D01*
X163758973Y-97526027D01*
X163833128Y-97586885D01*
X163917732Y-97632106D01*
X164009531Y-97659953D01*
X164105000Y-97669356D01*
X169905000Y-97669356D01*
X170000469Y-97659953D01*
X170092268Y-97632106D01*
X170176872Y-97586885D01*
X170251027Y-97526027D01*
X170311885Y-97451872D01*
X170357106Y-97367268D01*
X170384953Y-97275469D01*
X170394356Y-97180000D01*
X170394356Y-91159606D01*
X170891616Y-91656866D01*
%TA.AperFunction,Conductor*%
D24*
G36*
X170891616Y-91656866D02*
G01*
X170925656Y-91698344D01*
X170994365Y-91754732D01*
X171091172Y-91834180D01*
X171166926Y-91874671D01*
X171217000Y-91901436D01*
X171217000Y-91948000D01*
X171225364Y-92037868D01*
X171252093Y-92129518D01*
X171296189Y-92214193D01*
X171355956Y-92288639D01*
X171429099Y-92349993D01*
X171512806Y-92395899D01*
X171603861Y-92424593D01*
X171698764Y-92434972D01*
X172254763Y-92440950D01*
X172310820Y-92545827D01*
X172348419Y-92591641D01*
X172446657Y-92711344D01*
X172488135Y-92745384D01*
X173213526Y-93470776D01*
X173175424Y-93542060D01*
X173133350Y-93680758D01*
X173119144Y-93824999D01*
X173119144Y-96675001D01*
X173133350Y-96819242D01*
X173175424Y-96957940D01*
X173243748Y-97085765D01*
X173335696Y-97197804D01*
X173447735Y-97289752D01*
X173575560Y-97358076D01*
X173714258Y-97400150D01*
X173858499Y-97414356D01*
X174883501Y-97414356D01*
X175027742Y-97400150D01*
X175166440Y-97358076D01*
X175294265Y-97289752D01*
X175406304Y-97197804D01*
X175498252Y-97085765D01*
X175566576Y-96957940D01*
X175576568Y-96925000D01*
X178852982Y-96925000D01*
X178867019Y-97067517D01*
X178908589Y-97204557D01*
X178976096Y-97330854D01*
X179066946Y-97441554D01*
X179177646Y-97532404D01*
X179303943Y-97599911D01*
X179440983Y-97641481D01*
X179583500Y-97655518D01*
X179991250Y-97652000D01*
X180173000Y-97470250D01*
X180173000Y-95423000D01*
X180519000Y-95423000D01*
X180519000Y-97470250D01*
X180700750Y-97652000D01*
X181108500Y-97655518D01*
X181251017Y-97641481D01*
X181388057Y-97599911D01*
X181514354Y-97532404D01*
X181625054Y-97441554D01*
X181715904Y-97330854D01*
X181783411Y-97204557D01*
X181824981Y-97067517D01*
X181839018Y-96925000D01*
X181835500Y-95604750D01*
X181653750Y-95423000D01*
X180519000Y-95423000D01*
X180173000Y-95423000D01*
X179038250Y-95423000D01*
X178856500Y-95604750D01*
X178852982Y-96925000D01*
X175576568Y-96925000D01*
X175608650Y-96819242D01*
X175622856Y-96675001D01*
X175622856Y-93824999D01*
X175608650Y-93680758D01*
X175576569Y-93575000D01*
X178852982Y-93575000D01*
X178856500Y-94895250D01*
X179038250Y-95077000D01*
X180173000Y-95077000D01*
X180173000Y-93029750D01*
X180519000Y-93029750D01*
X180519000Y-95077000D01*
X181653750Y-95077000D01*
X181835500Y-94895250D01*
X181839018Y-93575000D01*
X181824981Y-93432483D01*
X181783411Y-93295443D01*
X181715904Y-93169146D01*
X181625054Y-93058446D01*
X181514354Y-92967596D01*
X181388057Y-92900089D01*
X181251017Y-92858519D01*
X181108500Y-92844482D01*
X180700750Y-92848000D01*
X180519000Y-93029750D01*
X180173000Y-93029750D01*
X179991250Y-92848000D01*
X179583500Y-92844482D01*
X179440983Y-92858519D01*
X179303943Y-92900089D01*
X179177646Y-92967596D01*
X179066946Y-93058446D01*
X178976096Y-93169146D01*
X178908589Y-93295443D01*
X178867019Y-93432483D01*
X178852982Y-93575000D01*
X175576569Y-93575000D01*
X175566576Y-93542060D01*
X175498252Y-93414235D01*
X175458000Y-93365188D01*
X175458000Y-93144393D01*
X175463259Y-93090999D01*
X175457375Y-93031259D01*
X175442272Y-92877911D01*
X175380116Y-92673011D01*
X175333131Y-92585108D01*
X175279180Y-92484172D01*
X175270320Y-92473376D01*
X183003001Y-92556523D01*
X183003001Y-97913000D01*
X160840279Y-97913000D01*
X161620520Y-97132759D01*
X161687500Y-97139356D01*
X162162500Y-97139356D01*
X162304303Y-97125390D01*
X162440656Y-97084027D01*
X162566320Y-97016859D01*
X162676465Y-96926465D01*
X162766859Y-96816320D01*
X162834027Y-96690656D01*
X162875390Y-96554303D01*
X162889356Y-96412500D01*
X162889356Y-95837500D01*
X162875390Y-95695697D01*
X162865168Y-95662000D01*
X163615644Y-95662000D01*
X163615644Y-97180000D01*
X163625047Y-97275469D01*
X163652894Y-97367268D01*
X163698115Y-97451872D01*
X163758973Y-97526027D01*
X163833128Y-97586885D01*
X163917732Y-97632106D01*
X164009531Y-97659953D01*
X164105000Y-97669356D01*
X169905000Y-97669356D01*
X170000469Y-97659953D01*
X170092268Y-97632106D01*
X170176872Y-97586885D01*
X170251027Y-97526027D01*
X170311885Y-97451872D01*
X170357106Y-97367268D01*
X170384953Y-97275469D01*
X170394356Y-97180000D01*
X170394356Y-91159606D01*
X170891616Y-91656866D01*
G37*
%TD.AperFunction*%
D23*
X154973973Y-85013973D02*
X154913115Y-85088128D01*
X154867894Y-85172732D01*
X154840047Y-85264531D01*
X154830644Y-85360000D01*
X154830644Y-87360000D01*
X154840047Y-87455469D01*
X154867894Y-87547268D01*
X154913115Y-87631872D01*
X154973973Y-87706027D01*
X155048128Y-87766885D01*
X155098735Y-87793934D01*
X155080196Y-87816524D01*
X154745000Y-88151721D01*
X154745000Y-88119998D01*
X154563252Y-88119998D01*
X154745000Y-87938250D01*
X154748518Y-87768000D01*
X154734481Y-87625483D01*
X154692911Y-87488443D01*
X154625404Y-87362146D01*
X154534554Y-87251446D01*
X154423854Y-87160596D01*
X154297557Y-87093089D01*
X154160517Y-87051519D01*
X154018000Y-87037482D01*
X153897750Y-87041000D01*
X153716000Y-87222750D01*
X153716000Y-88120000D01*
X153736000Y-88120000D01*
X153736000Y-88466000D01*
X153716000Y-88466000D01*
X153716000Y-88486000D01*
X153370000Y-88486000D01*
X153370000Y-88466000D01*
X152522750Y-88466000D01*
X152341000Y-88647750D01*
X152337482Y-88818000D01*
X152351519Y-88960517D01*
X152393089Y-89097557D01*
X152460596Y-89223854D01*
X152551446Y-89334554D01*
X152601948Y-89376000D01*
X152485375Y-89376000D01*
X152479859Y-89365680D01*
X152389465Y-89255535D01*
X152279320Y-89165141D01*
X152153656Y-89097973D01*
X152017303Y-89056610D01*
X151875500Y-89042644D01*
X151400500Y-89042644D01*
X151258697Y-89056610D01*
X151122344Y-89097973D01*
X150996680Y-89165141D01*
X150886535Y-89255535D01*
X150796141Y-89365680D01*
X150783142Y-89390000D01*
X150453375Y-89390000D01*
X150447859Y-89379680D01*
X150357465Y-89269535D01*
X150247320Y-89179141D01*
X150121656Y-89111973D01*
X149985303Y-89070610D01*
X149843500Y-89056644D01*
X149368500Y-89056644D01*
X149226697Y-89070610D01*
X149090344Y-89111973D01*
X148964680Y-89179141D01*
X148854535Y-89269535D01*
X148764141Y-89379680D01*
X148696973Y-89505344D01*
X148655610Y-89641697D01*
X148641644Y-89783500D01*
X148641644Y-90358500D01*
X148655610Y-90500303D01*
X148696973Y-90636656D01*
X148764141Y-90762320D01*
X148854535Y-90872465D01*
X148944137Y-90946000D01*
X148854535Y-91019535D01*
X148764141Y-91129680D01*
X148696973Y-91255344D01*
X148655610Y-91391697D01*
X148641644Y-91533500D01*
X148641644Y-92108500D01*
X148655610Y-92250303D01*
X148696973Y-92386656D01*
X148764141Y-92512320D01*
X148854535Y-92622465D01*
X148939000Y-92691784D01*
X148939001Y-93380556D01*
X148869141Y-93465680D01*
X148801973Y-93591344D01*
X148760610Y-93727697D01*
X148746644Y-93869500D01*
X148746644Y-94344500D01*
X148760610Y-94486303D01*
X148801973Y-94622656D01*
X148869141Y-94748320D01*
X148959535Y-94858465D01*
X149069680Y-94948859D01*
X149195344Y-95016027D01*
X149331697Y-95057390D01*
X149473500Y-95071356D01*
X150048500Y-95071356D01*
X150190303Y-95057390D01*
X150326656Y-95016027D01*
X150452320Y-94948859D01*
X150562465Y-94858465D01*
X150636000Y-94768863D01*
X150709535Y-94858465D01*
X150819680Y-94948859D01*
X150830001Y-94954375D01*
X150830000Y-95832948D01*
X150788554Y-95782446D01*
X150677854Y-95691596D01*
X150551557Y-95624089D01*
X150414517Y-95582519D01*
X150272000Y-95568482D01*
X150101750Y-95572000D01*
X149920000Y-95753750D01*
X149920000Y-96601000D01*
X149940000Y-96601000D01*
X149940000Y-96947000D01*
X149920000Y-96947000D01*
X149920000Y-96967000D01*
X149574000Y-96967000D01*
X149574000Y-96947000D01*
X148676750Y-96947000D01*
X148495000Y-97128750D01*
X148491482Y-97249000D01*
X148505519Y-97391517D01*
X148547089Y-97528557D01*
X148614596Y-97654854D01*
X148705446Y-97765554D01*
X148816146Y-97856404D01*
X148922030Y-97913000D01*
X148082000Y-97913000D01*
X148082000Y-96299000D01*
X148491482Y-96299000D01*
X148495000Y-96419250D01*
X148676750Y-96601000D01*
X149574000Y-96601000D01*
X149574000Y-95753750D01*
X149392250Y-95572000D01*
X149222000Y-95568482D01*
X149079483Y-95582519D01*
X148942443Y-95624089D01*
X148816146Y-95691596D01*
X148705446Y-95782446D01*
X148614596Y-95893146D01*
X148547089Y-96019443D01*
X148505519Y-96156483D01*
X148491482Y-96299000D01*
X148082000Y-96299000D01*
X148082000Y-88966123D01*
X149793604Y-87768000D01*
X152337482Y-87768000D01*
X152341000Y-87938250D01*
X152522750Y-88120000D01*
X153370000Y-88120000D01*
X153370000Y-87222750D01*
X153188250Y-87041000D01*
X153068000Y-87037482D01*
X152925483Y-87051519D01*
X152788443Y-87093089D01*
X152662146Y-87160596D01*
X152551446Y-87251446D01*
X152460596Y-87362146D01*
X152393089Y-87488443D01*
X152351519Y-87625483D01*
X152337482Y-87768000D01*
X149793604Y-87768000D01*
X153795033Y-84967000D01*
X155031209Y-84967000D01*
X154973973Y-85013973D01*
%TA.AperFunction,Conductor*%
D24*
G36*
X154973973Y-85013973D02*
G01*
X154913115Y-85088128D01*
X154867894Y-85172732D01*
X154840047Y-85264531D01*
X154830644Y-85360000D01*
X154830644Y-87360000D01*
X154840047Y-87455469D01*
X154867894Y-87547268D01*
X154913115Y-87631872D01*
X154973973Y-87706027D01*
X155048128Y-87766885D01*
X155098735Y-87793934D01*
X155080196Y-87816524D01*
X154745000Y-88151721D01*
X154745000Y-88119998D01*
X154563252Y-88119998D01*
X154745000Y-87938250D01*
X154748518Y-87768000D01*
X154734481Y-87625483D01*
X154692911Y-87488443D01*
X154625404Y-87362146D01*
X154534554Y-87251446D01*
X154423854Y-87160596D01*
X154297557Y-87093089D01*
X154160517Y-87051519D01*
X154018000Y-87037482D01*
X153897750Y-87041000D01*
X153716000Y-87222750D01*
X153716000Y-88120000D01*
X153736000Y-88120000D01*
X153736000Y-88466000D01*
X153716000Y-88466000D01*
X153716000Y-88486000D01*
X153370000Y-88486000D01*
X153370000Y-88466000D01*
X152522750Y-88466000D01*
X152341000Y-88647750D01*
X152337482Y-88818000D01*
X152351519Y-88960517D01*
X152393089Y-89097557D01*
X152460596Y-89223854D01*
X152551446Y-89334554D01*
X152601948Y-89376000D01*
X152485375Y-89376000D01*
X152479859Y-89365680D01*
X152389465Y-89255535D01*
X152279320Y-89165141D01*
X152153656Y-89097973D01*
X152017303Y-89056610D01*
X151875500Y-89042644D01*
X151400500Y-89042644D01*
X151258697Y-89056610D01*
X151122344Y-89097973D01*
X150996680Y-89165141D01*
X150886535Y-89255535D01*
X150796141Y-89365680D01*
X150783142Y-89390000D01*
X150453375Y-89390000D01*
X150447859Y-89379680D01*
X150357465Y-89269535D01*
X150247320Y-89179141D01*
X150121656Y-89111973D01*
X149985303Y-89070610D01*
X149843500Y-89056644D01*
X149368500Y-89056644D01*
X149226697Y-89070610D01*
X149090344Y-89111973D01*
X148964680Y-89179141D01*
X148854535Y-89269535D01*
X148764141Y-89379680D01*
X148696973Y-89505344D01*
X148655610Y-89641697D01*
X148641644Y-89783500D01*
X148641644Y-90358500D01*
X148655610Y-90500303D01*
X148696973Y-90636656D01*
X148764141Y-90762320D01*
X148854535Y-90872465D01*
X148944137Y-90946000D01*
X148854535Y-91019535D01*
X148764141Y-91129680D01*
X148696973Y-91255344D01*
X148655610Y-91391697D01*
X148641644Y-91533500D01*
X148641644Y-92108500D01*
X148655610Y-92250303D01*
X148696973Y-92386656D01*
X148764141Y-92512320D01*
X148854535Y-92622465D01*
X148939000Y-92691784D01*
X148939001Y-93380556D01*
X148869141Y-93465680D01*
X148801973Y-93591344D01*
X148760610Y-93727697D01*
X148746644Y-93869500D01*
X148746644Y-94344500D01*
X148760610Y-94486303D01*
X148801973Y-94622656D01*
X148869141Y-94748320D01*
X148959535Y-94858465D01*
X149069680Y-94948859D01*
X149195344Y-95016027D01*
X149331697Y-95057390D01*
X149473500Y-95071356D01*
X150048500Y-95071356D01*
X150190303Y-95057390D01*
X150326656Y-95016027D01*
X150452320Y-94948859D01*
X150562465Y-94858465D01*
X150636000Y-94768863D01*
X150709535Y-94858465D01*
X150819680Y-94948859D01*
X150830001Y-94954375D01*
X150830000Y-95832948D01*
X150788554Y-95782446D01*
X150677854Y-95691596D01*
X150551557Y-95624089D01*
X150414517Y-95582519D01*
X150272000Y-95568482D01*
X150101750Y-95572000D01*
X149920000Y-95753750D01*
X149920000Y-96601000D01*
X149940000Y-96601000D01*
X149940000Y-96947000D01*
X149920000Y-96947000D01*
X149920000Y-96967000D01*
X149574000Y-96967000D01*
X149574000Y-96947000D01*
X148676750Y-96947000D01*
X148495000Y-97128750D01*
X148491482Y-97249000D01*
X148505519Y-97391517D01*
X148547089Y-97528557D01*
X148614596Y-97654854D01*
X148705446Y-97765554D01*
X148816146Y-97856404D01*
X148922030Y-97913000D01*
X148082000Y-97913000D01*
X148082000Y-96299000D01*
X148491482Y-96299000D01*
X148495000Y-96419250D01*
X148676750Y-96601000D01*
X149574000Y-96601000D01*
X149574000Y-95753750D01*
X149392250Y-95572000D01*
X149222000Y-95568482D01*
X149079483Y-95582519D01*
X148942443Y-95624089D01*
X148816146Y-95691596D01*
X148705446Y-95782446D01*
X148614596Y-95893146D01*
X148547089Y-96019443D01*
X148505519Y-96156483D01*
X148491482Y-96299000D01*
X148082000Y-96299000D01*
X148082000Y-88966123D01*
X149793604Y-87768000D01*
X152337482Y-87768000D01*
X152341000Y-87938250D01*
X152522750Y-88120000D01*
X153370000Y-88120000D01*
X153370000Y-87222750D01*
X153188250Y-87041000D01*
X153068000Y-87037482D01*
X152925483Y-87051519D01*
X152788443Y-87093089D01*
X152662146Y-87160596D01*
X152551446Y-87251446D01*
X152460596Y-87362146D01*
X152393089Y-87488443D01*
X152351519Y-87625483D01*
X152337482Y-87768000D01*
X149793604Y-87768000D01*
X153795033Y-84967000D01*
X155031209Y-84967000D01*
X154973973Y-85013973D01*
G37*
%TD.AperFunction*%
D23*
X154785644Y-91630000D02*
X154797929Y-91754732D01*
X154834312Y-91874671D01*
X154893395Y-91985207D01*
X154908001Y-92003004D01*
X154908000Y-93312245D01*
X154904774Y-93345000D01*
X154908000Y-93377754D01*
X154908000Y-93377764D01*
X154917651Y-93475754D01*
X154947313Y-93573535D01*
X154955791Y-93601484D01*
X155017727Y-93717358D01*
X155044556Y-93750049D01*
X155101078Y-93818922D01*
X155126534Y-93839813D01*
X155401998Y-94115277D01*
X155401998Y-94234748D01*
X155220250Y-94053000D01*
X155117862Y-94066583D01*
X154981701Y-94110947D01*
X154856811Y-94181022D01*
X154747991Y-94274116D01*
X154659425Y-94386651D01*
X154594514Y-94514302D01*
X154555754Y-94652163D01*
X154544635Y-94794937D01*
X154548000Y-95400250D01*
X154729750Y-95582000D01*
X155402000Y-95582000D01*
X155402000Y-95562000D01*
X155748000Y-95562000D01*
X155748000Y-95582000D01*
X155768000Y-95582000D01*
X155768000Y-95928000D01*
X155748000Y-95928000D01*
X155748000Y-95948000D01*
X155402000Y-95948000D01*
X155402000Y-95928000D01*
X154729750Y-95928000D01*
X154548000Y-96109750D01*
X154544635Y-96715063D01*
X154555754Y-96857837D01*
X154594514Y-96995698D01*
X154616543Y-97039019D01*
X153942387Y-97046510D01*
X153221407Y-96325529D01*
X153200520Y-96300078D01*
X153098956Y-96216727D01*
X152983083Y-96154791D01*
X152857353Y-96116651D01*
X152759363Y-96107000D01*
X152759352Y-96107000D01*
X152726598Y-96103774D01*
X152693844Y-96107000D01*
X152367784Y-96107000D01*
X152298465Y-96022535D01*
X152188320Y-95932141D01*
X152164000Y-95919142D01*
X152164000Y-94969341D01*
X152202320Y-94948859D01*
X152260636Y-94901000D01*
X152447592Y-94901000D01*
X152469570Y-94922978D01*
X152614848Y-95020049D01*
X152776272Y-95086913D01*
X152947638Y-95121000D01*
X153122362Y-95121000D01*
X153293728Y-95086913D01*
X153455152Y-95020049D01*
X153600430Y-94922978D01*
X153723978Y-94799430D01*
X153821049Y-94654152D01*
X153887913Y-94492728D01*
X153922000Y-94321362D01*
X153922000Y-94146638D01*
X153887913Y-93975272D01*
X153821049Y-93813848D01*
X153723978Y-93668570D01*
X153600430Y-93545022D01*
X153455152Y-93447951D01*
X153409935Y-93429221D01*
X153440049Y-93384152D01*
X153506913Y-93222728D01*
X153541000Y-93051362D01*
X153541000Y-92876638D01*
X153506913Y-92705272D01*
X153440049Y-92543848D01*
X153342978Y-92398570D01*
X153219430Y-92275022D01*
X153074152Y-92177951D01*
X152912728Y-92111087D01*
X152758698Y-92080448D01*
X152658250Y-91980000D01*
X151811000Y-91980000D01*
X151811000Y-92000000D01*
X151465000Y-92000000D01*
X151465000Y-91980000D01*
X151445000Y-91980000D01*
X151445000Y-91634000D01*
X151465000Y-91634000D01*
X151465000Y-91614000D01*
X151811000Y-91614000D01*
X151811000Y-91634000D01*
X152658250Y-91634000D01*
X152840000Y-91452250D01*
X152843518Y-91282000D01*
X152829481Y-91139483D01*
X152787911Y-91002443D01*
X152720404Y-90876146D01*
X152629554Y-90765446D01*
X152561993Y-90710000D01*
X152688142Y-90710000D01*
X152701141Y-90734320D01*
X152791535Y-90844465D01*
X152901680Y-90934859D01*
X153027344Y-91002027D01*
X153163697Y-91043390D01*
X153305500Y-91057356D01*
X153780500Y-91057356D01*
X153922303Y-91043390D01*
X154058656Y-91002027D01*
X154184320Y-90934859D01*
X154294465Y-90844465D01*
X154384859Y-90734320D01*
X154401197Y-90703753D01*
X154435755Y-90700349D01*
X154561485Y-90662209D01*
X154677358Y-90600273D01*
X154778922Y-90516922D01*
X154785644Y-90508731D01*
X154785644Y-91630000D01*
%TA.AperFunction,Conductor*%
D24*
G36*
X154785644Y-91630000D02*
G01*
X154797929Y-91754732D01*
X154834312Y-91874671D01*
X154893395Y-91985207D01*
X154908001Y-92003004D01*
X154908000Y-93312245D01*
X154904774Y-93345000D01*
X154908000Y-93377754D01*
X154908000Y-93377764D01*
X154917651Y-93475754D01*
X154947313Y-93573535D01*
X154955791Y-93601484D01*
X155017727Y-93717358D01*
X155044556Y-93750049D01*
X155101078Y-93818922D01*
X155126534Y-93839813D01*
X155401998Y-94115277D01*
X155401998Y-94234748D01*
X155220250Y-94053000D01*
X155117862Y-94066583D01*
X154981701Y-94110947D01*
X154856811Y-94181022D01*
X154747991Y-94274116D01*
X154659425Y-94386651D01*
X154594514Y-94514302D01*
X154555754Y-94652163D01*
X154544635Y-94794937D01*
X154548000Y-95400250D01*
X154729750Y-95582000D01*
X155402000Y-95582000D01*
X155402000Y-95562000D01*
X155748000Y-95562000D01*
X155748000Y-95582000D01*
X155768000Y-95582000D01*
X155768000Y-95928000D01*
X155748000Y-95928000D01*
X155748000Y-95948000D01*
X155402000Y-95948000D01*
X155402000Y-95928000D01*
X154729750Y-95928000D01*
X154548000Y-96109750D01*
X154544635Y-96715063D01*
X154555754Y-96857837D01*
X154594514Y-96995698D01*
X154616543Y-97039019D01*
X153942387Y-97046510D01*
X153221407Y-96325529D01*
X153200520Y-96300078D01*
X153098956Y-96216727D01*
X152983083Y-96154791D01*
X152857353Y-96116651D01*
X152759363Y-96107000D01*
X152759352Y-96107000D01*
X152726598Y-96103774D01*
X152693844Y-96107000D01*
X152367784Y-96107000D01*
X152298465Y-96022535D01*
X152188320Y-95932141D01*
X152164000Y-95919142D01*
X152164000Y-94969341D01*
X152202320Y-94948859D01*
X152260636Y-94901000D01*
X152447592Y-94901000D01*
X152469570Y-94922978D01*
X152614848Y-95020049D01*
X152776272Y-95086913D01*
X152947638Y-95121000D01*
X153122362Y-95121000D01*
X153293728Y-95086913D01*
X153455152Y-95020049D01*
X153600430Y-94922978D01*
X153723978Y-94799430D01*
X153821049Y-94654152D01*
X153887913Y-94492728D01*
X153922000Y-94321362D01*
X153922000Y-94146638D01*
X153887913Y-93975272D01*
X153821049Y-93813848D01*
X153723978Y-93668570D01*
X153600430Y-93545022D01*
X153455152Y-93447951D01*
X153409935Y-93429221D01*
X153440049Y-93384152D01*
X153506913Y-93222728D01*
X153541000Y-93051362D01*
X153541000Y-92876638D01*
X153506913Y-92705272D01*
X153440049Y-92543848D01*
X153342978Y-92398570D01*
X153219430Y-92275022D01*
X153074152Y-92177951D01*
X152912728Y-92111087D01*
X152758698Y-92080448D01*
X152658250Y-91980000D01*
X151811000Y-91980000D01*
X151811000Y-92000000D01*
X151465000Y-92000000D01*
X151465000Y-91980000D01*
X151445000Y-91980000D01*
X151445000Y-91634000D01*
X151465000Y-91634000D01*
X151465000Y-91614000D01*
X151811000Y-91614000D01*
X151811000Y-91634000D01*
X152658250Y-91634000D01*
X152840000Y-91452250D01*
X152843518Y-91282000D01*
X152829481Y-91139483D01*
X152787911Y-91002443D01*
X152720404Y-90876146D01*
X152629554Y-90765446D01*
X152561993Y-90710000D01*
X152688142Y-90710000D01*
X152701141Y-90734320D01*
X152791535Y-90844465D01*
X152901680Y-90934859D01*
X153027344Y-91002027D01*
X153163697Y-91043390D01*
X153305500Y-91057356D01*
X153780500Y-91057356D01*
X153922303Y-91043390D01*
X154058656Y-91002027D01*
X154184320Y-90934859D01*
X154294465Y-90844465D01*
X154384859Y-90734320D01*
X154401197Y-90703753D01*
X154435755Y-90700349D01*
X154561485Y-90662209D01*
X154677358Y-90600273D01*
X154778922Y-90516922D01*
X154785644Y-90508731D01*
X154785644Y-91630000D01*
G37*
%TD.AperFunction*%
D23*
X169527196Y-80332804D02*
X169639236Y-80424752D01*
X169767061Y-80493076D01*
X169905759Y-80535149D01*
X170050000Y-80549356D01*
X171217000Y-80549356D01*
X171217000Y-82533000D01*
X169608220Y-82533000D01*
X169544999Y-82526773D01*
X169481778Y-82533000D01*
X169481776Y-82533000D01*
X169292704Y-82551622D01*
X169050103Y-82625214D01*
X168826522Y-82744721D01*
X168630550Y-82905550D01*
X168590245Y-82954662D01*
X166139662Y-85405246D01*
X166090551Y-85445550D01*
X165929722Y-85641522D01*
X165810214Y-85865103D01*
X165768287Y-86003317D01*
X165730854Y-85972596D01*
X165604557Y-85905089D01*
X165467517Y-85863519D01*
X165325000Y-85849482D01*
X165079750Y-85853000D01*
X164898000Y-86034750D01*
X164898000Y-87507000D01*
X164918000Y-87507000D01*
X164918000Y-87853000D01*
X164898000Y-87853000D01*
X164898000Y-89325250D01*
X165079750Y-89507000D01*
X165325000Y-89510518D01*
X165467517Y-89496481D01*
X165604557Y-89454911D01*
X165718000Y-89394274D01*
X165718000Y-90290644D01*
X164105000Y-90290644D01*
X164009531Y-90300047D01*
X163917732Y-90327894D01*
X163833128Y-90373115D01*
X163758973Y-90433973D01*
X163698115Y-90508128D01*
X163652894Y-90592732D01*
X163625047Y-90684531D01*
X163615644Y-90780000D01*
X163615644Y-93088000D01*
X161861776Y-93088000D01*
X161672704Y-93106622D01*
X161430103Y-93180214D01*
X161206522Y-93299721D01*
X161010550Y-93460550D01*
X160849721Y-93656522D01*
X160730214Y-93880103D01*
X160656622Y-94122704D01*
X160631773Y-94375000D01*
X160656622Y-94627296D01*
X160730214Y-94869897D01*
X160849721Y-95093478D01*
X161010550Y-95289450D01*
X161124656Y-95383094D01*
X161083141Y-95433680D01*
X161015973Y-95559344D01*
X160974610Y-95695697D01*
X160960644Y-95837500D01*
X160960644Y-95903792D01*
X160950191Y-95916529D01*
X160162080Y-96704641D01*
X160174356Y-96580000D01*
X160174356Y-94930000D01*
X160162071Y-94805268D01*
X160125688Y-94685329D01*
X160066605Y-94574793D01*
X159987093Y-94477907D01*
X159974156Y-94467290D01*
X159942273Y-94407641D01*
X159879808Y-94331528D01*
X159858922Y-94306078D01*
X159833471Y-94285191D01*
X159079813Y-93531534D01*
X159058922Y-93506078D01*
X158957358Y-93422727D01*
X158841485Y-93360791D01*
X158747214Y-93332194D01*
X158803978Y-93275430D01*
X158901049Y-93130152D01*
X158967913Y-92968728D01*
X159002000Y-92797362D01*
X159002000Y-92622638D01*
X158967913Y-92451272D01*
X158901049Y-92289848D01*
X158803978Y-92144570D01*
X158782000Y-92122592D01*
X158782000Y-92080988D01*
X158782907Y-92082093D01*
X158879793Y-92161605D01*
X158990329Y-92220688D01*
X159110268Y-92257071D01*
X159235000Y-92269356D01*
X159535000Y-92269356D01*
X159659732Y-92257071D01*
X159779671Y-92220688D01*
X159890207Y-92161605D01*
X159987093Y-92082093D01*
X160066605Y-91985207D01*
X160125688Y-91874671D01*
X160162071Y-91754732D01*
X160174356Y-91630000D01*
X160174356Y-91472000D01*
X161497246Y-91472000D01*
X161530000Y-91475226D01*
X161562754Y-91472000D01*
X161562765Y-91472000D01*
X161660755Y-91462349D01*
X161786000Y-91424356D01*
X162162500Y-91424356D01*
X162304303Y-91410390D01*
X162440656Y-91369027D01*
X162566320Y-91301859D01*
X162676465Y-91211465D01*
X162766859Y-91101320D01*
X162834027Y-90975656D01*
X162875390Y-90839303D01*
X162889356Y-90697500D01*
X162889356Y-90122500D01*
X162875390Y-89980697D01*
X162834027Y-89844344D01*
X162806140Y-89792170D01*
X162916554Y-89701554D01*
X163007404Y-89590854D01*
X163074911Y-89464557D01*
X163116481Y-89327517D01*
X163130518Y-89185000D01*
X163127000Y-89014750D01*
X162945250Y-88833000D01*
X162098000Y-88833000D01*
X162098000Y-88853000D01*
X161752000Y-88853000D01*
X161752000Y-88833000D01*
X160904750Y-88833000D01*
X160723000Y-89014750D01*
X160719482Y-89185000D01*
X160733519Y-89327517D01*
X160775089Y-89464557D01*
X160842596Y-89590854D01*
X160933446Y-89701554D01*
X161043860Y-89792170D01*
X161015973Y-89844344D01*
X160974610Y-89980697D01*
X160960644Y-90122500D01*
X160960644Y-90138000D01*
X160174356Y-90138000D01*
X160174356Y-89980000D01*
X160162071Y-89855268D01*
X160125688Y-89735329D01*
X160066605Y-89624793D01*
X159987093Y-89527907D01*
X159890207Y-89448395D01*
X159779671Y-89389312D01*
X159659732Y-89352929D01*
X159535000Y-89340644D01*
X159235000Y-89340644D01*
X159110268Y-89352929D01*
X158990329Y-89389312D01*
X158879793Y-89448395D01*
X158782907Y-89527907D01*
X158750000Y-89568004D01*
X158717093Y-89527907D01*
X158620207Y-89448395D01*
X158509671Y-89389312D01*
X158389732Y-89352929D01*
X158265000Y-89340644D01*
X157965000Y-89340644D01*
X157840268Y-89352929D01*
X157720329Y-89389312D01*
X157609793Y-89448395D01*
X157512907Y-89527907D01*
X157480000Y-89568004D01*
X157447093Y-89527907D01*
X157350207Y-89448395D01*
X157239671Y-89389312D01*
X157119732Y-89352929D01*
X156995000Y-89340644D01*
X156695000Y-89340644D01*
X156570268Y-89352929D01*
X156450329Y-89389312D01*
X156339793Y-89448395D01*
X156242907Y-89527907D01*
X156242000Y-89529012D01*
X156242000Y-88780000D01*
X163394482Y-88780000D01*
X163408519Y-88922517D01*
X163450089Y-89059557D01*
X163517596Y-89185854D01*
X163608446Y-89296554D01*
X163719146Y-89387404D01*
X163845443Y-89454911D01*
X163982483Y-89496481D01*
X164125000Y-89510518D01*
X164370250Y-89507000D01*
X164552000Y-89325250D01*
X164552000Y-87853000D01*
X163579750Y-87853000D01*
X163398000Y-88034750D01*
X163394482Y-88780000D01*
X156242000Y-88780000D01*
X156242000Y-88541279D01*
X156658472Y-88124808D01*
X156683922Y-88103922D01*
X156767273Y-88002358D01*
X156829209Y-87886485D01*
X156840472Y-87849356D01*
X157100000Y-87849356D01*
X157195469Y-87839953D01*
X157287268Y-87812106D01*
X157371872Y-87766885D01*
X157446027Y-87706027D01*
X157480000Y-87664631D01*
X157513973Y-87706027D01*
X157588128Y-87766885D01*
X157672732Y-87812106D01*
X157764531Y-87839953D01*
X157860000Y-87849356D01*
X159640000Y-87849356D01*
X159735469Y-87839953D01*
X159827268Y-87812106D01*
X159911872Y-87766885D01*
X159986027Y-87706027D01*
X160034470Y-87647000D01*
X160910012Y-87647000D01*
X160842596Y-87729146D01*
X160775089Y-87855443D01*
X160733519Y-87992483D01*
X160719482Y-88135000D01*
X160723000Y-88305250D01*
X160904750Y-88487000D01*
X161752000Y-88487000D01*
X161752000Y-88467000D01*
X162098000Y-88467000D01*
X162098000Y-88487000D01*
X162945250Y-88487000D01*
X163127000Y-88305250D01*
X163130518Y-88135000D01*
X163116481Y-87992483D01*
X163074911Y-87855443D01*
X163007404Y-87729146D01*
X162916554Y-87618446D01*
X162805854Y-87527596D01*
X162679557Y-87460089D01*
X162542517Y-87418519D01*
X162400000Y-87404482D01*
X162284759Y-87407853D01*
X162447313Y-87274450D01*
X162487622Y-87225333D01*
X163493238Y-86219718D01*
X163450089Y-86300443D01*
X163408519Y-86437483D01*
X163394482Y-86580000D01*
X163398000Y-87325250D01*
X163579750Y-87507000D01*
X164552000Y-87507000D01*
X164552000Y-86034750D01*
X164370250Y-85853000D01*
X164125000Y-85849482D01*
X163982483Y-85863519D01*
X163845443Y-85905089D01*
X163764718Y-85948237D01*
X169460916Y-80252040D01*
X169527196Y-80332804D01*
%TA.AperFunction,Conductor*%
D24*
G36*
X169527196Y-80332804D02*
G01*
X169639236Y-80424752D01*
X169767061Y-80493076D01*
X169905759Y-80535149D01*
X170050000Y-80549356D01*
X171217000Y-80549356D01*
X171217000Y-82533000D01*
X169608220Y-82533000D01*
X169544999Y-82526773D01*
X169481778Y-82533000D01*
X169481776Y-82533000D01*
X169292704Y-82551622D01*
X169050103Y-82625214D01*
X168826522Y-82744721D01*
X168630550Y-82905550D01*
X168590245Y-82954662D01*
X166139662Y-85405246D01*
X166090551Y-85445550D01*
X165929722Y-85641522D01*
X165810214Y-85865103D01*
X165768287Y-86003317D01*
X165730854Y-85972596D01*
X165604557Y-85905089D01*
X165467517Y-85863519D01*
X165325000Y-85849482D01*
X165079750Y-85853000D01*
X164898000Y-86034750D01*
X164898000Y-87507000D01*
X164918000Y-87507000D01*
X164918000Y-87853000D01*
X164898000Y-87853000D01*
X164898000Y-89325250D01*
X165079750Y-89507000D01*
X165325000Y-89510518D01*
X165467517Y-89496481D01*
X165604557Y-89454911D01*
X165718000Y-89394274D01*
X165718000Y-90290644D01*
X164105000Y-90290644D01*
X164009531Y-90300047D01*
X163917732Y-90327894D01*
X163833128Y-90373115D01*
X163758973Y-90433973D01*
X163698115Y-90508128D01*
X163652894Y-90592732D01*
X163625047Y-90684531D01*
X163615644Y-90780000D01*
X163615644Y-93088000D01*
X161861776Y-93088000D01*
X161672704Y-93106622D01*
X161430103Y-93180214D01*
X161206522Y-93299721D01*
X161010550Y-93460550D01*
X160849721Y-93656522D01*
X160730214Y-93880103D01*
X160656622Y-94122704D01*
X160631773Y-94375000D01*
X160656622Y-94627296D01*
X160730214Y-94869897D01*
X160849721Y-95093478D01*
X161010550Y-95289450D01*
X161124656Y-95383094D01*
X161083141Y-95433680D01*
X161015973Y-95559344D01*
X160974610Y-95695697D01*
X160960644Y-95837500D01*
X160960644Y-95903792D01*
X160950191Y-95916529D01*
X160162080Y-96704641D01*
X160174356Y-96580000D01*
X160174356Y-94930000D01*
X160162071Y-94805268D01*
X160125688Y-94685329D01*
X160066605Y-94574793D01*
X159987093Y-94477907D01*
X159974156Y-94467290D01*
X159942273Y-94407641D01*
X159879808Y-94331528D01*
X159858922Y-94306078D01*
X159833471Y-94285191D01*
X159079813Y-93531534D01*
X159058922Y-93506078D01*
X158957358Y-93422727D01*
X158841485Y-93360791D01*
X158747214Y-93332194D01*
X158803978Y-93275430D01*
X158901049Y-93130152D01*
X158967913Y-92968728D01*
X159002000Y-92797362D01*
X159002000Y-92622638D01*
X158967913Y-92451272D01*
X158901049Y-92289848D01*
X158803978Y-92144570D01*
X158782000Y-92122592D01*
X158782000Y-92080988D01*
X158782907Y-92082093D01*
X158879793Y-92161605D01*
X158990329Y-92220688D01*
X159110268Y-92257071D01*
X159235000Y-92269356D01*
X159535000Y-92269356D01*
X159659732Y-92257071D01*
X159779671Y-92220688D01*
X159890207Y-92161605D01*
X159987093Y-92082093D01*
X160066605Y-91985207D01*
X160125688Y-91874671D01*
X160162071Y-91754732D01*
X160174356Y-91630000D01*
X160174356Y-91472000D01*
X161497246Y-91472000D01*
X161530000Y-91475226D01*
X161562754Y-91472000D01*
X161562765Y-91472000D01*
X161660755Y-91462349D01*
X161786000Y-91424356D01*
X162162500Y-91424356D01*
X162304303Y-91410390D01*
X162440656Y-91369027D01*
X162566320Y-91301859D01*
X162676465Y-91211465D01*
X162766859Y-91101320D01*
X162834027Y-90975656D01*
X162875390Y-90839303D01*
X162889356Y-90697500D01*
X162889356Y-90122500D01*
X162875390Y-89980697D01*
X162834027Y-89844344D01*
X162806140Y-89792170D01*
X162916554Y-89701554D01*
X163007404Y-89590854D01*
X163074911Y-89464557D01*
X163116481Y-89327517D01*
X163130518Y-89185000D01*
X163127000Y-89014750D01*
X162945250Y-88833000D01*
X162098000Y-88833000D01*
X162098000Y-88853000D01*
X161752000Y-88853000D01*
X161752000Y-88833000D01*
X160904750Y-88833000D01*
X160723000Y-89014750D01*
X160719482Y-89185000D01*
X160733519Y-89327517D01*
X160775089Y-89464557D01*
X160842596Y-89590854D01*
X160933446Y-89701554D01*
X161043860Y-89792170D01*
X161015973Y-89844344D01*
X160974610Y-89980697D01*
X160960644Y-90122500D01*
X160960644Y-90138000D01*
X160174356Y-90138000D01*
X160174356Y-89980000D01*
X160162071Y-89855268D01*
X160125688Y-89735329D01*
X160066605Y-89624793D01*
X159987093Y-89527907D01*
X159890207Y-89448395D01*
X159779671Y-89389312D01*
X159659732Y-89352929D01*
X159535000Y-89340644D01*
X159235000Y-89340644D01*
X159110268Y-89352929D01*
X158990329Y-89389312D01*
X158879793Y-89448395D01*
X158782907Y-89527907D01*
X158750000Y-89568004D01*
X158717093Y-89527907D01*
X158620207Y-89448395D01*
X158509671Y-89389312D01*
X158389732Y-89352929D01*
X158265000Y-89340644D01*
X157965000Y-89340644D01*
X157840268Y-89352929D01*
X157720329Y-89389312D01*
X157609793Y-89448395D01*
X157512907Y-89527907D01*
X157480000Y-89568004D01*
X157447093Y-89527907D01*
X157350207Y-89448395D01*
X157239671Y-89389312D01*
X157119732Y-89352929D01*
X156995000Y-89340644D01*
X156695000Y-89340644D01*
X156570268Y-89352929D01*
X156450329Y-89389312D01*
X156339793Y-89448395D01*
X156242907Y-89527907D01*
X156242000Y-89529012D01*
X156242000Y-88780000D01*
X163394482Y-88780000D01*
X163408519Y-88922517D01*
X163450089Y-89059557D01*
X163517596Y-89185854D01*
X163608446Y-89296554D01*
X163719146Y-89387404D01*
X163845443Y-89454911D01*
X163982483Y-89496481D01*
X164125000Y-89510518D01*
X164370250Y-89507000D01*
X164552000Y-89325250D01*
X164552000Y-87853000D01*
X163579750Y-87853000D01*
X163398000Y-88034750D01*
X163394482Y-88780000D01*
X156242000Y-88780000D01*
X156242000Y-88541279D01*
X156658472Y-88124808D01*
X156683922Y-88103922D01*
X156767273Y-88002358D01*
X156829209Y-87886485D01*
X156840472Y-87849356D01*
X157100000Y-87849356D01*
X157195469Y-87839953D01*
X157287268Y-87812106D01*
X157371872Y-87766885D01*
X157446027Y-87706027D01*
X157480000Y-87664631D01*
X157513973Y-87706027D01*
X157588128Y-87766885D01*
X157672732Y-87812106D01*
X157764531Y-87839953D01*
X157860000Y-87849356D01*
X159640000Y-87849356D01*
X159735469Y-87839953D01*
X159827268Y-87812106D01*
X159911872Y-87766885D01*
X159986027Y-87706027D01*
X160034470Y-87647000D01*
X160910012Y-87647000D01*
X160842596Y-87729146D01*
X160775089Y-87855443D01*
X160733519Y-87992483D01*
X160719482Y-88135000D01*
X160723000Y-88305250D01*
X160904750Y-88487000D01*
X161752000Y-88487000D01*
X161752000Y-88467000D01*
X162098000Y-88467000D01*
X162098000Y-88487000D01*
X162945250Y-88487000D01*
X163127000Y-88305250D01*
X163130518Y-88135000D01*
X163116481Y-87992483D01*
X163074911Y-87855443D01*
X163007404Y-87729146D01*
X162916554Y-87618446D01*
X162805854Y-87527596D01*
X162679557Y-87460089D01*
X162542517Y-87418519D01*
X162400000Y-87404482D01*
X162284759Y-87407853D01*
X162447313Y-87274450D01*
X162487622Y-87225333D01*
X163493238Y-86219718D01*
X163450089Y-86300443D01*
X163408519Y-86437483D01*
X163394482Y-86580000D01*
X163398000Y-87325250D01*
X163579750Y-87507000D01*
X164552000Y-87507000D01*
X164552000Y-86034750D01*
X164370250Y-85853000D01*
X164125000Y-85849482D01*
X163982483Y-85863519D01*
X163845443Y-85905089D01*
X163764718Y-85948237D01*
X169460916Y-80252040D01*
X169527196Y-80332804D01*
G37*
%TD.AperFunction*%
D23*
X183003000Y-76342466D02*
X179987666Y-76310043D01*
X180094855Y-76277528D01*
X180408773Y-76109735D01*
X180683924Y-75883924D01*
X180909735Y-75608773D01*
X181077528Y-75294855D01*
X181180854Y-74954234D01*
X181215743Y-74600000D01*
X181180854Y-74245766D01*
X181077528Y-73905145D01*
X180909735Y-73591227D01*
X180683924Y-73316076D01*
X180408773Y-73090265D01*
X180094855Y-72922472D01*
X179754234Y-72819146D01*
X179488769Y-72793000D01*
X178651231Y-72793000D01*
X178385766Y-72819146D01*
X178045145Y-72922472D01*
X177731227Y-73090265D01*
X177459824Y-73313000D01*
X176923221Y-73313000D01*
X176860000Y-73306773D01*
X176796779Y-73313000D01*
X176796776Y-73313000D01*
X176607704Y-73331622D01*
X176365103Y-73405214D01*
X176141521Y-73524721D01*
X176060484Y-73591227D01*
X175945550Y-73685550D01*
X175905245Y-73734662D01*
X174394667Y-75245241D01*
X174345550Y-75285550D01*
X174184721Y-75481523D01*
X174065214Y-75705104D01*
X173991622Y-75947705D01*
X173973000Y-76136776D01*
X173966773Y-76200000D01*
X173971240Y-76245351D01*
X173026681Y-76235194D01*
X173058710Y-76214590D01*
X173349131Y-75934102D01*
X173579251Y-75602345D01*
X173740227Y-75232069D01*
X173767501Y-75089946D01*
X173637210Y-74773000D01*
X171623000Y-74773000D01*
X171623000Y-74793000D01*
X171277000Y-74793000D01*
X171277000Y-74773000D01*
X169262790Y-74773000D01*
X169132499Y-75089946D01*
X169159773Y-75232069D01*
X169320749Y-75602345D01*
X169550869Y-75934102D01*
X169841290Y-76214590D01*
X170180851Y-76433030D01*
X170556503Y-76581028D01*
X170953810Y-76652896D01*
X171276998Y-76471870D01*
X171276998Y-76478739D01*
X171254071Y-76521633D01*
X171226358Y-76612991D01*
X171217000Y-76708000D01*
X171217000Y-76930644D01*
X170050000Y-76930644D01*
X169905759Y-76944851D01*
X169767061Y-76986924D01*
X169639236Y-77055248D01*
X169527196Y-77147196D01*
X169435248Y-77259236D01*
X169366924Y-77387061D01*
X169346922Y-77453000D01*
X169216083Y-77453000D01*
X169152862Y-77446773D01*
X169089641Y-77453000D01*
X169089639Y-77453000D01*
X168900567Y-77471622D01*
X168657966Y-77545214D01*
X168434385Y-77664721D01*
X168238413Y-77825550D01*
X168198110Y-77874660D01*
X166882000Y-79190770D01*
X166882000Y-74110054D01*
X169132499Y-74110054D01*
X169262790Y-74427000D01*
X171277000Y-74427000D01*
X171277000Y-72728131D01*
X171623000Y-72728131D01*
X171623000Y-74427000D01*
X173637210Y-74427000D01*
X173767501Y-74110054D01*
X173740227Y-73967931D01*
X173579251Y-73597655D01*
X173349131Y-73265898D01*
X173058710Y-72985410D01*
X172719149Y-72766970D01*
X172343497Y-72618972D01*
X171946190Y-72547104D01*
X171623000Y-72728131D01*
X171277000Y-72728131D01*
X170953810Y-72547104D01*
X170556503Y-72618972D01*
X170180851Y-72766970D01*
X169841290Y-72985410D01*
X169550869Y-73265898D01*
X169320749Y-73597655D01*
X169159773Y-73967931D01*
X169132499Y-74110054D01*
X166882000Y-74110054D01*
X166882000Y-72517000D01*
X183003000Y-72517000D01*
X183003000Y-76342466D01*
%TA.AperFunction,Conductor*%
D24*
G36*
X183003000Y-76342466D02*
G01*
X179987666Y-76310043D01*
X180094855Y-76277528D01*
X180408773Y-76109735D01*
X180683924Y-75883924D01*
X180909735Y-75608773D01*
X181077528Y-75294855D01*
X181180854Y-74954234D01*
X181215743Y-74600000D01*
X181180854Y-74245766D01*
X181077528Y-73905145D01*
X180909735Y-73591227D01*
X180683924Y-73316076D01*
X180408773Y-73090265D01*
X180094855Y-72922472D01*
X179754234Y-72819146D01*
X179488769Y-72793000D01*
X178651231Y-72793000D01*
X178385766Y-72819146D01*
X178045145Y-72922472D01*
X177731227Y-73090265D01*
X177459824Y-73313000D01*
X176923221Y-73313000D01*
X176860000Y-73306773D01*
X176796779Y-73313000D01*
X176796776Y-73313000D01*
X176607704Y-73331622D01*
X176365103Y-73405214D01*
X176141521Y-73524721D01*
X176060484Y-73591227D01*
X175945550Y-73685550D01*
X175905245Y-73734662D01*
X174394667Y-75245241D01*
X174345550Y-75285550D01*
X174184721Y-75481523D01*
X174065214Y-75705104D01*
X173991622Y-75947705D01*
X173973000Y-76136776D01*
X173966773Y-76200000D01*
X173971240Y-76245351D01*
X173026681Y-76235194D01*
X173058710Y-76214590D01*
X173349131Y-75934102D01*
X173579251Y-75602345D01*
X173740227Y-75232069D01*
X173767501Y-75089946D01*
X173637210Y-74773000D01*
X171623000Y-74773000D01*
X171623000Y-74793000D01*
X171277000Y-74793000D01*
X171277000Y-74773000D01*
X169262790Y-74773000D01*
X169132499Y-75089946D01*
X169159773Y-75232069D01*
X169320749Y-75602345D01*
X169550869Y-75934102D01*
X169841290Y-76214590D01*
X170180851Y-76433030D01*
X170556503Y-76581028D01*
X170953810Y-76652896D01*
X171276998Y-76471870D01*
X171276998Y-76478739D01*
X171254071Y-76521633D01*
X171226358Y-76612991D01*
X171217000Y-76708000D01*
X171217000Y-76930644D01*
X170050000Y-76930644D01*
X169905759Y-76944851D01*
X169767061Y-76986924D01*
X169639236Y-77055248D01*
X169527196Y-77147196D01*
X169435248Y-77259236D01*
X169366924Y-77387061D01*
X169346922Y-77453000D01*
X169216083Y-77453000D01*
X169152862Y-77446773D01*
X169089641Y-77453000D01*
X169089639Y-77453000D01*
X168900567Y-77471622D01*
X168657966Y-77545214D01*
X168434385Y-77664721D01*
X168238413Y-77825550D01*
X168198110Y-77874660D01*
X166882000Y-79190770D01*
X166882000Y-74110054D01*
X169132499Y-74110054D01*
X169262790Y-74427000D01*
X171277000Y-74427000D01*
X171277000Y-72728131D01*
X171623000Y-72728131D01*
X171623000Y-74427000D01*
X173637210Y-74427000D01*
X173767501Y-74110054D01*
X173740227Y-73967931D01*
X173579251Y-73597655D01*
X173349131Y-73265898D01*
X173058710Y-72985410D01*
X172719149Y-72766970D01*
X172343497Y-72618972D01*
X171946190Y-72547104D01*
X171623000Y-72728131D01*
X171277000Y-72728131D01*
X170953810Y-72547104D01*
X170556503Y-72618972D01*
X170180851Y-72766970D01*
X169841290Y-72985410D01*
X169550869Y-73265898D01*
X169320749Y-73597655D01*
X169159773Y-73967931D01*
X169132499Y-74110054D01*
X166882000Y-74110054D01*
X166882000Y-72517000D01*
X183003000Y-72517000D01*
X183003000Y-76342466D01*
G37*
%TD.AperFunction*%
%TD*%
M02*
