%TF.GenerationSoftware,KiCad,Pcbnew,5.1.7-a382d34a8~88~ubuntu18.04.1*%
%TF.CreationDate,2021-02-25T09:43:27-05:00*%
%TF.ProjectId,TSAL,5453414c-2e6b-4696-9361-645f70636258,rev?*%
%TF.SameCoordinates,Original*%
%TF.FileFunction,Legend,Bot*%
%TF.FilePolarity,Positive*%
%FSLAX46Y46*%
G04 Gerber Fmt 4.6, Leading zero omitted, Abs format (unit mm)*
G04 Created by KiCad (PCBNEW 5.1.7-a382d34a8~88~ubuntu18.04.1) date 2021-02-25 09:43:27*
%MOMM*%
%LPD*%
G01*
G04 APERTURE LIST*
%ADD10C,0.120000*%
%ADD11C,0.150000*%
G04 APERTURE END LIST*
D10*
X149098000Y-81280000D02*
X142240000Y-81280000D01*
X142240000Y-81280000D02*
X142240000Y-90424000D01*
D11*
X144097523Y-80557619D02*
X144668952Y-80557619D01*
X144383238Y-79557619D02*
X144383238Y-80557619D01*
X144954666Y-79605238D02*
X145097523Y-79557619D01*
X145335619Y-79557619D01*
X145430857Y-79605238D01*
X145478476Y-79652857D01*
X145526095Y-79748095D01*
X145526095Y-79843333D01*
X145478476Y-79938571D01*
X145430857Y-79986190D01*
X145335619Y-80033809D01*
X145145142Y-80081428D01*
X145049904Y-80129047D01*
X145002285Y-80176666D01*
X144954666Y-80271904D01*
X144954666Y-80367142D01*
X145002285Y-80462380D01*
X145049904Y-80510000D01*
X145145142Y-80557619D01*
X145383238Y-80557619D01*
X145526095Y-80510000D01*
X145811809Y-80557619D02*
X146145142Y-79557619D01*
X146478476Y-80557619D01*
X145859428Y-82050000D02*
X145954666Y-82002380D01*
X146097523Y-82002380D01*
X146240380Y-82050000D01*
X146335619Y-82145238D01*
X146383238Y-82240476D01*
X146430857Y-82430952D01*
X146430857Y-82573809D01*
X146383238Y-82764285D01*
X146335619Y-82859523D01*
X146240380Y-82954761D01*
X146097523Y-83002380D01*
X146002285Y-83002380D01*
X145859428Y-82954761D01*
X145811809Y-82907142D01*
X145811809Y-82573809D01*
X146002285Y-82573809D01*
X144907047Y-83002380D02*
X145383238Y-83002380D01*
X145383238Y-82002380D01*
X144716571Y-82002380D02*
X144383238Y-83002380D01*
X144049904Y-82002380D01*
M02*
