%TF.GenerationSoftware,KiCad,Pcbnew,5.1.7-a382d34a8~88~ubuntu18.04.1*%
%TF.CreationDate,2021-03-18T09:08:07-04:00*%
%TF.ProjectId,Pacman2020,5061636d-616e-4323-9032-302e6b696361,rev?*%
%TF.SameCoordinates,Original*%
%TF.FileFunction,Legend,Top*%
%TF.FilePolarity,Positive*%
%FSLAX46Y46*%
G04 Gerber Fmt 4.6, Leading zero omitted, Abs format (unit mm)*
G04 Created by KiCad (PCBNEW 5.1.7-a382d34a8~88~ubuntu18.04.1) date 2021-03-18 09:08:07*
%MOMM*%
%LPD*%
G01*
G04 APERTURE LIST*
%ADD10C,0.250000*%
%ADD11C,0.150000*%
%ADD12C,0.240000*%
%ADD13C,0.120000*%
%ADD14C,0.010000*%
%ADD15C,0.127000*%
%ADD16C,0.500000*%
%ADD17C,0.050000*%
G04 APERTURE END LIST*
D10*
X89804761Y-141731619D02*
X87804761Y-141731619D01*
X89804761Y-140779238D02*
X87804761Y-140779238D01*
X89804761Y-139636380D01*
X87804761Y-139636380D01*
X87804761Y-138969714D02*
X87804761Y-137826857D01*
X89804761Y-138398285D02*
X87804761Y-138398285D01*
X89042857Y-137160190D02*
X89042857Y-135636380D01*
X69484761Y-141223619D02*
X67484761Y-141223619D01*
X69484761Y-140271238D02*
X67484761Y-140271238D01*
X69484761Y-139128380D01*
X67484761Y-139128380D01*
X67484761Y-138461714D02*
X67484761Y-137318857D01*
X69484761Y-137890285D02*
X67484761Y-137890285D01*
X68722857Y-136652190D02*
X68722857Y-135128380D01*
X69484761Y-135890285D02*
X67960952Y-135890285D01*
X50657142Y-125650095D02*
X50752380Y-125364380D01*
X50847619Y-125269142D01*
X51038095Y-125173904D01*
X51323809Y-125173904D01*
X51514285Y-125269142D01*
X51609523Y-125364380D01*
X51704761Y-125554857D01*
X51704761Y-126316761D01*
X49704761Y-126316761D01*
X49704761Y-125650095D01*
X49800000Y-125459619D01*
X49895238Y-125364380D01*
X50085714Y-125269142D01*
X50276190Y-125269142D01*
X50466666Y-125364380D01*
X50561904Y-125459619D01*
X50657142Y-125650095D01*
X50657142Y-126316761D01*
X51133333Y-124412000D02*
X51133333Y-123459619D01*
X51704761Y-124602476D02*
X49704761Y-123935809D01*
X51704761Y-123269142D01*
X49704761Y-122888190D02*
X49704761Y-121745333D01*
X51704761Y-122316761D02*
X49704761Y-122316761D01*
X49704761Y-121364380D02*
X49704761Y-120221523D01*
X51704761Y-120792952D02*
X49704761Y-120792952D01*
X50942857Y-118031047D02*
X50942857Y-116507238D01*
X51704761Y-117269142D02*
X50180952Y-117269142D01*
D11*
X101434380Y-115998476D02*
X101434380Y-115427047D01*
X102434380Y-115712761D02*
X101434380Y-115712761D01*
X102386761Y-115141333D02*
X102434380Y-114998476D01*
X102434380Y-114760380D01*
X102386761Y-114665142D01*
X102339142Y-114617523D01*
X102243904Y-114569904D01*
X102148666Y-114569904D01*
X102053428Y-114617523D01*
X102005809Y-114665142D01*
X101958190Y-114760380D01*
X101910571Y-114950857D01*
X101862952Y-115046095D01*
X101815333Y-115093714D01*
X101720095Y-115141333D01*
X101624857Y-115141333D01*
X101529619Y-115093714D01*
X101482000Y-115046095D01*
X101434380Y-114950857D01*
X101434380Y-114712761D01*
X101482000Y-114569904D01*
X101434380Y-114284190D02*
X102434380Y-113950857D01*
X101434380Y-113617523D01*
X104782000Y-115379428D02*
X104734380Y-115474666D01*
X104734380Y-115617523D01*
X104782000Y-115760380D01*
X104877238Y-115855619D01*
X104972476Y-115903238D01*
X105162952Y-115950857D01*
X105305809Y-115950857D01*
X105496285Y-115903238D01*
X105591523Y-115855619D01*
X105686761Y-115760380D01*
X105734380Y-115617523D01*
X105734380Y-115522285D01*
X105686761Y-115379428D01*
X105639142Y-115331809D01*
X105305809Y-115331809D01*
X105305809Y-115522285D01*
X105734380Y-114427047D02*
X105734380Y-114903238D01*
X104734380Y-114903238D01*
X104734380Y-114236571D02*
X105734380Y-113903238D01*
X104734380Y-113569904D01*
D12*
X103632000Y-100584000D02*
X80772000Y-76200000D01*
X103632000Y-144272000D02*
X103632000Y-100584000D01*
D11*
X110045904Y-137867000D02*
X109950666Y-137819380D01*
X109807809Y-137819380D01*
X109664952Y-137867000D01*
X109569714Y-137962238D01*
X109522095Y-138057476D01*
X109474476Y-138247952D01*
X109474476Y-138390809D01*
X109522095Y-138581285D01*
X109569714Y-138676523D01*
X109664952Y-138771761D01*
X109807809Y-138819380D01*
X109903047Y-138819380D01*
X110045904Y-138771761D01*
X110093523Y-138724142D01*
X110093523Y-138390809D01*
X109903047Y-138390809D01*
X110522095Y-138724142D02*
X110569714Y-138771761D01*
X110522095Y-138819380D01*
X110474476Y-138771761D01*
X110522095Y-138724142D01*
X110522095Y-138819380D01*
X110950666Y-138771761D02*
X111093523Y-138819380D01*
X111331619Y-138819380D01*
X111426857Y-138771761D01*
X111474476Y-138724142D01*
X111522095Y-138628904D01*
X111522095Y-138533666D01*
X111474476Y-138438428D01*
X111426857Y-138390809D01*
X111331619Y-138343190D01*
X111141142Y-138295571D01*
X111045904Y-138247952D01*
X110998285Y-138200333D01*
X110950666Y-138105095D01*
X110950666Y-138009857D01*
X110998285Y-137914619D01*
X111045904Y-137867000D01*
X111141142Y-137819380D01*
X111379238Y-137819380D01*
X111522095Y-137867000D01*
X111950666Y-138152714D02*
X111950666Y-139152714D01*
X111950666Y-138200333D02*
X112045904Y-138152714D01*
X112236380Y-138152714D01*
X112331619Y-138200333D01*
X112379238Y-138247952D01*
X112426857Y-138343190D01*
X112426857Y-138628904D01*
X112379238Y-138724142D01*
X112331619Y-138771761D01*
X112236380Y-138819380D01*
X112045904Y-138819380D01*
X111950666Y-138771761D01*
X113236380Y-138771761D02*
X113141142Y-138819380D01*
X112950666Y-138819380D01*
X112855428Y-138771761D01*
X112807809Y-138676523D01*
X112807809Y-138295571D01*
X112855428Y-138200333D01*
X112950666Y-138152714D01*
X113141142Y-138152714D01*
X113236380Y-138200333D01*
X113284000Y-138295571D01*
X113284000Y-138390809D01*
X112807809Y-138486047D01*
X114141142Y-138819380D02*
X114141142Y-138295571D01*
X114093523Y-138200333D01*
X113998285Y-138152714D01*
X113807809Y-138152714D01*
X113712571Y-138200333D01*
X114141142Y-138771761D02*
X114045904Y-138819380D01*
X113807809Y-138819380D01*
X113712571Y-138771761D01*
X113664952Y-138676523D01*
X113664952Y-138581285D01*
X113712571Y-138486047D01*
X113807809Y-138438428D01*
X114045904Y-138438428D01*
X114141142Y-138390809D01*
X114617333Y-138819380D02*
X114617333Y-138152714D01*
X114617333Y-138343190D02*
X114664952Y-138247952D01*
X114712571Y-138200333D01*
X114807809Y-138152714D01*
X114903047Y-138152714D01*
X115236380Y-138819380D02*
X115236380Y-138152714D01*
X115236380Y-137819380D02*
X115188761Y-137867000D01*
X115236380Y-137914619D01*
X115284000Y-137867000D01*
X115236380Y-137819380D01*
X115236380Y-137914619D01*
X115712571Y-138152714D02*
X115712571Y-138819380D01*
X115712571Y-138247952D02*
X115760190Y-138200333D01*
X115855428Y-138152714D01*
X115998285Y-138152714D01*
X116093523Y-138200333D01*
X116141142Y-138295571D01*
X116141142Y-138819380D01*
X117045904Y-138152714D02*
X117045904Y-138962238D01*
X116998285Y-139057476D01*
X116950666Y-139105095D01*
X116855428Y-139152714D01*
X116712571Y-139152714D01*
X116617333Y-139105095D01*
X117045904Y-138771761D02*
X116950666Y-138819380D01*
X116760190Y-138819380D01*
X116664952Y-138771761D01*
X116617333Y-138724142D01*
X116569714Y-138628904D01*
X116569714Y-138343190D01*
X116617333Y-138247952D01*
X116664952Y-138200333D01*
X116760190Y-138152714D01*
X116950666Y-138152714D01*
X117045904Y-138200333D01*
X110855428Y-139564619D02*
X110903047Y-139517000D01*
X110998285Y-139469380D01*
X111236380Y-139469380D01*
X111331619Y-139517000D01*
X111379238Y-139564619D01*
X111426857Y-139659857D01*
X111426857Y-139755095D01*
X111379238Y-139897952D01*
X110807809Y-140469380D01*
X111426857Y-140469380D01*
X112379238Y-140469380D02*
X111807809Y-140469380D01*
X112093523Y-140469380D02*
X112093523Y-139469380D01*
X111998285Y-139612238D01*
X111903047Y-139707476D01*
X111807809Y-139755095D01*
X112807809Y-140374142D02*
X112855428Y-140421761D01*
X112807809Y-140469380D01*
X112760190Y-140421761D01*
X112807809Y-140374142D01*
X112807809Y-140469380D01*
X113474476Y-139469380D02*
X113569714Y-139469380D01*
X113664952Y-139517000D01*
X113712571Y-139564619D01*
X113760190Y-139659857D01*
X113807809Y-139850333D01*
X113807809Y-140088428D01*
X113760190Y-140278904D01*
X113712571Y-140374142D01*
X113664952Y-140421761D01*
X113569714Y-140469380D01*
X113474476Y-140469380D01*
X113379238Y-140421761D01*
X113331619Y-140374142D01*
X113284000Y-140278904D01*
X113236380Y-140088428D01*
X113236380Y-139850333D01*
X113284000Y-139659857D01*
X113331619Y-139564619D01*
X113379238Y-139517000D01*
X113474476Y-139469380D01*
X114141142Y-139469380D02*
X114807809Y-139469380D01*
X114379238Y-140469380D01*
X115093523Y-139469380D02*
X115760190Y-139469380D01*
X115331619Y-140469380D01*
D10*
X108045904Y-135524761D02*
X108045904Y-133524761D01*
X108807809Y-133524761D01*
X108998285Y-133620000D01*
X109093523Y-133715238D01*
X109188761Y-133905714D01*
X109188761Y-134191428D01*
X109093523Y-134381904D01*
X108998285Y-134477142D01*
X108807809Y-134572380D01*
X108045904Y-134572380D01*
X110903047Y-135524761D02*
X110903047Y-134477142D01*
X110807809Y-134286666D01*
X110617333Y-134191428D01*
X110236380Y-134191428D01*
X110045904Y-134286666D01*
X110903047Y-135429523D02*
X110712571Y-135524761D01*
X110236380Y-135524761D01*
X110045904Y-135429523D01*
X109950666Y-135239047D01*
X109950666Y-135048571D01*
X110045904Y-134858095D01*
X110236380Y-134762857D01*
X110712571Y-134762857D01*
X110903047Y-134667619D01*
X112712571Y-135429523D02*
X112522095Y-135524761D01*
X112141142Y-135524761D01*
X111950666Y-135429523D01*
X111855428Y-135334285D01*
X111760190Y-135143809D01*
X111760190Y-134572380D01*
X111855428Y-134381904D01*
X111950666Y-134286666D01*
X112141142Y-134191428D01*
X112522095Y-134191428D01*
X112712571Y-134286666D01*
X113569714Y-135524761D02*
X113569714Y-133524761D01*
X114236380Y-134953333D01*
X114903047Y-133524761D01*
X114903047Y-135524761D01*
X116712571Y-135524761D02*
X116712571Y-134477142D01*
X116617333Y-134286666D01*
X116426857Y-134191428D01*
X116045904Y-134191428D01*
X115855428Y-134286666D01*
X116712571Y-135429523D02*
X116522095Y-135524761D01*
X116045904Y-135524761D01*
X115855428Y-135429523D01*
X115760190Y-135239047D01*
X115760190Y-135048571D01*
X115855428Y-134858095D01*
X116045904Y-134762857D01*
X116522095Y-134762857D01*
X116712571Y-134667619D01*
X117664952Y-134191428D02*
X117664952Y-135524761D01*
X117664952Y-134381904D02*
X117760190Y-134286666D01*
X117950666Y-134191428D01*
X118236380Y-134191428D01*
X118426857Y-134286666D01*
X118522095Y-134477142D01*
X118522095Y-135524761D01*
D11*
X99298571Y-131262380D02*
X98727142Y-131262380D01*
X99012857Y-131262380D02*
X99012857Y-130262380D01*
X98917619Y-130405238D01*
X98822380Y-130500476D01*
X98727142Y-130548095D01*
X100250952Y-131262380D02*
X99679523Y-131262380D01*
X99965238Y-131262380D02*
X99965238Y-130262380D01*
X99870000Y-130405238D01*
X99774761Y-130500476D01*
X99679523Y-130548095D01*
X100679523Y-131167142D02*
X100727142Y-131214761D01*
X100679523Y-131262380D01*
X100631904Y-131214761D01*
X100679523Y-131167142D01*
X100679523Y-131262380D01*
X101584285Y-130595714D02*
X101584285Y-131262380D01*
X101346190Y-130214761D02*
X101108095Y-130929047D01*
X101727142Y-130929047D01*
X102012857Y-130262380D02*
X102631904Y-130262380D01*
X102298571Y-130643333D01*
X102441428Y-130643333D01*
X102536666Y-130690952D01*
X102584285Y-130738571D01*
X102631904Y-130833809D01*
X102631904Y-131071904D01*
X102584285Y-131167142D01*
X102536666Y-131214761D01*
X102441428Y-131262380D01*
X102155714Y-131262380D01*
X102060476Y-131214761D01*
X102012857Y-131167142D01*
X103250952Y-130262380D02*
X103346190Y-130262380D01*
X103441428Y-130310000D01*
X103489047Y-130357619D01*
X103536666Y-130452857D01*
X103584285Y-130643333D01*
X103584285Y-130881428D01*
X103536666Y-131071904D01*
X103489047Y-131167142D01*
X103441428Y-131214761D01*
X103346190Y-131262380D01*
X103250952Y-131262380D01*
X103155714Y-131214761D01*
X103108095Y-131167142D01*
X103060476Y-131071904D01*
X103012857Y-130881428D01*
X103012857Y-130643333D01*
X103060476Y-130452857D01*
X103108095Y-130357619D01*
X103155714Y-130310000D01*
X103250952Y-130262380D01*
X104774761Y-131262380D02*
X104774761Y-130595714D01*
X104774761Y-130690952D02*
X104822380Y-130643333D01*
X104917619Y-130595714D01*
X105060476Y-130595714D01*
X105155714Y-130643333D01*
X105203333Y-130738571D01*
X105203333Y-131262380D01*
X105203333Y-130738571D02*
X105250952Y-130643333D01*
X105346190Y-130595714D01*
X105489047Y-130595714D01*
X105584285Y-130643333D01*
X105631904Y-130738571D01*
X105631904Y-131262380D01*
X106108095Y-131262380D02*
X106108095Y-130595714D01*
X106108095Y-130690952D02*
X106155714Y-130643333D01*
X106250952Y-130595714D01*
X106393809Y-130595714D01*
X106489047Y-130643333D01*
X106536666Y-130738571D01*
X106536666Y-131262380D01*
X106536666Y-130738571D02*
X106584285Y-130643333D01*
X106679523Y-130595714D01*
X106822380Y-130595714D01*
X106917619Y-130643333D01*
X106965238Y-130738571D01*
X106965238Y-131262380D01*
D13*
X97155000Y-129540000D02*
X108585000Y-129540000D01*
X97155000Y-128778001D02*
X97155000Y-130126421D01*
X108585000Y-128778001D02*
X108585000Y-130126421D01*
X108585000Y-129540000D02*
X107458496Y-130126421D01*
X108585000Y-129540000D02*
X107458496Y-128953579D01*
X97155000Y-129540000D02*
X98281504Y-130126421D01*
X97155000Y-129540000D02*
X98281504Y-128953579D01*
D14*
%TO.C,Ref\u002A\u002A*%
G36*
X61635982Y-136366483D02*
G01*
X61679494Y-136397361D01*
X61679667Y-136400299D01*
X61663332Y-136458321D01*
X61619385Y-136574041D01*
X61555408Y-136728152D01*
X61509808Y-136832718D01*
X61439915Y-136996535D01*
X61388380Y-137129762D01*
X61361676Y-137214893D01*
X61360644Y-137236088D01*
X61407702Y-137232546D01*
X61507463Y-137201728D01*
X61599648Y-137166058D01*
X61725569Y-137116051D01*
X61819260Y-137083100D01*
X61851484Y-137075333D01*
X61853670Y-137113592D01*
X61836067Y-137218356D01*
X61801742Y-137374606D01*
X61753763Y-137567326D01*
X61741567Y-137613550D01*
X61677691Y-137866751D01*
X61641591Y-138043613D01*
X61632677Y-138147570D01*
X61644224Y-138180259D01*
X61650792Y-138231620D01*
X61599358Y-138337372D01*
X61555963Y-138404042D01*
X61480692Y-138510504D01*
X61426665Y-138581436D01*
X61409167Y-138599333D01*
X61390698Y-138563007D01*
X61358919Y-138471627D01*
X61344681Y-138425593D01*
X61306813Y-138302928D01*
X61276055Y-138209560D01*
X61269951Y-138192760D01*
X61280821Y-138141424D01*
X61311181Y-138133667D01*
X61362804Y-138091791D01*
X61421695Y-137967220D01*
X61463877Y-137841345D01*
X61507357Y-137695331D01*
X61539007Y-137583584D01*
X61552550Y-137528338D01*
X61552667Y-137526810D01*
X61517084Y-137530063D01*
X61423827Y-137559973D01*
X61293893Y-137609747D01*
X61160046Y-137660665D01*
X61060448Y-137692053D01*
X61017423Y-137697201D01*
X61022308Y-137652587D01*
X61047231Y-137540743D01*
X61088701Y-137375769D01*
X61143226Y-137171767D01*
X61183098Y-137028169D01*
X61366468Y-136376833D01*
X61523067Y-136363694D01*
X61635982Y-136366483D01*
G37*
X61635982Y-136366483D02*
X61679494Y-136397361D01*
X61679667Y-136400299D01*
X61663332Y-136458321D01*
X61619385Y-136574041D01*
X61555408Y-136728152D01*
X61509808Y-136832718D01*
X61439915Y-136996535D01*
X61388380Y-137129762D01*
X61361676Y-137214893D01*
X61360644Y-137236088D01*
X61407702Y-137232546D01*
X61507463Y-137201728D01*
X61599648Y-137166058D01*
X61725569Y-137116051D01*
X61819260Y-137083100D01*
X61851484Y-137075333D01*
X61853670Y-137113592D01*
X61836067Y-137218356D01*
X61801742Y-137374606D01*
X61753763Y-137567326D01*
X61741567Y-137613550D01*
X61677691Y-137866751D01*
X61641591Y-138043613D01*
X61632677Y-138147570D01*
X61644224Y-138180259D01*
X61650792Y-138231620D01*
X61599358Y-138337372D01*
X61555963Y-138404042D01*
X61480692Y-138510504D01*
X61426665Y-138581436D01*
X61409167Y-138599333D01*
X61390698Y-138563007D01*
X61358919Y-138471627D01*
X61344681Y-138425593D01*
X61306813Y-138302928D01*
X61276055Y-138209560D01*
X61269951Y-138192760D01*
X61280821Y-138141424D01*
X61311181Y-138133667D01*
X61362804Y-138091791D01*
X61421695Y-137967220D01*
X61463877Y-137841345D01*
X61507357Y-137695331D01*
X61539007Y-137583584D01*
X61552550Y-137528338D01*
X61552667Y-137526810D01*
X61517084Y-137530063D01*
X61423827Y-137559973D01*
X61293893Y-137609747D01*
X61160046Y-137660665D01*
X61060448Y-137692053D01*
X61017423Y-137697201D01*
X61022308Y-137652587D01*
X61047231Y-137540743D01*
X61088701Y-137375769D01*
X61143226Y-137171767D01*
X61183098Y-137028169D01*
X61366468Y-136376833D01*
X61523067Y-136363694D01*
X61635982Y-136366483D01*
G36*
X61494445Y-134900379D02*
G01*
X61553796Y-134943651D01*
X61588586Y-134994046D01*
X61659778Y-135108681D01*
X61762630Y-135279338D01*
X61892396Y-135497801D01*
X62044336Y-135755855D01*
X62213704Y-136045282D01*
X62395760Y-136357867D01*
X62585758Y-136685394D01*
X62778957Y-137019645D01*
X62970612Y-137352406D01*
X63155982Y-137675459D01*
X63330322Y-137980588D01*
X63488890Y-138259578D01*
X63626943Y-138504211D01*
X63739737Y-138706272D01*
X63822530Y-138857545D01*
X63870578Y-138949812D01*
X63881000Y-138974964D01*
X63853888Y-139035578D01*
X63814476Y-139083143D01*
X63792397Y-139097757D01*
X63753349Y-139110095D01*
X63690671Y-139120345D01*
X63597699Y-139128693D01*
X63467773Y-139135328D01*
X63294229Y-139140438D01*
X63070408Y-139144209D01*
X62789645Y-139146829D01*
X62445281Y-139148486D01*
X62030652Y-139149368D01*
X61539096Y-139149662D01*
X61451901Y-139149667D01*
X60930798Y-139149282D01*
X60488453Y-139148035D01*
X60118957Y-139145789D01*
X59816405Y-139142406D01*
X59574888Y-139137749D01*
X59388501Y-139131679D01*
X59251337Y-139124059D01*
X59157488Y-139114751D01*
X59101048Y-139103618D01*
X59080237Y-139094378D01*
X59025171Y-139014459D01*
X59019229Y-138953539D01*
X59044541Y-138892020D01*
X59107944Y-138767644D01*
X59138111Y-138711789D01*
X59563000Y-138711789D01*
X59603919Y-138714798D01*
X59721017Y-138717597D01*
X59905809Y-138720121D01*
X60149807Y-138722303D01*
X60444525Y-138724079D01*
X60781477Y-138725383D01*
X61152174Y-138726150D01*
X61451015Y-138726333D01*
X63339030Y-138726333D01*
X63258024Y-138588750D01*
X63219838Y-138522608D01*
X63144787Y-138391470D01*
X63037793Y-138203975D01*
X62903778Y-137968765D01*
X62747664Y-137694479D01*
X62574372Y-137389758D01*
X62388824Y-137063241D01*
X62316278Y-136935514D01*
X62130525Y-136610600D01*
X61956948Y-136311156D01*
X61800067Y-136044673D01*
X61664400Y-135818639D01*
X61554468Y-135640544D01*
X61474790Y-135517877D01*
X61429886Y-135458129D01*
X61422139Y-135453848D01*
X61395819Y-135495504D01*
X61333281Y-135601223D01*
X61239717Y-135761901D01*
X61120321Y-135968438D01*
X60980288Y-136211731D01*
X60824810Y-136482681D01*
X60659082Y-136772184D01*
X60488297Y-137071140D01*
X60317649Y-137370448D01*
X60152332Y-137661006D01*
X59997539Y-137933712D01*
X59858464Y-138179465D01*
X59740301Y-138389164D01*
X59648243Y-138553707D01*
X59587485Y-138663993D01*
X59563219Y-138710920D01*
X59563000Y-138711789D01*
X59138111Y-138711789D01*
X59204658Y-138588576D01*
X59329899Y-138362981D01*
X59478887Y-138099024D01*
X59646840Y-137804873D01*
X59828976Y-137488691D01*
X60020512Y-137158645D01*
X60216668Y-136822901D01*
X60412661Y-136489624D01*
X60603709Y-136166979D01*
X60785032Y-135863132D01*
X60951846Y-135586250D01*
X61099371Y-135344497D01*
X61222824Y-135146039D01*
X61317423Y-134999042D01*
X61378387Y-134911671D01*
X61398673Y-134890298D01*
X61494445Y-134900379D01*
G37*
X61494445Y-134900379D02*
X61553796Y-134943651D01*
X61588586Y-134994046D01*
X61659778Y-135108681D01*
X61762630Y-135279338D01*
X61892396Y-135497801D01*
X62044336Y-135755855D01*
X62213704Y-136045282D01*
X62395760Y-136357867D01*
X62585758Y-136685394D01*
X62778957Y-137019645D01*
X62970612Y-137352406D01*
X63155982Y-137675459D01*
X63330322Y-137980588D01*
X63488890Y-138259578D01*
X63626943Y-138504211D01*
X63739737Y-138706272D01*
X63822530Y-138857545D01*
X63870578Y-138949812D01*
X63881000Y-138974964D01*
X63853888Y-139035578D01*
X63814476Y-139083143D01*
X63792397Y-139097757D01*
X63753349Y-139110095D01*
X63690671Y-139120345D01*
X63597699Y-139128693D01*
X63467773Y-139135328D01*
X63294229Y-139140438D01*
X63070408Y-139144209D01*
X62789645Y-139146829D01*
X62445281Y-139148486D01*
X62030652Y-139149368D01*
X61539096Y-139149662D01*
X61451901Y-139149667D01*
X60930798Y-139149282D01*
X60488453Y-139148035D01*
X60118957Y-139145789D01*
X59816405Y-139142406D01*
X59574888Y-139137749D01*
X59388501Y-139131679D01*
X59251337Y-139124059D01*
X59157488Y-139114751D01*
X59101048Y-139103618D01*
X59080237Y-139094378D01*
X59025171Y-139014459D01*
X59019229Y-138953539D01*
X59044541Y-138892020D01*
X59107944Y-138767644D01*
X59138111Y-138711789D01*
X59563000Y-138711789D01*
X59603919Y-138714798D01*
X59721017Y-138717597D01*
X59905809Y-138720121D01*
X60149807Y-138722303D01*
X60444525Y-138724079D01*
X60781477Y-138725383D01*
X61152174Y-138726150D01*
X61451015Y-138726333D01*
X63339030Y-138726333D01*
X63258024Y-138588750D01*
X63219838Y-138522608D01*
X63144787Y-138391470D01*
X63037793Y-138203975D01*
X62903778Y-137968765D01*
X62747664Y-137694479D01*
X62574372Y-137389758D01*
X62388824Y-137063241D01*
X62316278Y-136935514D01*
X62130525Y-136610600D01*
X61956948Y-136311156D01*
X61800067Y-136044673D01*
X61664400Y-135818639D01*
X61554468Y-135640544D01*
X61474790Y-135517877D01*
X61429886Y-135458129D01*
X61422139Y-135453848D01*
X61395819Y-135495504D01*
X61333281Y-135601223D01*
X61239717Y-135761901D01*
X61120321Y-135968438D01*
X60980288Y-136211731D01*
X60824810Y-136482681D01*
X60659082Y-136772184D01*
X60488297Y-137071140D01*
X60317649Y-137370448D01*
X60152332Y-137661006D01*
X59997539Y-137933712D01*
X59858464Y-138179465D01*
X59740301Y-138389164D01*
X59648243Y-138553707D01*
X59587485Y-138663993D01*
X59563219Y-138710920D01*
X59563000Y-138711789D01*
X59138111Y-138711789D01*
X59204658Y-138588576D01*
X59329899Y-138362981D01*
X59478887Y-138099024D01*
X59646840Y-137804873D01*
X59828976Y-137488691D01*
X60020512Y-137158645D01*
X60216668Y-136822901D01*
X60412661Y-136489624D01*
X60603709Y-136166979D01*
X60785032Y-135863132D01*
X60951846Y-135586250D01*
X61099371Y-135344497D01*
X61222824Y-135146039D01*
X61317423Y-134999042D01*
X61378387Y-134911671D01*
X61398673Y-134890298D01*
X61494445Y-134900379D01*
%TO.C,G\u002A\u002A\u002A*%
G36*
X129416149Y-136111813D02*
G01*
X129056940Y-137091427D01*
X129600576Y-137091427D01*
X129805642Y-137091846D01*
X129949832Y-137093861D01*
X130042241Y-137098611D01*
X130091965Y-137107234D01*
X130108100Y-137120869D01*
X130099739Y-137140654D01*
X130089711Y-137152653D01*
X130061708Y-137189473D01*
X129996995Y-137277537D01*
X129899622Y-137411215D01*
X129773640Y-137584877D01*
X129623100Y-137792893D01*
X129452052Y-138029633D01*
X129264547Y-138289466D01*
X129064636Y-138566763D01*
X128856370Y-138855893D01*
X128643800Y-139151227D01*
X128430975Y-139447134D01*
X128221947Y-139737985D01*
X128020767Y-140018148D01*
X127831485Y-140281995D01*
X127658153Y-140523895D01*
X127504819Y-140738217D01*
X127375537Y-140919333D01*
X127274355Y-141061611D01*
X127205326Y-141159422D01*
X127172499Y-141207136D01*
X127171780Y-141208265D01*
X127174543Y-141189674D01*
X127198309Y-141111209D01*
X127241011Y-140979056D01*
X127300583Y-140799402D01*
X127374959Y-140578431D01*
X127462072Y-140322332D01*
X127559855Y-140037288D01*
X127652841Y-139768142D01*
X127759724Y-139459551D01*
X127859231Y-139171885D01*
X127949085Y-138911757D01*
X128027006Y-138685778D01*
X128090718Y-138500560D01*
X128137942Y-138362716D01*
X128166401Y-138278858D01*
X128174138Y-138254987D01*
X128141177Y-138251836D01*
X128050394Y-138249166D01*
X127913941Y-138247186D01*
X127743966Y-138246108D01*
X127654214Y-138245973D01*
X127134291Y-138245973D01*
X127525051Y-137362570D01*
X127648594Y-137083003D01*
X127781933Y-136780805D01*
X127916710Y-136474947D01*
X128044569Y-136184400D01*
X128157154Y-135928135D01*
X128210848Y-135805683D01*
X128505883Y-135132199D01*
X129775357Y-135132199D01*
X129416149Y-136111813D01*
G37*
X129416149Y-136111813D02*
X129056940Y-137091427D01*
X129600576Y-137091427D01*
X129805642Y-137091846D01*
X129949832Y-137093861D01*
X130042241Y-137098611D01*
X130091965Y-137107234D01*
X130108100Y-137120869D01*
X130099739Y-137140654D01*
X130089711Y-137152653D01*
X130061708Y-137189473D01*
X129996995Y-137277537D01*
X129899622Y-137411215D01*
X129773640Y-137584877D01*
X129623100Y-137792893D01*
X129452052Y-138029633D01*
X129264547Y-138289466D01*
X129064636Y-138566763D01*
X128856370Y-138855893D01*
X128643800Y-139151227D01*
X128430975Y-139447134D01*
X128221947Y-139737985D01*
X128020767Y-140018148D01*
X127831485Y-140281995D01*
X127658153Y-140523895D01*
X127504819Y-140738217D01*
X127375537Y-140919333D01*
X127274355Y-141061611D01*
X127205326Y-141159422D01*
X127172499Y-141207136D01*
X127171780Y-141208265D01*
X127174543Y-141189674D01*
X127198309Y-141111209D01*
X127241011Y-140979056D01*
X127300583Y-140799402D01*
X127374959Y-140578431D01*
X127462072Y-140322332D01*
X127559855Y-140037288D01*
X127652841Y-139768142D01*
X127759724Y-139459551D01*
X127859231Y-139171885D01*
X127949085Y-138911757D01*
X128027006Y-138685778D01*
X128090718Y-138500560D01*
X128137942Y-138362716D01*
X128166401Y-138278858D01*
X128174138Y-138254987D01*
X128141177Y-138251836D01*
X128050394Y-138249166D01*
X127913941Y-138247186D01*
X127743966Y-138246108D01*
X127654214Y-138245973D01*
X127134291Y-138245973D01*
X127525051Y-137362570D01*
X127648594Y-137083003D01*
X127781933Y-136780805D01*
X127916710Y-136474947D01*
X128044569Y-136184400D01*
X128157154Y-135928135D01*
X128210848Y-135805683D01*
X128505883Y-135132199D01*
X129775357Y-135132199D01*
X129416149Y-136111813D01*
G36*
X123302661Y-135910988D02*
G01*
X123905818Y-136514884D01*
X123905818Y-139835646D01*
X124088802Y-140020931D01*
X124271786Y-140206217D01*
X123869759Y-140608243D01*
X123467733Y-141010270D01*
X123066654Y-140608050D01*
X122665576Y-140205830D01*
X123031162Y-139835646D01*
X123031162Y-139120628D01*
X122261465Y-139120628D01*
X122261465Y-139835646D01*
X122444449Y-140020931D01*
X122627433Y-140206217D01*
X121823380Y-141010270D01*
X121021224Y-140205830D01*
X121204016Y-140020738D01*
X121386810Y-139835646D01*
X121386810Y-138210986D01*
X122261465Y-138210986D01*
X123031162Y-138210986D01*
X123031162Y-137071990D01*
X122648087Y-136670620D01*
X122265011Y-136269251D01*
X122263238Y-137240119D01*
X122261465Y-138210986D01*
X121386810Y-138210986D01*
X121386810Y-136618422D01*
X122043157Y-135962757D01*
X122699505Y-135307091D01*
X123302661Y-135910988D01*
G37*
X123302661Y-135910988D02*
X123905818Y-136514884D01*
X123905818Y-139835646D01*
X124088802Y-140020931D01*
X124271786Y-140206217D01*
X123869759Y-140608243D01*
X123467733Y-141010270D01*
X123066654Y-140608050D01*
X122665576Y-140205830D01*
X123031162Y-139835646D01*
X123031162Y-139120628D01*
X122261465Y-139120628D01*
X122261465Y-139835646D01*
X122444449Y-140020931D01*
X122627433Y-140206217D01*
X121823380Y-141010270D01*
X121021224Y-140205830D01*
X121204016Y-140020738D01*
X121386810Y-139835646D01*
X121386810Y-138210986D01*
X122261465Y-138210986D01*
X123031162Y-138210986D01*
X123031162Y-137071990D01*
X122648087Y-136670620D01*
X122265011Y-136269251D01*
X122263238Y-137240119D01*
X122261465Y-138210986D01*
X121386810Y-138210986D01*
X121386810Y-136618422D01*
X122043157Y-135962757D01*
X122699505Y-135307091D01*
X123302661Y-135910988D01*
G36*
X126397136Y-135961679D02*
G01*
X127036039Y-136601283D01*
X126704765Y-136933940D01*
X126373492Y-137266597D01*
X125891859Y-136785886D01*
X125410226Y-136305174D01*
X125410226Y-137759091D01*
X126074537Y-137748882D01*
X126738849Y-137738672D01*
X126311219Y-138167254D01*
X125883590Y-138595835D01*
X125410226Y-138595835D01*
X125410226Y-139606874D01*
X125534933Y-139701994D01*
X125659641Y-139797113D01*
X126016411Y-139441558D01*
X126373180Y-139086002D01*
X126688803Y-139401625D01*
X127004425Y-139717248D01*
X126354845Y-140363566D01*
X126180340Y-140536587D01*
X126022292Y-140692125D01*
X125887385Y-140823697D01*
X125782304Y-140924821D01*
X125713732Y-140989012D01*
X125688546Y-141009884D01*
X125660135Y-140986205D01*
X125589585Y-140919800D01*
X125484039Y-140817616D01*
X125350639Y-140686602D01*
X125196526Y-140533704D01*
X125103699Y-140440972D01*
X124535570Y-139872060D01*
X124535570Y-136551604D01*
X125146902Y-135936840D01*
X125758234Y-135322075D01*
X126397136Y-135961679D01*
G37*
X126397136Y-135961679D02*
X127036039Y-136601283D01*
X126704765Y-136933940D01*
X126373492Y-137266597D01*
X125891859Y-136785886D01*
X125410226Y-136305174D01*
X125410226Y-137759091D01*
X126074537Y-137748882D01*
X126738849Y-137738672D01*
X126311219Y-138167254D01*
X125883590Y-138595835D01*
X125410226Y-138595835D01*
X125410226Y-139606874D01*
X125534933Y-139701994D01*
X125659641Y-139797113D01*
X126016411Y-139441558D01*
X126373180Y-139086002D01*
X126688803Y-139401625D01*
X127004425Y-139717248D01*
X126354845Y-140363566D01*
X126180340Y-140536587D01*
X126022292Y-140692125D01*
X125887385Y-140823697D01*
X125782304Y-140924821D01*
X125713732Y-140989012D01*
X125688546Y-141009884D01*
X125660135Y-140986205D01*
X125589585Y-140919800D01*
X125484039Y-140817616D01*
X125350639Y-140686602D01*
X125196526Y-140533704D01*
X125103699Y-140440972D01*
X124535570Y-139872060D01*
X124535570Y-136551604D01*
X125146902Y-135936840D01*
X125758234Y-135322075D01*
X126397136Y-135961679D01*
G36*
X132609094Y-135806121D02*
G01*
X133107195Y-136305113D01*
X133107195Y-137212495D01*
X132496357Y-137826177D01*
X132819269Y-138150437D01*
X133142182Y-138474698D01*
X133142182Y-139835646D01*
X133325166Y-140020931D01*
X133508149Y-140206217D01*
X132704096Y-141010270D01*
X131919312Y-140222694D01*
X132091904Y-140030270D01*
X132264497Y-139837846D01*
X132266011Y-139382428D01*
X132267526Y-138927011D01*
X131882678Y-138543356D01*
X131497829Y-138159700D01*
X131497829Y-139875463D01*
X131673146Y-140048144D01*
X131848464Y-140220825D01*
X131455053Y-140615355D01*
X131320179Y-140749260D01*
X131202343Y-140863693D01*
X131110396Y-140950262D01*
X131053184Y-141000577D01*
X131039023Y-141009884D01*
X131008378Y-140985858D01*
X130938426Y-140919504D01*
X130837856Y-140819412D01*
X130715358Y-140694171D01*
X130633510Y-140609024D01*
X130250618Y-140208164D01*
X130436896Y-140024200D01*
X130623173Y-139840236D01*
X130623173Y-137703343D01*
X131427857Y-137703343D01*
X131873759Y-137257440D01*
X132319662Y-136811537D01*
X131427857Y-135919732D01*
X131427857Y-137703343D01*
X130623173Y-137703343D01*
X130623173Y-136411225D01*
X130422879Y-136208818D01*
X130222585Y-136006412D01*
X130570914Y-135656771D01*
X130919244Y-135307130D01*
X132110993Y-135307130D01*
X132609094Y-135806121D01*
G37*
X132609094Y-135806121D02*
X133107195Y-136305113D01*
X133107195Y-137212495D01*
X132496357Y-137826177D01*
X132819269Y-138150437D01*
X133142182Y-138474698D01*
X133142182Y-139835646D01*
X133325166Y-140020931D01*
X133508149Y-140206217D01*
X132704096Y-141010270D01*
X131919312Y-140222694D01*
X132091904Y-140030270D01*
X132264497Y-139837846D01*
X132266011Y-139382428D01*
X132267526Y-138927011D01*
X131882678Y-138543356D01*
X131497829Y-138159700D01*
X131497829Y-139875463D01*
X131673146Y-140048144D01*
X131848464Y-140220825D01*
X131455053Y-140615355D01*
X131320179Y-140749260D01*
X131202343Y-140863693D01*
X131110396Y-140950262D01*
X131053184Y-141000577D01*
X131039023Y-141009884D01*
X131008378Y-140985858D01*
X130938426Y-140919504D01*
X130837856Y-140819412D01*
X130715358Y-140694171D01*
X130633510Y-140609024D01*
X130250618Y-140208164D01*
X130436896Y-140024200D01*
X130623173Y-139840236D01*
X130623173Y-137703343D01*
X131427857Y-137703343D01*
X131873759Y-137257440D01*
X132319662Y-136811537D01*
X131427857Y-135919732D01*
X131427857Y-137703343D01*
X130623173Y-137703343D01*
X130623173Y-136411225D01*
X130422879Y-136208818D01*
X130222585Y-136006412D01*
X130570914Y-135656771D01*
X130919244Y-135307130D01*
X132110993Y-135307130D01*
X132609094Y-135806121D01*
G36*
X135416292Y-135919394D02*
G01*
X136046038Y-136548412D01*
X136046038Y-139698592D01*
X134733332Y-141009934D01*
X133562016Y-139837096D01*
X133562016Y-139554625D01*
X134436672Y-139554625D01*
X134548987Y-139670504D01*
X134661301Y-139786384D01*
X134898849Y-139550656D01*
X135136397Y-139314929D01*
X135136397Y-136967663D01*
X134786534Y-136619113D01*
X134436672Y-136270564D01*
X134436672Y-139554625D01*
X133562016Y-139554625D01*
X133562016Y-136513405D01*
X134174281Y-135901890D01*
X134786545Y-135290376D01*
X135416292Y-135919394D01*
G37*
X135416292Y-135919394D02*
X136046038Y-136548412D01*
X136046038Y-139698592D01*
X134733332Y-141009934D01*
X133562016Y-139837096D01*
X133562016Y-139554625D01*
X134436672Y-139554625D01*
X134548987Y-139670504D01*
X134661301Y-139786384D01*
X134898849Y-139550656D01*
X135136397Y-139314929D01*
X135136397Y-136967663D01*
X134786534Y-136619113D01*
X134436672Y-136270564D01*
X134436672Y-139554625D01*
X133562016Y-139554625D01*
X133562016Y-136513405D01*
X134174281Y-135901890D01*
X134786545Y-135290376D01*
X135416292Y-135919394D01*
D11*
%TO.C,K1*%
X97790000Y-91440000D02*
X68580000Y-91440000D01*
X68580000Y-91440000D02*
X68580000Y-78740000D01*
X68580000Y-78740000D02*
X97790000Y-78740000D01*
X97790000Y-78740000D02*
X97790000Y-91440000D01*
D13*
%TO.C,Q2*%
X119605000Y-98025000D02*
X118105000Y-98025000D01*
X118105000Y-98025000D02*
X118105000Y-98295000D01*
X118105000Y-98295000D02*
X115275000Y-98295000D01*
X119605000Y-104925000D02*
X118105000Y-104925000D01*
X118105000Y-104925000D02*
X118105000Y-104655000D01*
X118105000Y-104655000D02*
X117005000Y-104655000D01*
%TO.C,J5*%
X135640000Y-95345000D02*
X135640000Y-100065000D01*
X135640000Y-100065000D02*
X145760000Y-100065000D01*
X145760000Y-100065000D02*
X145760000Y-95345000D01*
X145760000Y-95345000D02*
X135640000Y-95345000D01*
X137400000Y-95345000D02*
X137400000Y-95145000D01*
X137400000Y-95145000D02*
X137100000Y-95145000D01*
X137100000Y-95145000D02*
X137100000Y-95345000D01*
X137400000Y-95245000D02*
X137100000Y-95245000D01*
X138200000Y-95345000D02*
X138200000Y-95955000D01*
X138200000Y-95955000D02*
X136250000Y-95955000D01*
X136250000Y-95955000D02*
X136250000Y-99455000D01*
X136250000Y-99455000D02*
X145150000Y-99455000D01*
X145150000Y-99455000D02*
X145150000Y-95955000D01*
X145150000Y-95955000D02*
X143200000Y-95955000D01*
X143200000Y-95955000D02*
X143200000Y-95345000D01*
X135640000Y-96655000D02*
X136250000Y-96655000D01*
X135640000Y-97955000D02*
X136250000Y-97955000D01*
X145760000Y-96655000D02*
X145150000Y-96655000D01*
X145760000Y-97955000D02*
X145150000Y-97955000D01*
X138600000Y-99455000D02*
X138600000Y-98955000D01*
X138600000Y-98955000D02*
X138800000Y-98955000D01*
X138800000Y-98955000D02*
X138800000Y-99455000D01*
X138700000Y-99455000D02*
X138700000Y-98955000D01*
X140600000Y-99455000D02*
X140600000Y-98955000D01*
X140600000Y-98955000D02*
X140800000Y-98955000D01*
X140800000Y-98955000D02*
X140800000Y-99455000D01*
X140700000Y-99455000D02*
X140700000Y-98955000D01*
X142600000Y-99455000D02*
X142600000Y-98955000D01*
X142600000Y-98955000D02*
X142800000Y-98955000D01*
X142800000Y-98955000D02*
X142800000Y-99455000D01*
X142700000Y-99455000D02*
X142700000Y-98955000D01*
X136590000Y-95045000D02*
X135340000Y-95045000D01*
X135340000Y-95045000D02*
X135340000Y-96295000D01*
%TO.C,R9*%
X81280000Y-127465000D02*
X81280000Y-126285000D01*
X81280000Y-99865000D02*
X81280000Y-101045000D01*
X85900000Y-126285000D02*
X85900000Y-101045000D01*
X76660000Y-126285000D02*
X85900000Y-126285000D01*
X76660000Y-101045000D02*
X76660000Y-126285000D01*
X85900000Y-101045000D02*
X76660000Y-101045000D01*
%TO.C,R1*%
X69850000Y-127465000D02*
X69850000Y-126285000D01*
X69850000Y-99865000D02*
X69850000Y-101045000D01*
X74470000Y-126285000D02*
X74470000Y-101045000D01*
X65230000Y-126285000D02*
X74470000Y-126285000D01*
X65230000Y-101045000D02*
X65230000Y-126285000D01*
X74470000Y-101045000D02*
X65230000Y-101045000D01*
D15*
%TO.C,J13*%
X146130000Y-92275000D02*
X105330000Y-92275000D01*
X105330000Y-92275000D02*
X105330000Y-76725000D01*
X105330000Y-76725000D02*
X105330000Y-74425000D01*
X105330000Y-74425000D02*
X114030000Y-74425000D01*
X114030000Y-74425000D02*
X146130000Y-74425000D01*
X146130000Y-74425000D02*
X146130000Y-76725000D01*
X146130000Y-76725000D02*
X146130000Y-92275000D01*
X105330000Y-76725000D02*
X146130000Y-76725000D01*
D16*
X129980000Y-93225000D02*
G75*
G03*
X129980000Y-93225000I-250000J0D01*
G01*
D13*
%TO.C,Q1*%
X99340000Y-83195000D02*
X100800000Y-83195000D01*
X99340000Y-86355000D02*
X102500000Y-86355000D01*
X99340000Y-86355000D02*
X99340000Y-85425000D01*
X99340000Y-83195000D02*
X99340000Y-84125000D01*
%TO.C,R6*%
X117667224Y-94522500D02*
X117157776Y-94522500D01*
X117667224Y-93477500D02*
X117157776Y-93477500D01*
%TO.C,R3*%
X103617500Y-81177224D02*
X103617500Y-80667776D01*
X104662500Y-81177224D02*
X104662500Y-80667776D01*
%TO.C,R2*%
X104662500Y-84557776D02*
X104662500Y-85067224D01*
X103617500Y-84557776D02*
X103617500Y-85067224D01*
%TO.C,K2*%
X145451000Y-117301000D02*
X143251000Y-117301000D01*
X145451000Y-115201000D02*
X145451000Y-117301000D01*
X145251000Y-104401000D02*
X145251000Y-117101000D01*
X137451000Y-104401000D02*
X145251000Y-104401000D01*
X137451000Y-117101000D02*
X137451000Y-104401000D01*
X145251000Y-117101000D02*
X137451000Y-117101000D01*
X140905000Y-111991000D02*
X141540000Y-110975000D01*
X143089000Y-112118000D02*
X143089000Y-111483000D01*
X143089000Y-111483000D02*
X142429000Y-111483000D01*
X139889000Y-112118000D02*
X139889000Y-111483000D01*
X139889000Y-111483000D02*
X140524000Y-111483000D01*
X140524000Y-111991000D02*
X142429000Y-111991000D01*
X142429000Y-111991000D02*
X142429000Y-110975000D01*
X142429000Y-110975000D02*
X140524000Y-110975000D01*
X140524000Y-111991000D02*
X140524000Y-110975000D01*
%TO.C,J12*%
X118899000Y-107843000D02*
X125919000Y-107843000D01*
X125919000Y-107843000D02*
X125919000Y-109043000D01*
X125919000Y-109043000D02*
X127619000Y-109043000D01*
X127619000Y-109043000D02*
X127619000Y-114723000D01*
X127619000Y-114723000D02*
X125919000Y-114723000D01*
X125919000Y-114723000D02*
X125919000Y-115923000D01*
X125919000Y-115923000D02*
X118899000Y-115923000D01*
X118899000Y-115923000D02*
X118899000Y-107843000D01*
X123809000Y-107643000D02*
X123509000Y-107043000D01*
X123509000Y-107043000D02*
X124109000Y-107043000D01*
X124109000Y-107043000D02*
X123809000Y-107643000D01*
%TO.C,J11*%
X108231000Y-117241000D02*
X115251000Y-117241000D01*
X115251000Y-117241000D02*
X115251000Y-118441000D01*
X115251000Y-118441000D02*
X116951000Y-118441000D01*
X116951000Y-118441000D02*
X116951000Y-124121000D01*
X116951000Y-124121000D02*
X115251000Y-124121000D01*
X115251000Y-124121000D02*
X115251000Y-125321000D01*
X115251000Y-125321000D02*
X108231000Y-125321000D01*
X108231000Y-125321000D02*
X108231000Y-117241000D01*
X113141000Y-117041000D02*
X112841000Y-116441000D01*
X112841000Y-116441000D02*
X113441000Y-116441000D01*
X113441000Y-116441000D02*
X113141000Y-117041000D01*
%TO.C,J10*%
X119153000Y-117495000D02*
X126173000Y-117495000D01*
X126173000Y-117495000D02*
X126173000Y-118695000D01*
X126173000Y-118695000D02*
X127873000Y-118695000D01*
X127873000Y-118695000D02*
X127873000Y-124375000D01*
X127873000Y-124375000D02*
X126173000Y-124375000D01*
X126173000Y-124375000D02*
X126173000Y-125575000D01*
X126173000Y-125575000D02*
X119153000Y-125575000D01*
X119153000Y-125575000D02*
X119153000Y-117495000D01*
X124063000Y-117295000D02*
X123763000Y-116695000D01*
X123763000Y-116695000D02*
X124363000Y-116695000D01*
X124363000Y-116695000D02*
X124063000Y-117295000D01*
%TO.C,J9*%
X108231000Y-107843000D02*
X115251000Y-107843000D01*
X115251000Y-107843000D02*
X115251000Y-109043000D01*
X115251000Y-109043000D02*
X116951000Y-109043000D01*
X116951000Y-109043000D02*
X116951000Y-114723000D01*
X116951000Y-114723000D02*
X115251000Y-114723000D01*
X115251000Y-114723000D02*
X115251000Y-115923000D01*
X115251000Y-115923000D02*
X108231000Y-115923000D01*
X108231000Y-115923000D02*
X108231000Y-107843000D01*
X113141000Y-107643000D02*
X112841000Y-107043000D01*
X112841000Y-107043000D02*
X113441000Y-107043000D01*
X113441000Y-107043000D02*
X113141000Y-107643000D01*
%TO.C,J4*%
X134440000Y-123190000D02*
X134440000Y-127910000D01*
X134440000Y-127910000D02*
X144560000Y-127910000D01*
X144560000Y-127910000D02*
X144560000Y-123190000D01*
X144560000Y-123190000D02*
X134440000Y-123190000D01*
X136200000Y-123190000D02*
X136200000Y-122990000D01*
X136200000Y-122990000D02*
X135900000Y-122990000D01*
X135900000Y-122990000D02*
X135900000Y-123190000D01*
X136200000Y-123090000D02*
X135900000Y-123090000D01*
X137000000Y-123190000D02*
X137000000Y-123800000D01*
X137000000Y-123800000D02*
X135050000Y-123800000D01*
X135050000Y-123800000D02*
X135050000Y-127300000D01*
X135050000Y-127300000D02*
X143950000Y-127300000D01*
X143950000Y-127300000D02*
X143950000Y-123800000D01*
X143950000Y-123800000D02*
X142000000Y-123800000D01*
X142000000Y-123800000D02*
X142000000Y-123190000D01*
X134440000Y-124500000D02*
X135050000Y-124500000D01*
X134440000Y-125800000D02*
X135050000Y-125800000D01*
X144560000Y-124500000D02*
X143950000Y-124500000D01*
X144560000Y-125800000D02*
X143950000Y-125800000D01*
X137400000Y-127300000D02*
X137400000Y-126800000D01*
X137400000Y-126800000D02*
X137600000Y-126800000D01*
X137600000Y-126800000D02*
X137600000Y-127300000D01*
X137500000Y-127300000D02*
X137500000Y-126800000D01*
X139400000Y-127300000D02*
X139400000Y-126800000D01*
X139400000Y-126800000D02*
X139600000Y-126800000D01*
X139600000Y-126800000D02*
X139600000Y-127300000D01*
X139500000Y-127300000D02*
X139500000Y-126800000D01*
X141400000Y-127300000D02*
X141400000Y-126800000D01*
X141400000Y-126800000D02*
X141600000Y-126800000D01*
X141600000Y-126800000D02*
X141600000Y-127300000D01*
X141500000Y-127300000D02*
X141500000Y-126800000D01*
X135390000Y-122890000D02*
X134140000Y-122890000D01*
X134140000Y-122890000D02*
X134140000Y-124140000D01*
%TO.C,J3*%
X75942000Y-135061000D02*
G75*
G03*
X75942000Y-135061000I-250000J0D01*
G01*
X75692000Y-142971000D02*
X72482000Y-142971000D01*
X72482000Y-142971000D02*
X72482000Y-134751000D01*
X72482000Y-134751000D02*
X73902000Y-134751000D01*
X73902000Y-134751000D02*
X73902000Y-135701000D01*
X73902000Y-135701000D02*
X75692000Y-135701000D01*
X75692000Y-142971000D02*
X78902000Y-142971000D01*
X78902000Y-142971000D02*
X78902000Y-134751000D01*
X78902000Y-134751000D02*
X77482000Y-134751000D01*
X77482000Y-134751000D02*
X77482000Y-135701000D01*
X77482000Y-135701000D02*
X75692000Y-135701000D01*
%TO.C,J2*%
X57400000Y-118170000D02*
G75*
G03*
X57400000Y-118170000I-250000J0D01*
G01*
X57150000Y-126080000D02*
X53940000Y-126080000D01*
X53940000Y-126080000D02*
X53940000Y-117860000D01*
X53940000Y-117860000D02*
X55360000Y-117860000D01*
X55360000Y-117860000D02*
X55360000Y-118810000D01*
X55360000Y-118810000D02*
X57150000Y-118810000D01*
X57150000Y-126080000D02*
X60360000Y-126080000D01*
X60360000Y-126080000D02*
X60360000Y-117860000D01*
X60360000Y-117860000D02*
X58940000Y-117860000D01*
X58940000Y-117860000D02*
X58940000Y-118810000D01*
X58940000Y-118810000D02*
X57150000Y-118810000D01*
%TO.C,J1*%
X95627000Y-135315000D02*
G75*
G03*
X95627000Y-135315000I-250000J0D01*
G01*
X95377000Y-143225000D02*
X92167000Y-143225000D01*
X92167000Y-143225000D02*
X92167000Y-135005000D01*
X92167000Y-135005000D02*
X93587000Y-135005000D01*
X93587000Y-135005000D02*
X93587000Y-135955000D01*
X93587000Y-135955000D02*
X95377000Y-135955000D01*
X95377000Y-143225000D02*
X98587000Y-143225000D01*
X98587000Y-143225000D02*
X98587000Y-135005000D01*
X98587000Y-135005000D02*
X97167000Y-135005000D01*
X97167000Y-135005000D02*
X97167000Y-135955000D01*
X97167000Y-135955000D02*
X95377000Y-135955000D01*
%TO.C,F2*%
X52350000Y-83820000D02*
X55150000Y-83820000D01*
X52350000Y-83820000D02*
X52350000Y-106320000D01*
X61950000Y-83820000D02*
X61950000Y-106320000D01*
X59150000Y-83820000D02*
X61950000Y-83820000D01*
X59150000Y-106320000D02*
X61950000Y-106320000D01*
X52350000Y-106320000D02*
X55150000Y-106320000D01*
%TO.C,F1*%
X87910000Y-100330000D02*
X90710000Y-100330000D01*
X87910000Y-100330000D02*
X87910000Y-122830000D01*
X97510000Y-100330000D02*
X97510000Y-122830000D01*
X94710000Y-100330000D02*
X97510000Y-100330000D01*
X94710000Y-122830000D02*
X97510000Y-122830000D01*
X87910000Y-122830000D02*
X90710000Y-122830000D01*
%TO.C,D7*%
X134760000Y-116080000D02*
X133300000Y-116080000D01*
X134760000Y-112920000D02*
X132600000Y-112920000D01*
X134760000Y-112920000D02*
X134760000Y-113850000D01*
X134760000Y-116080000D02*
X134760000Y-115150000D01*
%TO.C,D6*%
X114831000Y-126563000D02*
X114831000Y-128803000D01*
X114831000Y-128803000D02*
X119071000Y-128803000D01*
X119071000Y-128803000D02*
X119071000Y-126563000D01*
X119071000Y-126563000D02*
X114831000Y-126563000D01*
X114181000Y-127683000D02*
X114831000Y-127683000D01*
X119721000Y-127683000D02*
X119071000Y-127683000D01*
X115551000Y-126563000D02*
X115551000Y-128803000D01*
X115671000Y-126563000D02*
X115671000Y-128803000D01*
X115431000Y-126563000D02*
X115431000Y-128803000D01*
%TO.C,K1*%
D11*
X99004380Y-82526095D02*
X98004380Y-82526095D01*
X99004380Y-81954666D02*
X98432952Y-82383238D01*
X98004380Y-81954666D02*
X98575809Y-82526095D01*
X99004380Y-81002285D02*
X99004380Y-81573714D01*
X99004380Y-81288000D02*
X98004380Y-81288000D01*
X98147238Y-81383238D01*
X98242476Y-81478476D01*
X98290095Y-81573714D01*
%TO.C,Q2*%
X120479761Y-97522619D02*
X120384523Y-97475000D01*
X120289285Y-97379761D01*
X120146428Y-97236904D01*
X120051190Y-97189285D01*
X119955952Y-97189285D01*
X120003571Y-97427380D02*
X119908333Y-97379761D01*
X119813095Y-97284523D01*
X119765476Y-97094047D01*
X119765476Y-96760714D01*
X119813095Y-96570238D01*
X119908333Y-96475000D01*
X120003571Y-96427380D01*
X120194047Y-96427380D01*
X120289285Y-96475000D01*
X120384523Y-96570238D01*
X120432142Y-96760714D01*
X120432142Y-97094047D01*
X120384523Y-97284523D01*
X120289285Y-97379761D01*
X120194047Y-97427380D01*
X120003571Y-97427380D01*
X120813095Y-96522619D02*
X120860714Y-96475000D01*
X120955952Y-96427380D01*
X121194047Y-96427380D01*
X121289285Y-96475000D01*
X121336904Y-96522619D01*
X121384523Y-96617857D01*
X121384523Y-96713095D01*
X121336904Y-96855952D01*
X120765476Y-97427380D01*
X121384523Y-97427380D01*
%TO.C,J5*%
X140366666Y-93707380D02*
X140366666Y-94421666D01*
X140319047Y-94564523D01*
X140223809Y-94659761D01*
X140080952Y-94707380D01*
X139985714Y-94707380D01*
X141319047Y-93707380D02*
X140842857Y-93707380D01*
X140795238Y-94183571D01*
X140842857Y-94135952D01*
X140938095Y-94088333D01*
X141176190Y-94088333D01*
X141271428Y-94135952D01*
X141319047Y-94183571D01*
X141366666Y-94278809D01*
X141366666Y-94516904D01*
X141319047Y-94612142D01*
X141271428Y-94659761D01*
X141176190Y-94707380D01*
X140938095Y-94707380D01*
X140842857Y-94659761D01*
X140795238Y-94612142D01*
%TO.C,R9*%
X87352380Y-113831666D02*
X86876190Y-114165000D01*
X87352380Y-114403095D02*
X86352380Y-114403095D01*
X86352380Y-114022142D01*
X86400000Y-113926904D01*
X86447619Y-113879285D01*
X86542857Y-113831666D01*
X86685714Y-113831666D01*
X86780952Y-113879285D01*
X86828571Y-113926904D01*
X86876190Y-114022142D01*
X86876190Y-114403095D01*
X87352380Y-113355476D02*
X87352380Y-113165000D01*
X87304761Y-113069761D01*
X87257142Y-113022142D01*
X87114285Y-112926904D01*
X86923809Y-112879285D01*
X86542857Y-112879285D01*
X86447619Y-112926904D01*
X86400000Y-112974523D01*
X86352380Y-113069761D01*
X86352380Y-113260238D01*
X86400000Y-113355476D01*
X86447619Y-113403095D01*
X86542857Y-113450714D01*
X86780952Y-113450714D01*
X86876190Y-113403095D01*
X86923809Y-113355476D01*
X86971428Y-113260238D01*
X86971428Y-113069761D01*
X86923809Y-112974523D01*
X86876190Y-112926904D01*
X86780952Y-112879285D01*
%TO.C,R1*%
X75922380Y-113831666D02*
X75446190Y-114165000D01*
X75922380Y-114403095D02*
X74922380Y-114403095D01*
X74922380Y-114022142D01*
X74970000Y-113926904D01*
X75017619Y-113879285D01*
X75112857Y-113831666D01*
X75255714Y-113831666D01*
X75350952Y-113879285D01*
X75398571Y-113926904D01*
X75446190Y-114022142D01*
X75446190Y-114403095D01*
X75922380Y-112879285D02*
X75922380Y-113450714D01*
X75922380Y-113165000D02*
X74922380Y-113165000D01*
X75065238Y-113260238D01*
X75160476Y-113355476D01*
X75208095Y-113450714D01*
%TO.C,J13*%
D17*
X134795910Y-93101609D02*
X134795910Y-94102188D01*
X134729205Y-94302304D01*
X134595795Y-94435714D01*
X134395679Y-94502419D01*
X134262269Y-94502419D01*
X136196720Y-94502419D02*
X135396258Y-94502419D01*
X135796489Y-94502419D02*
X135796489Y-93101609D01*
X135663079Y-93301725D01*
X135529668Y-93435135D01*
X135396258Y-93501841D01*
X136663657Y-93101609D02*
X137530825Y-93101609D01*
X137063889Y-93635251D01*
X137264004Y-93635251D01*
X137397415Y-93701956D01*
X137464120Y-93768662D01*
X137530825Y-93902072D01*
X137530825Y-94235598D01*
X137464120Y-94369009D01*
X137397415Y-94435714D01*
X137264004Y-94502419D01*
X136863773Y-94502419D01*
X136730362Y-94435714D01*
X136663657Y-94369009D01*
X128055489Y-53059535D02*
X127988711Y-53126313D01*
X127788377Y-53193091D01*
X127654820Y-53193091D01*
X127454486Y-53126313D01*
X127320930Y-52992757D01*
X127254152Y-52859201D01*
X127187374Y-52592089D01*
X127187374Y-52391754D01*
X127254152Y-52124642D01*
X127320930Y-51991086D01*
X127454486Y-51857530D01*
X127654820Y-51790751D01*
X127788377Y-51790751D01*
X127988711Y-51857530D01*
X128055489Y-51924308D01*
X128856826Y-53193091D02*
X128723270Y-53126313D01*
X128656492Y-53059535D01*
X128589714Y-52925979D01*
X128589714Y-52525310D01*
X128656492Y-52391754D01*
X128723270Y-52324976D01*
X128856826Y-52258198D01*
X129057160Y-52258198D01*
X129190717Y-52324976D01*
X129257495Y-52391754D01*
X129324273Y-52525310D01*
X129324273Y-52925979D01*
X129257495Y-53059535D01*
X129190717Y-53126313D01*
X129057160Y-53193091D01*
X128856826Y-53193091D01*
X129925276Y-52258198D02*
X129925276Y-53193091D01*
X129925276Y-52391754D02*
X129992054Y-52324976D01*
X130125610Y-52258198D01*
X130325944Y-52258198D01*
X130459500Y-52324976D01*
X130526279Y-52458532D01*
X130526279Y-53193091D01*
X131194060Y-52258198D02*
X131194060Y-53193091D01*
X131194060Y-52391754D02*
X131260838Y-52324976D01*
X131394394Y-52258198D01*
X131594728Y-52258198D01*
X131728284Y-52324976D01*
X131795062Y-52458532D01*
X131795062Y-53193091D01*
X132128953Y-53326648D02*
X133197402Y-53326648D01*
X133798405Y-51790751D02*
X133931961Y-51790751D01*
X134065518Y-51857530D01*
X134132296Y-51924308D01*
X134199074Y-52057864D01*
X134265852Y-52324976D01*
X134265852Y-52658867D01*
X134199074Y-52925979D01*
X134132296Y-53059535D01*
X134065518Y-53126313D01*
X133931961Y-53193091D01*
X133798405Y-53193091D01*
X133664849Y-53126313D01*
X133598071Y-53059535D01*
X133531293Y-52925979D01*
X133464515Y-52658867D01*
X133464515Y-52324976D01*
X133531293Y-52057864D01*
X133598071Y-51924308D01*
X133664849Y-51857530D01*
X133798405Y-51790751D01*
X135601414Y-53193091D02*
X134800077Y-53193091D01*
X135200745Y-53193091D02*
X135200745Y-51790751D01*
X135067189Y-51991086D01*
X134933633Y-52124642D01*
X134800077Y-52191420D01*
X136068860Y-53193091D02*
X136803420Y-52258198D01*
X136068860Y-52258198D02*
X136803420Y-53193091D01*
X137604757Y-51790751D02*
X137738313Y-51790751D01*
X137871869Y-51857530D01*
X137938647Y-51924308D01*
X138005425Y-52057864D01*
X138072203Y-52324976D01*
X138072203Y-52658867D01*
X138005425Y-52925979D01*
X137938647Y-53059535D01*
X137871869Y-53126313D01*
X137738313Y-53193091D01*
X137604757Y-53193091D01*
X137471200Y-53126313D01*
X137404422Y-53059535D01*
X137337644Y-52925979D01*
X137270866Y-52658867D01*
X137270866Y-52324976D01*
X137337644Y-52057864D01*
X137404422Y-51924308D01*
X137471200Y-51857530D01*
X137604757Y-51790751D01*
X138873540Y-52391754D02*
X138739984Y-52324976D01*
X138673206Y-52258198D01*
X138606428Y-52124642D01*
X138606428Y-52057864D01*
X138673206Y-51924308D01*
X138739984Y-51857530D01*
X138873540Y-51790751D01*
X139140653Y-51790751D01*
X139274209Y-51857530D01*
X139340987Y-51924308D01*
X139407765Y-52057864D01*
X139407765Y-52124642D01*
X139340987Y-52258198D01*
X139274209Y-52324976D01*
X139140653Y-52391754D01*
X138873540Y-52391754D01*
X138739984Y-52458532D01*
X138673206Y-52525310D01*
X138606428Y-52658867D01*
X138606428Y-52925979D01*
X138673206Y-53059535D01*
X138739984Y-53126313D01*
X138873540Y-53193091D01*
X139140653Y-53193091D01*
X139274209Y-53126313D01*
X139340987Y-53059535D01*
X139407765Y-52925979D01*
X139407765Y-52658867D01*
X139340987Y-52525310D01*
X139274209Y-52458532D01*
X139140653Y-52391754D01*
%TO.C,Q1*%
D11*
X100004761Y-88431619D02*
X99909523Y-88384000D01*
X99814285Y-88288761D01*
X99671428Y-88145904D01*
X99576190Y-88098285D01*
X99480952Y-88098285D01*
X99528571Y-88336380D02*
X99433333Y-88288761D01*
X99338095Y-88193523D01*
X99290476Y-88003047D01*
X99290476Y-87669714D01*
X99338095Y-87479238D01*
X99433333Y-87384000D01*
X99528571Y-87336380D01*
X99719047Y-87336380D01*
X99814285Y-87384000D01*
X99909523Y-87479238D01*
X99957142Y-87669714D01*
X99957142Y-88003047D01*
X99909523Y-88193523D01*
X99814285Y-88288761D01*
X99719047Y-88336380D01*
X99528571Y-88336380D01*
X100909523Y-88336380D02*
X100338095Y-88336380D01*
X100623809Y-88336380D02*
X100623809Y-87336380D01*
X100528571Y-87479238D01*
X100433333Y-87574476D01*
X100338095Y-87622095D01*
%TO.C,R6*%
X117245833Y-95882380D02*
X116912500Y-95406190D01*
X116674404Y-95882380D02*
X116674404Y-94882380D01*
X117055357Y-94882380D01*
X117150595Y-94930000D01*
X117198214Y-94977619D01*
X117245833Y-95072857D01*
X117245833Y-95215714D01*
X117198214Y-95310952D01*
X117150595Y-95358571D01*
X117055357Y-95406190D01*
X116674404Y-95406190D01*
X118102976Y-94882380D02*
X117912500Y-94882380D01*
X117817261Y-94930000D01*
X117769642Y-94977619D01*
X117674404Y-95120476D01*
X117626785Y-95310952D01*
X117626785Y-95691904D01*
X117674404Y-95787142D01*
X117722023Y-95834761D01*
X117817261Y-95882380D01*
X118007738Y-95882380D01*
X118102976Y-95834761D01*
X118150595Y-95787142D01*
X118198214Y-95691904D01*
X118198214Y-95453809D01*
X118150595Y-95358571D01*
X118102976Y-95310952D01*
X118007738Y-95263333D01*
X117817261Y-95263333D01*
X117722023Y-95310952D01*
X117674404Y-95358571D01*
X117626785Y-95453809D01*
%TO.C,R3*%
X103162380Y-81089166D02*
X102686190Y-81422500D01*
X103162380Y-81660595D02*
X102162380Y-81660595D01*
X102162380Y-81279642D01*
X102210000Y-81184404D01*
X102257619Y-81136785D01*
X102352857Y-81089166D01*
X102495714Y-81089166D01*
X102590952Y-81136785D01*
X102638571Y-81184404D01*
X102686190Y-81279642D01*
X102686190Y-81660595D01*
X102162380Y-80755833D02*
X102162380Y-80136785D01*
X102543333Y-80470119D01*
X102543333Y-80327261D01*
X102590952Y-80232023D01*
X102638571Y-80184404D01*
X102733809Y-80136785D01*
X102971904Y-80136785D01*
X103067142Y-80184404D01*
X103114761Y-80232023D01*
X103162380Y-80327261D01*
X103162380Y-80612976D01*
X103114761Y-80708214D01*
X103067142Y-80755833D01*
%TO.C,R2*%
X106022380Y-84979166D02*
X105546190Y-85312500D01*
X106022380Y-85550595D02*
X105022380Y-85550595D01*
X105022380Y-85169642D01*
X105070000Y-85074404D01*
X105117619Y-85026785D01*
X105212857Y-84979166D01*
X105355714Y-84979166D01*
X105450952Y-85026785D01*
X105498571Y-85074404D01*
X105546190Y-85169642D01*
X105546190Y-85550595D01*
X105117619Y-84598214D02*
X105070000Y-84550595D01*
X105022380Y-84455357D01*
X105022380Y-84217261D01*
X105070000Y-84122023D01*
X105117619Y-84074404D01*
X105212857Y-84026785D01*
X105308095Y-84026785D01*
X105450952Y-84074404D01*
X106022380Y-84645833D01*
X106022380Y-84026785D01*
%TO.C,K2*%
X140612904Y-118453380D02*
X140612904Y-117453380D01*
X141184333Y-118453380D02*
X140755761Y-117881952D01*
X141184333Y-117453380D02*
X140612904Y-118024809D01*
X141565285Y-117548619D02*
X141612904Y-117501000D01*
X141708142Y-117453380D01*
X141946238Y-117453380D01*
X142041476Y-117501000D01*
X142089095Y-117548619D01*
X142136714Y-117643857D01*
X142136714Y-117739095D01*
X142089095Y-117881952D01*
X141517666Y-118453380D01*
X142136714Y-118453380D01*
%TO.C,J12*%
X128161380Y-112692523D02*
X128875666Y-112692523D01*
X129018523Y-112740142D01*
X129113761Y-112835380D01*
X129161380Y-112978238D01*
X129161380Y-113073476D01*
X129161380Y-111692523D02*
X129161380Y-112263952D01*
X129161380Y-111978238D02*
X128161380Y-111978238D01*
X128304238Y-112073476D01*
X128399476Y-112168714D01*
X128447095Y-112263952D01*
X128256619Y-111311571D02*
X128209000Y-111263952D01*
X128161380Y-111168714D01*
X128161380Y-110930619D01*
X128209000Y-110835380D01*
X128256619Y-110787761D01*
X128351857Y-110740142D01*
X128447095Y-110740142D01*
X128589952Y-110787761D01*
X129161380Y-111359190D01*
X129161380Y-110740142D01*
%TO.C,J11*%
X117493380Y-122090523D02*
X118207666Y-122090523D01*
X118350523Y-122138142D01*
X118445761Y-122233380D01*
X118493380Y-122376238D01*
X118493380Y-122471476D01*
X118493380Y-121090523D02*
X118493380Y-121661952D01*
X118493380Y-121376238D02*
X117493380Y-121376238D01*
X117636238Y-121471476D01*
X117731476Y-121566714D01*
X117779095Y-121661952D01*
X118493380Y-120138142D02*
X118493380Y-120709571D01*
X118493380Y-120423857D02*
X117493380Y-120423857D01*
X117636238Y-120519095D01*
X117731476Y-120614333D01*
X117779095Y-120709571D01*
%TO.C,J10*%
X128415380Y-122344523D02*
X129129666Y-122344523D01*
X129272523Y-122392142D01*
X129367761Y-122487380D01*
X129415380Y-122630238D01*
X129415380Y-122725476D01*
X129415380Y-121344523D02*
X129415380Y-121915952D01*
X129415380Y-121630238D02*
X128415380Y-121630238D01*
X128558238Y-121725476D01*
X128653476Y-121820714D01*
X128701095Y-121915952D01*
X128415380Y-120725476D02*
X128415380Y-120630238D01*
X128463000Y-120535000D01*
X128510619Y-120487380D01*
X128605857Y-120439761D01*
X128796333Y-120392142D01*
X129034428Y-120392142D01*
X129224904Y-120439761D01*
X129320142Y-120487380D01*
X129367761Y-120535000D01*
X129415380Y-120630238D01*
X129415380Y-120725476D01*
X129367761Y-120820714D01*
X129320142Y-120868333D01*
X129224904Y-120915952D01*
X129034428Y-120963571D01*
X128796333Y-120963571D01*
X128605857Y-120915952D01*
X128510619Y-120868333D01*
X128463000Y-120820714D01*
X128415380Y-120725476D01*
%TO.C,J9*%
X117493380Y-112216333D02*
X118207666Y-112216333D01*
X118350523Y-112263952D01*
X118445761Y-112359190D01*
X118493380Y-112502047D01*
X118493380Y-112597285D01*
X118493380Y-111692523D02*
X118493380Y-111502047D01*
X118445761Y-111406809D01*
X118398142Y-111359190D01*
X118255285Y-111263952D01*
X118064809Y-111216333D01*
X117683857Y-111216333D01*
X117588619Y-111263952D01*
X117541000Y-111311571D01*
X117493380Y-111406809D01*
X117493380Y-111597285D01*
X117541000Y-111692523D01*
X117588619Y-111740142D01*
X117683857Y-111787761D01*
X117921952Y-111787761D01*
X118017190Y-111740142D01*
X118064809Y-111692523D01*
X118112428Y-111597285D01*
X118112428Y-111406809D01*
X118064809Y-111311571D01*
X118017190Y-111263952D01*
X117921952Y-111216333D01*
%TO.C,J4*%
X139166666Y-121552380D02*
X139166666Y-122266666D01*
X139119047Y-122409523D01*
X139023809Y-122504761D01*
X138880952Y-122552380D01*
X138785714Y-122552380D01*
X140071428Y-121885714D02*
X140071428Y-122552380D01*
X139833333Y-121504761D02*
X139595238Y-122219047D01*
X140214285Y-122219047D01*
%TO.C,J3*%
X75358666Y-133113380D02*
X75358666Y-133827666D01*
X75311047Y-133970523D01*
X75215809Y-134065761D01*
X75072952Y-134113380D01*
X74977714Y-134113380D01*
X75739619Y-133113380D02*
X76358666Y-133113380D01*
X76025333Y-133494333D01*
X76168190Y-133494333D01*
X76263428Y-133541952D01*
X76311047Y-133589571D01*
X76358666Y-133684809D01*
X76358666Y-133922904D01*
X76311047Y-134018142D01*
X76263428Y-134065761D01*
X76168190Y-134113380D01*
X75882476Y-134113380D01*
X75787238Y-134065761D01*
X75739619Y-134018142D01*
%TO.C,J2*%
X56816666Y-116222380D02*
X56816666Y-116936666D01*
X56769047Y-117079523D01*
X56673809Y-117174761D01*
X56530952Y-117222380D01*
X56435714Y-117222380D01*
X57245238Y-116317619D02*
X57292857Y-116270000D01*
X57388095Y-116222380D01*
X57626190Y-116222380D01*
X57721428Y-116270000D01*
X57769047Y-116317619D01*
X57816666Y-116412857D01*
X57816666Y-116508095D01*
X57769047Y-116650952D01*
X57197619Y-117222380D01*
X57816666Y-117222380D01*
%TO.C,J1*%
X95043666Y-133367380D02*
X95043666Y-134081666D01*
X94996047Y-134224523D01*
X94900809Y-134319761D01*
X94757952Y-134367380D01*
X94662714Y-134367380D01*
X96043666Y-134367380D02*
X95472238Y-134367380D01*
X95757952Y-134367380D02*
X95757952Y-133367380D01*
X95662714Y-133510238D01*
X95567476Y-133605476D01*
X95472238Y-133653095D01*
%TO.C,H4*%
X53213095Y-134047380D02*
X53213095Y-133047380D01*
X53213095Y-133523571D02*
X53784523Y-133523571D01*
X53784523Y-134047380D02*
X53784523Y-133047380D01*
X54689285Y-133380714D02*
X54689285Y-134047380D01*
X54451190Y-132999761D02*
X54213095Y-133714047D01*
X54832142Y-133714047D01*
%TO.C,H3*%
X139573095Y-133412380D02*
X139573095Y-132412380D01*
X139573095Y-132888571D02*
X140144523Y-132888571D01*
X140144523Y-133412380D02*
X140144523Y-132412380D01*
X140525476Y-132412380D02*
X141144523Y-132412380D01*
X140811190Y-132793333D01*
X140954047Y-132793333D01*
X141049285Y-132840952D01*
X141096904Y-132888571D01*
X141144523Y-132983809D01*
X141144523Y-133221904D01*
X141096904Y-133317142D01*
X141049285Y-133364761D01*
X140954047Y-133412380D01*
X140668333Y-133412380D01*
X140573095Y-133364761D01*
X140525476Y-133317142D01*
%TO.C,H2*%
X104013095Y-95312380D02*
X104013095Y-94312380D01*
X104013095Y-94788571D02*
X104584523Y-94788571D01*
X104584523Y-95312380D02*
X104584523Y-94312380D01*
X105013095Y-94407619D02*
X105060714Y-94360000D01*
X105155952Y-94312380D01*
X105394047Y-94312380D01*
X105489285Y-94360000D01*
X105536904Y-94407619D01*
X105584523Y-94502857D01*
X105584523Y-94598095D01*
X105536904Y-94740952D01*
X104965476Y-95312380D01*
X105584523Y-95312380D01*
%TO.C,F2*%
X56816666Y-79938571D02*
X56483333Y-79938571D01*
X56483333Y-80462380D02*
X56483333Y-79462380D01*
X56959523Y-79462380D01*
X57292857Y-79557619D02*
X57340476Y-79510000D01*
X57435714Y-79462380D01*
X57673809Y-79462380D01*
X57769047Y-79510000D01*
X57816666Y-79557619D01*
X57864285Y-79652857D01*
X57864285Y-79748095D01*
X57816666Y-79890952D01*
X57245238Y-80462380D01*
X57864285Y-80462380D01*
%TO.C,F1*%
X92376666Y-96448571D02*
X92043333Y-96448571D01*
X92043333Y-96972380D02*
X92043333Y-95972380D01*
X92519523Y-95972380D01*
X93424285Y-96972380D02*
X92852857Y-96972380D01*
X93138571Y-96972380D02*
X93138571Y-95972380D01*
X93043333Y-96115238D01*
X92948095Y-96210476D01*
X92852857Y-96258095D01*
%TO.C,D7*%
X133261904Y-112452380D02*
X133261904Y-111452380D01*
X133500000Y-111452380D01*
X133642857Y-111500000D01*
X133738095Y-111595238D01*
X133785714Y-111690476D01*
X133833333Y-111880952D01*
X133833333Y-112023809D01*
X133785714Y-112214285D01*
X133738095Y-112309523D01*
X133642857Y-112404761D01*
X133500000Y-112452380D01*
X133261904Y-112452380D01*
X134166666Y-111452380D02*
X134833333Y-111452380D01*
X134404761Y-112452380D01*
%TO.C,D6*%
X116212904Y-126015380D02*
X116212904Y-125015380D01*
X116451000Y-125015380D01*
X116593857Y-125063000D01*
X116689095Y-125158238D01*
X116736714Y-125253476D01*
X116784333Y-125443952D01*
X116784333Y-125586809D01*
X116736714Y-125777285D01*
X116689095Y-125872523D01*
X116593857Y-125967761D01*
X116451000Y-126015380D01*
X116212904Y-126015380D01*
X117641476Y-125015380D02*
X117451000Y-125015380D01*
X117355761Y-125063000D01*
X117308142Y-125110619D01*
X117212904Y-125253476D01*
X117165285Y-125443952D01*
X117165285Y-125824904D01*
X117212904Y-125920142D01*
X117260523Y-125967761D01*
X117355761Y-126015380D01*
X117546238Y-126015380D01*
X117641476Y-125967761D01*
X117689095Y-125920142D01*
X117736714Y-125824904D01*
X117736714Y-125586809D01*
X117689095Y-125491571D01*
X117641476Y-125443952D01*
X117546238Y-125396333D01*
X117355761Y-125396333D01*
X117260523Y-125443952D01*
X117212904Y-125491571D01*
X117165285Y-125586809D01*
X112879095Y-126335380D02*
X112879095Y-125335380D01*
X113450523Y-126335380D02*
X113021952Y-125763952D01*
X113450523Y-125335380D02*
X112879095Y-125906809D01*
%TD*%
M02*
