%TF.GenerationSoftware,KiCad,Pcbnew,5.1.7-a382d34a8~88~ubuntu18.04.1*%
%TF.CreationDate,2021-03-18T09:08:07-04:00*%
%TF.ProjectId,Pacman2020,5061636d-616e-4323-9032-302e6b696361,rev?*%
%TF.SameCoordinates,Original*%
%TF.FileFunction,Soldermask,Bot*%
%TF.FilePolarity,Negative*%
%FSLAX46Y46*%
G04 Gerber Fmt 4.6, Leading zero omitted, Abs format (unit mm)*
G04 Created by KiCad (PCBNEW 5.1.7-a382d34a8~88~ubuntu18.04.1) date 2021-03-18 09:08:07*
%MOMM*%
%LPD*%
G01*
G04 APERTURE LIST*
%ADD10C,2.500000*%
%ADD11O,1.200000X1.750000*%
%ADD12O,2.400000X2.400000*%
%ADD13C,2.400000*%
%ADD14R,2.625000X2.625000*%
%ADD15C,2.625000*%
%ADD16C,2.850000*%
%ADD17C,2.000000*%
%ADD18R,2.000000X2.000000*%
%ADD19C,2.700000*%
%ADD20C,1.600000*%
%ADD21C,3.200000*%
%ADD22C,3.000000*%
%ADD23O,1.600000X1.600000*%
%ADD24R,1.600000X1.600000*%
%ADD25R,0.900000X1.200000*%
%ADD26R,1.200000X0.900000*%
G04 APERTURE END LIST*
D10*
%TO.C,K1*%
X78750000Y-81280000D03*
X75250000Y-88780000D03*
X71750000Y-81280000D03*
X95250000Y-88780000D03*
X95250000Y-81280000D03*
%TD*%
D11*
%TO.C,J5*%
X143700000Y-97155000D03*
X141700000Y-97155000D03*
X139700000Y-97155000D03*
G36*
G01*
X137100000Y-97780001D02*
X137100000Y-96529999D01*
G75*
G02*
X137349999Y-96280000I249999J0D01*
G01*
X138050001Y-96280000D01*
G75*
G02*
X138300000Y-96529999I0J-249999D01*
G01*
X138300000Y-97780001D01*
G75*
G02*
X138050001Y-98030000I-249999J0D01*
G01*
X137349999Y-98030000D01*
G75*
G02*
X137100000Y-97780001I0J249999D01*
G01*
G37*
%TD*%
D12*
%TO.C,R9*%
X81280000Y-128905000D03*
D13*
X81280000Y-98425000D03*
%TD*%
D12*
%TO.C,R1*%
X69850000Y-128905000D03*
D13*
X69850000Y-98425000D03*
%TD*%
D14*
%TO.C,J13*%
X129730000Y-90225000D03*
D15*
X125730000Y-90225000D03*
X121730000Y-90225000D03*
X127730000Y-86225000D03*
X123730000Y-86225000D03*
X129730000Y-82225000D03*
X125730000Y-82225000D03*
X121730000Y-82225000D03*
D16*
X136230000Y-85725000D03*
X115230000Y-85725000D03*
%TD*%
D17*
%TO.C,K2*%
X143851000Y-105641000D03*
X138771000Y-105641000D03*
X143851000Y-113261000D03*
D18*
X143851000Y-115801000D03*
D17*
X138771000Y-113261000D03*
X138771000Y-115801000D03*
%TD*%
D19*
%TO.C,J12*%
X123809000Y-113863000D03*
G36*
G01*
X122709001Y-108553000D02*
X124908999Y-108553000D01*
G75*
G02*
X125159000Y-108803001I0J-250001D01*
G01*
X125159000Y-111002999D01*
G75*
G02*
X124908999Y-111253000I-250001J0D01*
G01*
X122709001Y-111253000D01*
G75*
G02*
X122459000Y-111002999I0J250001D01*
G01*
X122459000Y-108803001D01*
G75*
G02*
X122709001Y-108553000I250001J0D01*
G01*
G37*
%TD*%
%TO.C,J11*%
X113141000Y-123261000D03*
G36*
G01*
X112041001Y-117951000D02*
X114240999Y-117951000D01*
G75*
G02*
X114491000Y-118201001I0J-250001D01*
G01*
X114491000Y-120400999D01*
G75*
G02*
X114240999Y-120651000I-250001J0D01*
G01*
X112041001Y-120651000D01*
G75*
G02*
X111791000Y-120400999I0J250001D01*
G01*
X111791000Y-118201001D01*
G75*
G02*
X112041001Y-117951000I250001J0D01*
G01*
G37*
%TD*%
%TO.C,J10*%
X124063000Y-123515000D03*
G36*
G01*
X122963001Y-118205000D02*
X125162999Y-118205000D01*
G75*
G02*
X125413000Y-118455001I0J-250001D01*
G01*
X125413000Y-120654999D01*
G75*
G02*
X125162999Y-120905000I-250001J0D01*
G01*
X122963001Y-120905000D01*
G75*
G02*
X122713000Y-120654999I0J250001D01*
G01*
X122713000Y-118455001D01*
G75*
G02*
X122963001Y-118205000I250001J0D01*
G01*
G37*
%TD*%
%TO.C,J9*%
X113141000Y-113863000D03*
G36*
G01*
X112041001Y-108553000D02*
X114240999Y-108553000D01*
G75*
G02*
X114491000Y-108803001I0J-250001D01*
G01*
X114491000Y-111002999D01*
G75*
G02*
X114240999Y-111253000I-250001J0D01*
G01*
X112041001Y-111253000D01*
G75*
G02*
X111791000Y-111002999I0J250001D01*
G01*
X111791000Y-108803001D01*
G75*
G02*
X112041001Y-108553000I250001J0D01*
G01*
G37*
%TD*%
D11*
%TO.C,J4*%
X142500000Y-125000000D03*
X140500000Y-125000000D03*
X138500000Y-125000000D03*
G36*
G01*
X135900000Y-125625001D02*
X135900000Y-124374999D01*
G75*
G02*
X136149999Y-124125000I249999J0D01*
G01*
X136850001Y-124125000D01*
G75*
G02*
X137100000Y-124374999I0J-249999D01*
G01*
X137100000Y-125625001D01*
G75*
G02*
X136850001Y-125875000I-249999J0D01*
G01*
X136149999Y-125875000D01*
G75*
G02*
X135900000Y-125625001I0J249999D01*
G01*
G37*
%TD*%
D20*
%TO.C,J3*%
X77192000Y-142061000D03*
G36*
G01*
X74462000Y-139961001D02*
X74462000Y-137660999D01*
G75*
G02*
X74711999Y-137411000I249999J0D01*
G01*
X76672001Y-137411000D01*
G75*
G02*
X76922000Y-137660999I0J-249999D01*
G01*
X76922000Y-139961001D01*
G75*
G02*
X76672001Y-140211000I-249999J0D01*
G01*
X74711999Y-140211000D01*
G75*
G02*
X74462000Y-139961001I0J249999D01*
G01*
G37*
%TD*%
%TO.C,J2*%
X58650000Y-125170000D03*
G36*
G01*
X55920000Y-123070001D02*
X55920000Y-120769999D01*
G75*
G02*
X56169999Y-120520000I249999J0D01*
G01*
X58130001Y-120520000D01*
G75*
G02*
X58380000Y-120769999I0J-249999D01*
G01*
X58380000Y-123070001D01*
G75*
G02*
X58130001Y-123320000I-249999J0D01*
G01*
X56169999Y-123320000D01*
G75*
G02*
X55920000Y-123070001I0J249999D01*
G01*
G37*
%TD*%
%TO.C,J1*%
X96877000Y-142315000D03*
G36*
G01*
X94147000Y-140215001D02*
X94147000Y-137914999D01*
G75*
G02*
X94396999Y-137665000I249999J0D01*
G01*
X96357001Y-137665000D01*
G75*
G02*
X96607000Y-137914999I0J-249999D01*
G01*
X96607000Y-140215001D01*
G75*
G02*
X96357001Y-140465000I-249999J0D01*
G01*
X94396999Y-140465000D01*
G75*
G02*
X94147000Y-140215001I0J249999D01*
G01*
G37*
%TD*%
D21*
%TO.C,H4*%
X53975000Y-137795000D03*
%TD*%
%TO.C,H3*%
X140335000Y-137160000D03*
%TD*%
%TO.C,H2*%
X104775000Y-99060000D03*
%TD*%
D22*
%TO.C,F2*%
X57150000Y-83820000D03*
X57150000Y-106320000D03*
D19*
X57150000Y-95070000D03*
%TD*%
D22*
%TO.C,F1*%
X92710000Y-100330000D03*
X92710000Y-122830000D03*
D19*
X92710000Y-111580000D03*
%TD*%
D23*
%TO.C,D6*%
X120761000Y-127683000D03*
D24*
X113141000Y-127683000D03*
%TD*%
D25*
%TO.C,D2*%
X140549000Y-109578000D03*
X143849000Y-109578000D03*
%TD*%
D26*
%TO.C,D1*%
X100330000Y-83440000D03*
X100330000Y-86740000D03*
%TD*%
M02*
