%TF.GenerationSoftware,KiCad,Pcbnew,5.1.6-c6e7f7d~87~ubuntu18.04.1*%
%TF.CreationDate,2020-10-05T23:43:03-04:00*%
%TF.ProjectId,DemoKiCad,44656d6f-4b69-4436-9164-2e6b69636164,rev?*%
%TF.SameCoordinates,Original*%
%TF.FileFunction,Soldermask,Bot*%
%TF.FilePolarity,Negative*%
%FSLAX46Y46*%
G04 Gerber Fmt 4.6, Leading zero omitted, Abs format (unit mm)*
G04 Created by KiCad (PCBNEW 5.1.6-c6e7f7d~87~ubuntu18.04.1) date 2020-10-05 23:43:03*
%MOMM*%
%LPD*%
G01*
G04 APERTURE LIST*
%ADD10O,1.800000X1.800000*%
%ADD11R,1.800000X1.800000*%
%ADD12O,1.600000X2.400000*%
%ADD13R,1.600000X2.400000*%
G04 APERTURE END LIST*
D10*
%TO.C,J2*%
X103505000Y-69850000D03*
D11*
X103505000Y-72390000D03*
%TD*%
D12*
%TO.C,U1*%
X107950000Y-59055000D03*
X110490000Y-59055000D03*
D13*
X113030000Y-59055000D03*
%TD*%
D10*
%TO.C,J1*%
X124460000Y-71120000D03*
X124460000Y-73660000D03*
X121920000Y-71120000D03*
X121920000Y-73660000D03*
X119380000Y-71120000D03*
D11*
X119380000Y-73660000D03*
%TD*%
%TO.C,C4*%
G36*
G01*
X114360000Y-65032500D02*
X114360000Y-64507500D01*
G75*
G02*
X114622500Y-64245000I262500J0D01*
G01*
X115247500Y-64245000D01*
G75*
G02*
X115510000Y-64507500I0J-262500D01*
G01*
X115510000Y-65032500D01*
G75*
G02*
X115247500Y-65295000I-262500J0D01*
G01*
X114622500Y-65295000D01*
G75*
G02*
X114360000Y-65032500I0J262500D01*
G01*
G37*
G36*
G01*
X112610000Y-65032500D02*
X112610000Y-64507500D01*
G75*
G02*
X112872500Y-64245000I262500J0D01*
G01*
X113497500Y-64245000D01*
G75*
G02*
X113760000Y-64507500I0J-262500D01*
G01*
X113760000Y-65032500D01*
G75*
G02*
X113497500Y-65295000I-262500J0D01*
G01*
X112872500Y-65295000D01*
G75*
G02*
X112610000Y-65032500I0J262500D01*
G01*
G37*
%TD*%
%TO.C,C2*%
G36*
G01*
X109795000Y-64507500D02*
X109795000Y-65032500D01*
G75*
G02*
X109532500Y-65295000I-262500J0D01*
G01*
X108907500Y-65295000D01*
G75*
G02*
X108645000Y-65032500I0J262500D01*
G01*
X108645000Y-64507500D01*
G75*
G02*
X108907500Y-64245000I262500J0D01*
G01*
X109532500Y-64245000D01*
G75*
G02*
X109795000Y-64507500I0J-262500D01*
G01*
G37*
G36*
G01*
X111545000Y-64507500D02*
X111545000Y-65032500D01*
G75*
G02*
X111282500Y-65295000I-262500J0D01*
G01*
X110657500Y-65295000D01*
G75*
G02*
X110395000Y-65032500I0J262500D01*
G01*
X110395000Y-64507500D01*
G75*
G02*
X110657500Y-64245000I262500J0D01*
G01*
X111282500Y-64245000D01*
G75*
G02*
X111545000Y-64507500I0J-262500D01*
G01*
G37*
%TD*%
%TO.C,C1*%
G36*
G01*
X110825000Y-61967500D02*
X110825000Y-62492500D01*
G75*
G02*
X110562500Y-62755000I-262500J0D01*
G01*
X109937500Y-62755000D01*
G75*
G02*
X109675000Y-62492500I0J262500D01*
G01*
X109675000Y-61967500D01*
G75*
G02*
X109937500Y-61705000I262500J0D01*
G01*
X110562500Y-61705000D01*
G75*
G02*
X110825000Y-61967500I0J-262500D01*
G01*
G37*
G36*
G01*
X112575000Y-61967500D02*
X112575000Y-62492500D01*
G75*
G02*
X112312500Y-62755000I-262500J0D01*
G01*
X111687500Y-62755000D01*
G75*
G02*
X111425000Y-62492500I0J262500D01*
G01*
X111425000Y-61967500D01*
G75*
G02*
X111687500Y-61705000I262500J0D01*
G01*
X112312500Y-61705000D01*
G75*
G02*
X112575000Y-61967500I0J-262500D01*
G01*
G37*
%TD*%
M02*
