M48
; DRILL file {KiCad 5.1.6-c6e7f7d~87~ubuntu18.04.1} date Mon Oct  5 23:42:50 2020
; FORMAT={-:-/ absolute / metric / decimal}
; #@! TF.CreationDate,2020-10-05T23:42:50-04:00
; #@! TF.GenerationSoftware,Kicad,Pcbnew,5.1.6-c6e7f7d~87~ubuntu18.04.1
FMAT,2
METRIC
T1C0.400
T2C1.000
%
G90
G05
T1
X107.95Y-73.66
X114.3Y-73.66
X117.567Y-71.755
X118.11Y-55.88
X118.745Y-67.31
X120.033Y-64.818
X120.65Y-60.325
X120.65Y-67.853
X121.053Y-62.23
X124.46Y-63.5
X125.73Y-55.88
X125.73Y-60.325
X125.73Y-61.595
X127.635Y-68.58
T2
X119.38Y-71.12
X119.38Y-73.66
X121.92Y-71.12
X121.92Y-73.66
X124.46Y-71.12
X124.46Y-73.66
X107.95Y-59.055
X110.49Y-59.055
X113.03Y-59.055
X103.505Y-69.85
X103.505Y-72.39
T0
M30
