%TF.GenerationSoftware,KiCad,Pcbnew,5.1.6-c6e7f7d~87~ubuntu18.04.1*%
%TF.CreationDate,2020-10-05T23:43:03-04:00*%
%TF.ProjectId,DemoKiCad,44656d6f-4b69-4436-9164-2e6b69636164,rev?*%
%TF.SameCoordinates,Original*%
%TF.FileFunction,Legend,Top*%
%TF.FilePolarity,Positive*%
%FSLAX46Y46*%
G04 Gerber Fmt 4.6, Leading zero omitted, Abs format (unit mm)*
G04 Created by KiCad (PCBNEW 5.1.6-c6e7f7d~87~ubuntu18.04.1) date 2020-10-05 23:43:03*
%MOMM*%
%LPD*%
G01*
G04 APERTURE LIST*
%ADD10C,0.120000*%
%ADD11C,0.150000*%
G04 APERTURE END LIST*
D10*
%TO.C,J2*%
X104835000Y-73720000D02*
X103505000Y-73720000D01*
X104835000Y-72390000D02*
X104835000Y-73720000D01*
X104835000Y-71120000D02*
X102175000Y-71120000D01*
X102175000Y-71120000D02*
X102175000Y-68520000D01*
X104835000Y-71120000D02*
X104835000Y-68520000D01*
X104835000Y-68520000D02*
X102175000Y-68520000D01*
D11*
%TO.C,U2*%
X126380000Y-58510000D02*
X126380000Y-57085000D01*
X126605000Y-65760000D02*
X126605000Y-65435000D01*
X119355000Y-65760000D02*
X119355000Y-65435000D01*
X119355000Y-58510000D02*
X119355000Y-58835000D01*
X126605000Y-58510000D02*
X126605000Y-58835000D01*
X119355000Y-58510000D02*
X119680000Y-58510000D01*
X119355000Y-65760000D02*
X119680000Y-65760000D01*
X126605000Y-65760000D02*
X126280000Y-65760000D01*
X126605000Y-58510000D02*
X126380000Y-58510000D01*
D10*
%TO.C,U1*%
X116641000Y-56755000D02*
X115401000Y-56755000D01*
X116641000Y-57995000D02*
X116641000Y-56755000D01*
X104680000Y-65615000D02*
X104680000Y-56995000D01*
X116401000Y-65615000D02*
X116401000Y-56995000D01*
X116401000Y-56995000D02*
X104680000Y-56995000D01*
X116401000Y-65615000D02*
X104680000Y-65615000D01*
%TO.C,R4*%
X113253733Y-72265000D02*
X113596267Y-72265000D01*
X113253733Y-71245000D02*
X113596267Y-71245000D01*
%TO.C,R3*%
X113253733Y-70360000D02*
X113596267Y-70360000D01*
X113253733Y-69340000D02*
X113596267Y-69340000D01*
%TO.C,R2*%
X113253733Y-68455000D02*
X113596267Y-68455000D01*
X113253733Y-67435000D02*
X113596267Y-67435000D01*
%TO.C,R1*%
X102360000Y-63568733D02*
X102360000Y-63911267D01*
X103380000Y-63568733D02*
X103380000Y-63911267D01*
%TO.C,J1*%
X118050000Y-74990000D02*
X118050000Y-73660000D01*
X119380000Y-74990000D02*
X118050000Y-74990000D01*
X118050000Y-72390000D02*
X118050000Y-69790000D01*
X120650000Y-72390000D02*
X118050000Y-72390000D01*
X120650000Y-74990000D02*
X120650000Y-72390000D01*
X118050000Y-69790000D02*
X125790000Y-69790000D01*
X120650000Y-74990000D02*
X125790000Y-74990000D01*
X125790000Y-74990000D02*
X125790000Y-69790000D01*
%TO.C,D4*%
X106050000Y-72490000D02*
X108510000Y-72490000D01*
X106050000Y-71020000D02*
X106050000Y-72490000D01*
X108510000Y-71020000D02*
X106050000Y-71020000D01*
%TO.C,D3*%
X106050000Y-70585000D02*
X108510000Y-70585000D01*
X106050000Y-69115000D02*
X106050000Y-70585000D01*
X108510000Y-69115000D02*
X106050000Y-69115000D01*
%TO.C,D2*%
X106050000Y-68680000D02*
X108510000Y-68680000D01*
X106050000Y-67210000D02*
X106050000Y-68680000D01*
X108510000Y-67210000D02*
X106050000Y-67210000D01*
%TO.C,D1*%
X102135000Y-57790000D02*
X102135000Y-60250000D01*
X103605000Y-57790000D02*
X102135000Y-57790000D01*
X103605000Y-60250000D02*
X103605000Y-57790000D01*
%TO.C,C3*%
X127125000Y-71343733D02*
X127125000Y-71686267D01*
X128145000Y-71343733D02*
X128145000Y-71686267D01*
%TO.C,J2*%
D11*
X103171666Y-74172380D02*
X103171666Y-74886666D01*
X103124047Y-75029523D01*
X103028809Y-75124761D01*
X102885952Y-75172380D01*
X102790714Y-75172380D01*
X103600238Y-74267619D02*
X103647857Y-74220000D01*
X103743095Y-74172380D01*
X103981190Y-74172380D01*
X104076428Y-74220000D01*
X104124047Y-74267619D01*
X104171666Y-74362857D01*
X104171666Y-74458095D01*
X104124047Y-74600952D01*
X103552619Y-75172380D01*
X104171666Y-75172380D01*
%TO.C,U2*%
X127508095Y-55332380D02*
X127508095Y-56141904D01*
X127555714Y-56237142D01*
X127603333Y-56284761D01*
X127698571Y-56332380D01*
X127889047Y-56332380D01*
X127984285Y-56284761D01*
X128031904Y-56237142D01*
X128079523Y-56141904D01*
X128079523Y-55332380D01*
X128508095Y-55427619D02*
X128555714Y-55380000D01*
X128650952Y-55332380D01*
X128889047Y-55332380D01*
X128984285Y-55380000D01*
X129031904Y-55427619D01*
X129079523Y-55522857D01*
X129079523Y-55618095D01*
X129031904Y-55760952D01*
X128460476Y-56332380D01*
X129079523Y-56332380D01*
%TO.C,U1*%
X114808095Y-55332380D02*
X114808095Y-56141904D01*
X114855714Y-56237142D01*
X114903333Y-56284761D01*
X114998571Y-56332380D01*
X115189047Y-56332380D01*
X115284285Y-56284761D01*
X115331904Y-56237142D01*
X115379523Y-56141904D01*
X115379523Y-55332380D01*
X116379523Y-56332380D02*
X115808095Y-56332380D01*
X116093809Y-56332380D02*
X116093809Y-55332380D01*
X115998571Y-55475238D01*
X115903333Y-55570476D01*
X115808095Y-55618095D01*
%TO.C,R4*%
X116038333Y-72207380D02*
X115705000Y-71731190D01*
X115466904Y-72207380D02*
X115466904Y-71207380D01*
X115847857Y-71207380D01*
X115943095Y-71255000D01*
X115990714Y-71302619D01*
X116038333Y-71397857D01*
X116038333Y-71540714D01*
X115990714Y-71635952D01*
X115943095Y-71683571D01*
X115847857Y-71731190D01*
X115466904Y-71731190D01*
X116895476Y-71540714D02*
X116895476Y-72207380D01*
X116657380Y-71159761D02*
X116419285Y-71874047D01*
X117038333Y-71874047D01*
%TO.C,R3*%
X116038333Y-70302380D02*
X115705000Y-69826190D01*
X115466904Y-70302380D02*
X115466904Y-69302380D01*
X115847857Y-69302380D01*
X115943095Y-69350000D01*
X115990714Y-69397619D01*
X116038333Y-69492857D01*
X116038333Y-69635714D01*
X115990714Y-69730952D01*
X115943095Y-69778571D01*
X115847857Y-69826190D01*
X115466904Y-69826190D01*
X116371666Y-69302380D02*
X116990714Y-69302380D01*
X116657380Y-69683333D01*
X116800238Y-69683333D01*
X116895476Y-69730952D01*
X116943095Y-69778571D01*
X116990714Y-69873809D01*
X116990714Y-70111904D01*
X116943095Y-70207142D01*
X116895476Y-70254761D01*
X116800238Y-70302380D01*
X116514523Y-70302380D01*
X116419285Y-70254761D01*
X116371666Y-70207142D01*
%TO.C,R2*%
X116038333Y-68397380D02*
X115705000Y-67921190D01*
X115466904Y-68397380D02*
X115466904Y-67397380D01*
X115847857Y-67397380D01*
X115943095Y-67445000D01*
X115990714Y-67492619D01*
X116038333Y-67587857D01*
X116038333Y-67730714D01*
X115990714Y-67825952D01*
X115943095Y-67873571D01*
X115847857Y-67921190D01*
X115466904Y-67921190D01*
X116419285Y-67492619D02*
X116466904Y-67445000D01*
X116562142Y-67397380D01*
X116800238Y-67397380D01*
X116895476Y-67445000D01*
X116943095Y-67492619D01*
X116990714Y-67587857D01*
X116990714Y-67683095D01*
X116943095Y-67825952D01*
X116371666Y-68397380D01*
X116990714Y-68397380D01*
%TO.C,R1*%
X103322380Y-66841666D02*
X102846190Y-67175000D01*
X103322380Y-67413095D02*
X102322380Y-67413095D01*
X102322380Y-67032142D01*
X102370000Y-66936904D01*
X102417619Y-66889285D01*
X102512857Y-66841666D01*
X102655714Y-66841666D01*
X102750952Y-66889285D01*
X102798571Y-66936904D01*
X102846190Y-67032142D01*
X102846190Y-67413095D01*
X103322380Y-65889285D02*
X103322380Y-66460714D01*
X103322380Y-66175000D02*
X102322380Y-66175000D01*
X102465238Y-66270238D01*
X102560476Y-66365476D01*
X102608095Y-66460714D01*
%TO.C,J1*%
X116502380Y-72723333D02*
X117216666Y-72723333D01*
X117359523Y-72770952D01*
X117454761Y-72866190D01*
X117502380Y-73009047D01*
X117502380Y-73104285D01*
X117502380Y-71723333D02*
X117502380Y-72294761D01*
X117502380Y-72009047D02*
X116502380Y-72009047D01*
X116645238Y-72104285D01*
X116740476Y-72199523D01*
X116788095Y-72294761D01*
%TO.C,D4*%
X109751904Y-72207380D02*
X109751904Y-71207380D01*
X109990000Y-71207380D01*
X110132857Y-71255000D01*
X110228095Y-71350238D01*
X110275714Y-71445476D01*
X110323333Y-71635952D01*
X110323333Y-71778809D01*
X110275714Y-71969285D01*
X110228095Y-72064523D01*
X110132857Y-72159761D01*
X109990000Y-72207380D01*
X109751904Y-72207380D01*
X111180476Y-71540714D02*
X111180476Y-72207380D01*
X110942380Y-71159761D02*
X110704285Y-71874047D01*
X111323333Y-71874047D01*
%TO.C,D3*%
X109751904Y-70302380D02*
X109751904Y-69302380D01*
X109990000Y-69302380D01*
X110132857Y-69350000D01*
X110228095Y-69445238D01*
X110275714Y-69540476D01*
X110323333Y-69730952D01*
X110323333Y-69873809D01*
X110275714Y-70064285D01*
X110228095Y-70159523D01*
X110132857Y-70254761D01*
X109990000Y-70302380D01*
X109751904Y-70302380D01*
X110656666Y-69302380D02*
X111275714Y-69302380D01*
X110942380Y-69683333D01*
X111085238Y-69683333D01*
X111180476Y-69730952D01*
X111228095Y-69778571D01*
X111275714Y-69873809D01*
X111275714Y-70111904D01*
X111228095Y-70207142D01*
X111180476Y-70254761D01*
X111085238Y-70302380D01*
X110799523Y-70302380D01*
X110704285Y-70254761D01*
X110656666Y-70207142D01*
%TO.C,D2*%
X109751904Y-68397380D02*
X109751904Y-67397380D01*
X109990000Y-67397380D01*
X110132857Y-67445000D01*
X110228095Y-67540238D01*
X110275714Y-67635476D01*
X110323333Y-67825952D01*
X110323333Y-67968809D01*
X110275714Y-68159285D01*
X110228095Y-68254523D01*
X110132857Y-68349761D01*
X109990000Y-68397380D01*
X109751904Y-68397380D01*
X110704285Y-67492619D02*
X110751904Y-67445000D01*
X110847142Y-67397380D01*
X111085238Y-67397380D01*
X111180476Y-67445000D01*
X111228095Y-67492619D01*
X111275714Y-67587857D01*
X111275714Y-67683095D01*
X111228095Y-67825952D01*
X110656666Y-68397380D01*
X111275714Y-68397380D01*
%TO.C,D1*%
X103322380Y-57253095D02*
X102322380Y-57253095D01*
X102322380Y-57015000D01*
X102370000Y-56872142D01*
X102465238Y-56776904D01*
X102560476Y-56729285D01*
X102750952Y-56681666D01*
X102893809Y-56681666D01*
X103084285Y-56729285D01*
X103179523Y-56776904D01*
X103274761Y-56872142D01*
X103322380Y-57015000D01*
X103322380Y-57253095D01*
X103322380Y-55729285D02*
X103322380Y-56300714D01*
X103322380Y-56015000D02*
X102322380Y-56015000D01*
X102465238Y-56110238D01*
X102560476Y-56205476D01*
X102608095Y-56300714D01*
%TO.C,C3*%
X127992142Y-74856666D02*
X128039761Y-74904285D01*
X128087380Y-75047142D01*
X128087380Y-75142380D01*
X128039761Y-75285238D01*
X127944523Y-75380476D01*
X127849285Y-75428095D01*
X127658809Y-75475714D01*
X127515952Y-75475714D01*
X127325476Y-75428095D01*
X127230238Y-75380476D01*
X127135000Y-75285238D01*
X127087380Y-75142380D01*
X127087380Y-75047142D01*
X127135000Y-74904285D01*
X127182619Y-74856666D01*
X127087380Y-74523333D02*
X127087380Y-73904285D01*
X127468333Y-74237619D01*
X127468333Y-74094761D01*
X127515952Y-73999523D01*
X127563571Y-73951904D01*
X127658809Y-73904285D01*
X127896904Y-73904285D01*
X127992142Y-73951904D01*
X128039761Y-73999523D01*
X128087380Y-74094761D01*
X128087380Y-74380476D01*
X128039761Y-74475714D01*
X127992142Y-74523333D01*
%TD*%
M02*
