%TF.GenerationSoftware,KiCad,Pcbnew,5.1.6-c6e7f7d~87~ubuntu18.04.1*%
%TF.CreationDate,2020-10-05T23:43:03-04:00*%
%TF.ProjectId,DemoKiCad,44656d6f-4b69-4436-9164-2e6b69636164,rev?*%
%TF.SameCoordinates,Original*%
%TF.FileFunction,Legend,Bot*%
%TF.FilePolarity,Positive*%
%FSLAX46Y46*%
G04 Gerber Fmt 4.6, Leading zero omitted, Abs format (unit mm)*
G04 Created by KiCad (PCBNEW 5.1.6-c6e7f7d~87~ubuntu18.04.1) date 2020-10-05 23:43:03*
%MOMM*%
%LPD*%
G01*
G04 APERTURE LIST*
%ADD10C,0.150000*%
%ADD11C,0.010000*%
%ADD12C,0.120000*%
G04 APERTURE END LIST*
D10*
X116267857Y-75382380D02*
X116267857Y-74382380D01*
X116029761Y-74382380D01*
X115886904Y-74430000D01*
X115791666Y-74525238D01*
X115744047Y-74620476D01*
X115696428Y-74810952D01*
X115696428Y-74953809D01*
X115744047Y-75144285D01*
X115791666Y-75239523D01*
X115886904Y-75334761D01*
X116029761Y-75382380D01*
X116267857Y-75382380D01*
X114886904Y-75334761D02*
X114982142Y-75382380D01*
X115172619Y-75382380D01*
X115267857Y-75334761D01*
X115315476Y-75239523D01*
X115315476Y-74858571D01*
X115267857Y-74763333D01*
X115172619Y-74715714D01*
X114982142Y-74715714D01*
X114886904Y-74763333D01*
X114839285Y-74858571D01*
X114839285Y-74953809D01*
X115315476Y-75049047D01*
X114410714Y-75382380D02*
X114410714Y-74715714D01*
X114410714Y-74810952D02*
X114363095Y-74763333D01*
X114267857Y-74715714D01*
X114125000Y-74715714D01*
X114029761Y-74763333D01*
X113982142Y-74858571D01*
X113982142Y-75382380D01*
X113982142Y-74858571D02*
X113934523Y-74763333D01*
X113839285Y-74715714D01*
X113696428Y-74715714D01*
X113601190Y-74763333D01*
X113553571Y-74858571D01*
X113553571Y-75382380D01*
X112934523Y-75382380D02*
X113029761Y-75334761D01*
X113077380Y-75287142D01*
X113125000Y-75191904D01*
X113125000Y-74906190D01*
X113077380Y-74810952D01*
X113029761Y-74763333D01*
X112934523Y-74715714D01*
X112791666Y-74715714D01*
X112696428Y-74763333D01*
X112648809Y-74810952D01*
X112601190Y-74906190D01*
X112601190Y-75191904D01*
X112648809Y-75287142D01*
X112696428Y-75334761D01*
X112791666Y-75382380D01*
X112934523Y-75382380D01*
X111839285Y-74858571D02*
X111696428Y-74906190D01*
X111648809Y-74953809D01*
X111601190Y-75049047D01*
X111601190Y-75191904D01*
X111648809Y-75287142D01*
X111696428Y-75334761D01*
X111791666Y-75382380D01*
X112172619Y-75382380D01*
X112172619Y-74382380D01*
X111839285Y-74382380D01*
X111744047Y-74430000D01*
X111696428Y-74477619D01*
X111648809Y-74572857D01*
X111648809Y-74668095D01*
X111696428Y-74763333D01*
X111744047Y-74810952D01*
X111839285Y-74858571D01*
X112172619Y-74858571D01*
X111029761Y-75382380D02*
X111125000Y-75334761D01*
X111172619Y-75287142D01*
X111220238Y-75191904D01*
X111220238Y-74906190D01*
X111172619Y-74810952D01*
X111125000Y-74763333D01*
X111029761Y-74715714D01*
X110886904Y-74715714D01*
X110791666Y-74763333D01*
X110744047Y-74810952D01*
X110696428Y-74906190D01*
X110696428Y-75191904D01*
X110744047Y-75287142D01*
X110791666Y-75334761D01*
X110886904Y-75382380D01*
X111029761Y-75382380D01*
X109839285Y-75382380D02*
X109839285Y-74858571D01*
X109886904Y-74763333D01*
X109982142Y-74715714D01*
X110172619Y-74715714D01*
X110267857Y-74763333D01*
X109839285Y-75334761D02*
X109934523Y-75382380D01*
X110172619Y-75382380D01*
X110267857Y-75334761D01*
X110315476Y-75239523D01*
X110315476Y-75144285D01*
X110267857Y-75049047D01*
X110172619Y-75001428D01*
X109934523Y-75001428D01*
X109839285Y-74953809D01*
X109363095Y-75382380D02*
X109363095Y-74715714D01*
X109363095Y-74906190D02*
X109315476Y-74810952D01*
X109267857Y-74763333D01*
X109172619Y-74715714D01*
X109077380Y-74715714D01*
X108315476Y-75382380D02*
X108315476Y-74382380D01*
X108315476Y-75334761D02*
X108410714Y-75382380D01*
X108601190Y-75382380D01*
X108696428Y-75334761D01*
X108744047Y-75287142D01*
X108791666Y-75191904D01*
X108791666Y-74906190D01*
X108744047Y-74810952D01*
X108696428Y-74763333D01*
X108601190Y-74715714D01*
X108410714Y-74715714D01*
X108315476Y-74763333D01*
X107077380Y-75382380D02*
X107077380Y-74715714D01*
X107077380Y-74906190D02*
X107029761Y-74810952D01*
X106982142Y-74763333D01*
X106886904Y-74715714D01*
X106791666Y-74715714D01*
X105934523Y-75382380D02*
X106505952Y-75382380D01*
X106220238Y-75382380D02*
X106220238Y-74382380D01*
X106315476Y-74525238D01*
X106410714Y-74620476D01*
X106505952Y-74668095D01*
X114363095Y-71065000D02*
X114458333Y-71017380D01*
X114601190Y-71017380D01*
X114744047Y-71065000D01*
X114839285Y-71160238D01*
X114886904Y-71255476D01*
X114934523Y-71445952D01*
X114934523Y-71588809D01*
X114886904Y-71779285D01*
X114839285Y-71874523D01*
X114744047Y-71969761D01*
X114601190Y-72017380D01*
X114505952Y-72017380D01*
X114363095Y-71969761D01*
X114315476Y-71922142D01*
X114315476Y-71588809D01*
X114505952Y-71588809D01*
X113886904Y-71922142D02*
X113839285Y-71969761D01*
X113886904Y-72017380D01*
X113934523Y-71969761D01*
X113886904Y-71922142D01*
X113886904Y-72017380D01*
X113458333Y-71969761D02*
X113315476Y-72017380D01*
X113077380Y-72017380D01*
X112982142Y-71969761D01*
X112934523Y-71922142D01*
X112886904Y-71826904D01*
X112886904Y-71731666D01*
X112934523Y-71636428D01*
X112982142Y-71588809D01*
X113077380Y-71541190D01*
X113267857Y-71493571D01*
X113363095Y-71445952D01*
X113410714Y-71398333D01*
X113458333Y-71303095D01*
X113458333Y-71207857D01*
X113410714Y-71112619D01*
X113363095Y-71065000D01*
X113267857Y-71017380D01*
X113029761Y-71017380D01*
X112886904Y-71065000D01*
X112458333Y-71350714D02*
X112458333Y-72350714D01*
X112458333Y-71398333D02*
X112363095Y-71350714D01*
X112172619Y-71350714D01*
X112077380Y-71398333D01*
X112029761Y-71445952D01*
X111982142Y-71541190D01*
X111982142Y-71826904D01*
X112029761Y-71922142D01*
X112077380Y-71969761D01*
X112172619Y-72017380D01*
X112363095Y-72017380D01*
X112458333Y-71969761D01*
X111172619Y-71969761D02*
X111267857Y-72017380D01*
X111458333Y-72017380D01*
X111553571Y-71969761D01*
X111601190Y-71874523D01*
X111601190Y-71493571D01*
X111553571Y-71398333D01*
X111458333Y-71350714D01*
X111267857Y-71350714D01*
X111172619Y-71398333D01*
X111125000Y-71493571D01*
X111125000Y-71588809D01*
X111601190Y-71684047D01*
X110267857Y-72017380D02*
X110267857Y-71493571D01*
X110315476Y-71398333D01*
X110410714Y-71350714D01*
X110601190Y-71350714D01*
X110696428Y-71398333D01*
X110267857Y-71969761D02*
X110363095Y-72017380D01*
X110601190Y-72017380D01*
X110696428Y-71969761D01*
X110744047Y-71874523D01*
X110744047Y-71779285D01*
X110696428Y-71684047D01*
X110601190Y-71636428D01*
X110363095Y-71636428D01*
X110267857Y-71588809D01*
X109791666Y-72017380D02*
X109791666Y-71350714D01*
X109791666Y-71541190D02*
X109744047Y-71445952D01*
X109696428Y-71398333D01*
X109601190Y-71350714D01*
X109505952Y-71350714D01*
X109172619Y-72017380D02*
X109172619Y-71350714D01*
X109172619Y-71017380D02*
X109220238Y-71065000D01*
X109172619Y-71112619D01*
X109125000Y-71065000D01*
X109172619Y-71017380D01*
X109172619Y-71112619D01*
X108696428Y-71350714D02*
X108696428Y-72017380D01*
X108696428Y-71445952D02*
X108648809Y-71398333D01*
X108553571Y-71350714D01*
X108410714Y-71350714D01*
X108315476Y-71398333D01*
X108267857Y-71493571D01*
X108267857Y-72017380D01*
X107363095Y-71350714D02*
X107363095Y-72160238D01*
X107410714Y-72255476D01*
X107458333Y-72303095D01*
X107553571Y-72350714D01*
X107696428Y-72350714D01*
X107791666Y-72303095D01*
X107363095Y-71969761D02*
X107458333Y-72017380D01*
X107648809Y-72017380D01*
X107744047Y-71969761D01*
X107791666Y-71922142D01*
X107839285Y-71826904D01*
X107839285Y-71541190D01*
X107791666Y-71445952D01*
X107744047Y-71398333D01*
X107648809Y-71350714D01*
X107458333Y-71350714D01*
X107363095Y-71398333D01*
X113553571Y-72762619D02*
X113505952Y-72715000D01*
X113410714Y-72667380D01*
X113172619Y-72667380D01*
X113077380Y-72715000D01*
X113029761Y-72762619D01*
X112982142Y-72857857D01*
X112982142Y-72953095D01*
X113029761Y-73095952D01*
X113601190Y-73667380D01*
X112982142Y-73667380D01*
X112363095Y-72667380D02*
X112267857Y-72667380D01*
X112172619Y-72715000D01*
X112125000Y-72762619D01*
X112077380Y-72857857D01*
X112029761Y-73048333D01*
X112029761Y-73286428D01*
X112077380Y-73476904D01*
X112125000Y-73572142D01*
X112172619Y-73619761D01*
X112267857Y-73667380D01*
X112363095Y-73667380D01*
X112458333Y-73619761D01*
X112505952Y-73572142D01*
X112553571Y-73476904D01*
X112601190Y-73286428D01*
X112601190Y-73048333D01*
X112553571Y-72857857D01*
X112505952Y-72762619D01*
X112458333Y-72715000D01*
X112363095Y-72667380D01*
X111601190Y-73572142D02*
X111553571Y-73619761D01*
X111601190Y-73667380D01*
X111648809Y-73619761D01*
X111601190Y-73572142D01*
X111601190Y-73667380D01*
X111172619Y-72762619D02*
X111125000Y-72715000D01*
X111029761Y-72667380D01*
X110791666Y-72667380D01*
X110696428Y-72715000D01*
X110648809Y-72762619D01*
X110601190Y-72857857D01*
X110601190Y-72953095D01*
X110648809Y-73095952D01*
X111220238Y-73667380D01*
X110601190Y-73667380D01*
X110267857Y-72667380D02*
X109601190Y-72667380D01*
X110029761Y-73667380D01*
X109172619Y-73667380D02*
X108982142Y-73667380D01*
X108886904Y-73619761D01*
X108839285Y-73572142D01*
X108744047Y-73429285D01*
X108696428Y-73238809D01*
X108696428Y-72857857D01*
X108744047Y-72762619D01*
X108791666Y-72715000D01*
X108886904Y-72667380D01*
X109077380Y-72667380D01*
X109172619Y-72715000D01*
X109220238Y-72762619D01*
X109267857Y-72857857D01*
X109267857Y-73095952D01*
X109220238Y-73191190D01*
X109172619Y-73238809D01*
X109077380Y-73286428D01*
X108886904Y-73286428D01*
X108791666Y-73238809D01*
X108744047Y-73191190D01*
X108696428Y-73095952D01*
D11*
%TO.C,G\u002A\u002A\u002A*%
G36*
X105899354Y-66441976D02*
G01*
X105479908Y-66860936D01*
X105479908Y-68959130D01*
X106354242Y-69832556D01*
X106744323Y-69441968D01*
X107134403Y-69051381D01*
X107134403Y-68863240D01*
X106551834Y-68863240D01*
X106477027Y-68940422D01*
X106402219Y-69017604D01*
X106243999Y-68860597D01*
X106085779Y-68703589D01*
X106085779Y-67140181D01*
X106318807Y-66908027D01*
X106551834Y-66675874D01*
X106551834Y-68863240D01*
X107134403Y-68863240D01*
X107134403Y-66837620D01*
X106726602Y-66430318D01*
X106318800Y-66023015D01*
X105899354Y-66441976D01*
G37*
X105899354Y-66441976D02*
X105479908Y-66860936D01*
X105479908Y-68959130D01*
X106354242Y-69832556D01*
X106744323Y-69441968D01*
X107134403Y-69051381D01*
X107134403Y-68863240D01*
X106551834Y-68863240D01*
X106477027Y-68940422D01*
X106402219Y-69017604D01*
X106243999Y-68860597D01*
X106085779Y-68703589D01*
X106085779Y-67140181D01*
X106318807Y-66908027D01*
X106551834Y-66675874D01*
X106551834Y-68863240D01*
X107134403Y-68863240D01*
X107134403Y-66837620D01*
X106726602Y-66430318D01*
X106318800Y-66023015D01*
X105899354Y-66441976D01*
G36*
X107437339Y-66698886D02*
G01*
X107437339Y-67303252D01*
X107844191Y-67711998D01*
X107629114Y-67927974D01*
X107414036Y-68143949D01*
X107414036Y-69050415D01*
X107292159Y-69173826D01*
X107170281Y-69297236D01*
X107438053Y-69565008D01*
X107705825Y-69832779D01*
X108228535Y-69308211D01*
X107998623Y-69051881D01*
X107997614Y-68748547D01*
X107996605Y-68445214D01*
X108252935Y-68189679D01*
X108509266Y-67934143D01*
X108509266Y-69076935D01*
X108392495Y-69191951D01*
X108275724Y-69306966D01*
X108537757Y-69569744D01*
X108627591Y-69658933D01*
X108706075Y-69735151D01*
X108767318Y-69792811D01*
X108805424Y-69826323D01*
X108814856Y-69832523D01*
X108835267Y-69816520D01*
X108881859Y-69772324D01*
X108948844Y-69705657D01*
X109030434Y-69622241D01*
X109084949Y-69565528D01*
X109339977Y-69298533D01*
X109215906Y-69176003D01*
X109091834Y-69053473D01*
X109091834Y-67630184D01*
X108555871Y-67630184D01*
X108258875Y-67333188D01*
X107961879Y-67036193D01*
X108555871Y-66442201D01*
X108555871Y-67630184D01*
X109091834Y-67630184D01*
X109091834Y-66769562D01*
X109225241Y-66634749D01*
X109358648Y-66499935D01*
X109126642Y-66267055D01*
X108894635Y-66034174D01*
X108100865Y-66034174D01*
X107437339Y-66698886D01*
G37*
X107437339Y-66698886D02*
X107437339Y-67303252D01*
X107844191Y-67711998D01*
X107629114Y-67927974D01*
X107414036Y-68143949D01*
X107414036Y-69050415D01*
X107292159Y-69173826D01*
X107170281Y-69297236D01*
X107438053Y-69565008D01*
X107705825Y-69832779D01*
X108228535Y-69308211D01*
X107998623Y-69051881D01*
X107997614Y-68748547D01*
X107996605Y-68445214D01*
X108252935Y-68189679D01*
X108509266Y-67934143D01*
X108509266Y-69076935D01*
X108392495Y-69191951D01*
X108275724Y-69306966D01*
X108537757Y-69569744D01*
X108627591Y-69658933D01*
X108706075Y-69735151D01*
X108767318Y-69792811D01*
X108805424Y-69826323D01*
X108814856Y-69832523D01*
X108835267Y-69816520D01*
X108881859Y-69772324D01*
X108948844Y-69705657D01*
X109030434Y-69622241D01*
X109084949Y-69565528D01*
X109339977Y-69298533D01*
X109215906Y-69176003D01*
X109091834Y-69053473D01*
X109091834Y-67630184D01*
X108555871Y-67630184D01*
X108258875Y-67333188D01*
X107961879Y-67036193D01*
X108555871Y-66442201D01*
X108555871Y-67630184D01*
X109091834Y-67630184D01*
X109091834Y-66769562D01*
X109225241Y-66634749D01*
X109358648Y-66499935D01*
X109126642Y-66267055D01*
X108894635Y-66034174D01*
X108100865Y-66034174D01*
X107437339Y-66698886D01*
G36*
X111906608Y-66470140D02*
G01*
X111481063Y-66896151D01*
X111701710Y-67117719D01*
X111922356Y-67339287D01*
X112563944Y-66698927D01*
X112563944Y-67667316D01*
X111679008Y-67653716D01*
X111963833Y-67939174D01*
X112248658Y-68224633D01*
X112563944Y-68224633D01*
X112563944Y-68898041D01*
X112480882Y-68961396D01*
X112397820Y-69024750D01*
X111922564Y-68551112D01*
X111502120Y-68971556D01*
X111934776Y-69402039D01*
X112051006Y-69517280D01*
X112156275Y-69620877D01*
X112246130Y-69708512D01*
X112316120Y-69775866D01*
X112361792Y-69818621D01*
X112378568Y-69832523D01*
X112397491Y-69816751D01*
X112444481Y-69772522D01*
X112514781Y-69704462D01*
X112603633Y-69617199D01*
X112706280Y-69515361D01*
X112768108Y-69453596D01*
X113146513Y-69074669D01*
X113146513Y-66863062D01*
X112739333Y-66453596D01*
X112332152Y-66044129D01*
X111906608Y-66470140D01*
G37*
X111906608Y-66470140D02*
X111481063Y-66896151D01*
X111701710Y-67117719D01*
X111922356Y-67339287D01*
X112563944Y-66698927D01*
X112563944Y-67667316D01*
X111679008Y-67653716D01*
X111963833Y-67939174D01*
X112248658Y-68224633D01*
X112563944Y-68224633D01*
X112563944Y-68898041D01*
X112480882Y-68961396D01*
X112397820Y-69024750D01*
X111922564Y-68551112D01*
X111502120Y-68971556D01*
X111934776Y-69402039D01*
X112051006Y-69517280D01*
X112156275Y-69620877D01*
X112246130Y-69708512D01*
X112316120Y-69775866D01*
X112361792Y-69818621D01*
X112378568Y-69832523D01*
X112397491Y-69816751D01*
X112444481Y-69772522D01*
X112514781Y-69704462D01*
X112603633Y-69617199D01*
X112706280Y-69515361D01*
X112768108Y-69453596D01*
X113146513Y-69074669D01*
X113146513Y-66863062D01*
X112739333Y-66453596D01*
X112332152Y-66044129D01*
X111906608Y-66470140D01*
G36*
X113967698Y-66436377D02*
G01*
X113565963Y-66838605D01*
X113565963Y-69050415D01*
X113444085Y-69173826D01*
X113322208Y-69297236D01*
X113589980Y-69565008D01*
X113857752Y-69832779D01*
X114392032Y-69296979D01*
X114148532Y-69050415D01*
X114148532Y-68574174D01*
X114661192Y-68574174D01*
X114661192Y-69050415D01*
X114539315Y-69173826D01*
X114417437Y-69297236D01*
X114685209Y-69565008D01*
X114952981Y-69832779D01*
X115487261Y-69296979D01*
X115243761Y-69050415D01*
X115243761Y-67968303D01*
X114661192Y-67968303D01*
X114148532Y-67968303D01*
X114148532Y-67209668D01*
X114403681Y-66942334D01*
X114658831Y-66675000D01*
X114660011Y-67321651D01*
X114661192Y-67968303D01*
X115243761Y-67968303D01*
X115243761Y-66907567D01*
X114806597Y-66470858D01*
X114369434Y-66034149D01*
X113967698Y-66436377D01*
G37*
X113967698Y-66436377D02*
X113565963Y-66838605D01*
X113565963Y-69050415D01*
X113444085Y-69173826D01*
X113322208Y-69297236D01*
X113589980Y-69565008D01*
X113857752Y-69832779D01*
X114392032Y-69296979D01*
X114148532Y-69050415D01*
X114148532Y-68574174D01*
X114661192Y-68574174D01*
X114661192Y-69050415D01*
X114539315Y-69173826D01*
X114417437Y-69297236D01*
X114685209Y-69565008D01*
X114952981Y-69832779D01*
X115487261Y-69296979D01*
X115243761Y-69050415D01*
X115243761Y-67968303D01*
X114661192Y-67968303D01*
X114148532Y-67968303D01*
X114148532Y-67209668D01*
X114403681Y-66942334D01*
X114658831Y-66675000D01*
X114660011Y-67321651D01*
X114661192Y-67968303D01*
X115243761Y-67968303D01*
X115243761Y-66907567D01*
X114806597Y-66470858D01*
X114369434Y-66034149D01*
X113967698Y-66436377D01*
G36*
X109895779Y-66570138D02*
G01*
X110135032Y-67222615D01*
X109772941Y-67222615D01*
X109636356Y-67222894D01*
X109540317Y-67224236D01*
X109478767Y-67227399D01*
X109445648Y-67233143D01*
X109434902Y-67242225D01*
X109440471Y-67255403D01*
X109447150Y-67263394D01*
X109465801Y-67287919D01*
X109508904Y-67346574D01*
X109573760Y-67435611D01*
X109657670Y-67551280D01*
X109757939Y-67689830D01*
X109871866Y-67847511D01*
X109996754Y-68020575D01*
X110129906Y-68205270D01*
X110268622Y-68397846D01*
X110410206Y-68594555D01*
X110551959Y-68791645D01*
X110691183Y-68985368D01*
X110825180Y-69171972D01*
X110951252Y-69347708D01*
X111066701Y-69508827D01*
X111168830Y-69651578D01*
X111254939Y-69772211D01*
X111322331Y-69866976D01*
X111368309Y-69932123D01*
X111390173Y-69963903D01*
X111390652Y-69964655D01*
X111388812Y-69952273D01*
X111372983Y-69900011D01*
X111344541Y-69811990D01*
X111304862Y-69692330D01*
X111255324Y-69545151D01*
X111197302Y-69374575D01*
X111132173Y-69184720D01*
X111070239Y-69005454D01*
X110999049Y-68799915D01*
X110932772Y-68608314D01*
X110872925Y-68435054D01*
X110821024Y-68284540D01*
X110778589Y-68161175D01*
X110747135Y-68069363D01*
X110728180Y-68013509D01*
X110723027Y-67997610D01*
X110744981Y-67995511D01*
X110805447Y-67993732D01*
X110896333Y-67992414D01*
X111009545Y-67991696D01*
X111069325Y-67991605D01*
X111415622Y-67991605D01*
X111155354Y-67403211D01*
X111073068Y-67217004D01*
X110984257Y-67015723D01*
X110894488Y-66812005D01*
X110809327Y-66618484D01*
X110734339Y-66447798D01*
X110698576Y-66366238D01*
X110502066Y-65917661D01*
X109656527Y-65917661D01*
X109895779Y-66570138D01*
G37*
X109895779Y-66570138D02*
X110135032Y-67222615D01*
X109772941Y-67222615D01*
X109636356Y-67222894D01*
X109540317Y-67224236D01*
X109478767Y-67227399D01*
X109445648Y-67233143D01*
X109434902Y-67242225D01*
X109440471Y-67255403D01*
X109447150Y-67263394D01*
X109465801Y-67287919D01*
X109508904Y-67346574D01*
X109573760Y-67435611D01*
X109657670Y-67551280D01*
X109757939Y-67689830D01*
X109871866Y-67847511D01*
X109996754Y-68020575D01*
X110129906Y-68205270D01*
X110268622Y-68397846D01*
X110410206Y-68594555D01*
X110551959Y-68791645D01*
X110691183Y-68985368D01*
X110825180Y-69171972D01*
X110951252Y-69347708D01*
X111066701Y-69508827D01*
X111168830Y-69651578D01*
X111254939Y-69772211D01*
X111322331Y-69866976D01*
X111368309Y-69932123D01*
X111390173Y-69963903D01*
X111390652Y-69964655D01*
X111388812Y-69952273D01*
X111372983Y-69900011D01*
X111344541Y-69811990D01*
X111304862Y-69692330D01*
X111255324Y-69545151D01*
X111197302Y-69374575D01*
X111132173Y-69184720D01*
X111070239Y-69005454D01*
X110999049Y-68799915D01*
X110932772Y-68608314D01*
X110872925Y-68435054D01*
X110821024Y-68284540D01*
X110778589Y-68161175D01*
X110747135Y-68069363D01*
X110728180Y-68013509D01*
X110723027Y-67997610D01*
X110744981Y-67995511D01*
X110805447Y-67993732D01*
X110896333Y-67992414D01*
X111009545Y-67991696D01*
X111069325Y-67991605D01*
X111415622Y-67991605D01*
X111155354Y-67403211D01*
X111073068Y-67217004D01*
X110984257Y-67015723D01*
X110894488Y-66812005D01*
X110809327Y-66618484D01*
X110734339Y-66447798D01*
X110698576Y-66366238D01*
X110502066Y-65917661D01*
X109656527Y-65917661D01*
X109895779Y-66570138D01*
D12*
%TO.C,C4*%
X113888733Y-64260000D02*
X114231267Y-64260000D01*
X113888733Y-65280000D02*
X114231267Y-65280000D01*
%TO.C,C2*%
X110266267Y-65280000D02*
X109923733Y-65280000D01*
X110266267Y-64260000D02*
X109923733Y-64260000D01*
%TO.C,C1*%
X111296267Y-62740000D02*
X110953733Y-62740000D01*
X111296267Y-61720000D02*
X110953733Y-61720000D01*
%TO.C,C4*%
D10*
X115101666Y-63857142D02*
X115149285Y-63904761D01*
X115292142Y-63952380D01*
X115387380Y-63952380D01*
X115530238Y-63904761D01*
X115625476Y-63809523D01*
X115673095Y-63714285D01*
X115720714Y-63523809D01*
X115720714Y-63380952D01*
X115673095Y-63190476D01*
X115625476Y-63095238D01*
X115530238Y-63000000D01*
X115387380Y-62952380D01*
X115292142Y-62952380D01*
X115149285Y-63000000D01*
X115101666Y-63047619D01*
X114244523Y-63285714D02*
X114244523Y-63952380D01*
X114482619Y-62904761D02*
X114720714Y-63619047D01*
X114101666Y-63619047D01*
%TO.C,C2*%
X106846666Y-65127142D02*
X106894285Y-65174761D01*
X107037142Y-65222380D01*
X107132380Y-65222380D01*
X107275238Y-65174761D01*
X107370476Y-65079523D01*
X107418095Y-64984285D01*
X107465714Y-64793809D01*
X107465714Y-64650952D01*
X107418095Y-64460476D01*
X107370476Y-64365238D01*
X107275238Y-64270000D01*
X107132380Y-64222380D01*
X107037142Y-64222380D01*
X106894285Y-64270000D01*
X106846666Y-64317619D01*
X106465714Y-64317619D02*
X106418095Y-64270000D01*
X106322857Y-64222380D01*
X106084761Y-64222380D01*
X105989523Y-64270000D01*
X105941904Y-64317619D01*
X105894285Y-64412857D01*
X105894285Y-64508095D01*
X105941904Y-64650952D01*
X106513333Y-65222380D01*
X105894285Y-65222380D01*
%TO.C,C1*%
X108116666Y-62587142D02*
X108164285Y-62634761D01*
X108307142Y-62682380D01*
X108402380Y-62682380D01*
X108545238Y-62634761D01*
X108640476Y-62539523D01*
X108688095Y-62444285D01*
X108735714Y-62253809D01*
X108735714Y-62110952D01*
X108688095Y-61920476D01*
X108640476Y-61825238D01*
X108545238Y-61730000D01*
X108402380Y-61682380D01*
X108307142Y-61682380D01*
X108164285Y-61730000D01*
X108116666Y-61777619D01*
X107164285Y-62682380D02*
X107735714Y-62682380D01*
X107450000Y-62682380D02*
X107450000Y-61682380D01*
X107545238Y-61825238D01*
X107640476Y-61920476D01*
X107735714Y-61968095D01*
%TD*%
M02*
