%TF.GenerationSoftware,KiCad,Pcbnew,5.1.6-c6e7f7d~87~ubuntu18.04.1*%
%TF.CreationDate,2020-10-05T23:43:03-04:00*%
%TF.ProjectId,DemoKiCad,44656d6f-4b69-4436-9164-2e6b69636164,rev?*%
%TF.SameCoordinates,Original*%
%TF.FileFunction,Copper,L2,Bot*%
%TF.FilePolarity,Positive*%
%FSLAX46Y46*%
G04 Gerber Fmt 4.6, Leading zero omitted, Abs format (unit mm)*
G04 Created by KiCad (PCBNEW 5.1.6-c6e7f7d~87~ubuntu18.04.1) date 2020-10-05 23:43:03*
%MOMM*%
%LPD*%
G01*
G04 APERTURE LIST*
%TA.AperFunction,ComponentPad*%
%ADD10O,1.700000X1.700000*%
%TD*%
%TA.AperFunction,ComponentPad*%
%ADD11R,1.700000X1.700000*%
%TD*%
%TA.AperFunction,ComponentPad*%
%ADD12O,1.500000X2.300000*%
%TD*%
%TA.AperFunction,ComponentPad*%
%ADD13R,1.500000X2.300000*%
%TD*%
%TA.AperFunction,ViaPad*%
%ADD14C,0.800000*%
%TD*%
%TA.AperFunction,Conductor*%
%ADD15C,0.254000*%
%TD*%
%TA.AperFunction,Conductor*%
%ADD16C,0.600000*%
%TD*%
G04 APERTURE END LIST*
D10*
%TO.P,J2,2*%
%TO.N,+12V*%
X103505000Y-69850000D03*
D11*
%TO.P,J2,1*%
%TO.N,GND*%
X103505000Y-72390000D03*
%TD*%
D12*
%TO.P,U1,3*%
%TO.N,V_ON*%
X107950000Y-59055000D03*
%TO.P,U1,2*%
%TO.N,GND*%
X110490000Y-59055000D03*
D13*
%TO.P,U1,1*%
%TO.N,+12V*%
X113030000Y-59055000D03*
%TD*%
D10*
%TO.P,J1,6*%
%TO.N,GND*%
X124460000Y-71120000D03*
%TO.P,J1,5*%
%TO.N,/RESET*%
X124460000Y-73660000D03*
%TO.P,J1,4*%
%TO.N,/MOSI*%
X121920000Y-71120000D03*
%TO.P,J1,3*%
%TO.N,/SCK*%
X121920000Y-73660000D03*
%TO.P,J1,2*%
%TO.N,V_ON*%
X119380000Y-71120000D03*
D11*
%TO.P,J1,1*%
%TO.N,/MISO*%
X119380000Y-73660000D03*
%TD*%
%TO.P,C4,2*%
%TO.N,GND*%
%TA.AperFunction,SMDPad,CuDef*%
G36*
G01*
X114410000Y-65007500D02*
X114410000Y-64532500D01*
G75*
G02*
X114647500Y-64295000I237500J0D01*
G01*
X115222500Y-64295000D01*
G75*
G02*
X115460000Y-64532500I0J-237500D01*
G01*
X115460000Y-65007500D01*
G75*
G02*
X115222500Y-65245000I-237500J0D01*
G01*
X114647500Y-65245000D01*
G75*
G02*
X114410000Y-65007500I0J237500D01*
G01*
G37*
%TD.AperFunction*%
%TO.P,C4,1*%
%TO.N,V_ON*%
%TA.AperFunction,SMDPad,CuDef*%
G36*
G01*
X112660000Y-65007500D02*
X112660000Y-64532500D01*
G75*
G02*
X112897500Y-64295000I237500J0D01*
G01*
X113472500Y-64295000D01*
G75*
G02*
X113710000Y-64532500I0J-237500D01*
G01*
X113710000Y-65007500D01*
G75*
G02*
X113472500Y-65245000I-237500J0D01*
G01*
X112897500Y-65245000D01*
G75*
G02*
X112660000Y-65007500I0J237500D01*
G01*
G37*
%TD.AperFunction*%
%TD*%
%TO.P,C2,2*%
%TO.N,GND*%
%TA.AperFunction,SMDPad,CuDef*%
G36*
G01*
X109745000Y-64532500D02*
X109745000Y-65007500D01*
G75*
G02*
X109507500Y-65245000I-237500J0D01*
G01*
X108932500Y-65245000D01*
G75*
G02*
X108695000Y-65007500I0J237500D01*
G01*
X108695000Y-64532500D01*
G75*
G02*
X108932500Y-64295000I237500J0D01*
G01*
X109507500Y-64295000D01*
G75*
G02*
X109745000Y-64532500I0J-237500D01*
G01*
G37*
%TD.AperFunction*%
%TO.P,C2,1*%
%TO.N,V_ON*%
%TA.AperFunction,SMDPad,CuDef*%
G36*
G01*
X111495000Y-64532500D02*
X111495000Y-65007500D01*
G75*
G02*
X111257500Y-65245000I-237500J0D01*
G01*
X110682500Y-65245000D01*
G75*
G02*
X110445000Y-65007500I0J237500D01*
G01*
X110445000Y-64532500D01*
G75*
G02*
X110682500Y-64295000I237500J0D01*
G01*
X111257500Y-64295000D01*
G75*
G02*
X111495000Y-64532500I0J-237500D01*
G01*
G37*
%TD.AperFunction*%
%TD*%
%TO.P,C1,2*%
%TO.N,GND*%
%TA.AperFunction,SMDPad,CuDef*%
G36*
G01*
X110775000Y-61992500D02*
X110775000Y-62467500D01*
G75*
G02*
X110537500Y-62705000I-237500J0D01*
G01*
X109962500Y-62705000D01*
G75*
G02*
X109725000Y-62467500I0J237500D01*
G01*
X109725000Y-61992500D01*
G75*
G02*
X109962500Y-61755000I237500J0D01*
G01*
X110537500Y-61755000D01*
G75*
G02*
X110775000Y-61992500I0J-237500D01*
G01*
G37*
%TD.AperFunction*%
%TO.P,C1,1*%
%TO.N,+12V*%
%TA.AperFunction,SMDPad,CuDef*%
G36*
G01*
X112525000Y-61992500D02*
X112525000Y-62467500D01*
G75*
G02*
X112287500Y-62705000I-237500J0D01*
G01*
X111712500Y-62705000D01*
G75*
G02*
X111475000Y-62467500I0J237500D01*
G01*
X111475000Y-61992500D01*
G75*
G02*
X111712500Y-61755000I237500J0D01*
G01*
X112287500Y-61755000D01*
G75*
G02*
X112525000Y-61992500I0J-237500D01*
G01*
G37*
%TD.AperFunction*%
%TD*%
D14*
%TO.N,GND*%
X118110000Y-55880000D03*
X125730000Y-55880000D03*
X124460000Y-63500000D03*
X114300000Y-73660000D03*
X107950000Y-73660000D03*
%TO.N,V_ON*%
X120650000Y-60325000D03*
X120650000Y-67853000D03*
%TO.N,Net-(C3-Pad1)*%
X125730000Y-60325000D03*
X127635000Y-68580000D03*
%TO.N,/RESET*%
X125730000Y-61595000D03*
%TO.N,/MOSI*%
X121053000Y-62230000D03*
%TO.N,/SCK*%
X118745000Y-67310000D03*
X117567000Y-71755000D03*
%TO.N,/MISO*%
X120032534Y-64818199D03*
%TD*%
D15*
%TO.N,+12V*%
X113030000Y-59055000D02*
X113030000Y-60325000D01*
X112000000Y-61355000D02*
X112000000Y-62230000D01*
X113030000Y-60325000D02*
X112000000Y-61355000D01*
D16*
X103505000Y-69850000D02*
X103505000Y-59055000D01*
X103505000Y-59055000D02*
X106045000Y-56515000D01*
X106045000Y-56515000D02*
X112395000Y-56515000D01*
X113030000Y-57150000D02*
X113030000Y-59055000D01*
X112395000Y-56515000D02*
X113030000Y-57150000D01*
D15*
%TO.N,V_ON*%
X110970000Y-64770000D02*
X113185000Y-64770000D01*
X110970000Y-64770000D02*
X110970000Y-63980000D01*
X110970000Y-63980000D02*
X110490000Y-63500000D01*
X110490000Y-63500000D02*
X108585000Y-63500000D01*
X107950000Y-62865000D02*
X107950000Y-59055000D01*
X108585000Y-63500000D02*
X107950000Y-62865000D01*
X113185000Y-64770000D02*
X113185000Y-63980000D01*
X113185000Y-63980000D02*
X116840000Y-60325000D01*
X116840000Y-60325000D02*
X120650000Y-60325000D01*
X120650000Y-67853000D02*
X119380000Y-69123000D01*
X119380000Y-69123000D02*
X119380000Y-71120000D01*
%TO.N,Net-(C3-Pad1)*%
X125730000Y-60325000D02*
X127635000Y-62230000D01*
X127635000Y-62230000D02*
X127635000Y-68580000D01*
%TO.N,/RESET*%
X125730000Y-72390000D02*
X124460000Y-73660000D01*
X125730000Y-61595000D02*
X125730000Y-72390000D01*
%TO.N,/MOSI*%
X121053000Y-62230000D02*
X121920000Y-63097000D01*
X121920000Y-63097000D02*
X121920000Y-71120000D01*
%TO.N,/SCK*%
X118745000Y-67310000D02*
X117567000Y-68488000D01*
X117567000Y-68488000D02*
X117567000Y-71755000D01*
%TO.N,/MISO*%
X120032534Y-64818199D02*
X118696801Y-64818199D01*
X118696801Y-64818199D02*
X116840000Y-66675000D01*
X116840000Y-66675000D02*
X116840000Y-72390000D01*
X118110000Y-73660000D02*
X119380000Y-73660000D01*
X116840000Y-72390000D02*
X118110000Y-73660000D01*
%TD*%
%TO.N,GND*%
G36*
X128855001Y-75515000D02*
G01*
X102285000Y-75515000D01*
X102285000Y-73757812D01*
X102300506Y-73770537D01*
X102410820Y-73829502D01*
X102530518Y-73865812D01*
X102655000Y-73878072D01*
X103219250Y-73875000D01*
X103378000Y-73716250D01*
X103378000Y-72517000D01*
X103632000Y-72517000D01*
X103632000Y-73716250D01*
X103790750Y-73875000D01*
X104355000Y-73878072D01*
X104479482Y-73865812D01*
X104599180Y-73829502D01*
X104709494Y-73770537D01*
X104806185Y-73691185D01*
X104885537Y-73594494D01*
X104944502Y-73484180D01*
X104980812Y-73364482D01*
X104993072Y-73240000D01*
X104990000Y-72675750D01*
X104831250Y-72517000D01*
X103632000Y-72517000D01*
X103378000Y-72517000D01*
X103358000Y-72517000D01*
X103358000Y-72263000D01*
X103378000Y-72263000D01*
X103378000Y-72243000D01*
X103632000Y-72243000D01*
X103632000Y-72263000D01*
X104831250Y-72263000D01*
X104990000Y-72104250D01*
X104993072Y-71540000D01*
X104980812Y-71415518D01*
X104944502Y-71295820D01*
X104885537Y-71185506D01*
X104806185Y-71088815D01*
X104709494Y-71009463D01*
X104599180Y-70950498D01*
X104526620Y-70928487D01*
X104658475Y-70796632D01*
X104820990Y-70553411D01*
X104932932Y-70283158D01*
X104990000Y-69996260D01*
X104990000Y-69703740D01*
X104932932Y-69416842D01*
X104820990Y-69146589D01*
X104658475Y-68903368D01*
X104451632Y-68696525D01*
X104440000Y-68688753D01*
X104440000Y-65245000D01*
X108056928Y-65245000D01*
X108069188Y-65369482D01*
X108105498Y-65489180D01*
X108164463Y-65599494D01*
X108243815Y-65696185D01*
X108340506Y-65775537D01*
X108450820Y-65834502D01*
X108570518Y-65870812D01*
X108695000Y-65883072D01*
X108934250Y-65880000D01*
X109093000Y-65721250D01*
X109093000Y-64897000D01*
X108218750Y-64897000D01*
X108060000Y-65055750D01*
X108056928Y-65245000D01*
X104440000Y-65245000D01*
X104440000Y-59442289D01*
X106432290Y-57450000D01*
X107266321Y-57450000D01*
X107176813Y-57497843D01*
X106965920Y-57670919D01*
X106792843Y-57881812D01*
X106664236Y-58122419D01*
X106585040Y-58383493D01*
X106565000Y-58586963D01*
X106565000Y-59523036D01*
X106585040Y-59726506D01*
X106664236Y-59987580D01*
X106792843Y-60228187D01*
X106965919Y-60439080D01*
X107176812Y-60612157D01*
X107188001Y-60618137D01*
X107188000Y-62827577D01*
X107184314Y-62865000D01*
X107188000Y-62902423D01*
X107188000Y-62902425D01*
X107199026Y-63014377D01*
X107242598Y-63158014D01*
X107242599Y-63158015D01*
X107313355Y-63290392D01*
X107342782Y-63326248D01*
X107408578Y-63406422D01*
X107437654Y-63430284D01*
X108019716Y-64012346D01*
X108043578Y-64041422D01*
X108095438Y-64083982D01*
X108069188Y-64170518D01*
X108056928Y-64295000D01*
X108060000Y-64484250D01*
X108218750Y-64643000D01*
X109093000Y-64643000D01*
X109093000Y-64623000D01*
X109347000Y-64623000D01*
X109347000Y-64643000D01*
X109367000Y-64643000D01*
X109367000Y-64897000D01*
X109347000Y-64897000D01*
X109347000Y-65721250D01*
X109505750Y-65880000D01*
X109745000Y-65883072D01*
X109869482Y-65870812D01*
X109989180Y-65834502D01*
X110099494Y-65775537D01*
X110172161Y-65715901D01*
X110196058Y-65735512D01*
X110347433Y-65816423D01*
X110511684Y-65866248D01*
X110682500Y-65883072D01*
X111257500Y-65883072D01*
X111428316Y-65866248D01*
X111592567Y-65816423D01*
X111743942Y-65735512D01*
X111876623Y-65626623D01*
X111954278Y-65532000D01*
X112200722Y-65532000D01*
X112278377Y-65626623D01*
X112411058Y-65735512D01*
X112562433Y-65816423D01*
X112726684Y-65866248D01*
X112897500Y-65883072D01*
X113472500Y-65883072D01*
X113643316Y-65866248D01*
X113807567Y-65816423D01*
X113958942Y-65735512D01*
X113982839Y-65715901D01*
X114055506Y-65775537D01*
X114165820Y-65834502D01*
X114285518Y-65870812D01*
X114410000Y-65883072D01*
X114649250Y-65880000D01*
X114808000Y-65721250D01*
X114808000Y-64897000D01*
X115062000Y-64897000D01*
X115062000Y-65721250D01*
X115220750Y-65880000D01*
X115460000Y-65883072D01*
X115584482Y-65870812D01*
X115704180Y-65834502D01*
X115814494Y-65775537D01*
X115911185Y-65696185D01*
X115990537Y-65599494D01*
X116049502Y-65489180D01*
X116085812Y-65369482D01*
X116098072Y-65245000D01*
X116095000Y-65055750D01*
X115936250Y-64897000D01*
X115062000Y-64897000D01*
X114808000Y-64897000D01*
X114788000Y-64897000D01*
X114788000Y-64643000D01*
X114808000Y-64643000D01*
X114808000Y-63818750D01*
X115062000Y-63818750D01*
X115062000Y-64643000D01*
X115936250Y-64643000D01*
X116095000Y-64484250D01*
X116098072Y-64295000D01*
X116085812Y-64170518D01*
X116049502Y-64050820D01*
X115990537Y-63940506D01*
X115911185Y-63843815D01*
X115814494Y-63764463D01*
X115704180Y-63705498D01*
X115584482Y-63669188D01*
X115460000Y-63656928D01*
X115220750Y-63660000D01*
X115062000Y-63818750D01*
X114808000Y-63818750D01*
X114649250Y-63660000D01*
X114583475Y-63659155D01*
X117155630Y-61087000D01*
X119948289Y-61087000D01*
X119990226Y-61128937D01*
X120159744Y-61242205D01*
X120348102Y-61320226D01*
X120504935Y-61351422D01*
X120393226Y-61426063D01*
X120249063Y-61570226D01*
X120135795Y-61739744D01*
X120057774Y-61928102D01*
X120018000Y-62128061D01*
X120018000Y-62331939D01*
X120057774Y-62531898D01*
X120135795Y-62720256D01*
X120249063Y-62889774D01*
X120393226Y-63033937D01*
X120562744Y-63147205D01*
X120751102Y-63225226D01*
X120951061Y-63265000D01*
X121010369Y-63265000D01*
X121158000Y-63412631D01*
X121158000Y-66947651D01*
X121140256Y-66935795D01*
X120951898Y-66857774D01*
X120751939Y-66818000D01*
X120548061Y-66818000D01*
X120348102Y-66857774D01*
X120159744Y-66935795D01*
X119990226Y-67049063D01*
X119846063Y-67193226D01*
X119780000Y-67292097D01*
X119780000Y-67208061D01*
X119740226Y-67008102D01*
X119662205Y-66819744D01*
X119548937Y-66650226D01*
X119404774Y-66506063D01*
X119235256Y-66392795D01*
X119046898Y-66314774D01*
X118846939Y-66275000D01*
X118643061Y-66275000D01*
X118443102Y-66314774D01*
X118254744Y-66392795D01*
X118089268Y-66503362D01*
X119012432Y-65580199D01*
X119330823Y-65580199D01*
X119372760Y-65622136D01*
X119542278Y-65735404D01*
X119730636Y-65813425D01*
X119930595Y-65853199D01*
X120134473Y-65853199D01*
X120334432Y-65813425D01*
X120522790Y-65735404D01*
X120692308Y-65622136D01*
X120836471Y-65477973D01*
X120949739Y-65308455D01*
X121027760Y-65120097D01*
X121067534Y-64920138D01*
X121067534Y-64716260D01*
X121027760Y-64516301D01*
X120949739Y-64327943D01*
X120836471Y-64158425D01*
X120692308Y-64014262D01*
X120522790Y-63900994D01*
X120334432Y-63822973D01*
X120134473Y-63783199D01*
X119930595Y-63783199D01*
X119730636Y-63822973D01*
X119542278Y-63900994D01*
X119372760Y-64014262D01*
X119330823Y-64056199D01*
X118734223Y-64056199D01*
X118696800Y-64052513D01*
X118659377Y-64056199D01*
X118659375Y-64056199D01*
X118547423Y-64067225D01*
X118403786Y-64110797D01*
X118271409Y-64181554D01*
X118155379Y-64276777D01*
X118131522Y-64305847D01*
X116327654Y-66109716D01*
X116298578Y-66133578D01*
X116242983Y-66201322D01*
X116203355Y-66249608D01*
X116189783Y-66275000D01*
X116132598Y-66381986D01*
X116089026Y-66525623D01*
X116081445Y-66602599D01*
X116074314Y-66675000D01*
X116078000Y-66712423D01*
X116078001Y-72352567D01*
X116074314Y-72390000D01*
X116089027Y-72539378D01*
X116132599Y-72683015D01*
X116203355Y-72815392D01*
X116271150Y-72898000D01*
X116298579Y-72931422D01*
X116327649Y-72955279D01*
X117544721Y-74172352D01*
X117568578Y-74201422D01*
X117684608Y-74296645D01*
X117816985Y-74367402D01*
X117891928Y-74390136D01*
X117891928Y-74510000D01*
X117904188Y-74634482D01*
X117940498Y-74754180D01*
X117999463Y-74864494D01*
X118078815Y-74961185D01*
X118175506Y-75040537D01*
X118285820Y-75099502D01*
X118405518Y-75135812D01*
X118530000Y-75148072D01*
X120230000Y-75148072D01*
X120354482Y-75135812D01*
X120474180Y-75099502D01*
X120584494Y-75040537D01*
X120681185Y-74961185D01*
X120760537Y-74864494D01*
X120819502Y-74754180D01*
X120841513Y-74681620D01*
X120973368Y-74813475D01*
X121216589Y-74975990D01*
X121486842Y-75087932D01*
X121773740Y-75145000D01*
X122066260Y-75145000D01*
X122353158Y-75087932D01*
X122623411Y-74975990D01*
X122866632Y-74813475D01*
X123073475Y-74606632D01*
X123190000Y-74432240D01*
X123306525Y-74606632D01*
X123513368Y-74813475D01*
X123756589Y-74975990D01*
X124026842Y-75087932D01*
X124313740Y-75145000D01*
X124606260Y-75145000D01*
X124893158Y-75087932D01*
X125163411Y-74975990D01*
X125406632Y-74813475D01*
X125613475Y-74606632D01*
X125775990Y-74363411D01*
X125887932Y-74093158D01*
X125945000Y-73806260D01*
X125945000Y-73513740D01*
X125901679Y-73295952D01*
X126242352Y-72955279D01*
X126271422Y-72931422D01*
X126366645Y-72815392D01*
X126437402Y-72683015D01*
X126480974Y-72539378D01*
X126492000Y-72427426D01*
X126492000Y-72427424D01*
X126495686Y-72390001D01*
X126492000Y-72352578D01*
X126492000Y-62296711D01*
X126533937Y-62254774D01*
X126553246Y-62225876D01*
X126873000Y-62545631D01*
X126873001Y-67878288D01*
X126831063Y-67920226D01*
X126717795Y-68089744D01*
X126639774Y-68278102D01*
X126600000Y-68478061D01*
X126600000Y-68681939D01*
X126639774Y-68881898D01*
X126717795Y-69070256D01*
X126831063Y-69239774D01*
X126975226Y-69383937D01*
X127144744Y-69497205D01*
X127333102Y-69575226D01*
X127533061Y-69615000D01*
X127736939Y-69615000D01*
X127936898Y-69575226D01*
X128125256Y-69497205D01*
X128294774Y-69383937D01*
X128438937Y-69239774D01*
X128552205Y-69070256D01*
X128630226Y-68881898D01*
X128670000Y-68681939D01*
X128670000Y-68478061D01*
X128630226Y-68278102D01*
X128552205Y-68089744D01*
X128438937Y-67920226D01*
X128397000Y-67878289D01*
X128397000Y-62267423D01*
X128400686Y-62230000D01*
X128390646Y-62128061D01*
X128385974Y-62080622D01*
X128342402Y-61936985D01*
X128309465Y-61875364D01*
X128271645Y-61804607D01*
X128200279Y-61717648D01*
X128176422Y-61688578D01*
X128147352Y-61664721D01*
X126765000Y-60282370D01*
X126765000Y-60223061D01*
X126725226Y-60023102D01*
X126647205Y-59834744D01*
X126533937Y-59665226D01*
X126389774Y-59521063D01*
X126220256Y-59407795D01*
X126031898Y-59329774D01*
X125831939Y-59290000D01*
X125628061Y-59290000D01*
X125428102Y-59329774D01*
X125239744Y-59407795D01*
X125070226Y-59521063D01*
X124926063Y-59665226D01*
X124812795Y-59834744D01*
X124734774Y-60023102D01*
X124695000Y-60223061D01*
X124695000Y-60426939D01*
X124734774Y-60626898D01*
X124812795Y-60815256D01*
X124909510Y-60960000D01*
X124812795Y-61104744D01*
X124734774Y-61293102D01*
X124695000Y-61493061D01*
X124695000Y-61696939D01*
X124734774Y-61896898D01*
X124812795Y-62085256D01*
X124926063Y-62254774D01*
X124968000Y-62296711D01*
X124968001Y-69725033D01*
X124964099Y-69723175D01*
X124816890Y-69678524D01*
X124587000Y-69799845D01*
X124587000Y-70993000D01*
X124607000Y-70993000D01*
X124607000Y-71247000D01*
X124587000Y-71247000D01*
X124587000Y-71267000D01*
X124333000Y-71267000D01*
X124333000Y-71247000D01*
X124313000Y-71247000D01*
X124313000Y-70993000D01*
X124333000Y-70993000D01*
X124333000Y-69799845D01*
X124103110Y-69678524D01*
X123955901Y-69723175D01*
X123693080Y-69848359D01*
X123459731Y-70022412D01*
X123264822Y-70238645D01*
X123195195Y-70355534D01*
X123073475Y-70173368D01*
X122866632Y-69966525D01*
X122682000Y-69843158D01*
X122682000Y-63134422D01*
X122685686Y-63096999D01*
X122679475Y-63033937D01*
X122670974Y-62947622D01*
X122627402Y-62803985D01*
X122556645Y-62671608D01*
X122461422Y-62555578D01*
X122432353Y-62531722D01*
X122088000Y-62187369D01*
X122088000Y-62128061D01*
X122048226Y-61928102D01*
X121970205Y-61739744D01*
X121856937Y-61570226D01*
X121712774Y-61426063D01*
X121543256Y-61312795D01*
X121354898Y-61234774D01*
X121198065Y-61203578D01*
X121309774Y-61128937D01*
X121453937Y-60984774D01*
X121567205Y-60815256D01*
X121645226Y-60626898D01*
X121685000Y-60426939D01*
X121685000Y-60223061D01*
X121645226Y-60023102D01*
X121567205Y-59834744D01*
X121453937Y-59665226D01*
X121309774Y-59521063D01*
X121140256Y-59407795D01*
X120951898Y-59329774D01*
X120751939Y-59290000D01*
X120548061Y-59290000D01*
X120348102Y-59329774D01*
X120159744Y-59407795D01*
X119990226Y-59521063D01*
X119948289Y-59563000D01*
X116877423Y-59563000D01*
X116840000Y-59559314D01*
X116802577Y-59563000D01*
X116802574Y-59563000D01*
X116690622Y-59574026D01*
X116546985Y-59617598D01*
X116485364Y-59650535D01*
X116414607Y-59688355D01*
X116376849Y-59719343D01*
X116298578Y-59783578D01*
X116274716Y-59812654D01*
X112672649Y-63414721D01*
X112643579Y-63438578D01*
X112619722Y-63467648D01*
X112619721Y-63467649D01*
X112548355Y-63554608D01*
X112487112Y-63669188D01*
X112477599Y-63686985D01*
X112447933Y-63784778D01*
X112411058Y-63804488D01*
X112278377Y-63913377D01*
X112200722Y-64008000D01*
X111954278Y-64008000D01*
X111876623Y-63913377D01*
X111743942Y-63804488D01*
X111707067Y-63784778D01*
X111677402Y-63686985D01*
X111616156Y-63572402D01*
X111606645Y-63554607D01*
X111580206Y-63522392D01*
X111511422Y-63438578D01*
X111482341Y-63414712D01*
X111305723Y-63238093D01*
X111377433Y-63276423D01*
X111541684Y-63326248D01*
X111712500Y-63343072D01*
X112287500Y-63343072D01*
X112458316Y-63326248D01*
X112622567Y-63276423D01*
X112773942Y-63195512D01*
X112906623Y-63086623D01*
X113015512Y-62953942D01*
X113096423Y-62802567D01*
X113146248Y-62638316D01*
X113163072Y-62467500D01*
X113163072Y-61992500D01*
X113146248Y-61821684D01*
X113096423Y-61657433D01*
X113015512Y-61506058D01*
X112975422Y-61457208D01*
X113542351Y-60890279D01*
X113571422Y-60866422D01*
X113590585Y-60843072D01*
X113780000Y-60843072D01*
X113904482Y-60830812D01*
X114024180Y-60794502D01*
X114134494Y-60735537D01*
X114231185Y-60656185D01*
X114310537Y-60559494D01*
X114369502Y-60449180D01*
X114405812Y-60329482D01*
X114418072Y-60205000D01*
X114418072Y-57905000D01*
X114405812Y-57780518D01*
X114369502Y-57660820D01*
X114310537Y-57550506D01*
X114231185Y-57453815D01*
X114134494Y-57374463D01*
X114024180Y-57315498D01*
X113965000Y-57297546D01*
X113965000Y-57195935D01*
X113969524Y-57150000D01*
X113951472Y-56966708D01*
X113898007Y-56790459D01*
X113848743Y-56698293D01*
X113811186Y-56628028D01*
X113694344Y-56485656D01*
X113658660Y-56456371D01*
X113088630Y-55886341D01*
X113059344Y-55850656D01*
X112916972Y-55733814D01*
X112754540Y-55646993D01*
X112578292Y-55593529D01*
X112440932Y-55580000D01*
X112395000Y-55575476D01*
X112349068Y-55580000D01*
X106090924Y-55580000D01*
X106044999Y-55575477D01*
X105999074Y-55580000D01*
X105999068Y-55580000D01*
X105880110Y-55591717D01*
X105861707Y-55593529D01*
X105808243Y-55609747D01*
X105685460Y-55646993D01*
X105523028Y-55733814D01*
X105380656Y-55850656D01*
X105351374Y-55886336D01*
X102876336Y-58361375D01*
X102840657Y-58390656D01*
X102723815Y-58533028D01*
X102672192Y-58629609D01*
X102636994Y-58695460D01*
X102583529Y-58871709D01*
X102565476Y-59055000D01*
X102570001Y-59100942D01*
X102570000Y-68688753D01*
X102558368Y-68696525D01*
X102351525Y-68903368D01*
X102285000Y-69002930D01*
X102285000Y-55295000D01*
X128855000Y-55295000D01*
X128855001Y-75515000D01*
G37*
X128855001Y-75515000D02*
X102285000Y-75515000D01*
X102285000Y-73757812D01*
X102300506Y-73770537D01*
X102410820Y-73829502D01*
X102530518Y-73865812D01*
X102655000Y-73878072D01*
X103219250Y-73875000D01*
X103378000Y-73716250D01*
X103378000Y-72517000D01*
X103632000Y-72517000D01*
X103632000Y-73716250D01*
X103790750Y-73875000D01*
X104355000Y-73878072D01*
X104479482Y-73865812D01*
X104599180Y-73829502D01*
X104709494Y-73770537D01*
X104806185Y-73691185D01*
X104885537Y-73594494D01*
X104944502Y-73484180D01*
X104980812Y-73364482D01*
X104993072Y-73240000D01*
X104990000Y-72675750D01*
X104831250Y-72517000D01*
X103632000Y-72517000D01*
X103378000Y-72517000D01*
X103358000Y-72517000D01*
X103358000Y-72263000D01*
X103378000Y-72263000D01*
X103378000Y-72243000D01*
X103632000Y-72243000D01*
X103632000Y-72263000D01*
X104831250Y-72263000D01*
X104990000Y-72104250D01*
X104993072Y-71540000D01*
X104980812Y-71415518D01*
X104944502Y-71295820D01*
X104885537Y-71185506D01*
X104806185Y-71088815D01*
X104709494Y-71009463D01*
X104599180Y-70950498D01*
X104526620Y-70928487D01*
X104658475Y-70796632D01*
X104820990Y-70553411D01*
X104932932Y-70283158D01*
X104990000Y-69996260D01*
X104990000Y-69703740D01*
X104932932Y-69416842D01*
X104820990Y-69146589D01*
X104658475Y-68903368D01*
X104451632Y-68696525D01*
X104440000Y-68688753D01*
X104440000Y-65245000D01*
X108056928Y-65245000D01*
X108069188Y-65369482D01*
X108105498Y-65489180D01*
X108164463Y-65599494D01*
X108243815Y-65696185D01*
X108340506Y-65775537D01*
X108450820Y-65834502D01*
X108570518Y-65870812D01*
X108695000Y-65883072D01*
X108934250Y-65880000D01*
X109093000Y-65721250D01*
X109093000Y-64897000D01*
X108218750Y-64897000D01*
X108060000Y-65055750D01*
X108056928Y-65245000D01*
X104440000Y-65245000D01*
X104440000Y-59442289D01*
X106432290Y-57450000D01*
X107266321Y-57450000D01*
X107176813Y-57497843D01*
X106965920Y-57670919D01*
X106792843Y-57881812D01*
X106664236Y-58122419D01*
X106585040Y-58383493D01*
X106565000Y-58586963D01*
X106565000Y-59523036D01*
X106585040Y-59726506D01*
X106664236Y-59987580D01*
X106792843Y-60228187D01*
X106965919Y-60439080D01*
X107176812Y-60612157D01*
X107188001Y-60618137D01*
X107188000Y-62827577D01*
X107184314Y-62865000D01*
X107188000Y-62902423D01*
X107188000Y-62902425D01*
X107199026Y-63014377D01*
X107242598Y-63158014D01*
X107242599Y-63158015D01*
X107313355Y-63290392D01*
X107342782Y-63326248D01*
X107408578Y-63406422D01*
X107437654Y-63430284D01*
X108019716Y-64012346D01*
X108043578Y-64041422D01*
X108095438Y-64083982D01*
X108069188Y-64170518D01*
X108056928Y-64295000D01*
X108060000Y-64484250D01*
X108218750Y-64643000D01*
X109093000Y-64643000D01*
X109093000Y-64623000D01*
X109347000Y-64623000D01*
X109347000Y-64643000D01*
X109367000Y-64643000D01*
X109367000Y-64897000D01*
X109347000Y-64897000D01*
X109347000Y-65721250D01*
X109505750Y-65880000D01*
X109745000Y-65883072D01*
X109869482Y-65870812D01*
X109989180Y-65834502D01*
X110099494Y-65775537D01*
X110172161Y-65715901D01*
X110196058Y-65735512D01*
X110347433Y-65816423D01*
X110511684Y-65866248D01*
X110682500Y-65883072D01*
X111257500Y-65883072D01*
X111428316Y-65866248D01*
X111592567Y-65816423D01*
X111743942Y-65735512D01*
X111876623Y-65626623D01*
X111954278Y-65532000D01*
X112200722Y-65532000D01*
X112278377Y-65626623D01*
X112411058Y-65735512D01*
X112562433Y-65816423D01*
X112726684Y-65866248D01*
X112897500Y-65883072D01*
X113472500Y-65883072D01*
X113643316Y-65866248D01*
X113807567Y-65816423D01*
X113958942Y-65735512D01*
X113982839Y-65715901D01*
X114055506Y-65775537D01*
X114165820Y-65834502D01*
X114285518Y-65870812D01*
X114410000Y-65883072D01*
X114649250Y-65880000D01*
X114808000Y-65721250D01*
X114808000Y-64897000D01*
X115062000Y-64897000D01*
X115062000Y-65721250D01*
X115220750Y-65880000D01*
X115460000Y-65883072D01*
X115584482Y-65870812D01*
X115704180Y-65834502D01*
X115814494Y-65775537D01*
X115911185Y-65696185D01*
X115990537Y-65599494D01*
X116049502Y-65489180D01*
X116085812Y-65369482D01*
X116098072Y-65245000D01*
X116095000Y-65055750D01*
X115936250Y-64897000D01*
X115062000Y-64897000D01*
X114808000Y-64897000D01*
X114788000Y-64897000D01*
X114788000Y-64643000D01*
X114808000Y-64643000D01*
X114808000Y-63818750D01*
X115062000Y-63818750D01*
X115062000Y-64643000D01*
X115936250Y-64643000D01*
X116095000Y-64484250D01*
X116098072Y-64295000D01*
X116085812Y-64170518D01*
X116049502Y-64050820D01*
X115990537Y-63940506D01*
X115911185Y-63843815D01*
X115814494Y-63764463D01*
X115704180Y-63705498D01*
X115584482Y-63669188D01*
X115460000Y-63656928D01*
X115220750Y-63660000D01*
X115062000Y-63818750D01*
X114808000Y-63818750D01*
X114649250Y-63660000D01*
X114583475Y-63659155D01*
X117155630Y-61087000D01*
X119948289Y-61087000D01*
X119990226Y-61128937D01*
X120159744Y-61242205D01*
X120348102Y-61320226D01*
X120504935Y-61351422D01*
X120393226Y-61426063D01*
X120249063Y-61570226D01*
X120135795Y-61739744D01*
X120057774Y-61928102D01*
X120018000Y-62128061D01*
X120018000Y-62331939D01*
X120057774Y-62531898D01*
X120135795Y-62720256D01*
X120249063Y-62889774D01*
X120393226Y-63033937D01*
X120562744Y-63147205D01*
X120751102Y-63225226D01*
X120951061Y-63265000D01*
X121010369Y-63265000D01*
X121158000Y-63412631D01*
X121158000Y-66947651D01*
X121140256Y-66935795D01*
X120951898Y-66857774D01*
X120751939Y-66818000D01*
X120548061Y-66818000D01*
X120348102Y-66857774D01*
X120159744Y-66935795D01*
X119990226Y-67049063D01*
X119846063Y-67193226D01*
X119780000Y-67292097D01*
X119780000Y-67208061D01*
X119740226Y-67008102D01*
X119662205Y-66819744D01*
X119548937Y-66650226D01*
X119404774Y-66506063D01*
X119235256Y-66392795D01*
X119046898Y-66314774D01*
X118846939Y-66275000D01*
X118643061Y-66275000D01*
X118443102Y-66314774D01*
X118254744Y-66392795D01*
X118089268Y-66503362D01*
X119012432Y-65580199D01*
X119330823Y-65580199D01*
X119372760Y-65622136D01*
X119542278Y-65735404D01*
X119730636Y-65813425D01*
X119930595Y-65853199D01*
X120134473Y-65853199D01*
X120334432Y-65813425D01*
X120522790Y-65735404D01*
X120692308Y-65622136D01*
X120836471Y-65477973D01*
X120949739Y-65308455D01*
X121027760Y-65120097D01*
X121067534Y-64920138D01*
X121067534Y-64716260D01*
X121027760Y-64516301D01*
X120949739Y-64327943D01*
X120836471Y-64158425D01*
X120692308Y-64014262D01*
X120522790Y-63900994D01*
X120334432Y-63822973D01*
X120134473Y-63783199D01*
X119930595Y-63783199D01*
X119730636Y-63822973D01*
X119542278Y-63900994D01*
X119372760Y-64014262D01*
X119330823Y-64056199D01*
X118734223Y-64056199D01*
X118696800Y-64052513D01*
X118659377Y-64056199D01*
X118659375Y-64056199D01*
X118547423Y-64067225D01*
X118403786Y-64110797D01*
X118271409Y-64181554D01*
X118155379Y-64276777D01*
X118131522Y-64305847D01*
X116327654Y-66109716D01*
X116298578Y-66133578D01*
X116242983Y-66201322D01*
X116203355Y-66249608D01*
X116189783Y-66275000D01*
X116132598Y-66381986D01*
X116089026Y-66525623D01*
X116081445Y-66602599D01*
X116074314Y-66675000D01*
X116078000Y-66712423D01*
X116078001Y-72352567D01*
X116074314Y-72390000D01*
X116089027Y-72539378D01*
X116132599Y-72683015D01*
X116203355Y-72815392D01*
X116271150Y-72898000D01*
X116298579Y-72931422D01*
X116327649Y-72955279D01*
X117544721Y-74172352D01*
X117568578Y-74201422D01*
X117684608Y-74296645D01*
X117816985Y-74367402D01*
X117891928Y-74390136D01*
X117891928Y-74510000D01*
X117904188Y-74634482D01*
X117940498Y-74754180D01*
X117999463Y-74864494D01*
X118078815Y-74961185D01*
X118175506Y-75040537D01*
X118285820Y-75099502D01*
X118405518Y-75135812D01*
X118530000Y-75148072D01*
X120230000Y-75148072D01*
X120354482Y-75135812D01*
X120474180Y-75099502D01*
X120584494Y-75040537D01*
X120681185Y-74961185D01*
X120760537Y-74864494D01*
X120819502Y-74754180D01*
X120841513Y-74681620D01*
X120973368Y-74813475D01*
X121216589Y-74975990D01*
X121486842Y-75087932D01*
X121773740Y-75145000D01*
X122066260Y-75145000D01*
X122353158Y-75087932D01*
X122623411Y-74975990D01*
X122866632Y-74813475D01*
X123073475Y-74606632D01*
X123190000Y-74432240D01*
X123306525Y-74606632D01*
X123513368Y-74813475D01*
X123756589Y-74975990D01*
X124026842Y-75087932D01*
X124313740Y-75145000D01*
X124606260Y-75145000D01*
X124893158Y-75087932D01*
X125163411Y-74975990D01*
X125406632Y-74813475D01*
X125613475Y-74606632D01*
X125775990Y-74363411D01*
X125887932Y-74093158D01*
X125945000Y-73806260D01*
X125945000Y-73513740D01*
X125901679Y-73295952D01*
X126242352Y-72955279D01*
X126271422Y-72931422D01*
X126366645Y-72815392D01*
X126437402Y-72683015D01*
X126480974Y-72539378D01*
X126492000Y-72427426D01*
X126492000Y-72427424D01*
X126495686Y-72390001D01*
X126492000Y-72352578D01*
X126492000Y-62296711D01*
X126533937Y-62254774D01*
X126553246Y-62225876D01*
X126873000Y-62545631D01*
X126873001Y-67878288D01*
X126831063Y-67920226D01*
X126717795Y-68089744D01*
X126639774Y-68278102D01*
X126600000Y-68478061D01*
X126600000Y-68681939D01*
X126639774Y-68881898D01*
X126717795Y-69070256D01*
X126831063Y-69239774D01*
X126975226Y-69383937D01*
X127144744Y-69497205D01*
X127333102Y-69575226D01*
X127533061Y-69615000D01*
X127736939Y-69615000D01*
X127936898Y-69575226D01*
X128125256Y-69497205D01*
X128294774Y-69383937D01*
X128438937Y-69239774D01*
X128552205Y-69070256D01*
X128630226Y-68881898D01*
X128670000Y-68681939D01*
X128670000Y-68478061D01*
X128630226Y-68278102D01*
X128552205Y-68089744D01*
X128438937Y-67920226D01*
X128397000Y-67878289D01*
X128397000Y-62267423D01*
X128400686Y-62230000D01*
X128390646Y-62128061D01*
X128385974Y-62080622D01*
X128342402Y-61936985D01*
X128309465Y-61875364D01*
X128271645Y-61804607D01*
X128200279Y-61717648D01*
X128176422Y-61688578D01*
X128147352Y-61664721D01*
X126765000Y-60282370D01*
X126765000Y-60223061D01*
X126725226Y-60023102D01*
X126647205Y-59834744D01*
X126533937Y-59665226D01*
X126389774Y-59521063D01*
X126220256Y-59407795D01*
X126031898Y-59329774D01*
X125831939Y-59290000D01*
X125628061Y-59290000D01*
X125428102Y-59329774D01*
X125239744Y-59407795D01*
X125070226Y-59521063D01*
X124926063Y-59665226D01*
X124812795Y-59834744D01*
X124734774Y-60023102D01*
X124695000Y-60223061D01*
X124695000Y-60426939D01*
X124734774Y-60626898D01*
X124812795Y-60815256D01*
X124909510Y-60960000D01*
X124812795Y-61104744D01*
X124734774Y-61293102D01*
X124695000Y-61493061D01*
X124695000Y-61696939D01*
X124734774Y-61896898D01*
X124812795Y-62085256D01*
X124926063Y-62254774D01*
X124968000Y-62296711D01*
X124968001Y-69725033D01*
X124964099Y-69723175D01*
X124816890Y-69678524D01*
X124587000Y-69799845D01*
X124587000Y-70993000D01*
X124607000Y-70993000D01*
X124607000Y-71247000D01*
X124587000Y-71247000D01*
X124587000Y-71267000D01*
X124333000Y-71267000D01*
X124333000Y-71247000D01*
X124313000Y-71247000D01*
X124313000Y-70993000D01*
X124333000Y-70993000D01*
X124333000Y-69799845D01*
X124103110Y-69678524D01*
X123955901Y-69723175D01*
X123693080Y-69848359D01*
X123459731Y-70022412D01*
X123264822Y-70238645D01*
X123195195Y-70355534D01*
X123073475Y-70173368D01*
X122866632Y-69966525D01*
X122682000Y-69843158D01*
X122682000Y-63134422D01*
X122685686Y-63096999D01*
X122679475Y-63033937D01*
X122670974Y-62947622D01*
X122627402Y-62803985D01*
X122556645Y-62671608D01*
X122461422Y-62555578D01*
X122432353Y-62531722D01*
X122088000Y-62187369D01*
X122088000Y-62128061D01*
X122048226Y-61928102D01*
X121970205Y-61739744D01*
X121856937Y-61570226D01*
X121712774Y-61426063D01*
X121543256Y-61312795D01*
X121354898Y-61234774D01*
X121198065Y-61203578D01*
X121309774Y-61128937D01*
X121453937Y-60984774D01*
X121567205Y-60815256D01*
X121645226Y-60626898D01*
X121685000Y-60426939D01*
X121685000Y-60223061D01*
X121645226Y-60023102D01*
X121567205Y-59834744D01*
X121453937Y-59665226D01*
X121309774Y-59521063D01*
X121140256Y-59407795D01*
X120951898Y-59329774D01*
X120751939Y-59290000D01*
X120548061Y-59290000D01*
X120348102Y-59329774D01*
X120159744Y-59407795D01*
X119990226Y-59521063D01*
X119948289Y-59563000D01*
X116877423Y-59563000D01*
X116840000Y-59559314D01*
X116802577Y-59563000D01*
X116802574Y-59563000D01*
X116690622Y-59574026D01*
X116546985Y-59617598D01*
X116485364Y-59650535D01*
X116414607Y-59688355D01*
X116376849Y-59719343D01*
X116298578Y-59783578D01*
X116274716Y-59812654D01*
X112672649Y-63414721D01*
X112643579Y-63438578D01*
X112619722Y-63467648D01*
X112619721Y-63467649D01*
X112548355Y-63554608D01*
X112487112Y-63669188D01*
X112477599Y-63686985D01*
X112447933Y-63784778D01*
X112411058Y-63804488D01*
X112278377Y-63913377D01*
X112200722Y-64008000D01*
X111954278Y-64008000D01*
X111876623Y-63913377D01*
X111743942Y-63804488D01*
X111707067Y-63784778D01*
X111677402Y-63686985D01*
X111616156Y-63572402D01*
X111606645Y-63554607D01*
X111580206Y-63522392D01*
X111511422Y-63438578D01*
X111482341Y-63414712D01*
X111305723Y-63238093D01*
X111377433Y-63276423D01*
X111541684Y-63326248D01*
X111712500Y-63343072D01*
X112287500Y-63343072D01*
X112458316Y-63326248D01*
X112622567Y-63276423D01*
X112773942Y-63195512D01*
X112906623Y-63086623D01*
X113015512Y-62953942D01*
X113096423Y-62802567D01*
X113146248Y-62638316D01*
X113163072Y-62467500D01*
X113163072Y-61992500D01*
X113146248Y-61821684D01*
X113096423Y-61657433D01*
X113015512Y-61506058D01*
X112975422Y-61457208D01*
X113542351Y-60890279D01*
X113571422Y-60866422D01*
X113590585Y-60843072D01*
X113780000Y-60843072D01*
X113904482Y-60830812D01*
X114024180Y-60794502D01*
X114134494Y-60735537D01*
X114231185Y-60656185D01*
X114310537Y-60559494D01*
X114369502Y-60449180D01*
X114405812Y-60329482D01*
X114418072Y-60205000D01*
X114418072Y-57905000D01*
X114405812Y-57780518D01*
X114369502Y-57660820D01*
X114310537Y-57550506D01*
X114231185Y-57453815D01*
X114134494Y-57374463D01*
X114024180Y-57315498D01*
X113965000Y-57297546D01*
X113965000Y-57195935D01*
X113969524Y-57150000D01*
X113951472Y-56966708D01*
X113898007Y-56790459D01*
X113848743Y-56698293D01*
X113811186Y-56628028D01*
X113694344Y-56485656D01*
X113658660Y-56456371D01*
X113088630Y-55886341D01*
X113059344Y-55850656D01*
X112916972Y-55733814D01*
X112754540Y-55646993D01*
X112578292Y-55593529D01*
X112440932Y-55580000D01*
X112395000Y-55575476D01*
X112349068Y-55580000D01*
X106090924Y-55580000D01*
X106044999Y-55575477D01*
X105999074Y-55580000D01*
X105999068Y-55580000D01*
X105880110Y-55591717D01*
X105861707Y-55593529D01*
X105808243Y-55609747D01*
X105685460Y-55646993D01*
X105523028Y-55733814D01*
X105380656Y-55850656D01*
X105351374Y-55886336D01*
X102876336Y-58361375D01*
X102840657Y-58390656D01*
X102723815Y-58533028D01*
X102672192Y-58629609D01*
X102636994Y-58695460D01*
X102583529Y-58871709D01*
X102565476Y-59055000D01*
X102570001Y-59100942D01*
X102570000Y-68688753D01*
X102558368Y-68696525D01*
X102351525Y-68903368D01*
X102285000Y-69002930D01*
X102285000Y-55295000D01*
X128855000Y-55295000D01*
X128855001Y-75515000D01*
G36*
X110617000Y-58928000D02*
G01*
X110637000Y-58928000D01*
X110637000Y-59182000D01*
X110617000Y-59182000D01*
X110617000Y-60674656D01*
X110831185Y-60797318D01*
X110902684Y-60783173D01*
X111153868Y-60677142D01*
X111379540Y-60524145D01*
X111571028Y-60330061D01*
X111643418Y-60220126D01*
X111654188Y-60329482D01*
X111690498Y-60449180D01*
X111738460Y-60538910D01*
X111487654Y-60789716D01*
X111458578Y-60813578D01*
X111415211Y-60866422D01*
X111363355Y-60929608D01*
X111347990Y-60958355D01*
X111292598Y-61061986D01*
X111249026Y-61205623D01*
X111244183Y-61254800D01*
X111226058Y-61264488D01*
X111202161Y-61284099D01*
X111129494Y-61224463D01*
X111019180Y-61165498D01*
X110899482Y-61129188D01*
X110775000Y-61116928D01*
X110535750Y-61120000D01*
X110377000Y-61278750D01*
X110377000Y-62103000D01*
X110397000Y-62103000D01*
X110397000Y-62357000D01*
X110377000Y-62357000D01*
X110377000Y-62377000D01*
X110123000Y-62377000D01*
X110123000Y-62357000D01*
X109248750Y-62357000D01*
X109090000Y-62515750D01*
X109086928Y-62705000D01*
X109090178Y-62738000D01*
X108900630Y-62738000D01*
X108712000Y-62549370D01*
X108712000Y-61755000D01*
X109086928Y-61755000D01*
X109090000Y-61944250D01*
X109248750Y-62103000D01*
X110123000Y-62103000D01*
X110123000Y-61278750D01*
X109964250Y-61120000D01*
X109725000Y-61116928D01*
X109600518Y-61129188D01*
X109480820Y-61165498D01*
X109370506Y-61224463D01*
X109273815Y-61303815D01*
X109194463Y-61400506D01*
X109135498Y-61510820D01*
X109099188Y-61630518D01*
X109086928Y-61755000D01*
X108712000Y-61755000D01*
X108712000Y-60618137D01*
X108723187Y-60612157D01*
X108934080Y-60439081D01*
X109107157Y-60228188D01*
X109222486Y-60012422D01*
X109259028Y-60102349D01*
X109408972Y-60330061D01*
X109600460Y-60524145D01*
X109826132Y-60677142D01*
X110077316Y-60783173D01*
X110148815Y-60797318D01*
X110363000Y-60674656D01*
X110363000Y-59182000D01*
X110343000Y-59182000D01*
X110343000Y-58928000D01*
X110363000Y-58928000D01*
X110363000Y-58908000D01*
X110617000Y-58908000D01*
X110617000Y-58928000D01*
G37*
X110617000Y-58928000D02*
X110637000Y-58928000D01*
X110637000Y-59182000D01*
X110617000Y-59182000D01*
X110617000Y-60674656D01*
X110831185Y-60797318D01*
X110902684Y-60783173D01*
X111153868Y-60677142D01*
X111379540Y-60524145D01*
X111571028Y-60330061D01*
X111643418Y-60220126D01*
X111654188Y-60329482D01*
X111690498Y-60449180D01*
X111738460Y-60538910D01*
X111487654Y-60789716D01*
X111458578Y-60813578D01*
X111415211Y-60866422D01*
X111363355Y-60929608D01*
X111347990Y-60958355D01*
X111292598Y-61061986D01*
X111249026Y-61205623D01*
X111244183Y-61254800D01*
X111226058Y-61264488D01*
X111202161Y-61284099D01*
X111129494Y-61224463D01*
X111019180Y-61165498D01*
X110899482Y-61129188D01*
X110775000Y-61116928D01*
X110535750Y-61120000D01*
X110377000Y-61278750D01*
X110377000Y-62103000D01*
X110397000Y-62103000D01*
X110397000Y-62357000D01*
X110377000Y-62357000D01*
X110377000Y-62377000D01*
X110123000Y-62377000D01*
X110123000Y-62357000D01*
X109248750Y-62357000D01*
X109090000Y-62515750D01*
X109086928Y-62705000D01*
X109090178Y-62738000D01*
X108900630Y-62738000D01*
X108712000Y-62549370D01*
X108712000Y-61755000D01*
X109086928Y-61755000D01*
X109090000Y-61944250D01*
X109248750Y-62103000D01*
X110123000Y-62103000D01*
X110123000Y-61278750D01*
X109964250Y-61120000D01*
X109725000Y-61116928D01*
X109600518Y-61129188D01*
X109480820Y-61165498D01*
X109370506Y-61224463D01*
X109273815Y-61303815D01*
X109194463Y-61400506D01*
X109135498Y-61510820D01*
X109099188Y-61630518D01*
X109086928Y-61755000D01*
X108712000Y-61755000D01*
X108712000Y-60618137D01*
X108723187Y-60612157D01*
X108934080Y-60439081D01*
X109107157Y-60228188D01*
X109222486Y-60012422D01*
X109259028Y-60102349D01*
X109408972Y-60330061D01*
X109600460Y-60524145D01*
X109826132Y-60677142D01*
X110077316Y-60783173D01*
X110148815Y-60797318D01*
X110363000Y-60674656D01*
X110363000Y-59182000D01*
X110343000Y-59182000D01*
X110343000Y-58928000D01*
X110363000Y-58928000D01*
X110363000Y-58908000D01*
X110617000Y-58908000D01*
X110617000Y-58928000D01*
%TD*%
M02*
