%TF.GenerationSoftware,KiCad,Pcbnew,5.1.7-a382d34a8~88~ubuntu18.04.1*%
%TF.CreationDate,2021-02-25T09:30:43-05:00*%
%TF.ProjectId,DaqBoard,44617142-6f61-4726-942e-6b696361645f,rev?*%
%TF.SameCoordinates,Original*%
%TF.FileFunction,Copper,L1,Top*%
%TF.FilePolarity,Positive*%
%FSLAX46Y46*%
G04 Gerber Fmt 4.6, Leading zero omitted, Abs format (unit mm)*
G04 Created by KiCad (PCBNEW 5.1.7-a382d34a8~88~ubuntu18.04.1) date 2021-02-25 09:30:43*
%MOMM*%
%LPD*%
G01*
G04 APERTURE LIST*
%TA.AperFunction,SMDPad,CuDef*%
%ADD10R,1.600000X0.550000*%
%TD*%
%TA.AperFunction,SMDPad,CuDef*%
%ADD11R,0.550000X1.600000*%
%TD*%
%TA.AperFunction,ComponentPad*%
%ADD12C,1.500000*%
%TD*%
%TA.AperFunction,ComponentPad*%
%ADD13R,1.500000X1.500000*%
%TD*%
%TA.AperFunction,WasherPad*%
%ADD14C,3.650000*%
%TD*%
%TA.AperFunction,ComponentPad*%
%ADD15C,2.625000*%
%TD*%
%TA.AperFunction,ComponentPad*%
%ADD16R,2.625000X2.625000*%
%TD*%
%TA.AperFunction,SMDPad,CuDef*%
%ADD17R,3.200000X0.400000*%
%TD*%
%TA.AperFunction,ComponentPad*%
%ADD18O,2.300000X1.500000*%
%TD*%
%TA.AperFunction,ComponentPad*%
%ADD19R,2.300000X1.500000*%
%TD*%
%TA.AperFunction,SMDPad,CuDef*%
%ADD20C,0.100000*%
%TD*%
%TA.AperFunction,SMDPad,CuDef*%
%ADD21R,0.700000X1.150000*%
%TD*%
%TA.AperFunction,SMDPad,CuDef*%
%ADD22R,1.150000X0.700000*%
%TD*%
%TA.AperFunction,ComponentPad*%
%ADD23O,1.700000X1.700000*%
%TD*%
%TA.AperFunction,ComponentPad*%
%ADD24R,1.700000X1.700000*%
%TD*%
%TA.AperFunction,ViaPad*%
%ADD25C,0.800000*%
%TD*%
%TA.AperFunction,Conductor*%
%ADD26C,0.360000*%
%TD*%
%TA.AperFunction,Conductor*%
%ADD27C,1.200000*%
%TD*%
%TA.AperFunction,Conductor*%
%ADD28C,0.200000*%
%TD*%
%TA.AperFunction,Conductor*%
%ADD29C,0.254000*%
%TD*%
%TA.AperFunction,Conductor*%
%ADD30C,0.100000*%
%TD*%
G04 APERTURE END LIST*
D10*
%TO.P,U1,32*%
%TO.N,N/C*%
X122292000Y-92137000D03*
%TO.P,U1,31*%
X122292000Y-92937000D03*
%TO.P,U1,30*%
X122292000Y-93737000D03*
%TO.P,U1,29*%
%TO.N,/RESET*%
X122292000Y-94537000D03*
%TO.P,U1,28*%
%TO.N,/SENSOR_6*%
X122292000Y-95337000D03*
%TO.P,U1,27*%
%TO.N,/SENSOR_5*%
X122292000Y-96137000D03*
%TO.P,U1,26*%
%TO.N,/DAMPER_R*%
X122292000Y-96937000D03*
%TO.P,U1,25*%
%TO.N,/DAMPER_L*%
X122292000Y-97737000D03*
D11*
%TO.P,U1,24*%
%TO.N,/WHEEL_R*%
X120842000Y-99187000D03*
%TO.P,U1,23*%
%TO.N,/WHEEL_L*%
X120042000Y-99187000D03*
%TO.P,U1,22*%
%TO.N,N/C*%
X119242000Y-99187000D03*
%TO.P,U1,21*%
%TO.N,GND*%
X118442000Y-99187000D03*
%TO.P,U1,20*%
%TO.N,Net-(C2-Pad1)*%
X117642000Y-99187000D03*
%TO.P,U1,19*%
%TO.N,N/C*%
X116842000Y-99187000D03*
%TO.P,U1,18*%
%TO.N,+5V*%
X116042000Y-99187000D03*
%TO.P,U1,17*%
%TO.N,/SCK*%
X115242000Y-99187000D03*
D10*
%TO.P,U1,16*%
%TO.N,/MISO*%
X113792000Y-97737000D03*
%TO.P,U1,15*%
%TO.N,/MOSI*%
X113792000Y-96937000D03*
%TO.P,U1,14*%
%TO.N,N/C*%
X113792000Y-96137000D03*
%TO.P,U1,13*%
%TO.N,/BRAKE_SIG*%
X113792000Y-95337000D03*
%TO.P,U1,12*%
%TO.N,N/C*%
X113792000Y-94537000D03*
%TO.P,U1,11*%
%TO.N,/SENSOR_2*%
X113792000Y-93737000D03*
%TO.P,U1,10*%
%TO.N,/SENSOR_1*%
X113792000Y-92937000D03*
%TO.P,U1,9*%
%TO.N,/CAN_CS*%
X113792000Y-92137000D03*
D11*
%TO.P,U1,8*%
%TO.N,N/C*%
X115242000Y-90687000D03*
%TO.P,U1,7*%
X116042000Y-90687000D03*
%TO.P,U1,6*%
%TO.N,+5V*%
X116842000Y-90687000D03*
%TO.P,U1,5*%
%TO.N,GND*%
X117642000Y-90687000D03*
%TO.P,U1,4*%
%TO.N,+5V*%
X118442000Y-90687000D03*
%TO.P,U1,3*%
%TO.N,GND*%
X119242000Y-90687000D03*
%TO.P,U1,2*%
%TO.N,N/C*%
X120042000Y-90687000D03*
%TO.P,U1,1*%
%TO.N,/FAN_SIG*%
X120842000Y-90687000D03*
%TD*%
D12*
%TO.P,J4,8*%
%TO.N,/E4_N*%
X144208500Y-93408500D03*
%TO.P,J4,7*%
%TO.N,/E4_P*%
X146748500Y-94678500D03*
%TO.P,J4,6*%
%TO.N,/E3_N*%
X144208500Y-95948500D03*
%TO.P,J4,5*%
%TO.N,/E3_P*%
X146748500Y-97218500D03*
%TO.P,J4,4*%
%TO.N,/E2_N*%
X144208500Y-98488500D03*
%TO.P,J4,3*%
%TO.N,/E2_P*%
X146748500Y-99758500D03*
%TO.P,J4,2*%
%TO.N,/E1_N*%
X144208500Y-101028500D03*
D13*
%TO.P,J4,1*%
%TO.N,/E1_P*%
X146748500Y-102298500D03*
D14*
%TO.P,J4,*%
%TO.N,*%
X153098500Y-103568500D03*
X153098500Y-92138500D03*
%TD*%
%TO.P,R4,2*%
%TO.N,Net-(R4-Pad2)*%
%TA.AperFunction,SMDPad,CuDef*%
G36*
G01*
X127118100Y-101413500D02*
X127593100Y-101413500D01*
G75*
G02*
X127830600Y-101651000I0J-237500D01*
G01*
X127830600Y-102151000D01*
G75*
G02*
X127593100Y-102388500I-237500J0D01*
G01*
X127118100Y-102388500D01*
G75*
G02*
X126880600Y-102151000I0J237500D01*
G01*
X126880600Y-101651000D01*
G75*
G02*
X127118100Y-101413500I237500J0D01*
G01*
G37*
%TD.AperFunction*%
%TO.P,R4,1*%
%TO.N,+5V*%
%TA.AperFunction,SMDPad,CuDef*%
G36*
G01*
X127118100Y-99588500D02*
X127593100Y-99588500D01*
G75*
G02*
X127830600Y-99826000I0J-237500D01*
G01*
X127830600Y-100326000D01*
G75*
G02*
X127593100Y-100563500I-237500J0D01*
G01*
X127118100Y-100563500D01*
G75*
G02*
X126880600Y-100326000I0J237500D01*
G01*
X126880600Y-99826000D01*
G75*
G02*
X127118100Y-99588500I237500J0D01*
G01*
G37*
%TD.AperFunction*%
%TD*%
D15*
%TO.P,J5,22*%
%TO.N,/BRAKE_OUT*%
X132210000Y-81025000D03*
%TO.P,J5,21*%
%TO.N,/FAN_OUT*%
X136210000Y-81025000D03*
%TO.P,J5,20*%
%TO.N,/CAN-*%
X140210000Y-81025000D03*
%TO.P,J5,19*%
%TO.N,/CAN+*%
X144210000Y-81025000D03*
%TO.P,J5,18*%
%TO.N,+5V*%
X148210000Y-81025000D03*
%TO.P,J5,17*%
X152210000Y-81025000D03*
%TO.P,J5,14*%
%TO.N,/DAMPER_L*%
X134210000Y-77025000D03*
%TO.P,J5,13*%
%TO.N,/CAN-*%
X138210000Y-77025000D03*
%TO.P,J5,12*%
%TO.N,/CAN+*%
X142210000Y-77025000D03*
%TO.P,J5,11*%
%TO.N,+5V*%
X146210000Y-77025000D03*
%TO.P,J5,10*%
X150210000Y-77025000D03*
%TO.P,J5,7*%
%TO.N,/SENSOR_1*%
X132210000Y-73025000D03*
%TO.P,J5,6*%
%TO.N,/SENSOR_6*%
X136210000Y-73025000D03*
%TO.P,J5,5*%
%TO.N,/SENSOR_5*%
X140210000Y-73025000D03*
%TO.P,J5,4*%
%TO.N,/WHEEL_L*%
X144210000Y-73025000D03*
%TO.P,J5,3*%
%TO.N,GND*%
X148210000Y-73025000D03*
%TO.P,J5,2*%
X152210000Y-73025000D03*
%TO.P,J5,23*%
%TO.N,/WHEEL_R*%
X128210000Y-81025000D03*
%TO.P,J5,16*%
%TO.N,+12V*%
X156210000Y-81025000D03*
%TO.P,J5,15*%
%TO.N,/DAMPER_R*%
X130210000Y-77025000D03*
%TO.P,J5,9*%
%TO.N,+5V*%
X154210000Y-77025000D03*
%TO.P,J5,8*%
%TO.N,/SENSOR_2*%
X128210000Y-73025000D03*
D16*
%TO.P,J5,1*%
%TO.N,GND*%
X156210000Y-73025000D03*
%TD*%
D14*
%TO.P,J1,*%
%TO.N,*%
X162610800Y-92151200D03*
X162610800Y-103581200D03*
D13*
%TO.P,J1,1*%
%TO.N,/E1_P*%
X168960800Y-102311200D03*
D12*
%TO.P,J1,2*%
%TO.N,/E1_N*%
X171500800Y-101041200D03*
%TO.P,J1,3*%
%TO.N,/E2_P*%
X168960800Y-99771200D03*
%TO.P,J1,4*%
%TO.N,/E2_N*%
X171500800Y-98501200D03*
%TO.P,J1,5*%
%TO.N,/E3_P*%
X168960800Y-97231200D03*
%TO.P,J1,6*%
%TO.N,/E3_N*%
X171500800Y-95961200D03*
%TO.P,J1,7*%
%TO.N,/E4_P*%
X168960800Y-94691200D03*
%TO.P,J1,8*%
%TO.N,/E4_N*%
X171500800Y-93421200D03*
%TD*%
D17*
%TO.P,Y1,3*%
%TO.N,Net-(U3-Pad8)*%
X128397000Y-109277000D03*
%TO.P,Y1,2*%
%TO.N,GND*%
X128397000Y-108077000D03*
%TO.P,Y1,1*%
%TO.N,Net-(U3-Pad7)*%
X128397000Y-106877000D03*
%TD*%
D18*
%TO.P,U2,3*%
%TO.N,+5V*%
X139700000Y-102235000D03*
%TO.P,U2,2*%
%TO.N,GND*%
X139700000Y-104775000D03*
D19*
%TO.P,U2,1*%
%TO.N,Net-(C3-Pad1)*%
X139700000Y-107315000D03*
%TD*%
%TO.P,R2,2*%
%TO.N,+5V*%
%TA.AperFunction,SMDPad,CuDef*%
G36*
G01*
X143847000Y-107001300D02*
X143847000Y-107476300D01*
G75*
G02*
X143609500Y-107713800I-237500J0D01*
G01*
X143109500Y-107713800D01*
G75*
G02*
X142872000Y-107476300I0J237500D01*
G01*
X142872000Y-107001300D01*
G75*
G02*
X143109500Y-106763800I237500J0D01*
G01*
X143609500Y-106763800D01*
G75*
G02*
X143847000Y-107001300I0J-237500D01*
G01*
G37*
%TD.AperFunction*%
%TO.P,R2,1*%
%TO.N,Net-(D1-Pad2)*%
%TA.AperFunction,SMDPad,CuDef*%
G36*
G01*
X145672000Y-107001300D02*
X145672000Y-107476300D01*
G75*
G02*
X145434500Y-107713800I-237500J0D01*
G01*
X144934500Y-107713800D01*
G75*
G02*
X144697000Y-107476300I0J237500D01*
G01*
X144697000Y-107001300D01*
G75*
G02*
X144934500Y-106763800I237500J0D01*
G01*
X145434500Y-106763800D01*
G75*
G02*
X145672000Y-107001300I0J-237500D01*
G01*
G37*
%TD.AperFunction*%
%TD*%
%TO.P,R1,2*%
%TO.N,GND*%
%TA.AperFunction,SMDPad,CuDef*%
G36*
G01*
X125840500Y-90483500D02*
X125365500Y-90483500D01*
G75*
G02*
X125128000Y-90246000I0J237500D01*
G01*
X125128000Y-89746000D01*
G75*
G02*
X125365500Y-89508500I237500J0D01*
G01*
X125840500Y-89508500D01*
G75*
G02*
X126078000Y-89746000I0J-237500D01*
G01*
X126078000Y-90246000D01*
G75*
G02*
X125840500Y-90483500I-237500J0D01*
G01*
G37*
%TD.AperFunction*%
%TO.P,R1,1*%
%TO.N,/BRAKE_SIG*%
%TA.AperFunction,SMDPad,CuDef*%
G36*
G01*
X125840500Y-92308500D02*
X125365500Y-92308500D01*
G75*
G02*
X125128000Y-92071000I0J237500D01*
G01*
X125128000Y-91571000D01*
G75*
G02*
X125365500Y-91333500I237500J0D01*
G01*
X125840500Y-91333500D01*
G75*
G02*
X126078000Y-91571000I0J-237500D01*
G01*
X126078000Y-92071000D01*
G75*
G02*
X125840500Y-92308500I-237500J0D01*
G01*
G37*
%TD.AperFunction*%
%TD*%
%TA.AperFunction,SMDPad,CuDef*%
D20*
%TO.P,Q2,5*%
%TO.N,/FAN_OUT*%
G36*
X141542000Y-89100000D02*
G01*
X141542000Y-90650000D01*
X141292000Y-90650000D01*
X141292000Y-93725000D01*
X137092000Y-93725000D01*
X137092000Y-90650000D01*
X136842000Y-90650000D01*
X136842000Y-89100000D01*
X141542000Y-89100000D01*
G37*
%TD.AperFunction*%
D21*
%TO.P,Q2,4*%
%TO.N,/FAN_SIG*%
X141102000Y-95345000D03*
%TO.P,Q2,3*%
%TO.N,GND*%
X139832000Y-95345000D03*
%TO.P,Q2,1*%
X137282000Y-95345000D03*
%TO.P,Q2,2*%
X138552000Y-95345000D03*
%TD*%
%TA.AperFunction,SMDPad,CuDef*%
D20*
%TO.P,Q1,5*%
%TO.N,/BRAKE_OUT*%
G36*
X134674000Y-92393000D02*
G01*
X133124000Y-92393000D01*
X133124000Y-92143000D01*
X130049000Y-92143000D01*
X130049000Y-87943000D01*
X133124000Y-87943000D01*
X133124000Y-87693000D01*
X134674000Y-87693000D01*
X134674000Y-92393000D01*
G37*
%TD.AperFunction*%
D22*
%TO.P,Q1,4*%
%TO.N,/BRAKE_SIG*%
X128429000Y-91953000D03*
%TO.P,Q1,3*%
%TO.N,GND*%
X128429000Y-90683000D03*
%TO.P,Q1,1*%
X128429000Y-88133000D03*
%TO.P,Q1,2*%
X128429000Y-89403000D03*
%TD*%
D23*
%TO.P,J3,6*%
%TO.N,GND*%
X118237000Y-108458000D03*
%TO.P,J3,5*%
%TO.N,/RESET*%
X115697000Y-108458000D03*
%TO.P,J3,4*%
%TO.N,/MOSI*%
X118237000Y-105918000D03*
%TO.P,J3,3*%
%TO.N,/SCK*%
X115697000Y-105918000D03*
%TO.P,J3,2*%
%TO.N,+5V*%
X118237000Y-103378000D03*
D24*
%TO.P,J3,1*%
%TO.N,/MISO*%
X115697000Y-103378000D03*
%TD*%
D23*
%TO.P,J2,2*%
%TO.N,/CAN+*%
X145923000Y-85852000D03*
D24*
%TO.P,J2,1*%
%TO.N,/CAN-*%
X143383000Y-85852000D03*
%TD*%
%TO.P,D1,2*%
%TO.N,Net-(D1-Pad2)*%
%TA.AperFunction,SMDPad,CuDef*%
G36*
G01*
X144684200Y-109889300D02*
X144684200Y-109414300D01*
G75*
G02*
X144921700Y-109176800I237500J0D01*
G01*
X145496700Y-109176800D01*
G75*
G02*
X145734200Y-109414300I0J-237500D01*
G01*
X145734200Y-109889300D01*
G75*
G02*
X145496700Y-110126800I-237500J0D01*
G01*
X144921700Y-110126800D01*
G75*
G02*
X144684200Y-109889300I0J237500D01*
G01*
G37*
%TD.AperFunction*%
%TO.P,D1,1*%
%TO.N,GND*%
%TA.AperFunction,SMDPad,CuDef*%
G36*
G01*
X142934200Y-109889300D02*
X142934200Y-109414300D01*
G75*
G02*
X143171700Y-109176800I237500J0D01*
G01*
X143746700Y-109176800D01*
G75*
G02*
X143984200Y-109414300I0J-237500D01*
G01*
X143984200Y-109889300D01*
G75*
G02*
X143746700Y-110126800I-237500J0D01*
G01*
X143171700Y-110126800D01*
G75*
G02*
X142934200Y-109889300I0J237500D01*
G01*
G37*
%TD.AperFunction*%
%TD*%
%TO.P,C5,2*%
%TO.N,GND*%
%TA.AperFunction,SMDPad,CuDef*%
G36*
G01*
X128743700Y-101316500D02*
X129218700Y-101316500D01*
G75*
G02*
X129456200Y-101554000I0J-237500D01*
G01*
X129456200Y-102154000D01*
G75*
G02*
X129218700Y-102391500I-237500J0D01*
G01*
X128743700Y-102391500D01*
G75*
G02*
X128506200Y-102154000I0J237500D01*
G01*
X128506200Y-101554000D01*
G75*
G02*
X128743700Y-101316500I237500J0D01*
G01*
G37*
%TD.AperFunction*%
%TO.P,C5,1*%
%TO.N,+5V*%
%TA.AperFunction,SMDPad,CuDef*%
G36*
G01*
X128743700Y-99591500D02*
X129218700Y-99591500D01*
G75*
G02*
X129456200Y-99829000I0J-237500D01*
G01*
X129456200Y-100429000D01*
G75*
G02*
X129218700Y-100666500I-237500J0D01*
G01*
X128743700Y-100666500D01*
G75*
G02*
X128506200Y-100429000I0J237500D01*
G01*
X128506200Y-99829000D01*
G75*
G02*
X128743700Y-99591500I237500J0D01*
G01*
G37*
%TD.AperFunction*%
%TD*%
D25*
%TO.N,GND*%
X130683000Y-101981000D03*
X130810000Y-105156000D03*
X143510000Y-90297000D03*
X144780000Y-90297000D03*
X146050000Y-90297000D03*
X147320000Y-90297000D03*
X139192000Y-97028000D03*
X137287000Y-97028000D03*
X132715000Y-97028000D03*
X131318000Y-97028000D03*
X118872000Y-100584000D03*
X118999000Y-96393000D03*
X116459000Y-83723000D03*
X113919000Y-83723000D03*
X118999000Y-82423000D03*
X116459000Y-82423000D03*
X113919000Y-82423000D03*
X113919000Y-85120000D03*
X116459000Y-85120000D03*
X118999000Y-85120000D03*
X118999000Y-83723000D03*
%TO.N,+5V*%
X126034800Y-100279200D03*
X128016000Y-98806000D03*
X116842000Y-95248000D03*
%TO.N,Net-(C2-Pad1)*%
X118364000Y-93980000D03*
%TO.N,/RESET*%
X120396000Y-96012000D03*
%TO.N,/SENSOR_2*%
X115624892Y-93744000D03*
%TO.N,/SENSOR_1*%
X115824000Y-92456000D03*
%TO.N,/DAMPER_R*%
X124674789Y-96405841D03*
%TO.N,/DAMPER_L*%
X125800975Y-96382743D03*
%TO.N,/WHEEL_R*%
X126601000Y-96982713D03*
%TO.N,/WHEEL_L*%
X127063500Y-97980500D03*
%TO.N,/FAN_SIG*%
X141097000Y-96520000D03*
%TO.N,Net-(R4-Pad2)*%
X125780800Y-101854000D03*
%TO.N,/CAN_CS*%
X113792000Y-90424000D03*
%TO.N,Net-(U3-Pad8)*%
X131064000Y-108585000D03*
%TO.N,Net-(U3-Pad7)*%
X131064000Y-107315000D03*
%TO.N,/SENSOR_6*%
X123900955Y-93980000D03*
%TO.N,/SENSOR_5*%
X124443102Y-95433049D03*
%TD*%
D26*
%TO.N,+5V*%
X127152400Y-100279200D02*
X127355600Y-100076000D01*
X126034800Y-100279200D02*
X127152400Y-100279200D01*
X128928200Y-100076000D02*
X128981200Y-100129000D01*
X127355600Y-100076000D02*
X128928200Y-100076000D01*
X128981200Y-100129000D02*
X128981200Y-99771200D01*
X128981200Y-99771200D02*
X128016000Y-98806000D01*
X137594000Y-100129000D02*
X139700000Y-102235000D01*
X128981200Y-100129000D02*
X137594000Y-100129000D01*
D27*
X136207000Y-103378000D02*
X118237000Y-103378000D01*
X139700000Y-102235000D02*
X137350000Y-102235000D01*
X137350000Y-102235000D02*
X136207000Y-103378000D01*
D26*
X143359500Y-105894500D02*
X139700000Y-102235000D01*
X143359500Y-107238800D02*
X143359500Y-105894500D01*
X117196810Y-101448810D02*
X116042000Y-100294000D01*
X116042000Y-100294000D02*
X116042000Y-99187000D01*
X124387163Y-101448810D02*
X117196810Y-101448810D01*
X128981200Y-100129000D02*
X125706973Y-100129000D01*
X125706973Y-100129000D02*
X124387163Y-101448810D01*
X116042000Y-99187000D02*
X116042000Y-97826000D01*
X116842000Y-97026000D02*
X116042000Y-97826000D01*
X117835000Y-92454000D02*
X116842000Y-92454000D01*
X118442000Y-91847000D02*
X117835000Y-92454000D01*
X116842000Y-90687000D02*
X116842000Y-92454000D01*
X118442000Y-90687000D02*
X118442000Y-91847000D01*
X116842000Y-92454000D02*
X116842000Y-95248000D01*
X116842000Y-95248000D02*
X116842000Y-97026000D01*
%TO.N,Net-(C2-Pad1)*%
X117642000Y-99187000D02*
X117642000Y-94702000D01*
X117642000Y-94702000D02*
X118364000Y-93980000D01*
%TO.N,Net-(D1-Pad2)*%
X145184500Y-109627100D02*
X145209200Y-109651800D01*
X145184500Y-107238800D02*
X145184500Y-109627100D01*
D28*
%TO.N,/E1_P*%
X168140800Y-101491200D02*
X168960800Y-102311200D01*
X163630801Y-101456199D02*
X163665802Y-101491200D01*
X159459500Y-101491200D02*
X161555798Y-101491200D01*
X159329334Y-101520909D02*
X159392743Y-101498721D01*
X159272453Y-101556650D02*
X159329334Y-101520909D01*
X159224950Y-101604153D02*
X159272453Y-101556650D01*
X159189209Y-101661034D02*
X159224950Y-101604153D01*
X159159500Y-101791200D02*
X159167021Y-101724443D01*
X163665802Y-101491200D02*
X168140800Y-101491200D01*
X159159500Y-102184155D02*
X159159500Y-101791200D01*
X159151978Y-102250911D02*
X159159500Y-102184155D01*
X159129790Y-102314320D02*
X159151978Y-102250911D01*
X159046546Y-102418704D02*
X159094049Y-102371201D01*
X158859500Y-102484155D02*
X158926256Y-102476633D01*
X158926256Y-102476633D02*
X158989665Y-102454445D01*
X158792743Y-102476633D02*
X158859500Y-102484155D01*
X158672453Y-102418704D02*
X158729334Y-102454445D01*
X158624950Y-102371201D02*
X158672453Y-102418704D01*
X159094049Y-102371201D02*
X159129790Y-102314320D01*
X158589209Y-102314320D02*
X158624950Y-102371201D01*
X156212453Y-101543950D02*
X156269334Y-101508209D01*
X156164950Y-101591453D02*
X156212453Y-101543950D01*
X156107021Y-101711743D02*
X156129209Y-101648334D01*
X158494049Y-101604153D02*
X158529790Y-101661034D01*
X156099500Y-102171455D02*
X156099500Y-101778500D01*
X155986546Y-102406004D02*
X156034049Y-102358501D01*
X155929665Y-102441745D02*
X155986546Y-102406004D01*
X156812453Y-102406004D02*
X156869334Y-102441745D01*
X155799500Y-102471455D02*
X155866256Y-102463933D01*
X155669334Y-102441745D02*
X155732743Y-102463933D01*
X155386546Y-101543950D02*
X155434049Y-101591453D01*
X155564950Y-102358501D02*
X155612453Y-102406004D01*
X157299500Y-102171455D02*
X157299500Y-101778500D01*
X158567021Y-102250911D02*
X158589209Y-102314320D01*
X155499500Y-102171455D02*
X155507021Y-102238211D01*
X152078499Y-101443499D02*
X154118501Y-101443499D01*
X159392743Y-101498721D02*
X159459500Y-101491200D01*
X156034049Y-102358501D02*
X156069790Y-102301620D01*
X154118501Y-101443499D02*
X154153502Y-101478500D01*
X155469790Y-101648334D02*
X155491978Y-101711743D01*
X157307021Y-101711743D02*
X157329209Y-101648334D01*
X146748500Y-102298500D02*
X147568500Y-101478500D01*
X147568500Y-101478500D02*
X152043498Y-101478500D01*
X158326256Y-101498721D02*
X158389665Y-101520909D01*
X156269334Y-101508209D02*
X156332743Y-101486021D01*
X157599500Y-101478500D02*
X158246800Y-101478500D01*
X158551978Y-101724443D02*
X158559500Y-101791200D01*
X156069790Y-102301620D02*
X156091978Y-102238211D01*
X155329665Y-101508209D02*
X155386546Y-101543950D01*
X156699500Y-101778500D02*
X156699500Y-102171455D01*
X156129209Y-101648334D02*
X156164950Y-101591453D01*
X155434049Y-101591453D02*
X155469790Y-101648334D01*
X155866256Y-102463933D02*
X155929665Y-102441745D01*
X159167021Y-101724443D02*
X159189209Y-101661034D01*
X157234049Y-102358501D02*
X157269790Y-102301620D01*
X156634049Y-101591453D02*
X156669790Y-101648334D01*
X155732743Y-102463933D02*
X155799500Y-102471455D01*
X154153502Y-101478500D02*
X155199500Y-101478500D01*
X158446546Y-101556650D02*
X158494049Y-101604153D01*
X155199500Y-101478500D02*
X155266256Y-101486021D01*
X155491978Y-101711743D02*
X155499500Y-101778500D01*
X158989665Y-102454445D02*
X159046546Y-102418704D01*
X156332743Y-101486021D02*
X156399500Y-101478500D01*
X158259500Y-101491200D02*
X158326256Y-101498721D01*
X155499500Y-101778500D02*
X155499500Y-102171455D01*
X155507021Y-102238211D02*
X155529209Y-102301620D01*
X158729334Y-102454445D02*
X158792743Y-102476633D01*
X156466256Y-101486021D02*
X156529665Y-101508209D01*
X155612453Y-102406004D02*
X155669334Y-102441745D01*
X156529665Y-101508209D02*
X156586546Y-101543950D01*
X156669790Y-101648334D02*
X156691978Y-101711743D01*
X161555798Y-101491200D02*
X161590799Y-101456199D01*
X156586546Y-101543950D02*
X156634049Y-101591453D01*
X155529209Y-102301620D02*
X155564950Y-102358501D01*
X158559500Y-101791200D02*
X158559500Y-102184155D01*
X156691978Y-101711743D02*
X156699500Y-101778500D01*
X157329209Y-101648334D02*
X157364950Y-101591453D01*
X156091978Y-102238211D02*
X156099500Y-102171455D01*
X152043498Y-101478500D02*
X152078499Y-101443499D01*
X156699500Y-102171455D02*
X156707021Y-102238211D01*
X161590799Y-101456199D02*
X163630801Y-101456199D01*
X156707021Y-102238211D02*
X156729209Y-102301620D01*
X156729209Y-102301620D02*
X156764950Y-102358501D01*
X156764950Y-102358501D02*
X156812453Y-102406004D01*
X156869334Y-102441745D02*
X156932743Y-102463933D01*
X156099500Y-101778500D02*
X156107021Y-101711743D01*
X156932743Y-102463933D02*
X156999500Y-102471455D01*
X156999500Y-102471455D02*
X157066256Y-102463933D01*
X157129665Y-102441745D02*
X157186546Y-102406004D01*
X157186546Y-102406004D02*
X157234049Y-102358501D01*
X157269790Y-102301620D02*
X157291978Y-102238211D01*
X157291978Y-102238211D02*
X157299500Y-102171455D01*
X156399500Y-101478500D02*
X156466256Y-101486021D01*
X157299500Y-101778500D02*
X157307021Y-101711743D01*
X157364950Y-101591453D02*
X157412453Y-101543950D01*
X155266256Y-101486021D02*
X155329665Y-101508209D01*
X157412453Y-101543950D02*
X157469334Y-101508209D01*
X158559500Y-102184155D02*
X158567021Y-102250911D01*
X157469334Y-101508209D02*
X157532743Y-101486021D01*
X157532743Y-101486021D02*
X157599500Y-101478500D01*
X157066256Y-102463933D02*
X157129665Y-102441745D01*
X158389665Y-101520909D02*
X158446546Y-101556650D01*
X158246800Y-101478500D02*
X158259500Y-101491200D01*
X158529790Y-101661034D02*
X158551978Y-101724443D01*
%TO.N,/E1_N*%
X161404407Y-101006208D02*
X161369415Y-101041200D01*
X161369415Y-101041200D02*
X158445900Y-101041200D01*
X163817193Y-101006208D02*
X161404407Y-101006208D01*
X171500800Y-101041200D02*
X163852185Y-101041200D01*
X163852185Y-101041200D02*
X163817193Y-101006208D01*
X158433200Y-101028500D02*
X158445900Y-101041200D01*
X154339885Y-101028500D02*
X158433200Y-101028500D01*
X154304893Y-100993508D02*
X154339885Y-101028500D01*
X151892107Y-100993508D02*
X154304893Y-100993508D01*
X151857115Y-101028500D02*
X151892107Y-100993508D01*
X144208500Y-101028500D02*
X151857115Y-101028500D01*
%TO.N,/E2_P*%
X147568500Y-98938500D02*
X146748500Y-99758500D01*
X152160000Y-98938500D02*
X147568500Y-98938500D01*
X152226756Y-98946022D02*
X152160000Y-98938500D01*
X152290165Y-98968210D02*
X152226756Y-98946022D01*
X152347046Y-99003951D02*
X152290165Y-98968210D01*
X152452478Y-99171744D02*
X152430290Y-99108335D01*
X152460000Y-99631457D02*
X152460000Y-99238500D01*
X152467521Y-99698214D02*
X152460000Y-99631457D01*
X152489709Y-99761623D02*
X152467521Y-99698214D01*
X152525450Y-99818504D02*
X152489709Y-99761623D01*
X152572953Y-99866007D02*
X152525450Y-99818504D01*
X152629834Y-99901748D02*
X152572953Y-99866007D01*
X152826756Y-99923936D02*
X152760000Y-99931457D01*
X154493243Y-98946022D02*
X154429834Y-98968210D01*
X154289709Y-99108335D02*
X154267521Y-99171744D01*
X152430290Y-99108335D02*
X152394549Y-99051454D01*
X154830290Y-99108335D02*
X154794549Y-99051454D01*
X155572953Y-99003951D02*
X155525450Y-99051454D01*
X154852478Y-99171744D02*
X154830290Y-99108335D01*
X154560000Y-98938500D02*
X154493243Y-98946022D01*
X153725450Y-99818504D02*
X153689709Y-99761623D01*
X154626756Y-98946022D02*
X154560000Y-98938500D01*
X154194549Y-99818504D02*
X154147046Y-99866007D01*
X154867521Y-99698214D02*
X154860000Y-99631457D01*
X153490165Y-98968210D02*
X153426756Y-98946022D01*
X154925450Y-99818504D02*
X154889709Y-99761623D01*
X154972953Y-99866007D02*
X154925450Y-99818504D01*
X154690165Y-98968210D02*
X154626756Y-98946022D01*
X155290165Y-99901748D02*
X155226756Y-99923936D01*
X153293243Y-98946022D02*
X153229834Y-98968210D01*
X154889709Y-99761623D02*
X154867521Y-99698214D01*
X153652478Y-99171744D02*
X153630290Y-99108335D01*
X155760000Y-98938500D02*
X155693243Y-98946022D01*
X162633000Y-98951200D02*
X162620300Y-98938500D01*
X154860000Y-99238500D02*
X154852478Y-99171744D01*
X154267521Y-99171744D02*
X154260000Y-99238500D01*
X152394549Y-99051454D02*
X152347046Y-99003951D01*
X155160000Y-99931457D02*
X155093243Y-99923936D01*
X155093243Y-99923936D02*
X155029834Y-99901748D01*
X153067521Y-99171744D02*
X153060000Y-99238500D01*
X153030290Y-99761623D02*
X152994549Y-99818504D01*
X155347046Y-99866007D02*
X155290165Y-99901748D01*
X153060000Y-99631457D02*
X153052478Y-99698214D01*
X152760000Y-99931457D02*
X152693243Y-99923936D01*
X155029834Y-99901748D02*
X154972953Y-99866007D01*
X155489709Y-99108335D02*
X155467521Y-99171744D01*
X155430290Y-99761623D02*
X155394549Y-99818504D01*
X154325450Y-99051454D02*
X154289709Y-99108335D01*
X153893243Y-99923936D02*
X153829834Y-99901748D01*
X153060000Y-99238500D02*
X153060000Y-99631457D01*
X168140800Y-98951200D02*
X162633000Y-98951200D01*
X155693243Y-98946022D02*
X155629834Y-98968210D01*
X152890165Y-99901748D02*
X152826756Y-99923936D01*
X162620300Y-98938500D02*
X155760000Y-98938500D01*
X155525450Y-99051454D02*
X155489709Y-99108335D01*
X152693243Y-99923936D02*
X152629834Y-99901748D01*
X155467521Y-99171744D02*
X155460000Y-99238500D01*
X154260000Y-99631457D02*
X154252478Y-99698214D01*
X153125450Y-99051454D02*
X153089709Y-99108335D01*
X155460000Y-99631457D02*
X155452478Y-99698214D01*
X168960800Y-99771200D02*
X168140800Y-98951200D01*
X155452478Y-99698214D02*
X155430290Y-99761623D01*
X155460000Y-99238500D02*
X155460000Y-99631457D01*
X152947046Y-99866007D02*
X152890165Y-99901748D01*
X154429834Y-98968210D02*
X154372953Y-99003951D01*
X152460000Y-99238500D02*
X152452478Y-99171744D01*
X153660000Y-99238500D02*
X153652478Y-99171744D01*
X154372953Y-99003951D02*
X154325450Y-99051454D01*
X153052478Y-99698214D02*
X153030290Y-99761623D01*
X154260000Y-99238500D02*
X154260000Y-99631457D01*
X154252478Y-99698214D02*
X154230290Y-99761623D01*
X154230290Y-99761623D02*
X154194549Y-99818504D01*
X153594549Y-99051454D02*
X153547046Y-99003951D01*
X154147046Y-99866007D02*
X154090165Y-99901748D01*
X153667521Y-99698214D02*
X153660000Y-99631457D01*
X154026756Y-99923936D02*
X153960000Y-99931457D01*
X153960000Y-99931457D02*
X153893243Y-99923936D01*
X153829834Y-99901748D02*
X153772953Y-99866007D01*
X153772953Y-99866007D02*
X153725450Y-99818504D01*
X153689709Y-99761623D02*
X153667521Y-99698214D01*
X154747046Y-99003951D02*
X154690165Y-98968210D01*
X153660000Y-99631457D02*
X153660000Y-99238500D01*
X153630290Y-99108335D02*
X153594549Y-99051454D01*
X153547046Y-99003951D02*
X153490165Y-98968210D01*
X155629834Y-98968210D02*
X155572953Y-99003951D01*
X153426756Y-98946022D02*
X153360000Y-98938500D01*
X154090165Y-99901748D02*
X154026756Y-99923936D01*
X153360000Y-98938500D02*
X153293243Y-98946022D01*
X154860000Y-99631457D02*
X154860000Y-99238500D01*
X153229834Y-98968210D02*
X153172953Y-99003951D01*
X153172953Y-99003951D02*
X153125450Y-99051454D01*
X154794549Y-99051454D02*
X154747046Y-99003951D01*
X153089709Y-99108335D02*
X153067521Y-99171744D01*
X155226756Y-99923936D02*
X155160000Y-99931457D01*
X155394549Y-99818504D02*
X155347046Y-99866007D01*
X152994549Y-99818504D02*
X152947046Y-99866007D01*
%TO.N,/E2_N*%
X147568500Y-98488500D02*
X144208500Y-98488500D01*
X171500800Y-98501200D02*
X162819400Y-98501200D01*
X162819400Y-98501200D02*
X162806700Y-98488500D01*
X162806700Y-98488500D02*
X147568500Y-98488500D01*
%TO.N,/E3_P*%
X147568500Y-96398500D02*
X146748500Y-97218500D01*
X154480300Y-96398500D02*
X147568500Y-96398500D01*
X154714849Y-96511454D02*
X154667346Y-96463951D01*
X154750590Y-96568335D02*
X154714849Y-96511454D01*
X154610465Y-96428210D02*
X154547056Y-96406022D01*
X154772778Y-96631744D02*
X154750590Y-96568335D01*
X154780300Y-96698500D02*
X154772778Y-96631744D01*
X154780300Y-97091457D02*
X154780300Y-96698500D01*
X154787821Y-97158214D02*
X154780300Y-97091457D01*
X154810009Y-97221623D02*
X154787821Y-97158214D01*
X154950134Y-97361748D02*
X154893253Y-97326007D01*
X155080300Y-97391457D02*
X155013543Y-97383936D01*
X157845750Y-96511454D02*
X157810009Y-96568335D01*
X154893253Y-97326007D02*
X154845750Y-97278504D01*
X155980300Y-97091457D02*
X155980300Y-96698500D01*
X155410009Y-96568335D02*
X155387821Y-96631744D01*
X157150590Y-96568335D02*
X157114849Y-96511454D01*
X155493253Y-96463951D02*
X155445750Y-96511454D01*
X154547056Y-96406022D02*
X154480300Y-96398500D01*
X157350134Y-97361748D02*
X157293253Y-97326007D01*
X157547056Y-97383936D02*
X157480300Y-97391457D01*
X156514849Y-97278504D02*
X156467346Y-97326007D01*
X157610465Y-97361748D02*
X157547056Y-97383936D01*
X158093000Y-96411200D02*
X158080300Y-96398500D01*
X157950134Y-96428210D02*
X157893253Y-96463951D01*
X157772778Y-97158214D02*
X157750590Y-97221623D01*
X157293253Y-97326007D02*
X157245750Y-97278504D01*
X157750590Y-97221623D02*
X157714849Y-97278504D01*
X157210009Y-97221623D02*
X157187821Y-97158214D01*
X157714849Y-97278504D02*
X157667346Y-97326007D01*
X168960800Y-97231200D02*
X168140800Y-96411200D01*
X158080300Y-96398500D02*
X158013543Y-96406022D01*
X156750134Y-96428210D02*
X156693253Y-96463951D01*
X157187821Y-97158214D02*
X157180300Y-97091457D01*
X168140800Y-96411200D02*
X158093000Y-96411200D01*
X157245750Y-97278504D02*
X157210009Y-97221623D01*
X155747056Y-96406022D02*
X155680300Y-96398500D01*
X154667346Y-96463951D02*
X154610465Y-96428210D01*
X157010465Y-96428210D02*
X156947056Y-96406022D01*
X157413543Y-97383936D02*
X157350134Y-97361748D01*
X156580300Y-97091457D02*
X156572778Y-97158214D01*
X156880300Y-96398500D02*
X156813543Y-96406022D01*
X156150134Y-97361748D02*
X156093253Y-97326007D01*
X157480300Y-97391457D02*
X157413543Y-97383936D01*
X155013543Y-97383936D02*
X154950134Y-97361748D01*
X157667346Y-97326007D02*
X157610465Y-97361748D01*
X157893253Y-96463951D02*
X157845750Y-96511454D01*
X157810009Y-96568335D02*
X157787821Y-96631744D01*
X156947056Y-96406022D02*
X156880300Y-96398500D01*
X157780300Y-96698500D02*
X157780300Y-97091457D01*
X157180300Y-96698500D02*
X157172778Y-96631744D01*
X156693253Y-96463951D02*
X156645750Y-96511454D01*
X156645750Y-96511454D02*
X156610009Y-96568335D01*
X156813543Y-96406022D02*
X156750134Y-96428210D01*
X156610009Y-96568335D02*
X156587821Y-96631744D01*
X156587821Y-96631744D02*
X156580300Y-96698500D01*
X156580300Y-96698500D02*
X156580300Y-97091457D01*
X156410465Y-97361748D02*
X156347056Y-97383936D01*
X155267346Y-97326007D02*
X155210465Y-97361748D01*
X155550134Y-96428210D02*
X155493253Y-96463951D01*
X155987821Y-97158214D02*
X155980300Y-97091457D01*
X156572778Y-97158214D02*
X156550590Y-97221623D01*
X155810465Y-96428210D02*
X155747056Y-96406022D01*
X157780300Y-97091457D02*
X157772778Y-97158214D01*
X156467346Y-97326007D02*
X156410465Y-97361748D01*
X155680300Y-96398500D02*
X155613543Y-96406022D01*
X155380300Y-97091457D02*
X155372778Y-97158214D01*
X156093253Y-97326007D02*
X156045750Y-97278504D01*
X156045750Y-97278504D02*
X156010009Y-97221623D01*
X156010009Y-97221623D02*
X155987821Y-97158214D01*
X157787821Y-96631744D02*
X157780300Y-96698500D01*
X155972778Y-96631744D02*
X155950590Y-96568335D01*
X156280300Y-97391457D02*
X156213543Y-97383936D01*
X155980300Y-96698500D02*
X155972778Y-96631744D01*
X157067346Y-96463951D02*
X157010465Y-96428210D01*
X158013543Y-96406022D02*
X157950134Y-96428210D01*
X155914849Y-96511454D02*
X155867346Y-96463951D01*
X157180300Y-97091457D02*
X157180300Y-96698500D01*
X157114849Y-96511454D02*
X157067346Y-96463951D01*
X155147056Y-97383936D02*
X155080300Y-97391457D01*
X155950590Y-96568335D02*
X155914849Y-96511454D01*
X155867346Y-96463951D02*
X155810465Y-96428210D01*
X155314849Y-97278504D02*
X155267346Y-97326007D01*
X154845750Y-97278504D02*
X154810009Y-97221623D01*
X156347056Y-97383936D02*
X156280300Y-97391457D01*
X155613543Y-96406022D02*
X155550134Y-96428210D01*
X155445750Y-96511454D02*
X155410009Y-96568335D01*
X155387821Y-96631744D02*
X155380300Y-96698500D01*
X156550590Y-97221623D02*
X156514849Y-97278504D01*
X155380300Y-96698500D02*
X155380300Y-97091457D01*
X157172778Y-96631744D02*
X157150590Y-96568335D01*
X155372778Y-97158214D02*
X155350590Y-97221623D01*
X155350590Y-97221623D02*
X155314849Y-97278504D01*
X156213543Y-97383936D02*
X156150134Y-97361748D01*
X155210465Y-97361748D02*
X155147056Y-97383936D01*
%TO.N,/E3_N*%
X158266700Y-95948500D02*
X158279400Y-95961200D01*
X168140800Y-95961200D02*
X171500800Y-95961200D01*
X144208500Y-95948500D02*
X158266700Y-95948500D01*
X158279400Y-95961200D02*
X168140800Y-95961200D01*
%TO.N,/E4_P*%
X147568500Y-93858500D02*
X146755335Y-94671665D01*
X148767281Y-93888210D02*
X148703872Y-93866022D01*
X148824162Y-93923951D02*
X148767281Y-93888210D01*
X148871665Y-93971454D02*
X148824162Y-93923951D01*
X148929594Y-94091744D02*
X148907406Y-94028335D01*
X148937116Y-94158500D02*
X148929594Y-94091744D01*
X149170359Y-94710576D02*
X149106950Y-94688388D01*
X149303872Y-94710576D02*
X149237116Y-94718097D01*
X149529594Y-94484854D02*
X149507406Y-94548263D01*
X149537116Y-94418097D02*
X149529594Y-94484854D01*
X149544637Y-94091744D02*
X149537116Y-94158500D01*
X149566825Y-94028335D02*
X149544637Y-94091744D01*
X149770359Y-93866022D02*
X149706950Y-93888210D01*
X149237116Y-94718097D02*
X149170359Y-94710576D01*
X149967281Y-93888210D02*
X149903872Y-93866022D01*
X149650069Y-93923951D02*
X149602566Y-93971454D01*
X150024162Y-93923951D02*
X149967281Y-93888210D01*
X150137116Y-94158500D02*
X150129594Y-94091744D01*
X150166825Y-94548263D02*
X150144637Y-94484854D01*
X150306950Y-94688388D02*
X150250069Y-94652647D01*
X150370359Y-94710576D02*
X150306950Y-94688388D01*
X150437116Y-94718097D02*
X150370359Y-94710576D01*
X150503872Y-94710576D02*
X150437116Y-94718097D01*
X150567281Y-94688388D02*
X150503872Y-94710576D01*
X150671665Y-94605144D02*
X150624162Y-94652647D01*
X149050069Y-94652647D02*
X149002566Y-94605144D01*
X150129594Y-94091744D02*
X150107406Y-94028335D01*
X150707406Y-94548263D02*
X150671665Y-94605144D01*
X150729594Y-94484854D02*
X150707406Y-94548263D01*
X149471665Y-94605144D02*
X149424162Y-94652647D01*
X150737116Y-94418097D02*
X150729594Y-94484854D01*
X156470465Y-93888210D02*
X156407056Y-93866022D01*
X149837116Y-93858500D02*
X149770359Y-93866022D01*
X156632778Y-94091744D02*
X156610590Y-94028335D01*
X148944637Y-94484854D02*
X148937116Y-94418097D01*
X150250069Y-94652647D02*
X150202566Y-94605144D01*
X156640300Y-94418097D02*
X156640300Y-94158500D01*
X157553000Y-93871200D02*
X157540300Y-93858500D01*
X149507406Y-94548263D02*
X149471665Y-94605144D01*
X154174727Y-94743202D02*
X154117846Y-94778943D01*
X156647821Y-94484854D02*
X156640300Y-94418097D01*
X146755335Y-94671665D02*
X146748500Y-94678500D01*
X156670009Y-94548263D02*
X156647821Y-94484854D01*
X168140800Y-93871200D02*
X164672184Y-93871200D01*
X157210590Y-94548263D02*
X157174849Y-94605144D01*
X157007056Y-94710576D02*
X156940300Y-94718097D01*
X154070343Y-94826446D02*
X154034602Y-94883327D01*
X150071665Y-93971454D02*
X150024162Y-93923951D01*
X157232778Y-94484854D02*
X157210590Y-94548263D01*
X157174849Y-94605144D02*
X157127346Y-94652647D01*
X161404407Y-94726192D02*
X160549416Y-93871200D01*
X150137116Y-94418097D02*
X150137116Y-94158500D01*
X157247821Y-94091744D02*
X157240300Y-94158500D01*
X156753253Y-94652647D02*
X156705750Y-94605144D01*
X157410134Y-93888210D02*
X157353253Y-93923951D01*
X168960800Y-94691200D02*
X168140800Y-93871200D01*
X156705750Y-94605144D02*
X156670009Y-94548263D01*
X157127346Y-94652647D02*
X157070465Y-94688388D01*
X148966825Y-94548263D02*
X148944637Y-94484854D01*
X157070465Y-94688388D02*
X157007056Y-94710576D01*
X153771649Y-95365568D02*
X153704893Y-95373089D01*
X153412414Y-95139846D02*
X153404893Y-95073089D01*
X157473543Y-93866022D02*
X157410134Y-93888210D01*
X156574849Y-93971454D02*
X156527346Y-93923951D01*
X153104893Y-94713492D02*
X151892107Y-94713492D01*
X157270009Y-94028335D02*
X157247821Y-94091744D01*
X153638136Y-95365568D02*
X153574727Y-95343380D01*
X156640300Y-94158500D02*
X156632778Y-94091744D01*
X157540300Y-93858500D02*
X157473543Y-93866022D01*
X148703872Y-93866022D02*
X148637116Y-93858500D01*
X153375183Y-94883327D02*
X153339442Y-94826446D01*
X156527346Y-93923951D02*
X156470465Y-93888210D01*
X163817193Y-94726192D02*
X161404407Y-94726192D01*
X154004893Y-95013492D02*
X154004893Y-95073089D01*
X157240300Y-94158500D02*
X157240300Y-94418097D01*
X156873543Y-94710576D02*
X156810134Y-94688388D01*
X160549416Y-93871200D02*
X157553000Y-93871200D01*
X157353253Y-93923951D02*
X157305750Y-93971454D01*
X150970359Y-93866022D02*
X150906950Y-93888210D01*
X148637116Y-93858500D02*
X147568500Y-93858500D01*
X156940300Y-94718097D02*
X156873543Y-94710576D01*
X149002566Y-94605144D02*
X148966825Y-94548263D01*
X150107406Y-94028335D02*
X150071665Y-93971454D01*
X157305750Y-93971454D02*
X157270009Y-94028335D01*
X164672184Y-93871200D02*
X163817193Y-94726192D01*
X157240300Y-94418097D02*
X157232778Y-94484854D01*
X150624162Y-94652647D02*
X150567281Y-94688388D01*
X153891939Y-95307639D02*
X153835058Y-95343380D01*
X153171649Y-94721014D02*
X153104893Y-94713492D01*
X154238136Y-94721014D02*
X154174727Y-94743202D01*
X150202566Y-94605144D02*
X150166825Y-94548263D01*
X155159884Y-93858500D02*
X154304893Y-94713492D01*
X154034602Y-94883327D02*
X154012414Y-94946736D01*
X156810134Y-94688388D02*
X156753253Y-94652647D01*
X154304893Y-94713492D02*
X154238136Y-94721014D01*
X154117846Y-94778943D02*
X154070343Y-94826446D01*
X153997371Y-95139846D02*
X153975183Y-95203255D01*
X150906950Y-93888210D02*
X150850069Y-93923951D01*
X154012414Y-94946736D02*
X154004893Y-95013492D01*
X150802566Y-93971454D02*
X150766825Y-94028335D01*
X149424162Y-94652647D02*
X149367281Y-94688388D01*
X154004893Y-95073089D02*
X153997371Y-95139846D01*
X150850069Y-93923951D02*
X150802566Y-93971454D01*
X153434602Y-95203255D02*
X153412414Y-95139846D01*
X153470343Y-95260136D02*
X153434602Y-95203255D01*
X153975183Y-95203255D02*
X153939442Y-95260136D01*
X148937116Y-94418097D02*
X148937116Y-94158500D01*
X153939442Y-95260136D02*
X153891939Y-95307639D01*
X153835058Y-95343380D02*
X153771649Y-95365568D01*
X148907406Y-94028335D02*
X148871665Y-93971454D01*
X149602566Y-93971454D02*
X149566825Y-94028335D01*
X149903872Y-93866022D02*
X149837116Y-93858500D01*
X150737116Y-94158500D02*
X150737116Y-94418097D01*
X153397371Y-94946736D02*
X153375183Y-94883327D01*
X153704893Y-95373089D02*
X153638136Y-95365568D01*
X153339442Y-94826446D02*
X153291939Y-94778943D01*
X156340300Y-93858500D02*
X155159884Y-93858500D01*
X153574727Y-95343380D02*
X153517846Y-95307639D01*
X153404893Y-95073089D02*
X153404893Y-95013492D01*
X153517846Y-95307639D02*
X153470343Y-95260136D01*
X149706950Y-93888210D02*
X149650069Y-93923951D01*
X153291939Y-94778943D02*
X153235058Y-94743202D01*
X153235058Y-94743202D02*
X153171649Y-94721014D01*
X149367281Y-94688388D02*
X149303872Y-94710576D01*
X151892107Y-94713492D02*
X151037116Y-93858500D01*
X149537116Y-94158500D02*
X149537116Y-94418097D01*
X156610590Y-94028335D02*
X156574849Y-93971454D01*
X151037116Y-93858500D02*
X150970359Y-93866022D01*
X149106950Y-94688388D02*
X149050069Y-94652647D01*
X150144637Y-94484854D02*
X150137116Y-94418097D01*
X153404893Y-95013492D02*
X153397371Y-94946736D01*
X156407056Y-93866022D02*
X156340300Y-93858500D01*
X150766825Y-94028335D02*
X150744637Y-94091744D01*
X150744637Y-94091744D02*
X150737116Y-94158500D01*
%TO.N,/E4_N*%
X171500800Y-93421200D02*
X164485802Y-93421200D01*
X164485802Y-93421200D02*
X163630801Y-94276201D01*
X163630801Y-94276201D02*
X161590799Y-94276201D01*
X151223498Y-93408500D02*
X152078499Y-94263501D01*
X144208500Y-93408500D02*
X151223498Y-93408500D01*
X160735798Y-93421200D02*
X157739400Y-93421200D01*
X161590799Y-94276201D02*
X160735798Y-93421200D01*
X154973502Y-93408500D02*
X157726700Y-93408500D01*
X157739400Y-93421200D02*
X157726700Y-93408500D01*
X154118501Y-94263501D02*
X154973502Y-93408500D01*
X152078499Y-94263501D02*
X154118501Y-94263501D01*
D26*
%TO.N,/RESET*%
X120396000Y-95273000D02*
X120396000Y-96012000D01*
X122292000Y-94537000D02*
X121132000Y-94537000D01*
X121132000Y-94537000D02*
X120396000Y-95273000D01*
%TO.N,/MOSI*%
X115106599Y-107148001D02*
X112268000Y-104309402D01*
X118237000Y-105918000D02*
X117006999Y-107148001D01*
X117006999Y-107148001D02*
X115106599Y-107148001D01*
X112632000Y-96937000D02*
X113792000Y-96937000D01*
X112268000Y-104309402D02*
X112268000Y-97301000D01*
X112268000Y-97301000D02*
X112632000Y-96937000D01*
%TO.N,/SCK*%
X115242000Y-100347000D02*
X115242000Y-99187000D01*
X116927001Y-102032001D02*
X115242000Y-100347000D01*
X115697000Y-105918000D02*
X116927001Y-104687999D01*
X116927001Y-104687999D02*
X116927001Y-102032001D01*
%TO.N,/MISO*%
X113792000Y-101473000D02*
X113792000Y-97737000D01*
X115697000Y-103378000D02*
X113792000Y-101473000D01*
%TO.N,/SENSOR_2*%
X113799000Y-93744000D02*
X113792000Y-93737000D01*
X115624892Y-93744000D02*
X113799000Y-93744000D01*
%TO.N,/SENSOR_1*%
X113819000Y-92964000D02*
X113792000Y-92937000D01*
X115343000Y-92937000D02*
X113792000Y-92937000D01*
X115824000Y-92456000D02*
X115343000Y-92937000D01*
%TO.N,/DAMPER_R*%
X122292000Y-96937000D02*
X124143630Y-96937000D01*
X124143630Y-96937000D02*
X124674789Y-96405841D01*
%TO.N,/DAMPER_L*%
X122292000Y-97737000D02*
X124446718Y-97737000D01*
X124446718Y-97737000D02*
X125800975Y-96382743D01*
%TO.N,/WHEEL_R*%
X120842000Y-99187000D02*
X124396713Y-99187000D01*
X124396713Y-99187000D02*
X126601000Y-96982713D01*
%TO.N,/WHEEL_L*%
X124155200Y-100888800D02*
X120784798Y-100888800D01*
X120042000Y-100146002D02*
X120042000Y-99187000D01*
X120784798Y-100888800D02*
X120042000Y-100146002D01*
X127063500Y-97980500D02*
X124155200Y-100888800D01*
%TO.N,/BRAKE_SIG*%
X112832998Y-95337000D02*
X112165010Y-94669012D01*
X113792000Y-95337000D02*
X112832998Y-95337000D01*
X112165010Y-94669012D02*
X112165010Y-89764990D01*
X112165010Y-89764990D02*
X113030000Y-88900000D01*
X113030000Y-88900000D02*
X121605974Y-88900000D01*
X124526974Y-91821000D02*
X125603000Y-91821000D01*
X121605974Y-88900000D02*
X124526974Y-91821000D01*
X128297000Y-91821000D02*
X128429000Y-91953000D01*
X125603000Y-91821000D02*
X128297000Y-91821000D01*
%TO.N,/FAN_SIG*%
X141097000Y-95350000D02*
X141102000Y-95345000D01*
X141097000Y-96520000D02*
X141097000Y-95350000D01*
X122601002Y-90687000D02*
X131482002Y-99568000D01*
X120842000Y-90687000D02*
X122601002Y-90687000D01*
X131482002Y-99568000D02*
X140208000Y-99568000D01*
X141097000Y-98679000D02*
X141097000Y-96520000D01*
X140208000Y-99568000D02*
X141097000Y-98679000D01*
%TO.N,Net-(R4-Pad2)*%
X127308600Y-101854000D02*
X127355600Y-101901000D01*
X125780800Y-101854000D02*
X127308600Y-101854000D01*
%TO.N,/CAN_CS*%
X113792000Y-92137000D02*
X113792000Y-90424000D01*
%TO.N,Net-(U3-Pad8)*%
X128397000Y-109277000D02*
X130372000Y-109277000D01*
X130372000Y-109277000D02*
X131064000Y-108585000D01*
%TO.N,Net-(U3-Pad7)*%
X128397000Y-106877000D02*
X130626000Y-106877000D01*
X130626000Y-106877000D02*
X131064000Y-107315000D01*
D27*
%TO.N,/CAN+*%
X142210000Y-79025000D02*
X144210000Y-81025000D01*
X142210000Y-77025000D02*
X142210000Y-79025000D01*
X145923000Y-82738000D02*
X145923000Y-85852000D01*
X144210000Y-81025000D02*
X145923000Y-82738000D01*
%TO.N,/CAN-*%
X138210000Y-79025000D02*
X140210000Y-81025000D01*
X138210000Y-77025000D02*
X138210000Y-79025000D01*
X140210000Y-81025000D02*
X143386000Y-84201000D01*
X143386000Y-85849000D02*
X143383000Y-85852000D01*
X143386000Y-84201000D02*
X143386000Y-85849000D01*
D26*
%TO.N,/SENSOR_6*%
X122292000Y-95337000D02*
X123251002Y-95337000D01*
X123251002Y-95337000D02*
X123900955Y-94687047D01*
X123900955Y-94687047D02*
X123900955Y-93980000D01*
%TO.N,/SENSOR_5*%
X122292000Y-96137000D02*
X123739151Y-96137000D01*
X123739151Y-96137000D02*
X124443102Y-95433049D01*
%TD*%
D29*
%TO.N,/BRAKE_OUT*%
X133444860Y-79788802D02*
X133111066Y-79455008D01*
X132986776Y-79579298D01*
X132816403Y-79385643D01*
X132484928Y-79298840D01*
X132142888Y-79278372D01*
X131803427Y-79325025D01*
X131603597Y-79385643D01*
X131433223Y-79579300D01*
X132210000Y-80356077D01*
X132224143Y-80341935D01*
X132893066Y-81010858D01*
X132878923Y-81025000D01*
X133655700Y-81801777D01*
X133841234Y-81638549D01*
X134747000Y-85865455D01*
X134747000Y-92456000D01*
X130048000Y-92456000D01*
X130048000Y-82470700D01*
X131433223Y-82470700D01*
X131603597Y-82664357D01*
X131935072Y-82751160D01*
X132277112Y-82771628D01*
X132616573Y-82724975D01*
X132816403Y-82664357D01*
X132986777Y-82470700D01*
X132210000Y-81693923D01*
X131433223Y-82470700D01*
X130048000Y-82470700D01*
X130048000Y-81676739D01*
X130082659Y-81593065D01*
X130157500Y-81216812D01*
X130157500Y-81092112D01*
X130463372Y-81092112D01*
X130510025Y-81431573D01*
X130570643Y-81631403D01*
X130764300Y-81801777D01*
X131541077Y-81025000D01*
X130764300Y-80248223D01*
X130570643Y-80418597D01*
X130483840Y-80750072D01*
X130463372Y-81092112D01*
X130157500Y-81092112D01*
X130157500Y-80833188D01*
X130082659Y-80456935D01*
X130048000Y-80373261D01*
X130048000Y-78972500D01*
X130401812Y-78972500D01*
X130778065Y-78897659D01*
X130852082Y-78867000D01*
X133247331Y-78867000D01*
X133444860Y-79788802D01*
%TA.AperFunction,Conductor*%
D30*
G36*
X133444860Y-79788802D02*
G01*
X133111066Y-79455008D01*
X132986776Y-79579298D01*
X132816403Y-79385643D01*
X132484928Y-79298840D01*
X132142888Y-79278372D01*
X131803427Y-79325025D01*
X131603597Y-79385643D01*
X131433223Y-79579300D01*
X132210000Y-80356077D01*
X132224143Y-80341935D01*
X132893066Y-81010858D01*
X132878923Y-81025000D01*
X133655700Y-81801777D01*
X133841234Y-81638549D01*
X134747000Y-85865455D01*
X134747000Y-92456000D01*
X130048000Y-92456000D01*
X130048000Y-82470700D01*
X131433223Y-82470700D01*
X131603597Y-82664357D01*
X131935072Y-82751160D01*
X132277112Y-82771628D01*
X132616573Y-82724975D01*
X132816403Y-82664357D01*
X132986777Y-82470700D01*
X132210000Y-81693923D01*
X131433223Y-82470700D01*
X130048000Y-82470700D01*
X130048000Y-81676739D01*
X130082659Y-81593065D01*
X130157500Y-81216812D01*
X130157500Y-81092112D01*
X130463372Y-81092112D01*
X130510025Y-81431573D01*
X130570643Y-81631403D01*
X130764300Y-81801777D01*
X131541077Y-81025000D01*
X130764300Y-80248223D01*
X130570643Y-80418597D01*
X130483840Y-80750072D01*
X130463372Y-81092112D01*
X130157500Y-81092112D01*
X130157500Y-80833188D01*
X130082659Y-80456935D01*
X130048000Y-80373261D01*
X130048000Y-78972500D01*
X130401812Y-78972500D01*
X130778065Y-78897659D01*
X130852082Y-78867000D01*
X133247331Y-78867000D01*
X133444860Y-79788802D01*
G37*
%TD.AperFunction*%
%TD*%
D29*
%TO.N,/FAN_OUT*%
X136992870Y-79267102D02*
X137063489Y-79499899D01*
X137063490Y-79499901D01*
X137178168Y-79714449D01*
X137332499Y-79902502D01*
X137379621Y-79941174D01*
X138264016Y-80825569D01*
X138262500Y-80833188D01*
X138262500Y-81216812D01*
X138337341Y-81593065D01*
X138484148Y-81947487D01*
X138697278Y-82266459D01*
X138968541Y-82537722D01*
X139287513Y-82750852D01*
X139641935Y-82897659D01*
X140018188Y-82972500D01*
X140401812Y-82972500D01*
X140409431Y-82970984D01*
X140455786Y-83017339D01*
X142083083Y-88271618D01*
X142083083Y-94107000D01*
X135755536Y-94107000D01*
X135509000Y-90039159D01*
X135509000Y-85852000D01*
X135494905Y-85718949D01*
X134108273Y-79248000D01*
X136990989Y-79248000D01*
X136992870Y-79267102D01*
%TA.AperFunction,Conductor*%
D30*
G36*
X136992870Y-79267102D02*
G01*
X137063489Y-79499899D01*
X137063490Y-79499901D01*
X137178168Y-79714449D01*
X137332499Y-79902502D01*
X137379621Y-79941174D01*
X138264016Y-80825569D01*
X138262500Y-80833188D01*
X138262500Y-81216812D01*
X138337341Y-81593065D01*
X138484148Y-81947487D01*
X138697278Y-82266459D01*
X138968541Y-82537722D01*
X139287513Y-82750852D01*
X139641935Y-82897659D01*
X140018188Y-82972500D01*
X140401812Y-82972500D01*
X140409431Y-82970984D01*
X140455786Y-83017339D01*
X142083083Y-88271618D01*
X142083083Y-94107000D01*
X135755536Y-94107000D01*
X135509000Y-90039159D01*
X135509000Y-85852000D01*
X135494905Y-85718949D01*
X134108273Y-79248000D01*
X136990989Y-79248000D01*
X136992870Y-79267102D01*
G37*
%TD.AperFunction*%
%TD*%
D29*
%TO.N,GND*%
X172208000Y-92406010D02*
X172086739Y-92324985D01*
X171861619Y-92231738D01*
X171622634Y-92184200D01*
X171378966Y-92184200D01*
X171139981Y-92231738D01*
X170914861Y-92324985D01*
X170712259Y-92460360D01*
X170539960Y-92632659D01*
X170405294Y-92834200D01*
X164830383Y-92834200D01*
X164833951Y-92825586D01*
X164922800Y-92378912D01*
X164922800Y-91923488D01*
X164833951Y-91476814D01*
X164659668Y-91056057D01*
X164406648Y-90677386D01*
X164084614Y-90355352D01*
X163705943Y-90102332D01*
X163285186Y-89928049D01*
X162838512Y-89839200D01*
X162383088Y-89839200D01*
X161936414Y-89928049D01*
X161515657Y-90102332D01*
X161136986Y-90355352D01*
X160814952Y-90677386D01*
X160561932Y-91056057D01*
X160387649Y-91476814D01*
X160298800Y-91923488D01*
X160298800Y-92378912D01*
X160387649Y-92825586D01*
X160391217Y-92834200D01*
X157855637Y-92834200D01*
X157841772Y-92829994D01*
X157755534Y-92821500D01*
X157726700Y-92818660D01*
X157697866Y-92821500D01*
X155318083Y-92821500D01*
X155321651Y-92812886D01*
X155410500Y-92366212D01*
X155410500Y-91910788D01*
X155321651Y-91464114D01*
X155147368Y-91043357D01*
X154894348Y-90664686D01*
X154572314Y-90342652D01*
X154193643Y-90089632D01*
X153772886Y-89915349D01*
X153326212Y-89826500D01*
X152870788Y-89826500D01*
X152424114Y-89915349D01*
X152003357Y-90089632D01*
X151624686Y-90342652D01*
X151302652Y-90664686D01*
X151049632Y-91043357D01*
X150875349Y-91464114D01*
X150786500Y-91910788D01*
X150786500Y-92366212D01*
X150875349Y-92812886D01*
X150878917Y-92821500D01*
X145304006Y-92821500D01*
X145169340Y-92619959D01*
X144997041Y-92447660D01*
X144794439Y-92312285D01*
X144569319Y-92219038D01*
X144330334Y-92171500D01*
X144086666Y-92171500D01*
X143847681Y-92219038D01*
X143622561Y-92312285D01*
X143419959Y-92447660D01*
X143247660Y-92619959D01*
X143112285Y-92822561D01*
X143019038Y-93047681D01*
X142971500Y-93286666D01*
X142971500Y-93530334D01*
X143019038Y-93769319D01*
X143112285Y-93994439D01*
X143247660Y-94197041D01*
X143419959Y-94369340D01*
X143622561Y-94504715D01*
X143847681Y-94597962D01*
X144086666Y-94645500D01*
X144330334Y-94645500D01*
X144569319Y-94597962D01*
X144794439Y-94504715D01*
X144997041Y-94369340D01*
X145169340Y-94197041D01*
X145304006Y-93995500D01*
X145717139Y-93995500D01*
X145652285Y-94092561D01*
X145559038Y-94317681D01*
X145511500Y-94556666D01*
X145511500Y-94800334D01*
X145559038Y-95039319D01*
X145652285Y-95264439D01*
X145717139Y-95361500D01*
X145304006Y-95361500D01*
X145169340Y-95159959D01*
X144997041Y-94987660D01*
X144794439Y-94852285D01*
X144569319Y-94759038D01*
X144330334Y-94711500D01*
X144086666Y-94711500D01*
X143847681Y-94759038D01*
X143622561Y-94852285D01*
X143419959Y-94987660D01*
X143247660Y-95159959D01*
X143112285Y-95362561D01*
X143019038Y-95587681D01*
X142971500Y-95826666D01*
X142971500Y-96070334D01*
X143019038Y-96309319D01*
X143112285Y-96534439D01*
X143247660Y-96737041D01*
X143419959Y-96909340D01*
X143622561Y-97044715D01*
X143847681Y-97137962D01*
X144086666Y-97185500D01*
X144330334Y-97185500D01*
X144569319Y-97137962D01*
X144794439Y-97044715D01*
X144997041Y-96909340D01*
X145169340Y-96737041D01*
X145304006Y-96535500D01*
X145717139Y-96535500D01*
X145652285Y-96632561D01*
X145559038Y-96857681D01*
X145511500Y-97096666D01*
X145511500Y-97340334D01*
X145559038Y-97579319D01*
X145652285Y-97804439D01*
X145717139Y-97901500D01*
X145304006Y-97901500D01*
X145169340Y-97699959D01*
X144997041Y-97527660D01*
X144794439Y-97392285D01*
X144569319Y-97299038D01*
X144330334Y-97251500D01*
X144086666Y-97251500D01*
X143847681Y-97299038D01*
X143622561Y-97392285D01*
X143419959Y-97527660D01*
X143247660Y-97699959D01*
X143112285Y-97902561D01*
X143019038Y-98127681D01*
X142971500Y-98366666D01*
X142971500Y-98610334D01*
X143019038Y-98849319D01*
X143112285Y-99074439D01*
X143247660Y-99277041D01*
X143419959Y-99449340D01*
X143622561Y-99584715D01*
X143847681Y-99677962D01*
X144086666Y-99725500D01*
X144330334Y-99725500D01*
X144569319Y-99677962D01*
X144794439Y-99584715D01*
X144997041Y-99449340D01*
X145169340Y-99277041D01*
X145304006Y-99075500D01*
X145717139Y-99075500D01*
X145652285Y-99172561D01*
X145559038Y-99397681D01*
X145511500Y-99636666D01*
X145511500Y-99880334D01*
X145559038Y-100119319D01*
X145652285Y-100344439D01*
X145717139Y-100441500D01*
X145304006Y-100441500D01*
X145169340Y-100239959D01*
X144997041Y-100067660D01*
X144794439Y-99932285D01*
X144569319Y-99839038D01*
X144330334Y-99791500D01*
X144086666Y-99791500D01*
X143847681Y-99839038D01*
X143622561Y-99932285D01*
X143419959Y-100067660D01*
X143247660Y-100239959D01*
X143112285Y-100442561D01*
X143019038Y-100667681D01*
X142971500Y-100906666D01*
X142971500Y-101150334D01*
X143019038Y-101389319D01*
X143112285Y-101614439D01*
X143247660Y-101817041D01*
X143419959Y-101989340D01*
X143622561Y-102124715D01*
X143847681Y-102217962D01*
X144086666Y-102265500D01*
X144330334Y-102265500D01*
X144569319Y-102217962D01*
X144794439Y-102124715D01*
X144997041Y-101989340D01*
X145169340Y-101817041D01*
X145304006Y-101615500D01*
X145509144Y-101615500D01*
X145509144Y-103048500D01*
X145518547Y-103143969D01*
X145546394Y-103235768D01*
X145591615Y-103320372D01*
X145652473Y-103394527D01*
X145726628Y-103455385D01*
X145811232Y-103500606D01*
X145903031Y-103528453D01*
X145998500Y-103537856D01*
X147498500Y-103537856D01*
X147593969Y-103528453D01*
X147685768Y-103500606D01*
X147770372Y-103455385D01*
X147844527Y-103394527D01*
X147905385Y-103320372D01*
X147950606Y-103235768D01*
X147978453Y-103143969D01*
X147987856Y-103048500D01*
X147987856Y-102065500D01*
X151331838Y-102065500D01*
X151302652Y-102094686D01*
X151049632Y-102473357D01*
X150875349Y-102894114D01*
X150786500Y-103340788D01*
X150786500Y-103796212D01*
X150875349Y-104242886D01*
X151049632Y-104663643D01*
X151302652Y-105042314D01*
X151624686Y-105364348D01*
X152003357Y-105617368D01*
X152424114Y-105791651D01*
X152870788Y-105880500D01*
X153326212Y-105880500D01*
X153772886Y-105791651D01*
X154193643Y-105617368D01*
X154572314Y-105364348D01*
X154894348Y-105042314D01*
X155147368Y-104663643D01*
X155321651Y-104242886D01*
X155410500Y-103796212D01*
X155410500Y-103340788D01*
X155326749Y-102919744D01*
X155339602Y-102927820D01*
X155369650Y-102949780D01*
X155414617Y-102970663D01*
X155458983Y-102992801D01*
X155494886Y-103002601D01*
X155519442Y-103011194D01*
X155553620Y-103025916D01*
X155602113Y-103036271D01*
X155650288Y-103047980D01*
X155687466Y-103049546D01*
X155713331Y-103052460D01*
X155749928Y-103059207D01*
X155799500Y-103058512D01*
X155849073Y-103059207D01*
X155885672Y-103052460D01*
X155911533Y-103049546D01*
X155948711Y-103047980D01*
X155996886Y-103036271D01*
X156045379Y-103025916D01*
X156079559Y-103011193D01*
X156104112Y-103002602D01*
X156140016Y-102992801D01*
X156184382Y-102970663D01*
X156229349Y-102949780D01*
X156259397Y-102927820D01*
X156281425Y-102913979D01*
X156314243Y-102896437D01*
X156352560Y-102864991D01*
X156391765Y-102834615D01*
X156399500Y-102825712D01*
X156407234Y-102834615D01*
X156446429Y-102864983D01*
X156484756Y-102896437D01*
X156517572Y-102913978D01*
X156539602Y-102927820D01*
X156569650Y-102949780D01*
X156614617Y-102970663D01*
X156658983Y-102992801D01*
X156694886Y-103002601D01*
X156719442Y-103011194D01*
X156753620Y-103025916D01*
X156802113Y-103036271D01*
X156850288Y-103047980D01*
X156887466Y-103049546D01*
X156913331Y-103052460D01*
X156949928Y-103059207D01*
X156999500Y-103058512D01*
X157049073Y-103059207D01*
X157085672Y-103052460D01*
X157111533Y-103049546D01*
X157148711Y-103047980D01*
X157196886Y-103036271D01*
X157245379Y-103025916D01*
X157279559Y-103011193D01*
X157304112Y-103002602D01*
X157340016Y-102992801D01*
X157384382Y-102970663D01*
X157429349Y-102949780D01*
X157459397Y-102927820D01*
X157481425Y-102913979D01*
X157514243Y-102896437D01*
X157552560Y-102864991D01*
X157591765Y-102834615D01*
X157616171Y-102806522D01*
X157634568Y-102788124D01*
X157662660Y-102763720D01*
X157693028Y-102724525D01*
X157724482Y-102686198D01*
X157742023Y-102653382D01*
X157755865Y-102631352D01*
X157777825Y-102601304D01*
X157798708Y-102556337D01*
X157820846Y-102511971D01*
X157830646Y-102476068D01*
X157839240Y-102451510D01*
X157853961Y-102417334D01*
X157864318Y-102368837D01*
X157876025Y-102320666D01*
X157877375Y-102288607D01*
X157878006Y-102286527D01*
X157883267Y-102233113D01*
X157886037Y-102208530D01*
X157886095Y-102204402D01*
X157886500Y-102200289D01*
X157886500Y-102175511D01*
X157887252Y-102121883D01*
X157886500Y-102117804D01*
X157886500Y-102065500D01*
X157972500Y-102065500D01*
X157972500Y-102130496D01*
X157971748Y-102134574D01*
X157972500Y-102188202D01*
X157972500Y-102212989D01*
X157972905Y-102217104D01*
X157972963Y-102221220D01*
X157975728Y-102245763D01*
X157980994Y-102299227D01*
X157981624Y-102301303D01*
X157982974Y-102333366D01*
X157994681Y-102381536D01*
X158005035Y-102430026D01*
X158019760Y-102464212D01*
X158028352Y-102488767D01*
X158038153Y-102524671D01*
X158060291Y-102569037D01*
X158081174Y-102614004D01*
X158103134Y-102644052D01*
X158116975Y-102666080D01*
X158134517Y-102698898D01*
X158165963Y-102737215D01*
X158196339Y-102776420D01*
X158224432Y-102800826D01*
X158242830Y-102819223D01*
X158267234Y-102847315D01*
X158306429Y-102877683D01*
X158344756Y-102909137D01*
X158377572Y-102926678D01*
X158399602Y-102940520D01*
X158429650Y-102962480D01*
X158474617Y-102983363D01*
X158518983Y-103005501D01*
X158554886Y-103015301D01*
X158579442Y-103023894D01*
X158613620Y-103038616D01*
X158662113Y-103048971D01*
X158710288Y-103060680D01*
X158747466Y-103062246D01*
X158773331Y-103065160D01*
X158809928Y-103071907D01*
X158859500Y-103071212D01*
X158909073Y-103071907D01*
X158945672Y-103065160D01*
X158971533Y-103062246D01*
X159008711Y-103060680D01*
X159056886Y-103048971D01*
X159105379Y-103038616D01*
X159139559Y-103023893D01*
X159164112Y-103015302D01*
X159200016Y-103005501D01*
X159244382Y-102983363D01*
X159289349Y-102962480D01*
X159319397Y-102940520D01*
X159341425Y-102926679D01*
X159374243Y-102909137D01*
X159412560Y-102877691D01*
X159451765Y-102847315D01*
X159476171Y-102819222D01*
X159494568Y-102800824D01*
X159522660Y-102776420D01*
X159553028Y-102737225D01*
X159584482Y-102698898D01*
X159602023Y-102666082D01*
X159615865Y-102644052D01*
X159637825Y-102614004D01*
X159658708Y-102569037D01*
X159680846Y-102524671D01*
X159690646Y-102488768D01*
X159699240Y-102464210D01*
X159713961Y-102430034D01*
X159724318Y-102381537D01*
X159736025Y-102333366D01*
X159737375Y-102301307D01*
X159738006Y-102299227D01*
X159743267Y-102245813D01*
X159746037Y-102221230D01*
X159746095Y-102217102D01*
X159746500Y-102212989D01*
X159746500Y-102188211D01*
X159747252Y-102134583D01*
X159746500Y-102130504D01*
X159746500Y-102078200D01*
X160844138Y-102078200D01*
X160814952Y-102107386D01*
X160561932Y-102486057D01*
X160387649Y-102906814D01*
X160298800Y-103353488D01*
X160298800Y-103808912D01*
X160387649Y-104255586D01*
X160561932Y-104676343D01*
X160814952Y-105055014D01*
X161136986Y-105377048D01*
X161515657Y-105630068D01*
X161936414Y-105804351D01*
X162383088Y-105893200D01*
X162838512Y-105893200D01*
X163285186Y-105804351D01*
X163705943Y-105630068D01*
X164084614Y-105377048D01*
X164406648Y-105055014D01*
X164659668Y-104676343D01*
X164833951Y-104255586D01*
X164922800Y-103808912D01*
X164922800Y-103353488D01*
X164833951Y-102906814D01*
X164659668Y-102486057D01*
X164406648Y-102107386D01*
X164377462Y-102078200D01*
X167721444Y-102078200D01*
X167721444Y-103061200D01*
X167730847Y-103156669D01*
X167758694Y-103248468D01*
X167803915Y-103333072D01*
X167864773Y-103407227D01*
X167938928Y-103468085D01*
X168023532Y-103513306D01*
X168115331Y-103541153D01*
X168210800Y-103550556D01*
X169710800Y-103550556D01*
X169806269Y-103541153D01*
X169898068Y-103513306D01*
X169982672Y-103468085D01*
X170056827Y-103407227D01*
X170117685Y-103333072D01*
X170162906Y-103248468D01*
X170190753Y-103156669D01*
X170200156Y-103061200D01*
X170200156Y-101628200D01*
X170405294Y-101628200D01*
X170539960Y-101829741D01*
X170712259Y-102002040D01*
X170914861Y-102137415D01*
X171139981Y-102230662D01*
X171378966Y-102278200D01*
X171622634Y-102278200D01*
X171861619Y-102230662D01*
X172086739Y-102137415D01*
X172208000Y-102056390D01*
X172208000Y-111248000D01*
X112272000Y-111248000D01*
X112272000Y-105256681D01*
X114611794Y-107596477D01*
X114632677Y-107621923D01*
X114642349Y-107629860D01*
X114512166Y-107824693D01*
X114411380Y-108068012D01*
X114360000Y-108326317D01*
X114360000Y-108589683D01*
X114411380Y-108847988D01*
X114512166Y-109091307D01*
X114658484Y-109310288D01*
X114844712Y-109496516D01*
X115063693Y-109642834D01*
X115307012Y-109743620D01*
X115565317Y-109795000D01*
X115828683Y-109795000D01*
X116086988Y-109743620D01*
X116330307Y-109642834D01*
X116549288Y-109496516D01*
X116735516Y-109310288D01*
X116881834Y-109091307D01*
X116982620Y-108847988D01*
X117034000Y-108589683D01*
X117034000Y-108326317D01*
X116982620Y-108068012D01*
X116881834Y-107824693D01*
X116875358Y-107815001D01*
X116974245Y-107815001D01*
X117006999Y-107818227D01*
X117039753Y-107815001D01*
X117039764Y-107815001D01*
X117137754Y-107805350D01*
X117263484Y-107767210D01*
X117379357Y-107705274D01*
X117480921Y-107621923D01*
X117501812Y-107596467D01*
X117886754Y-107211525D01*
X118105317Y-107255000D01*
X118368683Y-107255000D01*
X118626988Y-107203620D01*
X118870307Y-107102834D01*
X119089288Y-106956516D01*
X119275516Y-106770288D01*
X119337848Y-106677000D01*
X126307644Y-106677000D01*
X126307644Y-107077000D01*
X126317047Y-107172469D01*
X126344894Y-107264268D01*
X126390115Y-107348872D01*
X126450973Y-107423027D01*
X126525128Y-107483885D01*
X126609732Y-107529106D01*
X126701531Y-107556953D01*
X126797000Y-107566356D01*
X129997000Y-107566356D01*
X130092469Y-107556953D01*
X130135169Y-107544000D01*
X130205174Y-107544000D01*
X130211087Y-107573728D01*
X130277951Y-107735152D01*
X130375022Y-107880430D01*
X130444592Y-107950000D01*
X130375022Y-108019570D01*
X130277951Y-108164848D01*
X130211087Y-108326272D01*
X130177000Y-108497638D01*
X130177000Y-108528721D01*
X130104902Y-108600819D01*
X130092469Y-108597047D01*
X129997000Y-108587644D01*
X126797000Y-108587644D01*
X126701531Y-108597047D01*
X126609732Y-108624894D01*
X126525128Y-108670115D01*
X126450973Y-108730973D01*
X126390115Y-108805128D01*
X126344894Y-108889732D01*
X126317047Y-108981531D01*
X126307644Y-109077000D01*
X126307644Y-109477000D01*
X126317047Y-109572469D01*
X126344894Y-109664268D01*
X126390115Y-109748872D01*
X126450973Y-109823027D01*
X126525128Y-109883885D01*
X126609732Y-109929106D01*
X126701531Y-109956953D01*
X126797000Y-109966356D01*
X129997000Y-109966356D01*
X130092469Y-109956953D01*
X130135169Y-109944000D01*
X130339246Y-109944000D01*
X130372000Y-109947226D01*
X130404754Y-109944000D01*
X130404765Y-109944000D01*
X130502755Y-109934349D01*
X130628485Y-109896209D01*
X130744358Y-109834273D01*
X130845922Y-109750922D01*
X130866813Y-109725466D01*
X131120279Y-109472000D01*
X131151362Y-109472000D01*
X131322728Y-109437913D01*
X131484152Y-109371049D01*
X131629430Y-109273978D01*
X131752978Y-109150430D01*
X131850049Y-109005152D01*
X131916913Y-108843728D01*
X131951000Y-108672362D01*
X131951000Y-108497638D01*
X131916913Y-108326272D01*
X131850049Y-108164848D01*
X131752978Y-108019570D01*
X131683408Y-107950000D01*
X131752978Y-107880430D01*
X131850049Y-107735152D01*
X131916913Y-107573728D01*
X131951000Y-107402362D01*
X131951000Y-107227638D01*
X131916913Y-107056272D01*
X131850049Y-106894848D01*
X131752978Y-106749570D01*
X131629430Y-106626022D01*
X131538104Y-106565000D01*
X138060644Y-106565000D01*
X138060644Y-108065000D01*
X138070047Y-108160469D01*
X138097894Y-108252268D01*
X138143115Y-108336872D01*
X138203973Y-108411027D01*
X138278128Y-108471885D01*
X138362732Y-108517106D01*
X138454531Y-108544953D01*
X138550000Y-108554356D01*
X140850000Y-108554356D01*
X140945469Y-108544953D01*
X141037268Y-108517106D01*
X141121872Y-108471885D01*
X141196027Y-108411027D01*
X141256885Y-108336872D01*
X141302106Y-108252268D01*
X141329953Y-108160469D01*
X141339356Y-108065000D01*
X141339356Y-106565000D01*
X141329953Y-106469531D01*
X141302106Y-106377732D01*
X141256885Y-106293128D01*
X141196027Y-106218973D01*
X141121872Y-106158115D01*
X141037268Y-106112894D01*
X140945469Y-106085047D01*
X140850000Y-106075644D01*
X138550000Y-106075644D01*
X138454531Y-106085047D01*
X138362732Y-106112894D01*
X138278128Y-106158115D01*
X138203973Y-106218973D01*
X138143115Y-106293128D01*
X138097894Y-106377732D01*
X138070047Y-106469531D01*
X138060644Y-106565000D01*
X131538104Y-106565000D01*
X131484152Y-106528951D01*
X131322728Y-106462087D01*
X131151362Y-106428000D01*
X131120375Y-106428000D01*
X131099922Y-106403078D01*
X130998358Y-106319727D01*
X130882485Y-106257791D01*
X130756755Y-106219651D01*
X130658765Y-106210000D01*
X130658754Y-106210000D01*
X130626000Y-106206774D01*
X130593246Y-106210000D01*
X130135169Y-106210000D01*
X130092469Y-106197047D01*
X129997000Y-106187644D01*
X126797000Y-106187644D01*
X126701531Y-106197047D01*
X126609732Y-106224894D01*
X126525128Y-106270115D01*
X126450973Y-106330973D01*
X126390115Y-106405128D01*
X126344894Y-106489732D01*
X126317047Y-106581531D01*
X126307644Y-106677000D01*
X119337848Y-106677000D01*
X119421834Y-106551307D01*
X119522620Y-106307988D01*
X119574000Y-106049683D01*
X119574000Y-105786317D01*
X119522620Y-105528012D01*
X119421834Y-105284693D01*
X119275516Y-105065712D01*
X119089288Y-104879484D01*
X118870307Y-104733166D01*
X118664698Y-104648000D01*
X118870307Y-104562834D01*
X119016726Y-104465000D01*
X136153606Y-104465000D01*
X136207000Y-104470259D01*
X136260394Y-104465000D01*
X136260397Y-104465000D01*
X136420089Y-104449272D01*
X136624989Y-104387116D01*
X136813827Y-104286180D01*
X136979344Y-104150344D01*
X137013389Y-104108861D01*
X137800250Y-103322000D01*
X138709519Y-103322000D01*
X138824330Y-103383368D01*
X139057506Y-103454101D01*
X139239234Y-103472000D01*
X139993721Y-103472000D01*
X142692501Y-106170781D01*
X142692501Y-106407757D01*
X142595535Y-106487335D01*
X142505141Y-106597480D01*
X142437973Y-106723144D01*
X142396610Y-106859497D01*
X142382644Y-107001300D01*
X142382644Y-107476300D01*
X142396610Y-107618103D01*
X142437973Y-107754456D01*
X142505141Y-107880120D01*
X142595535Y-107990265D01*
X142705680Y-108080659D01*
X142831344Y-108147827D01*
X142967697Y-108189190D01*
X143109500Y-108203156D01*
X143609500Y-108203156D01*
X143751303Y-108189190D01*
X143887656Y-108147827D01*
X144013320Y-108080659D01*
X144123465Y-107990265D01*
X144213859Y-107880120D01*
X144272000Y-107771345D01*
X144330141Y-107880120D01*
X144420535Y-107990265D01*
X144517500Y-108069843D01*
X144517501Y-108810252D01*
X144407735Y-108900335D01*
X144317341Y-109010480D01*
X144250173Y-109136144D01*
X144208810Y-109272497D01*
X144194844Y-109414300D01*
X144194844Y-109889300D01*
X144208810Y-110031103D01*
X144250173Y-110167456D01*
X144317341Y-110293120D01*
X144407735Y-110403265D01*
X144517880Y-110493659D01*
X144643544Y-110560827D01*
X144779897Y-110602190D01*
X144921700Y-110616156D01*
X145496700Y-110616156D01*
X145638503Y-110602190D01*
X145774856Y-110560827D01*
X145900520Y-110493659D01*
X146010665Y-110403265D01*
X146101059Y-110293120D01*
X146168227Y-110167456D01*
X146209590Y-110031103D01*
X146223556Y-109889300D01*
X146223556Y-109414300D01*
X146209590Y-109272497D01*
X146168227Y-109136144D01*
X146101059Y-109010480D01*
X146010665Y-108900335D01*
X145900520Y-108809941D01*
X145851500Y-108783740D01*
X145851500Y-108069842D01*
X145948465Y-107990265D01*
X146038859Y-107880120D01*
X146106027Y-107754456D01*
X146147390Y-107618103D01*
X146161356Y-107476300D01*
X146161356Y-107001300D01*
X146147390Y-106859497D01*
X146106027Y-106723144D01*
X146038859Y-106597480D01*
X145948465Y-106487335D01*
X145838320Y-106396941D01*
X145712656Y-106329773D01*
X145576303Y-106288410D01*
X145434500Y-106274444D01*
X144934500Y-106274444D01*
X144792697Y-106288410D01*
X144656344Y-106329773D01*
X144530680Y-106396941D01*
X144420535Y-106487335D01*
X144330141Y-106597480D01*
X144272000Y-106706255D01*
X144213859Y-106597480D01*
X144123465Y-106487335D01*
X144026500Y-106407758D01*
X144026500Y-105927262D01*
X144029727Y-105894500D01*
X144019597Y-105791651D01*
X144016849Y-105763745D01*
X143978709Y-105638015D01*
X143967673Y-105617368D01*
X143916774Y-105522142D01*
X143854308Y-105446028D01*
X143833422Y-105420578D01*
X143807971Y-105399691D01*
X141203288Y-102795009D01*
X141248368Y-102710670D01*
X141319101Y-102477494D01*
X141342985Y-102235000D01*
X141319101Y-101992506D01*
X141248368Y-101759330D01*
X141133504Y-101544435D01*
X140978923Y-101356077D01*
X140790565Y-101201496D01*
X140575670Y-101086632D01*
X140342494Y-101015899D01*
X140160766Y-100998000D01*
X139406280Y-100998000D01*
X138643279Y-100235000D01*
X140175246Y-100235000D01*
X140208000Y-100238226D01*
X140240754Y-100235000D01*
X140240765Y-100235000D01*
X140338755Y-100225349D01*
X140464485Y-100187209D01*
X140580358Y-100125273D01*
X140681922Y-100041922D01*
X140702813Y-100016466D01*
X141545472Y-99173808D01*
X141570922Y-99152922D01*
X141624038Y-99088200D01*
X141654273Y-99051359D01*
X141716209Y-98935485D01*
X141723696Y-98910803D01*
X141754349Y-98809755D01*
X141764000Y-98711765D01*
X141764000Y-98711762D01*
X141767227Y-98679000D01*
X141764000Y-98646235D01*
X141764000Y-97107408D01*
X141785978Y-97085430D01*
X141883049Y-96940152D01*
X141949913Y-96778728D01*
X141984000Y-96607362D01*
X141984000Y-96432638D01*
X141949913Y-96261272D01*
X141893974Y-96126224D01*
X141904106Y-96107268D01*
X141931953Y-96015469D01*
X141941356Y-95920000D01*
X141941356Y-94869000D01*
X142210083Y-94869000D01*
X142333965Y-94856799D01*
X142453087Y-94820664D01*
X142562870Y-94761983D01*
X142659096Y-94683013D01*
X142738066Y-94586787D01*
X142796747Y-94477004D01*
X142832882Y-94357882D01*
X142845083Y-94234000D01*
X142845083Y-88252402D01*
X142841653Y-88186487D01*
X142816658Y-88064540D01*
X142546225Y-87191356D01*
X144233000Y-87191356D01*
X144328469Y-87181953D01*
X144420268Y-87154106D01*
X144504872Y-87108885D01*
X144579027Y-87048027D01*
X144639885Y-86973872D01*
X144685106Y-86889268D01*
X144712953Y-86797469D01*
X144722356Y-86702000D01*
X144722356Y-86447138D01*
X144738166Y-86485307D01*
X144884484Y-86704288D01*
X145070712Y-86890516D01*
X145289693Y-87036834D01*
X145533012Y-87137620D01*
X145791317Y-87189000D01*
X146054683Y-87189000D01*
X146312988Y-87137620D01*
X146556307Y-87036834D01*
X146775288Y-86890516D01*
X146961516Y-86704288D01*
X147107834Y-86485307D01*
X147208620Y-86241988D01*
X147260000Y-85983683D01*
X147260000Y-85720317D01*
X147208620Y-85462012D01*
X147107834Y-85218693D01*
X147010000Y-85072274D01*
X147010000Y-82791394D01*
X147015259Y-82738000D01*
X147003607Y-82619696D01*
X146994272Y-82524911D01*
X146932116Y-82320011D01*
X146899944Y-82259821D01*
X147062886Y-82422763D01*
X147357617Y-82619696D01*
X147685105Y-82755346D01*
X148032765Y-82824500D01*
X148387235Y-82824500D01*
X148734895Y-82755346D01*
X149062383Y-82619696D01*
X149357114Y-82422763D01*
X149607763Y-82172114D01*
X149804696Y-81877383D01*
X149940346Y-81549895D01*
X150009500Y-81202235D01*
X150009500Y-80847765D01*
X150410500Y-80847765D01*
X150410500Y-81202235D01*
X150479654Y-81549895D01*
X150615304Y-81877383D01*
X150812237Y-82172114D01*
X151062886Y-82422763D01*
X151357617Y-82619696D01*
X151685105Y-82755346D01*
X152032765Y-82824500D01*
X152387235Y-82824500D01*
X152734895Y-82755346D01*
X153062383Y-82619696D01*
X153357114Y-82422763D01*
X153607763Y-82172114D01*
X153804696Y-81877383D01*
X153940346Y-81549895D01*
X154009500Y-81202235D01*
X154009500Y-80847765D01*
X154410500Y-80847765D01*
X154410500Y-81202235D01*
X154479654Y-81549895D01*
X154615304Y-81877383D01*
X154812237Y-82172114D01*
X155062886Y-82422763D01*
X155357617Y-82619696D01*
X155685105Y-82755346D01*
X156032765Y-82824500D01*
X156387235Y-82824500D01*
X156734895Y-82755346D01*
X157062383Y-82619696D01*
X157357114Y-82422763D01*
X157607763Y-82172114D01*
X157804696Y-81877383D01*
X157940346Y-81549895D01*
X158009500Y-81202235D01*
X158009500Y-80847765D01*
X157940346Y-80500105D01*
X157804696Y-80172617D01*
X157607763Y-79877886D01*
X157357114Y-79627237D01*
X157062383Y-79430304D01*
X156734895Y-79294654D01*
X156387235Y-79225500D01*
X156032765Y-79225500D01*
X155685105Y-79294654D01*
X155357617Y-79430304D01*
X155062886Y-79627237D01*
X154812237Y-79877886D01*
X154615304Y-80172617D01*
X154479654Y-80500105D01*
X154410500Y-80847765D01*
X154009500Y-80847765D01*
X153940346Y-80500105D01*
X153804696Y-80172617D01*
X153607763Y-79877886D01*
X153357114Y-79627237D01*
X153062383Y-79430304D01*
X152734895Y-79294654D01*
X152387235Y-79225500D01*
X152032765Y-79225500D01*
X151685105Y-79294654D01*
X151357617Y-79430304D01*
X151062886Y-79627237D01*
X150812237Y-79877886D01*
X150615304Y-80172617D01*
X150479654Y-80500105D01*
X150410500Y-80847765D01*
X150009500Y-80847765D01*
X149940346Y-80500105D01*
X149804696Y-80172617D01*
X149607763Y-79877886D01*
X149357114Y-79627237D01*
X149062383Y-79430304D01*
X148734895Y-79294654D01*
X148387235Y-79225500D01*
X148032765Y-79225500D01*
X147685105Y-79294654D01*
X147357617Y-79430304D01*
X147062886Y-79627237D01*
X146812237Y-79877886D01*
X146615304Y-80172617D01*
X146479654Y-80500105D01*
X146410500Y-80847765D01*
X146410500Y-81202235D01*
X146479654Y-81549895D01*
X146615304Y-81877383D01*
X146646860Y-81924610D01*
X145995395Y-81273145D01*
X146009500Y-81202235D01*
X146009500Y-80847765D01*
X145940346Y-80500105D01*
X145804696Y-80172617D01*
X145607763Y-79877886D01*
X145357114Y-79627237D01*
X145062383Y-79430304D01*
X144734895Y-79294654D01*
X144387235Y-79225500D01*
X144032765Y-79225500D01*
X143961854Y-79239605D01*
X143297000Y-78574751D01*
X143297000Y-78462930D01*
X143357114Y-78422763D01*
X143607763Y-78172114D01*
X143804696Y-77877383D01*
X143940346Y-77549895D01*
X144009500Y-77202235D01*
X144009500Y-76847765D01*
X144410500Y-76847765D01*
X144410500Y-77202235D01*
X144479654Y-77549895D01*
X144615304Y-77877383D01*
X144812237Y-78172114D01*
X145062886Y-78422763D01*
X145357617Y-78619696D01*
X145685105Y-78755346D01*
X146032765Y-78824500D01*
X146387235Y-78824500D01*
X146734895Y-78755346D01*
X147062383Y-78619696D01*
X147357114Y-78422763D01*
X147607763Y-78172114D01*
X147804696Y-77877383D01*
X147940346Y-77549895D01*
X148009500Y-77202235D01*
X148009500Y-76847765D01*
X148410500Y-76847765D01*
X148410500Y-77202235D01*
X148479654Y-77549895D01*
X148615304Y-77877383D01*
X148812237Y-78172114D01*
X149062886Y-78422763D01*
X149357617Y-78619696D01*
X149685105Y-78755346D01*
X150032765Y-78824500D01*
X150387235Y-78824500D01*
X150734895Y-78755346D01*
X151062383Y-78619696D01*
X151357114Y-78422763D01*
X151607763Y-78172114D01*
X151804696Y-77877383D01*
X151940346Y-77549895D01*
X152009500Y-77202235D01*
X152009500Y-76847765D01*
X152410500Y-76847765D01*
X152410500Y-77202235D01*
X152479654Y-77549895D01*
X152615304Y-77877383D01*
X152812237Y-78172114D01*
X153062886Y-78422763D01*
X153357617Y-78619696D01*
X153685105Y-78755346D01*
X154032765Y-78824500D01*
X154387235Y-78824500D01*
X154734895Y-78755346D01*
X155062383Y-78619696D01*
X155357114Y-78422763D01*
X155607763Y-78172114D01*
X155804696Y-77877383D01*
X155940346Y-77549895D01*
X155982756Y-77336684D01*
X160798000Y-77336684D01*
X160798000Y-77713316D01*
X160871477Y-78082710D01*
X161015608Y-78430671D01*
X161224853Y-78743829D01*
X161491171Y-79010147D01*
X161804329Y-79219392D01*
X162152290Y-79363523D01*
X162521684Y-79437000D01*
X162898316Y-79437000D01*
X163267710Y-79363523D01*
X163615671Y-79219392D01*
X163928829Y-79010147D01*
X164195147Y-78743829D01*
X164404392Y-78430671D01*
X164548523Y-78082710D01*
X164622000Y-77713316D01*
X164622000Y-77336684D01*
X164548523Y-76967290D01*
X164404392Y-76619329D01*
X164195147Y-76306171D01*
X163928829Y-76039853D01*
X163615671Y-75830608D01*
X163267710Y-75686477D01*
X162898316Y-75613000D01*
X162521684Y-75613000D01*
X162152290Y-75686477D01*
X161804329Y-75830608D01*
X161491171Y-76039853D01*
X161224853Y-76306171D01*
X161015608Y-76619329D01*
X160871477Y-76967290D01*
X160798000Y-77336684D01*
X155982756Y-77336684D01*
X156009500Y-77202235D01*
X156009500Y-76847765D01*
X155940346Y-76500105D01*
X155804696Y-76172617D01*
X155607763Y-75877886D01*
X155357114Y-75627237D01*
X155062383Y-75430304D01*
X154734895Y-75294654D01*
X154387235Y-75225500D01*
X154032765Y-75225500D01*
X153685105Y-75294654D01*
X153357617Y-75430304D01*
X153062886Y-75627237D01*
X152812237Y-75877886D01*
X152615304Y-76172617D01*
X152479654Y-76500105D01*
X152410500Y-76847765D01*
X152009500Y-76847765D01*
X151940346Y-76500105D01*
X151804696Y-76172617D01*
X151607763Y-75877886D01*
X151357114Y-75627237D01*
X151062383Y-75430304D01*
X150734895Y-75294654D01*
X150387235Y-75225500D01*
X150032765Y-75225500D01*
X149685105Y-75294654D01*
X149357617Y-75430304D01*
X149062886Y-75627237D01*
X148812237Y-75877886D01*
X148615304Y-76172617D01*
X148479654Y-76500105D01*
X148410500Y-76847765D01*
X148009500Y-76847765D01*
X147940346Y-76500105D01*
X147804696Y-76172617D01*
X147607763Y-75877886D01*
X147357114Y-75627237D01*
X147062383Y-75430304D01*
X146734895Y-75294654D01*
X146387235Y-75225500D01*
X146032765Y-75225500D01*
X145685105Y-75294654D01*
X145357617Y-75430304D01*
X145062886Y-75627237D01*
X144812237Y-75877886D01*
X144615304Y-76172617D01*
X144479654Y-76500105D01*
X144410500Y-76847765D01*
X144009500Y-76847765D01*
X143940346Y-76500105D01*
X143804696Y-76172617D01*
X143607763Y-75877886D01*
X143357114Y-75627237D01*
X143062383Y-75430304D01*
X142734895Y-75294654D01*
X142387235Y-75225500D01*
X142032765Y-75225500D01*
X141685105Y-75294654D01*
X141357617Y-75430304D01*
X141062886Y-75627237D01*
X140812237Y-75877886D01*
X140615304Y-76172617D01*
X140479654Y-76500105D01*
X140410500Y-76847765D01*
X140410500Y-77202235D01*
X140479654Y-77549895D01*
X140615304Y-77877383D01*
X140812237Y-78172114D01*
X141062886Y-78422763D01*
X141123001Y-78462930D01*
X141123001Y-78971597D01*
X141117741Y-79025000D01*
X141138729Y-79238088D01*
X141200885Y-79442989D01*
X141267284Y-79567215D01*
X141062383Y-79430304D01*
X140734895Y-79294654D01*
X140387235Y-79225500D01*
X140032765Y-79225500D01*
X139961854Y-79239605D01*
X139888912Y-79166663D01*
X139785400Y-78894943D01*
X139719983Y-78768213D01*
X139641013Y-78671987D01*
X139544787Y-78593017D01*
X139435004Y-78534336D01*
X139315882Y-78498201D01*
X139297000Y-78496341D01*
X139297000Y-78462930D01*
X139357114Y-78422763D01*
X139607763Y-78172114D01*
X139804696Y-77877383D01*
X139940346Y-77549895D01*
X140009500Y-77202235D01*
X140009500Y-76847765D01*
X139940346Y-76500105D01*
X139804696Y-76172617D01*
X139607763Y-75877886D01*
X139357114Y-75627237D01*
X139062383Y-75430304D01*
X138734895Y-75294654D01*
X138387235Y-75225500D01*
X138032765Y-75225500D01*
X137685105Y-75294654D01*
X137357617Y-75430304D01*
X137062886Y-75627237D01*
X136812237Y-75877886D01*
X136615304Y-76172617D01*
X136479654Y-76500105D01*
X136410500Y-76847765D01*
X136410500Y-77202235D01*
X136479654Y-77549895D01*
X136615304Y-77877383D01*
X136812237Y-78172114D01*
X137062886Y-78422763D01*
X137123001Y-78462930D01*
X137123001Y-78486000D01*
X135262473Y-78486000D01*
X135357114Y-78422763D01*
X135607763Y-78172114D01*
X135804696Y-77877383D01*
X135940346Y-77549895D01*
X136009500Y-77202235D01*
X136009500Y-76847765D01*
X135940346Y-76500105D01*
X135804696Y-76172617D01*
X135607763Y-75877886D01*
X135357114Y-75627237D01*
X135062383Y-75430304D01*
X134734895Y-75294654D01*
X134387235Y-75225500D01*
X134032765Y-75225500D01*
X133685105Y-75294654D01*
X133357617Y-75430304D01*
X133062886Y-75627237D01*
X132812237Y-75877886D01*
X132615304Y-76172617D01*
X132479654Y-76500105D01*
X132410500Y-76847765D01*
X132410500Y-77202235D01*
X132479654Y-77549895D01*
X132615304Y-77877383D01*
X132767393Y-78105000D01*
X131652607Y-78105000D01*
X131804696Y-77877383D01*
X131940346Y-77549895D01*
X132009500Y-77202235D01*
X132009500Y-76847765D01*
X131940346Y-76500105D01*
X131804696Y-76172617D01*
X131607763Y-75877886D01*
X131357114Y-75627237D01*
X131062383Y-75430304D01*
X130734895Y-75294654D01*
X130387235Y-75225500D01*
X130032765Y-75225500D01*
X129685105Y-75294654D01*
X129357617Y-75430304D01*
X129062886Y-75627237D01*
X128812237Y-75877886D01*
X128615304Y-76172617D01*
X128479654Y-76500105D01*
X128410500Y-76847765D01*
X128410500Y-77202235D01*
X128479654Y-77549895D01*
X128615304Y-77877383D01*
X128812237Y-78172114D01*
X129062886Y-78422763D01*
X129307312Y-78586083D01*
X129298201Y-78616118D01*
X129286000Y-78740000D01*
X129286000Y-79579720D01*
X129062383Y-79430304D01*
X128734895Y-79294654D01*
X128387235Y-79225500D01*
X128032765Y-79225500D01*
X127685105Y-79294654D01*
X127357617Y-79430304D01*
X127062886Y-79627237D01*
X126812237Y-79877886D01*
X126615304Y-80172617D01*
X126479654Y-80500105D01*
X126410500Y-80847765D01*
X126410500Y-81202235D01*
X126479654Y-81549895D01*
X126615304Y-81877383D01*
X126812237Y-82172114D01*
X127062886Y-82422763D01*
X127357617Y-82619696D01*
X127685105Y-82755346D01*
X128032765Y-82824500D01*
X128387235Y-82824500D01*
X128734895Y-82755346D01*
X129062383Y-82619696D01*
X129286000Y-82470280D01*
X129286000Y-91204427D01*
X129275872Y-91196115D01*
X129191268Y-91150894D01*
X129099469Y-91123047D01*
X129004000Y-91113644D01*
X127854000Y-91113644D01*
X127758531Y-91123047D01*
X127666732Y-91150894D01*
X127660921Y-91154000D01*
X126434042Y-91154000D01*
X126354465Y-91057035D01*
X126244320Y-90966641D01*
X126118656Y-90899473D01*
X125982303Y-90858110D01*
X125840500Y-90844144D01*
X125365500Y-90844144D01*
X125223697Y-90858110D01*
X125087344Y-90899473D01*
X124961680Y-90966641D01*
X124851535Y-91057035D01*
X124786065Y-91136811D01*
X122100787Y-88451534D01*
X122079896Y-88426078D01*
X121978332Y-88342727D01*
X121862459Y-88280791D01*
X121736729Y-88242651D01*
X121638739Y-88233000D01*
X121638728Y-88233000D01*
X121605974Y-88229774D01*
X121573220Y-88233000D01*
X113062762Y-88233000D01*
X113030000Y-88229773D01*
X112997238Y-88233000D01*
X112997235Y-88233000D01*
X112899245Y-88242651D01*
X112773515Y-88280791D01*
X112657642Y-88342727D01*
X112556078Y-88426078D01*
X112535191Y-88451529D01*
X112272000Y-88714720D01*
X112272000Y-77336684D01*
X119798000Y-77336684D01*
X119798000Y-77713316D01*
X119871477Y-78082710D01*
X120015608Y-78430671D01*
X120224853Y-78743829D01*
X120491171Y-79010147D01*
X120804329Y-79219392D01*
X121152290Y-79363523D01*
X121521684Y-79437000D01*
X121898316Y-79437000D01*
X122267710Y-79363523D01*
X122615671Y-79219392D01*
X122928829Y-79010147D01*
X123195147Y-78743829D01*
X123404392Y-78430671D01*
X123548523Y-78082710D01*
X123622000Y-77713316D01*
X123622000Y-77336684D01*
X123548523Y-76967290D01*
X123404392Y-76619329D01*
X123195147Y-76306171D01*
X122928829Y-76039853D01*
X122615671Y-75830608D01*
X122267710Y-75686477D01*
X121898316Y-75613000D01*
X121521684Y-75613000D01*
X121152290Y-75686477D01*
X120804329Y-75830608D01*
X120491171Y-76039853D01*
X120224853Y-76306171D01*
X120015608Y-76619329D01*
X119871477Y-76967290D01*
X119798000Y-77336684D01*
X112272000Y-77336684D01*
X112272000Y-72847765D01*
X126410500Y-72847765D01*
X126410500Y-73202235D01*
X126479654Y-73549895D01*
X126615304Y-73877383D01*
X126812237Y-74172114D01*
X127062886Y-74422763D01*
X127357617Y-74619696D01*
X127685105Y-74755346D01*
X128032765Y-74824500D01*
X128387235Y-74824500D01*
X128734895Y-74755346D01*
X129062383Y-74619696D01*
X129357114Y-74422763D01*
X129607763Y-74172114D01*
X129804696Y-73877383D01*
X129940346Y-73549895D01*
X130009500Y-73202235D01*
X130009500Y-72847765D01*
X130410500Y-72847765D01*
X130410500Y-73202235D01*
X130479654Y-73549895D01*
X130615304Y-73877383D01*
X130812237Y-74172114D01*
X131062886Y-74422763D01*
X131357617Y-74619696D01*
X131685105Y-74755346D01*
X132032765Y-74824500D01*
X132387235Y-74824500D01*
X132734895Y-74755346D01*
X133062383Y-74619696D01*
X133357114Y-74422763D01*
X133607763Y-74172114D01*
X133804696Y-73877383D01*
X133940346Y-73549895D01*
X134009500Y-73202235D01*
X134009500Y-72847765D01*
X134410500Y-72847765D01*
X134410500Y-73202235D01*
X134479654Y-73549895D01*
X134615304Y-73877383D01*
X134812237Y-74172114D01*
X135062886Y-74422763D01*
X135357617Y-74619696D01*
X135685105Y-74755346D01*
X136032765Y-74824500D01*
X136387235Y-74824500D01*
X136734895Y-74755346D01*
X137062383Y-74619696D01*
X137357114Y-74422763D01*
X137607763Y-74172114D01*
X137804696Y-73877383D01*
X137940346Y-73549895D01*
X138009500Y-73202235D01*
X138009500Y-72847765D01*
X138410500Y-72847765D01*
X138410500Y-73202235D01*
X138479654Y-73549895D01*
X138615304Y-73877383D01*
X138812237Y-74172114D01*
X139062886Y-74422763D01*
X139357617Y-74619696D01*
X139685105Y-74755346D01*
X140032765Y-74824500D01*
X140387235Y-74824500D01*
X140734895Y-74755346D01*
X141062383Y-74619696D01*
X141357114Y-74422763D01*
X141607763Y-74172114D01*
X141804696Y-73877383D01*
X141940346Y-73549895D01*
X142009500Y-73202235D01*
X142009500Y-72847765D01*
X142410500Y-72847765D01*
X142410500Y-73202235D01*
X142479654Y-73549895D01*
X142615304Y-73877383D01*
X142812237Y-74172114D01*
X143062886Y-74422763D01*
X143357617Y-74619696D01*
X143685105Y-74755346D01*
X144032765Y-74824500D01*
X144387235Y-74824500D01*
X144734895Y-74755346D01*
X145062383Y-74619696D01*
X145357114Y-74422763D01*
X145607763Y-74172114D01*
X145804696Y-73877383D01*
X145940346Y-73549895D01*
X146009500Y-73202235D01*
X146009500Y-72847765D01*
X145940346Y-72500105D01*
X145804696Y-72172617D01*
X145607763Y-71877886D01*
X145357114Y-71627237D01*
X145062383Y-71430304D01*
X144734895Y-71294654D01*
X144387235Y-71225500D01*
X144032765Y-71225500D01*
X143685105Y-71294654D01*
X143357617Y-71430304D01*
X143062886Y-71627237D01*
X142812237Y-71877886D01*
X142615304Y-72172617D01*
X142479654Y-72500105D01*
X142410500Y-72847765D01*
X142009500Y-72847765D01*
X141940346Y-72500105D01*
X141804696Y-72172617D01*
X141607763Y-71877886D01*
X141357114Y-71627237D01*
X141062383Y-71430304D01*
X140734895Y-71294654D01*
X140387235Y-71225500D01*
X140032765Y-71225500D01*
X139685105Y-71294654D01*
X139357617Y-71430304D01*
X139062886Y-71627237D01*
X138812237Y-71877886D01*
X138615304Y-72172617D01*
X138479654Y-72500105D01*
X138410500Y-72847765D01*
X138009500Y-72847765D01*
X137940346Y-72500105D01*
X137804696Y-72172617D01*
X137607763Y-71877886D01*
X137357114Y-71627237D01*
X137062383Y-71430304D01*
X136734895Y-71294654D01*
X136387235Y-71225500D01*
X136032765Y-71225500D01*
X135685105Y-71294654D01*
X135357617Y-71430304D01*
X135062886Y-71627237D01*
X134812237Y-71877886D01*
X134615304Y-72172617D01*
X134479654Y-72500105D01*
X134410500Y-72847765D01*
X134009500Y-72847765D01*
X133940346Y-72500105D01*
X133804696Y-72172617D01*
X133607763Y-71877886D01*
X133357114Y-71627237D01*
X133062383Y-71430304D01*
X132734895Y-71294654D01*
X132387235Y-71225500D01*
X132032765Y-71225500D01*
X131685105Y-71294654D01*
X131357617Y-71430304D01*
X131062886Y-71627237D01*
X130812237Y-71877886D01*
X130615304Y-72172617D01*
X130479654Y-72500105D01*
X130410500Y-72847765D01*
X130009500Y-72847765D01*
X129940346Y-72500105D01*
X129804696Y-72172617D01*
X129607763Y-71877886D01*
X129357114Y-71627237D01*
X129062383Y-71430304D01*
X128734895Y-71294654D01*
X128387235Y-71225500D01*
X128032765Y-71225500D01*
X127685105Y-71294654D01*
X127357617Y-71430304D01*
X127062886Y-71627237D01*
X126812237Y-71877886D01*
X126615304Y-72172617D01*
X126479654Y-72500105D01*
X126410500Y-72847765D01*
X112272000Y-72847765D01*
X112272000Y-70997000D01*
X172208001Y-70997000D01*
X172208000Y-92406010D01*
%TA.AperFunction,Conductor*%
D30*
G36*
X172208000Y-92406010D02*
G01*
X172086739Y-92324985D01*
X171861619Y-92231738D01*
X171622634Y-92184200D01*
X171378966Y-92184200D01*
X171139981Y-92231738D01*
X170914861Y-92324985D01*
X170712259Y-92460360D01*
X170539960Y-92632659D01*
X170405294Y-92834200D01*
X164830383Y-92834200D01*
X164833951Y-92825586D01*
X164922800Y-92378912D01*
X164922800Y-91923488D01*
X164833951Y-91476814D01*
X164659668Y-91056057D01*
X164406648Y-90677386D01*
X164084614Y-90355352D01*
X163705943Y-90102332D01*
X163285186Y-89928049D01*
X162838512Y-89839200D01*
X162383088Y-89839200D01*
X161936414Y-89928049D01*
X161515657Y-90102332D01*
X161136986Y-90355352D01*
X160814952Y-90677386D01*
X160561932Y-91056057D01*
X160387649Y-91476814D01*
X160298800Y-91923488D01*
X160298800Y-92378912D01*
X160387649Y-92825586D01*
X160391217Y-92834200D01*
X157855637Y-92834200D01*
X157841772Y-92829994D01*
X157755534Y-92821500D01*
X157726700Y-92818660D01*
X157697866Y-92821500D01*
X155318083Y-92821500D01*
X155321651Y-92812886D01*
X155410500Y-92366212D01*
X155410500Y-91910788D01*
X155321651Y-91464114D01*
X155147368Y-91043357D01*
X154894348Y-90664686D01*
X154572314Y-90342652D01*
X154193643Y-90089632D01*
X153772886Y-89915349D01*
X153326212Y-89826500D01*
X152870788Y-89826500D01*
X152424114Y-89915349D01*
X152003357Y-90089632D01*
X151624686Y-90342652D01*
X151302652Y-90664686D01*
X151049632Y-91043357D01*
X150875349Y-91464114D01*
X150786500Y-91910788D01*
X150786500Y-92366212D01*
X150875349Y-92812886D01*
X150878917Y-92821500D01*
X145304006Y-92821500D01*
X145169340Y-92619959D01*
X144997041Y-92447660D01*
X144794439Y-92312285D01*
X144569319Y-92219038D01*
X144330334Y-92171500D01*
X144086666Y-92171500D01*
X143847681Y-92219038D01*
X143622561Y-92312285D01*
X143419959Y-92447660D01*
X143247660Y-92619959D01*
X143112285Y-92822561D01*
X143019038Y-93047681D01*
X142971500Y-93286666D01*
X142971500Y-93530334D01*
X143019038Y-93769319D01*
X143112285Y-93994439D01*
X143247660Y-94197041D01*
X143419959Y-94369340D01*
X143622561Y-94504715D01*
X143847681Y-94597962D01*
X144086666Y-94645500D01*
X144330334Y-94645500D01*
X144569319Y-94597962D01*
X144794439Y-94504715D01*
X144997041Y-94369340D01*
X145169340Y-94197041D01*
X145304006Y-93995500D01*
X145717139Y-93995500D01*
X145652285Y-94092561D01*
X145559038Y-94317681D01*
X145511500Y-94556666D01*
X145511500Y-94800334D01*
X145559038Y-95039319D01*
X145652285Y-95264439D01*
X145717139Y-95361500D01*
X145304006Y-95361500D01*
X145169340Y-95159959D01*
X144997041Y-94987660D01*
X144794439Y-94852285D01*
X144569319Y-94759038D01*
X144330334Y-94711500D01*
X144086666Y-94711500D01*
X143847681Y-94759038D01*
X143622561Y-94852285D01*
X143419959Y-94987660D01*
X143247660Y-95159959D01*
X143112285Y-95362561D01*
X143019038Y-95587681D01*
X142971500Y-95826666D01*
X142971500Y-96070334D01*
X143019038Y-96309319D01*
X143112285Y-96534439D01*
X143247660Y-96737041D01*
X143419959Y-96909340D01*
X143622561Y-97044715D01*
X143847681Y-97137962D01*
X144086666Y-97185500D01*
X144330334Y-97185500D01*
X144569319Y-97137962D01*
X144794439Y-97044715D01*
X144997041Y-96909340D01*
X145169340Y-96737041D01*
X145304006Y-96535500D01*
X145717139Y-96535500D01*
X145652285Y-96632561D01*
X145559038Y-96857681D01*
X145511500Y-97096666D01*
X145511500Y-97340334D01*
X145559038Y-97579319D01*
X145652285Y-97804439D01*
X145717139Y-97901500D01*
X145304006Y-97901500D01*
X145169340Y-97699959D01*
X144997041Y-97527660D01*
X144794439Y-97392285D01*
X144569319Y-97299038D01*
X144330334Y-97251500D01*
X144086666Y-97251500D01*
X143847681Y-97299038D01*
X143622561Y-97392285D01*
X143419959Y-97527660D01*
X143247660Y-97699959D01*
X143112285Y-97902561D01*
X143019038Y-98127681D01*
X142971500Y-98366666D01*
X142971500Y-98610334D01*
X143019038Y-98849319D01*
X143112285Y-99074439D01*
X143247660Y-99277041D01*
X143419959Y-99449340D01*
X143622561Y-99584715D01*
X143847681Y-99677962D01*
X144086666Y-99725500D01*
X144330334Y-99725500D01*
X144569319Y-99677962D01*
X144794439Y-99584715D01*
X144997041Y-99449340D01*
X145169340Y-99277041D01*
X145304006Y-99075500D01*
X145717139Y-99075500D01*
X145652285Y-99172561D01*
X145559038Y-99397681D01*
X145511500Y-99636666D01*
X145511500Y-99880334D01*
X145559038Y-100119319D01*
X145652285Y-100344439D01*
X145717139Y-100441500D01*
X145304006Y-100441500D01*
X145169340Y-100239959D01*
X144997041Y-100067660D01*
X144794439Y-99932285D01*
X144569319Y-99839038D01*
X144330334Y-99791500D01*
X144086666Y-99791500D01*
X143847681Y-99839038D01*
X143622561Y-99932285D01*
X143419959Y-100067660D01*
X143247660Y-100239959D01*
X143112285Y-100442561D01*
X143019038Y-100667681D01*
X142971500Y-100906666D01*
X142971500Y-101150334D01*
X143019038Y-101389319D01*
X143112285Y-101614439D01*
X143247660Y-101817041D01*
X143419959Y-101989340D01*
X143622561Y-102124715D01*
X143847681Y-102217962D01*
X144086666Y-102265500D01*
X144330334Y-102265500D01*
X144569319Y-102217962D01*
X144794439Y-102124715D01*
X144997041Y-101989340D01*
X145169340Y-101817041D01*
X145304006Y-101615500D01*
X145509144Y-101615500D01*
X145509144Y-103048500D01*
X145518547Y-103143969D01*
X145546394Y-103235768D01*
X145591615Y-103320372D01*
X145652473Y-103394527D01*
X145726628Y-103455385D01*
X145811232Y-103500606D01*
X145903031Y-103528453D01*
X145998500Y-103537856D01*
X147498500Y-103537856D01*
X147593969Y-103528453D01*
X147685768Y-103500606D01*
X147770372Y-103455385D01*
X147844527Y-103394527D01*
X147905385Y-103320372D01*
X147950606Y-103235768D01*
X147978453Y-103143969D01*
X147987856Y-103048500D01*
X147987856Y-102065500D01*
X151331838Y-102065500D01*
X151302652Y-102094686D01*
X151049632Y-102473357D01*
X150875349Y-102894114D01*
X150786500Y-103340788D01*
X150786500Y-103796212D01*
X150875349Y-104242886D01*
X151049632Y-104663643D01*
X151302652Y-105042314D01*
X151624686Y-105364348D01*
X152003357Y-105617368D01*
X152424114Y-105791651D01*
X152870788Y-105880500D01*
X153326212Y-105880500D01*
X153772886Y-105791651D01*
X154193643Y-105617368D01*
X154572314Y-105364348D01*
X154894348Y-105042314D01*
X155147368Y-104663643D01*
X155321651Y-104242886D01*
X155410500Y-103796212D01*
X155410500Y-103340788D01*
X155326749Y-102919744D01*
X155339602Y-102927820D01*
X155369650Y-102949780D01*
X155414617Y-102970663D01*
X155458983Y-102992801D01*
X155494886Y-103002601D01*
X155519442Y-103011194D01*
X155553620Y-103025916D01*
X155602113Y-103036271D01*
X155650288Y-103047980D01*
X155687466Y-103049546D01*
X155713331Y-103052460D01*
X155749928Y-103059207D01*
X155799500Y-103058512D01*
X155849073Y-103059207D01*
X155885672Y-103052460D01*
X155911533Y-103049546D01*
X155948711Y-103047980D01*
X155996886Y-103036271D01*
X156045379Y-103025916D01*
X156079559Y-103011193D01*
X156104112Y-103002602D01*
X156140016Y-102992801D01*
X156184382Y-102970663D01*
X156229349Y-102949780D01*
X156259397Y-102927820D01*
X156281425Y-102913979D01*
X156314243Y-102896437D01*
X156352560Y-102864991D01*
X156391765Y-102834615D01*
X156399500Y-102825712D01*
X156407234Y-102834615D01*
X156446429Y-102864983D01*
X156484756Y-102896437D01*
X156517572Y-102913978D01*
X156539602Y-102927820D01*
X156569650Y-102949780D01*
X156614617Y-102970663D01*
X156658983Y-102992801D01*
X156694886Y-103002601D01*
X156719442Y-103011194D01*
X156753620Y-103025916D01*
X156802113Y-103036271D01*
X156850288Y-103047980D01*
X156887466Y-103049546D01*
X156913331Y-103052460D01*
X156949928Y-103059207D01*
X156999500Y-103058512D01*
X157049073Y-103059207D01*
X157085672Y-103052460D01*
X157111533Y-103049546D01*
X157148711Y-103047980D01*
X157196886Y-103036271D01*
X157245379Y-103025916D01*
X157279559Y-103011193D01*
X157304112Y-103002602D01*
X157340016Y-102992801D01*
X157384382Y-102970663D01*
X157429349Y-102949780D01*
X157459397Y-102927820D01*
X157481425Y-102913979D01*
X157514243Y-102896437D01*
X157552560Y-102864991D01*
X157591765Y-102834615D01*
X157616171Y-102806522D01*
X157634568Y-102788124D01*
X157662660Y-102763720D01*
X157693028Y-102724525D01*
X157724482Y-102686198D01*
X157742023Y-102653382D01*
X157755865Y-102631352D01*
X157777825Y-102601304D01*
X157798708Y-102556337D01*
X157820846Y-102511971D01*
X157830646Y-102476068D01*
X157839240Y-102451510D01*
X157853961Y-102417334D01*
X157864318Y-102368837D01*
X157876025Y-102320666D01*
X157877375Y-102288607D01*
X157878006Y-102286527D01*
X157883267Y-102233113D01*
X157886037Y-102208530D01*
X157886095Y-102204402D01*
X157886500Y-102200289D01*
X157886500Y-102175511D01*
X157887252Y-102121883D01*
X157886500Y-102117804D01*
X157886500Y-102065500D01*
X157972500Y-102065500D01*
X157972500Y-102130496D01*
X157971748Y-102134574D01*
X157972500Y-102188202D01*
X157972500Y-102212989D01*
X157972905Y-102217104D01*
X157972963Y-102221220D01*
X157975728Y-102245763D01*
X157980994Y-102299227D01*
X157981624Y-102301303D01*
X157982974Y-102333366D01*
X157994681Y-102381536D01*
X158005035Y-102430026D01*
X158019760Y-102464212D01*
X158028352Y-102488767D01*
X158038153Y-102524671D01*
X158060291Y-102569037D01*
X158081174Y-102614004D01*
X158103134Y-102644052D01*
X158116975Y-102666080D01*
X158134517Y-102698898D01*
X158165963Y-102737215D01*
X158196339Y-102776420D01*
X158224432Y-102800826D01*
X158242830Y-102819223D01*
X158267234Y-102847315D01*
X158306429Y-102877683D01*
X158344756Y-102909137D01*
X158377572Y-102926678D01*
X158399602Y-102940520D01*
X158429650Y-102962480D01*
X158474617Y-102983363D01*
X158518983Y-103005501D01*
X158554886Y-103015301D01*
X158579442Y-103023894D01*
X158613620Y-103038616D01*
X158662113Y-103048971D01*
X158710288Y-103060680D01*
X158747466Y-103062246D01*
X158773331Y-103065160D01*
X158809928Y-103071907D01*
X158859500Y-103071212D01*
X158909073Y-103071907D01*
X158945672Y-103065160D01*
X158971533Y-103062246D01*
X159008711Y-103060680D01*
X159056886Y-103048971D01*
X159105379Y-103038616D01*
X159139559Y-103023893D01*
X159164112Y-103015302D01*
X159200016Y-103005501D01*
X159244382Y-102983363D01*
X159289349Y-102962480D01*
X159319397Y-102940520D01*
X159341425Y-102926679D01*
X159374243Y-102909137D01*
X159412560Y-102877691D01*
X159451765Y-102847315D01*
X159476171Y-102819222D01*
X159494568Y-102800824D01*
X159522660Y-102776420D01*
X159553028Y-102737225D01*
X159584482Y-102698898D01*
X159602023Y-102666082D01*
X159615865Y-102644052D01*
X159637825Y-102614004D01*
X159658708Y-102569037D01*
X159680846Y-102524671D01*
X159690646Y-102488768D01*
X159699240Y-102464210D01*
X159713961Y-102430034D01*
X159724318Y-102381537D01*
X159736025Y-102333366D01*
X159737375Y-102301307D01*
X159738006Y-102299227D01*
X159743267Y-102245813D01*
X159746037Y-102221230D01*
X159746095Y-102217102D01*
X159746500Y-102212989D01*
X159746500Y-102188211D01*
X159747252Y-102134583D01*
X159746500Y-102130504D01*
X159746500Y-102078200D01*
X160844138Y-102078200D01*
X160814952Y-102107386D01*
X160561932Y-102486057D01*
X160387649Y-102906814D01*
X160298800Y-103353488D01*
X160298800Y-103808912D01*
X160387649Y-104255586D01*
X160561932Y-104676343D01*
X160814952Y-105055014D01*
X161136986Y-105377048D01*
X161515657Y-105630068D01*
X161936414Y-105804351D01*
X162383088Y-105893200D01*
X162838512Y-105893200D01*
X163285186Y-105804351D01*
X163705943Y-105630068D01*
X164084614Y-105377048D01*
X164406648Y-105055014D01*
X164659668Y-104676343D01*
X164833951Y-104255586D01*
X164922800Y-103808912D01*
X164922800Y-103353488D01*
X164833951Y-102906814D01*
X164659668Y-102486057D01*
X164406648Y-102107386D01*
X164377462Y-102078200D01*
X167721444Y-102078200D01*
X167721444Y-103061200D01*
X167730847Y-103156669D01*
X167758694Y-103248468D01*
X167803915Y-103333072D01*
X167864773Y-103407227D01*
X167938928Y-103468085D01*
X168023532Y-103513306D01*
X168115331Y-103541153D01*
X168210800Y-103550556D01*
X169710800Y-103550556D01*
X169806269Y-103541153D01*
X169898068Y-103513306D01*
X169982672Y-103468085D01*
X170056827Y-103407227D01*
X170117685Y-103333072D01*
X170162906Y-103248468D01*
X170190753Y-103156669D01*
X170200156Y-103061200D01*
X170200156Y-101628200D01*
X170405294Y-101628200D01*
X170539960Y-101829741D01*
X170712259Y-102002040D01*
X170914861Y-102137415D01*
X171139981Y-102230662D01*
X171378966Y-102278200D01*
X171622634Y-102278200D01*
X171861619Y-102230662D01*
X172086739Y-102137415D01*
X172208000Y-102056390D01*
X172208000Y-111248000D01*
X112272000Y-111248000D01*
X112272000Y-105256681D01*
X114611794Y-107596477D01*
X114632677Y-107621923D01*
X114642349Y-107629860D01*
X114512166Y-107824693D01*
X114411380Y-108068012D01*
X114360000Y-108326317D01*
X114360000Y-108589683D01*
X114411380Y-108847988D01*
X114512166Y-109091307D01*
X114658484Y-109310288D01*
X114844712Y-109496516D01*
X115063693Y-109642834D01*
X115307012Y-109743620D01*
X115565317Y-109795000D01*
X115828683Y-109795000D01*
X116086988Y-109743620D01*
X116330307Y-109642834D01*
X116549288Y-109496516D01*
X116735516Y-109310288D01*
X116881834Y-109091307D01*
X116982620Y-108847988D01*
X117034000Y-108589683D01*
X117034000Y-108326317D01*
X116982620Y-108068012D01*
X116881834Y-107824693D01*
X116875358Y-107815001D01*
X116974245Y-107815001D01*
X117006999Y-107818227D01*
X117039753Y-107815001D01*
X117039764Y-107815001D01*
X117137754Y-107805350D01*
X117263484Y-107767210D01*
X117379357Y-107705274D01*
X117480921Y-107621923D01*
X117501812Y-107596467D01*
X117886754Y-107211525D01*
X118105317Y-107255000D01*
X118368683Y-107255000D01*
X118626988Y-107203620D01*
X118870307Y-107102834D01*
X119089288Y-106956516D01*
X119275516Y-106770288D01*
X119337848Y-106677000D01*
X126307644Y-106677000D01*
X126307644Y-107077000D01*
X126317047Y-107172469D01*
X126344894Y-107264268D01*
X126390115Y-107348872D01*
X126450973Y-107423027D01*
X126525128Y-107483885D01*
X126609732Y-107529106D01*
X126701531Y-107556953D01*
X126797000Y-107566356D01*
X129997000Y-107566356D01*
X130092469Y-107556953D01*
X130135169Y-107544000D01*
X130205174Y-107544000D01*
X130211087Y-107573728D01*
X130277951Y-107735152D01*
X130375022Y-107880430D01*
X130444592Y-107950000D01*
X130375022Y-108019570D01*
X130277951Y-108164848D01*
X130211087Y-108326272D01*
X130177000Y-108497638D01*
X130177000Y-108528721D01*
X130104902Y-108600819D01*
X130092469Y-108597047D01*
X129997000Y-108587644D01*
X126797000Y-108587644D01*
X126701531Y-108597047D01*
X126609732Y-108624894D01*
X126525128Y-108670115D01*
X126450973Y-108730973D01*
X126390115Y-108805128D01*
X126344894Y-108889732D01*
X126317047Y-108981531D01*
X126307644Y-109077000D01*
X126307644Y-109477000D01*
X126317047Y-109572469D01*
X126344894Y-109664268D01*
X126390115Y-109748872D01*
X126450973Y-109823027D01*
X126525128Y-109883885D01*
X126609732Y-109929106D01*
X126701531Y-109956953D01*
X126797000Y-109966356D01*
X129997000Y-109966356D01*
X130092469Y-109956953D01*
X130135169Y-109944000D01*
X130339246Y-109944000D01*
X130372000Y-109947226D01*
X130404754Y-109944000D01*
X130404765Y-109944000D01*
X130502755Y-109934349D01*
X130628485Y-109896209D01*
X130744358Y-109834273D01*
X130845922Y-109750922D01*
X130866813Y-109725466D01*
X131120279Y-109472000D01*
X131151362Y-109472000D01*
X131322728Y-109437913D01*
X131484152Y-109371049D01*
X131629430Y-109273978D01*
X131752978Y-109150430D01*
X131850049Y-109005152D01*
X131916913Y-108843728D01*
X131951000Y-108672362D01*
X131951000Y-108497638D01*
X131916913Y-108326272D01*
X131850049Y-108164848D01*
X131752978Y-108019570D01*
X131683408Y-107950000D01*
X131752978Y-107880430D01*
X131850049Y-107735152D01*
X131916913Y-107573728D01*
X131951000Y-107402362D01*
X131951000Y-107227638D01*
X131916913Y-107056272D01*
X131850049Y-106894848D01*
X131752978Y-106749570D01*
X131629430Y-106626022D01*
X131538104Y-106565000D01*
X138060644Y-106565000D01*
X138060644Y-108065000D01*
X138070047Y-108160469D01*
X138097894Y-108252268D01*
X138143115Y-108336872D01*
X138203973Y-108411027D01*
X138278128Y-108471885D01*
X138362732Y-108517106D01*
X138454531Y-108544953D01*
X138550000Y-108554356D01*
X140850000Y-108554356D01*
X140945469Y-108544953D01*
X141037268Y-108517106D01*
X141121872Y-108471885D01*
X141196027Y-108411027D01*
X141256885Y-108336872D01*
X141302106Y-108252268D01*
X141329953Y-108160469D01*
X141339356Y-108065000D01*
X141339356Y-106565000D01*
X141329953Y-106469531D01*
X141302106Y-106377732D01*
X141256885Y-106293128D01*
X141196027Y-106218973D01*
X141121872Y-106158115D01*
X141037268Y-106112894D01*
X140945469Y-106085047D01*
X140850000Y-106075644D01*
X138550000Y-106075644D01*
X138454531Y-106085047D01*
X138362732Y-106112894D01*
X138278128Y-106158115D01*
X138203973Y-106218973D01*
X138143115Y-106293128D01*
X138097894Y-106377732D01*
X138070047Y-106469531D01*
X138060644Y-106565000D01*
X131538104Y-106565000D01*
X131484152Y-106528951D01*
X131322728Y-106462087D01*
X131151362Y-106428000D01*
X131120375Y-106428000D01*
X131099922Y-106403078D01*
X130998358Y-106319727D01*
X130882485Y-106257791D01*
X130756755Y-106219651D01*
X130658765Y-106210000D01*
X130658754Y-106210000D01*
X130626000Y-106206774D01*
X130593246Y-106210000D01*
X130135169Y-106210000D01*
X130092469Y-106197047D01*
X129997000Y-106187644D01*
X126797000Y-106187644D01*
X126701531Y-106197047D01*
X126609732Y-106224894D01*
X126525128Y-106270115D01*
X126450973Y-106330973D01*
X126390115Y-106405128D01*
X126344894Y-106489732D01*
X126317047Y-106581531D01*
X126307644Y-106677000D01*
X119337848Y-106677000D01*
X119421834Y-106551307D01*
X119522620Y-106307988D01*
X119574000Y-106049683D01*
X119574000Y-105786317D01*
X119522620Y-105528012D01*
X119421834Y-105284693D01*
X119275516Y-105065712D01*
X119089288Y-104879484D01*
X118870307Y-104733166D01*
X118664698Y-104648000D01*
X118870307Y-104562834D01*
X119016726Y-104465000D01*
X136153606Y-104465000D01*
X136207000Y-104470259D01*
X136260394Y-104465000D01*
X136260397Y-104465000D01*
X136420089Y-104449272D01*
X136624989Y-104387116D01*
X136813827Y-104286180D01*
X136979344Y-104150344D01*
X137013389Y-104108861D01*
X137800250Y-103322000D01*
X138709519Y-103322000D01*
X138824330Y-103383368D01*
X139057506Y-103454101D01*
X139239234Y-103472000D01*
X139993721Y-103472000D01*
X142692501Y-106170781D01*
X142692501Y-106407757D01*
X142595535Y-106487335D01*
X142505141Y-106597480D01*
X142437973Y-106723144D01*
X142396610Y-106859497D01*
X142382644Y-107001300D01*
X142382644Y-107476300D01*
X142396610Y-107618103D01*
X142437973Y-107754456D01*
X142505141Y-107880120D01*
X142595535Y-107990265D01*
X142705680Y-108080659D01*
X142831344Y-108147827D01*
X142967697Y-108189190D01*
X143109500Y-108203156D01*
X143609500Y-108203156D01*
X143751303Y-108189190D01*
X143887656Y-108147827D01*
X144013320Y-108080659D01*
X144123465Y-107990265D01*
X144213859Y-107880120D01*
X144272000Y-107771345D01*
X144330141Y-107880120D01*
X144420535Y-107990265D01*
X144517500Y-108069843D01*
X144517501Y-108810252D01*
X144407735Y-108900335D01*
X144317341Y-109010480D01*
X144250173Y-109136144D01*
X144208810Y-109272497D01*
X144194844Y-109414300D01*
X144194844Y-109889300D01*
X144208810Y-110031103D01*
X144250173Y-110167456D01*
X144317341Y-110293120D01*
X144407735Y-110403265D01*
X144517880Y-110493659D01*
X144643544Y-110560827D01*
X144779897Y-110602190D01*
X144921700Y-110616156D01*
X145496700Y-110616156D01*
X145638503Y-110602190D01*
X145774856Y-110560827D01*
X145900520Y-110493659D01*
X146010665Y-110403265D01*
X146101059Y-110293120D01*
X146168227Y-110167456D01*
X146209590Y-110031103D01*
X146223556Y-109889300D01*
X146223556Y-109414300D01*
X146209590Y-109272497D01*
X146168227Y-109136144D01*
X146101059Y-109010480D01*
X146010665Y-108900335D01*
X145900520Y-108809941D01*
X145851500Y-108783740D01*
X145851500Y-108069842D01*
X145948465Y-107990265D01*
X146038859Y-107880120D01*
X146106027Y-107754456D01*
X146147390Y-107618103D01*
X146161356Y-107476300D01*
X146161356Y-107001300D01*
X146147390Y-106859497D01*
X146106027Y-106723144D01*
X146038859Y-106597480D01*
X145948465Y-106487335D01*
X145838320Y-106396941D01*
X145712656Y-106329773D01*
X145576303Y-106288410D01*
X145434500Y-106274444D01*
X144934500Y-106274444D01*
X144792697Y-106288410D01*
X144656344Y-106329773D01*
X144530680Y-106396941D01*
X144420535Y-106487335D01*
X144330141Y-106597480D01*
X144272000Y-106706255D01*
X144213859Y-106597480D01*
X144123465Y-106487335D01*
X144026500Y-106407758D01*
X144026500Y-105927262D01*
X144029727Y-105894500D01*
X144019597Y-105791651D01*
X144016849Y-105763745D01*
X143978709Y-105638015D01*
X143967673Y-105617368D01*
X143916774Y-105522142D01*
X143854308Y-105446028D01*
X143833422Y-105420578D01*
X143807971Y-105399691D01*
X141203288Y-102795009D01*
X141248368Y-102710670D01*
X141319101Y-102477494D01*
X141342985Y-102235000D01*
X141319101Y-101992506D01*
X141248368Y-101759330D01*
X141133504Y-101544435D01*
X140978923Y-101356077D01*
X140790565Y-101201496D01*
X140575670Y-101086632D01*
X140342494Y-101015899D01*
X140160766Y-100998000D01*
X139406280Y-100998000D01*
X138643279Y-100235000D01*
X140175246Y-100235000D01*
X140208000Y-100238226D01*
X140240754Y-100235000D01*
X140240765Y-100235000D01*
X140338755Y-100225349D01*
X140464485Y-100187209D01*
X140580358Y-100125273D01*
X140681922Y-100041922D01*
X140702813Y-100016466D01*
X141545472Y-99173808D01*
X141570922Y-99152922D01*
X141624038Y-99088200D01*
X141654273Y-99051359D01*
X141716209Y-98935485D01*
X141723696Y-98910803D01*
X141754349Y-98809755D01*
X141764000Y-98711765D01*
X141764000Y-98711762D01*
X141767227Y-98679000D01*
X141764000Y-98646235D01*
X141764000Y-97107408D01*
X141785978Y-97085430D01*
X141883049Y-96940152D01*
X141949913Y-96778728D01*
X141984000Y-96607362D01*
X141984000Y-96432638D01*
X141949913Y-96261272D01*
X141893974Y-96126224D01*
X141904106Y-96107268D01*
X141931953Y-96015469D01*
X141941356Y-95920000D01*
X141941356Y-94869000D01*
X142210083Y-94869000D01*
X142333965Y-94856799D01*
X142453087Y-94820664D01*
X142562870Y-94761983D01*
X142659096Y-94683013D01*
X142738066Y-94586787D01*
X142796747Y-94477004D01*
X142832882Y-94357882D01*
X142845083Y-94234000D01*
X142845083Y-88252402D01*
X142841653Y-88186487D01*
X142816658Y-88064540D01*
X142546225Y-87191356D01*
X144233000Y-87191356D01*
X144328469Y-87181953D01*
X144420268Y-87154106D01*
X144504872Y-87108885D01*
X144579027Y-87048027D01*
X144639885Y-86973872D01*
X144685106Y-86889268D01*
X144712953Y-86797469D01*
X144722356Y-86702000D01*
X144722356Y-86447138D01*
X144738166Y-86485307D01*
X144884484Y-86704288D01*
X145070712Y-86890516D01*
X145289693Y-87036834D01*
X145533012Y-87137620D01*
X145791317Y-87189000D01*
X146054683Y-87189000D01*
X146312988Y-87137620D01*
X146556307Y-87036834D01*
X146775288Y-86890516D01*
X146961516Y-86704288D01*
X147107834Y-86485307D01*
X147208620Y-86241988D01*
X147260000Y-85983683D01*
X147260000Y-85720317D01*
X147208620Y-85462012D01*
X147107834Y-85218693D01*
X147010000Y-85072274D01*
X147010000Y-82791394D01*
X147015259Y-82738000D01*
X147003607Y-82619696D01*
X146994272Y-82524911D01*
X146932116Y-82320011D01*
X146899944Y-82259821D01*
X147062886Y-82422763D01*
X147357617Y-82619696D01*
X147685105Y-82755346D01*
X148032765Y-82824500D01*
X148387235Y-82824500D01*
X148734895Y-82755346D01*
X149062383Y-82619696D01*
X149357114Y-82422763D01*
X149607763Y-82172114D01*
X149804696Y-81877383D01*
X149940346Y-81549895D01*
X150009500Y-81202235D01*
X150009500Y-80847765D01*
X150410500Y-80847765D01*
X150410500Y-81202235D01*
X150479654Y-81549895D01*
X150615304Y-81877383D01*
X150812237Y-82172114D01*
X151062886Y-82422763D01*
X151357617Y-82619696D01*
X151685105Y-82755346D01*
X152032765Y-82824500D01*
X152387235Y-82824500D01*
X152734895Y-82755346D01*
X153062383Y-82619696D01*
X153357114Y-82422763D01*
X153607763Y-82172114D01*
X153804696Y-81877383D01*
X153940346Y-81549895D01*
X154009500Y-81202235D01*
X154009500Y-80847765D01*
X154410500Y-80847765D01*
X154410500Y-81202235D01*
X154479654Y-81549895D01*
X154615304Y-81877383D01*
X154812237Y-82172114D01*
X155062886Y-82422763D01*
X155357617Y-82619696D01*
X155685105Y-82755346D01*
X156032765Y-82824500D01*
X156387235Y-82824500D01*
X156734895Y-82755346D01*
X157062383Y-82619696D01*
X157357114Y-82422763D01*
X157607763Y-82172114D01*
X157804696Y-81877383D01*
X157940346Y-81549895D01*
X158009500Y-81202235D01*
X158009500Y-80847765D01*
X157940346Y-80500105D01*
X157804696Y-80172617D01*
X157607763Y-79877886D01*
X157357114Y-79627237D01*
X157062383Y-79430304D01*
X156734895Y-79294654D01*
X156387235Y-79225500D01*
X156032765Y-79225500D01*
X155685105Y-79294654D01*
X155357617Y-79430304D01*
X155062886Y-79627237D01*
X154812237Y-79877886D01*
X154615304Y-80172617D01*
X154479654Y-80500105D01*
X154410500Y-80847765D01*
X154009500Y-80847765D01*
X153940346Y-80500105D01*
X153804696Y-80172617D01*
X153607763Y-79877886D01*
X153357114Y-79627237D01*
X153062383Y-79430304D01*
X152734895Y-79294654D01*
X152387235Y-79225500D01*
X152032765Y-79225500D01*
X151685105Y-79294654D01*
X151357617Y-79430304D01*
X151062886Y-79627237D01*
X150812237Y-79877886D01*
X150615304Y-80172617D01*
X150479654Y-80500105D01*
X150410500Y-80847765D01*
X150009500Y-80847765D01*
X149940346Y-80500105D01*
X149804696Y-80172617D01*
X149607763Y-79877886D01*
X149357114Y-79627237D01*
X149062383Y-79430304D01*
X148734895Y-79294654D01*
X148387235Y-79225500D01*
X148032765Y-79225500D01*
X147685105Y-79294654D01*
X147357617Y-79430304D01*
X147062886Y-79627237D01*
X146812237Y-79877886D01*
X146615304Y-80172617D01*
X146479654Y-80500105D01*
X146410500Y-80847765D01*
X146410500Y-81202235D01*
X146479654Y-81549895D01*
X146615304Y-81877383D01*
X146646860Y-81924610D01*
X145995395Y-81273145D01*
X146009500Y-81202235D01*
X146009500Y-80847765D01*
X145940346Y-80500105D01*
X145804696Y-80172617D01*
X145607763Y-79877886D01*
X145357114Y-79627237D01*
X145062383Y-79430304D01*
X144734895Y-79294654D01*
X144387235Y-79225500D01*
X144032765Y-79225500D01*
X143961854Y-79239605D01*
X143297000Y-78574751D01*
X143297000Y-78462930D01*
X143357114Y-78422763D01*
X143607763Y-78172114D01*
X143804696Y-77877383D01*
X143940346Y-77549895D01*
X144009500Y-77202235D01*
X144009500Y-76847765D01*
X144410500Y-76847765D01*
X144410500Y-77202235D01*
X144479654Y-77549895D01*
X144615304Y-77877383D01*
X144812237Y-78172114D01*
X145062886Y-78422763D01*
X145357617Y-78619696D01*
X145685105Y-78755346D01*
X146032765Y-78824500D01*
X146387235Y-78824500D01*
X146734895Y-78755346D01*
X147062383Y-78619696D01*
X147357114Y-78422763D01*
X147607763Y-78172114D01*
X147804696Y-77877383D01*
X147940346Y-77549895D01*
X148009500Y-77202235D01*
X148009500Y-76847765D01*
X148410500Y-76847765D01*
X148410500Y-77202235D01*
X148479654Y-77549895D01*
X148615304Y-77877383D01*
X148812237Y-78172114D01*
X149062886Y-78422763D01*
X149357617Y-78619696D01*
X149685105Y-78755346D01*
X150032765Y-78824500D01*
X150387235Y-78824500D01*
X150734895Y-78755346D01*
X151062383Y-78619696D01*
X151357114Y-78422763D01*
X151607763Y-78172114D01*
X151804696Y-77877383D01*
X151940346Y-77549895D01*
X152009500Y-77202235D01*
X152009500Y-76847765D01*
X152410500Y-76847765D01*
X152410500Y-77202235D01*
X152479654Y-77549895D01*
X152615304Y-77877383D01*
X152812237Y-78172114D01*
X153062886Y-78422763D01*
X153357617Y-78619696D01*
X153685105Y-78755346D01*
X154032765Y-78824500D01*
X154387235Y-78824500D01*
X154734895Y-78755346D01*
X155062383Y-78619696D01*
X155357114Y-78422763D01*
X155607763Y-78172114D01*
X155804696Y-77877383D01*
X155940346Y-77549895D01*
X155982756Y-77336684D01*
X160798000Y-77336684D01*
X160798000Y-77713316D01*
X160871477Y-78082710D01*
X161015608Y-78430671D01*
X161224853Y-78743829D01*
X161491171Y-79010147D01*
X161804329Y-79219392D01*
X162152290Y-79363523D01*
X162521684Y-79437000D01*
X162898316Y-79437000D01*
X163267710Y-79363523D01*
X163615671Y-79219392D01*
X163928829Y-79010147D01*
X164195147Y-78743829D01*
X164404392Y-78430671D01*
X164548523Y-78082710D01*
X164622000Y-77713316D01*
X164622000Y-77336684D01*
X164548523Y-76967290D01*
X164404392Y-76619329D01*
X164195147Y-76306171D01*
X163928829Y-76039853D01*
X163615671Y-75830608D01*
X163267710Y-75686477D01*
X162898316Y-75613000D01*
X162521684Y-75613000D01*
X162152290Y-75686477D01*
X161804329Y-75830608D01*
X161491171Y-76039853D01*
X161224853Y-76306171D01*
X161015608Y-76619329D01*
X160871477Y-76967290D01*
X160798000Y-77336684D01*
X155982756Y-77336684D01*
X156009500Y-77202235D01*
X156009500Y-76847765D01*
X155940346Y-76500105D01*
X155804696Y-76172617D01*
X155607763Y-75877886D01*
X155357114Y-75627237D01*
X155062383Y-75430304D01*
X154734895Y-75294654D01*
X154387235Y-75225500D01*
X154032765Y-75225500D01*
X153685105Y-75294654D01*
X153357617Y-75430304D01*
X153062886Y-75627237D01*
X152812237Y-75877886D01*
X152615304Y-76172617D01*
X152479654Y-76500105D01*
X152410500Y-76847765D01*
X152009500Y-76847765D01*
X151940346Y-76500105D01*
X151804696Y-76172617D01*
X151607763Y-75877886D01*
X151357114Y-75627237D01*
X151062383Y-75430304D01*
X150734895Y-75294654D01*
X150387235Y-75225500D01*
X150032765Y-75225500D01*
X149685105Y-75294654D01*
X149357617Y-75430304D01*
X149062886Y-75627237D01*
X148812237Y-75877886D01*
X148615304Y-76172617D01*
X148479654Y-76500105D01*
X148410500Y-76847765D01*
X148009500Y-76847765D01*
X147940346Y-76500105D01*
X147804696Y-76172617D01*
X147607763Y-75877886D01*
X147357114Y-75627237D01*
X147062383Y-75430304D01*
X146734895Y-75294654D01*
X146387235Y-75225500D01*
X146032765Y-75225500D01*
X145685105Y-75294654D01*
X145357617Y-75430304D01*
X145062886Y-75627237D01*
X144812237Y-75877886D01*
X144615304Y-76172617D01*
X144479654Y-76500105D01*
X144410500Y-76847765D01*
X144009500Y-76847765D01*
X143940346Y-76500105D01*
X143804696Y-76172617D01*
X143607763Y-75877886D01*
X143357114Y-75627237D01*
X143062383Y-75430304D01*
X142734895Y-75294654D01*
X142387235Y-75225500D01*
X142032765Y-75225500D01*
X141685105Y-75294654D01*
X141357617Y-75430304D01*
X141062886Y-75627237D01*
X140812237Y-75877886D01*
X140615304Y-76172617D01*
X140479654Y-76500105D01*
X140410500Y-76847765D01*
X140410500Y-77202235D01*
X140479654Y-77549895D01*
X140615304Y-77877383D01*
X140812237Y-78172114D01*
X141062886Y-78422763D01*
X141123001Y-78462930D01*
X141123001Y-78971597D01*
X141117741Y-79025000D01*
X141138729Y-79238088D01*
X141200885Y-79442989D01*
X141267284Y-79567215D01*
X141062383Y-79430304D01*
X140734895Y-79294654D01*
X140387235Y-79225500D01*
X140032765Y-79225500D01*
X139961854Y-79239605D01*
X139888912Y-79166663D01*
X139785400Y-78894943D01*
X139719983Y-78768213D01*
X139641013Y-78671987D01*
X139544787Y-78593017D01*
X139435004Y-78534336D01*
X139315882Y-78498201D01*
X139297000Y-78496341D01*
X139297000Y-78462930D01*
X139357114Y-78422763D01*
X139607763Y-78172114D01*
X139804696Y-77877383D01*
X139940346Y-77549895D01*
X140009500Y-77202235D01*
X140009500Y-76847765D01*
X139940346Y-76500105D01*
X139804696Y-76172617D01*
X139607763Y-75877886D01*
X139357114Y-75627237D01*
X139062383Y-75430304D01*
X138734895Y-75294654D01*
X138387235Y-75225500D01*
X138032765Y-75225500D01*
X137685105Y-75294654D01*
X137357617Y-75430304D01*
X137062886Y-75627237D01*
X136812237Y-75877886D01*
X136615304Y-76172617D01*
X136479654Y-76500105D01*
X136410500Y-76847765D01*
X136410500Y-77202235D01*
X136479654Y-77549895D01*
X136615304Y-77877383D01*
X136812237Y-78172114D01*
X137062886Y-78422763D01*
X137123001Y-78462930D01*
X137123001Y-78486000D01*
X135262473Y-78486000D01*
X135357114Y-78422763D01*
X135607763Y-78172114D01*
X135804696Y-77877383D01*
X135940346Y-77549895D01*
X136009500Y-77202235D01*
X136009500Y-76847765D01*
X135940346Y-76500105D01*
X135804696Y-76172617D01*
X135607763Y-75877886D01*
X135357114Y-75627237D01*
X135062383Y-75430304D01*
X134734895Y-75294654D01*
X134387235Y-75225500D01*
X134032765Y-75225500D01*
X133685105Y-75294654D01*
X133357617Y-75430304D01*
X133062886Y-75627237D01*
X132812237Y-75877886D01*
X132615304Y-76172617D01*
X132479654Y-76500105D01*
X132410500Y-76847765D01*
X132410500Y-77202235D01*
X132479654Y-77549895D01*
X132615304Y-77877383D01*
X132767393Y-78105000D01*
X131652607Y-78105000D01*
X131804696Y-77877383D01*
X131940346Y-77549895D01*
X132009500Y-77202235D01*
X132009500Y-76847765D01*
X131940346Y-76500105D01*
X131804696Y-76172617D01*
X131607763Y-75877886D01*
X131357114Y-75627237D01*
X131062383Y-75430304D01*
X130734895Y-75294654D01*
X130387235Y-75225500D01*
X130032765Y-75225500D01*
X129685105Y-75294654D01*
X129357617Y-75430304D01*
X129062886Y-75627237D01*
X128812237Y-75877886D01*
X128615304Y-76172617D01*
X128479654Y-76500105D01*
X128410500Y-76847765D01*
X128410500Y-77202235D01*
X128479654Y-77549895D01*
X128615304Y-77877383D01*
X128812237Y-78172114D01*
X129062886Y-78422763D01*
X129307312Y-78586083D01*
X129298201Y-78616118D01*
X129286000Y-78740000D01*
X129286000Y-79579720D01*
X129062383Y-79430304D01*
X128734895Y-79294654D01*
X128387235Y-79225500D01*
X128032765Y-79225500D01*
X127685105Y-79294654D01*
X127357617Y-79430304D01*
X127062886Y-79627237D01*
X126812237Y-79877886D01*
X126615304Y-80172617D01*
X126479654Y-80500105D01*
X126410500Y-80847765D01*
X126410500Y-81202235D01*
X126479654Y-81549895D01*
X126615304Y-81877383D01*
X126812237Y-82172114D01*
X127062886Y-82422763D01*
X127357617Y-82619696D01*
X127685105Y-82755346D01*
X128032765Y-82824500D01*
X128387235Y-82824500D01*
X128734895Y-82755346D01*
X129062383Y-82619696D01*
X129286000Y-82470280D01*
X129286000Y-91204427D01*
X129275872Y-91196115D01*
X129191268Y-91150894D01*
X129099469Y-91123047D01*
X129004000Y-91113644D01*
X127854000Y-91113644D01*
X127758531Y-91123047D01*
X127666732Y-91150894D01*
X127660921Y-91154000D01*
X126434042Y-91154000D01*
X126354465Y-91057035D01*
X126244320Y-90966641D01*
X126118656Y-90899473D01*
X125982303Y-90858110D01*
X125840500Y-90844144D01*
X125365500Y-90844144D01*
X125223697Y-90858110D01*
X125087344Y-90899473D01*
X124961680Y-90966641D01*
X124851535Y-91057035D01*
X124786065Y-91136811D01*
X122100787Y-88451534D01*
X122079896Y-88426078D01*
X121978332Y-88342727D01*
X121862459Y-88280791D01*
X121736729Y-88242651D01*
X121638739Y-88233000D01*
X121638728Y-88233000D01*
X121605974Y-88229774D01*
X121573220Y-88233000D01*
X113062762Y-88233000D01*
X113030000Y-88229773D01*
X112997238Y-88233000D01*
X112997235Y-88233000D01*
X112899245Y-88242651D01*
X112773515Y-88280791D01*
X112657642Y-88342727D01*
X112556078Y-88426078D01*
X112535191Y-88451529D01*
X112272000Y-88714720D01*
X112272000Y-77336684D01*
X119798000Y-77336684D01*
X119798000Y-77713316D01*
X119871477Y-78082710D01*
X120015608Y-78430671D01*
X120224853Y-78743829D01*
X120491171Y-79010147D01*
X120804329Y-79219392D01*
X121152290Y-79363523D01*
X121521684Y-79437000D01*
X121898316Y-79437000D01*
X122267710Y-79363523D01*
X122615671Y-79219392D01*
X122928829Y-79010147D01*
X123195147Y-78743829D01*
X123404392Y-78430671D01*
X123548523Y-78082710D01*
X123622000Y-77713316D01*
X123622000Y-77336684D01*
X123548523Y-76967290D01*
X123404392Y-76619329D01*
X123195147Y-76306171D01*
X122928829Y-76039853D01*
X122615671Y-75830608D01*
X122267710Y-75686477D01*
X121898316Y-75613000D01*
X121521684Y-75613000D01*
X121152290Y-75686477D01*
X120804329Y-75830608D01*
X120491171Y-76039853D01*
X120224853Y-76306171D01*
X120015608Y-76619329D01*
X119871477Y-76967290D01*
X119798000Y-77336684D01*
X112272000Y-77336684D01*
X112272000Y-72847765D01*
X126410500Y-72847765D01*
X126410500Y-73202235D01*
X126479654Y-73549895D01*
X126615304Y-73877383D01*
X126812237Y-74172114D01*
X127062886Y-74422763D01*
X127357617Y-74619696D01*
X127685105Y-74755346D01*
X128032765Y-74824500D01*
X128387235Y-74824500D01*
X128734895Y-74755346D01*
X129062383Y-74619696D01*
X129357114Y-74422763D01*
X129607763Y-74172114D01*
X129804696Y-73877383D01*
X129940346Y-73549895D01*
X130009500Y-73202235D01*
X130009500Y-72847765D01*
X130410500Y-72847765D01*
X130410500Y-73202235D01*
X130479654Y-73549895D01*
X130615304Y-73877383D01*
X130812237Y-74172114D01*
X131062886Y-74422763D01*
X131357617Y-74619696D01*
X131685105Y-74755346D01*
X132032765Y-74824500D01*
X132387235Y-74824500D01*
X132734895Y-74755346D01*
X133062383Y-74619696D01*
X133357114Y-74422763D01*
X133607763Y-74172114D01*
X133804696Y-73877383D01*
X133940346Y-73549895D01*
X134009500Y-73202235D01*
X134009500Y-72847765D01*
X134410500Y-72847765D01*
X134410500Y-73202235D01*
X134479654Y-73549895D01*
X134615304Y-73877383D01*
X134812237Y-74172114D01*
X135062886Y-74422763D01*
X135357617Y-74619696D01*
X135685105Y-74755346D01*
X136032765Y-74824500D01*
X136387235Y-74824500D01*
X136734895Y-74755346D01*
X137062383Y-74619696D01*
X137357114Y-74422763D01*
X137607763Y-74172114D01*
X137804696Y-73877383D01*
X137940346Y-73549895D01*
X138009500Y-73202235D01*
X138009500Y-72847765D01*
X138410500Y-72847765D01*
X138410500Y-73202235D01*
X138479654Y-73549895D01*
X138615304Y-73877383D01*
X138812237Y-74172114D01*
X139062886Y-74422763D01*
X139357617Y-74619696D01*
X139685105Y-74755346D01*
X140032765Y-74824500D01*
X140387235Y-74824500D01*
X140734895Y-74755346D01*
X141062383Y-74619696D01*
X141357114Y-74422763D01*
X141607763Y-74172114D01*
X141804696Y-73877383D01*
X141940346Y-73549895D01*
X142009500Y-73202235D01*
X142009500Y-72847765D01*
X142410500Y-72847765D01*
X142410500Y-73202235D01*
X142479654Y-73549895D01*
X142615304Y-73877383D01*
X142812237Y-74172114D01*
X143062886Y-74422763D01*
X143357617Y-74619696D01*
X143685105Y-74755346D01*
X144032765Y-74824500D01*
X144387235Y-74824500D01*
X144734895Y-74755346D01*
X145062383Y-74619696D01*
X145357114Y-74422763D01*
X145607763Y-74172114D01*
X145804696Y-73877383D01*
X145940346Y-73549895D01*
X146009500Y-73202235D01*
X146009500Y-72847765D01*
X145940346Y-72500105D01*
X145804696Y-72172617D01*
X145607763Y-71877886D01*
X145357114Y-71627237D01*
X145062383Y-71430304D01*
X144734895Y-71294654D01*
X144387235Y-71225500D01*
X144032765Y-71225500D01*
X143685105Y-71294654D01*
X143357617Y-71430304D01*
X143062886Y-71627237D01*
X142812237Y-71877886D01*
X142615304Y-72172617D01*
X142479654Y-72500105D01*
X142410500Y-72847765D01*
X142009500Y-72847765D01*
X141940346Y-72500105D01*
X141804696Y-72172617D01*
X141607763Y-71877886D01*
X141357114Y-71627237D01*
X141062383Y-71430304D01*
X140734895Y-71294654D01*
X140387235Y-71225500D01*
X140032765Y-71225500D01*
X139685105Y-71294654D01*
X139357617Y-71430304D01*
X139062886Y-71627237D01*
X138812237Y-71877886D01*
X138615304Y-72172617D01*
X138479654Y-72500105D01*
X138410500Y-72847765D01*
X138009500Y-72847765D01*
X137940346Y-72500105D01*
X137804696Y-72172617D01*
X137607763Y-71877886D01*
X137357114Y-71627237D01*
X137062383Y-71430304D01*
X136734895Y-71294654D01*
X136387235Y-71225500D01*
X136032765Y-71225500D01*
X135685105Y-71294654D01*
X135357617Y-71430304D01*
X135062886Y-71627237D01*
X134812237Y-71877886D01*
X134615304Y-72172617D01*
X134479654Y-72500105D01*
X134410500Y-72847765D01*
X134009500Y-72847765D01*
X133940346Y-72500105D01*
X133804696Y-72172617D01*
X133607763Y-71877886D01*
X133357114Y-71627237D01*
X133062383Y-71430304D01*
X132734895Y-71294654D01*
X132387235Y-71225500D01*
X132032765Y-71225500D01*
X131685105Y-71294654D01*
X131357617Y-71430304D01*
X131062886Y-71627237D01*
X130812237Y-71877886D01*
X130615304Y-72172617D01*
X130479654Y-72500105D01*
X130410500Y-72847765D01*
X130009500Y-72847765D01*
X129940346Y-72500105D01*
X129804696Y-72172617D01*
X129607763Y-71877886D01*
X129357114Y-71627237D01*
X129062383Y-71430304D01*
X128734895Y-71294654D01*
X128387235Y-71225500D01*
X128032765Y-71225500D01*
X127685105Y-71294654D01*
X127357617Y-71430304D01*
X127062886Y-71627237D01*
X126812237Y-71877886D01*
X126615304Y-72172617D01*
X126479654Y-72500105D01*
X126410500Y-72847765D01*
X112272000Y-72847765D01*
X112272000Y-70997000D01*
X172208001Y-70997000D01*
X172208000Y-92406010D01*
G37*
%TD.AperFunction*%
D29*
X137669721Y-101148000D02*
X137403393Y-101148000D01*
X137349999Y-101142741D01*
X137296605Y-101148000D01*
X137296603Y-101148000D01*
X137136911Y-101163728D01*
X136932011Y-101225884D01*
X136844108Y-101272869D01*
X136743172Y-101326820D01*
X136663246Y-101392414D01*
X136577656Y-101462656D01*
X136543615Y-101504135D01*
X135756751Y-102291000D01*
X128306168Y-102291000D01*
X128319956Y-102151000D01*
X128319956Y-101651000D01*
X128305990Y-101509197D01*
X128264627Y-101372844D01*
X128197459Y-101247180D01*
X128107065Y-101137035D01*
X127996920Y-101046641D01*
X127888145Y-100988500D01*
X127996920Y-100930359D01*
X128107065Y-100839965D01*
X128128924Y-100813330D01*
X128139341Y-100832820D01*
X128229735Y-100942965D01*
X128339880Y-101033359D01*
X128465544Y-101100527D01*
X128601897Y-101141890D01*
X128743700Y-101155856D01*
X129218700Y-101155856D01*
X129360503Y-101141890D01*
X129496856Y-101100527D01*
X129622520Y-101033359D01*
X129732665Y-100942965D01*
X129823059Y-100832820D01*
X129842739Y-100796000D01*
X137317721Y-100796000D01*
X137669721Y-101148000D01*
%TA.AperFunction,Conductor*%
D30*
G36*
X137669721Y-101148000D02*
G01*
X137403393Y-101148000D01*
X137349999Y-101142741D01*
X137296605Y-101148000D01*
X137296603Y-101148000D01*
X137136911Y-101163728D01*
X136932011Y-101225884D01*
X136844108Y-101272869D01*
X136743172Y-101326820D01*
X136663246Y-101392414D01*
X136577656Y-101462656D01*
X136543615Y-101504135D01*
X135756751Y-102291000D01*
X128306168Y-102291000D01*
X128319956Y-102151000D01*
X128319956Y-101651000D01*
X128305990Y-101509197D01*
X128264627Y-101372844D01*
X128197459Y-101247180D01*
X128107065Y-101137035D01*
X127996920Y-101046641D01*
X127888145Y-100988500D01*
X127996920Y-100930359D01*
X128107065Y-100839965D01*
X128128924Y-100813330D01*
X128139341Y-100832820D01*
X128229735Y-100942965D01*
X128339880Y-101033359D01*
X128465544Y-101100527D01*
X128601897Y-101141890D01*
X128743700Y-101155856D01*
X129218700Y-101155856D01*
X129360503Y-101141890D01*
X129496856Y-101100527D01*
X129622520Y-101033359D01*
X129732665Y-100942965D01*
X129823059Y-100832820D01*
X129842739Y-100796000D01*
X137317721Y-100796000D01*
X137669721Y-101148000D01*
G37*
%TD.AperFunction*%
D29*
X119360115Y-89615128D02*
X119314894Y-89699732D01*
X119287047Y-89791531D01*
X119277644Y-89887000D01*
X119277644Y-91487000D01*
X119287047Y-91582469D01*
X119314894Y-91674268D01*
X119360115Y-91758872D01*
X119420973Y-91833027D01*
X119495128Y-91893885D01*
X119579732Y-91939106D01*
X119671531Y-91966953D01*
X119767000Y-91976356D01*
X120317000Y-91976356D01*
X120412469Y-91966953D01*
X120442000Y-91957995D01*
X120471531Y-91966953D01*
X120567000Y-91976356D01*
X121002644Y-91976356D01*
X121002644Y-92412000D01*
X121012047Y-92507469D01*
X121021005Y-92537000D01*
X121012047Y-92566531D01*
X121002644Y-92662000D01*
X121002644Y-93212000D01*
X121012047Y-93307469D01*
X121021005Y-93337000D01*
X121012047Y-93366531D01*
X121002644Y-93462000D01*
X121002644Y-93879513D01*
X121001245Y-93879651D01*
X120881508Y-93915973D01*
X120875515Y-93917791D01*
X120759641Y-93979727D01*
X120711228Y-94019459D01*
X120658078Y-94063078D01*
X120637191Y-94088529D01*
X119947534Y-94778187D01*
X119922078Y-94799078D01*
X119877546Y-94853341D01*
X119838727Y-94900642D01*
X119782234Y-95006333D01*
X119776791Y-95016516D01*
X119738651Y-95142246D01*
X119729000Y-95240236D01*
X119729000Y-95240246D01*
X119725774Y-95273000D01*
X119729000Y-95305754D01*
X119729000Y-95424592D01*
X119707022Y-95446570D01*
X119609951Y-95591848D01*
X119543087Y-95753272D01*
X119509000Y-95924638D01*
X119509000Y-96099362D01*
X119543087Y-96270728D01*
X119609951Y-96432152D01*
X119707022Y-96577430D01*
X119830570Y-96700978D01*
X119975848Y-96798049D01*
X120137272Y-96864913D01*
X120308638Y-96899000D01*
X120483362Y-96899000D01*
X120654728Y-96864913D01*
X120816152Y-96798049D01*
X120961430Y-96700978D01*
X121002888Y-96659520D01*
X121002644Y-96662000D01*
X121002644Y-97212000D01*
X121012047Y-97307469D01*
X121021005Y-97337000D01*
X121012047Y-97366531D01*
X121002644Y-97462000D01*
X121002644Y-97897644D01*
X120567000Y-97897644D01*
X120471531Y-97907047D01*
X120442000Y-97916005D01*
X120412469Y-97907047D01*
X120317000Y-97897644D01*
X119767000Y-97897644D01*
X119671531Y-97907047D01*
X119642000Y-97916005D01*
X119612469Y-97907047D01*
X119517000Y-97897644D01*
X118967000Y-97897644D01*
X118871531Y-97907047D01*
X118779732Y-97934894D01*
X118695128Y-97980115D01*
X118620973Y-98040973D01*
X118560115Y-98115128D01*
X118514894Y-98199732D01*
X118487047Y-98291531D01*
X118477644Y-98387000D01*
X118477644Y-99987000D01*
X118487047Y-100082469D01*
X118514894Y-100174268D01*
X118560115Y-100258872D01*
X118620973Y-100333027D01*
X118695128Y-100393885D01*
X118779732Y-100439106D01*
X118871531Y-100466953D01*
X118967000Y-100476356D01*
X119462275Y-100476356D01*
X119484727Y-100518360D01*
X119508265Y-100547041D01*
X119568078Y-100619924D01*
X119593534Y-100640815D01*
X119734529Y-100781810D01*
X117473090Y-100781810D01*
X117163095Y-100471816D01*
X117212469Y-100466953D01*
X117242000Y-100457995D01*
X117271531Y-100466953D01*
X117367000Y-100476356D01*
X117917000Y-100476356D01*
X118012469Y-100466953D01*
X118104268Y-100439106D01*
X118188872Y-100393885D01*
X118263027Y-100333027D01*
X118323885Y-100258872D01*
X118369106Y-100174268D01*
X118396953Y-100082469D01*
X118406356Y-99987000D01*
X118406356Y-98387000D01*
X118396953Y-98291531D01*
X118369106Y-98199732D01*
X118323885Y-98115128D01*
X118309000Y-98096991D01*
X118309000Y-94978280D01*
X118420280Y-94867000D01*
X118451362Y-94867000D01*
X118622728Y-94832913D01*
X118784152Y-94766049D01*
X118929430Y-94668978D01*
X119052978Y-94545430D01*
X119150049Y-94400152D01*
X119216913Y-94238728D01*
X119251000Y-94067362D01*
X119251000Y-93892638D01*
X119216913Y-93721272D01*
X119150049Y-93559848D01*
X119052978Y-93414570D01*
X118929430Y-93291022D01*
X118784152Y-93193951D01*
X118622728Y-93127087D01*
X118451362Y-93093000D01*
X118276638Y-93093000D01*
X118105272Y-93127087D01*
X117943848Y-93193951D01*
X117798570Y-93291022D01*
X117675022Y-93414570D01*
X117577951Y-93559848D01*
X117511087Y-93721272D01*
X117509000Y-93731764D01*
X117509000Y-93121000D01*
X117802246Y-93121000D01*
X117835000Y-93124226D01*
X117867754Y-93121000D01*
X117867765Y-93121000D01*
X117965755Y-93111349D01*
X118091485Y-93073209D01*
X118207358Y-93011273D01*
X118308922Y-92927922D01*
X118329813Y-92902466D01*
X118890471Y-92341809D01*
X118915922Y-92320922D01*
X118999273Y-92219358D01*
X119061209Y-92103485D01*
X119099349Y-91977755D01*
X119109000Y-91879765D01*
X119109000Y-91879762D01*
X119112227Y-91847000D01*
X119109000Y-91814238D01*
X119109000Y-91777009D01*
X119123885Y-91758872D01*
X119169106Y-91674268D01*
X119196953Y-91582469D01*
X119206356Y-91487000D01*
X119206356Y-89887000D01*
X119196953Y-89791531D01*
X119169106Y-89699732D01*
X119123885Y-89615128D01*
X119084387Y-89567000D01*
X119399613Y-89567000D01*
X119360115Y-89615128D01*
%TA.AperFunction,Conductor*%
D30*
G36*
X119360115Y-89615128D02*
G01*
X119314894Y-89699732D01*
X119287047Y-89791531D01*
X119277644Y-89887000D01*
X119277644Y-91487000D01*
X119287047Y-91582469D01*
X119314894Y-91674268D01*
X119360115Y-91758872D01*
X119420973Y-91833027D01*
X119495128Y-91893885D01*
X119579732Y-91939106D01*
X119671531Y-91966953D01*
X119767000Y-91976356D01*
X120317000Y-91976356D01*
X120412469Y-91966953D01*
X120442000Y-91957995D01*
X120471531Y-91966953D01*
X120567000Y-91976356D01*
X121002644Y-91976356D01*
X121002644Y-92412000D01*
X121012047Y-92507469D01*
X121021005Y-92537000D01*
X121012047Y-92566531D01*
X121002644Y-92662000D01*
X121002644Y-93212000D01*
X121012047Y-93307469D01*
X121021005Y-93337000D01*
X121012047Y-93366531D01*
X121002644Y-93462000D01*
X121002644Y-93879513D01*
X121001245Y-93879651D01*
X120881508Y-93915973D01*
X120875515Y-93917791D01*
X120759641Y-93979727D01*
X120711228Y-94019459D01*
X120658078Y-94063078D01*
X120637191Y-94088529D01*
X119947534Y-94778187D01*
X119922078Y-94799078D01*
X119877546Y-94853341D01*
X119838727Y-94900642D01*
X119782234Y-95006333D01*
X119776791Y-95016516D01*
X119738651Y-95142246D01*
X119729000Y-95240236D01*
X119729000Y-95240246D01*
X119725774Y-95273000D01*
X119729000Y-95305754D01*
X119729000Y-95424592D01*
X119707022Y-95446570D01*
X119609951Y-95591848D01*
X119543087Y-95753272D01*
X119509000Y-95924638D01*
X119509000Y-96099362D01*
X119543087Y-96270728D01*
X119609951Y-96432152D01*
X119707022Y-96577430D01*
X119830570Y-96700978D01*
X119975848Y-96798049D01*
X120137272Y-96864913D01*
X120308638Y-96899000D01*
X120483362Y-96899000D01*
X120654728Y-96864913D01*
X120816152Y-96798049D01*
X120961430Y-96700978D01*
X121002888Y-96659520D01*
X121002644Y-96662000D01*
X121002644Y-97212000D01*
X121012047Y-97307469D01*
X121021005Y-97337000D01*
X121012047Y-97366531D01*
X121002644Y-97462000D01*
X121002644Y-97897644D01*
X120567000Y-97897644D01*
X120471531Y-97907047D01*
X120442000Y-97916005D01*
X120412469Y-97907047D01*
X120317000Y-97897644D01*
X119767000Y-97897644D01*
X119671531Y-97907047D01*
X119642000Y-97916005D01*
X119612469Y-97907047D01*
X119517000Y-97897644D01*
X118967000Y-97897644D01*
X118871531Y-97907047D01*
X118779732Y-97934894D01*
X118695128Y-97980115D01*
X118620973Y-98040973D01*
X118560115Y-98115128D01*
X118514894Y-98199732D01*
X118487047Y-98291531D01*
X118477644Y-98387000D01*
X118477644Y-99987000D01*
X118487047Y-100082469D01*
X118514894Y-100174268D01*
X118560115Y-100258872D01*
X118620973Y-100333027D01*
X118695128Y-100393885D01*
X118779732Y-100439106D01*
X118871531Y-100466953D01*
X118967000Y-100476356D01*
X119462275Y-100476356D01*
X119484727Y-100518360D01*
X119508265Y-100547041D01*
X119568078Y-100619924D01*
X119593534Y-100640815D01*
X119734529Y-100781810D01*
X117473090Y-100781810D01*
X117163095Y-100471816D01*
X117212469Y-100466953D01*
X117242000Y-100457995D01*
X117271531Y-100466953D01*
X117367000Y-100476356D01*
X117917000Y-100476356D01*
X118012469Y-100466953D01*
X118104268Y-100439106D01*
X118188872Y-100393885D01*
X118263027Y-100333027D01*
X118323885Y-100258872D01*
X118369106Y-100174268D01*
X118396953Y-100082469D01*
X118406356Y-99987000D01*
X118406356Y-98387000D01*
X118396953Y-98291531D01*
X118369106Y-98199732D01*
X118323885Y-98115128D01*
X118309000Y-98096991D01*
X118309000Y-94978280D01*
X118420280Y-94867000D01*
X118451362Y-94867000D01*
X118622728Y-94832913D01*
X118784152Y-94766049D01*
X118929430Y-94668978D01*
X119052978Y-94545430D01*
X119150049Y-94400152D01*
X119216913Y-94238728D01*
X119251000Y-94067362D01*
X119251000Y-93892638D01*
X119216913Y-93721272D01*
X119150049Y-93559848D01*
X119052978Y-93414570D01*
X118929430Y-93291022D01*
X118784152Y-93193951D01*
X118622728Y-93127087D01*
X118451362Y-93093000D01*
X118276638Y-93093000D01*
X118105272Y-93127087D01*
X117943848Y-93193951D01*
X117798570Y-93291022D01*
X117675022Y-93414570D01*
X117577951Y-93559848D01*
X117511087Y-93721272D01*
X117509000Y-93731764D01*
X117509000Y-93121000D01*
X117802246Y-93121000D01*
X117835000Y-93124226D01*
X117867754Y-93121000D01*
X117867765Y-93121000D01*
X117965755Y-93111349D01*
X118091485Y-93073209D01*
X118207358Y-93011273D01*
X118308922Y-92927922D01*
X118329813Y-92902466D01*
X118890471Y-92341809D01*
X118915922Y-92320922D01*
X118999273Y-92219358D01*
X119061209Y-92103485D01*
X119099349Y-91977755D01*
X119109000Y-91879765D01*
X119109000Y-91879762D01*
X119112227Y-91847000D01*
X119109000Y-91814238D01*
X119109000Y-91777009D01*
X119123885Y-91758872D01*
X119169106Y-91674268D01*
X119196953Y-91582469D01*
X119206356Y-91487000D01*
X119206356Y-89887000D01*
X119196953Y-89791531D01*
X119169106Y-89699732D01*
X119123885Y-89615128D01*
X119084387Y-89567000D01*
X119399613Y-89567000D01*
X119360115Y-89615128D01*
G37*
%TD.AperFunction*%
D29*
X127401894Y-92490268D02*
X127447115Y-92574872D01*
X127507973Y-92649027D01*
X127582128Y-92709885D01*
X127666732Y-92755106D01*
X127758531Y-92782953D01*
X127854000Y-92792356D01*
X129004000Y-92792356D01*
X129099469Y-92782953D01*
X129191268Y-92755106D01*
X129275872Y-92709885D01*
X129296805Y-92692706D01*
X129298201Y-92706882D01*
X129334336Y-92826004D01*
X129393017Y-92935787D01*
X129471987Y-93032013D01*
X129568213Y-93110983D01*
X129677996Y-93169664D01*
X129797118Y-93205799D01*
X129921000Y-93218000D01*
X134874000Y-93218000D01*
X134937878Y-93211709D01*
X135002163Y-94272414D01*
X135013201Y-94357882D01*
X135049336Y-94477004D01*
X135108017Y-94586787D01*
X135186987Y-94683013D01*
X135283213Y-94761983D01*
X135392996Y-94820664D01*
X135512118Y-94856799D01*
X135636000Y-94869000D01*
X140262644Y-94869000D01*
X140262644Y-95920000D01*
X140272047Y-96015469D01*
X140299894Y-96107268D01*
X140304392Y-96115683D01*
X140244087Y-96261272D01*
X140210000Y-96432638D01*
X140210000Y-96607362D01*
X140244087Y-96778728D01*
X140310951Y-96940152D01*
X140408022Y-97085430D01*
X140430001Y-97107409D01*
X140430000Y-98402720D01*
X139931721Y-98901000D01*
X131758282Y-98901000D01*
X125655137Y-92797856D01*
X125840500Y-92797856D01*
X125982303Y-92783890D01*
X126118656Y-92742527D01*
X126244320Y-92675359D01*
X126354465Y-92584965D01*
X126434042Y-92488000D01*
X127401206Y-92488000D01*
X127401894Y-92490268D01*
%TA.AperFunction,Conductor*%
D30*
G36*
X127401894Y-92490268D02*
G01*
X127447115Y-92574872D01*
X127507973Y-92649027D01*
X127582128Y-92709885D01*
X127666732Y-92755106D01*
X127758531Y-92782953D01*
X127854000Y-92792356D01*
X129004000Y-92792356D01*
X129099469Y-92782953D01*
X129191268Y-92755106D01*
X129275872Y-92709885D01*
X129296805Y-92692706D01*
X129298201Y-92706882D01*
X129334336Y-92826004D01*
X129393017Y-92935787D01*
X129471987Y-93032013D01*
X129568213Y-93110983D01*
X129677996Y-93169664D01*
X129797118Y-93205799D01*
X129921000Y-93218000D01*
X134874000Y-93218000D01*
X134937878Y-93211709D01*
X135002163Y-94272414D01*
X135013201Y-94357882D01*
X135049336Y-94477004D01*
X135108017Y-94586787D01*
X135186987Y-94683013D01*
X135283213Y-94761983D01*
X135392996Y-94820664D01*
X135512118Y-94856799D01*
X135636000Y-94869000D01*
X140262644Y-94869000D01*
X140262644Y-95920000D01*
X140272047Y-96015469D01*
X140299894Y-96107268D01*
X140304392Y-96115683D01*
X140244087Y-96261272D01*
X140210000Y-96432638D01*
X140210000Y-96607362D01*
X140244087Y-96778728D01*
X140310951Y-96940152D01*
X140408022Y-97085430D01*
X140430001Y-97107409D01*
X140430000Y-98402720D01*
X139931721Y-98901000D01*
X131758282Y-98901000D01*
X125655137Y-92797856D01*
X125840500Y-92797856D01*
X125982303Y-92783890D01*
X126118656Y-92742527D01*
X126244320Y-92675359D01*
X126354465Y-92584965D01*
X126434042Y-92488000D01*
X127401206Y-92488000D01*
X127401894Y-92490268D01*
G37*
%TD.AperFunction*%
D29*
X117760115Y-89615128D02*
X117714894Y-89699732D01*
X117687047Y-89791531D01*
X117677644Y-89887000D01*
X117677644Y-91487000D01*
X117687047Y-91582469D01*
X117704783Y-91640937D01*
X117558721Y-91787000D01*
X117509000Y-91787000D01*
X117509000Y-91777009D01*
X117523885Y-91758872D01*
X117569106Y-91674268D01*
X117596953Y-91582469D01*
X117606356Y-91487000D01*
X117606356Y-89887000D01*
X117596953Y-89791531D01*
X117569106Y-89699732D01*
X117523885Y-89615128D01*
X117484387Y-89567000D01*
X117799613Y-89567000D01*
X117760115Y-89615128D01*
%TA.AperFunction,Conductor*%
D30*
G36*
X117760115Y-89615128D02*
G01*
X117714894Y-89699732D01*
X117687047Y-89791531D01*
X117677644Y-89887000D01*
X117677644Y-91487000D01*
X117687047Y-91582469D01*
X117704783Y-91640937D01*
X117558721Y-91787000D01*
X117509000Y-91787000D01*
X117509000Y-91777009D01*
X117523885Y-91758872D01*
X117569106Y-91674268D01*
X117596953Y-91582469D01*
X117606356Y-91487000D01*
X117606356Y-89887000D01*
X117596953Y-89791531D01*
X117569106Y-89699732D01*
X117523885Y-89615128D01*
X117484387Y-89567000D01*
X117799613Y-89567000D01*
X117760115Y-89615128D01*
G37*
%TD.AperFunction*%
%TD*%
M02*
