%TF.GenerationSoftware,KiCad,Pcbnew,5.1.7-a382d34a8~88~ubuntu18.04.1*%
%TF.CreationDate,2021-02-25T09:30:43-05:00*%
%TF.ProjectId,DaqBoard,44617142-6f61-4726-942e-6b696361645f,rev?*%
%TF.SameCoordinates,Original*%
%TF.FileFunction,Paste,Bot*%
%TF.FilePolarity,Positive*%
%FSLAX46Y46*%
G04 Gerber Fmt 4.6, Leading zero omitted, Abs format (unit mm)*
G04 Created by KiCad (PCBNEW 5.1.7-a382d34a8~88~ubuntu18.04.1) date 2021-02-25 09:30:43*
%MOMM*%
%LPD*%
G01*
G04 APERTURE LIST*
G04 APERTURE END LIST*
%TO.C,C1*%
G36*
G01*
X115459500Y-98215500D02*
X115934500Y-98215500D01*
G75*
G02*
X116172000Y-98453000I0J-237500D01*
G01*
X116172000Y-99053000D01*
G75*
G02*
X115934500Y-99290500I-237500J0D01*
G01*
X115459500Y-99290500D01*
G75*
G02*
X115222000Y-99053000I0J237500D01*
G01*
X115222000Y-98453000D01*
G75*
G02*
X115459500Y-98215500I237500J0D01*
G01*
G37*
G36*
G01*
X115459500Y-96490500D02*
X115934500Y-96490500D01*
G75*
G02*
X116172000Y-96728000I0J-237500D01*
G01*
X116172000Y-97328000D01*
G75*
G02*
X115934500Y-97565500I-237500J0D01*
G01*
X115459500Y-97565500D01*
G75*
G02*
X115222000Y-97328000I0J237500D01*
G01*
X115222000Y-96728000D01*
G75*
G02*
X115459500Y-96490500I237500J0D01*
G01*
G37*
%TD*%
%TO.C,U4*%
G36*
G01*
X134008000Y-90891000D02*
X133708000Y-90891000D01*
G75*
G02*
X133558000Y-90741000I0J150000D01*
G01*
X133558000Y-89091000D01*
G75*
G02*
X133708000Y-88941000I150000J0D01*
G01*
X134008000Y-88941000D01*
G75*
G02*
X134158000Y-89091000I0J-150000D01*
G01*
X134158000Y-90741000D01*
G75*
G02*
X134008000Y-90891000I-150000J0D01*
G01*
G37*
G36*
G01*
X132738000Y-90891000D02*
X132438000Y-90891000D01*
G75*
G02*
X132288000Y-90741000I0J150000D01*
G01*
X132288000Y-89091000D01*
G75*
G02*
X132438000Y-88941000I150000J0D01*
G01*
X132738000Y-88941000D01*
G75*
G02*
X132888000Y-89091000I0J-150000D01*
G01*
X132888000Y-90741000D01*
G75*
G02*
X132738000Y-90891000I-150000J0D01*
G01*
G37*
G36*
G01*
X131468000Y-90891000D02*
X131168000Y-90891000D01*
G75*
G02*
X131018000Y-90741000I0J150000D01*
G01*
X131018000Y-89091000D01*
G75*
G02*
X131168000Y-88941000I150000J0D01*
G01*
X131468000Y-88941000D01*
G75*
G02*
X131618000Y-89091000I0J-150000D01*
G01*
X131618000Y-90741000D01*
G75*
G02*
X131468000Y-90891000I-150000J0D01*
G01*
G37*
G36*
G01*
X130198000Y-90891000D02*
X129898000Y-90891000D01*
G75*
G02*
X129748000Y-90741000I0J150000D01*
G01*
X129748000Y-89091000D01*
G75*
G02*
X129898000Y-88941000I150000J0D01*
G01*
X130198000Y-88941000D01*
G75*
G02*
X130348000Y-89091000I0J-150000D01*
G01*
X130348000Y-90741000D01*
G75*
G02*
X130198000Y-90891000I-150000J0D01*
G01*
G37*
G36*
G01*
X130198000Y-95841000D02*
X129898000Y-95841000D01*
G75*
G02*
X129748000Y-95691000I0J150000D01*
G01*
X129748000Y-94041000D01*
G75*
G02*
X129898000Y-93891000I150000J0D01*
G01*
X130198000Y-93891000D01*
G75*
G02*
X130348000Y-94041000I0J-150000D01*
G01*
X130348000Y-95691000D01*
G75*
G02*
X130198000Y-95841000I-150000J0D01*
G01*
G37*
G36*
G01*
X131468000Y-95841000D02*
X131168000Y-95841000D01*
G75*
G02*
X131018000Y-95691000I0J150000D01*
G01*
X131018000Y-94041000D01*
G75*
G02*
X131168000Y-93891000I150000J0D01*
G01*
X131468000Y-93891000D01*
G75*
G02*
X131618000Y-94041000I0J-150000D01*
G01*
X131618000Y-95691000D01*
G75*
G02*
X131468000Y-95841000I-150000J0D01*
G01*
G37*
G36*
G01*
X132738000Y-95841000D02*
X132438000Y-95841000D01*
G75*
G02*
X132288000Y-95691000I0J150000D01*
G01*
X132288000Y-94041000D01*
G75*
G02*
X132438000Y-93891000I150000J0D01*
G01*
X132738000Y-93891000D01*
G75*
G02*
X132888000Y-94041000I0J-150000D01*
G01*
X132888000Y-95691000D01*
G75*
G02*
X132738000Y-95841000I-150000J0D01*
G01*
G37*
G36*
G01*
X134008000Y-95841000D02*
X133708000Y-95841000D01*
G75*
G02*
X133558000Y-95691000I0J150000D01*
G01*
X133558000Y-94041000D01*
G75*
G02*
X133708000Y-93891000I150000J0D01*
G01*
X134008000Y-93891000D01*
G75*
G02*
X134158000Y-94041000I0J-150000D01*
G01*
X134158000Y-95691000D01*
G75*
G02*
X134008000Y-95841000I-150000J0D01*
G01*
G37*
%TD*%
%TO.C,U3*%
G36*
G01*
X124723000Y-99545000D02*
X124723000Y-99845000D01*
G75*
G02*
X124573000Y-99995000I-150000J0D01*
G01*
X122823000Y-99995000D01*
G75*
G02*
X122673000Y-99845000I0J150000D01*
G01*
X122673000Y-99545000D01*
G75*
G02*
X122823000Y-99395000I150000J0D01*
G01*
X124573000Y-99395000D01*
G75*
G02*
X124723000Y-99545000I0J-150000D01*
G01*
G37*
G36*
G01*
X124723000Y-100815000D02*
X124723000Y-101115000D01*
G75*
G02*
X124573000Y-101265000I-150000J0D01*
G01*
X122823000Y-101265000D01*
G75*
G02*
X122673000Y-101115000I0J150000D01*
G01*
X122673000Y-100815000D01*
G75*
G02*
X122823000Y-100665000I150000J0D01*
G01*
X124573000Y-100665000D01*
G75*
G02*
X124723000Y-100815000I0J-150000D01*
G01*
G37*
G36*
G01*
X124723000Y-102085000D02*
X124723000Y-102385000D01*
G75*
G02*
X124573000Y-102535000I-150000J0D01*
G01*
X122823000Y-102535000D01*
G75*
G02*
X122673000Y-102385000I0J150000D01*
G01*
X122673000Y-102085000D01*
G75*
G02*
X122823000Y-101935000I150000J0D01*
G01*
X124573000Y-101935000D01*
G75*
G02*
X124723000Y-102085000I0J-150000D01*
G01*
G37*
G36*
G01*
X124723000Y-103355000D02*
X124723000Y-103655000D01*
G75*
G02*
X124573000Y-103805000I-150000J0D01*
G01*
X122823000Y-103805000D01*
G75*
G02*
X122673000Y-103655000I0J150000D01*
G01*
X122673000Y-103355000D01*
G75*
G02*
X122823000Y-103205000I150000J0D01*
G01*
X124573000Y-103205000D01*
G75*
G02*
X124723000Y-103355000I0J-150000D01*
G01*
G37*
G36*
G01*
X124723000Y-104625000D02*
X124723000Y-104925000D01*
G75*
G02*
X124573000Y-105075000I-150000J0D01*
G01*
X122823000Y-105075000D01*
G75*
G02*
X122673000Y-104925000I0J150000D01*
G01*
X122673000Y-104625000D01*
G75*
G02*
X122823000Y-104475000I150000J0D01*
G01*
X124573000Y-104475000D01*
G75*
G02*
X124723000Y-104625000I0J-150000D01*
G01*
G37*
G36*
G01*
X124723000Y-105895000D02*
X124723000Y-106195000D01*
G75*
G02*
X124573000Y-106345000I-150000J0D01*
G01*
X122823000Y-106345000D01*
G75*
G02*
X122673000Y-106195000I0J150000D01*
G01*
X122673000Y-105895000D01*
G75*
G02*
X122823000Y-105745000I150000J0D01*
G01*
X124573000Y-105745000D01*
G75*
G02*
X124723000Y-105895000I0J-150000D01*
G01*
G37*
G36*
G01*
X124723000Y-107165000D02*
X124723000Y-107465000D01*
G75*
G02*
X124573000Y-107615000I-150000J0D01*
G01*
X122823000Y-107615000D01*
G75*
G02*
X122673000Y-107465000I0J150000D01*
G01*
X122673000Y-107165000D01*
G75*
G02*
X122823000Y-107015000I150000J0D01*
G01*
X124573000Y-107015000D01*
G75*
G02*
X124723000Y-107165000I0J-150000D01*
G01*
G37*
G36*
G01*
X124723000Y-108435000D02*
X124723000Y-108735000D01*
G75*
G02*
X124573000Y-108885000I-150000J0D01*
G01*
X122823000Y-108885000D01*
G75*
G02*
X122673000Y-108735000I0J150000D01*
G01*
X122673000Y-108435000D01*
G75*
G02*
X122823000Y-108285000I150000J0D01*
G01*
X124573000Y-108285000D01*
G75*
G02*
X124723000Y-108435000I0J-150000D01*
G01*
G37*
G36*
G01*
X124723000Y-109705000D02*
X124723000Y-110005000D01*
G75*
G02*
X124573000Y-110155000I-150000J0D01*
G01*
X122823000Y-110155000D01*
G75*
G02*
X122673000Y-110005000I0J150000D01*
G01*
X122673000Y-109705000D01*
G75*
G02*
X122823000Y-109555000I150000J0D01*
G01*
X124573000Y-109555000D01*
G75*
G02*
X124723000Y-109705000I0J-150000D01*
G01*
G37*
G36*
G01*
X134023000Y-109705000D02*
X134023000Y-110005000D01*
G75*
G02*
X133873000Y-110155000I-150000J0D01*
G01*
X132123000Y-110155000D01*
G75*
G02*
X131973000Y-110005000I0J150000D01*
G01*
X131973000Y-109705000D01*
G75*
G02*
X132123000Y-109555000I150000J0D01*
G01*
X133873000Y-109555000D01*
G75*
G02*
X134023000Y-109705000I0J-150000D01*
G01*
G37*
G36*
G01*
X134023000Y-108435000D02*
X134023000Y-108735000D01*
G75*
G02*
X133873000Y-108885000I-150000J0D01*
G01*
X132123000Y-108885000D01*
G75*
G02*
X131973000Y-108735000I0J150000D01*
G01*
X131973000Y-108435000D01*
G75*
G02*
X132123000Y-108285000I150000J0D01*
G01*
X133873000Y-108285000D01*
G75*
G02*
X134023000Y-108435000I0J-150000D01*
G01*
G37*
G36*
G01*
X134023000Y-107165000D02*
X134023000Y-107465000D01*
G75*
G02*
X133873000Y-107615000I-150000J0D01*
G01*
X132123000Y-107615000D01*
G75*
G02*
X131973000Y-107465000I0J150000D01*
G01*
X131973000Y-107165000D01*
G75*
G02*
X132123000Y-107015000I150000J0D01*
G01*
X133873000Y-107015000D01*
G75*
G02*
X134023000Y-107165000I0J-150000D01*
G01*
G37*
G36*
G01*
X134023000Y-105895000D02*
X134023000Y-106195000D01*
G75*
G02*
X133873000Y-106345000I-150000J0D01*
G01*
X132123000Y-106345000D01*
G75*
G02*
X131973000Y-106195000I0J150000D01*
G01*
X131973000Y-105895000D01*
G75*
G02*
X132123000Y-105745000I150000J0D01*
G01*
X133873000Y-105745000D01*
G75*
G02*
X134023000Y-105895000I0J-150000D01*
G01*
G37*
G36*
G01*
X134023000Y-104625000D02*
X134023000Y-104925000D01*
G75*
G02*
X133873000Y-105075000I-150000J0D01*
G01*
X132123000Y-105075000D01*
G75*
G02*
X131973000Y-104925000I0J150000D01*
G01*
X131973000Y-104625000D01*
G75*
G02*
X132123000Y-104475000I150000J0D01*
G01*
X133873000Y-104475000D01*
G75*
G02*
X134023000Y-104625000I0J-150000D01*
G01*
G37*
G36*
G01*
X134023000Y-103355000D02*
X134023000Y-103655000D01*
G75*
G02*
X133873000Y-103805000I-150000J0D01*
G01*
X132123000Y-103805000D01*
G75*
G02*
X131973000Y-103655000I0J150000D01*
G01*
X131973000Y-103355000D01*
G75*
G02*
X132123000Y-103205000I150000J0D01*
G01*
X133873000Y-103205000D01*
G75*
G02*
X134023000Y-103355000I0J-150000D01*
G01*
G37*
G36*
G01*
X134023000Y-102085000D02*
X134023000Y-102385000D01*
G75*
G02*
X133873000Y-102535000I-150000J0D01*
G01*
X132123000Y-102535000D01*
G75*
G02*
X131973000Y-102385000I0J150000D01*
G01*
X131973000Y-102085000D01*
G75*
G02*
X132123000Y-101935000I150000J0D01*
G01*
X133873000Y-101935000D01*
G75*
G02*
X134023000Y-102085000I0J-150000D01*
G01*
G37*
G36*
G01*
X134023000Y-100815000D02*
X134023000Y-101115000D01*
G75*
G02*
X133873000Y-101265000I-150000J0D01*
G01*
X132123000Y-101265000D01*
G75*
G02*
X131973000Y-101115000I0J150000D01*
G01*
X131973000Y-100815000D01*
G75*
G02*
X132123000Y-100665000I150000J0D01*
G01*
X133873000Y-100665000D01*
G75*
G02*
X134023000Y-100815000I0J-150000D01*
G01*
G37*
G36*
G01*
X134023000Y-99545000D02*
X134023000Y-99845000D01*
G75*
G02*
X133873000Y-99995000I-150000J0D01*
G01*
X132123000Y-99995000D01*
G75*
G02*
X131973000Y-99845000I0J150000D01*
G01*
X131973000Y-99545000D01*
G75*
G02*
X132123000Y-99395000I150000J0D01*
G01*
X133873000Y-99395000D01*
G75*
G02*
X134023000Y-99545000I0J-150000D01*
G01*
G37*
%TD*%
%TO.C,R5*%
G36*
G01*
X136788583Y-85449507D02*
X136452707Y-85785383D01*
G75*
G02*
X136116831Y-85785383I-167938J167938D01*
G01*
X135763277Y-85431829D01*
G75*
G02*
X135763277Y-85095953I167938J167938D01*
G01*
X136099153Y-84760077D01*
G75*
G02*
X136435029Y-84760077I167938J-167938D01*
G01*
X136788583Y-85113631D01*
G75*
G02*
X136788583Y-85449507I-167938J-167938D01*
G01*
G37*
G36*
G01*
X138079053Y-86739977D02*
X137743177Y-87075853D01*
G75*
G02*
X137407301Y-87075853I-167938J167938D01*
G01*
X137053747Y-86722299D01*
G75*
G02*
X137053747Y-86386423I167938J167938D01*
G01*
X137389623Y-86050547D01*
G75*
G02*
X137725499Y-86050547I167938J-167938D01*
G01*
X138079053Y-86404101D01*
G75*
G02*
X138079053Y-86739977I-167938J-167938D01*
G01*
G37*
%TD*%
%TO.C,R3*%
G36*
G01*
X140986500Y-98873500D02*
X141461500Y-98873500D01*
G75*
G02*
X141699000Y-99111000I0J-237500D01*
G01*
X141699000Y-99611000D01*
G75*
G02*
X141461500Y-99848500I-237500J0D01*
G01*
X140986500Y-99848500D01*
G75*
G02*
X140749000Y-99611000I0J237500D01*
G01*
X140749000Y-99111000D01*
G75*
G02*
X140986500Y-98873500I237500J0D01*
G01*
G37*
G36*
G01*
X140986500Y-97048500D02*
X141461500Y-97048500D01*
G75*
G02*
X141699000Y-97286000I0J-237500D01*
G01*
X141699000Y-97786000D01*
G75*
G02*
X141461500Y-98023500I-237500J0D01*
G01*
X140986500Y-98023500D01*
G75*
G02*
X140749000Y-97786000I0J237500D01*
G01*
X140749000Y-97286000D01*
G75*
G02*
X140986500Y-97048500I237500J0D01*
G01*
G37*
%TD*%
%TO.C,F1*%
G36*
G01*
X161910000Y-86540000D02*
X161910000Y-83640000D01*
G75*
G02*
X162160000Y-83390000I250000J0D01*
G01*
X162960000Y-83390000D01*
G75*
G02*
X163210000Y-83640000I0J-250000D01*
G01*
X163210000Y-86540000D01*
G75*
G02*
X162960000Y-86790000I-250000J0D01*
G01*
X162160000Y-86790000D01*
G75*
G02*
X161910000Y-86540000I0J250000D01*
G01*
G37*
G36*
G01*
X157460000Y-86540000D02*
X157460000Y-83640000D01*
G75*
G02*
X157710000Y-83390000I250000J0D01*
G01*
X158510000Y-83390000D01*
G75*
G02*
X158760000Y-83640000I0J-250000D01*
G01*
X158760000Y-86540000D01*
G75*
G02*
X158510000Y-86790000I-250000J0D01*
G01*
X157710000Y-86790000D01*
G75*
G02*
X157460000Y-86540000I0J250000D01*
G01*
G37*
%TD*%
%TO.C,C6*%
G36*
G01*
X128888500Y-91522500D02*
X128413500Y-91522500D01*
G75*
G02*
X128176000Y-91285000I0J237500D01*
G01*
X128176000Y-90685000D01*
G75*
G02*
X128413500Y-90447500I237500J0D01*
G01*
X128888500Y-90447500D01*
G75*
G02*
X129126000Y-90685000I0J-237500D01*
G01*
X129126000Y-91285000D01*
G75*
G02*
X128888500Y-91522500I-237500J0D01*
G01*
G37*
G36*
G01*
X128888500Y-93247500D02*
X128413500Y-93247500D01*
G75*
G02*
X128176000Y-93010000I0J237500D01*
G01*
X128176000Y-92410000D01*
G75*
G02*
X128413500Y-92172500I237500J0D01*
G01*
X128888500Y-92172500D01*
G75*
G02*
X129126000Y-92410000I0J-237500D01*
G01*
X129126000Y-93010000D01*
G75*
G02*
X128888500Y-93247500I-237500J0D01*
G01*
G37*
%TD*%
%TO.C,C4*%
G36*
G01*
X136160500Y-102713500D02*
X136635500Y-102713500D01*
G75*
G02*
X136873000Y-102951000I0J-237500D01*
G01*
X136873000Y-103551000D01*
G75*
G02*
X136635500Y-103788500I-237500J0D01*
G01*
X136160500Y-103788500D01*
G75*
G02*
X135923000Y-103551000I0J237500D01*
G01*
X135923000Y-102951000D01*
G75*
G02*
X136160500Y-102713500I237500J0D01*
G01*
G37*
G36*
G01*
X136160500Y-100988500D02*
X136635500Y-100988500D01*
G75*
G02*
X136873000Y-101226000I0J-237500D01*
G01*
X136873000Y-101826000D01*
G75*
G02*
X136635500Y-102063500I-237500J0D01*
G01*
X136160500Y-102063500D01*
G75*
G02*
X135923000Y-101826000I0J237500D01*
G01*
X135923000Y-101226000D01*
G75*
G02*
X136160500Y-100988500I237500J0D01*
G01*
G37*
%TD*%
%TO.C,C3*%
G36*
G01*
X136635500Y-105593000D02*
X136160500Y-105593000D01*
G75*
G02*
X135923000Y-105355500I0J237500D01*
G01*
X135923000Y-104755500D01*
G75*
G02*
X136160500Y-104518000I237500J0D01*
G01*
X136635500Y-104518000D01*
G75*
G02*
X136873000Y-104755500I0J-237500D01*
G01*
X136873000Y-105355500D01*
G75*
G02*
X136635500Y-105593000I-237500J0D01*
G01*
G37*
G36*
G01*
X136635500Y-107318000D02*
X136160500Y-107318000D01*
G75*
G02*
X135923000Y-107080500I0J237500D01*
G01*
X135923000Y-106480500D01*
G75*
G02*
X136160500Y-106243000I237500J0D01*
G01*
X136635500Y-106243000D01*
G75*
G02*
X136873000Y-106480500I0J-237500D01*
G01*
X136873000Y-107080500D01*
G75*
G02*
X136635500Y-107318000I-237500J0D01*
G01*
G37*
%TD*%
%TO.C,C2*%
G36*
G01*
X120262700Y-93455500D02*
X120262700Y-92980500D01*
G75*
G02*
X120500200Y-92743000I237500J0D01*
G01*
X121100200Y-92743000D01*
G75*
G02*
X121337700Y-92980500I0J-237500D01*
G01*
X121337700Y-93455500D01*
G75*
G02*
X121100200Y-93693000I-237500J0D01*
G01*
X120500200Y-93693000D01*
G75*
G02*
X120262700Y-93455500I0J237500D01*
G01*
G37*
G36*
G01*
X118537700Y-93455500D02*
X118537700Y-92980500D01*
G75*
G02*
X118775200Y-92743000I237500J0D01*
G01*
X119375200Y-92743000D01*
G75*
G02*
X119612700Y-92980500I0J-237500D01*
G01*
X119612700Y-93455500D01*
G75*
G02*
X119375200Y-93693000I-237500J0D01*
G01*
X118775200Y-93693000D01*
G75*
G02*
X118537700Y-93455500I0J237500D01*
G01*
G37*
%TD*%
M02*
