%TF.GenerationSoftware,KiCad,Pcbnew,5.1.7-a382d34a8~88~ubuntu18.04.1*%
%TF.CreationDate,2021-03-18T09:15:53-04:00*%
%TF.ProjectId,HV_DCDC,48565f44-4344-4432-9e6b-696361645f70,rev?*%
%TF.SameCoordinates,Original*%
%TF.FileFunction,Legend,Bot*%
%TF.FilePolarity,Positive*%
%FSLAX46Y46*%
G04 Gerber Fmt 4.6, Leading zero omitted, Abs format (unit mm)*
G04 Created by KiCad (PCBNEW 5.1.7-a382d34a8~88~ubuntu18.04.1) date 2021-03-18 09:15:53*
%MOMM*%
%LPD*%
G01*
G04 APERTURE LIST*
%ADD10C,0.800000*%
%ADD11C,0.250000*%
%ADD12C,0.150000*%
%ADD13C,0.120000*%
%ADD14C,0.010000*%
%ADD15C,0.127000*%
%ADD16C,0.500000*%
%ADD17C,0.050000*%
G04 APERTURE END LIST*
D10*
X130175000Y-107950000D02*
X130175000Y-121285000D01*
X149225000Y-25400000D02*
X149225000Y-61595000D01*
X130175000Y-88900000D02*
X149225000Y-61595000D01*
D11*
X142747857Y-78375000D02*
X142938333Y-78279761D01*
X143224047Y-78279761D01*
X143509761Y-78375000D01*
X143700238Y-78565476D01*
X143795476Y-78755952D01*
X143890714Y-79136904D01*
X143890714Y-79422619D01*
X143795476Y-79803571D01*
X143700238Y-79994047D01*
X143509761Y-80184523D01*
X143224047Y-80279761D01*
X143033571Y-80279761D01*
X142747857Y-80184523D01*
X142652619Y-80089285D01*
X142652619Y-79422619D01*
X143033571Y-79422619D01*
X140843095Y-80279761D02*
X141795476Y-80279761D01*
X141795476Y-78279761D01*
X140462142Y-78279761D02*
X139795476Y-80279761D01*
X139128809Y-78279761D01*
X135095952Y-77644761D02*
X133953095Y-77644761D01*
X134524523Y-79644761D02*
X134524523Y-77644761D01*
X133381666Y-79549523D02*
X133095952Y-79644761D01*
X132619761Y-79644761D01*
X132429285Y-79549523D01*
X132334047Y-79454285D01*
X132238809Y-79263809D01*
X132238809Y-79073333D01*
X132334047Y-78882857D01*
X132429285Y-78787619D01*
X132619761Y-78692380D01*
X133000714Y-78597142D01*
X133191190Y-78501904D01*
X133286428Y-78406666D01*
X133381666Y-78216190D01*
X133381666Y-78025714D01*
X133286428Y-77835238D01*
X133191190Y-77740000D01*
X133000714Y-77644761D01*
X132524523Y-77644761D01*
X132238809Y-77740000D01*
X131667380Y-77644761D02*
X131000714Y-79644761D01*
X130334047Y-77644761D01*
D12*
X134636309Y-52458951D02*
X134541071Y-52411332D01*
X134493452Y-52363713D01*
X134445833Y-52268475D01*
X134445833Y-52220856D01*
X134493452Y-52125618D01*
X134541071Y-52077999D01*
X134636309Y-52030379D01*
X134826785Y-52030379D01*
X134922023Y-52077999D01*
X134969642Y-52125618D01*
X135017261Y-52220856D01*
X135017261Y-52268475D01*
X134969642Y-52363713D01*
X134922023Y-52411332D01*
X134826785Y-52458951D01*
X134636309Y-52458951D01*
X134541071Y-52506570D01*
X134493452Y-52554189D01*
X134445833Y-52649427D01*
X134445833Y-52839903D01*
X134493452Y-52935141D01*
X134541071Y-52982760D01*
X134636309Y-53030379D01*
X134826785Y-53030379D01*
X134922023Y-52982760D01*
X134969642Y-52935141D01*
X135017261Y-52839903D01*
X135017261Y-52649427D01*
X134969642Y-52554189D01*
X134922023Y-52506570D01*
X134826785Y-52458951D01*
X135445833Y-52935141D02*
X135493452Y-52982760D01*
X135445833Y-53030379D01*
X135398214Y-52982760D01*
X135445833Y-52935141D01*
X135445833Y-53030379D01*
X136398214Y-52030379D02*
X135922023Y-52030379D01*
X135874404Y-52506570D01*
X135922023Y-52458951D01*
X136017261Y-52411332D01*
X136255357Y-52411332D01*
X136350595Y-52458951D01*
X136398214Y-52506570D01*
X136445833Y-52601808D01*
X136445833Y-52839903D01*
X136398214Y-52935141D01*
X136350595Y-52982760D01*
X136255357Y-53030379D01*
X136017261Y-53030379D01*
X135922023Y-52982760D01*
X135874404Y-52935141D01*
X137064880Y-52030379D02*
X137160119Y-52030379D01*
X137255357Y-52077999D01*
X137302976Y-52125618D01*
X137350595Y-52220856D01*
X137398214Y-52411332D01*
X137398214Y-52649427D01*
X137350595Y-52839903D01*
X137302976Y-52935141D01*
X137255357Y-52982760D01*
X137160119Y-53030379D01*
X137064880Y-53030379D01*
X136969642Y-52982760D01*
X136922023Y-52935141D01*
X136874404Y-52839903D01*
X136826785Y-52649427D01*
X136826785Y-52411332D01*
X136874404Y-52220856D01*
X136922023Y-52125618D01*
X136969642Y-52077999D01*
X137064880Y-52030379D01*
X137874404Y-53030379D02*
X138064880Y-53030379D01*
X138160119Y-52982760D01*
X138207738Y-52935141D01*
X138302976Y-52792284D01*
X138350595Y-52601808D01*
X138350595Y-52220856D01*
X138302976Y-52125618D01*
X138255357Y-52077999D01*
X138160119Y-52030379D01*
X137969642Y-52030379D01*
X137874404Y-52077999D01*
X137826785Y-52125618D01*
X137779166Y-52220856D01*
X137779166Y-52458951D01*
X137826785Y-52554189D01*
X137874404Y-52601808D01*
X137969642Y-52649427D01*
X138160119Y-52649427D01*
X138255357Y-52601808D01*
X138302976Y-52554189D01*
X138350595Y-52458951D01*
X139541071Y-53030379D02*
X139541071Y-52363713D01*
X139541071Y-52458951D02*
X139588690Y-52411332D01*
X139683928Y-52363713D01*
X139826785Y-52363713D01*
X139922023Y-52411332D01*
X139969642Y-52506570D01*
X139969642Y-53030379D01*
X139969642Y-52506570D02*
X140017261Y-52411332D01*
X140112500Y-52363713D01*
X140255357Y-52363713D01*
X140350595Y-52411332D01*
X140398214Y-52506570D01*
X140398214Y-53030379D01*
X140874404Y-53030379D02*
X140874404Y-52363713D01*
X140874404Y-52458951D02*
X140922023Y-52411332D01*
X141017261Y-52363713D01*
X141160119Y-52363713D01*
X141255357Y-52411332D01*
X141302976Y-52506570D01*
X141302976Y-53030379D01*
X141302976Y-52506570D02*
X141350595Y-52411332D01*
X141445833Y-52363713D01*
X141588690Y-52363713D01*
X141683928Y-52411332D01*
X141731547Y-52506570D01*
X141731547Y-53030379D01*
D13*
X133858000Y-51307999D02*
X142367000Y-51307999D01*
X133858000Y-47117000D02*
X133858000Y-51894420D01*
X142367000Y-47117000D02*
X142367000Y-51894420D01*
X142367000Y-51307999D02*
X141240496Y-51894420D01*
X142367000Y-51307999D02*
X141240496Y-50721578D01*
X133858000Y-51307999D02*
X134984504Y-51894420D01*
X133858000Y-51307999D02*
X134984504Y-50721578D01*
D14*
%TO.C,Ref\u002A\u002A*%
G36*
X123214789Y-67522891D02*
G01*
X123110582Y-67588584D01*
X123077086Y-67636483D01*
X123004061Y-67753385D01*
X122894107Y-67934850D01*
X122749824Y-68176441D01*
X122573811Y-68473719D01*
X122368670Y-68822245D01*
X122136999Y-69217581D01*
X121881400Y-69655289D01*
X121604472Y-70130929D01*
X121308815Y-70640063D01*
X120997029Y-71178254D01*
X120671715Y-71741061D01*
X120335472Y-72324048D01*
X120271888Y-72434433D01*
X119842147Y-73181243D01*
X119453846Y-73857356D01*
X119105653Y-74465145D01*
X118796239Y-75006983D01*
X118524273Y-75485244D01*
X118288426Y-75902301D01*
X118087365Y-76260526D01*
X117919763Y-76562294D01*
X117784287Y-76809977D01*
X117679609Y-77005948D01*
X117604397Y-77152581D01*
X117557322Y-77252249D01*
X117537054Y-77307324D01*
X117536000Y-77315274D01*
X117575353Y-77462786D01*
X117639909Y-77549424D01*
X117743818Y-77653334D01*
X128951241Y-77653334D01*
X129043287Y-77555355D01*
X129072074Y-77525488D01*
X129097175Y-77497171D01*
X129116633Y-77466599D01*
X129128493Y-77429968D01*
X129130798Y-77383475D01*
X129121590Y-77323316D01*
X129098914Y-77245688D01*
X129060812Y-77146786D01*
X129005328Y-77022807D01*
X128930505Y-76869947D01*
X128834387Y-76684403D01*
X128833231Y-76682252D01*
X127900611Y-76682252D01*
X127861106Y-76688657D01*
X127739761Y-76694577D01*
X127539399Y-76699989D01*
X127262847Y-76704866D01*
X126912928Y-76709185D01*
X126492468Y-76712921D01*
X126004291Y-76716050D01*
X125451222Y-76718546D01*
X124836086Y-76720385D01*
X124161707Y-76721543D01*
X123430911Y-76721995D01*
X123336743Y-76722000D01*
X118758764Y-76722000D01*
X118898798Y-76474576D01*
X119422228Y-75549957D01*
X119916971Y-74676450D01*
X120382134Y-73855625D01*
X120816822Y-73089057D01*
X121220139Y-72378315D01*
X121591189Y-71724974D01*
X121929079Y-71130604D01*
X122232913Y-70596779D01*
X122501796Y-70125070D01*
X122734833Y-69717050D01*
X122931128Y-69374290D01*
X123089788Y-69098364D01*
X123209915Y-68890843D01*
X123290617Y-68753299D01*
X123330996Y-68687304D01*
X123335666Y-68681292D01*
X123358312Y-68717055D01*
X123419487Y-68820671D01*
X123515903Y-68986376D01*
X123644271Y-69208405D01*
X123801301Y-69480993D01*
X123983706Y-69798375D01*
X124188195Y-70154787D01*
X124411479Y-70544464D01*
X124650270Y-70961641D01*
X124901279Y-71400553D01*
X125161216Y-71855436D01*
X125426792Y-72320526D01*
X125694718Y-72790056D01*
X125961706Y-73258263D01*
X126224466Y-73719382D01*
X126479709Y-74167648D01*
X126724146Y-74597297D01*
X126954488Y-75002563D01*
X127167445Y-75377682D01*
X127359730Y-75716890D01*
X127528052Y-76014420D01*
X127669123Y-76264510D01*
X127779654Y-76461394D01*
X127856355Y-76599306D01*
X127895938Y-76672484D01*
X127900611Y-76682252D01*
X128833231Y-76682252D01*
X128715017Y-76462370D01*
X128570439Y-76200046D01*
X128398695Y-75893625D01*
X128197829Y-75539305D01*
X127965884Y-75133282D01*
X127700904Y-74671753D01*
X127400932Y-74150912D01*
X127064012Y-73566957D01*
X126688187Y-72916084D01*
X126401109Y-72418960D01*
X126062870Y-71833852D01*
X125735075Y-71268085D01*
X125420334Y-70726103D01*
X125121258Y-70212347D01*
X124840458Y-69731259D01*
X124580544Y-69287281D01*
X124344126Y-68884855D01*
X124133814Y-68528423D01*
X123952220Y-68222426D01*
X123801953Y-67971307D01*
X123685624Y-67779508D01*
X123605843Y-67651471D01*
X123565221Y-67591637D01*
X123562415Y-67588584D01*
X123450322Y-67520198D01*
X123335666Y-67493334D01*
X123214789Y-67522891D01*
G37*
X123214789Y-67522891D02*
X123110582Y-67588584D01*
X123077086Y-67636483D01*
X123004061Y-67753385D01*
X122894107Y-67934850D01*
X122749824Y-68176441D01*
X122573811Y-68473719D01*
X122368670Y-68822245D01*
X122136999Y-69217581D01*
X121881400Y-69655289D01*
X121604472Y-70130929D01*
X121308815Y-70640063D01*
X120997029Y-71178254D01*
X120671715Y-71741061D01*
X120335472Y-72324048D01*
X120271888Y-72434433D01*
X119842147Y-73181243D01*
X119453846Y-73857356D01*
X119105653Y-74465145D01*
X118796239Y-75006983D01*
X118524273Y-75485244D01*
X118288426Y-75902301D01*
X118087365Y-76260526D01*
X117919763Y-76562294D01*
X117784287Y-76809977D01*
X117679609Y-77005948D01*
X117604397Y-77152581D01*
X117557322Y-77252249D01*
X117537054Y-77307324D01*
X117536000Y-77315274D01*
X117575353Y-77462786D01*
X117639909Y-77549424D01*
X117743818Y-77653334D01*
X128951241Y-77653334D01*
X129043287Y-77555355D01*
X129072074Y-77525488D01*
X129097175Y-77497171D01*
X129116633Y-77466599D01*
X129128493Y-77429968D01*
X129130798Y-77383475D01*
X129121590Y-77323316D01*
X129098914Y-77245688D01*
X129060812Y-77146786D01*
X129005328Y-77022807D01*
X128930505Y-76869947D01*
X128834387Y-76684403D01*
X128833231Y-76682252D01*
X127900611Y-76682252D01*
X127861106Y-76688657D01*
X127739761Y-76694577D01*
X127539399Y-76699989D01*
X127262847Y-76704866D01*
X126912928Y-76709185D01*
X126492468Y-76712921D01*
X126004291Y-76716050D01*
X125451222Y-76718546D01*
X124836086Y-76720385D01*
X124161707Y-76721543D01*
X123430911Y-76721995D01*
X123336743Y-76722000D01*
X118758764Y-76722000D01*
X118898798Y-76474576D01*
X119422228Y-75549957D01*
X119916971Y-74676450D01*
X120382134Y-73855625D01*
X120816822Y-73089057D01*
X121220139Y-72378315D01*
X121591189Y-71724974D01*
X121929079Y-71130604D01*
X122232913Y-70596779D01*
X122501796Y-70125070D01*
X122734833Y-69717050D01*
X122931128Y-69374290D01*
X123089788Y-69098364D01*
X123209915Y-68890843D01*
X123290617Y-68753299D01*
X123330996Y-68687304D01*
X123335666Y-68681292D01*
X123358312Y-68717055D01*
X123419487Y-68820671D01*
X123515903Y-68986376D01*
X123644271Y-69208405D01*
X123801301Y-69480993D01*
X123983706Y-69798375D01*
X124188195Y-70154787D01*
X124411479Y-70544464D01*
X124650270Y-70961641D01*
X124901279Y-71400553D01*
X125161216Y-71855436D01*
X125426792Y-72320526D01*
X125694718Y-72790056D01*
X125961706Y-73258263D01*
X126224466Y-73719382D01*
X126479709Y-74167648D01*
X126724146Y-74597297D01*
X126954488Y-75002563D01*
X127167445Y-75377682D01*
X127359730Y-75716890D01*
X127528052Y-76014420D01*
X127669123Y-76264510D01*
X127779654Y-76461394D01*
X127856355Y-76599306D01*
X127895938Y-76672484D01*
X127900611Y-76682252D01*
X128833231Y-76682252D01*
X128715017Y-76462370D01*
X128570439Y-76200046D01*
X128398695Y-75893625D01*
X128197829Y-75539305D01*
X127965884Y-75133282D01*
X127700904Y-74671753D01*
X127400932Y-74150912D01*
X127064012Y-73566957D01*
X126688187Y-72916084D01*
X126401109Y-72418960D01*
X126062870Y-71833852D01*
X125735075Y-71268085D01*
X125420334Y-70726103D01*
X125121258Y-70212347D01*
X124840458Y-69731259D01*
X124580544Y-69287281D01*
X124344126Y-68884855D01*
X124133814Y-68528423D01*
X123952220Y-68222426D01*
X123801953Y-67971307D01*
X123685624Y-67779508D01*
X123605843Y-67651471D01*
X123565221Y-67591637D01*
X123562415Y-67588584D01*
X123450322Y-67520198D01*
X123335666Y-67493334D01*
X123214789Y-67522891D01*
G36*
X122948199Y-71052482D02*
G01*
X122820950Y-71059811D01*
X122750823Y-71070569D01*
X122743000Y-71076005D01*
X122759222Y-71120309D01*
X122805013Y-71232024D01*
X122876060Y-71400972D01*
X122968047Y-71616975D01*
X123076661Y-71869853D01*
X123197589Y-72149427D01*
X123211326Y-72181069D01*
X123332595Y-72462166D01*
X123441038Y-72717114D01*
X123532511Y-72935877D01*
X123602868Y-73108417D01*
X123647965Y-73224697D01*
X123663656Y-73274678D01*
X123663374Y-73275737D01*
X123620716Y-73266217D01*
X123513086Y-73229502D01*
X123353856Y-73170502D01*
X123156397Y-73094131D01*
X123002907Y-73033093D01*
X122786370Y-72947706D01*
X122598335Y-72876681D01*
X122452269Y-72824854D01*
X122361638Y-72797062D01*
X122338414Y-72794475D01*
X122343724Y-72838963D01*
X122368695Y-72954745D01*
X122410770Y-73131416D01*
X122467393Y-73358569D01*
X122536007Y-73625799D01*
X122614058Y-73922701D01*
X122633533Y-73995806D01*
X122715833Y-74304274D01*
X122792128Y-74590832D01*
X122859349Y-74843910D01*
X122914429Y-75051936D01*
X122954300Y-75203341D01*
X122975894Y-75286554D01*
X122977567Y-75293250D01*
X122989051Y-75376452D01*
X122952945Y-75406376D01*
X122895756Y-75409667D01*
X122813962Y-75418425D01*
X122785333Y-75436208D01*
X122807171Y-75484690D01*
X122865433Y-75584486D01*
X122949239Y-75719045D01*
X123047710Y-75871816D01*
X123149966Y-76026249D01*
X123245130Y-76165793D01*
X123322321Y-76273899D01*
X123370660Y-76334014D01*
X123380083Y-76341000D01*
X123405636Y-76303519D01*
X123451912Y-76201451D01*
X123512353Y-76050360D01*
X123580400Y-75865809D01*
X123580776Y-75864750D01*
X123749901Y-75388500D01*
X123611505Y-75375673D01*
X123473109Y-75362845D01*
X123319917Y-74825339D01*
X123253449Y-74592246D01*
X123186763Y-74358597D01*
X123127751Y-74152029D01*
X123085429Y-74004107D01*
X123004133Y-73720381D01*
X123201650Y-73798405D01*
X123321327Y-73845974D01*
X123494845Y-73915316D01*
X123697519Y-73996551D01*
X123875416Y-74068032D01*
X124075725Y-74144765D01*
X124228913Y-74195559D01*
X124324502Y-74217292D01*
X124352655Y-74210235D01*
X124341816Y-74159627D01*
X124310504Y-74036734D01*
X124261209Y-73850764D01*
X124196420Y-73610925D01*
X124118629Y-73326424D01*
X124030324Y-73006471D01*
X123933996Y-72660272D01*
X123918738Y-72605680D01*
X123483833Y-71050526D01*
X123113416Y-71049930D01*
X122948199Y-71052482D01*
G37*
X122948199Y-71052482D02*
X122820950Y-71059811D01*
X122750823Y-71070569D01*
X122743000Y-71076005D01*
X122759222Y-71120309D01*
X122805013Y-71232024D01*
X122876060Y-71400972D01*
X122968047Y-71616975D01*
X123076661Y-71869853D01*
X123197589Y-72149427D01*
X123211326Y-72181069D01*
X123332595Y-72462166D01*
X123441038Y-72717114D01*
X123532511Y-72935877D01*
X123602868Y-73108417D01*
X123647965Y-73224697D01*
X123663656Y-73274678D01*
X123663374Y-73275737D01*
X123620716Y-73266217D01*
X123513086Y-73229502D01*
X123353856Y-73170502D01*
X123156397Y-73094131D01*
X123002907Y-73033093D01*
X122786370Y-72947706D01*
X122598335Y-72876681D01*
X122452269Y-72824854D01*
X122361638Y-72797062D01*
X122338414Y-72794475D01*
X122343724Y-72838963D01*
X122368695Y-72954745D01*
X122410770Y-73131416D01*
X122467393Y-73358569D01*
X122536007Y-73625799D01*
X122614058Y-73922701D01*
X122633533Y-73995806D01*
X122715833Y-74304274D01*
X122792128Y-74590832D01*
X122859349Y-74843910D01*
X122914429Y-75051936D01*
X122954300Y-75203341D01*
X122975894Y-75286554D01*
X122977567Y-75293250D01*
X122989051Y-75376452D01*
X122952945Y-75406376D01*
X122895756Y-75409667D01*
X122813962Y-75418425D01*
X122785333Y-75436208D01*
X122807171Y-75484690D01*
X122865433Y-75584486D01*
X122949239Y-75719045D01*
X123047710Y-75871816D01*
X123149966Y-76026249D01*
X123245130Y-76165793D01*
X123322321Y-76273899D01*
X123370660Y-76334014D01*
X123380083Y-76341000D01*
X123405636Y-76303519D01*
X123451912Y-76201451D01*
X123512353Y-76050360D01*
X123580400Y-75865809D01*
X123580776Y-75864750D01*
X123749901Y-75388500D01*
X123611505Y-75375673D01*
X123473109Y-75362845D01*
X123319917Y-74825339D01*
X123253449Y-74592246D01*
X123186763Y-74358597D01*
X123127751Y-74152029D01*
X123085429Y-74004107D01*
X123004133Y-73720381D01*
X123201650Y-73798405D01*
X123321327Y-73845974D01*
X123494845Y-73915316D01*
X123697519Y-73996551D01*
X123875416Y-74068032D01*
X124075725Y-74144765D01*
X124228913Y-74195559D01*
X124324502Y-74217292D01*
X124352655Y-74210235D01*
X124341816Y-74159627D01*
X124310504Y-74036734D01*
X124261209Y-73850764D01*
X124196420Y-73610925D01*
X124118629Y-73326424D01*
X124030324Y-73006471D01*
X123933996Y-72660272D01*
X123918738Y-72605680D01*
X123483833Y-71050526D01*
X123113416Y-71049930D01*
X122948199Y-71052482D01*
D15*
%TO.C,J5*%
X197125000Y-80470000D02*
X177525000Y-80470000D01*
X175525000Y-82470000D02*
X175525000Y-109870000D01*
X177525000Y-111870000D02*
X197125000Y-111870000D01*
X199125000Y-109870000D02*
X199125000Y-82470000D01*
X203375000Y-116570000D02*
X203375000Y-75770000D01*
X199375000Y-71770000D02*
X175275000Y-71770000D01*
X171275000Y-75770000D02*
X171275000Y-116570000D01*
X175275000Y-120570000D02*
X199375000Y-120570000D01*
D16*
X183500000Y-70837000D02*
G75*
G03*
X183500000Y-70837000I-175000J0D01*
G01*
D15*
X199375000Y-120570000D02*
G75*
G03*
X203375000Y-116570000I0J4000000D01*
G01*
X171275000Y-116570000D02*
G75*
G03*
X175275000Y-120570000I4000000J0D01*
G01*
X175275000Y-71770000D02*
G75*
G03*
X171275000Y-75770000I0J-4000000D01*
G01*
X203375000Y-75770000D02*
G75*
G03*
X199375000Y-71770000I-4000000J0D01*
G01*
X199125000Y-82470000D02*
G75*
G03*
X197125000Y-80470000I-2000000J0D01*
G01*
X197125000Y-111870000D02*
G75*
G03*
X199125000Y-109870000I0J2000000D01*
G01*
X175525000Y-109870000D02*
G75*
G03*
X177525000Y-111870000I2000000J0D01*
G01*
X177525000Y-80470000D02*
G75*
G03*
X175525000Y-82470000I0J-2000000D01*
G01*
D13*
%TO.C,U3*%
X129175000Y-101025000D02*
X126940000Y-101025000D01*
X126940000Y-101025000D02*
X126940000Y-95825000D01*
X126940000Y-95825000D02*
X133410000Y-95825000D01*
X133410000Y-95825000D02*
X133410000Y-101025000D01*
X133410000Y-101025000D02*
X131175000Y-101025000D01*
X131175000Y-101025000D02*
G75*
G03*
X129175000Y-101025000I-1000000J0D01*
G01*
%TO.C,R2*%
X138952500Y-96774724D02*
X138952500Y-96265276D01*
X137907500Y-96774724D02*
X137907500Y-96265276D01*
%TO.C,J5*%
D17*
X168888532Y-79432106D02*
X169889446Y-79432106D01*
X170089629Y-79365379D01*
X170223084Y-79231923D01*
X170289812Y-79031740D01*
X170289812Y-78898285D01*
X168888532Y-80766659D02*
X168888532Y-80099382D01*
X169555808Y-80032655D01*
X169489080Y-80099382D01*
X169422353Y-80232838D01*
X169422353Y-80566476D01*
X169489080Y-80699931D01*
X169555808Y-80766659D01*
X169689263Y-80833386D01*
X170022901Y-80833386D01*
X170156357Y-80766659D01*
X170223084Y-80699931D01*
X170289812Y-80566476D01*
X170289812Y-80232838D01*
X170223084Y-80099382D01*
X170156357Y-80032655D01*
%TO.C,U3*%
D12*
X130936904Y-101477380D02*
X130936904Y-102286904D01*
X130889285Y-102382142D01*
X130841666Y-102429761D01*
X130746428Y-102477380D01*
X130555952Y-102477380D01*
X130460714Y-102429761D01*
X130413095Y-102382142D01*
X130365476Y-102286904D01*
X130365476Y-101477380D01*
X129984523Y-101477380D02*
X129365476Y-101477380D01*
X129698809Y-101858333D01*
X129555952Y-101858333D01*
X129460714Y-101905952D01*
X129413095Y-101953571D01*
X129365476Y-102048809D01*
X129365476Y-102286904D01*
X129413095Y-102382142D01*
X129460714Y-102429761D01*
X129555952Y-102477380D01*
X129841666Y-102477380D01*
X129936904Y-102429761D01*
X129984523Y-102382142D01*
%TO.C,R2*%
X140312380Y-96353333D02*
X139836190Y-96020000D01*
X140312380Y-95781904D02*
X139312380Y-95781904D01*
X139312380Y-96162857D01*
X139360000Y-96258095D01*
X139407619Y-96305714D01*
X139502857Y-96353333D01*
X139645714Y-96353333D01*
X139740952Y-96305714D01*
X139788571Y-96258095D01*
X139836190Y-96162857D01*
X139836190Y-95781904D01*
X139407619Y-96734285D02*
X139360000Y-96781904D01*
X139312380Y-96877142D01*
X139312380Y-97115238D01*
X139360000Y-97210476D01*
X139407619Y-97258095D01*
X139502857Y-97305714D01*
X139598095Y-97305714D01*
X139740952Y-97258095D01*
X140312380Y-96686666D01*
X140312380Y-97305714D01*
%TD*%
M02*
