%TF.GenerationSoftware,KiCad,Pcbnew,5.1.7-a382d34a8~88~ubuntu18.04.1*%
%TF.CreationDate,2021-03-18T09:15:53-04:00*%
%TF.ProjectId,HV_DCDC,48565f44-4344-4432-9e6b-696361645f70,rev?*%
%TF.SameCoordinates,Original*%
%TF.FileFunction,Copper,L2,Bot*%
%TF.FilePolarity,Positive*%
%FSLAX46Y46*%
G04 Gerber Fmt 4.6, Leading zero omitted, Abs format (unit mm)*
G04 Created by KiCad (PCBNEW 5.1.7-a382d34a8~88~ubuntu18.04.1) date 2021-03-18 09:15:53*
%MOMM*%
%LPD*%
G01*
G04 APERTURE LIST*
%TA.AperFunction,ComponentPad*%
%ADD10R,3.500000X2.500000*%
%TD*%
%TA.AperFunction,ComponentPad*%
%ADD11C,0.100000*%
%TD*%
%TA.AperFunction,ComponentPad*%
%ADD12C,2.625000*%
%TD*%
%TA.AperFunction,ComponentPad*%
%ADD13R,2.625000X2.625000*%
%TD*%
%TA.AperFunction,SMDPad,CuDef*%
%ADD14R,2.000000X1.780000*%
%TD*%
%TA.AperFunction,ComponentPad*%
%ADD15O,2.400000X2.400000*%
%TD*%
%TA.AperFunction,ComponentPad*%
%ADD16C,2.400000*%
%TD*%
%TA.AperFunction,ComponentPad*%
%ADD17O,1.200000X1.750000*%
%TD*%
%TA.AperFunction,ComponentPad*%
%ADD18O,3.300000X2.640000*%
%TD*%
%TA.AperFunction,ComponentPad*%
%ADD19O,2.640000X3.300000*%
%TD*%
%TA.AperFunction,ComponentPad*%
%ADD20C,3.000000*%
%TD*%
%TA.AperFunction,ComponentPad*%
%ADD21C,1.600000*%
%TD*%
%TA.AperFunction,ComponentPad*%
%ADD22R,2.400000X2.400000*%
%TD*%
%TA.AperFunction,ViaPad*%
%ADD23C,0.800000*%
%TD*%
%TA.AperFunction,Conductor*%
%ADD24C,0.360000*%
%TD*%
%TA.AperFunction,Conductor*%
%ADD25C,2.400000*%
%TD*%
%TA.AperFunction,Conductor*%
%ADD26C,3.600000*%
%TD*%
%TA.AperFunction,Conductor*%
%ADD27C,0.500000*%
%TD*%
%TA.AperFunction,Conductor*%
%ADD28C,0.100000*%
%TD*%
G04 APERTURE END LIST*
D10*
%TO.P,U1,8*%
%TO.N,N/C*%
X132080000Y-33020000D03*
%TA.AperFunction,ComponentPad*%
D11*
%TO.P,U1,14*%
G36*
X132336778Y-53288941D02*
G01*
X132505215Y-53322445D01*
X132669557Y-53372298D01*
X132828221Y-53438019D01*
X132979680Y-53518975D01*
X133122474Y-53614387D01*
X133255228Y-53723336D01*
X133376664Y-53844772D01*
X133485613Y-53977526D01*
X133581025Y-54120320D01*
X133661981Y-54271779D01*
X133727702Y-54430443D01*
X133777555Y-54594785D01*
X133811059Y-54763222D01*
X133827892Y-54934132D01*
X133827892Y-55105868D01*
X133811059Y-55276778D01*
X133777555Y-55445215D01*
X133727702Y-55609557D01*
X133661981Y-55768221D01*
X133581025Y-55919680D01*
X133485613Y-56062474D01*
X133376664Y-56195228D01*
X133255228Y-56316664D01*
X133122474Y-56425613D01*
X132979680Y-56521025D01*
X132828221Y-56601981D01*
X132669557Y-56667702D01*
X132505215Y-56717555D01*
X132336778Y-56751059D01*
X132165868Y-56767892D01*
X131994132Y-56767892D01*
X131823222Y-56751059D01*
X131654785Y-56717555D01*
X131490443Y-56667702D01*
X131331779Y-56601981D01*
X131180320Y-56521025D01*
X131037526Y-56425613D01*
X130904772Y-56316664D01*
X130783336Y-56195228D01*
X130674387Y-56062474D01*
X130578975Y-55919680D01*
X130498019Y-55768221D01*
X130432298Y-55609557D01*
X130382445Y-55445215D01*
X130348941Y-55276778D01*
X130332108Y-55105868D01*
X130332108Y-54934132D01*
X130348941Y-54763222D01*
X130382445Y-54594785D01*
X130432298Y-54430443D01*
X130498019Y-54271779D01*
X130578975Y-54120320D01*
X130674387Y-53977526D01*
X130783336Y-53844772D01*
X130904772Y-53723336D01*
X131037526Y-53614387D01*
X131180320Y-53518975D01*
X131331779Y-53438019D01*
X131490443Y-53372298D01*
X131654785Y-53322445D01*
X131823222Y-53288941D01*
X131994132Y-53272108D01*
X132165868Y-53272108D01*
X132336778Y-53288941D01*
G37*
%TD.AperFunction*%
D10*
%TO.P,U1,9*%
X132080000Y-36020000D03*
%TO.P,U1,10*%
%TO.N,/TSV-*%
X132080000Y-39020000D03*
%TO.P,U1,11*%
%TO.N,N/C*%
X132080000Y-42020000D03*
%TO.P,U1,12*%
%TO.N,/TSV+*%
X132080000Y-47020000D03*
%TA.AperFunction,ComponentPad*%
D11*
%TO.P,U1,7*%
%TO.N,GND*%
G36*
X156336778Y-31288941D02*
G01*
X156505215Y-31322445D01*
X156669557Y-31372298D01*
X156828221Y-31438019D01*
X156979680Y-31518975D01*
X157122474Y-31614387D01*
X157255228Y-31723336D01*
X157376664Y-31844772D01*
X157485613Y-31977526D01*
X157581025Y-32120320D01*
X157661981Y-32271779D01*
X157727702Y-32430443D01*
X157777555Y-32594785D01*
X157811059Y-32763222D01*
X157827892Y-32934132D01*
X157827892Y-33105868D01*
X157811059Y-33276778D01*
X157777555Y-33445215D01*
X157727702Y-33609557D01*
X157661981Y-33768221D01*
X157581025Y-33919680D01*
X157485613Y-34062474D01*
X157376664Y-34195228D01*
X157255228Y-34316664D01*
X157122474Y-34425613D01*
X156979680Y-34521025D01*
X156828221Y-34601981D01*
X156669557Y-34667702D01*
X156505215Y-34717555D01*
X156336778Y-34751059D01*
X156165868Y-34767892D01*
X155994132Y-34767892D01*
X155823222Y-34751059D01*
X155654785Y-34717555D01*
X155490443Y-34667702D01*
X155331779Y-34601981D01*
X155180320Y-34521025D01*
X155037526Y-34425613D01*
X154904772Y-34316664D01*
X154783336Y-34195228D01*
X154674387Y-34062474D01*
X154578975Y-33919680D01*
X154498019Y-33768221D01*
X154432298Y-33609557D01*
X154382445Y-33445215D01*
X154348941Y-33276778D01*
X154332108Y-33105868D01*
X154332108Y-32934132D01*
X154348941Y-32763222D01*
X154382445Y-32594785D01*
X154432298Y-32430443D01*
X154498019Y-32271779D01*
X154578975Y-32120320D01*
X154674387Y-31977526D01*
X154783336Y-31844772D01*
X154904772Y-31723336D01*
X155037526Y-31614387D01*
X155180320Y-31518975D01*
X155331779Y-31438019D01*
X155490443Y-31372298D01*
X155654785Y-31322445D01*
X155823222Y-31288941D01*
X155994132Y-31272108D01*
X156165868Y-31272108D01*
X156336778Y-31288941D01*
G37*
%TD.AperFunction*%
D10*
%TO.P,U1,6*%
%TO.N,N/C*%
X156080000Y-40020000D03*
%TO.P,U1,5*%
%TO.N,/+DCDC_OUT*%
X156080000Y-43020000D03*
%TO.P,U1,4*%
%TO.N,N/C*%
X156080000Y-46020000D03*
%TD*%
D12*
%TO.P,J5,14*%
%TO.N,/INPUT3*%
X191325000Y-104170000D03*
%TO.P,J5,13*%
%TO.N,/INPUT2*%
X191325000Y-100170000D03*
%TO.P,J5,12*%
%TO.N,/INPUT1*%
X191325000Y-96170000D03*
%TO.P,J5,11*%
%TO.N,+5V*%
X191325000Y-92170000D03*
%TO.P,J5,10*%
%TO.N,GND*%
X191325000Y-88170000D03*
%TO.P,J5,9*%
%TO.N,GNDREF*%
X187325000Y-102170000D03*
%TO.P,J5,8*%
%TO.N,/Fault_IND*%
X187325000Y-98170000D03*
%TO.P,J5,7*%
%TO.N,+12V*%
X187325000Y-94170000D03*
%TO.P,J5,6*%
%TO.N,GND*%
X187325000Y-90170000D03*
%TO.P,J5,5*%
%TO.N,/GND_Electric*%
X183325000Y-104170000D03*
%TO.P,J5,4*%
%TO.N,/GND_Chassis*%
X183325000Y-100170000D03*
%TO.P,J5,3*%
%TO.N,+12V*%
X183325000Y-96170000D03*
%TO.P,J5,2*%
%TO.N,/RED_ON_GND*%
X183325000Y-92170000D03*
D13*
%TO.P,J5,1*%
%TO.N,/+DCDC_OUT*%
X183325000Y-88170000D03*
%TD*%
D14*
%TO.P,U3,4*%
%TO.N,/+DCDC_OUT*%
X134940000Y-99695000D03*
%TO.P,U3,2*%
%TO.N,/TSV-*%
X125410000Y-97155000D03*
%TO.P,U3,3*%
%TO.N,VCC*%
X134940000Y-97155000D03*
%TO.P,U3,1*%
%TO.N,Net-(R1-Pad1)*%
X125410000Y-99695000D03*
%TD*%
D15*
%TO.P,R8,2*%
%TO.N,/TSV-*%
X76835000Y-29210000D03*
D16*
%TO.P,R8,1*%
%TO.N,/TSV-_TSMP*%
X76835000Y-85090000D03*
%TD*%
D15*
%TO.P,R7,2*%
%TO.N,/TSV+*%
X88900000Y-59055000D03*
D16*
%TO.P,R7,1*%
%TO.N,/TSV+_TSMP*%
X88900000Y-114935000D03*
%TD*%
%TO.P,R2,2*%
%TO.N,GND*%
%TA.AperFunction,SMDPad,CuDef*%
G36*
G01*
X138667500Y-96095000D02*
X138192500Y-96095000D01*
G75*
G02*
X137955000Y-95857500I0J237500D01*
G01*
X137955000Y-95357500D01*
G75*
G02*
X138192500Y-95120000I237500J0D01*
G01*
X138667500Y-95120000D01*
G75*
G02*
X138905000Y-95357500I0J-237500D01*
G01*
X138905000Y-95857500D01*
G75*
G02*
X138667500Y-96095000I-237500J0D01*
G01*
G37*
%TD.AperFunction*%
%TO.P,R2,1*%
%TO.N,VCC*%
%TA.AperFunction,SMDPad,CuDef*%
G36*
G01*
X138667500Y-97920000D02*
X138192500Y-97920000D01*
G75*
G02*
X137955000Y-97682500I0J237500D01*
G01*
X137955000Y-97182500D01*
G75*
G02*
X138192500Y-96945000I237500J0D01*
G01*
X138667500Y-96945000D01*
G75*
G02*
X138905000Y-97182500I0J-237500D01*
G01*
X138905000Y-97682500D01*
G75*
G02*
X138667500Y-97920000I-237500J0D01*
G01*
G37*
%TD.AperFunction*%
%TD*%
D15*
%TO.P,R1,2*%
%TO.N,/TSAL_TSV+*%
X116205000Y-80645000D03*
D16*
%TO.P,R1,1*%
%TO.N,Net-(R1-Pad1)*%
X116205000Y-111125000D03*
%TD*%
D17*
%TO.P,J7,5*%
%TO.N,GND*%
X136145000Y-116840000D03*
%TO.P,J7,4*%
%TO.N,+12V*%
X138145000Y-116840000D03*
%TO.P,J7,3*%
%TO.N,/Fault_IND*%
X140145000Y-116840000D03*
%TO.P,J7,2*%
%TO.N,/GND_Chassis*%
X142145000Y-116840000D03*
%TO.P,J7,1*%
%TO.N,/GND_Electric*%
%TA.AperFunction,ComponentPad*%
G36*
G01*
X144745000Y-116214999D02*
X144745000Y-117465001D01*
G75*
G02*
X144495001Y-117715000I-249999J0D01*
G01*
X143794999Y-117715000D01*
G75*
G02*
X143545000Y-117465001I0J249999D01*
G01*
X143545000Y-116214999D01*
G75*
G02*
X143794999Y-115965000I249999J0D01*
G01*
X144495001Y-115965000D01*
G75*
G02*
X144745000Y-116214999I0J-249999D01*
G01*
G37*
%TD.AperFunction*%
%TD*%
%TO.P,J6,5*%
%TO.N,GNDREF*%
X155195000Y-116840000D03*
%TO.P,J6,4*%
%TO.N,/INPUT3*%
X157195000Y-116840000D03*
%TO.P,J6,3*%
%TO.N,/INPUT2*%
X159195000Y-116840000D03*
%TO.P,J6,2*%
%TO.N,/INPUT1*%
X161195000Y-116840000D03*
%TO.P,J6,1*%
%TO.N,+5V*%
%TA.AperFunction,ComponentPad*%
G36*
G01*
X163795000Y-116214999D02*
X163795000Y-117465001D01*
G75*
G02*
X163545001Y-117715000I-249999J0D01*
G01*
X162844999Y-117715000D01*
G75*
G02*
X162595000Y-117465001I0J249999D01*
G01*
X162595000Y-116214999D01*
G75*
G02*
X162844999Y-115965000I249999J0D01*
G01*
X163545001Y-115965000D01*
G75*
G02*
X163795000Y-116214999I0J-249999D01*
G01*
G37*
%TD.AperFunction*%
%TD*%
%TO.P,J4,1*%
%TO.N,/TSV-_TSMP*%
%TA.AperFunction,ComponentPad*%
G36*
G01*
X75605000Y-97035001D02*
X75605000Y-94734999D01*
G75*
G02*
X75854999Y-94485000I249999J0D01*
G01*
X77815001Y-94485000D01*
G75*
G02*
X78065000Y-94734999I0J-249999D01*
G01*
X78065000Y-97035001D01*
G75*
G02*
X77815001Y-97285000I-249999J0D01*
G01*
X75854999Y-97285000D01*
G75*
G02*
X75605000Y-97035001I0J249999D01*
G01*
G37*
%TD.AperFunction*%
%TD*%
%TO.P,J3,1*%
%TO.N,/TSV+_TSMP*%
%TA.AperFunction,ComponentPad*%
G36*
G01*
X102830000Y-112514999D02*
X102830000Y-114815001D01*
G75*
G02*
X102580001Y-115065000I-249999J0D01*
G01*
X100619999Y-115065000D01*
G75*
G02*
X100370000Y-114815001I0J249999D01*
G01*
X100370000Y-112514999D01*
G75*
G02*
X100619999Y-112265000I249999J0D01*
G01*
X102580001Y-112265000D01*
G75*
G02*
X102830000Y-112514999I0J-249999D01*
G01*
G37*
%TD.AperFunction*%
%TD*%
D18*
%TO.P,J2,3*%
%TO.N,/TSV-*%
X89535000Y-39395000D03*
%TO.P,J2,2*%
X89535000Y-35255000D03*
%TO.P,J2,1*%
%TA.AperFunction,ComponentPad*%
G36*
G01*
X87885000Y-32185000D02*
X87885000Y-30045000D01*
G75*
G02*
X88135000Y-29795000I250000J0D01*
G01*
X90935000Y-29795000D01*
G75*
G02*
X91185000Y-30045000I0J-250000D01*
G01*
X91185000Y-32185000D01*
G75*
G02*
X90935000Y-32435000I-250000J0D01*
G01*
X88135000Y-32435000D01*
G75*
G02*
X87885000Y-32185000I0J250000D01*
G01*
G37*
%TD.AperFunction*%
%TD*%
D19*
%TO.P,J1,3*%
%TO.N,/TSV+*%
X112400000Y-59055000D03*
%TO.P,J1,2*%
X108260000Y-59055000D03*
%TO.P,J1,1*%
%TA.AperFunction,ComponentPad*%
G36*
G01*
X105190000Y-60705000D02*
X103050000Y-60705000D01*
G75*
G02*
X102800000Y-60455000I0J250000D01*
G01*
X102800000Y-57655000D01*
G75*
G02*
X103050000Y-57405000I250000J0D01*
G01*
X105190000Y-57405000D01*
G75*
G02*
X105440000Y-57655000I0J-250000D01*
G01*
X105440000Y-60455000D01*
G75*
G02*
X105190000Y-60705000I-250000J0D01*
G01*
G37*
%TD.AperFunction*%
%TD*%
D20*
%TO.P,F1,1*%
%TO.N,/TSAL_TSV+*%
X104140000Y-91440000D03*
%TO.P,F1,2*%
%TO.N,/TSV+*%
X104140000Y-68940000D03*
%TD*%
D21*
%TO.P,C8,2*%
%TO.N,GND*%
X195580000Y-60880000D03*
%TO.P,C8,1*%
%TO.N,/+DCDC_OUT*%
X195580000Y-55880000D03*
%TD*%
D22*
%TO.P,C7,2*%
%TO.N,GND*%
X176530000Y-62230000D03*
D16*
%TO.P,C7,1*%
%TO.N,/+DCDC_OUT*%
X176530000Y-54730000D03*
%TD*%
D22*
%TO.P,C6,2*%
%TO.N,GND*%
X173990000Y-31870000D03*
D16*
%TO.P,C6,1*%
%TO.N,/+DCDC_OUT*%
X173990000Y-39370000D03*
%TD*%
D22*
%TO.P,C5,2*%
%TO.N,GND*%
X195580000Y-31870000D03*
D16*
%TO.P,C5,1*%
%TO.N,/+DCDC_OUT*%
X195580000Y-39370000D03*
%TD*%
D22*
%TO.P,C4,2*%
%TO.N,/TSV-*%
X107315000Y-37585000D03*
D16*
%TO.P,C4,1*%
%TO.N,/TSV+*%
X107315000Y-45085000D03*
%TD*%
D23*
%TO.N,VCC*%
X154305000Y-85090000D03*
X149225000Y-81915000D03*
%TD*%
D24*
%TO.N,VCC*%
X154305000Y-85090000D02*
X151130000Y-85090000D01*
X151130000Y-85090000D02*
X149860000Y-83820000D01*
X149860000Y-83820000D02*
X149225000Y-83185000D01*
X149225000Y-83185000D02*
X149225000Y-81915000D01*
X150772500Y-85090000D02*
X138430000Y-97432500D01*
X151130000Y-85090000D02*
X150772500Y-85090000D01*
X135217500Y-97432500D02*
X134940000Y-97155000D01*
X138430000Y-97432500D02*
X135217500Y-97432500D01*
D25*
%TO.N,/TSV-*%
X132080000Y-39020000D02*
X137445000Y-39020000D01*
X137445000Y-39020000D02*
X143510000Y-45085000D01*
X143510000Y-45085000D02*
X143510000Y-55245000D01*
X125410000Y-73345000D02*
X125410000Y-97094991D01*
X143510000Y-55245000D02*
X125410000Y-73345000D01*
D26*
%TO.N,/+DCDC_OUT*%
X176530000Y-54730000D02*
X179190000Y-54730000D01*
X179190000Y-54730000D02*
X183325000Y-58865000D01*
X183325000Y-58865000D02*
X183325000Y-88170000D01*
D25*
X183325000Y-88170000D02*
X179165000Y-88170000D01*
X167640000Y-99695000D02*
X134940000Y-99695000D01*
X179165000Y-88170000D02*
X167640000Y-99695000D01*
%TO.N,/TSAL_TSV+*%
X105410000Y-91440000D02*
X116205000Y-80645000D01*
X104140000Y-91440000D02*
X105410000Y-91440000D01*
%TO.N,/TSV+_TSMP*%
X90170000Y-113665000D02*
X88900000Y-114935000D01*
X101600000Y-113665000D02*
X90170000Y-113665000D01*
%TO.N,/TSV-_TSMP*%
X76835000Y-95885000D02*
X76835000Y-85090000D01*
%TO.N,Net-(R1-Pad1)*%
X116205000Y-108900000D02*
X125410000Y-99695000D01*
X116205000Y-111125000D02*
X116205000Y-108900000D01*
%TD*%
D27*
%TO.N,/+DCDC_OUT*%
X199806083Y-37095598D02*
X199946550Y-37138207D01*
X200076004Y-37207402D01*
X200189475Y-37300525D01*
X200282598Y-37413996D01*
X200351793Y-37543450D01*
X200394402Y-37683917D01*
X200410000Y-37842281D01*
X200410000Y-57407719D01*
X200394402Y-57566083D01*
X200351793Y-57706550D01*
X200282598Y-57836004D01*
X200189475Y-57949475D01*
X200076004Y-58042598D01*
X199946550Y-58111793D01*
X199806083Y-58154402D01*
X199647719Y-58170000D01*
X154682281Y-58170000D01*
X154523917Y-58154402D01*
X154383450Y-58111793D01*
X154253996Y-58042598D01*
X154140525Y-57949475D01*
X154047402Y-57836004D01*
X153978207Y-57706550D01*
X153935598Y-57566083D01*
X153920000Y-57407719D01*
X153920000Y-56855830D01*
X194609827Y-56855830D01*
X194663039Y-57148894D01*
X194928207Y-57303402D01*
X195218423Y-57403211D01*
X195522534Y-57444483D01*
X195828854Y-57425633D01*
X196125611Y-57347385D01*
X196401399Y-57212746D01*
X196496961Y-57148894D01*
X196550173Y-56855830D01*
X195580000Y-55885657D01*
X194609827Y-56855830D01*
X153920000Y-56855830D01*
X153920000Y-55990043D01*
X175275614Y-55990043D01*
X175376787Y-56324068D01*
X175709933Y-56518419D01*
X176074594Y-56644042D01*
X176456755Y-56696109D01*
X176841731Y-56672620D01*
X177214728Y-56574477D01*
X177561410Y-56405453D01*
X177683213Y-56324068D01*
X177784386Y-55990043D01*
X176530000Y-54735657D01*
X175275614Y-55990043D01*
X153920000Y-55990043D01*
X153920000Y-54656755D01*
X174563891Y-54656755D01*
X174587380Y-55041731D01*
X174685523Y-55414728D01*
X174854547Y-55761410D01*
X174935932Y-55883213D01*
X175269957Y-55984386D01*
X176524343Y-54730000D01*
X176535657Y-54730000D01*
X177790043Y-55984386D01*
X178124068Y-55883213D01*
X178159466Y-55822534D01*
X194015517Y-55822534D01*
X194034367Y-56128854D01*
X194112615Y-56425611D01*
X194247254Y-56701399D01*
X194311106Y-56796961D01*
X194604170Y-56850173D01*
X195574343Y-55880000D01*
X195585657Y-55880000D01*
X196555830Y-56850173D01*
X196848894Y-56796961D01*
X197003402Y-56531793D01*
X197103211Y-56241577D01*
X197144483Y-55937466D01*
X197125633Y-55631146D01*
X197047385Y-55334389D01*
X196912746Y-55058601D01*
X196848894Y-54963039D01*
X196555830Y-54909827D01*
X195585657Y-55880000D01*
X195574343Y-55880000D01*
X194604170Y-54909827D01*
X194311106Y-54963039D01*
X194156598Y-55228207D01*
X194056789Y-55518423D01*
X194015517Y-55822534D01*
X178159466Y-55822534D01*
X178318419Y-55550067D01*
X178444042Y-55185406D01*
X178482358Y-54904170D01*
X194609827Y-54904170D01*
X195580000Y-55874343D01*
X196550173Y-54904170D01*
X196496961Y-54611106D01*
X196231793Y-54456598D01*
X195941577Y-54356789D01*
X195637466Y-54315517D01*
X195331146Y-54334367D01*
X195034389Y-54412615D01*
X194758601Y-54547254D01*
X194663039Y-54611106D01*
X194609827Y-54904170D01*
X178482358Y-54904170D01*
X178496109Y-54803245D01*
X178472620Y-54418269D01*
X178374477Y-54045272D01*
X178205453Y-53698590D01*
X178124068Y-53576787D01*
X177790043Y-53475614D01*
X176535657Y-54730000D01*
X176524343Y-54730000D01*
X175269957Y-53475614D01*
X174935932Y-53576787D01*
X174741581Y-53909933D01*
X174615958Y-54274594D01*
X174563891Y-54656755D01*
X153920000Y-54656755D01*
X153920000Y-53469957D01*
X175275614Y-53469957D01*
X176530000Y-54724343D01*
X177784386Y-53469957D01*
X177683213Y-53135932D01*
X177350067Y-52941581D01*
X176985406Y-52815958D01*
X176603245Y-52763891D01*
X176218269Y-52787380D01*
X175845272Y-52885523D01*
X175498590Y-53054547D01*
X175376787Y-53135932D01*
X175275614Y-53469957D01*
X153920000Y-53469957D01*
X153920000Y-47910337D01*
X154038523Y-47973689D01*
X154181406Y-48017032D01*
X154330000Y-48031667D01*
X157830000Y-48031667D01*
X157978594Y-48017032D01*
X158121477Y-47973689D01*
X158253160Y-47903303D01*
X158368580Y-47808580D01*
X158463303Y-47693160D01*
X158533689Y-47561477D01*
X158577032Y-47418594D01*
X158591667Y-47270000D01*
X158591667Y-44770000D01*
X158577032Y-44621406D01*
X158546271Y-44520001D01*
X158577033Y-44418594D01*
X158591668Y-44270000D01*
X158588000Y-43213500D01*
X158398500Y-43024000D01*
X156084000Y-43024000D01*
X156084000Y-43044000D01*
X156076000Y-43044000D01*
X156076000Y-43024000D01*
X156056000Y-43024000D01*
X156056000Y-43016000D01*
X156076000Y-43016000D01*
X156076000Y-42996000D01*
X156084000Y-42996000D01*
X156084000Y-43016000D01*
X158398500Y-43016000D01*
X158588000Y-42826500D01*
X158591668Y-41770000D01*
X158577033Y-41621406D01*
X158546271Y-41519999D01*
X158577032Y-41418594D01*
X158591667Y-41270000D01*
X158591667Y-40630043D01*
X172735614Y-40630043D01*
X172836787Y-40964068D01*
X173169933Y-41158419D01*
X173534594Y-41284042D01*
X173916755Y-41336109D01*
X174301731Y-41312620D01*
X174674728Y-41214477D01*
X175021410Y-41045453D01*
X175143213Y-40964068D01*
X175244386Y-40630043D01*
X194325614Y-40630043D01*
X194426787Y-40964068D01*
X194759933Y-41158419D01*
X195124594Y-41284042D01*
X195506755Y-41336109D01*
X195891731Y-41312620D01*
X196264728Y-41214477D01*
X196611410Y-41045453D01*
X196733213Y-40964068D01*
X196834386Y-40630043D01*
X195580000Y-39375657D01*
X194325614Y-40630043D01*
X175244386Y-40630043D01*
X173990000Y-39375657D01*
X172735614Y-40630043D01*
X158591667Y-40630043D01*
X158591667Y-39296755D01*
X172023891Y-39296755D01*
X172047380Y-39681731D01*
X172145523Y-40054728D01*
X172314547Y-40401410D01*
X172395932Y-40523213D01*
X172729957Y-40624386D01*
X173984343Y-39370000D01*
X173995657Y-39370000D01*
X175250043Y-40624386D01*
X175584068Y-40523213D01*
X175778419Y-40190067D01*
X175904042Y-39825406D01*
X175956109Y-39443245D01*
X175947172Y-39296755D01*
X193613891Y-39296755D01*
X193637380Y-39681731D01*
X193735523Y-40054728D01*
X193904547Y-40401410D01*
X193985932Y-40523213D01*
X194319957Y-40624386D01*
X195574343Y-39370000D01*
X195585657Y-39370000D01*
X196840043Y-40624386D01*
X197174068Y-40523213D01*
X197368419Y-40190067D01*
X197494042Y-39825406D01*
X197546109Y-39443245D01*
X197522620Y-39058269D01*
X197424477Y-38685272D01*
X197255453Y-38338590D01*
X197174068Y-38216787D01*
X196840043Y-38115614D01*
X195585657Y-39370000D01*
X195574343Y-39370000D01*
X194319957Y-38115614D01*
X193985932Y-38216787D01*
X193791581Y-38549933D01*
X193665958Y-38914594D01*
X193613891Y-39296755D01*
X175947172Y-39296755D01*
X175932620Y-39058269D01*
X175834477Y-38685272D01*
X175665453Y-38338590D01*
X175584068Y-38216787D01*
X175250043Y-38115614D01*
X173995657Y-39370000D01*
X173984343Y-39370000D01*
X172729957Y-38115614D01*
X172395932Y-38216787D01*
X172201581Y-38549933D01*
X172075958Y-38914594D01*
X172023891Y-39296755D01*
X158591667Y-39296755D01*
X158591667Y-38770000D01*
X158577032Y-38621406D01*
X158533689Y-38478523D01*
X158463303Y-38346840D01*
X158368580Y-38231420D01*
X158253160Y-38136697D01*
X158203133Y-38109957D01*
X172735614Y-38109957D01*
X173990000Y-39364343D01*
X175244386Y-38109957D01*
X194325614Y-38109957D01*
X195580000Y-39364343D01*
X196834386Y-38109957D01*
X196733213Y-37775932D01*
X196400067Y-37581581D01*
X196035406Y-37455958D01*
X195653245Y-37403891D01*
X195268269Y-37427380D01*
X194895272Y-37525523D01*
X194548590Y-37694547D01*
X194426787Y-37775932D01*
X194325614Y-38109957D01*
X175244386Y-38109957D01*
X175143213Y-37775932D01*
X174810067Y-37581581D01*
X174445406Y-37455958D01*
X174063245Y-37403891D01*
X173678269Y-37427380D01*
X173305272Y-37525523D01*
X172958590Y-37694547D01*
X172836787Y-37775932D01*
X172735614Y-38109957D01*
X158203133Y-38109957D01*
X158121477Y-38066311D01*
X157978594Y-38022968D01*
X157830000Y-38008333D01*
X154330000Y-38008333D01*
X154181406Y-38022968D01*
X154038523Y-38066311D01*
X153920000Y-38129663D01*
X153920000Y-37842281D01*
X153935598Y-37683917D01*
X153978207Y-37543450D01*
X154047402Y-37413996D01*
X154140525Y-37300525D01*
X154253996Y-37207402D01*
X154383450Y-37138207D01*
X154523917Y-37095598D01*
X154682281Y-37080000D01*
X199647719Y-37080000D01*
X199806083Y-37095598D01*
%TA.AperFunction,Conductor*%
D28*
G36*
X199806083Y-37095598D02*
G01*
X199946550Y-37138207D01*
X200076004Y-37207402D01*
X200189475Y-37300525D01*
X200282598Y-37413996D01*
X200351793Y-37543450D01*
X200394402Y-37683917D01*
X200410000Y-37842281D01*
X200410000Y-57407719D01*
X200394402Y-57566083D01*
X200351793Y-57706550D01*
X200282598Y-57836004D01*
X200189475Y-57949475D01*
X200076004Y-58042598D01*
X199946550Y-58111793D01*
X199806083Y-58154402D01*
X199647719Y-58170000D01*
X154682281Y-58170000D01*
X154523917Y-58154402D01*
X154383450Y-58111793D01*
X154253996Y-58042598D01*
X154140525Y-57949475D01*
X154047402Y-57836004D01*
X153978207Y-57706550D01*
X153935598Y-57566083D01*
X153920000Y-57407719D01*
X153920000Y-56855830D01*
X194609827Y-56855830D01*
X194663039Y-57148894D01*
X194928207Y-57303402D01*
X195218423Y-57403211D01*
X195522534Y-57444483D01*
X195828854Y-57425633D01*
X196125611Y-57347385D01*
X196401399Y-57212746D01*
X196496961Y-57148894D01*
X196550173Y-56855830D01*
X195580000Y-55885657D01*
X194609827Y-56855830D01*
X153920000Y-56855830D01*
X153920000Y-55990043D01*
X175275614Y-55990043D01*
X175376787Y-56324068D01*
X175709933Y-56518419D01*
X176074594Y-56644042D01*
X176456755Y-56696109D01*
X176841731Y-56672620D01*
X177214728Y-56574477D01*
X177561410Y-56405453D01*
X177683213Y-56324068D01*
X177784386Y-55990043D01*
X176530000Y-54735657D01*
X175275614Y-55990043D01*
X153920000Y-55990043D01*
X153920000Y-54656755D01*
X174563891Y-54656755D01*
X174587380Y-55041731D01*
X174685523Y-55414728D01*
X174854547Y-55761410D01*
X174935932Y-55883213D01*
X175269957Y-55984386D01*
X176524343Y-54730000D01*
X176535657Y-54730000D01*
X177790043Y-55984386D01*
X178124068Y-55883213D01*
X178159466Y-55822534D01*
X194015517Y-55822534D01*
X194034367Y-56128854D01*
X194112615Y-56425611D01*
X194247254Y-56701399D01*
X194311106Y-56796961D01*
X194604170Y-56850173D01*
X195574343Y-55880000D01*
X195585657Y-55880000D01*
X196555830Y-56850173D01*
X196848894Y-56796961D01*
X197003402Y-56531793D01*
X197103211Y-56241577D01*
X197144483Y-55937466D01*
X197125633Y-55631146D01*
X197047385Y-55334389D01*
X196912746Y-55058601D01*
X196848894Y-54963039D01*
X196555830Y-54909827D01*
X195585657Y-55880000D01*
X195574343Y-55880000D01*
X194604170Y-54909827D01*
X194311106Y-54963039D01*
X194156598Y-55228207D01*
X194056789Y-55518423D01*
X194015517Y-55822534D01*
X178159466Y-55822534D01*
X178318419Y-55550067D01*
X178444042Y-55185406D01*
X178482358Y-54904170D01*
X194609827Y-54904170D01*
X195580000Y-55874343D01*
X196550173Y-54904170D01*
X196496961Y-54611106D01*
X196231793Y-54456598D01*
X195941577Y-54356789D01*
X195637466Y-54315517D01*
X195331146Y-54334367D01*
X195034389Y-54412615D01*
X194758601Y-54547254D01*
X194663039Y-54611106D01*
X194609827Y-54904170D01*
X178482358Y-54904170D01*
X178496109Y-54803245D01*
X178472620Y-54418269D01*
X178374477Y-54045272D01*
X178205453Y-53698590D01*
X178124068Y-53576787D01*
X177790043Y-53475614D01*
X176535657Y-54730000D01*
X176524343Y-54730000D01*
X175269957Y-53475614D01*
X174935932Y-53576787D01*
X174741581Y-53909933D01*
X174615958Y-54274594D01*
X174563891Y-54656755D01*
X153920000Y-54656755D01*
X153920000Y-53469957D01*
X175275614Y-53469957D01*
X176530000Y-54724343D01*
X177784386Y-53469957D01*
X177683213Y-53135932D01*
X177350067Y-52941581D01*
X176985406Y-52815958D01*
X176603245Y-52763891D01*
X176218269Y-52787380D01*
X175845272Y-52885523D01*
X175498590Y-53054547D01*
X175376787Y-53135932D01*
X175275614Y-53469957D01*
X153920000Y-53469957D01*
X153920000Y-47910337D01*
X154038523Y-47973689D01*
X154181406Y-48017032D01*
X154330000Y-48031667D01*
X157830000Y-48031667D01*
X157978594Y-48017032D01*
X158121477Y-47973689D01*
X158253160Y-47903303D01*
X158368580Y-47808580D01*
X158463303Y-47693160D01*
X158533689Y-47561477D01*
X158577032Y-47418594D01*
X158591667Y-47270000D01*
X158591667Y-44770000D01*
X158577032Y-44621406D01*
X158546271Y-44520001D01*
X158577033Y-44418594D01*
X158591668Y-44270000D01*
X158588000Y-43213500D01*
X158398500Y-43024000D01*
X156084000Y-43024000D01*
X156084000Y-43044000D01*
X156076000Y-43044000D01*
X156076000Y-43024000D01*
X156056000Y-43024000D01*
X156056000Y-43016000D01*
X156076000Y-43016000D01*
X156076000Y-42996000D01*
X156084000Y-42996000D01*
X156084000Y-43016000D01*
X158398500Y-43016000D01*
X158588000Y-42826500D01*
X158591668Y-41770000D01*
X158577033Y-41621406D01*
X158546271Y-41519999D01*
X158577032Y-41418594D01*
X158591667Y-41270000D01*
X158591667Y-40630043D01*
X172735614Y-40630043D01*
X172836787Y-40964068D01*
X173169933Y-41158419D01*
X173534594Y-41284042D01*
X173916755Y-41336109D01*
X174301731Y-41312620D01*
X174674728Y-41214477D01*
X175021410Y-41045453D01*
X175143213Y-40964068D01*
X175244386Y-40630043D01*
X194325614Y-40630043D01*
X194426787Y-40964068D01*
X194759933Y-41158419D01*
X195124594Y-41284042D01*
X195506755Y-41336109D01*
X195891731Y-41312620D01*
X196264728Y-41214477D01*
X196611410Y-41045453D01*
X196733213Y-40964068D01*
X196834386Y-40630043D01*
X195580000Y-39375657D01*
X194325614Y-40630043D01*
X175244386Y-40630043D01*
X173990000Y-39375657D01*
X172735614Y-40630043D01*
X158591667Y-40630043D01*
X158591667Y-39296755D01*
X172023891Y-39296755D01*
X172047380Y-39681731D01*
X172145523Y-40054728D01*
X172314547Y-40401410D01*
X172395932Y-40523213D01*
X172729957Y-40624386D01*
X173984343Y-39370000D01*
X173995657Y-39370000D01*
X175250043Y-40624386D01*
X175584068Y-40523213D01*
X175778419Y-40190067D01*
X175904042Y-39825406D01*
X175956109Y-39443245D01*
X175947172Y-39296755D01*
X193613891Y-39296755D01*
X193637380Y-39681731D01*
X193735523Y-40054728D01*
X193904547Y-40401410D01*
X193985932Y-40523213D01*
X194319957Y-40624386D01*
X195574343Y-39370000D01*
X195585657Y-39370000D01*
X196840043Y-40624386D01*
X197174068Y-40523213D01*
X197368419Y-40190067D01*
X197494042Y-39825406D01*
X197546109Y-39443245D01*
X197522620Y-39058269D01*
X197424477Y-38685272D01*
X197255453Y-38338590D01*
X197174068Y-38216787D01*
X196840043Y-38115614D01*
X195585657Y-39370000D01*
X195574343Y-39370000D01*
X194319957Y-38115614D01*
X193985932Y-38216787D01*
X193791581Y-38549933D01*
X193665958Y-38914594D01*
X193613891Y-39296755D01*
X175947172Y-39296755D01*
X175932620Y-39058269D01*
X175834477Y-38685272D01*
X175665453Y-38338590D01*
X175584068Y-38216787D01*
X175250043Y-38115614D01*
X173995657Y-39370000D01*
X173984343Y-39370000D01*
X172729957Y-38115614D01*
X172395932Y-38216787D01*
X172201581Y-38549933D01*
X172075958Y-38914594D01*
X172023891Y-39296755D01*
X158591667Y-39296755D01*
X158591667Y-38770000D01*
X158577032Y-38621406D01*
X158533689Y-38478523D01*
X158463303Y-38346840D01*
X158368580Y-38231420D01*
X158253160Y-38136697D01*
X158203133Y-38109957D01*
X172735614Y-38109957D01*
X173990000Y-39364343D01*
X175244386Y-38109957D01*
X194325614Y-38109957D01*
X195580000Y-39364343D01*
X196834386Y-38109957D01*
X196733213Y-37775932D01*
X196400067Y-37581581D01*
X196035406Y-37455958D01*
X195653245Y-37403891D01*
X195268269Y-37427380D01*
X194895272Y-37525523D01*
X194548590Y-37694547D01*
X194426787Y-37775932D01*
X194325614Y-38109957D01*
X175244386Y-38109957D01*
X175143213Y-37775932D01*
X174810067Y-37581581D01*
X174445406Y-37455958D01*
X174063245Y-37403891D01*
X173678269Y-37427380D01*
X173305272Y-37525523D01*
X172958590Y-37694547D01*
X172836787Y-37775932D01*
X172735614Y-38109957D01*
X158203133Y-38109957D01*
X158121477Y-38066311D01*
X157978594Y-38022968D01*
X157830000Y-38008333D01*
X154330000Y-38008333D01*
X154181406Y-38022968D01*
X154038523Y-38066311D01*
X153920000Y-38129663D01*
X153920000Y-37842281D01*
X153935598Y-37683917D01*
X153978207Y-37543450D01*
X154047402Y-37413996D01*
X154140525Y-37300525D01*
X154253996Y-37207402D01*
X154383450Y-37138207D01*
X154523917Y-37095598D01*
X154682281Y-37080000D01*
X199647719Y-37080000D01*
X199806083Y-37095598D01*
G37*
%TD.AperFunction*%
%TD*%
D24*
%TO.N,GND*%
X205027001Y-121207000D02*
X134855194Y-121207000D01*
X134816610Y-121079804D01*
X134800000Y-120911160D01*
X134800000Y-116914000D01*
X134857000Y-116914000D01*
X134857000Y-117189000D01*
X134896185Y-117438854D01*
X134983361Y-117676263D01*
X135115179Y-117892103D01*
X135286572Y-118078079D01*
X135490954Y-118227045D01*
X135720471Y-118333275D01*
X135870756Y-118373465D01*
X136071000Y-118228544D01*
X136071000Y-116914000D01*
X134857000Y-116914000D01*
X134800000Y-116914000D01*
X134800000Y-116491000D01*
X134857000Y-116491000D01*
X134857000Y-116766000D01*
X136071000Y-116766000D01*
X136071000Y-115451456D01*
X136219000Y-115451456D01*
X136219000Y-116766000D01*
X136239000Y-116766000D01*
X136239000Y-116914000D01*
X136219000Y-116914000D01*
X136219000Y-118228544D01*
X136419244Y-118373465D01*
X136569529Y-118333275D01*
X136799046Y-118227045D01*
X137003428Y-118078079D01*
X137143992Y-117925555D01*
X137229840Y-118030160D01*
X137425963Y-118191115D01*
X137649719Y-118310714D01*
X137892508Y-118384364D01*
X138145000Y-118409232D01*
X138397491Y-118384364D01*
X138640280Y-118310714D01*
X138864036Y-118191115D01*
X139060160Y-118030160D01*
X139145000Y-117926783D01*
X139229840Y-118030160D01*
X139425963Y-118191115D01*
X139649719Y-118310714D01*
X139892508Y-118384364D01*
X140145000Y-118409232D01*
X140397491Y-118384364D01*
X140640280Y-118310714D01*
X140864036Y-118191115D01*
X141060160Y-118030160D01*
X141145000Y-117926783D01*
X141229840Y-118030160D01*
X141425963Y-118191115D01*
X141649719Y-118310714D01*
X141892508Y-118384364D01*
X142145000Y-118409232D01*
X142397491Y-118384364D01*
X142640280Y-118310714D01*
X142864036Y-118191115D01*
X143052257Y-118036645D01*
X143129380Y-118130620D01*
X143272026Y-118247686D01*
X143434769Y-118334674D01*
X143611355Y-118388241D01*
X143794999Y-118406328D01*
X144495001Y-118406328D01*
X144678645Y-118388241D01*
X144855231Y-118334674D01*
X145017974Y-118247686D01*
X145160620Y-118130620D01*
X145277686Y-117987974D01*
X145364674Y-117825231D01*
X145418241Y-117648645D01*
X145436328Y-117465001D01*
X145436328Y-116501725D01*
X153907000Y-116501725D01*
X153907000Y-117178274D01*
X153925636Y-117367491D01*
X153999286Y-117610280D01*
X154118885Y-117834036D01*
X154279840Y-118030160D01*
X154475963Y-118191115D01*
X154699719Y-118310714D01*
X154942508Y-118384364D01*
X155195000Y-118409232D01*
X155447491Y-118384364D01*
X155690280Y-118310714D01*
X155914036Y-118191115D01*
X156110160Y-118030160D01*
X156195000Y-117926783D01*
X156279840Y-118030160D01*
X156475963Y-118191115D01*
X156699719Y-118310714D01*
X156942508Y-118384364D01*
X157195000Y-118409232D01*
X157447491Y-118384364D01*
X157690280Y-118310714D01*
X157914036Y-118191115D01*
X158110160Y-118030160D01*
X158195000Y-117926783D01*
X158279840Y-118030160D01*
X158475963Y-118191115D01*
X158699719Y-118310714D01*
X158942508Y-118384364D01*
X159195000Y-118409232D01*
X159447491Y-118384364D01*
X159690280Y-118310714D01*
X159914036Y-118191115D01*
X160110160Y-118030160D01*
X160195000Y-117926783D01*
X160279840Y-118030160D01*
X160475963Y-118191115D01*
X160699719Y-118310714D01*
X160942508Y-118384364D01*
X161195000Y-118409232D01*
X161447491Y-118384364D01*
X161690280Y-118310714D01*
X161914036Y-118191115D01*
X162102257Y-118036645D01*
X162179380Y-118130620D01*
X162322026Y-118247686D01*
X162484769Y-118334674D01*
X162661355Y-118388241D01*
X162844999Y-118406328D01*
X163545001Y-118406328D01*
X163728645Y-118388241D01*
X163905231Y-118334674D01*
X164067974Y-118247686D01*
X164210620Y-118130620D01*
X164327686Y-117987974D01*
X164414674Y-117825231D01*
X164468241Y-117648645D01*
X164486328Y-117465001D01*
X164486328Y-116214999D01*
X164468241Y-116031355D01*
X164414674Y-115854769D01*
X164327686Y-115692026D01*
X164210620Y-115549380D01*
X164067974Y-115432314D01*
X163905231Y-115345326D01*
X163728645Y-115291759D01*
X163545001Y-115273672D01*
X162844999Y-115273672D01*
X162661355Y-115291759D01*
X162484769Y-115345326D01*
X162322026Y-115432314D01*
X162179380Y-115549380D01*
X162102257Y-115643355D01*
X161914037Y-115488885D01*
X161690281Y-115369286D01*
X161447492Y-115295636D01*
X161195000Y-115270768D01*
X160942509Y-115295636D01*
X160699720Y-115369286D01*
X160475964Y-115488885D01*
X160279841Y-115649840D01*
X160195000Y-115753217D01*
X160110160Y-115649840D01*
X159914037Y-115488885D01*
X159690281Y-115369286D01*
X159447492Y-115295636D01*
X159195000Y-115270768D01*
X158942509Y-115295636D01*
X158699720Y-115369286D01*
X158475964Y-115488885D01*
X158279841Y-115649840D01*
X158195000Y-115753217D01*
X158110160Y-115649840D01*
X157914037Y-115488885D01*
X157690281Y-115369286D01*
X157447492Y-115295636D01*
X157195000Y-115270768D01*
X156942509Y-115295636D01*
X156699720Y-115369286D01*
X156475964Y-115488885D01*
X156279841Y-115649840D01*
X156195000Y-115753217D01*
X156110160Y-115649840D01*
X155914037Y-115488885D01*
X155690281Y-115369286D01*
X155447492Y-115295636D01*
X155195000Y-115270768D01*
X154942509Y-115295636D01*
X154699720Y-115369286D01*
X154475964Y-115488885D01*
X154279841Y-115649840D01*
X154118885Y-115845963D01*
X153999286Y-116069719D01*
X153925636Y-116312508D01*
X153907000Y-116501725D01*
X145436328Y-116501725D01*
X145436328Y-116214999D01*
X145418241Y-116031355D01*
X145364674Y-115854769D01*
X145277686Y-115692026D01*
X145160620Y-115549380D01*
X145017974Y-115432314D01*
X144855231Y-115345326D01*
X144678645Y-115291759D01*
X144495001Y-115273672D01*
X143794999Y-115273672D01*
X143611355Y-115291759D01*
X143434769Y-115345326D01*
X143272026Y-115432314D01*
X143129380Y-115549380D01*
X143052257Y-115643355D01*
X142864037Y-115488885D01*
X142640281Y-115369286D01*
X142397492Y-115295636D01*
X142145000Y-115270768D01*
X141892509Y-115295636D01*
X141649720Y-115369286D01*
X141425964Y-115488885D01*
X141229841Y-115649840D01*
X141145000Y-115753217D01*
X141060160Y-115649840D01*
X140864037Y-115488885D01*
X140640281Y-115369286D01*
X140397492Y-115295636D01*
X140145000Y-115270768D01*
X139892509Y-115295636D01*
X139649720Y-115369286D01*
X139425964Y-115488885D01*
X139229841Y-115649840D01*
X139145000Y-115753217D01*
X139060160Y-115649840D01*
X138864037Y-115488885D01*
X138640281Y-115369286D01*
X138397492Y-115295636D01*
X138145000Y-115270768D01*
X137892509Y-115295636D01*
X137649720Y-115369286D01*
X137425964Y-115488885D01*
X137229841Y-115649840D01*
X137143992Y-115754445D01*
X137003428Y-115601921D01*
X136799046Y-115452955D01*
X136569529Y-115346725D01*
X136419244Y-115306535D01*
X136219000Y-115451456D01*
X136071000Y-115451456D01*
X135870756Y-115306535D01*
X135720471Y-115346725D01*
X135490954Y-115452955D01*
X135286572Y-115601921D01*
X135115179Y-115787897D01*
X134983361Y-116003737D01*
X134896185Y-116241146D01*
X134857000Y-116491000D01*
X134800000Y-116491000D01*
X134800000Y-113703746D01*
X174837000Y-113703746D01*
X174837000Y-114036254D01*
X174901868Y-114362372D01*
X175029113Y-114669568D01*
X175213844Y-114946038D01*
X175448962Y-115181156D01*
X175725432Y-115365887D01*
X176032628Y-115493132D01*
X176358746Y-115558000D01*
X176691254Y-115558000D01*
X177017372Y-115493132D01*
X177324568Y-115365887D01*
X177567229Y-115203746D01*
X192937000Y-115203746D01*
X192937000Y-115536254D01*
X193001868Y-115862372D01*
X193129113Y-116169568D01*
X193313844Y-116446038D01*
X193548962Y-116681156D01*
X193825432Y-116865887D01*
X194132628Y-116993132D01*
X194458746Y-117058000D01*
X194791254Y-117058000D01*
X195117372Y-116993132D01*
X195424568Y-116865887D01*
X195701038Y-116681156D01*
X195936156Y-116446038D01*
X196120887Y-116169568D01*
X196248132Y-115862372D01*
X196313000Y-115536254D01*
X196313000Y-115203746D01*
X196248132Y-114877628D01*
X196120887Y-114570432D01*
X195936156Y-114293962D01*
X195701038Y-114058844D01*
X195424568Y-113874113D01*
X195117372Y-113746868D01*
X194791254Y-113682000D01*
X194458746Y-113682000D01*
X194132628Y-113746868D01*
X193825432Y-113874113D01*
X193548962Y-114058844D01*
X193313844Y-114293962D01*
X193129113Y-114570432D01*
X193001868Y-114877628D01*
X192937000Y-115203746D01*
X177567229Y-115203746D01*
X177601038Y-115181156D01*
X177836156Y-114946038D01*
X178020887Y-114669568D01*
X178148132Y-114362372D01*
X178213000Y-114036254D01*
X178213000Y-113703746D01*
X178148132Y-113377628D01*
X178020887Y-113070432D01*
X177836156Y-112793962D01*
X177601038Y-112558844D01*
X177324568Y-112374113D01*
X177017372Y-112246868D01*
X176691254Y-112182000D01*
X176358746Y-112182000D01*
X176032628Y-112246868D01*
X175725432Y-112374113D01*
X175448962Y-112558844D01*
X175213844Y-112793962D01*
X175029113Y-113070432D01*
X174901868Y-113377628D01*
X174837000Y-113703746D01*
X134800000Y-113703746D01*
X134800000Y-101578346D01*
X134847251Y-101583000D01*
X167547259Y-101583000D01*
X167640000Y-101592134D01*
X167732741Y-101583000D01*
X167732749Y-101583000D01*
X168010113Y-101555682D01*
X168366002Y-101447724D01*
X168693992Y-101272410D01*
X168981477Y-101036477D01*
X169040602Y-100964433D01*
X179947035Y-90058000D01*
X181629695Y-90058000D01*
X181747940Y-90121204D01*
X181799897Y-90136965D01*
X181936054Y-90248706D01*
X182304709Y-90445756D01*
X182049755Y-90616110D01*
X181771110Y-90894755D01*
X181552180Y-91222408D01*
X181401378Y-91586476D01*
X181324500Y-91972968D01*
X181324500Y-92367032D01*
X181401378Y-92753524D01*
X181552180Y-93117592D01*
X181771110Y-93445245D01*
X182049755Y-93723890D01*
X182377408Y-93942820D01*
X182741476Y-94093622D01*
X183125454Y-94170000D01*
X182741476Y-94246378D01*
X182377408Y-94397180D01*
X182049755Y-94616110D01*
X181771110Y-94894755D01*
X181552180Y-95222408D01*
X181401378Y-95586476D01*
X181324500Y-95972968D01*
X181324500Y-96367032D01*
X181401378Y-96753524D01*
X181552180Y-97117592D01*
X181771110Y-97445245D01*
X182049755Y-97723890D01*
X182377408Y-97942820D01*
X182741476Y-98093622D01*
X183125454Y-98170000D01*
X182741476Y-98246378D01*
X182377408Y-98397180D01*
X182049755Y-98616110D01*
X181771110Y-98894755D01*
X181552180Y-99222408D01*
X181401378Y-99586476D01*
X181324500Y-99972968D01*
X181324500Y-100367032D01*
X181401378Y-100753524D01*
X181552180Y-101117592D01*
X181771110Y-101445245D01*
X182049755Y-101723890D01*
X182377408Y-101942820D01*
X182741476Y-102093622D01*
X183125454Y-102170000D01*
X182741476Y-102246378D01*
X182377408Y-102397180D01*
X182049755Y-102616110D01*
X181771110Y-102894755D01*
X181552180Y-103222408D01*
X181401378Y-103586476D01*
X181324500Y-103972968D01*
X181324500Y-104367032D01*
X181401378Y-104753524D01*
X181552180Y-105117592D01*
X181771110Y-105445245D01*
X182049755Y-105723890D01*
X182377408Y-105942820D01*
X182741476Y-106093622D01*
X183127968Y-106170500D01*
X183522032Y-106170500D01*
X183908524Y-106093622D01*
X184272592Y-105942820D01*
X184600245Y-105723890D01*
X184878890Y-105445245D01*
X185097820Y-105117592D01*
X185248622Y-104753524D01*
X185325500Y-104367032D01*
X185325500Y-103972968D01*
X185248622Y-103586476D01*
X185097820Y-103222408D01*
X184878890Y-102894755D01*
X184600245Y-102616110D01*
X184272592Y-102397180D01*
X183908524Y-102246378D01*
X183524546Y-102170000D01*
X183908524Y-102093622D01*
X184272592Y-101942820D01*
X184600245Y-101723890D01*
X184878890Y-101445245D01*
X185097820Y-101117592D01*
X185248622Y-100753524D01*
X185325500Y-100367032D01*
X185325500Y-99972968D01*
X185248622Y-99586476D01*
X185097820Y-99222408D01*
X184878890Y-98894755D01*
X184600245Y-98616110D01*
X184272592Y-98397180D01*
X183908524Y-98246378D01*
X183524546Y-98170000D01*
X183908524Y-98093622D01*
X184272592Y-97942820D01*
X184600245Y-97723890D01*
X184878890Y-97445245D01*
X185097820Y-97117592D01*
X185248622Y-96753524D01*
X185325500Y-96367032D01*
X185325500Y-95972968D01*
X185248622Y-95586476D01*
X185097820Y-95222408D01*
X184878890Y-94894755D01*
X184600245Y-94616110D01*
X184272592Y-94397180D01*
X183908524Y-94246378D01*
X183524546Y-94170000D01*
X183908524Y-94093622D01*
X184199808Y-93972968D01*
X185324500Y-93972968D01*
X185324500Y-94367032D01*
X185401378Y-94753524D01*
X185552180Y-95117592D01*
X185771110Y-95445245D01*
X186049755Y-95723890D01*
X186377408Y-95942820D01*
X186741476Y-96093622D01*
X187125454Y-96170000D01*
X186741476Y-96246378D01*
X186377408Y-96397180D01*
X186049755Y-96616110D01*
X185771110Y-96894755D01*
X185552180Y-97222408D01*
X185401378Y-97586476D01*
X185324500Y-97972968D01*
X185324500Y-98367032D01*
X185401378Y-98753524D01*
X185552180Y-99117592D01*
X185771110Y-99445245D01*
X186049755Y-99723890D01*
X186377408Y-99942820D01*
X186741476Y-100093622D01*
X187125454Y-100170000D01*
X186741476Y-100246378D01*
X186377408Y-100397180D01*
X186049755Y-100616110D01*
X185771110Y-100894755D01*
X185552180Y-101222408D01*
X185401378Y-101586476D01*
X185324500Y-101972968D01*
X185324500Y-102367032D01*
X185401378Y-102753524D01*
X185552180Y-103117592D01*
X185771110Y-103445245D01*
X186049755Y-103723890D01*
X186377408Y-103942820D01*
X186741476Y-104093622D01*
X187127968Y-104170500D01*
X187522032Y-104170500D01*
X187908524Y-104093622D01*
X188272592Y-103942820D01*
X188600245Y-103723890D01*
X188878890Y-103445245D01*
X189097820Y-103117592D01*
X189248622Y-102753524D01*
X189325500Y-102367032D01*
X189325500Y-101972968D01*
X189248622Y-101586476D01*
X189097820Y-101222408D01*
X188878890Y-100894755D01*
X188600245Y-100616110D01*
X188272592Y-100397180D01*
X187908524Y-100246378D01*
X187524546Y-100170000D01*
X187908524Y-100093622D01*
X188272592Y-99942820D01*
X188600245Y-99723890D01*
X188878890Y-99445245D01*
X189097820Y-99117592D01*
X189248622Y-98753524D01*
X189325500Y-98367032D01*
X189325500Y-97972968D01*
X189248622Y-97586476D01*
X189097820Y-97222408D01*
X188878890Y-96894755D01*
X188600245Y-96616110D01*
X188272592Y-96397180D01*
X187908524Y-96246378D01*
X187524546Y-96170000D01*
X187908524Y-96093622D01*
X188272592Y-95942820D01*
X188600245Y-95723890D01*
X188878890Y-95445245D01*
X189097820Y-95117592D01*
X189248622Y-94753524D01*
X189325500Y-94367032D01*
X189325500Y-93972968D01*
X189248622Y-93586476D01*
X189097820Y-93222408D01*
X188878890Y-92894755D01*
X188600245Y-92616110D01*
X188272592Y-92397180D01*
X187908524Y-92246378D01*
X187522032Y-92169500D01*
X187431233Y-92169500D01*
X187712337Y-92142509D01*
X188089712Y-92029042D01*
X188195240Y-91972968D01*
X189324500Y-91972968D01*
X189324500Y-92367032D01*
X189401378Y-92753524D01*
X189552180Y-93117592D01*
X189771110Y-93445245D01*
X190049755Y-93723890D01*
X190377408Y-93942820D01*
X190741476Y-94093622D01*
X191125454Y-94170000D01*
X190741476Y-94246378D01*
X190377408Y-94397180D01*
X190049755Y-94616110D01*
X189771110Y-94894755D01*
X189552180Y-95222408D01*
X189401378Y-95586476D01*
X189324500Y-95972968D01*
X189324500Y-96367032D01*
X189401378Y-96753524D01*
X189552180Y-97117592D01*
X189771110Y-97445245D01*
X190049755Y-97723890D01*
X190377408Y-97942820D01*
X190741476Y-98093622D01*
X191125454Y-98170000D01*
X190741476Y-98246378D01*
X190377408Y-98397180D01*
X190049755Y-98616110D01*
X189771110Y-98894755D01*
X189552180Y-99222408D01*
X189401378Y-99586476D01*
X189324500Y-99972968D01*
X189324500Y-100367032D01*
X189401378Y-100753524D01*
X189552180Y-101117592D01*
X189771110Y-101445245D01*
X190049755Y-101723890D01*
X190377408Y-101942820D01*
X190741476Y-102093622D01*
X191125454Y-102170000D01*
X190741476Y-102246378D01*
X190377408Y-102397180D01*
X190049755Y-102616110D01*
X189771110Y-102894755D01*
X189552180Y-103222408D01*
X189401378Y-103586476D01*
X189324500Y-103972968D01*
X189324500Y-104367032D01*
X189401378Y-104753524D01*
X189552180Y-105117592D01*
X189771110Y-105445245D01*
X190049755Y-105723890D01*
X190377408Y-105942820D01*
X190741476Y-106093622D01*
X191127968Y-106170500D01*
X191522032Y-106170500D01*
X191908524Y-106093622D01*
X192272592Y-105942820D01*
X192600245Y-105723890D01*
X192878890Y-105445245D01*
X193097820Y-105117592D01*
X193248622Y-104753524D01*
X193325500Y-104367032D01*
X193325500Y-103972968D01*
X193248622Y-103586476D01*
X193097820Y-103222408D01*
X192878890Y-102894755D01*
X192600245Y-102616110D01*
X192272592Y-102397180D01*
X191908524Y-102246378D01*
X191524546Y-102170000D01*
X191908524Y-102093622D01*
X192272592Y-101942820D01*
X192600245Y-101723890D01*
X192878890Y-101445245D01*
X193097820Y-101117592D01*
X193248622Y-100753524D01*
X193325500Y-100367032D01*
X193325500Y-99972968D01*
X193248622Y-99586476D01*
X193097820Y-99222408D01*
X192878890Y-98894755D01*
X192600245Y-98616110D01*
X192272592Y-98397180D01*
X191908524Y-98246378D01*
X191524546Y-98170000D01*
X191908524Y-98093622D01*
X192272592Y-97942820D01*
X192600245Y-97723890D01*
X192878890Y-97445245D01*
X193097820Y-97117592D01*
X193248622Y-96753524D01*
X193325500Y-96367032D01*
X193325500Y-95972968D01*
X193248622Y-95586476D01*
X193097820Y-95222408D01*
X192878890Y-94894755D01*
X192600245Y-94616110D01*
X192272592Y-94397180D01*
X191908524Y-94246378D01*
X191524546Y-94170000D01*
X191908524Y-94093622D01*
X192272592Y-93942820D01*
X192600245Y-93723890D01*
X192878890Y-93445245D01*
X193097820Y-93117592D01*
X193248622Y-92753524D01*
X193325500Y-92367032D01*
X193325500Y-91972968D01*
X193248622Y-91586476D01*
X193097820Y-91222408D01*
X192878890Y-90894755D01*
X192600245Y-90616110D01*
X192272592Y-90397180D01*
X191908524Y-90246378D01*
X191522032Y-90169500D01*
X191431233Y-90169500D01*
X191712337Y-90142509D01*
X192089712Y-90029042D01*
X192437700Y-89844133D01*
X192445886Y-89838663D01*
X192571410Y-89521062D01*
X191325000Y-88274652D01*
X190078590Y-89521062D01*
X190204114Y-89838663D01*
X190551192Y-90025274D01*
X190928006Y-90140588D01*
X191214366Y-90169500D01*
X191127968Y-90169500D01*
X190741476Y-90246378D01*
X190377408Y-90397180D01*
X190049755Y-90616110D01*
X189771110Y-90894755D01*
X189552180Y-91222408D01*
X189401378Y-91586476D01*
X189324500Y-91972968D01*
X188195240Y-91972968D01*
X188437700Y-91844133D01*
X188445886Y-91838663D01*
X188571410Y-91521062D01*
X187325000Y-90274652D01*
X186078590Y-91521062D01*
X186204114Y-91838663D01*
X186551192Y-92025274D01*
X186928006Y-92140588D01*
X187214366Y-92169500D01*
X187127968Y-92169500D01*
X186741476Y-92246378D01*
X186377408Y-92397180D01*
X186049755Y-92616110D01*
X185771110Y-92894755D01*
X185552180Y-93222408D01*
X185401378Y-93586476D01*
X185324500Y-93972968D01*
X184199808Y-93972968D01*
X184272592Y-93942820D01*
X184600245Y-93723890D01*
X184878890Y-93445245D01*
X185097820Y-93117592D01*
X185248622Y-92753524D01*
X185325500Y-92367032D01*
X185325500Y-91972968D01*
X185248622Y-91586476D01*
X185097820Y-91222408D01*
X184878890Y-90894755D01*
X184600245Y-90616110D01*
X184345291Y-90445756D01*
X184713947Y-90248706D01*
X184850105Y-90136964D01*
X184902060Y-90121204D01*
X185021581Y-90057318D01*
X185126343Y-89971343D01*
X185212318Y-89866581D01*
X185276204Y-89747060D01*
X185291964Y-89695105D01*
X185403706Y-89558947D01*
X185441634Y-89487988D01*
X185354412Y-89773006D01*
X185314827Y-90165077D01*
X185352491Y-90557337D01*
X185465958Y-90934712D01*
X185650867Y-91282700D01*
X185656337Y-91290886D01*
X185973938Y-91416410D01*
X187220348Y-90170000D01*
X187429652Y-90170000D01*
X188676062Y-91416410D01*
X188993663Y-91290886D01*
X189180274Y-90943808D01*
X189295588Y-90566994D01*
X189335173Y-90174923D01*
X189297509Y-89782663D01*
X189184042Y-89405288D01*
X188999133Y-89057300D01*
X188993663Y-89049114D01*
X188676062Y-88923590D01*
X187429652Y-90170000D01*
X187220348Y-90170000D01*
X185973938Y-88923590D01*
X185658541Y-89048243D01*
X185728099Y-88818938D01*
X186078590Y-88818938D01*
X187325000Y-90065348D01*
X188571410Y-88818938D01*
X188445886Y-88501337D01*
X188098808Y-88314726D01*
X187721994Y-88199412D01*
X187381922Y-88165077D01*
X189314827Y-88165077D01*
X189352491Y-88557337D01*
X189465958Y-88934712D01*
X189650867Y-89282700D01*
X189656337Y-89290886D01*
X189973938Y-89416410D01*
X191220348Y-88170000D01*
X191429652Y-88170000D01*
X192676062Y-89416410D01*
X192993663Y-89290886D01*
X193180274Y-88943808D01*
X193295588Y-88566994D01*
X193335173Y-88174923D01*
X193297509Y-87782663D01*
X193184042Y-87405288D01*
X192999133Y-87057300D01*
X192993663Y-87049114D01*
X192676062Y-86923590D01*
X191429652Y-88170000D01*
X191220348Y-88170000D01*
X189973938Y-86923590D01*
X189656337Y-87049114D01*
X189469726Y-87396192D01*
X189354412Y-87773006D01*
X189314827Y-88165077D01*
X187381922Y-88165077D01*
X187329923Y-88159827D01*
X186937663Y-88197491D01*
X186560288Y-88310958D01*
X186212300Y-88495867D01*
X186204114Y-88501337D01*
X186078590Y-88818938D01*
X185728099Y-88818938D01*
X185777000Y-88657733D01*
X185813000Y-88292223D01*
X185813000Y-86818938D01*
X190078590Y-86818938D01*
X191325000Y-88065348D01*
X192571410Y-86818938D01*
X192445886Y-86501337D01*
X192098808Y-86314726D01*
X191721994Y-86199412D01*
X191329923Y-86159827D01*
X190937663Y-86197491D01*
X190560288Y-86310958D01*
X190212300Y-86495867D01*
X190204114Y-86501337D01*
X190078590Y-86818938D01*
X185813000Y-86818938D01*
X185813000Y-76803746D01*
X192937000Y-76803746D01*
X192937000Y-77136254D01*
X193001868Y-77462372D01*
X193129113Y-77769568D01*
X193313844Y-78046038D01*
X193548962Y-78281156D01*
X193825432Y-78465887D01*
X194132628Y-78593132D01*
X194458746Y-78658000D01*
X194791254Y-78658000D01*
X195117372Y-78593132D01*
X195424568Y-78465887D01*
X195701038Y-78281156D01*
X195936156Y-78046038D01*
X196120887Y-77769568D01*
X196248132Y-77462372D01*
X196313000Y-77136254D01*
X196313000Y-76803746D01*
X196248132Y-76477628D01*
X196120887Y-76170432D01*
X195936156Y-75893962D01*
X195701038Y-75658844D01*
X195424568Y-75474113D01*
X195117372Y-75346868D01*
X194791254Y-75282000D01*
X194458746Y-75282000D01*
X194132628Y-75346868D01*
X193825432Y-75474113D01*
X193548962Y-75658844D01*
X193313844Y-75893962D01*
X193129113Y-76170432D01*
X193001868Y-76477628D01*
X192937000Y-76803746D01*
X185813000Y-76803746D01*
X185813000Y-61866505D01*
X194698147Y-61866505D01*
X194762087Y-62131656D01*
X195021990Y-62267172D01*
X195303336Y-62349381D01*
X195595314Y-62375121D01*
X195886703Y-62343406D01*
X196166306Y-62255451D01*
X196397913Y-62131656D01*
X196461853Y-61866505D01*
X195580000Y-60984652D01*
X194698147Y-61866505D01*
X185813000Y-61866505D01*
X185813000Y-60895314D01*
X194084879Y-60895314D01*
X194116594Y-61186703D01*
X194204549Y-61466306D01*
X194328344Y-61697913D01*
X194593495Y-61761853D01*
X195475348Y-60880000D01*
X195684652Y-60880000D01*
X196566505Y-61761853D01*
X196831656Y-61697913D01*
X196967172Y-61438010D01*
X197049381Y-61156664D01*
X197075121Y-60864686D01*
X197043406Y-60573297D01*
X196955451Y-60293694D01*
X196831656Y-60062087D01*
X196566505Y-59998147D01*
X195684652Y-60880000D01*
X195475348Y-60880000D01*
X194593495Y-59998147D01*
X194328344Y-60062087D01*
X194192828Y-60321990D01*
X194110619Y-60603336D01*
X194084879Y-60895314D01*
X185813000Y-60895314D01*
X185813000Y-59893495D01*
X194698147Y-59893495D01*
X195580000Y-60775348D01*
X196461853Y-59893495D01*
X196397913Y-59628344D01*
X196138010Y-59492828D01*
X195856664Y-59410619D01*
X195564686Y-59384879D01*
X195273297Y-59416594D01*
X194993694Y-59504549D01*
X194762087Y-59628344D01*
X194698147Y-59893495D01*
X185813000Y-59893495D01*
X185813000Y-59108000D01*
X199660000Y-59108000D01*
X199727437Y-59104687D01*
X199922527Y-59085472D01*
X200054804Y-59059161D01*
X200242397Y-59002256D01*
X200367004Y-58950642D01*
X200539891Y-58858232D01*
X200652032Y-58783302D01*
X200803569Y-58658939D01*
X200898939Y-58563569D01*
X201023302Y-58412032D01*
X201098232Y-58299891D01*
X201190642Y-58127004D01*
X201242256Y-58002397D01*
X201299161Y-57814804D01*
X201325472Y-57682527D01*
X201344687Y-57487437D01*
X201348000Y-57420000D01*
X201348000Y-37830000D01*
X201344687Y-37762563D01*
X201325472Y-37567473D01*
X201299161Y-37435196D01*
X201242256Y-37247603D01*
X201190642Y-37122996D01*
X201098232Y-36950109D01*
X201023302Y-36837968D01*
X200898939Y-36686431D01*
X200803569Y-36591061D01*
X200652032Y-36466698D01*
X200539891Y-36391768D01*
X200367004Y-36299358D01*
X200242397Y-36247744D01*
X200054804Y-36190839D01*
X199922527Y-36164528D01*
X199727437Y-36145313D01*
X199660000Y-36142000D01*
X155120000Y-36142000D01*
X155120000Y-33070000D01*
X172098671Y-33070000D01*
X172111955Y-33204872D01*
X172151295Y-33334560D01*
X172215181Y-33454082D01*
X172301157Y-33558843D01*
X172405918Y-33644819D01*
X172525440Y-33708705D01*
X172655128Y-33748045D01*
X172790000Y-33761329D01*
X173744000Y-33758000D01*
X173916000Y-33586000D01*
X173916000Y-31944000D01*
X174064000Y-31944000D01*
X174064000Y-33586000D01*
X174236000Y-33758000D01*
X175190000Y-33761329D01*
X175324872Y-33748045D01*
X175454560Y-33708705D01*
X175574082Y-33644819D01*
X175678843Y-33558843D01*
X175764819Y-33454082D01*
X175828705Y-33334560D01*
X175868045Y-33204872D01*
X175881329Y-33070000D01*
X193688671Y-33070000D01*
X193701955Y-33204872D01*
X193741295Y-33334560D01*
X193805181Y-33454082D01*
X193891157Y-33558843D01*
X193995918Y-33644819D01*
X194115440Y-33708705D01*
X194245128Y-33748045D01*
X194380000Y-33761329D01*
X195334000Y-33758000D01*
X195506000Y-33586000D01*
X195506000Y-31944000D01*
X195654000Y-31944000D01*
X195654000Y-33586000D01*
X195826000Y-33758000D01*
X196780000Y-33761329D01*
X196914872Y-33748045D01*
X197044560Y-33708705D01*
X197164082Y-33644819D01*
X197268843Y-33558843D01*
X197354819Y-33454082D01*
X197418705Y-33334560D01*
X197458045Y-33204872D01*
X197471329Y-33070000D01*
X197468000Y-32116000D01*
X197296000Y-31944000D01*
X195654000Y-31944000D01*
X195506000Y-31944000D01*
X193864000Y-31944000D01*
X193692000Y-32116000D01*
X193688671Y-33070000D01*
X175881329Y-33070000D01*
X175878000Y-32116000D01*
X175706000Y-31944000D01*
X174064000Y-31944000D01*
X173916000Y-31944000D01*
X172274000Y-31944000D01*
X172102000Y-32116000D01*
X172098671Y-33070000D01*
X155120000Y-33070000D01*
X155120000Y-30670000D01*
X172098671Y-30670000D01*
X172102000Y-31624000D01*
X172274000Y-31796000D01*
X173916000Y-31796000D01*
X173916000Y-30154000D01*
X174064000Y-30154000D01*
X174064000Y-31796000D01*
X175706000Y-31796000D01*
X175878000Y-31624000D01*
X175881329Y-30670000D01*
X193688671Y-30670000D01*
X193692000Y-31624000D01*
X193864000Y-31796000D01*
X195506000Y-31796000D01*
X195506000Y-30154000D01*
X195654000Y-30154000D01*
X195654000Y-31796000D01*
X197296000Y-31796000D01*
X197468000Y-31624000D01*
X197471329Y-30670000D01*
X197458045Y-30535128D01*
X197418705Y-30405440D01*
X197354819Y-30285918D01*
X197268843Y-30181157D01*
X197164082Y-30095181D01*
X197044560Y-30031295D01*
X196914872Y-29991955D01*
X196780000Y-29978671D01*
X195826000Y-29982000D01*
X195654000Y-30154000D01*
X195506000Y-30154000D01*
X195334000Y-29982000D01*
X194380000Y-29978671D01*
X194245128Y-29991955D01*
X194115440Y-30031295D01*
X193995918Y-30095181D01*
X193891157Y-30181157D01*
X193805181Y-30285918D01*
X193741295Y-30405440D01*
X193701955Y-30535128D01*
X193688671Y-30670000D01*
X175881329Y-30670000D01*
X175868045Y-30535128D01*
X175828705Y-30405440D01*
X175764819Y-30285918D01*
X175678843Y-30181157D01*
X175574082Y-30095181D01*
X175454560Y-30031295D01*
X175324872Y-29991955D01*
X175190000Y-29978671D01*
X174236000Y-29982000D01*
X174064000Y-30154000D01*
X173916000Y-30154000D01*
X173744000Y-29982000D01*
X172790000Y-29978671D01*
X172655128Y-29991955D01*
X172525440Y-30031295D01*
X172405918Y-30095181D01*
X172301157Y-30181157D01*
X172215181Y-30285918D01*
X172151295Y-30405440D01*
X172111955Y-30535128D01*
X172098671Y-30670000D01*
X155120000Y-30670000D01*
X155120000Y-26408840D01*
X155136610Y-26240196D01*
X155175194Y-26113000D01*
X205027000Y-26113000D01*
X205027001Y-121207000D01*
%TA.AperFunction,Conductor*%
D28*
G36*
X205027001Y-121207000D02*
G01*
X134855194Y-121207000D01*
X134816610Y-121079804D01*
X134800000Y-120911160D01*
X134800000Y-116914000D01*
X134857000Y-116914000D01*
X134857000Y-117189000D01*
X134896185Y-117438854D01*
X134983361Y-117676263D01*
X135115179Y-117892103D01*
X135286572Y-118078079D01*
X135490954Y-118227045D01*
X135720471Y-118333275D01*
X135870756Y-118373465D01*
X136071000Y-118228544D01*
X136071000Y-116914000D01*
X134857000Y-116914000D01*
X134800000Y-116914000D01*
X134800000Y-116491000D01*
X134857000Y-116491000D01*
X134857000Y-116766000D01*
X136071000Y-116766000D01*
X136071000Y-115451456D01*
X136219000Y-115451456D01*
X136219000Y-116766000D01*
X136239000Y-116766000D01*
X136239000Y-116914000D01*
X136219000Y-116914000D01*
X136219000Y-118228544D01*
X136419244Y-118373465D01*
X136569529Y-118333275D01*
X136799046Y-118227045D01*
X137003428Y-118078079D01*
X137143992Y-117925555D01*
X137229840Y-118030160D01*
X137425963Y-118191115D01*
X137649719Y-118310714D01*
X137892508Y-118384364D01*
X138145000Y-118409232D01*
X138397491Y-118384364D01*
X138640280Y-118310714D01*
X138864036Y-118191115D01*
X139060160Y-118030160D01*
X139145000Y-117926783D01*
X139229840Y-118030160D01*
X139425963Y-118191115D01*
X139649719Y-118310714D01*
X139892508Y-118384364D01*
X140145000Y-118409232D01*
X140397491Y-118384364D01*
X140640280Y-118310714D01*
X140864036Y-118191115D01*
X141060160Y-118030160D01*
X141145000Y-117926783D01*
X141229840Y-118030160D01*
X141425963Y-118191115D01*
X141649719Y-118310714D01*
X141892508Y-118384364D01*
X142145000Y-118409232D01*
X142397491Y-118384364D01*
X142640280Y-118310714D01*
X142864036Y-118191115D01*
X143052257Y-118036645D01*
X143129380Y-118130620D01*
X143272026Y-118247686D01*
X143434769Y-118334674D01*
X143611355Y-118388241D01*
X143794999Y-118406328D01*
X144495001Y-118406328D01*
X144678645Y-118388241D01*
X144855231Y-118334674D01*
X145017974Y-118247686D01*
X145160620Y-118130620D01*
X145277686Y-117987974D01*
X145364674Y-117825231D01*
X145418241Y-117648645D01*
X145436328Y-117465001D01*
X145436328Y-116501725D01*
X153907000Y-116501725D01*
X153907000Y-117178274D01*
X153925636Y-117367491D01*
X153999286Y-117610280D01*
X154118885Y-117834036D01*
X154279840Y-118030160D01*
X154475963Y-118191115D01*
X154699719Y-118310714D01*
X154942508Y-118384364D01*
X155195000Y-118409232D01*
X155447491Y-118384364D01*
X155690280Y-118310714D01*
X155914036Y-118191115D01*
X156110160Y-118030160D01*
X156195000Y-117926783D01*
X156279840Y-118030160D01*
X156475963Y-118191115D01*
X156699719Y-118310714D01*
X156942508Y-118384364D01*
X157195000Y-118409232D01*
X157447491Y-118384364D01*
X157690280Y-118310714D01*
X157914036Y-118191115D01*
X158110160Y-118030160D01*
X158195000Y-117926783D01*
X158279840Y-118030160D01*
X158475963Y-118191115D01*
X158699719Y-118310714D01*
X158942508Y-118384364D01*
X159195000Y-118409232D01*
X159447491Y-118384364D01*
X159690280Y-118310714D01*
X159914036Y-118191115D01*
X160110160Y-118030160D01*
X160195000Y-117926783D01*
X160279840Y-118030160D01*
X160475963Y-118191115D01*
X160699719Y-118310714D01*
X160942508Y-118384364D01*
X161195000Y-118409232D01*
X161447491Y-118384364D01*
X161690280Y-118310714D01*
X161914036Y-118191115D01*
X162102257Y-118036645D01*
X162179380Y-118130620D01*
X162322026Y-118247686D01*
X162484769Y-118334674D01*
X162661355Y-118388241D01*
X162844999Y-118406328D01*
X163545001Y-118406328D01*
X163728645Y-118388241D01*
X163905231Y-118334674D01*
X164067974Y-118247686D01*
X164210620Y-118130620D01*
X164327686Y-117987974D01*
X164414674Y-117825231D01*
X164468241Y-117648645D01*
X164486328Y-117465001D01*
X164486328Y-116214999D01*
X164468241Y-116031355D01*
X164414674Y-115854769D01*
X164327686Y-115692026D01*
X164210620Y-115549380D01*
X164067974Y-115432314D01*
X163905231Y-115345326D01*
X163728645Y-115291759D01*
X163545001Y-115273672D01*
X162844999Y-115273672D01*
X162661355Y-115291759D01*
X162484769Y-115345326D01*
X162322026Y-115432314D01*
X162179380Y-115549380D01*
X162102257Y-115643355D01*
X161914037Y-115488885D01*
X161690281Y-115369286D01*
X161447492Y-115295636D01*
X161195000Y-115270768D01*
X160942509Y-115295636D01*
X160699720Y-115369286D01*
X160475964Y-115488885D01*
X160279841Y-115649840D01*
X160195000Y-115753217D01*
X160110160Y-115649840D01*
X159914037Y-115488885D01*
X159690281Y-115369286D01*
X159447492Y-115295636D01*
X159195000Y-115270768D01*
X158942509Y-115295636D01*
X158699720Y-115369286D01*
X158475964Y-115488885D01*
X158279841Y-115649840D01*
X158195000Y-115753217D01*
X158110160Y-115649840D01*
X157914037Y-115488885D01*
X157690281Y-115369286D01*
X157447492Y-115295636D01*
X157195000Y-115270768D01*
X156942509Y-115295636D01*
X156699720Y-115369286D01*
X156475964Y-115488885D01*
X156279841Y-115649840D01*
X156195000Y-115753217D01*
X156110160Y-115649840D01*
X155914037Y-115488885D01*
X155690281Y-115369286D01*
X155447492Y-115295636D01*
X155195000Y-115270768D01*
X154942509Y-115295636D01*
X154699720Y-115369286D01*
X154475964Y-115488885D01*
X154279841Y-115649840D01*
X154118885Y-115845963D01*
X153999286Y-116069719D01*
X153925636Y-116312508D01*
X153907000Y-116501725D01*
X145436328Y-116501725D01*
X145436328Y-116214999D01*
X145418241Y-116031355D01*
X145364674Y-115854769D01*
X145277686Y-115692026D01*
X145160620Y-115549380D01*
X145017974Y-115432314D01*
X144855231Y-115345326D01*
X144678645Y-115291759D01*
X144495001Y-115273672D01*
X143794999Y-115273672D01*
X143611355Y-115291759D01*
X143434769Y-115345326D01*
X143272026Y-115432314D01*
X143129380Y-115549380D01*
X143052257Y-115643355D01*
X142864037Y-115488885D01*
X142640281Y-115369286D01*
X142397492Y-115295636D01*
X142145000Y-115270768D01*
X141892509Y-115295636D01*
X141649720Y-115369286D01*
X141425964Y-115488885D01*
X141229841Y-115649840D01*
X141145000Y-115753217D01*
X141060160Y-115649840D01*
X140864037Y-115488885D01*
X140640281Y-115369286D01*
X140397492Y-115295636D01*
X140145000Y-115270768D01*
X139892509Y-115295636D01*
X139649720Y-115369286D01*
X139425964Y-115488885D01*
X139229841Y-115649840D01*
X139145000Y-115753217D01*
X139060160Y-115649840D01*
X138864037Y-115488885D01*
X138640281Y-115369286D01*
X138397492Y-115295636D01*
X138145000Y-115270768D01*
X137892509Y-115295636D01*
X137649720Y-115369286D01*
X137425964Y-115488885D01*
X137229841Y-115649840D01*
X137143992Y-115754445D01*
X137003428Y-115601921D01*
X136799046Y-115452955D01*
X136569529Y-115346725D01*
X136419244Y-115306535D01*
X136219000Y-115451456D01*
X136071000Y-115451456D01*
X135870756Y-115306535D01*
X135720471Y-115346725D01*
X135490954Y-115452955D01*
X135286572Y-115601921D01*
X135115179Y-115787897D01*
X134983361Y-116003737D01*
X134896185Y-116241146D01*
X134857000Y-116491000D01*
X134800000Y-116491000D01*
X134800000Y-113703746D01*
X174837000Y-113703746D01*
X174837000Y-114036254D01*
X174901868Y-114362372D01*
X175029113Y-114669568D01*
X175213844Y-114946038D01*
X175448962Y-115181156D01*
X175725432Y-115365887D01*
X176032628Y-115493132D01*
X176358746Y-115558000D01*
X176691254Y-115558000D01*
X177017372Y-115493132D01*
X177324568Y-115365887D01*
X177567229Y-115203746D01*
X192937000Y-115203746D01*
X192937000Y-115536254D01*
X193001868Y-115862372D01*
X193129113Y-116169568D01*
X193313844Y-116446038D01*
X193548962Y-116681156D01*
X193825432Y-116865887D01*
X194132628Y-116993132D01*
X194458746Y-117058000D01*
X194791254Y-117058000D01*
X195117372Y-116993132D01*
X195424568Y-116865887D01*
X195701038Y-116681156D01*
X195936156Y-116446038D01*
X196120887Y-116169568D01*
X196248132Y-115862372D01*
X196313000Y-115536254D01*
X196313000Y-115203746D01*
X196248132Y-114877628D01*
X196120887Y-114570432D01*
X195936156Y-114293962D01*
X195701038Y-114058844D01*
X195424568Y-113874113D01*
X195117372Y-113746868D01*
X194791254Y-113682000D01*
X194458746Y-113682000D01*
X194132628Y-113746868D01*
X193825432Y-113874113D01*
X193548962Y-114058844D01*
X193313844Y-114293962D01*
X193129113Y-114570432D01*
X193001868Y-114877628D01*
X192937000Y-115203746D01*
X177567229Y-115203746D01*
X177601038Y-115181156D01*
X177836156Y-114946038D01*
X178020887Y-114669568D01*
X178148132Y-114362372D01*
X178213000Y-114036254D01*
X178213000Y-113703746D01*
X178148132Y-113377628D01*
X178020887Y-113070432D01*
X177836156Y-112793962D01*
X177601038Y-112558844D01*
X177324568Y-112374113D01*
X177017372Y-112246868D01*
X176691254Y-112182000D01*
X176358746Y-112182000D01*
X176032628Y-112246868D01*
X175725432Y-112374113D01*
X175448962Y-112558844D01*
X175213844Y-112793962D01*
X175029113Y-113070432D01*
X174901868Y-113377628D01*
X174837000Y-113703746D01*
X134800000Y-113703746D01*
X134800000Y-101578346D01*
X134847251Y-101583000D01*
X167547259Y-101583000D01*
X167640000Y-101592134D01*
X167732741Y-101583000D01*
X167732749Y-101583000D01*
X168010113Y-101555682D01*
X168366002Y-101447724D01*
X168693992Y-101272410D01*
X168981477Y-101036477D01*
X169040602Y-100964433D01*
X179947035Y-90058000D01*
X181629695Y-90058000D01*
X181747940Y-90121204D01*
X181799897Y-90136965D01*
X181936054Y-90248706D01*
X182304709Y-90445756D01*
X182049755Y-90616110D01*
X181771110Y-90894755D01*
X181552180Y-91222408D01*
X181401378Y-91586476D01*
X181324500Y-91972968D01*
X181324500Y-92367032D01*
X181401378Y-92753524D01*
X181552180Y-93117592D01*
X181771110Y-93445245D01*
X182049755Y-93723890D01*
X182377408Y-93942820D01*
X182741476Y-94093622D01*
X183125454Y-94170000D01*
X182741476Y-94246378D01*
X182377408Y-94397180D01*
X182049755Y-94616110D01*
X181771110Y-94894755D01*
X181552180Y-95222408D01*
X181401378Y-95586476D01*
X181324500Y-95972968D01*
X181324500Y-96367032D01*
X181401378Y-96753524D01*
X181552180Y-97117592D01*
X181771110Y-97445245D01*
X182049755Y-97723890D01*
X182377408Y-97942820D01*
X182741476Y-98093622D01*
X183125454Y-98170000D01*
X182741476Y-98246378D01*
X182377408Y-98397180D01*
X182049755Y-98616110D01*
X181771110Y-98894755D01*
X181552180Y-99222408D01*
X181401378Y-99586476D01*
X181324500Y-99972968D01*
X181324500Y-100367032D01*
X181401378Y-100753524D01*
X181552180Y-101117592D01*
X181771110Y-101445245D01*
X182049755Y-101723890D01*
X182377408Y-101942820D01*
X182741476Y-102093622D01*
X183125454Y-102170000D01*
X182741476Y-102246378D01*
X182377408Y-102397180D01*
X182049755Y-102616110D01*
X181771110Y-102894755D01*
X181552180Y-103222408D01*
X181401378Y-103586476D01*
X181324500Y-103972968D01*
X181324500Y-104367032D01*
X181401378Y-104753524D01*
X181552180Y-105117592D01*
X181771110Y-105445245D01*
X182049755Y-105723890D01*
X182377408Y-105942820D01*
X182741476Y-106093622D01*
X183127968Y-106170500D01*
X183522032Y-106170500D01*
X183908524Y-106093622D01*
X184272592Y-105942820D01*
X184600245Y-105723890D01*
X184878890Y-105445245D01*
X185097820Y-105117592D01*
X185248622Y-104753524D01*
X185325500Y-104367032D01*
X185325500Y-103972968D01*
X185248622Y-103586476D01*
X185097820Y-103222408D01*
X184878890Y-102894755D01*
X184600245Y-102616110D01*
X184272592Y-102397180D01*
X183908524Y-102246378D01*
X183524546Y-102170000D01*
X183908524Y-102093622D01*
X184272592Y-101942820D01*
X184600245Y-101723890D01*
X184878890Y-101445245D01*
X185097820Y-101117592D01*
X185248622Y-100753524D01*
X185325500Y-100367032D01*
X185325500Y-99972968D01*
X185248622Y-99586476D01*
X185097820Y-99222408D01*
X184878890Y-98894755D01*
X184600245Y-98616110D01*
X184272592Y-98397180D01*
X183908524Y-98246378D01*
X183524546Y-98170000D01*
X183908524Y-98093622D01*
X184272592Y-97942820D01*
X184600245Y-97723890D01*
X184878890Y-97445245D01*
X185097820Y-97117592D01*
X185248622Y-96753524D01*
X185325500Y-96367032D01*
X185325500Y-95972968D01*
X185248622Y-95586476D01*
X185097820Y-95222408D01*
X184878890Y-94894755D01*
X184600245Y-94616110D01*
X184272592Y-94397180D01*
X183908524Y-94246378D01*
X183524546Y-94170000D01*
X183908524Y-94093622D01*
X184199808Y-93972968D01*
X185324500Y-93972968D01*
X185324500Y-94367032D01*
X185401378Y-94753524D01*
X185552180Y-95117592D01*
X185771110Y-95445245D01*
X186049755Y-95723890D01*
X186377408Y-95942820D01*
X186741476Y-96093622D01*
X187125454Y-96170000D01*
X186741476Y-96246378D01*
X186377408Y-96397180D01*
X186049755Y-96616110D01*
X185771110Y-96894755D01*
X185552180Y-97222408D01*
X185401378Y-97586476D01*
X185324500Y-97972968D01*
X185324500Y-98367032D01*
X185401378Y-98753524D01*
X185552180Y-99117592D01*
X185771110Y-99445245D01*
X186049755Y-99723890D01*
X186377408Y-99942820D01*
X186741476Y-100093622D01*
X187125454Y-100170000D01*
X186741476Y-100246378D01*
X186377408Y-100397180D01*
X186049755Y-100616110D01*
X185771110Y-100894755D01*
X185552180Y-101222408D01*
X185401378Y-101586476D01*
X185324500Y-101972968D01*
X185324500Y-102367032D01*
X185401378Y-102753524D01*
X185552180Y-103117592D01*
X185771110Y-103445245D01*
X186049755Y-103723890D01*
X186377408Y-103942820D01*
X186741476Y-104093622D01*
X187127968Y-104170500D01*
X187522032Y-104170500D01*
X187908524Y-104093622D01*
X188272592Y-103942820D01*
X188600245Y-103723890D01*
X188878890Y-103445245D01*
X189097820Y-103117592D01*
X189248622Y-102753524D01*
X189325500Y-102367032D01*
X189325500Y-101972968D01*
X189248622Y-101586476D01*
X189097820Y-101222408D01*
X188878890Y-100894755D01*
X188600245Y-100616110D01*
X188272592Y-100397180D01*
X187908524Y-100246378D01*
X187524546Y-100170000D01*
X187908524Y-100093622D01*
X188272592Y-99942820D01*
X188600245Y-99723890D01*
X188878890Y-99445245D01*
X189097820Y-99117592D01*
X189248622Y-98753524D01*
X189325500Y-98367032D01*
X189325500Y-97972968D01*
X189248622Y-97586476D01*
X189097820Y-97222408D01*
X188878890Y-96894755D01*
X188600245Y-96616110D01*
X188272592Y-96397180D01*
X187908524Y-96246378D01*
X187524546Y-96170000D01*
X187908524Y-96093622D01*
X188272592Y-95942820D01*
X188600245Y-95723890D01*
X188878890Y-95445245D01*
X189097820Y-95117592D01*
X189248622Y-94753524D01*
X189325500Y-94367032D01*
X189325500Y-93972968D01*
X189248622Y-93586476D01*
X189097820Y-93222408D01*
X188878890Y-92894755D01*
X188600245Y-92616110D01*
X188272592Y-92397180D01*
X187908524Y-92246378D01*
X187522032Y-92169500D01*
X187431233Y-92169500D01*
X187712337Y-92142509D01*
X188089712Y-92029042D01*
X188195240Y-91972968D01*
X189324500Y-91972968D01*
X189324500Y-92367032D01*
X189401378Y-92753524D01*
X189552180Y-93117592D01*
X189771110Y-93445245D01*
X190049755Y-93723890D01*
X190377408Y-93942820D01*
X190741476Y-94093622D01*
X191125454Y-94170000D01*
X190741476Y-94246378D01*
X190377408Y-94397180D01*
X190049755Y-94616110D01*
X189771110Y-94894755D01*
X189552180Y-95222408D01*
X189401378Y-95586476D01*
X189324500Y-95972968D01*
X189324500Y-96367032D01*
X189401378Y-96753524D01*
X189552180Y-97117592D01*
X189771110Y-97445245D01*
X190049755Y-97723890D01*
X190377408Y-97942820D01*
X190741476Y-98093622D01*
X191125454Y-98170000D01*
X190741476Y-98246378D01*
X190377408Y-98397180D01*
X190049755Y-98616110D01*
X189771110Y-98894755D01*
X189552180Y-99222408D01*
X189401378Y-99586476D01*
X189324500Y-99972968D01*
X189324500Y-100367032D01*
X189401378Y-100753524D01*
X189552180Y-101117592D01*
X189771110Y-101445245D01*
X190049755Y-101723890D01*
X190377408Y-101942820D01*
X190741476Y-102093622D01*
X191125454Y-102170000D01*
X190741476Y-102246378D01*
X190377408Y-102397180D01*
X190049755Y-102616110D01*
X189771110Y-102894755D01*
X189552180Y-103222408D01*
X189401378Y-103586476D01*
X189324500Y-103972968D01*
X189324500Y-104367032D01*
X189401378Y-104753524D01*
X189552180Y-105117592D01*
X189771110Y-105445245D01*
X190049755Y-105723890D01*
X190377408Y-105942820D01*
X190741476Y-106093622D01*
X191127968Y-106170500D01*
X191522032Y-106170500D01*
X191908524Y-106093622D01*
X192272592Y-105942820D01*
X192600245Y-105723890D01*
X192878890Y-105445245D01*
X193097820Y-105117592D01*
X193248622Y-104753524D01*
X193325500Y-104367032D01*
X193325500Y-103972968D01*
X193248622Y-103586476D01*
X193097820Y-103222408D01*
X192878890Y-102894755D01*
X192600245Y-102616110D01*
X192272592Y-102397180D01*
X191908524Y-102246378D01*
X191524546Y-102170000D01*
X191908524Y-102093622D01*
X192272592Y-101942820D01*
X192600245Y-101723890D01*
X192878890Y-101445245D01*
X193097820Y-101117592D01*
X193248622Y-100753524D01*
X193325500Y-100367032D01*
X193325500Y-99972968D01*
X193248622Y-99586476D01*
X193097820Y-99222408D01*
X192878890Y-98894755D01*
X192600245Y-98616110D01*
X192272592Y-98397180D01*
X191908524Y-98246378D01*
X191524546Y-98170000D01*
X191908524Y-98093622D01*
X192272592Y-97942820D01*
X192600245Y-97723890D01*
X192878890Y-97445245D01*
X193097820Y-97117592D01*
X193248622Y-96753524D01*
X193325500Y-96367032D01*
X193325500Y-95972968D01*
X193248622Y-95586476D01*
X193097820Y-95222408D01*
X192878890Y-94894755D01*
X192600245Y-94616110D01*
X192272592Y-94397180D01*
X191908524Y-94246378D01*
X191524546Y-94170000D01*
X191908524Y-94093622D01*
X192272592Y-93942820D01*
X192600245Y-93723890D01*
X192878890Y-93445245D01*
X193097820Y-93117592D01*
X193248622Y-92753524D01*
X193325500Y-92367032D01*
X193325500Y-91972968D01*
X193248622Y-91586476D01*
X193097820Y-91222408D01*
X192878890Y-90894755D01*
X192600245Y-90616110D01*
X192272592Y-90397180D01*
X191908524Y-90246378D01*
X191522032Y-90169500D01*
X191431233Y-90169500D01*
X191712337Y-90142509D01*
X192089712Y-90029042D01*
X192437700Y-89844133D01*
X192445886Y-89838663D01*
X192571410Y-89521062D01*
X191325000Y-88274652D01*
X190078590Y-89521062D01*
X190204114Y-89838663D01*
X190551192Y-90025274D01*
X190928006Y-90140588D01*
X191214366Y-90169500D01*
X191127968Y-90169500D01*
X190741476Y-90246378D01*
X190377408Y-90397180D01*
X190049755Y-90616110D01*
X189771110Y-90894755D01*
X189552180Y-91222408D01*
X189401378Y-91586476D01*
X189324500Y-91972968D01*
X188195240Y-91972968D01*
X188437700Y-91844133D01*
X188445886Y-91838663D01*
X188571410Y-91521062D01*
X187325000Y-90274652D01*
X186078590Y-91521062D01*
X186204114Y-91838663D01*
X186551192Y-92025274D01*
X186928006Y-92140588D01*
X187214366Y-92169500D01*
X187127968Y-92169500D01*
X186741476Y-92246378D01*
X186377408Y-92397180D01*
X186049755Y-92616110D01*
X185771110Y-92894755D01*
X185552180Y-93222408D01*
X185401378Y-93586476D01*
X185324500Y-93972968D01*
X184199808Y-93972968D01*
X184272592Y-93942820D01*
X184600245Y-93723890D01*
X184878890Y-93445245D01*
X185097820Y-93117592D01*
X185248622Y-92753524D01*
X185325500Y-92367032D01*
X185325500Y-91972968D01*
X185248622Y-91586476D01*
X185097820Y-91222408D01*
X184878890Y-90894755D01*
X184600245Y-90616110D01*
X184345291Y-90445756D01*
X184713947Y-90248706D01*
X184850105Y-90136964D01*
X184902060Y-90121204D01*
X185021581Y-90057318D01*
X185126343Y-89971343D01*
X185212318Y-89866581D01*
X185276204Y-89747060D01*
X185291964Y-89695105D01*
X185403706Y-89558947D01*
X185441634Y-89487988D01*
X185354412Y-89773006D01*
X185314827Y-90165077D01*
X185352491Y-90557337D01*
X185465958Y-90934712D01*
X185650867Y-91282700D01*
X185656337Y-91290886D01*
X185973938Y-91416410D01*
X187220348Y-90170000D01*
X187429652Y-90170000D01*
X188676062Y-91416410D01*
X188993663Y-91290886D01*
X189180274Y-90943808D01*
X189295588Y-90566994D01*
X189335173Y-90174923D01*
X189297509Y-89782663D01*
X189184042Y-89405288D01*
X188999133Y-89057300D01*
X188993663Y-89049114D01*
X188676062Y-88923590D01*
X187429652Y-90170000D01*
X187220348Y-90170000D01*
X185973938Y-88923590D01*
X185658541Y-89048243D01*
X185728099Y-88818938D01*
X186078590Y-88818938D01*
X187325000Y-90065348D01*
X188571410Y-88818938D01*
X188445886Y-88501337D01*
X188098808Y-88314726D01*
X187721994Y-88199412D01*
X187381922Y-88165077D01*
X189314827Y-88165077D01*
X189352491Y-88557337D01*
X189465958Y-88934712D01*
X189650867Y-89282700D01*
X189656337Y-89290886D01*
X189973938Y-89416410D01*
X191220348Y-88170000D01*
X191429652Y-88170000D01*
X192676062Y-89416410D01*
X192993663Y-89290886D01*
X193180274Y-88943808D01*
X193295588Y-88566994D01*
X193335173Y-88174923D01*
X193297509Y-87782663D01*
X193184042Y-87405288D01*
X192999133Y-87057300D01*
X192993663Y-87049114D01*
X192676062Y-86923590D01*
X191429652Y-88170000D01*
X191220348Y-88170000D01*
X189973938Y-86923590D01*
X189656337Y-87049114D01*
X189469726Y-87396192D01*
X189354412Y-87773006D01*
X189314827Y-88165077D01*
X187381922Y-88165077D01*
X187329923Y-88159827D01*
X186937663Y-88197491D01*
X186560288Y-88310958D01*
X186212300Y-88495867D01*
X186204114Y-88501337D01*
X186078590Y-88818938D01*
X185728099Y-88818938D01*
X185777000Y-88657733D01*
X185813000Y-88292223D01*
X185813000Y-86818938D01*
X190078590Y-86818938D01*
X191325000Y-88065348D01*
X192571410Y-86818938D01*
X192445886Y-86501337D01*
X192098808Y-86314726D01*
X191721994Y-86199412D01*
X191329923Y-86159827D01*
X190937663Y-86197491D01*
X190560288Y-86310958D01*
X190212300Y-86495867D01*
X190204114Y-86501337D01*
X190078590Y-86818938D01*
X185813000Y-86818938D01*
X185813000Y-76803746D01*
X192937000Y-76803746D01*
X192937000Y-77136254D01*
X193001868Y-77462372D01*
X193129113Y-77769568D01*
X193313844Y-78046038D01*
X193548962Y-78281156D01*
X193825432Y-78465887D01*
X194132628Y-78593132D01*
X194458746Y-78658000D01*
X194791254Y-78658000D01*
X195117372Y-78593132D01*
X195424568Y-78465887D01*
X195701038Y-78281156D01*
X195936156Y-78046038D01*
X196120887Y-77769568D01*
X196248132Y-77462372D01*
X196313000Y-77136254D01*
X196313000Y-76803746D01*
X196248132Y-76477628D01*
X196120887Y-76170432D01*
X195936156Y-75893962D01*
X195701038Y-75658844D01*
X195424568Y-75474113D01*
X195117372Y-75346868D01*
X194791254Y-75282000D01*
X194458746Y-75282000D01*
X194132628Y-75346868D01*
X193825432Y-75474113D01*
X193548962Y-75658844D01*
X193313844Y-75893962D01*
X193129113Y-76170432D01*
X193001868Y-76477628D01*
X192937000Y-76803746D01*
X185813000Y-76803746D01*
X185813000Y-61866505D01*
X194698147Y-61866505D01*
X194762087Y-62131656D01*
X195021990Y-62267172D01*
X195303336Y-62349381D01*
X195595314Y-62375121D01*
X195886703Y-62343406D01*
X196166306Y-62255451D01*
X196397913Y-62131656D01*
X196461853Y-61866505D01*
X195580000Y-60984652D01*
X194698147Y-61866505D01*
X185813000Y-61866505D01*
X185813000Y-60895314D01*
X194084879Y-60895314D01*
X194116594Y-61186703D01*
X194204549Y-61466306D01*
X194328344Y-61697913D01*
X194593495Y-61761853D01*
X195475348Y-60880000D01*
X195684652Y-60880000D01*
X196566505Y-61761853D01*
X196831656Y-61697913D01*
X196967172Y-61438010D01*
X197049381Y-61156664D01*
X197075121Y-60864686D01*
X197043406Y-60573297D01*
X196955451Y-60293694D01*
X196831656Y-60062087D01*
X196566505Y-59998147D01*
X195684652Y-60880000D01*
X195475348Y-60880000D01*
X194593495Y-59998147D01*
X194328344Y-60062087D01*
X194192828Y-60321990D01*
X194110619Y-60603336D01*
X194084879Y-60895314D01*
X185813000Y-60895314D01*
X185813000Y-59893495D01*
X194698147Y-59893495D01*
X195580000Y-60775348D01*
X196461853Y-59893495D01*
X196397913Y-59628344D01*
X196138010Y-59492828D01*
X195856664Y-59410619D01*
X195564686Y-59384879D01*
X195273297Y-59416594D01*
X194993694Y-59504549D01*
X194762087Y-59628344D01*
X194698147Y-59893495D01*
X185813000Y-59893495D01*
X185813000Y-59108000D01*
X199660000Y-59108000D01*
X199727437Y-59104687D01*
X199922527Y-59085472D01*
X200054804Y-59059161D01*
X200242397Y-59002256D01*
X200367004Y-58950642D01*
X200539891Y-58858232D01*
X200652032Y-58783302D01*
X200803569Y-58658939D01*
X200898939Y-58563569D01*
X201023302Y-58412032D01*
X201098232Y-58299891D01*
X201190642Y-58127004D01*
X201242256Y-58002397D01*
X201299161Y-57814804D01*
X201325472Y-57682527D01*
X201344687Y-57487437D01*
X201348000Y-57420000D01*
X201348000Y-37830000D01*
X201344687Y-37762563D01*
X201325472Y-37567473D01*
X201299161Y-37435196D01*
X201242256Y-37247603D01*
X201190642Y-37122996D01*
X201098232Y-36950109D01*
X201023302Y-36837968D01*
X200898939Y-36686431D01*
X200803569Y-36591061D01*
X200652032Y-36466698D01*
X200539891Y-36391768D01*
X200367004Y-36299358D01*
X200242397Y-36247744D01*
X200054804Y-36190839D01*
X199922527Y-36164528D01*
X199727437Y-36145313D01*
X199660000Y-36142000D01*
X155120000Y-36142000D01*
X155120000Y-33070000D01*
X172098671Y-33070000D01*
X172111955Y-33204872D01*
X172151295Y-33334560D01*
X172215181Y-33454082D01*
X172301157Y-33558843D01*
X172405918Y-33644819D01*
X172525440Y-33708705D01*
X172655128Y-33748045D01*
X172790000Y-33761329D01*
X173744000Y-33758000D01*
X173916000Y-33586000D01*
X173916000Y-31944000D01*
X174064000Y-31944000D01*
X174064000Y-33586000D01*
X174236000Y-33758000D01*
X175190000Y-33761329D01*
X175324872Y-33748045D01*
X175454560Y-33708705D01*
X175574082Y-33644819D01*
X175678843Y-33558843D01*
X175764819Y-33454082D01*
X175828705Y-33334560D01*
X175868045Y-33204872D01*
X175881329Y-33070000D01*
X193688671Y-33070000D01*
X193701955Y-33204872D01*
X193741295Y-33334560D01*
X193805181Y-33454082D01*
X193891157Y-33558843D01*
X193995918Y-33644819D01*
X194115440Y-33708705D01*
X194245128Y-33748045D01*
X194380000Y-33761329D01*
X195334000Y-33758000D01*
X195506000Y-33586000D01*
X195506000Y-31944000D01*
X195654000Y-31944000D01*
X195654000Y-33586000D01*
X195826000Y-33758000D01*
X196780000Y-33761329D01*
X196914872Y-33748045D01*
X197044560Y-33708705D01*
X197164082Y-33644819D01*
X197268843Y-33558843D01*
X197354819Y-33454082D01*
X197418705Y-33334560D01*
X197458045Y-33204872D01*
X197471329Y-33070000D01*
X197468000Y-32116000D01*
X197296000Y-31944000D01*
X195654000Y-31944000D01*
X195506000Y-31944000D01*
X193864000Y-31944000D01*
X193692000Y-32116000D01*
X193688671Y-33070000D01*
X175881329Y-33070000D01*
X175878000Y-32116000D01*
X175706000Y-31944000D01*
X174064000Y-31944000D01*
X173916000Y-31944000D01*
X172274000Y-31944000D01*
X172102000Y-32116000D01*
X172098671Y-33070000D01*
X155120000Y-33070000D01*
X155120000Y-30670000D01*
X172098671Y-30670000D01*
X172102000Y-31624000D01*
X172274000Y-31796000D01*
X173916000Y-31796000D01*
X173916000Y-30154000D01*
X174064000Y-30154000D01*
X174064000Y-31796000D01*
X175706000Y-31796000D01*
X175878000Y-31624000D01*
X175881329Y-30670000D01*
X193688671Y-30670000D01*
X193692000Y-31624000D01*
X193864000Y-31796000D01*
X195506000Y-31796000D01*
X195506000Y-30154000D01*
X195654000Y-30154000D01*
X195654000Y-31796000D01*
X197296000Y-31796000D01*
X197468000Y-31624000D01*
X197471329Y-30670000D01*
X197458045Y-30535128D01*
X197418705Y-30405440D01*
X197354819Y-30285918D01*
X197268843Y-30181157D01*
X197164082Y-30095181D01*
X197044560Y-30031295D01*
X196914872Y-29991955D01*
X196780000Y-29978671D01*
X195826000Y-29982000D01*
X195654000Y-30154000D01*
X195506000Y-30154000D01*
X195334000Y-29982000D01*
X194380000Y-29978671D01*
X194245128Y-29991955D01*
X194115440Y-30031295D01*
X193995918Y-30095181D01*
X193891157Y-30181157D01*
X193805181Y-30285918D01*
X193741295Y-30405440D01*
X193701955Y-30535128D01*
X193688671Y-30670000D01*
X175881329Y-30670000D01*
X175868045Y-30535128D01*
X175828705Y-30405440D01*
X175764819Y-30285918D01*
X175678843Y-30181157D01*
X175574082Y-30095181D01*
X175454560Y-30031295D01*
X175324872Y-29991955D01*
X175190000Y-29978671D01*
X174236000Y-29982000D01*
X174064000Y-30154000D01*
X173916000Y-30154000D01*
X173744000Y-29982000D01*
X172790000Y-29978671D01*
X172655128Y-29991955D01*
X172525440Y-30031295D01*
X172405918Y-30095181D01*
X172301157Y-30181157D01*
X172215181Y-30285918D01*
X172151295Y-30405440D01*
X172111955Y-30535128D01*
X172098671Y-30670000D01*
X155120000Y-30670000D01*
X155120000Y-26408840D01*
X155136610Y-26240196D01*
X155175194Y-26113000D01*
X205027000Y-26113000D01*
X205027001Y-121207000D01*
G37*
%TD.AperFunction*%
D24*
X180837000Y-59895564D02*
X180837001Y-86282000D01*
X179257738Y-86282000D01*
X179164999Y-86272866D01*
X179072260Y-86282000D01*
X179072251Y-86282000D01*
X178794887Y-86309318D01*
X178438998Y-86417276D01*
X178111008Y-86592590D01*
X177823523Y-86828523D01*
X177764398Y-86900567D01*
X166857965Y-97807000D01*
X139584066Y-97807000D01*
X139596328Y-97682500D01*
X139596328Y-97493708D01*
X151128032Y-85962005D01*
X151129999Y-85962199D01*
X151172630Y-85958000D01*
X153645706Y-85958000D01*
X153789639Y-86054173D01*
X153987642Y-86136188D01*
X154197841Y-86178000D01*
X154412159Y-86178000D01*
X154622358Y-86136188D01*
X154820361Y-86054173D01*
X154998559Y-85935105D01*
X155150105Y-85783559D01*
X155269173Y-85605361D01*
X155351188Y-85407358D01*
X155393000Y-85197159D01*
X155393000Y-84982841D01*
X155351188Y-84772642D01*
X155269173Y-84574639D01*
X155150105Y-84396441D01*
X154998559Y-84244895D01*
X154820361Y-84125827D01*
X154622358Y-84043812D01*
X154412159Y-84002000D01*
X154197841Y-84002000D01*
X153987642Y-84043812D01*
X153789639Y-84125827D01*
X153645706Y-84222000D01*
X151489537Y-84222000D01*
X150503924Y-83236388D01*
X150503915Y-83236377D01*
X150093000Y-82825463D01*
X150093000Y-82574294D01*
X150189173Y-82430361D01*
X150271188Y-82232358D01*
X150313000Y-82022159D01*
X150313000Y-81807841D01*
X150271188Y-81597642D01*
X150189173Y-81399639D01*
X150070105Y-81221441D01*
X149918559Y-81069895D01*
X149740361Y-80950827D01*
X149542358Y-80868812D01*
X149332159Y-80827000D01*
X149117841Y-80827000D01*
X148907642Y-80868812D01*
X148709639Y-80950827D01*
X148531441Y-81069895D01*
X148379895Y-81221441D01*
X148260827Y-81399639D01*
X148178812Y-81597642D01*
X148137000Y-81807841D01*
X148137000Y-82022159D01*
X148178812Y-82232358D01*
X148260827Y-82430361D01*
X148357000Y-82574295D01*
X148357000Y-83142366D01*
X148352801Y-83185000D01*
X148357000Y-83227632D01*
X148369560Y-83355157D01*
X148419193Y-83518775D01*
X148499793Y-83669567D01*
X148608262Y-83801738D01*
X148641386Y-83828922D01*
X149276377Y-84463915D01*
X149276388Y-84463924D01*
X149723713Y-84911250D01*
X139589034Y-95045930D01*
X139583045Y-94985128D01*
X139543705Y-94855440D01*
X139479819Y-94735918D01*
X139393843Y-94631157D01*
X139289082Y-94545181D01*
X139169560Y-94481295D01*
X139039872Y-94441955D01*
X138905000Y-94428671D01*
X138676000Y-94432000D01*
X138504000Y-94604000D01*
X138504000Y-95533500D01*
X138524000Y-95533500D01*
X138524000Y-95681500D01*
X138504000Y-95681500D01*
X138504000Y-95701500D01*
X138356000Y-95701500D01*
X138356000Y-95681500D01*
X137439000Y-95681500D01*
X137267000Y-95853500D01*
X137263671Y-96095000D01*
X137276955Y-96229872D01*
X137316295Y-96359560D01*
X137380181Y-96479082D01*
X137450282Y-96564500D01*
X136631328Y-96564500D01*
X136631328Y-96265000D01*
X136618044Y-96130129D01*
X136578704Y-96000440D01*
X136514818Y-95880919D01*
X136428843Y-95776157D01*
X136324081Y-95690182D01*
X136204560Y-95626296D01*
X136074871Y-95586956D01*
X135940000Y-95573672D01*
X134800000Y-95573672D01*
X134800000Y-95120000D01*
X137263671Y-95120000D01*
X137267000Y-95361500D01*
X137439000Y-95533500D01*
X138356000Y-95533500D01*
X138356000Y-94604000D01*
X138184000Y-94432000D01*
X137955000Y-94428671D01*
X137820128Y-94441955D01*
X137690440Y-94481295D01*
X137570918Y-94545181D01*
X137466157Y-94631157D01*
X137380181Y-94735918D01*
X137316295Y-94855440D01*
X137276955Y-94985128D01*
X137263671Y-95120000D01*
X134800000Y-95120000D01*
X134800000Y-91828379D01*
X134814226Y-91672191D01*
X134854225Y-91529051D01*
X134919424Y-91395496D01*
X135012561Y-91269305D01*
X146537502Y-78303746D01*
X174837000Y-78303746D01*
X174837000Y-78636254D01*
X174901868Y-78962372D01*
X175029113Y-79269568D01*
X175213844Y-79546038D01*
X175448962Y-79781156D01*
X175725432Y-79965887D01*
X176032628Y-80093132D01*
X176358746Y-80158000D01*
X176691254Y-80158000D01*
X177017372Y-80093132D01*
X177324568Y-79965887D01*
X177601038Y-79781156D01*
X177836156Y-79546038D01*
X178020887Y-79269568D01*
X178148132Y-78962372D01*
X178213000Y-78636254D01*
X178213000Y-78303746D01*
X178148132Y-77977628D01*
X178020887Y-77670432D01*
X177836156Y-77393962D01*
X177601038Y-77158844D01*
X177324568Y-76974113D01*
X177017372Y-76846868D01*
X176691254Y-76782000D01*
X176358746Y-76782000D01*
X176032628Y-76846868D01*
X175725432Y-76974113D01*
X175448962Y-77158844D01*
X175213844Y-77393962D01*
X175029113Y-77670432D01*
X174901868Y-77977628D01*
X174837000Y-78303746D01*
X146537502Y-78303746D01*
X154821943Y-68983750D01*
X154832235Y-68971055D01*
X154939963Y-68825093D01*
X154956891Y-68797169D01*
X155036476Y-68634147D01*
X155048081Y-68603624D01*
X155096904Y-68428907D01*
X155102803Y-68396791D01*
X155119258Y-68216128D01*
X155120000Y-68199801D01*
X155120000Y-63430000D01*
X174638671Y-63430000D01*
X174651955Y-63564872D01*
X174691295Y-63694560D01*
X174755181Y-63814082D01*
X174841157Y-63918843D01*
X174945918Y-64004819D01*
X175065440Y-64068705D01*
X175195128Y-64108045D01*
X175330000Y-64121329D01*
X176284000Y-64118000D01*
X176456000Y-63946000D01*
X176456000Y-62304000D01*
X176604000Y-62304000D01*
X176604000Y-63946000D01*
X176776000Y-64118000D01*
X177730000Y-64121329D01*
X177864872Y-64108045D01*
X177994560Y-64068705D01*
X178114082Y-64004819D01*
X178218843Y-63918843D01*
X178304819Y-63814082D01*
X178368705Y-63694560D01*
X178408045Y-63564872D01*
X178421329Y-63430000D01*
X178418000Y-62476000D01*
X178246000Y-62304000D01*
X176604000Y-62304000D01*
X176456000Y-62304000D01*
X174814000Y-62304000D01*
X174642000Y-62476000D01*
X174638671Y-63430000D01*
X155120000Y-63430000D01*
X155120000Y-61030000D01*
X174638671Y-61030000D01*
X174642000Y-61984000D01*
X174814000Y-62156000D01*
X176456000Y-62156000D01*
X176456000Y-60514000D01*
X176604000Y-60514000D01*
X176604000Y-62156000D01*
X178246000Y-62156000D01*
X178418000Y-61984000D01*
X178421329Y-61030000D01*
X178408045Y-60895128D01*
X178368705Y-60765440D01*
X178304819Y-60645918D01*
X178218843Y-60541157D01*
X178114082Y-60455181D01*
X177994560Y-60391295D01*
X177864872Y-60351955D01*
X177730000Y-60338671D01*
X176776000Y-60342000D01*
X176604000Y-60514000D01*
X176456000Y-60514000D01*
X176284000Y-60342000D01*
X175330000Y-60338671D01*
X175195128Y-60351955D01*
X175065440Y-60391295D01*
X174945918Y-60455181D01*
X174841157Y-60541157D01*
X174755181Y-60645918D01*
X174691295Y-60765440D01*
X174651955Y-60895128D01*
X174638671Y-61030000D01*
X155120000Y-61030000D01*
X155120000Y-59108000D01*
X180049437Y-59108000D01*
X180837000Y-59895564D01*
%TA.AperFunction,Conductor*%
D28*
G36*
X180837000Y-59895564D02*
G01*
X180837001Y-86282000D01*
X179257738Y-86282000D01*
X179164999Y-86272866D01*
X179072260Y-86282000D01*
X179072251Y-86282000D01*
X178794887Y-86309318D01*
X178438998Y-86417276D01*
X178111008Y-86592590D01*
X177823523Y-86828523D01*
X177764398Y-86900567D01*
X166857965Y-97807000D01*
X139584066Y-97807000D01*
X139596328Y-97682500D01*
X139596328Y-97493708D01*
X151128032Y-85962005D01*
X151129999Y-85962199D01*
X151172630Y-85958000D01*
X153645706Y-85958000D01*
X153789639Y-86054173D01*
X153987642Y-86136188D01*
X154197841Y-86178000D01*
X154412159Y-86178000D01*
X154622358Y-86136188D01*
X154820361Y-86054173D01*
X154998559Y-85935105D01*
X155150105Y-85783559D01*
X155269173Y-85605361D01*
X155351188Y-85407358D01*
X155393000Y-85197159D01*
X155393000Y-84982841D01*
X155351188Y-84772642D01*
X155269173Y-84574639D01*
X155150105Y-84396441D01*
X154998559Y-84244895D01*
X154820361Y-84125827D01*
X154622358Y-84043812D01*
X154412159Y-84002000D01*
X154197841Y-84002000D01*
X153987642Y-84043812D01*
X153789639Y-84125827D01*
X153645706Y-84222000D01*
X151489537Y-84222000D01*
X150503924Y-83236388D01*
X150503915Y-83236377D01*
X150093000Y-82825463D01*
X150093000Y-82574294D01*
X150189173Y-82430361D01*
X150271188Y-82232358D01*
X150313000Y-82022159D01*
X150313000Y-81807841D01*
X150271188Y-81597642D01*
X150189173Y-81399639D01*
X150070105Y-81221441D01*
X149918559Y-81069895D01*
X149740361Y-80950827D01*
X149542358Y-80868812D01*
X149332159Y-80827000D01*
X149117841Y-80827000D01*
X148907642Y-80868812D01*
X148709639Y-80950827D01*
X148531441Y-81069895D01*
X148379895Y-81221441D01*
X148260827Y-81399639D01*
X148178812Y-81597642D01*
X148137000Y-81807841D01*
X148137000Y-82022159D01*
X148178812Y-82232358D01*
X148260827Y-82430361D01*
X148357000Y-82574295D01*
X148357000Y-83142366D01*
X148352801Y-83185000D01*
X148357000Y-83227632D01*
X148369560Y-83355157D01*
X148419193Y-83518775D01*
X148499793Y-83669567D01*
X148608262Y-83801738D01*
X148641386Y-83828922D01*
X149276377Y-84463915D01*
X149276388Y-84463924D01*
X149723713Y-84911250D01*
X139589034Y-95045930D01*
X139583045Y-94985128D01*
X139543705Y-94855440D01*
X139479819Y-94735918D01*
X139393843Y-94631157D01*
X139289082Y-94545181D01*
X139169560Y-94481295D01*
X139039872Y-94441955D01*
X138905000Y-94428671D01*
X138676000Y-94432000D01*
X138504000Y-94604000D01*
X138504000Y-95533500D01*
X138524000Y-95533500D01*
X138524000Y-95681500D01*
X138504000Y-95681500D01*
X138504000Y-95701500D01*
X138356000Y-95701500D01*
X138356000Y-95681500D01*
X137439000Y-95681500D01*
X137267000Y-95853500D01*
X137263671Y-96095000D01*
X137276955Y-96229872D01*
X137316295Y-96359560D01*
X137380181Y-96479082D01*
X137450282Y-96564500D01*
X136631328Y-96564500D01*
X136631328Y-96265000D01*
X136618044Y-96130129D01*
X136578704Y-96000440D01*
X136514818Y-95880919D01*
X136428843Y-95776157D01*
X136324081Y-95690182D01*
X136204560Y-95626296D01*
X136074871Y-95586956D01*
X135940000Y-95573672D01*
X134800000Y-95573672D01*
X134800000Y-95120000D01*
X137263671Y-95120000D01*
X137267000Y-95361500D01*
X137439000Y-95533500D01*
X138356000Y-95533500D01*
X138356000Y-94604000D01*
X138184000Y-94432000D01*
X137955000Y-94428671D01*
X137820128Y-94441955D01*
X137690440Y-94481295D01*
X137570918Y-94545181D01*
X137466157Y-94631157D01*
X137380181Y-94735918D01*
X137316295Y-94855440D01*
X137276955Y-94985128D01*
X137263671Y-95120000D01*
X134800000Y-95120000D01*
X134800000Y-91828379D01*
X134814226Y-91672191D01*
X134854225Y-91529051D01*
X134919424Y-91395496D01*
X135012561Y-91269305D01*
X146537502Y-78303746D01*
X174837000Y-78303746D01*
X174837000Y-78636254D01*
X174901868Y-78962372D01*
X175029113Y-79269568D01*
X175213844Y-79546038D01*
X175448962Y-79781156D01*
X175725432Y-79965887D01*
X176032628Y-80093132D01*
X176358746Y-80158000D01*
X176691254Y-80158000D01*
X177017372Y-80093132D01*
X177324568Y-79965887D01*
X177601038Y-79781156D01*
X177836156Y-79546038D01*
X178020887Y-79269568D01*
X178148132Y-78962372D01*
X178213000Y-78636254D01*
X178213000Y-78303746D01*
X178148132Y-77977628D01*
X178020887Y-77670432D01*
X177836156Y-77393962D01*
X177601038Y-77158844D01*
X177324568Y-76974113D01*
X177017372Y-76846868D01*
X176691254Y-76782000D01*
X176358746Y-76782000D01*
X176032628Y-76846868D01*
X175725432Y-76974113D01*
X175448962Y-77158844D01*
X175213844Y-77393962D01*
X175029113Y-77670432D01*
X174901868Y-77977628D01*
X174837000Y-78303746D01*
X146537502Y-78303746D01*
X154821943Y-68983750D01*
X154832235Y-68971055D01*
X154939963Y-68825093D01*
X154956891Y-68797169D01*
X155036476Y-68634147D01*
X155048081Y-68603624D01*
X155096904Y-68428907D01*
X155102803Y-68396791D01*
X155119258Y-68216128D01*
X155120000Y-68199801D01*
X155120000Y-63430000D01*
X174638671Y-63430000D01*
X174651955Y-63564872D01*
X174691295Y-63694560D01*
X174755181Y-63814082D01*
X174841157Y-63918843D01*
X174945918Y-64004819D01*
X175065440Y-64068705D01*
X175195128Y-64108045D01*
X175330000Y-64121329D01*
X176284000Y-64118000D01*
X176456000Y-63946000D01*
X176456000Y-62304000D01*
X176604000Y-62304000D01*
X176604000Y-63946000D01*
X176776000Y-64118000D01*
X177730000Y-64121329D01*
X177864872Y-64108045D01*
X177994560Y-64068705D01*
X178114082Y-64004819D01*
X178218843Y-63918843D01*
X178304819Y-63814082D01*
X178368705Y-63694560D01*
X178408045Y-63564872D01*
X178421329Y-63430000D01*
X178418000Y-62476000D01*
X178246000Y-62304000D01*
X176604000Y-62304000D01*
X176456000Y-62304000D01*
X174814000Y-62304000D01*
X174642000Y-62476000D01*
X174638671Y-63430000D01*
X155120000Y-63430000D01*
X155120000Y-61030000D01*
X174638671Y-61030000D01*
X174642000Y-61984000D01*
X174814000Y-62156000D01*
X176456000Y-62156000D01*
X176456000Y-60514000D01*
X176604000Y-60514000D01*
X176604000Y-62156000D01*
X178246000Y-62156000D01*
X178418000Y-61984000D01*
X178421329Y-61030000D01*
X178408045Y-60895128D01*
X178368705Y-60765440D01*
X178304819Y-60645918D01*
X178218843Y-60541157D01*
X178114082Y-60455181D01*
X177994560Y-60391295D01*
X177864872Y-60351955D01*
X177730000Y-60338671D01*
X176776000Y-60342000D01*
X176604000Y-60514000D01*
X176456000Y-60514000D01*
X176284000Y-60342000D01*
X175330000Y-60338671D01*
X175195128Y-60351955D01*
X175065440Y-60391295D01*
X174945918Y-60455181D01*
X174841157Y-60541157D01*
X174755181Y-60645918D01*
X174691295Y-60765440D01*
X174651955Y-60895128D01*
X174638671Y-61030000D01*
X155120000Y-61030000D01*
X155120000Y-59108000D01*
X180049437Y-59108000D01*
X180837000Y-59895564D01*
G37*
%TD.AperFunction*%
%TD*%
M02*
