%TF.GenerationSoftware,KiCad,Pcbnew,5.1.7-a382d34a8~88~ubuntu18.04.1*%
%TF.CreationDate,2021-03-18T09:15:53-04:00*%
%TF.ProjectId,HV_DCDC,48565f44-4344-4432-9e6b-696361645f70,rev?*%
%TF.SameCoordinates,Original*%
%TF.FileFunction,Legend,Top*%
%TF.FilePolarity,Positive*%
%FSLAX46Y46*%
G04 Gerber Fmt 4.6, Leading zero omitted, Abs format (unit mm)*
G04 Created by KiCad (PCBNEW 5.1.7-a382d34a8~88~ubuntu18.04.1) date 2021-03-18 09:15:53*
%MOMM*%
%LPD*%
G01*
G04 APERTURE LIST*
%ADD10C,0.150000*%
%ADD11C,0.300000*%
%ADD12C,0.250000*%
%ADD13C,0.800000*%
%ADD14C,0.600000*%
%ADD15C,0.010000*%
%ADD16C,0.120000*%
%ADD17C,0.180000*%
G04 APERTURE END LIST*
D10*
X156220000Y-111251904D02*
X156172380Y-111347142D01*
X156172380Y-111490000D01*
X156220000Y-111632857D01*
X156315238Y-111728095D01*
X156410476Y-111775714D01*
X156600952Y-111823333D01*
X156743809Y-111823333D01*
X156934285Y-111775714D01*
X157029523Y-111728095D01*
X157124761Y-111632857D01*
X157172380Y-111490000D01*
X157172380Y-111394761D01*
X157124761Y-111251904D01*
X157077142Y-111204285D01*
X156743809Y-111204285D01*
X156743809Y-111394761D01*
X157172380Y-110775714D02*
X156172380Y-110775714D01*
X157172380Y-110204285D01*
X156172380Y-110204285D01*
X157172380Y-109728095D02*
X156172380Y-109728095D01*
X156172380Y-109490000D01*
X156220000Y-109347142D01*
X156315238Y-109251904D01*
X156410476Y-109204285D01*
X156600952Y-109156666D01*
X156743809Y-109156666D01*
X156934285Y-109204285D01*
X157029523Y-109251904D01*
X157124761Y-109347142D01*
X157172380Y-109490000D01*
X157172380Y-109728095D01*
X158822380Y-111870952D02*
X157822380Y-111870952D01*
X158822380Y-111394761D02*
X157822380Y-111394761D01*
X158822380Y-110823333D01*
X157822380Y-110823333D01*
X157822380Y-109680476D02*
X157822380Y-109061428D01*
X158203333Y-109394761D01*
X158203333Y-109251904D01*
X158250952Y-109156666D01*
X158298571Y-109109047D01*
X158393809Y-109061428D01*
X158631904Y-109061428D01*
X158727142Y-109109047D01*
X158774761Y-109156666D01*
X158822380Y-109251904D01*
X158822380Y-109537619D01*
X158774761Y-109632857D01*
X158727142Y-109680476D01*
X160472380Y-111870952D02*
X159472380Y-111870952D01*
X160472380Y-111394761D02*
X159472380Y-111394761D01*
X160472380Y-110823333D01*
X159472380Y-110823333D01*
X159567619Y-109632857D02*
X159520000Y-109585238D01*
X159472380Y-109490000D01*
X159472380Y-109251904D01*
X159520000Y-109156666D01*
X159567619Y-109109047D01*
X159662857Y-109061428D01*
X159758095Y-109061428D01*
X159900952Y-109109047D01*
X160472380Y-109680476D01*
X160472380Y-109061428D01*
X162122380Y-111870952D02*
X161122380Y-111870952D01*
X162122380Y-111394761D02*
X161122380Y-111394761D01*
X162122380Y-110823333D01*
X161122380Y-110823333D01*
X162122380Y-109061428D02*
X162122380Y-109632857D01*
X162122380Y-109347142D02*
X161122380Y-109347142D01*
X161265238Y-109442380D01*
X161360476Y-109537619D01*
X161408095Y-109632857D01*
X163391428Y-111775714D02*
X163391428Y-111013809D01*
X163772380Y-111394761D02*
X163010476Y-111394761D01*
X162772380Y-110061428D02*
X162772380Y-110537619D01*
X163248571Y-110585238D01*
X163200952Y-110537619D01*
X163153333Y-110442380D01*
X163153333Y-110204285D01*
X163200952Y-110109047D01*
X163248571Y-110061428D01*
X163343809Y-110013809D01*
X163581904Y-110013809D01*
X163677142Y-110061428D01*
X163724761Y-110109047D01*
X163772380Y-110204285D01*
X163772380Y-110442380D01*
X163724761Y-110537619D01*
X163677142Y-110585238D01*
X162772380Y-109728095D02*
X163772380Y-109394761D01*
X162772380Y-109061428D01*
X136535000Y-111251904D02*
X136487380Y-111347142D01*
X136487380Y-111490000D01*
X136535000Y-111632857D01*
X136630238Y-111728095D01*
X136725476Y-111775714D01*
X136915952Y-111823333D01*
X137058809Y-111823333D01*
X137249285Y-111775714D01*
X137344523Y-111728095D01*
X137439761Y-111632857D01*
X137487380Y-111490000D01*
X137487380Y-111394761D01*
X137439761Y-111251904D01*
X137392142Y-111204285D01*
X137058809Y-111204285D01*
X137058809Y-111394761D01*
X137487380Y-110775714D02*
X136487380Y-110775714D01*
X137487380Y-110204285D01*
X136487380Y-110204285D01*
X137487380Y-109728095D02*
X136487380Y-109728095D01*
X136487380Y-109490000D01*
X136535000Y-109347142D01*
X136630238Y-109251904D01*
X136725476Y-109204285D01*
X136915952Y-109156666D01*
X137058809Y-109156666D01*
X137249285Y-109204285D01*
X137344523Y-109251904D01*
X137439761Y-109347142D01*
X137487380Y-109490000D01*
X137487380Y-109728095D01*
X139137380Y-110680476D02*
X139137380Y-111251904D01*
X139137380Y-110966190D02*
X138137380Y-110966190D01*
X138280238Y-111061428D01*
X138375476Y-111156666D01*
X138423095Y-111251904D01*
X138232619Y-110299523D02*
X138185000Y-110251904D01*
X138137380Y-110156666D01*
X138137380Y-109918571D01*
X138185000Y-109823333D01*
X138232619Y-109775714D01*
X138327857Y-109728095D01*
X138423095Y-109728095D01*
X138565952Y-109775714D01*
X139137380Y-110347142D01*
X139137380Y-109728095D01*
X140263571Y-111799523D02*
X140263571Y-112132857D01*
X140787380Y-112132857D02*
X139787380Y-112132857D01*
X139787380Y-111656666D01*
X140787380Y-110847142D02*
X140263571Y-110847142D01*
X140168333Y-110894761D01*
X140120714Y-110990000D01*
X140120714Y-111180476D01*
X140168333Y-111275714D01*
X140739761Y-110847142D02*
X140787380Y-110942380D01*
X140787380Y-111180476D01*
X140739761Y-111275714D01*
X140644523Y-111323333D01*
X140549285Y-111323333D01*
X140454047Y-111275714D01*
X140406428Y-111180476D01*
X140406428Y-110942380D01*
X140358809Y-110847142D01*
X140120714Y-109942380D02*
X140787380Y-109942380D01*
X140120714Y-110370952D02*
X140644523Y-110370952D01*
X140739761Y-110323333D01*
X140787380Y-110228095D01*
X140787380Y-110085238D01*
X140739761Y-109990000D01*
X140692142Y-109942380D01*
X140787380Y-109323333D02*
X140739761Y-109418571D01*
X140644523Y-109466190D01*
X139787380Y-109466190D01*
X140120714Y-109085238D02*
X140120714Y-108704285D01*
X139787380Y-108942380D02*
X140644523Y-108942380D01*
X140739761Y-108894761D01*
X140787380Y-108799523D01*
X140787380Y-108704285D01*
X141485000Y-112109047D02*
X141437380Y-112204285D01*
X141437380Y-112347142D01*
X141485000Y-112490000D01*
X141580238Y-112585238D01*
X141675476Y-112632857D01*
X141865952Y-112680476D01*
X142008809Y-112680476D01*
X142199285Y-112632857D01*
X142294523Y-112585238D01*
X142389761Y-112490000D01*
X142437380Y-112347142D01*
X142437380Y-112251904D01*
X142389761Y-112109047D01*
X142342142Y-112061428D01*
X142008809Y-112061428D01*
X142008809Y-112251904D01*
X142437380Y-111632857D02*
X141437380Y-111632857D01*
X142437380Y-111061428D01*
X141437380Y-111061428D01*
X142437380Y-110585238D02*
X141437380Y-110585238D01*
X141437380Y-110347142D01*
X141485000Y-110204285D01*
X141580238Y-110109047D01*
X141675476Y-110061428D01*
X141865952Y-110013809D01*
X142008809Y-110013809D01*
X142199285Y-110061428D01*
X142294523Y-110109047D01*
X142389761Y-110204285D01*
X142437380Y-110347142D01*
X142437380Y-110585238D01*
X141532619Y-108870952D02*
X141485000Y-108823333D01*
X141437380Y-108728095D01*
X141437380Y-108490000D01*
X141485000Y-108394761D01*
X141532619Y-108347142D01*
X141627857Y-108299523D01*
X141723095Y-108299523D01*
X141865952Y-108347142D01*
X142437380Y-108918571D01*
X142437380Y-108299523D01*
X143135000Y-111728095D02*
X143087380Y-111823333D01*
X143087380Y-111966190D01*
X143135000Y-112109047D01*
X143230238Y-112204285D01*
X143325476Y-112251904D01*
X143515952Y-112299523D01*
X143658809Y-112299523D01*
X143849285Y-112251904D01*
X143944523Y-112204285D01*
X144039761Y-112109047D01*
X144087380Y-111966190D01*
X144087380Y-111870952D01*
X144039761Y-111728095D01*
X143992142Y-111680476D01*
X143658809Y-111680476D01*
X143658809Y-111870952D01*
X144087380Y-111251904D02*
X143087380Y-111251904D01*
X144087380Y-110680476D01*
X143087380Y-110680476D01*
X144087380Y-110204285D02*
X143087380Y-110204285D01*
X143087380Y-109966190D01*
X143135000Y-109823333D01*
X143230238Y-109728095D01*
X143325476Y-109680476D01*
X143515952Y-109632857D01*
X143658809Y-109632857D01*
X143849285Y-109680476D01*
X143944523Y-109728095D01*
X144039761Y-109823333D01*
X144087380Y-109966190D01*
X144087380Y-110204285D01*
X143087380Y-109299523D02*
X143087380Y-108680476D01*
X143468333Y-109013809D01*
X143468333Y-108870952D01*
X143515952Y-108775714D01*
X143563571Y-108728095D01*
X143658809Y-108680476D01*
X143896904Y-108680476D01*
X143992142Y-108728095D01*
X144039761Y-108775714D01*
X144087380Y-108870952D01*
X144087380Y-109156666D01*
X144039761Y-109251904D01*
X143992142Y-109299523D01*
D11*
X152135000Y-105945714D02*
X152063571Y-106017142D01*
X151849285Y-106088571D01*
X151706428Y-106088571D01*
X151492142Y-106017142D01*
X151349285Y-105874285D01*
X151277857Y-105731428D01*
X151206428Y-105445714D01*
X151206428Y-105231428D01*
X151277857Y-104945714D01*
X151349285Y-104802857D01*
X151492142Y-104660000D01*
X151706428Y-104588571D01*
X151849285Y-104588571D01*
X152063571Y-104660000D01*
X152135000Y-104731428D01*
X153420714Y-105088571D02*
X153420714Y-106088571D01*
X152777857Y-105088571D02*
X152777857Y-105874285D01*
X152849285Y-106017142D01*
X152992142Y-106088571D01*
X153206428Y-106088571D01*
X153349285Y-106017142D01*
X153420714Y-105945714D01*
X154135000Y-106088571D02*
X154135000Y-105088571D01*
X154135000Y-105374285D02*
X154206428Y-105231428D01*
X154277857Y-105160000D01*
X154420714Y-105088571D01*
X154563571Y-105088571D01*
X155063571Y-106088571D02*
X155063571Y-105088571D01*
X155063571Y-105374285D02*
X155135000Y-105231428D01*
X155206428Y-105160000D01*
X155349285Y-105088571D01*
X155492142Y-105088571D01*
X156563571Y-106017142D02*
X156420714Y-106088571D01*
X156135000Y-106088571D01*
X155992142Y-106017142D01*
X155920714Y-105874285D01*
X155920714Y-105302857D01*
X155992142Y-105160000D01*
X156135000Y-105088571D01*
X156420714Y-105088571D01*
X156563571Y-105160000D01*
X156635000Y-105302857D01*
X156635000Y-105445714D01*
X155920714Y-105588571D01*
X157277857Y-105088571D02*
X157277857Y-106088571D01*
X157277857Y-105231428D02*
X157349285Y-105160000D01*
X157492142Y-105088571D01*
X157706428Y-105088571D01*
X157849285Y-105160000D01*
X157920714Y-105302857D01*
X157920714Y-106088571D01*
X158420714Y-105088571D02*
X158992142Y-105088571D01*
X158635000Y-104588571D02*
X158635000Y-105874285D01*
X158706428Y-106017142D01*
X158849285Y-106088571D01*
X158992142Y-106088571D01*
X160563571Y-106017142D02*
X160777857Y-106088571D01*
X161135000Y-106088571D01*
X161277857Y-106017142D01*
X161349285Y-105945714D01*
X161420714Y-105802857D01*
X161420714Y-105660000D01*
X161349285Y-105517142D01*
X161277857Y-105445714D01*
X161135000Y-105374285D01*
X160849285Y-105302857D01*
X160706428Y-105231428D01*
X160635000Y-105160000D01*
X160563571Y-105017142D01*
X160563571Y-104874285D01*
X160635000Y-104731428D01*
X160706428Y-104660000D01*
X160849285Y-104588571D01*
X161206428Y-104588571D01*
X161420714Y-104660000D01*
X162635000Y-106017142D02*
X162492142Y-106088571D01*
X162206428Y-106088571D01*
X162063571Y-106017142D01*
X161992142Y-105874285D01*
X161992142Y-105302857D01*
X162063571Y-105160000D01*
X162206428Y-105088571D01*
X162492142Y-105088571D01*
X162635000Y-105160000D01*
X162706428Y-105302857D01*
X162706428Y-105445714D01*
X161992142Y-105588571D01*
X163349285Y-105088571D02*
X163349285Y-106088571D01*
X163349285Y-105231428D02*
X163420714Y-105160000D01*
X163563571Y-105088571D01*
X163777857Y-105088571D01*
X163920714Y-105160000D01*
X163992142Y-105302857D01*
X163992142Y-106088571D01*
X164635000Y-106017142D02*
X164777857Y-106088571D01*
X165063571Y-106088571D01*
X165206428Y-106017142D01*
X165277857Y-105874285D01*
X165277857Y-105802857D01*
X165206428Y-105660000D01*
X165063571Y-105588571D01*
X164849285Y-105588571D01*
X164706428Y-105517142D01*
X164635000Y-105374285D01*
X164635000Y-105302857D01*
X164706428Y-105160000D01*
X164849285Y-105088571D01*
X165063571Y-105088571D01*
X165206428Y-105160000D01*
X166135000Y-106088571D02*
X165992142Y-106017142D01*
X165920714Y-105945714D01*
X165849285Y-105802857D01*
X165849285Y-105374285D01*
X165920714Y-105231428D01*
X165992142Y-105160000D01*
X166135000Y-105088571D01*
X166349285Y-105088571D01*
X166492142Y-105160000D01*
X166563571Y-105231428D01*
X166635000Y-105374285D01*
X166635000Y-105802857D01*
X166563571Y-105945714D01*
X166492142Y-106017142D01*
X166349285Y-106088571D01*
X166135000Y-106088571D01*
X167277857Y-106088571D02*
X167277857Y-105088571D01*
X167277857Y-105374285D02*
X167349285Y-105231428D01*
X167420714Y-105160000D01*
X167563571Y-105088571D01*
X167706428Y-105088571D01*
X138727857Y-106088571D02*
X138727857Y-104588571D01*
X139442142Y-106088571D02*
X139442142Y-104588571D01*
X139942142Y-105660000D01*
X140442142Y-104588571D01*
X140442142Y-106088571D01*
X141156428Y-106088571D02*
X141156428Y-104588571D01*
X141513571Y-104588571D01*
X141727857Y-104660000D01*
X141870714Y-104802857D01*
X141942142Y-104945714D01*
X142013571Y-105231428D01*
X142013571Y-105445714D01*
X141942142Y-105731428D01*
X141870714Y-105874285D01*
X141727857Y-106017142D01*
X141513571Y-106088571D01*
X141156428Y-106088571D01*
X73220000Y-101413571D02*
X74077142Y-101413571D01*
X73648571Y-102913571D02*
X73648571Y-101413571D01*
X74577142Y-102913571D02*
X74577142Y-101413571D01*
X75077142Y-102485000D01*
X75577142Y-101413571D01*
X75577142Y-102913571D01*
X76220000Y-102842142D02*
X76434285Y-102913571D01*
X76791428Y-102913571D01*
X76934285Y-102842142D01*
X77005714Y-102770714D01*
X77077142Y-102627857D01*
X77077142Y-102485000D01*
X77005714Y-102342142D01*
X76934285Y-102270714D01*
X76791428Y-102199285D01*
X76505714Y-102127857D01*
X76362857Y-102056428D01*
X76291428Y-101985000D01*
X76220000Y-101842142D01*
X76220000Y-101699285D01*
X76291428Y-101556428D01*
X76362857Y-101485000D01*
X76505714Y-101413571D01*
X76862857Y-101413571D01*
X77077142Y-101485000D01*
X77720000Y-102913571D02*
X77720000Y-101413571D01*
X78291428Y-101413571D01*
X78434285Y-101485000D01*
X78505714Y-101556428D01*
X78577142Y-101699285D01*
X78577142Y-101913571D01*
X78505714Y-102056428D01*
X78434285Y-102127857D01*
X78291428Y-102199285D01*
X77720000Y-102199285D01*
X80362857Y-102342142D02*
X81505714Y-102342142D01*
X97985000Y-105223571D02*
X98842142Y-105223571D01*
X98413571Y-106723571D02*
X98413571Y-105223571D01*
X99270714Y-106652142D02*
X99485000Y-106723571D01*
X99842142Y-106723571D01*
X99985000Y-106652142D01*
X100056428Y-106580714D01*
X100127857Y-106437857D01*
X100127857Y-106295000D01*
X100056428Y-106152142D01*
X99985000Y-106080714D01*
X99842142Y-106009285D01*
X99556428Y-105937857D01*
X99413571Y-105866428D01*
X99342142Y-105795000D01*
X99270714Y-105652142D01*
X99270714Y-105509285D01*
X99342142Y-105366428D01*
X99413571Y-105295000D01*
X99556428Y-105223571D01*
X99913571Y-105223571D01*
X100127857Y-105295000D01*
X100770714Y-106723571D02*
X100770714Y-105223571D01*
X101270714Y-106295000D01*
X101770714Y-105223571D01*
X101770714Y-106723571D01*
X102485000Y-106723571D02*
X102485000Y-105223571D01*
X103056428Y-105223571D01*
X103199285Y-105295000D01*
X103270714Y-105366428D01*
X103342142Y-105509285D01*
X103342142Y-105723571D01*
X103270714Y-105866428D01*
X103199285Y-105937857D01*
X103056428Y-106009285D01*
X102485000Y-106009285D01*
X105127857Y-106152142D02*
X106270714Y-106152142D01*
X105699285Y-106723571D02*
X105699285Y-105580714D01*
X72905000Y-117252142D02*
X72833571Y-117395000D01*
X72833571Y-117609285D01*
X72905000Y-117823571D01*
X73047857Y-117966428D01*
X73190714Y-118037857D01*
X73476428Y-118109285D01*
X73690714Y-118109285D01*
X73976428Y-118037857D01*
X74119285Y-117966428D01*
X74262142Y-117823571D01*
X74333571Y-117609285D01*
X74333571Y-117466428D01*
X74262142Y-117252142D01*
X74190714Y-117180714D01*
X73690714Y-117180714D01*
X73690714Y-117466428D01*
X74190714Y-116537857D02*
X74262142Y-116466428D01*
X74333571Y-116537857D01*
X74262142Y-116609285D01*
X74190714Y-116537857D01*
X74333571Y-116537857D01*
X74262142Y-115895000D02*
X74333571Y-115680714D01*
X74333571Y-115323571D01*
X74262142Y-115180714D01*
X74190714Y-115109285D01*
X74047857Y-115037857D01*
X73905000Y-115037857D01*
X73762142Y-115109285D01*
X73690714Y-115180714D01*
X73619285Y-115323571D01*
X73547857Y-115609285D01*
X73476428Y-115752142D01*
X73405000Y-115823571D01*
X73262142Y-115895000D01*
X73119285Y-115895000D01*
X72976428Y-115823571D01*
X72905000Y-115752142D01*
X72833571Y-115609285D01*
X72833571Y-115252142D01*
X72905000Y-115037857D01*
X73333571Y-114395000D02*
X74833571Y-114395000D01*
X73405000Y-114395000D02*
X73333571Y-114252142D01*
X73333571Y-113966428D01*
X73405000Y-113823571D01*
X73476428Y-113752142D01*
X73619285Y-113680714D01*
X74047857Y-113680714D01*
X74190714Y-113752142D01*
X74262142Y-113823571D01*
X74333571Y-113966428D01*
X74333571Y-114252142D01*
X74262142Y-114395000D01*
X74262142Y-112466428D02*
X74333571Y-112609285D01*
X74333571Y-112895000D01*
X74262142Y-113037857D01*
X74119285Y-113109285D01*
X73547857Y-113109285D01*
X73405000Y-113037857D01*
X73333571Y-112895000D01*
X73333571Y-112609285D01*
X73405000Y-112466428D01*
X73547857Y-112395000D01*
X73690714Y-112395000D01*
X73833571Y-113109285D01*
X74333571Y-111109285D02*
X73547857Y-111109285D01*
X73405000Y-111180714D01*
X73333571Y-111323571D01*
X73333571Y-111609285D01*
X73405000Y-111752142D01*
X74262142Y-111109285D02*
X74333571Y-111252142D01*
X74333571Y-111609285D01*
X74262142Y-111752142D01*
X74119285Y-111823571D01*
X73976428Y-111823571D01*
X73833571Y-111752142D01*
X73762142Y-111609285D01*
X73762142Y-111252142D01*
X73690714Y-111109285D01*
X74333571Y-110395000D02*
X73333571Y-110395000D01*
X73619285Y-110395000D02*
X73476428Y-110323571D01*
X73405000Y-110252142D01*
X73333571Y-110109285D01*
X73333571Y-109966428D01*
X74333571Y-109466428D02*
X73333571Y-109466428D01*
X72833571Y-109466428D02*
X72905000Y-109537857D01*
X72976428Y-109466428D01*
X72905000Y-109395000D01*
X72833571Y-109466428D01*
X72976428Y-109466428D01*
X73333571Y-108752142D02*
X74333571Y-108752142D01*
X73476428Y-108752142D02*
X73405000Y-108680714D01*
X73333571Y-108537857D01*
X73333571Y-108323571D01*
X73405000Y-108180714D01*
X73547857Y-108109285D01*
X74333571Y-108109285D01*
X73333571Y-106752142D02*
X74547857Y-106752142D01*
X74690714Y-106823571D01*
X74762142Y-106895000D01*
X74833571Y-107037857D01*
X74833571Y-107252142D01*
X74762142Y-107395000D01*
X74262142Y-106752142D02*
X74333571Y-106895000D01*
X74333571Y-107180714D01*
X74262142Y-107323571D01*
X74190714Y-107395000D01*
X74047857Y-107466428D01*
X73619285Y-107466428D01*
X73476428Y-107395000D01*
X73405000Y-107323571D01*
X73333571Y-107180714D01*
X73333571Y-106895000D01*
X73405000Y-106752142D01*
X75526428Y-116037857D02*
X75455000Y-115966428D01*
X75383571Y-115823571D01*
X75383571Y-115466428D01*
X75455000Y-115323571D01*
X75526428Y-115252142D01*
X75669285Y-115180714D01*
X75812142Y-115180714D01*
X76026428Y-115252142D01*
X76883571Y-116109285D01*
X76883571Y-115180714D01*
X76883571Y-113752142D02*
X76883571Y-114609285D01*
X76883571Y-114180714D02*
X75383571Y-114180714D01*
X75597857Y-114323571D01*
X75740714Y-114466428D01*
X75812142Y-114609285D01*
X76740714Y-113109285D02*
X76812142Y-113037857D01*
X76883571Y-113109285D01*
X76812142Y-113180714D01*
X76740714Y-113109285D01*
X76883571Y-113109285D01*
X75383571Y-112109285D02*
X75383571Y-111966428D01*
X75455000Y-111823571D01*
X75526428Y-111752142D01*
X75669285Y-111680714D01*
X75955000Y-111609285D01*
X76312142Y-111609285D01*
X76597857Y-111680714D01*
X76740714Y-111752142D01*
X76812142Y-111823571D01*
X76883571Y-111966428D01*
X76883571Y-112109285D01*
X76812142Y-112252142D01*
X76740714Y-112323571D01*
X76597857Y-112395000D01*
X76312142Y-112466428D01*
X75955000Y-112466428D01*
X75669285Y-112395000D01*
X75526428Y-112323571D01*
X75455000Y-112252142D01*
X75383571Y-112109285D01*
X75383571Y-110323571D02*
X75383571Y-110609285D01*
X75455000Y-110752142D01*
X75526428Y-110823571D01*
X75740714Y-110966428D01*
X76026428Y-111037857D01*
X76597857Y-111037857D01*
X76740714Y-110966428D01*
X76812142Y-110895000D01*
X76883571Y-110752142D01*
X76883571Y-110466428D01*
X76812142Y-110323571D01*
X76740714Y-110252142D01*
X76597857Y-110180714D01*
X76240714Y-110180714D01*
X76097857Y-110252142D01*
X76026428Y-110323571D01*
X75955000Y-110466428D01*
X75955000Y-110752142D01*
X76026428Y-110895000D01*
X76097857Y-110966428D01*
X76240714Y-111037857D01*
X75383571Y-109680714D02*
X75383571Y-108752142D01*
X75955000Y-109252142D01*
X75955000Y-109037857D01*
X76026428Y-108895000D01*
X76097857Y-108823571D01*
X76240714Y-108752142D01*
X76597857Y-108752142D01*
X76740714Y-108823571D01*
X76812142Y-108895000D01*
X76883571Y-109037857D01*
X76883571Y-109466428D01*
X76812142Y-109609285D01*
X76740714Y-109680714D01*
X98862857Y-28618571D02*
X98862857Y-27118571D01*
X98862857Y-27832857D02*
X99720000Y-27832857D01*
X99720000Y-28618571D02*
X99720000Y-27118571D01*
X100220000Y-27118571D02*
X100720000Y-28618571D01*
X101220000Y-27118571D01*
X101720000Y-28618571D02*
X101720000Y-27118571D01*
X102291428Y-27118571D01*
X102434285Y-27190000D01*
X102505714Y-27261428D01*
X102577142Y-27404285D01*
X102577142Y-27618571D01*
X102505714Y-27761428D01*
X102434285Y-27832857D01*
X102291428Y-27904285D01*
X101720000Y-27904285D01*
X103220000Y-28618571D02*
X103220000Y-27118571D01*
X103577142Y-27118571D01*
X103791428Y-27190000D01*
X103934285Y-27332857D01*
X104005714Y-27475714D01*
X104077142Y-27761428D01*
X104077142Y-27975714D01*
X104005714Y-28261428D01*
X103934285Y-28404285D01*
X103791428Y-28547142D01*
X103577142Y-28618571D01*
X103220000Y-28618571D01*
X104720000Y-27118571D02*
X104720000Y-28332857D01*
X104791428Y-28475714D01*
X104862857Y-28547142D01*
X105005714Y-28618571D01*
X105291428Y-28618571D01*
X105434285Y-28547142D01*
X105505714Y-28475714D01*
X105577142Y-28332857D01*
X105577142Y-27118571D01*
X108148571Y-28618571D02*
X107434285Y-28618571D01*
X107434285Y-27118571D01*
X108648571Y-28618571D02*
X108648571Y-27618571D01*
X108648571Y-27118571D02*
X108577142Y-27190000D01*
X108648571Y-27261428D01*
X108720000Y-27190000D01*
X108648571Y-27118571D01*
X108648571Y-27261428D01*
X109148571Y-27618571D02*
X109720000Y-27618571D01*
X109362857Y-27118571D02*
X109362857Y-28404285D01*
X109434285Y-28547142D01*
X109577142Y-28618571D01*
X109720000Y-28618571D01*
X110005714Y-27618571D02*
X110577142Y-27618571D01*
X110220000Y-27118571D02*
X110220000Y-28404285D01*
X110291428Y-28547142D01*
X110434285Y-28618571D01*
X110577142Y-28618571D01*
X111291428Y-28618571D02*
X111148571Y-28547142D01*
X111077142Y-28404285D01*
X111077142Y-27118571D01*
X112434285Y-28547142D02*
X112291428Y-28618571D01*
X112005714Y-28618571D01*
X111862857Y-28547142D01*
X111791428Y-28404285D01*
X111791428Y-27832857D01*
X111862857Y-27690000D01*
X112005714Y-27618571D01*
X112291428Y-27618571D01*
X112434285Y-27690000D01*
X112505714Y-27832857D01*
X112505714Y-27975714D01*
X111791428Y-28118571D01*
X114291428Y-28618571D02*
X114291428Y-27118571D01*
X114648571Y-27118571D01*
X114862857Y-27190000D01*
X115005714Y-27332857D01*
X115077142Y-27475714D01*
X115148571Y-27761428D01*
X115148571Y-27975714D01*
X115077142Y-28261428D01*
X115005714Y-28404285D01*
X114862857Y-28547142D01*
X114648571Y-28618571D01*
X114291428Y-28618571D01*
X116648571Y-28475714D02*
X116577142Y-28547142D01*
X116362857Y-28618571D01*
X116220000Y-28618571D01*
X116005714Y-28547142D01*
X115862857Y-28404285D01*
X115791428Y-28261428D01*
X115720000Y-27975714D01*
X115720000Y-27761428D01*
X115791428Y-27475714D01*
X115862857Y-27332857D01*
X116005714Y-27190000D01*
X116220000Y-27118571D01*
X116362857Y-27118571D01*
X116577142Y-27190000D01*
X116648571Y-27261428D01*
X117291428Y-28618571D02*
X117291428Y-27118571D01*
X117648571Y-27118571D01*
X117862857Y-27190000D01*
X118005714Y-27332857D01*
X118077142Y-27475714D01*
X118148571Y-27761428D01*
X118148571Y-27975714D01*
X118077142Y-28261428D01*
X118005714Y-28404285D01*
X117862857Y-28547142D01*
X117648571Y-28618571D01*
X117291428Y-28618571D01*
X119648571Y-28475714D02*
X119577142Y-28547142D01*
X119362857Y-28618571D01*
X119220000Y-28618571D01*
X119005714Y-28547142D01*
X118862857Y-28404285D01*
X118791428Y-28261428D01*
X118720000Y-27975714D01*
X118720000Y-27761428D01*
X118791428Y-27475714D01*
X118862857Y-27332857D01*
X119005714Y-27190000D01*
X119220000Y-27118571D01*
X119362857Y-27118571D01*
X119577142Y-27190000D01*
X119648571Y-27261428D01*
D12*
X140462142Y-78375000D02*
X140271666Y-78279761D01*
X139985952Y-78279761D01*
X139700238Y-78375000D01*
X139509761Y-78565476D01*
X139414523Y-78755952D01*
X139319285Y-79136904D01*
X139319285Y-79422619D01*
X139414523Y-79803571D01*
X139509761Y-79994047D01*
X139700238Y-80184523D01*
X139985952Y-80279761D01*
X140176428Y-80279761D01*
X140462142Y-80184523D01*
X140557380Y-80089285D01*
X140557380Y-79422619D01*
X140176428Y-79422619D01*
X142366904Y-80279761D02*
X141414523Y-80279761D01*
X141414523Y-78279761D01*
X142747857Y-78279761D02*
X143414523Y-80279761D01*
X144081190Y-78279761D01*
X130334047Y-77644761D02*
X131476904Y-77644761D01*
X130905476Y-79644761D02*
X130905476Y-77644761D01*
X132048333Y-79549523D02*
X132334047Y-79644761D01*
X132810238Y-79644761D01*
X133000714Y-79549523D01*
X133095952Y-79454285D01*
X133191190Y-79263809D01*
X133191190Y-79073333D01*
X133095952Y-78882857D01*
X133000714Y-78787619D01*
X132810238Y-78692380D01*
X132429285Y-78597142D01*
X132238809Y-78501904D01*
X132143571Y-78406666D01*
X132048333Y-78216190D01*
X132048333Y-78025714D01*
X132143571Y-77835238D01*
X132238809Y-77740000D01*
X132429285Y-77644761D01*
X132905476Y-77644761D01*
X133191190Y-77740000D01*
X133762619Y-77644761D02*
X134429285Y-79644761D01*
X135095952Y-77644761D01*
D13*
X149225000Y-61595000D02*
X149225000Y-25400000D01*
X130175000Y-88900000D02*
X149225000Y-61595000D01*
X130175000Y-121285000D02*
X130175000Y-107950000D01*
D14*
X86011428Y-46617142D02*
X87725714Y-46617142D01*
X86868571Y-49617142D02*
X86868571Y-46617142D01*
X88582857Y-49474285D02*
X89011428Y-49617142D01*
X89725714Y-49617142D01*
X90011428Y-49474285D01*
X90154285Y-49331428D01*
X90297142Y-49045714D01*
X90297142Y-48760000D01*
X90154285Y-48474285D01*
X90011428Y-48331428D01*
X89725714Y-48188571D01*
X89154285Y-48045714D01*
X88868571Y-47902857D01*
X88725714Y-47760000D01*
X88582857Y-47474285D01*
X88582857Y-47188571D01*
X88725714Y-46902857D01*
X88868571Y-46760000D01*
X89154285Y-46617142D01*
X89868571Y-46617142D01*
X90297142Y-46760000D01*
X91154285Y-46617142D02*
X92154285Y-49617142D01*
X93154285Y-46617142D01*
X94154285Y-48474285D02*
X96440000Y-48474285D01*
X120277142Y-63848571D02*
X120277142Y-62134285D01*
X123277142Y-62991428D02*
X120277142Y-62991428D01*
X123134285Y-61277142D02*
X123277142Y-60848571D01*
X123277142Y-60134285D01*
X123134285Y-59848571D01*
X122991428Y-59705714D01*
X122705714Y-59562857D01*
X122420000Y-59562857D01*
X122134285Y-59705714D01*
X121991428Y-59848571D01*
X121848571Y-60134285D01*
X121705714Y-60705714D01*
X121562857Y-60991428D01*
X121420000Y-61134285D01*
X121134285Y-61277142D01*
X120848571Y-61277142D01*
X120562857Y-61134285D01*
X120420000Y-60991428D01*
X120277142Y-60705714D01*
X120277142Y-59991428D01*
X120420000Y-59562857D01*
X120277142Y-58705714D02*
X123277142Y-57705714D01*
X120277142Y-56705714D01*
X122134285Y-55705714D02*
X122134285Y-53420000D01*
X123277142Y-54562857D02*
X120991428Y-54562857D01*
D15*
%TO.C,G\u002A\u002A\u002A*%
G36*
X79141976Y-108439354D02*
G01*
X79560936Y-108019908D01*
X81659130Y-108019908D01*
X82532556Y-108894242D01*
X82141968Y-109284323D01*
X81751381Y-109674403D01*
X81563240Y-109674403D01*
X81563240Y-109091834D01*
X81640422Y-109017027D01*
X81717604Y-108942219D01*
X81560597Y-108783999D01*
X81403589Y-108625779D01*
X79840181Y-108625779D01*
X79608027Y-108858807D01*
X79375874Y-109091834D01*
X81563240Y-109091834D01*
X81563240Y-109674403D01*
X79537620Y-109674403D01*
X79130318Y-109266602D01*
X78723015Y-108858800D01*
X79141976Y-108439354D01*
G37*
X79141976Y-108439354D02*
X79560936Y-108019908D01*
X81659130Y-108019908D01*
X82532556Y-108894242D01*
X82141968Y-109284323D01*
X81751381Y-109674403D01*
X81563240Y-109674403D01*
X81563240Y-109091834D01*
X81640422Y-109017027D01*
X81717604Y-108942219D01*
X81560597Y-108783999D01*
X81403589Y-108625779D01*
X79840181Y-108625779D01*
X79608027Y-108858807D01*
X79375874Y-109091834D01*
X81563240Y-109091834D01*
X81563240Y-109674403D01*
X79537620Y-109674403D01*
X79130318Y-109266602D01*
X78723015Y-108858800D01*
X79141976Y-108439354D01*
G36*
X79398886Y-109977339D02*
G01*
X80003252Y-109977339D01*
X80411998Y-110384191D01*
X80627974Y-110169114D01*
X80843949Y-109954036D01*
X81750415Y-109954036D01*
X81873826Y-109832159D01*
X81997236Y-109710281D01*
X82265008Y-109978053D01*
X82532779Y-110245825D01*
X82008211Y-110768535D01*
X81751881Y-110538623D01*
X81448547Y-110537614D01*
X81145214Y-110536605D01*
X80889679Y-110792935D01*
X80634143Y-111049266D01*
X81776935Y-111049266D01*
X81891951Y-110932495D01*
X82006966Y-110815724D01*
X82269744Y-111077757D01*
X82358933Y-111167591D01*
X82435151Y-111246075D01*
X82492811Y-111307318D01*
X82526323Y-111345424D01*
X82532523Y-111354856D01*
X82516520Y-111375267D01*
X82472324Y-111421859D01*
X82405657Y-111488844D01*
X82322241Y-111570434D01*
X82265528Y-111624949D01*
X81998533Y-111879977D01*
X81876003Y-111755906D01*
X81753473Y-111631834D01*
X80330184Y-111631834D01*
X80330184Y-111095871D01*
X80033188Y-110798875D01*
X79736193Y-110501879D01*
X79142201Y-111095871D01*
X80330184Y-111095871D01*
X80330184Y-111631834D01*
X79469562Y-111631834D01*
X79334749Y-111765241D01*
X79199935Y-111898648D01*
X78967055Y-111666642D01*
X78734174Y-111434635D01*
X78734174Y-110640865D01*
X79398886Y-109977339D01*
G37*
X79398886Y-109977339D02*
X80003252Y-109977339D01*
X80411998Y-110384191D01*
X80627974Y-110169114D01*
X80843949Y-109954036D01*
X81750415Y-109954036D01*
X81873826Y-109832159D01*
X81997236Y-109710281D01*
X82265008Y-109978053D01*
X82532779Y-110245825D01*
X82008211Y-110768535D01*
X81751881Y-110538623D01*
X81448547Y-110537614D01*
X81145214Y-110536605D01*
X80889679Y-110792935D01*
X80634143Y-111049266D01*
X81776935Y-111049266D01*
X81891951Y-110932495D01*
X82006966Y-110815724D01*
X82269744Y-111077757D01*
X82358933Y-111167591D01*
X82435151Y-111246075D01*
X82492811Y-111307318D01*
X82526323Y-111345424D01*
X82532523Y-111354856D01*
X82516520Y-111375267D01*
X82472324Y-111421859D01*
X82405657Y-111488844D01*
X82322241Y-111570434D01*
X82265528Y-111624949D01*
X81998533Y-111879977D01*
X81876003Y-111755906D01*
X81753473Y-111631834D01*
X80330184Y-111631834D01*
X80330184Y-111095871D01*
X80033188Y-110798875D01*
X79736193Y-110501879D01*
X79142201Y-111095871D01*
X80330184Y-111095871D01*
X80330184Y-111631834D01*
X79469562Y-111631834D01*
X79334749Y-111765241D01*
X79199935Y-111898648D01*
X78967055Y-111666642D01*
X78734174Y-111434635D01*
X78734174Y-110640865D01*
X79398886Y-109977339D01*
G36*
X79170140Y-114446608D02*
G01*
X79596151Y-114021063D01*
X79817719Y-114241710D01*
X80039287Y-114462356D01*
X79398927Y-115103944D01*
X80367316Y-115103944D01*
X80353716Y-114219008D01*
X80639174Y-114503833D01*
X80924633Y-114788658D01*
X80924633Y-115103944D01*
X81598041Y-115103944D01*
X81661396Y-115020882D01*
X81724750Y-114937820D01*
X81251112Y-114462564D01*
X81671556Y-114042120D01*
X82102039Y-114474776D01*
X82217280Y-114591006D01*
X82320877Y-114696275D01*
X82408512Y-114786130D01*
X82475866Y-114856120D01*
X82518621Y-114901792D01*
X82532523Y-114918568D01*
X82516751Y-114937491D01*
X82472522Y-114984481D01*
X82404462Y-115054781D01*
X82317199Y-115143633D01*
X82215361Y-115246280D01*
X82153596Y-115308108D01*
X81774669Y-115686513D01*
X79563062Y-115686513D01*
X79153596Y-115279333D01*
X78744129Y-114872152D01*
X79170140Y-114446608D01*
G37*
X79170140Y-114446608D02*
X79596151Y-114021063D01*
X79817719Y-114241710D01*
X80039287Y-114462356D01*
X79398927Y-115103944D01*
X80367316Y-115103944D01*
X80353716Y-114219008D01*
X80639174Y-114503833D01*
X80924633Y-114788658D01*
X80924633Y-115103944D01*
X81598041Y-115103944D01*
X81661396Y-115020882D01*
X81724750Y-114937820D01*
X81251112Y-114462564D01*
X81671556Y-114042120D01*
X82102039Y-114474776D01*
X82217280Y-114591006D01*
X82320877Y-114696275D01*
X82408512Y-114786130D01*
X82475866Y-114856120D01*
X82518621Y-114901792D01*
X82532523Y-114918568D01*
X82516751Y-114937491D01*
X82472522Y-114984481D01*
X82404462Y-115054781D01*
X82317199Y-115143633D01*
X82215361Y-115246280D01*
X82153596Y-115308108D01*
X81774669Y-115686513D01*
X79563062Y-115686513D01*
X79153596Y-115279333D01*
X78744129Y-114872152D01*
X79170140Y-114446608D01*
G36*
X79136377Y-116507698D02*
G01*
X79538605Y-116105963D01*
X81750415Y-116105963D01*
X81873826Y-115984085D01*
X81997236Y-115862208D01*
X82265008Y-116129980D01*
X82532779Y-116397752D01*
X81996979Y-116932032D01*
X81750415Y-116688532D01*
X81274174Y-116688532D01*
X81274174Y-117201192D01*
X81750415Y-117201192D01*
X81873826Y-117079315D01*
X81997236Y-116957437D01*
X82265008Y-117225209D01*
X82532779Y-117492981D01*
X81996979Y-118027261D01*
X81750415Y-117783761D01*
X80668303Y-117783761D01*
X80668303Y-117201192D01*
X80668303Y-116688532D01*
X79909668Y-116688532D01*
X79642334Y-116943681D01*
X79375000Y-117198831D01*
X80021651Y-117200011D01*
X80668303Y-117201192D01*
X80668303Y-117783761D01*
X79607567Y-117783761D01*
X79170858Y-117346597D01*
X78734149Y-116909434D01*
X79136377Y-116507698D01*
G37*
X79136377Y-116507698D02*
X79538605Y-116105963D01*
X81750415Y-116105963D01*
X81873826Y-115984085D01*
X81997236Y-115862208D01*
X82265008Y-116129980D01*
X82532779Y-116397752D01*
X81996979Y-116932032D01*
X81750415Y-116688532D01*
X81274174Y-116688532D01*
X81274174Y-117201192D01*
X81750415Y-117201192D01*
X81873826Y-117079315D01*
X81997236Y-116957437D01*
X82265008Y-117225209D01*
X82532779Y-117492981D01*
X81996979Y-118027261D01*
X81750415Y-117783761D01*
X80668303Y-117783761D01*
X80668303Y-117201192D01*
X80668303Y-116688532D01*
X79909668Y-116688532D01*
X79642334Y-116943681D01*
X79375000Y-117198831D01*
X80021651Y-117200011D01*
X80668303Y-117201192D01*
X80668303Y-117783761D01*
X79607567Y-117783761D01*
X79170858Y-117346597D01*
X78734149Y-116909434D01*
X79136377Y-116507698D01*
G36*
X79270138Y-112435779D02*
G01*
X79922615Y-112675032D01*
X79922615Y-112312941D01*
X79922894Y-112176356D01*
X79924236Y-112080317D01*
X79927399Y-112018767D01*
X79933143Y-111985648D01*
X79942225Y-111974902D01*
X79955403Y-111980471D01*
X79963394Y-111987150D01*
X79987919Y-112005801D01*
X80046574Y-112048904D01*
X80135611Y-112113760D01*
X80251280Y-112197670D01*
X80389830Y-112297939D01*
X80547511Y-112411866D01*
X80720575Y-112536754D01*
X80905270Y-112669906D01*
X81097846Y-112808622D01*
X81294555Y-112950206D01*
X81491645Y-113091959D01*
X81685368Y-113231183D01*
X81871972Y-113365180D01*
X82047708Y-113491252D01*
X82208827Y-113606701D01*
X82351578Y-113708830D01*
X82472211Y-113794939D01*
X82566976Y-113862331D01*
X82632123Y-113908309D01*
X82663903Y-113930173D01*
X82664655Y-113930652D01*
X82652273Y-113928812D01*
X82600011Y-113912983D01*
X82511990Y-113884541D01*
X82392330Y-113844862D01*
X82245151Y-113795324D01*
X82074575Y-113737302D01*
X81884720Y-113672173D01*
X81705454Y-113610239D01*
X81499915Y-113539049D01*
X81308314Y-113472772D01*
X81135054Y-113412925D01*
X80984540Y-113361024D01*
X80861175Y-113318589D01*
X80769363Y-113287135D01*
X80713509Y-113268180D01*
X80697610Y-113263027D01*
X80695511Y-113284981D01*
X80693732Y-113345447D01*
X80692414Y-113436333D01*
X80691696Y-113549545D01*
X80691605Y-113609325D01*
X80691605Y-113955622D01*
X80103211Y-113695354D01*
X79917004Y-113613068D01*
X79715723Y-113524257D01*
X79512005Y-113434488D01*
X79318484Y-113349327D01*
X79147798Y-113274339D01*
X79066238Y-113238576D01*
X78617661Y-113042066D01*
X78617661Y-112196527D01*
X79270138Y-112435779D01*
G37*
X79270138Y-112435779D02*
X79922615Y-112675032D01*
X79922615Y-112312941D01*
X79922894Y-112176356D01*
X79924236Y-112080317D01*
X79927399Y-112018767D01*
X79933143Y-111985648D01*
X79942225Y-111974902D01*
X79955403Y-111980471D01*
X79963394Y-111987150D01*
X79987919Y-112005801D01*
X80046574Y-112048904D01*
X80135611Y-112113760D01*
X80251280Y-112197670D01*
X80389830Y-112297939D01*
X80547511Y-112411866D01*
X80720575Y-112536754D01*
X80905270Y-112669906D01*
X81097846Y-112808622D01*
X81294555Y-112950206D01*
X81491645Y-113091959D01*
X81685368Y-113231183D01*
X81871972Y-113365180D01*
X82047708Y-113491252D01*
X82208827Y-113606701D01*
X82351578Y-113708830D01*
X82472211Y-113794939D01*
X82566976Y-113862331D01*
X82632123Y-113908309D01*
X82663903Y-113930173D01*
X82664655Y-113930652D01*
X82652273Y-113928812D01*
X82600011Y-113912983D01*
X82511990Y-113884541D01*
X82392330Y-113844862D01*
X82245151Y-113795324D01*
X82074575Y-113737302D01*
X81884720Y-113672173D01*
X81705454Y-113610239D01*
X81499915Y-113539049D01*
X81308314Y-113472772D01*
X81135054Y-113412925D01*
X80984540Y-113361024D01*
X80861175Y-113318589D01*
X80769363Y-113287135D01*
X80713509Y-113268180D01*
X80697610Y-113263027D01*
X80695511Y-113284981D01*
X80693732Y-113345447D01*
X80692414Y-113436333D01*
X80691696Y-113549545D01*
X80691605Y-113609325D01*
X80691605Y-113955622D01*
X80103211Y-113695354D01*
X79917004Y-113613068D01*
X79715723Y-113524257D01*
X79512005Y-113434488D01*
X79318484Y-113349327D01*
X79147798Y-113274339D01*
X79066238Y-113238576D01*
X78617661Y-113042066D01*
X78617661Y-112196527D01*
X79270138Y-112435779D01*
%TO.C,Ref\u002A\u002A*%
G36*
X123165211Y-67522891D02*
G01*
X123269418Y-67588584D01*
X123302914Y-67636483D01*
X123375939Y-67753385D01*
X123485893Y-67934850D01*
X123630176Y-68176441D01*
X123806189Y-68473719D01*
X124011330Y-68822245D01*
X124243001Y-69217581D01*
X124498600Y-69655289D01*
X124775528Y-70130929D01*
X125071185Y-70640063D01*
X125382971Y-71178254D01*
X125708285Y-71741061D01*
X126044528Y-72324048D01*
X126108112Y-72434433D01*
X126537853Y-73181243D01*
X126926154Y-73857356D01*
X127274347Y-74465145D01*
X127583761Y-75006983D01*
X127855727Y-75485244D01*
X128091574Y-75902301D01*
X128292635Y-76260526D01*
X128460237Y-76562294D01*
X128595713Y-76809977D01*
X128700391Y-77005948D01*
X128775603Y-77152581D01*
X128822678Y-77252249D01*
X128842946Y-77307324D01*
X128844000Y-77315274D01*
X128804647Y-77462786D01*
X128740091Y-77549424D01*
X128636182Y-77653334D01*
X117428759Y-77653334D01*
X117336713Y-77555355D01*
X117307926Y-77525488D01*
X117282825Y-77497171D01*
X117263367Y-77466599D01*
X117251507Y-77429968D01*
X117249202Y-77383475D01*
X117258410Y-77323316D01*
X117281086Y-77245688D01*
X117319188Y-77146786D01*
X117374672Y-77022807D01*
X117449495Y-76869947D01*
X117545613Y-76684403D01*
X117546769Y-76682252D01*
X118479389Y-76682252D01*
X118518894Y-76688657D01*
X118640239Y-76694577D01*
X118840601Y-76699989D01*
X119117153Y-76704866D01*
X119467072Y-76709185D01*
X119887532Y-76712921D01*
X120375709Y-76716050D01*
X120928778Y-76718546D01*
X121543914Y-76720385D01*
X122218293Y-76721543D01*
X122949089Y-76721995D01*
X123043257Y-76722000D01*
X127621236Y-76722000D01*
X127481202Y-76474576D01*
X126957772Y-75549957D01*
X126463029Y-74676450D01*
X125997866Y-73855625D01*
X125563178Y-73089057D01*
X125159861Y-72378315D01*
X124788811Y-71724974D01*
X124450921Y-71130604D01*
X124147087Y-70596779D01*
X123878204Y-70125070D01*
X123645167Y-69717050D01*
X123448872Y-69374290D01*
X123290212Y-69098364D01*
X123170085Y-68890843D01*
X123089383Y-68753299D01*
X123049004Y-68687304D01*
X123044334Y-68681292D01*
X123021688Y-68717055D01*
X122960513Y-68820671D01*
X122864097Y-68986376D01*
X122735729Y-69208405D01*
X122578699Y-69480993D01*
X122396294Y-69798375D01*
X122191805Y-70154787D01*
X121968521Y-70544464D01*
X121729730Y-70961641D01*
X121478721Y-71400553D01*
X121218784Y-71855436D01*
X120953208Y-72320526D01*
X120685282Y-72790056D01*
X120418294Y-73258263D01*
X120155534Y-73719382D01*
X119900291Y-74167648D01*
X119655854Y-74597297D01*
X119425512Y-75002563D01*
X119212555Y-75377682D01*
X119020270Y-75716890D01*
X118851948Y-76014420D01*
X118710877Y-76264510D01*
X118600346Y-76461394D01*
X118523645Y-76599306D01*
X118484062Y-76672484D01*
X118479389Y-76682252D01*
X117546769Y-76682252D01*
X117664983Y-76462370D01*
X117809561Y-76200046D01*
X117981305Y-75893625D01*
X118182171Y-75539305D01*
X118414116Y-75133282D01*
X118679096Y-74671753D01*
X118979068Y-74150912D01*
X119315988Y-73566957D01*
X119691813Y-72916084D01*
X119978891Y-72418960D01*
X120317130Y-71833852D01*
X120644925Y-71268085D01*
X120959666Y-70726103D01*
X121258742Y-70212347D01*
X121539542Y-69731259D01*
X121799456Y-69287281D01*
X122035874Y-68884855D01*
X122246186Y-68528423D01*
X122427780Y-68222426D01*
X122578047Y-67971307D01*
X122694376Y-67779508D01*
X122774157Y-67651471D01*
X122814779Y-67591637D01*
X122817585Y-67588584D01*
X122929678Y-67520198D01*
X123044334Y-67493334D01*
X123165211Y-67522891D01*
G37*
X123165211Y-67522891D02*
X123269418Y-67588584D01*
X123302914Y-67636483D01*
X123375939Y-67753385D01*
X123485893Y-67934850D01*
X123630176Y-68176441D01*
X123806189Y-68473719D01*
X124011330Y-68822245D01*
X124243001Y-69217581D01*
X124498600Y-69655289D01*
X124775528Y-70130929D01*
X125071185Y-70640063D01*
X125382971Y-71178254D01*
X125708285Y-71741061D01*
X126044528Y-72324048D01*
X126108112Y-72434433D01*
X126537853Y-73181243D01*
X126926154Y-73857356D01*
X127274347Y-74465145D01*
X127583761Y-75006983D01*
X127855727Y-75485244D01*
X128091574Y-75902301D01*
X128292635Y-76260526D01*
X128460237Y-76562294D01*
X128595713Y-76809977D01*
X128700391Y-77005948D01*
X128775603Y-77152581D01*
X128822678Y-77252249D01*
X128842946Y-77307324D01*
X128844000Y-77315274D01*
X128804647Y-77462786D01*
X128740091Y-77549424D01*
X128636182Y-77653334D01*
X117428759Y-77653334D01*
X117336713Y-77555355D01*
X117307926Y-77525488D01*
X117282825Y-77497171D01*
X117263367Y-77466599D01*
X117251507Y-77429968D01*
X117249202Y-77383475D01*
X117258410Y-77323316D01*
X117281086Y-77245688D01*
X117319188Y-77146786D01*
X117374672Y-77022807D01*
X117449495Y-76869947D01*
X117545613Y-76684403D01*
X117546769Y-76682252D01*
X118479389Y-76682252D01*
X118518894Y-76688657D01*
X118640239Y-76694577D01*
X118840601Y-76699989D01*
X119117153Y-76704866D01*
X119467072Y-76709185D01*
X119887532Y-76712921D01*
X120375709Y-76716050D01*
X120928778Y-76718546D01*
X121543914Y-76720385D01*
X122218293Y-76721543D01*
X122949089Y-76721995D01*
X123043257Y-76722000D01*
X127621236Y-76722000D01*
X127481202Y-76474576D01*
X126957772Y-75549957D01*
X126463029Y-74676450D01*
X125997866Y-73855625D01*
X125563178Y-73089057D01*
X125159861Y-72378315D01*
X124788811Y-71724974D01*
X124450921Y-71130604D01*
X124147087Y-70596779D01*
X123878204Y-70125070D01*
X123645167Y-69717050D01*
X123448872Y-69374290D01*
X123290212Y-69098364D01*
X123170085Y-68890843D01*
X123089383Y-68753299D01*
X123049004Y-68687304D01*
X123044334Y-68681292D01*
X123021688Y-68717055D01*
X122960513Y-68820671D01*
X122864097Y-68986376D01*
X122735729Y-69208405D01*
X122578699Y-69480993D01*
X122396294Y-69798375D01*
X122191805Y-70154787D01*
X121968521Y-70544464D01*
X121729730Y-70961641D01*
X121478721Y-71400553D01*
X121218784Y-71855436D01*
X120953208Y-72320526D01*
X120685282Y-72790056D01*
X120418294Y-73258263D01*
X120155534Y-73719382D01*
X119900291Y-74167648D01*
X119655854Y-74597297D01*
X119425512Y-75002563D01*
X119212555Y-75377682D01*
X119020270Y-75716890D01*
X118851948Y-76014420D01*
X118710877Y-76264510D01*
X118600346Y-76461394D01*
X118523645Y-76599306D01*
X118484062Y-76672484D01*
X118479389Y-76682252D01*
X117546769Y-76682252D01*
X117664983Y-76462370D01*
X117809561Y-76200046D01*
X117981305Y-75893625D01*
X118182171Y-75539305D01*
X118414116Y-75133282D01*
X118679096Y-74671753D01*
X118979068Y-74150912D01*
X119315988Y-73566957D01*
X119691813Y-72916084D01*
X119978891Y-72418960D01*
X120317130Y-71833852D01*
X120644925Y-71268085D01*
X120959666Y-70726103D01*
X121258742Y-70212347D01*
X121539542Y-69731259D01*
X121799456Y-69287281D01*
X122035874Y-68884855D01*
X122246186Y-68528423D01*
X122427780Y-68222426D01*
X122578047Y-67971307D01*
X122694376Y-67779508D01*
X122774157Y-67651471D01*
X122814779Y-67591637D01*
X122817585Y-67588584D01*
X122929678Y-67520198D01*
X123044334Y-67493334D01*
X123165211Y-67522891D01*
G36*
X123431801Y-71052482D02*
G01*
X123559050Y-71059811D01*
X123629177Y-71070569D01*
X123637000Y-71076005D01*
X123620778Y-71120309D01*
X123574987Y-71232024D01*
X123503940Y-71400972D01*
X123411953Y-71616975D01*
X123303339Y-71869853D01*
X123182411Y-72149427D01*
X123168674Y-72181069D01*
X123047405Y-72462166D01*
X122938962Y-72717114D01*
X122847489Y-72935877D01*
X122777132Y-73108417D01*
X122732035Y-73224697D01*
X122716344Y-73274678D01*
X122716626Y-73275737D01*
X122759284Y-73266217D01*
X122866914Y-73229502D01*
X123026144Y-73170502D01*
X123223603Y-73094131D01*
X123377093Y-73033093D01*
X123593630Y-72947706D01*
X123781665Y-72876681D01*
X123927731Y-72824854D01*
X124018362Y-72797062D01*
X124041586Y-72794475D01*
X124036276Y-72838963D01*
X124011305Y-72954745D01*
X123969230Y-73131416D01*
X123912607Y-73358569D01*
X123843993Y-73625799D01*
X123765942Y-73922701D01*
X123746467Y-73995806D01*
X123664167Y-74304274D01*
X123587872Y-74590832D01*
X123520651Y-74843910D01*
X123465571Y-75051936D01*
X123425700Y-75203341D01*
X123404106Y-75286554D01*
X123402433Y-75293250D01*
X123390949Y-75376452D01*
X123427055Y-75406376D01*
X123484244Y-75409667D01*
X123566038Y-75418425D01*
X123594667Y-75436208D01*
X123572829Y-75484690D01*
X123514567Y-75584486D01*
X123430761Y-75719045D01*
X123332290Y-75871816D01*
X123230034Y-76026249D01*
X123134870Y-76165793D01*
X123057679Y-76273899D01*
X123009340Y-76334014D01*
X122999917Y-76341000D01*
X122974364Y-76303519D01*
X122928088Y-76201451D01*
X122867647Y-76050360D01*
X122799600Y-75865809D01*
X122799224Y-75864750D01*
X122630099Y-75388500D01*
X122768495Y-75375673D01*
X122906891Y-75362845D01*
X123060083Y-74825339D01*
X123126551Y-74592246D01*
X123193237Y-74358597D01*
X123252249Y-74152029D01*
X123294571Y-74004107D01*
X123375867Y-73720381D01*
X123178350Y-73798405D01*
X123058673Y-73845974D01*
X122885155Y-73915316D01*
X122682481Y-73996551D01*
X122504584Y-74068032D01*
X122304275Y-74144765D01*
X122151087Y-74195559D01*
X122055498Y-74217292D01*
X122027345Y-74210235D01*
X122038184Y-74159627D01*
X122069496Y-74036734D01*
X122118791Y-73850764D01*
X122183580Y-73610925D01*
X122261371Y-73326424D01*
X122349676Y-73006471D01*
X122446004Y-72660272D01*
X122461262Y-72605680D01*
X122896167Y-71050526D01*
X123266584Y-71049930D01*
X123431801Y-71052482D01*
G37*
X123431801Y-71052482D02*
X123559050Y-71059811D01*
X123629177Y-71070569D01*
X123637000Y-71076005D01*
X123620778Y-71120309D01*
X123574987Y-71232024D01*
X123503940Y-71400972D01*
X123411953Y-71616975D01*
X123303339Y-71869853D01*
X123182411Y-72149427D01*
X123168674Y-72181069D01*
X123047405Y-72462166D01*
X122938962Y-72717114D01*
X122847489Y-72935877D01*
X122777132Y-73108417D01*
X122732035Y-73224697D01*
X122716344Y-73274678D01*
X122716626Y-73275737D01*
X122759284Y-73266217D01*
X122866914Y-73229502D01*
X123026144Y-73170502D01*
X123223603Y-73094131D01*
X123377093Y-73033093D01*
X123593630Y-72947706D01*
X123781665Y-72876681D01*
X123927731Y-72824854D01*
X124018362Y-72797062D01*
X124041586Y-72794475D01*
X124036276Y-72838963D01*
X124011305Y-72954745D01*
X123969230Y-73131416D01*
X123912607Y-73358569D01*
X123843993Y-73625799D01*
X123765942Y-73922701D01*
X123746467Y-73995806D01*
X123664167Y-74304274D01*
X123587872Y-74590832D01*
X123520651Y-74843910D01*
X123465571Y-75051936D01*
X123425700Y-75203341D01*
X123404106Y-75286554D01*
X123402433Y-75293250D01*
X123390949Y-75376452D01*
X123427055Y-75406376D01*
X123484244Y-75409667D01*
X123566038Y-75418425D01*
X123594667Y-75436208D01*
X123572829Y-75484690D01*
X123514567Y-75584486D01*
X123430761Y-75719045D01*
X123332290Y-75871816D01*
X123230034Y-76026249D01*
X123134870Y-76165793D01*
X123057679Y-76273899D01*
X123009340Y-76334014D01*
X122999917Y-76341000D01*
X122974364Y-76303519D01*
X122928088Y-76201451D01*
X122867647Y-76050360D01*
X122799600Y-75865809D01*
X122799224Y-75864750D01*
X122630099Y-75388500D01*
X122768495Y-75375673D01*
X122906891Y-75362845D01*
X123060083Y-74825339D01*
X123126551Y-74592246D01*
X123193237Y-74358597D01*
X123252249Y-74152029D01*
X123294571Y-74004107D01*
X123375867Y-73720381D01*
X123178350Y-73798405D01*
X123058673Y-73845974D01*
X122885155Y-73915316D01*
X122682481Y-73996551D01*
X122504584Y-74068032D01*
X122304275Y-74144765D01*
X122151087Y-74195559D01*
X122055498Y-74217292D01*
X122027345Y-74210235D01*
X122038184Y-74159627D01*
X122069496Y-74036734D01*
X122118791Y-73850764D01*
X122183580Y-73610925D01*
X122261371Y-73326424D01*
X122349676Y-73006471D01*
X122446004Y-72660272D01*
X122461262Y-72605680D01*
X122896167Y-71050526D01*
X123266584Y-71049930D01*
X123431801Y-71052482D01*
D16*
%TO.C,R9*%
X171645000Y-85452936D02*
X171645000Y-89807064D01*
X175065000Y-85452936D02*
X175065000Y-89807064D01*
D17*
%TO.C,U1*%
X132080000Y-60520000D02*
X128580000Y-57020000D01*
X159580000Y-57020000D02*
X156080000Y-60520000D01*
X156080000Y-27520000D02*
X159580000Y-31020000D01*
X128580000Y-31020000D02*
X132080000Y-27520000D01*
X128580000Y-57020000D02*
X128580000Y-31020000D01*
X156080000Y-60520000D02*
X132080000Y-60520000D01*
X159580000Y-31020000D02*
X159580000Y-57020000D01*
X132080000Y-27520000D02*
X156080000Y-27520000D01*
D16*
%TO.C,U2*%
X155595000Y-84455000D02*
X155595000Y-82505000D01*
X155595000Y-84455000D02*
X155595000Y-86405000D01*
X150475000Y-84455000D02*
X150475000Y-82505000D01*
X150475000Y-84455000D02*
X150475000Y-87905000D01*
%TO.C,R8*%
X72215000Y-82270000D02*
X81455000Y-82270000D01*
X81455000Y-82270000D02*
X81455000Y-32030000D01*
X81455000Y-32030000D02*
X72215000Y-32030000D01*
X72215000Y-32030000D02*
X72215000Y-82270000D01*
X76835000Y-83650000D02*
X76835000Y-82270000D01*
X76835000Y-30650000D02*
X76835000Y-32030000D01*
%TO.C,R7*%
X84280000Y-112115000D02*
X93520000Y-112115000D01*
X93520000Y-112115000D02*
X93520000Y-61875000D01*
X93520000Y-61875000D02*
X84280000Y-61875000D01*
X84280000Y-61875000D02*
X84280000Y-112115000D01*
X88900000Y-113495000D02*
X88900000Y-112115000D01*
X88900000Y-60495000D02*
X88900000Y-61875000D01*
%TO.C,R6*%
X161485000Y-98062064D02*
X161485000Y-93707936D01*
X164905000Y-98062064D02*
X164905000Y-93707936D01*
%TO.C,R5*%
X155194724Y-90692500D02*
X154685276Y-90692500D01*
X155194724Y-89647500D02*
X154685276Y-89647500D01*
%TO.C,R4*%
X147842500Y-84835276D02*
X147842500Y-85344724D01*
X146797500Y-84835276D02*
X146797500Y-85344724D01*
%TO.C,R3*%
X150875276Y-77582500D02*
X151384724Y-77582500D01*
X150875276Y-78627500D02*
X151384724Y-78627500D01*
%TO.C,R1*%
X113085000Y-104505000D02*
X119325000Y-104505000D01*
X119325000Y-104505000D02*
X119325000Y-87265000D01*
X119325000Y-87265000D02*
X113085000Y-87265000D01*
X113085000Y-87265000D02*
X113085000Y-104505000D01*
X116205000Y-109685000D02*
X116205000Y-104505000D01*
X116205000Y-82085000D02*
X116205000Y-87265000D01*
%TO.C,Q2*%
X158475000Y-83945000D02*
X158475000Y-85445000D01*
X158475000Y-85445000D02*
X158745000Y-85445000D01*
X158745000Y-85445000D02*
X158745000Y-88275000D01*
X165375000Y-83945000D02*
X165375000Y-85445000D01*
X165375000Y-85445000D02*
X165105000Y-85445000D01*
X165105000Y-85445000D02*
X165105000Y-86545000D01*
%TO.C,Q1*%
X152295000Y-99970000D02*
X153795000Y-99970000D01*
X153795000Y-99970000D02*
X153795000Y-99700000D01*
X153795000Y-99700000D02*
X156625000Y-99700000D01*
X152295000Y-93070000D02*
X153795000Y-93070000D01*
X153795000Y-93070000D02*
X153795000Y-93340000D01*
X153795000Y-93340000D02*
X154895000Y-93340000D01*
%TO.C,J7*%
X146205000Y-118650000D02*
X146205000Y-113930000D01*
X146205000Y-113930000D02*
X134085000Y-113930000D01*
X134085000Y-113930000D02*
X134085000Y-118650000D01*
X134085000Y-118650000D02*
X146205000Y-118650000D01*
X144445000Y-118650000D02*
X144445000Y-118850000D01*
X144445000Y-118850000D02*
X144745000Y-118850000D01*
X144745000Y-118850000D02*
X144745000Y-118650000D01*
X144445000Y-118750000D02*
X144745000Y-118750000D01*
X143645000Y-118650000D02*
X143645000Y-118040000D01*
X143645000Y-118040000D02*
X145595000Y-118040000D01*
X145595000Y-118040000D02*
X145595000Y-114540000D01*
X145595000Y-114540000D02*
X134695000Y-114540000D01*
X134695000Y-114540000D02*
X134695000Y-118040000D01*
X134695000Y-118040000D02*
X136645000Y-118040000D01*
X136645000Y-118040000D02*
X136645000Y-118650000D01*
X146205000Y-117340000D02*
X145595000Y-117340000D01*
X146205000Y-116040000D02*
X145595000Y-116040000D01*
X134085000Y-117340000D02*
X134695000Y-117340000D01*
X134085000Y-116040000D02*
X134695000Y-116040000D01*
X143245000Y-114540000D02*
X143245000Y-115040000D01*
X143245000Y-115040000D02*
X143045000Y-115040000D01*
X143045000Y-115040000D02*
X143045000Y-114540000D01*
X143145000Y-114540000D02*
X143145000Y-115040000D01*
X141245000Y-114540000D02*
X141245000Y-115040000D01*
X141245000Y-115040000D02*
X141045000Y-115040000D01*
X141045000Y-115040000D02*
X141045000Y-114540000D01*
X141145000Y-114540000D02*
X141145000Y-115040000D01*
X139245000Y-114540000D02*
X139245000Y-115040000D01*
X139245000Y-115040000D02*
X139045000Y-115040000D01*
X139045000Y-115040000D02*
X139045000Y-114540000D01*
X139145000Y-114540000D02*
X139145000Y-115040000D01*
X137245000Y-114540000D02*
X137245000Y-115040000D01*
X137245000Y-115040000D02*
X137045000Y-115040000D01*
X137045000Y-115040000D02*
X137045000Y-114540000D01*
X137145000Y-114540000D02*
X137145000Y-115040000D01*
X145255000Y-118950000D02*
X146505000Y-118950000D01*
X146505000Y-118950000D02*
X146505000Y-117700000D01*
%TO.C,J6*%
X165255000Y-118650000D02*
X165255000Y-113930000D01*
X165255000Y-113930000D02*
X153135000Y-113930000D01*
X153135000Y-113930000D02*
X153135000Y-118650000D01*
X153135000Y-118650000D02*
X165255000Y-118650000D01*
X163495000Y-118650000D02*
X163495000Y-118850000D01*
X163495000Y-118850000D02*
X163795000Y-118850000D01*
X163795000Y-118850000D02*
X163795000Y-118650000D01*
X163495000Y-118750000D02*
X163795000Y-118750000D01*
X162695000Y-118650000D02*
X162695000Y-118040000D01*
X162695000Y-118040000D02*
X164645000Y-118040000D01*
X164645000Y-118040000D02*
X164645000Y-114540000D01*
X164645000Y-114540000D02*
X153745000Y-114540000D01*
X153745000Y-114540000D02*
X153745000Y-118040000D01*
X153745000Y-118040000D02*
X155695000Y-118040000D01*
X155695000Y-118040000D02*
X155695000Y-118650000D01*
X165255000Y-117340000D02*
X164645000Y-117340000D01*
X165255000Y-116040000D02*
X164645000Y-116040000D01*
X153135000Y-117340000D02*
X153745000Y-117340000D01*
X153135000Y-116040000D02*
X153745000Y-116040000D01*
X162295000Y-114540000D02*
X162295000Y-115040000D01*
X162295000Y-115040000D02*
X162095000Y-115040000D01*
X162095000Y-115040000D02*
X162095000Y-114540000D01*
X162195000Y-114540000D02*
X162195000Y-115040000D01*
X160295000Y-114540000D02*
X160295000Y-115040000D01*
X160295000Y-115040000D02*
X160095000Y-115040000D01*
X160095000Y-115040000D02*
X160095000Y-114540000D01*
X160195000Y-114540000D02*
X160195000Y-115040000D01*
X158295000Y-114540000D02*
X158295000Y-115040000D01*
X158295000Y-115040000D02*
X158095000Y-115040000D01*
X158095000Y-115040000D02*
X158095000Y-114540000D01*
X158195000Y-114540000D02*
X158195000Y-115040000D01*
X156295000Y-114540000D02*
X156295000Y-115040000D01*
X156295000Y-115040000D02*
X156095000Y-115040000D01*
X156095000Y-115040000D02*
X156095000Y-114540000D01*
X156195000Y-114540000D02*
X156195000Y-115040000D01*
X164305000Y-118950000D02*
X165555000Y-118950000D01*
X165555000Y-118950000D02*
X165555000Y-117700000D01*
%TO.C,J4*%
X77085000Y-92135000D02*
G75*
G03*
X77085000Y-92135000I-250000J0D01*
G01*
X76835000Y-100045000D02*
X73625000Y-100045000D01*
X73625000Y-100045000D02*
X73625000Y-91825000D01*
X73625000Y-91825000D02*
X75045000Y-91825000D01*
X75045000Y-91825000D02*
X75045000Y-92775000D01*
X75045000Y-92775000D02*
X76835000Y-92775000D01*
X76835000Y-100045000D02*
X80045000Y-100045000D01*
X80045000Y-100045000D02*
X80045000Y-91825000D01*
X80045000Y-91825000D02*
X78625000Y-91825000D01*
X78625000Y-91825000D02*
X78625000Y-92775000D01*
X78625000Y-92775000D02*
X76835000Y-92775000D01*
%TO.C,J3*%
X101850000Y-117415000D02*
G75*
G03*
X101850000Y-117415000I-250000J0D01*
G01*
X101600000Y-109505000D02*
X104810000Y-109505000D01*
X104810000Y-109505000D02*
X104810000Y-117725000D01*
X104810000Y-117725000D02*
X103390000Y-117725000D01*
X103390000Y-117725000D02*
X103390000Y-116775000D01*
X103390000Y-116775000D02*
X101600000Y-116775000D01*
X101600000Y-109505000D02*
X98390000Y-109505000D01*
X98390000Y-109505000D02*
X98390000Y-117725000D01*
X98390000Y-117725000D02*
X99810000Y-117725000D01*
X99810000Y-117725000D02*
X99810000Y-116775000D01*
X99810000Y-116775000D02*
X101600000Y-116775000D01*
%TO.C,J2*%
X89535000Y-28160000D02*
X86635000Y-28160000D01*
X86635000Y-28160000D02*
X86635000Y-42350000D01*
X86635000Y-42350000D02*
X88431698Y-42350000D01*
X89535000Y-28160000D02*
X92435000Y-28160000D01*
X92435000Y-28160000D02*
X92435000Y-42350000D01*
X92435000Y-42350000D02*
X90638302Y-42350000D01*
X87925000Y-28160000D02*
X87925000Y-26860000D01*
X87925000Y-26860000D02*
X91145000Y-26860000D01*
X91145000Y-26860000D02*
X91145000Y-28160000D01*
X86635000Y-28160000D02*
X85875000Y-28160000D01*
X85875000Y-28160000D02*
X85875000Y-29520000D01*
X85875000Y-29520000D02*
X86635000Y-29520000D01*
X86635000Y-32505000D02*
X85875000Y-32505000D01*
X85875000Y-32505000D02*
X85875000Y-33865000D01*
X85875000Y-33865000D02*
X86635000Y-33865000D01*
X86635000Y-36645000D02*
X85875000Y-36645000D01*
X85875000Y-36645000D02*
X85875000Y-38005000D01*
X85875000Y-38005000D02*
X86635000Y-38005000D01*
X86635000Y-40785000D02*
X85875000Y-40785000D01*
X85875000Y-40785000D02*
X85875000Y-42145000D01*
X85875000Y-42145000D02*
X86635000Y-42145000D01*
X86335000Y-31115000D02*
X85910736Y-31415000D01*
X85910736Y-31415000D02*
X85910736Y-30815000D01*
X85910736Y-30815000D02*
X86335000Y-31115000D01*
%TO.C,J1*%
X101165000Y-59055000D02*
X101165000Y-61955000D01*
X101165000Y-61955000D02*
X115355000Y-61955000D01*
X115355000Y-61955000D02*
X115355000Y-60158302D01*
X101165000Y-59055000D02*
X101165000Y-56155000D01*
X101165000Y-56155000D02*
X115355000Y-56155000D01*
X115355000Y-56155000D02*
X115355000Y-57951698D01*
X101165000Y-60665000D02*
X99865000Y-60665000D01*
X99865000Y-60665000D02*
X99865000Y-57445000D01*
X99865000Y-57445000D02*
X101165000Y-57445000D01*
X101165000Y-61955000D02*
X101165000Y-62715000D01*
X101165000Y-62715000D02*
X102525000Y-62715000D01*
X102525000Y-62715000D02*
X102525000Y-61955000D01*
X105510000Y-61955000D02*
X105510000Y-62715000D01*
X105510000Y-62715000D02*
X106870000Y-62715000D01*
X106870000Y-62715000D02*
X106870000Y-61955000D01*
X109650000Y-61955000D02*
X109650000Y-62715000D01*
X109650000Y-62715000D02*
X111010000Y-62715000D01*
X111010000Y-62715000D02*
X111010000Y-61955000D01*
X113790000Y-61955000D02*
X113790000Y-62715000D01*
X113790000Y-62715000D02*
X115150000Y-62715000D01*
X115150000Y-62715000D02*
X115150000Y-61955000D01*
X104120000Y-62255000D02*
X104420000Y-62679264D01*
X104420000Y-62679264D02*
X103820000Y-62679264D01*
X103820000Y-62679264D02*
X104120000Y-62255000D01*
%TO.C,F1*%
X108940000Y-91440000D02*
X106140000Y-91440000D01*
X108940000Y-91440000D02*
X108940000Y-68940000D01*
X99340000Y-91440000D02*
X99340000Y-68940000D01*
X102140000Y-91440000D02*
X99340000Y-91440000D01*
X102140000Y-68940000D02*
X99340000Y-68940000D01*
X108940000Y-68940000D02*
X106140000Y-68940000D01*
%TO.C,C8*%
X200700000Y-58380000D02*
G75*
G03*
X200700000Y-58380000I-5120000J0D01*
G01*
%TO.C,C7*%
X185650000Y-58480000D02*
G75*
G03*
X185650000Y-58480000I-9120000J0D01*
G01*
X185611000Y-58480000D02*
X167449000Y-58480000D01*
X185610000Y-58520000D02*
X167450000Y-58520000D01*
X185610000Y-58560000D02*
X167450000Y-58560000D01*
X185610000Y-58600000D02*
X167450000Y-58600000D01*
X185609000Y-58640000D02*
X167451000Y-58640000D01*
X185608000Y-58680000D02*
X167452000Y-58680000D01*
X185607000Y-58720000D02*
X167453000Y-58720000D01*
X185606000Y-58760000D02*
X167454000Y-58760000D01*
X185605000Y-58800000D02*
X167455000Y-58800000D01*
X185603000Y-58840000D02*
X167457000Y-58840000D01*
X185602000Y-58880000D02*
X167458000Y-58880000D01*
X185600000Y-58920000D02*
X167460000Y-58920000D01*
X185598000Y-58960000D02*
X167462000Y-58960000D01*
X185596000Y-59000000D02*
X167464000Y-59000000D01*
X185593000Y-59040000D02*
X167467000Y-59040000D01*
X185591000Y-59080000D02*
X167469000Y-59080000D01*
X185588000Y-59120000D02*
X167472000Y-59120000D01*
X185585000Y-59160000D02*
X167475000Y-59160000D01*
X185582000Y-59201000D02*
X167478000Y-59201000D01*
X185579000Y-59241000D02*
X167481000Y-59241000D01*
X185575000Y-59281000D02*
X167485000Y-59281000D01*
X185572000Y-59321000D02*
X167488000Y-59321000D01*
X185568000Y-59361000D02*
X167492000Y-59361000D01*
X185564000Y-59401000D02*
X167496000Y-59401000D01*
X185560000Y-59441000D02*
X167500000Y-59441000D01*
X185556000Y-59481000D02*
X167504000Y-59481000D01*
X185551000Y-59521000D02*
X167509000Y-59521000D01*
X185546000Y-59561000D02*
X167514000Y-59561000D01*
X185541000Y-59601000D02*
X167519000Y-59601000D01*
X185536000Y-59641000D02*
X167524000Y-59641000D01*
X185531000Y-59681000D02*
X167529000Y-59681000D01*
X185526000Y-59721000D02*
X167534000Y-59721000D01*
X185520000Y-59761000D02*
X167540000Y-59761000D01*
X185514000Y-59801000D02*
X167546000Y-59801000D01*
X185509000Y-59841000D02*
X167551000Y-59841000D01*
X185502000Y-59881000D02*
X167558000Y-59881000D01*
X185496000Y-59921000D02*
X167564000Y-59921000D01*
X185490000Y-59961000D02*
X167570000Y-59961000D01*
X185483000Y-60001000D02*
X167577000Y-60001000D01*
X185476000Y-60041000D02*
X167584000Y-60041000D01*
X185469000Y-60081000D02*
X167591000Y-60081000D01*
X185462000Y-60121000D02*
X167598000Y-60121000D01*
X185454000Y-60161000D02*
X167606000Y-60161000D01*
X185447000Y-60201000D02*
X167613000Y-60201000D01*
X185439000Y-60241000D02*
X167621000Y-60241000D01*
X185431000Y-60281000D02*
X167629000Y-60281000D01*
X185423000Y-60321000D02*
X167637000Y-60321000D01*
X185415000Y-60361000D02*
X167645000Y-60361000D01*
X185406000Y-60401000D02*
X167654000Y-60401000D01*
X185397000Y-60441000D02*
X167663000Y-60441000D01*
X185388000Y-60481000D02*
X167672000Y-60481000D01*
X185379000Y-60521000D02*
X167681000Y-60521000D01*
X185370000Y-60561000D02*
X167690000Y-60561000D01*
X185361000Y-60601000D02*
X167699000Y-60601000D01*
X185351000Y-60641000D02*
X167709000Y-60641000D01*
X185341000Y-60681000D02*
X167719000Y-60681000D01*
X185331000Y-60721000D02*
X167729000Y-60721000D01*
X185321000Y-60761000D02*
X167739000Y-60761000D01*
X185310000Y-60801000D02*
X177970000Y-60801000D01*
X175090000Y-60801000D02*
X167750000Y-60801000D01*
X185300000Y-60841000D02*
X177970000Y-60841000D01*
X175090000Y-60841000D02*
X167760000Y-60841000D01*
X185289000Y-60881000D02*
X177970000Y-60881000D01*
X175090000Y-60881000D02*
X167771000Y-60881000D01*
X185278000Y-60921000D02*
X177970000Y-60921000D01*
X175090000Y-60921000D02*
X167782000Y-60921000D01*
X185267000Y-60961000D02*
X177970000Y-60961000D01*
X175090000Y-60961000D02*
X167793000Y-60961000D01*
X185255000Y-61001000D02*
X177970000Y-61001000D01*
X175090000Y-61001000D02*
X167805000Y-61001000D01*
X185244000Y-61041000D02*
X177970000Y-61041000D01*
X175090000Y-61041000D02*
X167816000Y-61041000D01*
X185232000Y-61081000D02*
X177970000Y-61081000D01*
X175090000Y-61081000D02*
X167828000Y-61081000D01*
X185220000Y-61121000D02*
X177970000Y-61121000D01*
X175090000Y-61121000D02*
X167840000Y-61121000D01*
X185208000Y-61161000D02*
X177970000Y-61161000D01*
X175090000Y-61161000D02*
X167852000Y-61161000D01*
X185195000Y-61201000D02*
X177970000Y-61201000D01*
X175090000Y-61201000D02*
X167865000Y-61201000D01*
X185183000Y-61241000D02*
X177970000Y-61241000D01*
X175090000Y-61241000D02*
X167877000Y-61241000D01*
X185170000Y-61281000D02*
X177970000Y-61281000D01*
X175090000Y-61281000D02*
X167890000Y-61281000D01*
X185157000Y-61321000D02*
X177970000Y-61321000D01*
X175090000Y-61321000D02*
X167903000Y-61321000D01*
X185144000Y-61361000D02*
X177970000Y-61361000D01*
X175090000Y-61361000D02*
X167916000Y-61361000D01*
X185130000Y-61401000D02*
X177970000Y-61401000D01*
X175090000Y-61401000D02*
X167930000Y-61401000D01*
X185117000Y-61441000D02*
X177970000Y-61441000D01*
X175090000Y-61441000D02*
X167943000Y-61441000D01*
X185103000Y-61481000D02*
X177970000Y-61481000D01*
X175090000Y-61481000D02*
X167957000Y-61481000D01*
X185089000Y-61521000D02*
X177970000Y-61521000D01*
X175090000Y-61521000D02*
X167971000Y-61521000D01*
X185075000Y-61561000D02*
X177970000Y-61561000D01*
X175090000Y-61561000D02*
X167985000Y-61561000D01*
X185060000Y-61601000D02*
X177970000Y-61601000D01*
X175090000Y-61601000D02*
X168000000Y-61601000D01*
X185046000Y-61641000D02*
X177970000Y-61641000D01*
X175090000Y-61641000D02*
X168014000Y-61641000D01*
X185031000Y-61681000D02*
X177970000Y-61681000D01*
X175090000Y-61681000D02*
X168029000Y-61681000D01*
X185016000Y-61721000D02*
X177970000Y-61721000D01*
X175090000Y-61721000D02*
X168044000Y-61721000D01*
X185000000Y-61761000D02*
X177970000Y-61761000D01*
X175090000Y-61761000D02*
X168060000Y-61761000D01*
X184985000Y-61801000D02*
X177970000Y-61801000D01*
X175090000Y-61801000D02*
X168075000Y-61801000D01*
X184969000Y-61841000D02*
X177970000Y-61841000D01*
X175090000Y-61841000D02*
X168091000Y-61841000D01*
X184953000Y-61881000D02*
X177970000Y-61881000D01*
X175090000Y-61881000D02*
X168107000Y-61881000D01*
X184937000Y-61921000D02*
X177970000Y-61921000D01*
X175090000Y-61921000D02*
X168123000Y-61921000D01*
X184920000Y-61961000D02*
X177970000Y-61961000D01*
X175090000Y-61961000D02*
X168140000Y-61961000D01*
X184904000Y-62001000D02*
X177970000Y-62001000D01*
X175090000Y-62001000D02*
X168156000Y-62001000D01*
X184887000Y-62041000D02*
X177970000Y-62041000D01*
X175090000Y-62041000D02*
X168173000Y-62041000D01*
X184870000Y-62081000D02*
X177970000Y-62081000D01*
X175090000Y-62081000D02*
X168190000Y-62081000D01*
X184853000Y-62121000D02*
X177970000Y-62121000D01*
X175090000Y-62121000D02*
X168207000Y-62121000D01*
X184835000Y-62161000D02*
X177970000Y-62161000D01*
X175090000Y-62161000D02*
X168225000Y-62161000D01*
X184817000Y-62201000D02*
X177970000Y-62201000D01*
X175090000Y-62201000D02*
X168243000Y-62201000D01*
X184799000Y-62241000D02*
X177970000Y-62241000D01*
X175090000Y-62241000D02*
X168261000Y-62241000D01*
X184781000Y-62281000D02*
X177970000Y-62281000D01*
X175090000Y-62281000D02*
X168279000Y-62281000D01*
X184763000Y-62321000D02*
X177970000Y-62321000D01*
X175090000Y-62321000D02*
X168297000Y-62321000D01*
X184744000Y-62361000D02*
X177970000Y-62361000D01*
X175090000Y-62361000D02*
X168316000Y-62361000D01*
X184725000Y-62401000D02*
X177970000Y-62401000D01*
X175090000Y-62401000D02*
X168335000Y-62401000D01*
X184706000Y-62441000D02*
X177970000Y-62441000D01*
X175090000Y-62441000D02*
X168354000Y-62441000D01*
X184686000Y-62481000D02*
X177970000Y-62481000D01*
X175090000Y-62481000D02*
X168374000Y-62481000D01*
X184667000Y-62521000D02*
X177970000Y-62521000D01*
X175090000Y-62521000D02*
X168393000Y-62521000D01*
X184647000Y-62561000D02*
X177970000Y-62561000D01*
X175090000Y-62561000D02*
X168413000Y-62561000D01*
X184627000Y-62601000D02*
X177970000Y-62601000D01*
X175090000Y-62601000D02*
X168433000Y-62601000D01*
X184606000Y-62641000D02*
X177970000Y-62641000D01*
X175090000Y-62641000D02*
X168454000Y-62641000D01*
X184586000Y-62681000D02*
X177970000Y-62681000D01*
X175090000Y-62681000D02*
X168474000Y-62681000D01*
X184565000Y-62721000D02*
X177970000Y-62721000D01*
X175090000Y-62721000D02*
X168495000Y-62721000D01*
X184544000Y-62761000D02*
X177970000Y-62761000D01*
X175090000Y-62761000D02*
X168516000Y-62761000D01*
X184522000Y-62801000D02*
X177970000Y-62801000D01*
X175090000Y-62801000D02*
X168538000Y-62801000D01*
X184501000Y-62841000D02*
X177970000Y-62841000D01*
X175090000Y-62841000D02*
X168559000Y-62841000D01*
X184479000Y-62881000D02*
X177970000Y-62881000D01*
X175090000Y-62881000D02*
X168581000Y-62881000D01*
X184457000Y-62921000D02*
X177970000Y-62921000D01*
X175090000Y-62921000D02*
X168603000Y-62921000D01*
X184434000Y-62961000D02*
X177970000Y-62961000D01*
X175090000Y-62961000D02*
X168626000Y-62961000D01*
X184412000Y-63001000D02*
X177970000Y-63001000D01*
X175090000Y-63001000D02*
X168648000Y-63001000D01*
X184389000Y-63041000D02*
X177970000Y-63041000D01*
X175090000Y-63041000D02*
X168671000Y-63041000D01*
X184365000Y-63081000D02*
X177970000Y-63081000D01*
X175090000Y-63081000D02*
X168695000Y-63081000D01*
X184342000Y-63121000D02*
X177970000Y-63121000D01*
X175090000Y-63121000D02*
X168718000Y-63121000D01*
X184318000Y-63161000D02*
X177970000Y-63161000D01*
X175090000Y-63161000D02*
X168742000Y-63161000D01*
X184294000Y-63201000D02*
X177970000Y-63201000D01*
X175090000Y-63201000D02*
X168766000Y-63201000D01*
X184270000Y-63241000D02*
X177970000Y-63241000D01*
X175090000Y-63241000D02*
X168790000Y-63241000D01*
X184245000Y-63281000D02*
X177970000Y-63281000D01*
X175090000Y-63281000D02*
X168815000Y-63281000D01*
X184220000Y-63321000D02*
X177970000Y-63321000D01*
X175090000Y-63321000D02*
X168840000Y-63321000D01*
X184195000Y-63361000D02*
X177970000Y-63361000D01*
X175090000Y-63361000D02*
X168865000Y-63361000D01*
X184170000Y-63401000D02*
X177970000Y-63401000D01*
X175090000Y-63401000D02*
X168890000Y-63401000D01*
X184144000Y-63441000D02*
X177970000Y-63441000D01*
X175090000Y-63441000D02*
X168916000Y-63441000D01*
X184118000Y-63481000D02*
X177970000Y-63481000D01*
X175090000Y-63481000D02*
X168942000Y-63481000D01*
X184091000Y-63521000D02*
X177970000Y-63521000D01*
X175090000Y-63521000D02*
X168969000Y-63521000D01*
X184065000Y-63561000D02*
X177970000Y-63561000D01*
X175090000Y-63561000D02*
X168995000Y-63561000D01*
X184038000Y-63601000D02*
X177970000Y-63601000D01*
X175090000Y-63601000D02*
X169022000Y-63601000D01*
X184010000Y-63641000D02*
X177970000Y-63641000D01*
X175090000Y-63641000D02*
X169050000Y-63641000D01*
X183983000Y-63681000D02*
X169077000Y-63681000D01*
X183955000Y-63721000D02*
X169105000Y-63721000D01*
X183927000Y-63761000D02*
X169133000Y-63761000D01*
X183898000Y-63801000D02*
X169162000Y-63801000D01*
X183869000Y-63841000D02*
X169191000Y-63841000D01*
X183840000Y-63881000D02*
X169220000Y-63881000D01*
X183810000Y-63921000D02*
X169250000Y-63921000D01*
X183780000Y-63961000D02*
X169280000Y-63961000D01*
X183750000Y-64001000D02*
X169310000Y-64001000D01*
X183720000Y-64041000D02*
X169340000Y-64041000D01*
X183689000Y-64081000D02*
X169371000Y-64081000D01*
X183657000Y-64121000D02*
X169403000Y-64121000D01*
X183626000Y-64161000D02*
X169434000Y-64161000D01*
X183594000Y-64201000D02*
X169466000Y-64201000D01*
X183561000Y-64241000D02*
X169499000Y-64241000D01*
X183529000Y-64281000D02*
X169531000Y-64281000D01*
X183495000Y-64321000D02*
X169565000Y-64321000D01*
X183462000Y-64361000D02*
X169598000Y-64361000D01*
X183428000Y-64401000D02*
X169632000Y-64401000D01*
X183394000Y-64441000D02*
X169666000Y-64441000D01*
X183359000Y-64481000D02*
X169701000Y-64481000D01*
X183324000Y-64521000D02*
X169736000Y-64521000D01*
X183288000Y-64561000D02*
X169772000Y-64561000D01*
X183252000Y-64601000D02*
X169808000Y-64601000D01*
X183216000Y-64641000D02*
X169844000Y-64641000D01*
X183179000Y-64681000D02*
X169881000Y-64681000D01*
X183142000Y-64721000D02*
X169918000Y-64721000D01*
X183104000Y-64761000D02*
X169956000Y-64761000D01*
X183066000Y-64801000D02*
X169994000Y-64801000D01*
X183027000Y-64841000D02*
X170033000Y-64841000D01*
X182988000Y-64881000D02*
X170072000Y-64881000D01*
X182948000Y-64921000D02*
X170112000Y-64921000D01*
X182908000Y-64961000D02*
X170152000Y-64961000D01*
X182867000Y-65001000D02*
X170193000Y-65001000D01*
X182826000Y-65041000D02*
X170234000Y-65041000D01*
X182784000Y-65081000D02*
X170276000Y-65081000D01*
X182742000Y-65121000D02*
X170318000Y-65121000D01*
X182700000Y-65161000D02*
X170360000Y-65161000D01*
X182656000Y-65201000D02*
X170404000Y-65201000D01*
X182612000Y-65241000D02*
X170448000Y-65241000D01*
X182568000Y-65281000D02*
X170492000Y-65281000D01*
X182523000Y-65321000D02*
X170537000Y-65321000D01*
X182477000Y-65361000D02*
X170583000Y-65361000D01*
X182431000Y-65401000D02*
X170629000Y-65401000D01*
X182384000Y-65441000D02*
X170676000Y-65441000D01*
X182336000Y-65481000D02*
X170724000Y-65481000D01*
X182288000Y-65521000D02*
X170772000Y-65521000D01*
X182239000Y-65561000D02*
X170821000Y-65561000D01*
X182190000Y-65601000D02*
X170870000Y-65601000D01*
X182139000Y-65641000D02*
X170921000Y-65641000D01*
X182088000Y-65681000D02*
X170972000Y-65681000D01*
X182036000Y-65721000D02*
X171024000Y-65721000D01*
X181984000Y-65761000D02*
X171076000Y-65761000D01*
X181930000Y-65801000D02*
X171130000Y-65801000D01*
X181876000Y-65841000D02*
X171184000Y-65841000D01*
X181821000Y-65881000D02*
X171239000Y-65881000D01*
X181765000Y-65921000D02*
X171295000Y-65921000D01*
X181708000Y-65961000D02*
X171352000Y-65961000D01*
X181650000Y-66001000D02*
X171410000Y-66001000D01*
X181592000Y-66041000D02*
X171468000Y-66041000D01*
X181532000Y-66081000D02*
X171528000Y-66081000D01*
X181471000Y-66121000D02*
X171589000Y-66121000D01*
X181409000Y-66161000D02*
X171651000Y-66161000D01*
X181346000Y-66201000D02*
X171714000Y-66201000D01*
X181282000Y-66241000D02*
X171778000Y-66241000D01*
X181216000Y-66281000D02*
X171844000Y-66281000D01*
X181150000Y-66321000D02*
X171910000Y-66321000D01*
X181082000Y-66361000D02*
X171978000Y-66361000D01*
X181012000Y-66401000D02*
X172048000Y-66401000D01*
X180942000Y-66441000D02*
X172118000Y-66441000D01*
X180869000Y-66481000D02*
X172191000Y-66481000D01*
X180795000Y-66521000D02*
X172265000Y-66521000D01*
X180720000Y-66561000D02*
X172340000Y-66561000D01*
X180643000Y-66601000D02*
X172417000Y-66601000D01*
X180563000Y-66641000D02*
X172497000Y-66641000D01*
X180482000Y-66680000D02*
X172578000Y-66680000D01*
X180399000Y-66720000D02*
X172661000Y-66720000D01*
X180314000Y-66760000D02*
X172746000Y-66760000D01*
X180226000Y-66800000D02*
X172834000Y-66800000D01*
X180135000Y-66840000D02*
X172925000Y-66840000D01*
X180042000Y-66880000D02*
X173018000Y-66880000D01*
X179946000Y-66920000D02*
X173114000Y-66920000D01*
X179847000Y-66960000D02*
X173213000Y-66960000D01*
X179744000Y-67000000D02*
X173316000Y-67000000D01*
X179637000Y-67040000D02*
X173423000Y-67040000D01*
X179526000Y-67080000D02*
X173534000Y-67080000D01*
X179410000Y-67120000D02*
X173650000Y-67120000D01*
X179289000Y-67160000D02*
X173771000Y-67160000D01*
X179162000Y-67200000D02*
X173898000Y-67200000D01*
X179028000Y-67240000D02*
X174032000Y-67240000D01*
X178885000Y-67280000D02*
X174175000Y-67280000D01*
X178733000Y-67320000D02*
X174327000Y-67320000D01*
X178569000Y-67360000D02*
X174491000Y-67360000D01*
X178390000Y-67400000D02*
X174670000Y-67400000D01*
X178191000Y-67440000D02*
X174869000Y-67440000D01*
X177965000Y-67480000D02*
X175095000Y-67480000D01*
X177696000Y-67520000D02*
X175364000Y-67520000D01*
X177344000Y-67560000D02*
X175716000Y-67560000D01*
X176570000Y-67600000D02*
X176490000Y-67600000D01*
X176565000Y-50752560D02*
X176565000Y-52552560D01*
X177465000Y-51652560D02*
X175665000Y-51652560D01*
%TO.C,C6*%
X183110000Y-35620000D02*
G75*
G03*
X183110000Y-35620000I-9120000J0D01*
G01*
X164909000Y-35620000D02*
X183071000Y-35620000D01*
X164910000Y-35580000D02*
X183070000Y-35580000D01*
X164910000Y-35540000D02*
X183070000Y-35540000D01*
X164910000Y-35500000D02*
X183070000Y-35500000D01*
X164911000Y-35460000D02*
X183069000Y-35460000D01*
X164912000Y-35420000D02*
X183068000Y-35420000D01*
X164913000Y-35380000D02*
X183067000Y-35380000D01*
X164914000Y-35340000D02*
X183066000Y-35340000D01*
X164915000Y-35300000D02*
X183065000Y-35300000D01*
X164917000Y-35260000D02*
X183063000Y-35260000D01*
X164918000Y-35220000D02*
X183062000Y-35220000D01*
X164920000Y-35180000D02*
X183060000Y-35180000D01*
X164922000Y-35140000D02*
X183058000Y-35140000D01*
X164924000Y-35100000D02*
X183056000Y-35100000D01*
X164927000Y-35060000D02*
X183053000Y-35060000D01*
X164929000Y-35020000D02*
X183051000Y-35020000D01*
X164932000Y-34980000D02*
X183048000Y-34980000D01*
X164935000Y-34940000D02*
X183045000Y-34940000D01*
X164938000Y-34899000D02*
X183042000Y-34899000D01*
X164941000Y-34859000D02*
X183039000Y-34859000D01*
X164945000Y-34819000D02*
X183035000Y-34819000D01*
X164948000Y-34779000D02*
X183032000Y-34779000D01*
X164952000Y-34739000D02*
X183028000Y-34739000D01*
X164956000Y-34699000D02*
X183024000Y-34699000D01*
X164960000Y-34659000D02*
X183020000Y-34659000D01*
X164964000Y-34619000D02*
X183016000Y-34619000D01*
X164969000Y-34579000D02*
X183011000Y-34579000D01*
X164974000Y-34539000D02*
X183006000Y-34539000D01*
X164979000Y-34499000D02*
X183001000Y-34499000D01*
X164984000Y-34459000D02*
X182996000Y-34459000D01*
X164989000Y-34419000D02*
X182991000Y-34419000D01*
X164994000Y-34379000D02*
X182986000Y-34379000D01*
X165000000Y-34339000D02*
X182980000Y-34339000D01*
X165006000Y-34299000D02*
X182974000Y-34299000D01*
X165011000Y-34259000D02*
X182969000Y-34259000D01*
X165018000Y-34219000D02*
X182962000Y-34219000D01*
X165024000Y-34179000D02*
X182956000Y-34179000D01*
X165030000Y-34139000D02*
X182950000Y-34139000D01*
X165037000Y-34099000D02*
X182943000Y-34099000D01*
X165044000Y-34059000D02*
X182936000Y-34059000D01*
X165051000Y-34019000D02*
X182929000Y-34019000D01*
X165058000Y-33979000D02*
X182922000Y-33979000D01*
X165066000Y-33939000D02*
X182914000Y-33939000D01*
X165073000Y-33899000D02*
X182907000Y-33899000D01*
X165081000Y-33859000D02*
X182899000Y-33859000D01*
X165089000Y-33819000D02*
X182891000Y-33819000D01*
X165097000Y-33779000D02*
X182883000Y-33779000D01*
X165105000Y-33739000D02*
X182875000Y-33739000D01*
X165114000Y-33699000D02*
X182866000Y-33699000D01*
X165123000Y-33659000D02*
X182857000Y-33659000D01*
X165132000Y-33619000D02*
X182848000Y-33619000D01*
X165141000Y-33579000D02*
X182839000Y-33579000D01*
X165150000Y-33539000D02*
X182830000Y-33539000D01*
X165159000Y-33499000D02*
X182821000Y-33499000D01*
X165169000Y-33459000D02*
X182811000Y-33459000D01*
X165179000Y-33419000D02*
X182801000Y-33419000D01*
X165189000Y-33379000D02*
X182791000Y-33379000D01*
X165199000Y-33339000D02*
X182781000Y-33339000D01*
X165210000Y-33299000D02*
X172550000Y-33299000D01*
X175430000Y-33299000D02*
X182770000Y-33299000D01*
X165220000Y-33259000D02*
X172550000Y-33259000D01*
X175430000Y-33259000D02*
X182760000Y-33259000D01*
X165231000Y-33219000D02*
X172550000Y-33219000D01*
X175430000Y-33219000D02*
X182749000Y-33219000D01*
X165242000Y-33179000D02*
X172550000Y-33179000D01*
X175430000Y-33179000D02*
X182738000Y-33179000D01*
X165253000Y-33139000D02*
X172550000Y-33139000D01*
X175430000Y-33139000D02*
X182727000Y-33139000D01*
X165265000Y-33099000D02*
X172550000Y-33099000D01*
X175430000Y-33099000D02*
X182715000Y-33099000D01*
X165276000Y-33059000D02*
X172550000Y-33059000D01*
X175430000Y-33059000D02*
X182704000Y-33059000D01*
X165288000Y-33019000D02*
X172550000Y-33019000D01*
X175430000Y-33019000D02*
X182692000Y-33019000D01*
X165300000Y-32979000D02*
X172550000Y-32979000D01*
X175430000Y-32979000D02*
X182680000Y-32979000D01*
X165312000Y-32939000D02*
X172550000Y-32939000D01*
X175430000Y-32939000D02*
X182668000Y-32939000D01*
X165325000Y-32899000D02*
X172550000Y-32899000D01*
X175430000Y-32899000D02*
X182655000Y-32899000D01*
X165337000Y-32859000D02*
X172550000Y-32859000D01*
X175430000Y-32859000D02*
X182643000Y-32859000D01*
X165350000Y-32819000D02*
X172550000Y-32819000D01*
X175430000Y-32819000D02*
X182630000Y-32819000D01*
X165363000Y-32779000D02*
X172550000Y-32779000D01*
X175430000Y-32779000D02*
X182617000Y-32779000D01*
X165376000Y-32739000D02*
X172550000Y-32739000D01*
X175430000Y-32739000D02*
X182604000Y-32739000D01*
X165390000Y-32699000D02*
X172550000Y-32699000D01*
X175430000Y-32699000D02*
X182590000Y-32699000D01*
X165403000Y-32659000D02*
X172550000Y-32659000D01*
X175430000Y-32659000D02*
X182577000Y-32659000D01*
X165417000Y-32619000D02*
X172550000Y-32619000D01*
X175430000Y-32619000D02*
X182563000Y-32619000D01*
X165431000Y-32579000D02*
X172550000Y-32579000D01*
X175430000Y-32579000D02*
X182549000Y-32579000D01*
X165445000Y-32539000D02*
X172550000Y-32539000D01*
X175430000Y-32539000D02*
X182535000Y-32539000D01*
X165460000Y-32499000D02*
X172550000Y-32499000D01*
X175430000Y-32499000D02*
X182520000Y-32499000D01*
X165474000Y-32459000D02*
X172550000Y-32459000D01*
X175430000Y-32459000D02*
X182506000Y-32459000D01*
X165489000Y-32419000D02*
X172550000Y-32419000D01*
X175430000Y-32419000D02*
X182491000Y-32419000D01*
X165504000Y-32379000D02*
X172550000Y-32379000D01*
X175430000Y-32379000D02*
X182476000Y-32379000D01*
X165520000Y-32339000D02*
X172550000Y-32339000D01*
X175430000Y-32339000D02*
X182460000Y-32339000D01*
X165535000Y-32299000D02*
X172550000Y-32299000D01*
X175430000Y-32299000D02*
X182445000Y-32299000D01*
X165551000Y-32259000D02*
X172550000Y-32259000D01*
X175430000Y-32259000D02*
X182429000Y-32259000D01*
X165567000Y-32219000D02*
X172550000Y-32219000D01*
X175430000Y-32219000D02*
X182413000Y-32219000D01*
X165583000Y-32179000D02*
X172550000Y-32179000D01*
X175430000Y-32179000D02*
X182397000Y-32179000D01*
X165600000Y-32139000D02*
X172550000Y-32139000D01*
X175430000Y-32139000D02*
X182380000Y-32139000D01*
X165616000Y-32099000D02*
X172550000Y-32099000D01*
X175430000Y-32099000D02*
X182364000Y-32099000D01*
X165633000Y-32059000D02*
X172550000Y-32059000D01*
X175430000Y-32059000D02*
X182347000Y-32059000D01*
X165650000Y-32019000D02*
X172550000Y-32019000D01*
X175430000Y-32019000D02*
X182330000Y-32019000D01*
X165667000Y-31979000D02*
X172550000Y-31979000D01*
X175430000Y-31979000D02*
X182313000Y-31979000D01*
X165685000Y-31939000D02*
X172550000Y-31939000D01*
X175430000Y-31939000D02*
X182295000Y-31939000D01*
X165703000Y-31899000D02*
X172550000Y-31899000D01*
X175430000Y-31899000D02*
X182277000Y-31899000D01*
X165721000Y-31859000D02*
X172550000Y-31859000D01*
X175430000Y-31859000D02*
X182259000Y-31859000D01*
X165739000Y-31819000D02*
X172550000Y-31819000D01*
X175430000Y-31819000D02*
X182241000Y-31819000D01*
X165757000Y-31779000D02*
X172550000Y-31779000D01*
X175430000Y-31779000D02*
X182223000Y-31779000D01*
X165776000Y-31739000D02*
X172550000Y-31739000D01*
X175430000Y-31739000D02*
X182204000Y-31739000D01*
X165795000Y-31699000D02*
X172550000Y-31699000D01*
X175430000Y-31699000D02*
X182185000Y-31699000D01*
X165814000Y-31659000D02*
X172550000Y-31659000D01*
X175430000Y-31659000D02*
X182166000Y-31659000D01*
X165834000Y-31619000D02*
X172550000Y-31619000D01*
X175430000Y-31619000D02*
X182146000Y-31619000D01*
X165853000Y-31579000D02*
X172550000Y-31579000D01*
X175430000Y-31579000D02*
X182127000Y-31579000D01*
X165873000Y-31539000D02*
X172550000Y-31539000D01*
X175430000Y-31539000D02*
X182107000Y-31539000D01*
X165893000Y-31499000D02*
X172550000Y-31499000D01*
X175430000Y-31499000D02*
X182087000Y-31499000D01*
X165914000Y-31459000D02*
X172550000Y-31459000D01*
X175430000Y-31459000D02*
X182066000Y-31459000D01*
X165934000Y-31419000D02*
X172550000Y-31419000D01*
X175430000Y-31419000D02*
X182046000Y-31419000D01*
X165955000Y-31379000D02*
X172550000Y-31379000D01*
X175430000Y-31379000D02*
X182025000Y-31379000D01*
X165976000Y-31339000D02*
X172550000Y-31339000D01*
X175430000Y-31339000D02*
X182004000Y-31339000D01*
X165998000Y-31299000D02*
X172550000Y-31299000D01*
X175430000Y-31299000D02*
X181982000Y-31299000D01*
X166019000Y-31259000D02*
X172550000Y-31259000D01*
X175430000Y-31259000D02*
X181961000Y-31259000D01*
X166041000Y-31219000D02*
X172550000Y-31219000D01*
X175430000Y-31219000D02*
X181939000Y-31219000D01*
X166063000Y-31179000D02*
X172550000Y-31179000D01*
X175430000Y-31179000D02*
X181917000Y-31179000D01*
X166086000Y-31139000D02*
X172550000Y-31139000D01*
X175430000Y-31139000D02*
X181894000Y-31139000D01*
X166108000Y-31099000D02*
X172550000Y-31099000D01*
X175430000Y-31099000D02*
X181872000Y-31099000D01*
X166131000Y-31059000D02*
X172550000Y-31059000D01*
X175430000Y-31059000D02*
X181849000Y-31059000D01*
X166155000Y-31019000D02*
X172550000Y-31019000D01*
X175430000Y-31019000D02*
X181825000Y-31019000D01*
X166178000Y-30979000D02*
X172550000Y-30979000D01*
X175430000Y-30979000D02*
X181802000Y-30979000D01*
X166202000Y-30939000D02*
X172550000Y-30939000D01*
X175430000Y-30939000D02*
X181778000Y-30939000D01*
X166226000Y-30899000D02*
X172550000Y-30899000D01*
X175430000Y-30899000D02*
X181754000Y-30899000D01*
X166250000Y-30859000D02*
X172550000Y-30859000D01*
X175430000Y-30859000D02*
X181730000Y-30859000D01*
X166275000Y-30819000D02*
X172550000Y-30819000D01*
X175430000Y-30819000D02*
X181705000Y-30819000D01*
X166300000Y-30779000D02*
X172550000Y-30779000D01*
X175430000Y-30779000D02*
X181680000Y-30779000D01*
X166325000Y-30739000D02*
X172550000Y-30739000D01*
X175430000Y-30739000D02*
X181655000Y-30739000D01*
X166350000Y-30699000D02*
X172550000Y-30699000D01*
X175430000Y-30699000D02*
X181630000Y-30699000D01*
X166376000Y-30659000D02*
X172550000Y-30659000D01*
X175430000Y-30659000D02*
X181604000Y-30659000D01*
X166402000Y-30619000D02*
X172550000Y-30619000D01*
X175430000Y-30619000D02*
X181578000Y-30619000D01*
X166429000Y-30579000D02*
X172550000Y-30579000D01*
X175430000Y-30579000D02*
X181551000Y-30579000D01*
X166455000Y-30539000D02*
X172550000Y-30539000D01*
X175430000Y-30539000D02*
X181525000Y-30539000D01*
X166482000Y-30499000D02*
X172550000Y-30499000D01*
X175430000Y-30499000D02*
X181498000Y-30499000D01*
X166510000Y-30459000D02*
X172550000Y-30459000D01*
X175430000Y-30459000D02*
X181470000Y-30459000D01*
X166537000Y-30419000D02*
X181443000Y-30419000D01*
X166565000Y-30379000D02*
X181415000Y-30379000D01*
X166593000Y-30339000D02*
X181387000Y-30339000D01*
X166622000Y-30299000D02*
X181358000Y-30299000D01*
X166651000Y-30259000D02*
X181329000Y-30259000D01*
X166680000Y-30219000D02*
X181300000Y-30219000D01*
X166710000Y-30179000D02*
X181270000Y-30179000D01*
X166740000Y-30139000D02*
X181240000Y-30139000D01*
X166770000Y-30099000D02*
X181210000Y-30099000D01*
X166800000Y-30059000D02*
X181180000Y-30059000D01*
X166831000Y-30019000D02*
X181149000Y-30019000D01*
X166863000Y-29979000D02*
X181117000Y-29979000D01*
X166894000Y-29939000D02*
X181086000Y-29939000D01*
X166926000Y-29899000D02*
X181054000Y-29899000D01*
X166959000Y-29859000D02*
X181021000Y-29859000D01*
X166991000Y-29819000D02*
X180989000Y-29819000D01*
X167025000Y-29779000D02*
X180955000Y-29779000D01*
X167058000Y-29739000D02*
X180922000Y-29739000D01*
X167092000Y-29699000D02*
X180888000Y-29699000D01*
X167126000Y-29659000D02*
X180854000Y-29659000D01*
X167161000Y-29619000D02*
X180819000Y-29619000D01*
X167196000Y-29579000D02*
X180784000Y-29579000D01*
X167232000Y-29539000D02*
X180748000Y-29539000D01*
X167268000Y-29499000D02*
X180712000Y-29499000D01*
X167304000Y-29459000D02*
X180676000Y-29459000D01*
X167341000Y-29419000D02*
X180639000Y-29419000D01*
X167378000Y-29379000D02*
X180602000Y-29379000D01*
X167416000Y-29339000D02*
X180564000Y-29339000D01*
X167454000Y-29299000D02*
X180526000Y-29299000D01*
X167493000Y-29259000D02*
X180487000Y-29259000D01*
X167532000Y-29219000D02*
X180448000Y-29219000D01*
X167572000Y-29179000D02*
X180408000Y-29179000D01*
X167612000Y-29139000D02*
X180368000Y-29139000D01*
X167653000Y-29099000D02*
X180327000Y-29099000D01*
X167694000Y-29059000D02*
X180286000Y-29059000D01*
X167736000Y-29019000D02*
X180244000Y-29019000D01*
X167778000Y-28979000D02*
X180202000Y-28979000D01*
X167820000Y-28939000D02*
X180160000Y-28939000D01*
X167864000Y-28899000D02*
X180116000Y-28899000D01*
X167908000Y-28859000D02*
X180072000Y-28859000D01*
X167952000Y-28819000D02*
X180028000Y-28819000D01*
X167997000Y-28779000D02*
X179983000Y-28779000D01*
X168043000Y-28739000D02*
X179937000Y-28739000D01*
X168089000Y-28699000D02*
X179891000Y-28699000D01*
X168136000Y-28659000D02*
X179844000Y-28659000D01*
X168184000Y-28619000D02*
X179796000Y-28619000D01*
X168232000Y-28579000D02*
X179748000Y-28579000D01*
X168281000Y-28539000D02*
X179699000Y-28539000D01*
X168330000Y-28499000D02*
X179650000Y-28499000D01*
X168381000Y-28459000D02*
X179599000Y-28459000D01*
X168432000Y-28419000D02*
X179548000Y-28419000D01*
X168484000Y-28379000D02*
X179496000Y-28379000D01*
X168536000Y-28339000D02*
X179444000Y-28339000D01*
X168590000Y-28299000D02*
X179390000Y-28299000D01*
X168644000Y-28259000D02*
X179336000Y-28259000D01*
X168699000Y-28219000D02*
X179281000Y-28219000D01*
X168755000Y-28179000D02*
X179225000Y-28179000D01*
X168812000Y-28139000D02*
X179168000Y-28139000D01*
X168870000Y-28099000D02*
X179110000Y-28099000D01*
X168928000Y-28059000D02*
X179052000Y-28059000D01*
X168988000Y-28019000D02*
X178992000Y-28019000D01*
X169049000Y-27979000D02*
X178931000Y-27979000D01*
X169111000Y-27939000D02*
X178869000Y-27939000D01*
X169174000Y-27899000D02*
X178806000Y-27899000D01*
X169238000Y-27859000D02*
X178742000Y-27859000D01*
X169304000Y-27819000D02*
X178676000Y-27819000D01*
X169370000Y-27779000D02*
X178610000Y-27779000D01*
X169438000Y-27739000D02*
X178542000Y-27739000D01*
X169508000Y-27699000D02*
X178472000Y-27699000D01*
X169578000Y-27659000D02*
X178402000Y-27659000D01*
X169651000Y-27619000D02*
X178329000Y-27619000D01*
X169725000Y-27579000D02*
X178255000Y-27579000D01*
X169800000Y-27539000D02*
X178180000Y-27539000D01*
X169877000Y-27499000D02*
X178103000Y-27499000D01*
X169957000Y-27459000D02*
X178023000Y-27459000D01*
X170038000Y-27420000D02*
X177942000Y-27420000D01*
X170121000Y-27380000D02*
X177859000Y-27380000D01*
X170206000Y-27340000D02*
X177774000Y-27340000D01*
X170294000Y-27300000D02*
X177686000Y-27300000D01*
X170385000Y-27260000D02*
X177595000Y-27260000D01*
X170478000Y-27220000D02*
X177502000Y-27220000D01*
X170574000Y-27180000D02*
X177406000Y-27180000D01*
X170673000Y-27140000D02*
X177307000Y-27140000D01*
X170776000Y-27100000D02*
X177204000Y-27100000D01*
X170883000Y-27060000D02*
X177097000Y-27060000D01*
X170994000Y-27020000D02*
X176986000Y-27020000D01*
X171110000Y-26980000D02*
X176870000Y-26980000D01*
X171231000Y-26940000D02*
X176749000Y-26940000D01*
X171358000Y-26900000D02*
X176622000Y-26900000D01*
X171492000Y-26860000D02*
X176488000Y-26860000D01*
X171635000Y-26820000D02*
X176345000Y-26820000D01*
X171787000Y-26780000D02*
X176193000Y-26780000D01*
X171951000Y-26740000D02*
X176029000Y-26740000D01*
X172130000Y-26700000D02*
X175850000Y-26700000D01*
X172329000Y-26660000D02*
X175651000Y-26660000D01*
X172555000Y-26620000D02*
X175425000Y-26620000D01*
X172824000Y-26580000D02*
X175156000Y-26580000D01*
X173176000Y-26540000D02*
X174804000Y-26540000D01*
X173950000Y-26500000D02*
X174030000Y-26500000D01*
X173955000Y-43347440D02*
X173955000Y-41547440D01*
X173055000Y-42447440D02*
X174855000Y-42447440D01*
%TO.C,C5*%
X204700000Y-35620000D02*
G75*
G03*
X204700000Y-35620000I-9120000J0D01*
G01*
X186499000Y-35620000D02*
X204661000Y-35620000D01*
X186500000Y-35580000D02*
X204660000Y-35580000D01*
X186500000Y-35540000D02*
X204660000Y-35540000D01*
X186500000Y-35500000D02*
X204660000Y-35500000D01*
X186501000Y-35460000D02*
X204659000Y-35460000D01*
X186502000Y-35420000D02*
X204658000Y-35420000D01*
X186503000Y-35380000D02*
X204657000Y-35380000D01*
X186504000Y-35340000D02*
X204656000Y-35340000D01*
X186505000Y-35300000D02*
X204655000Y-35300000D01*
X186507000Y-35260000D02*
X204653000Y-35260000D01*
X186508000Y-35220000D02*
X204652000Y-35220000D01*
X186510000Y-35180000D02*
X204650000Y-35180000D01*
X186512000Y-35140000D02*
X204648000Y-35140000D01*
X186514000Y-35100000D02*
X204646000Y-35100000D01*
X186517000Y-35060000D02*
X204643000Y-35060000D01*
X186519000Y-35020000D02*
X204641000Y-35020000D01*
X186522000Y-34980000D02*
X204638000Y-34980000D01*
X186525000Y-34940000D02*
X204635000Y-34940000D01*
X186528000Y-34899000D02*
X204632000Y-34899000D01*
X186531000Y-34859000D02*
X204629000Y-34859000D01*
X186535000Y-34819000D02*
X204625000Y-34819000D01*
X186538000Y-34779000D02*
X204622000Y-34779000D01*
X186542000Y-34739000D02*
X204618000Y-34739000D01*
X186546000Y-34699000D02*
X204614000Y-34699000D01*
X186550000Y-34659000D02*
X204610000Y-34659000D01*
X186554000Y-34619000D02*
X204606000Y-34619000D01*
X186559000Y-34579000D02*
X204601000Y-34579000D01*
X186564000Y-34539000D02*
X204596000Y-34539000D01*
X186569000Y-34499000D02*
X204591000Y-34499000D01*
X186574000Y-34459000D02*
X204586000Y-34459000D01*
X186579000Y-34419000D02*
X204581000Y-34419000D01*
X186584000Y-34379000D02*
X204576000Y-34379000D01*
X186590000Y-34339000D02*
X204570000Y-34339000D01*
X186596000Y-34299000D02*
X204564000Y-34299000D01*
X186601000Y-34259000D02*
X204559000Y-34259000D01*
X186608000Y-34219000D02*
X204552000Y-34219000D01*
X186614000Y-34179000D02*
X204546000Y-34179000D01*
X186620000Y-34139000D02*
X204540000Y-34139000D01*
X186627000Y-34099000D02*
X204533000Y-34099000D01*
X186634000Y-34059000D02*
X204526000Y-34059000D01*
X186641000Y-34019000D02*
X204519000Y-34019000D01*
X186648000Y-33979000D02*
X204512000Y-33979000D01*
X186656000Y-33939000D02*
X204504000Y-33939000D01*
X186663000Y-33899000D02*
X204497000Y-33899000D01*
X186671000Y-33859000D02*
X204489000Y-33859000D01*
X186679000Y-33819000D02*
X204481000Y-33819000D01*
X186687000Y-33779000D02*
X204473000Y-33779000D01*
X186695000Y-33739000D02*
X204465000Y-33739000D01*
X186704000Y-33699000D02*
X204456000Y-33699000D01*
X186713000Y-33659000D02*
X204447000Y-33659000D01*
X186722000Y-33619000D02*
X204438000Y-33619000D01*
X186731000Y-33579000D02*
X204429000Y-33579000D01*
X186740000Y-33539000D02*
X204420000Y-33539000D01*
X186749000Y-33499000D02*
X204411000Y-33499000D01*
X186759000Y-33459000D02*
X204401000Y-33459000D01*
X186769000Y-33419000D02*
X204391000Y-33419000D01*
X186779000Y-33379000D02*
X204381000Y-33379000D01*
X186789000Y-33339000D02*
X204371000Y-33339000D01*
X186800000Y-33299000D02*
X194140000Y-33299000D01*
X197020000Y-33299000D02*
X204360000Y-33299000D01*
X186810000Y-33259000D02*
X194140000Y-33259000D01*
X197020000Y-33259000D02*
X204350000Y-33259000D01*
X186821000Y-33219000D02*
X194140000Y-33219000D01*
X197020000Y-33219000D02*
X204339000Y-33219000D01*
X186832000Y-33179000D02*
X194140000Y-33179000D01*
X197020000Y-33179000D02*
X204328000Y-33179000D01*
X186843000Y-33139000D02*
X194140000Y-33139000D01*
X197020000Y-33139000D02*
X204317000Y-33139000D01*
X186855000Y-33099000D02*
X194140000Y-33099000D01*
X197020000Y-33099000D02*
X204305000Y-33099000D01*
X186866000Y-33059000D02*
X194140000Y-33059000D01*
X197020000Y-33059000D02*
X204294000Y-33059000D01*
X186878000Y-33019000D02*
X194140000Y-33019000D01*
X197020000Y-33019000D02*
X204282000Y-33019000D01*
X186890000Y-32979000D02*
X194140000Y-32979000D01*
X197020000Y-32979000D02*
X204270000Y-32979000D01*
X186902000Y-32939000D02*
X194140000Y-32939000D01*
X197020000Y-32939000D02*
X204258000Y-32939000D01*
X186915000Y-32899000D02*
X194140000Y-32899000D01*
X197020000Y-32899000D02*
X204245000Y-32899000D01*
X186927000Y-32859000D02*
X194140000Y-32859000D01*
X197020000Y-32859000D02*
X204233000Y-32859000D01*
X186940000Y-32819000D02*
X194140000Y-32819000D01*
X197020000Y-32819000D02*
X204220000Y-32819000D01*
X186953000Y-32779000D02*
X194140000Y-32779000D01*
X197020000Y-32779000D02*
X204207000Y-32779000D01*
X186966000Y-32739000D02*
X194140000Y-32739000D01*
X197020000Y-32739000D02*
X204194000Y-32739000D01*
X186980000Y-32699000D02*
X194140000Y-32699000D01*
X197020000Y-32699000D02*
X204180000Y-32699000D01*
X186993000Y-32659000D02*
X194140000Y-32659000D01*
X197020000Y-32659000D02*
X204167000Y-32659000D01*
X187007000Y-32619000D02*
X194140000Y-32619000D01*
X197020000Y-32619000D02*
X204153000Y-32619000D01*
X187021000Y-32579000D02*
X194140000Y-32579000D01*
X197020000Y-32579000D02*
X204139000Y-32579000D01*
X187035000Y-32539000D02*
X194140000Y-32539000D01*
X197020000Y-32539000D02*
X204125000Y-32539000D01*
X187050000Y-32499000D02*
X194140000Y-32499000D01*
X197020000Y-32499000D02*
X204110000Y-32499000D01*
X187064000Y-32459000D02*
X194140000Y-32459000D01*
X197020000Y-32459000D02*
X204096000Y-32459000D01*
X187079000Y-32419000D02*
X194140000Y-32419000D01*
X197020000Y-32419000D02*
X204081000Y-32419000D01*
X187094000Y-32379000D02*
X194140000Y-32379000D01*
X197020000Y-32379000D02*
X204066000Y-32379000D01*
X187110000Y-32339000D02*
X194140000Y-32339000D01*
X197020000Y-32339000D02*
X204050000Y-32339000D01*
X187125000Y-32299000D02*
X194140000Y-32299000D01*
X197020000Y-32299000D02*
X204035000Y-32299000D01*
X187141000Y-32259000D02*
X194140000Y-32259000D01*
X197020000Y-32259000D02*
X204019000Y-32259000D01*
X187157000Y-32219000D02*
X194140000Y-32219000D01*
X197020000Y-32219000D02*
X204003000Y-32219000D01*
X187173000Y-32179000D02*
X194140000Y-32179000D01*
X197020000Y-32179000D02*
X203987000Y-32179000D01*
X187190000Y-32139000D02*
X194140000Y-32139000D01*
X197020000Y-32139000D02*
X203970000Y-32139000D01*
X187206000Y-32099000D02*
X194140000Y-32099000D01*
X197020000Y-32099000D02*
X203954000Y-32099000D01*
X187223000Y-32059000D02*
X194140000Y-32059000D01*
X197020000Y-32059000D02*
X203937000Y-32059000D01*
X187240000Y-32019000D02*
X194140000Y-32019000D01*
X197020000Y-32019000D02*
X203920000Y-32019000D01*
X187257000Y-31979000D02*
X194140000Y-31979000D01*
X197020000Y-31979000D02*
X203903000Y-31979000D01*
X187275000Y-31939000D02*
X194140000Y-31939000D01*
X197020000Y-31939000D02*
X203885000Y-31939000D01*
X187293000Y-31899000D02*
X194140000Y-31899000D01*
X197020000Y-31899000D02*
X203867000Y-31899000D01*
X187311000Y-31859000D02*
X194140000Y-31859000D01*
X197020000Y-31859000D02*
X203849000Y-31859000D01*
X187329000Y-31819000D02*
X194140000Y-31819000D01*
X197020000Y-31819000D02*
X203831000Y-31819000D01*
X187347000Y-31779000D02*
X194140000Y-31779000D01*
X197020000Y-31779000D02*
X203813000Y-31779000D01*
X187366000Y-31739000D02*
X194140000Y-31739000D01*
X197020000Y-31739000D02*
X203794000Y-31739000D01*
X187385000Y-31699000D02*
X194140000Y-31699000D01*
X197020000Y-31699000D02*
X203775000Y-31699000D01*
X187404000Y-31659000D02*
X194140000Y-31659000D01*
X197020000Y-31659000D02*
X203756000Y-31659000D01*
X187424000Y-31619000D02*
X194140000Y-31619000D01*
X197020000Y-31619000D02*
X203736000Y-31619000D01*
X187443000Y-31579000D02*
X194140000Y-31579000D01*
X197020000Y-31579000D02*
X203717000Y-31579000D01*
X187463000Y-31539000D02*
X194140000Y-31539000D01*
X197020000Y-31539000D02*
X203697000Y-31539000D01*
X187483000Y-31499000D02*
X194140000Y-31499000D01*
X197020000Y-31499000D02*
X203677000Y-31499000D01*
X187504000Y-31459000D02*
X194140000Y-31459000D01*
X197020000Y-31459000D02*
X203656000Y-31459000D01*
X187524000Y-31419000D02*
X194140000Y-31419000D01*
X197020000Y-31419000D02*
X203636000Y-31419000D01*
X187545000Y-31379000D02*
X194140000Y-31379000D01*
X197020000Y-31379000D02*
X203615000Y-31379000D01*
X187566000Y-31339000D02*
X194140000Y-31339000D01*
X197020000Y-31339000D02*
X203594000Y-31339000D01*
X187588000Y-31299000D02*
X194140000Y-31299000D01*
X197020000Y-31299000D02*
X203572000Y-31299000D01*
X187609000Y-31259000D02*
X194140000Y-31259000D01*
X197020000Y-31259000D02*
X203551000Y-31259000D01*
X187631000Y-31219000D02*
X194140000Y-31219000D01*
X197020000Y-31219000D02*
X203529000Y-31219000D01*
X187653000Y-31179000D02*
X194140000Y-31179000D01*
X197020000Y-31179000D02*
X203507000Y-31179000D01*
X187676000Y-31139000D02*
X194140000Y-31139000D01*
X197020000Y-31139000D02*
X203484000Y-31139000D01*
X187698000Y-31099000D02*
X194140000Y-31099000D01*
X197020000Y-31099000D02*
X203462000Y-31099000D01*
X187721000Y-31059000D02*
X194140000Y-31059000D01*
X197020000Y-31059000D02*
X203439000Y-31059000D01*
X187745000Y-31019000D02*
X194140000Y-31019000D01*
X197020000Y-31019000D02*
X203415000Y-31019000D01*
X187768000Y-30979000D02*
X194140000Y-30979000D01*
X197020000Y-30979000D02*
X203392000Y-30979000D01*
X187792000Y-30939000D02*
X194140000Y-30939000D01*
X197020000Y-30939000D02*
X203368000Y-30939000D01*
X187816000Y-30899000D02*
X194140000Y-30899000D01*
X197020000Y-30899000D02*
X203344000Y-30899000D01*
X187840000Y-30859000D02*
X194140000Y-30859000D01*
X197020000Y-30859000D02*
X203320000Y-30859000D01*
X187865000Y-30819000D02*
X194140000Y-30819000D01*
X197020000Y-30819000D02*
X203295000Y-30819000D01*
X187890000Y-30779000D02*
X194140000Y-30779000D01*
X197020000Y-30779000D02*
X203270000Y-30779000D01*
X187915000Y-30739000D02*
X194140000Y-30739000D01*
X197020000Y-30739000D02*
X203245000Y-30739000D01*
X187940000Y-30699000D02*
X194140000Y-30699000D01*
X197020000Y-30699000D02*
X203220000Y-30699000D01*
X187966000Y-30659000D02*
X194140000Y-30659000D01*
X197020000Y-30659000D02*
X203194000Y-30659000D01*
X187992000Y-30619000D02*
X194140000Y-30619000D01*
X197020000Y-30619000D02*
X203168000Y-30619000D01*
X188019000Y-30579000D02*
X194140000Y-30579000D01*
X197020000Y-30579000D02*
X203141000Y-30579000D01*
X188045000Y-30539000D02*
X194140000Y-30539000D01*
X197020000Y-30539000D02*
X203115000Y-30539000D01*
X188072000Y-30499000D02*
X194140000Y-30499000D01*
X197020000Y-30499000D02*
X203088000Y-30499000D01*
X188100000Y-30459000D02*
X194140000Y-30459000D01*
X197020000Y-30459000D02*
X203060000Y-30459000D01*
X188127000Y-30419000D02*
X203033000Y-30419000D01*
X188155000Y-30379000D02*
X203005000Y-30379000D01*
X188183000Y-30339000D02*
X202977000Y-30339000D01*
X188212000Y-30299000D02*
X202948000Y-30299000D01*
X188241000Y-30259000D02*
X202919000Y-30259000D01*
X188270000Y-30219000D02*
X202890000Y-30219000D01*
X188300000Y-30179000D02*
X202860000Y-30179000D01*
X188330000Y-30139000D02*
X202830000Y-30139000D01*
X188360000Y-30099000D02*
X202800000Y-30099000D01*
X188390000Y-30059000D02*
X202770000Y-30059000D01*
X188421000Y-30019000D02*
X202739000Y-30019000D01*
X188453000Y-29979000D02*
X202707000Y-29979000D01*
X188484000Y-29939000D02*
X202676000Y-29939000D01*
X188516000Y-29899000D02*
X202644000Y-29899000D01*
X188549000Y-29859000D02*
X202611000Y-29859000D01*
X188581000Y-29819000D02*
X202579000Y-29819000D01*
X188615000Y-29779000D02*
X202545000Y-29779000D01*
X188648000Y-29739000D02*
X202512000Y-29739000D01*
X188682000Y-29699000D02*
X202478000Y-29699000D01*
X188716000Y-29659000D02*
X202444000Y-29659000D01*
X188751000Y-29619000D02*
X202409000Y-29619000D01*
X188786000Y-29579000D02*
X202374000Y-29579000D01*
X188822000Y-29539000D02*
X202338000Y-29539000D01*
X188858000Y-29499000D02*
X202302000Y-29499000D01*
X188894000Y-29459000D02*
X202266000Y-29459000D01*
X188931000Y-29419000D02*
X202229000Y-29419000D01*
X188968000Y-29379000D02*
X202192000Y-29379000D01*
X189006000Y-29339000D02*
X202154000Y-29339000D01*
X189044000Y-29299000D02*
X202116000Y-29299000D01*
X189083000Y-29259000D02*
X202077000Y-29259000D01*
X189122000Y-29219000D02*
X202038000Y-29219000D01*
X189162000Y-29179000D02*
X201998000Y-29179000D01*
X189202000Y-29139000D02*
X201958000Y-29139000D01*
X189243000Y-29099000D02*
X201917000Y-29099000D01*
X189284000Y-29059000D02*
X201876000Y-29059000D01*
X189326000Y-29019000D02*
X201834000Y-29019000D01*
X189368000Y-28979000D02*
X201792000Y-28979000D01*
X189410000Y-28939000D02*
X201750000Y-28939000D01*
X189454000Y-28899000D02*
X201706000Y-28899000D01*
X189498000Y-28859000D02*
X201662000Y-28859000D01*
X189542000Y-28819000D02*
X201618000Y-28819000D01*
X189587000Y-28779000D02*
X201573000Y-28779000D01*
X189633000Y-28739000D02*
X201527000Y-28739000D01*
X189679000Y-28699000D02*
X201481000Y-28699000D01*
X189726000Y-28659000D02*
X201434000Y-28659000D01*
X189774000Y-28619000D02*
X201386000Y-28619000D01*
X189822000Y-28579000D02*
X201338000Y-28579000D01*
X189871000Y-28539000D02*
X201289000Y-28539000D01*
X189920000Y-28499000D02*
X201240000Y-28499000D01*
X189971000Y-28459000D02*
X201189000Y-28459000D01*
X190022000Y-28419000D02*
X201138000Y-28419000D01*
X190074000Y-28379000D02*
X201086000Y-28379000D01*
X190126000Y-28339000D02*
X201034000Y-28339000D01*
X190180000Y-28299000D02*
X200980000Y-28299000D01*
X190234000Y-28259000D02*
X200926000Y-28259000D01*
X190289000Y-28219000D02*
X200871000Y-28219000D01*
X190345000Y-28179000D02*
X200815000Y-28179000D01*
X190402000Y-28139000D02*
X200758000Y-28139000D01*
X190460000Y-28099000D02*
X200700000Y-28099000D01*
X190518000Y-28059000D02*
X200642000Y-28059000D01*
X190578000Y-28019000D02*
X200582000Y-28019000D01*
X190639000Y-27979000D02*
X200521000Y-27979000D01*
X190701000Y-27939000D02*
X200459000Y-27939000D01*
X190764000Y-27899000D02*
X200396000Y-27899000D01*
X190828000Y-27859000D02*
X200332000Y-27859000D01*
X190894000Y-27819000D02*
X200266000Y-27819000D01*
X190960000Y-27779000D02*
X200200000Y-27779000D01*
X191028000Y-27739000D02*
X200132000Y-27739000D01*
X191098000Y-27699000D02*
X200062000Y-27699000D01*
X191168000Y-27659000D02*
X199992000Y-27659000D01*
X191241000Y-27619000D02*
X199919000Y-27619000D01*
X191315000Y-27579000D02*
X199845000Y-27579000D01*
X191390000Y-27539000D02*
X199770000Y-27539000D01*
X191467000Y-27499000D02*
X199693000Y-27499000D01*
X191547000Y-27459000D02*
X199613000Y-27459000D01*
X191628000Y-27420000D02*
X199532000Y-27420000D01*
X191711000Y-27380000D02*
X199449000Y-27380000D01*
X191796000Y-27340000D02*
X199364000Y-27340000D01*
X191884000Y-27300000D02*
X199276000Y-27300000D01*
X191975000Y-27260000D02*
X199185000Y-27260000D01*
X192068000Y-27220000D02*
X199092000Y-27220000D01*
X192164000Y-27180000D02*
X198996000Y-27180000D01*
X192263000Y-27140000D02*
X198897000Y-27140000D01*
X192366000Y-27100000D02*
X198794000Y-27100000D01*
X192473000Y-27060000D02*
X198687000Y-27060000D01*
X192584000Y-27020000D02*
X198576000Y-27020000D01*
X192700000Y-26980000D02*
X198460000Y-26980000D01*
X192821000Y-26940000D02*
X198339000Y-26940000D01*
X192948000Y-26900000D02*
X198212000Y-26900000D01*
X193082000Y-26860000D02*
X198078000Y-26860000D01*
X193225000Y-26820000D02*
X197935000Y-26820000D01*
X193377000Y-26780000D02*
X197783000Y-26780000D01*
X193541000Y-26740000D02*
X197619000Y-26740000D01*
X193720000Y-26700000D02*
X197440000Y-26700000D01*
X193919000Y-26660000D02*
X197241000Y-26660000D01*
X194145000Y-26620000D02*
X197015000Y-26620000D01*
X194414000Y-26580000D02*
X196746000Y-26580000D01*
X194766000Y-26540000D02*
X196394000Y-26540000D01*
X195540000Y-26500000D02*
X195620000Y-26500000D01*
X195545000Y-43347440D02*
X195545000Y-41547440D01*
X194645000Y-42447440D02*
X196445000Y-42447440D01*
%TO.C,C4*%
X116435000Y-41335000D02*
G75*
G03*
X116435000Y-41335000I-9120000J0D01*
G01*
X98234000Y-41335000D02*
X116396000Y-41335000D01*
X98235000Y-41295000D02*
X116395000Y-41295000D01*
X98235000Y-41255000D02*
X116395000Y-41255000D01*
X98235000Y-41215000D02*
X116395000Y-41215000D01*
X98236000Y-41175000D02*
X116394000Y-41175000D01*
X98237000Y-41135000D02*
X116393000Y-41135000D01*
X98238000Y-41095000D02*
X116392000Y-41095000D01*
X98239000Y-41055000D02*
X116391000Y-41055000D01*
X98240000Y-41015000D02*
X116390000Y-41015000D01*
X98242000Y-40975000D02*
X116388000Y-40975000D01*
X98243000Y-40935000D02*
X116387000Y-40935000D01*
X98245000Y-40895000D02*
X116385000Y-40895000D01*
X98247000Y-40855000D02*
X116383000Y-40855000D01*
X98249000Y-40815000D02*
X116381000Y-40815000D01*
X98252000Y-40775000D02*
X116378000Y-40775000D01*
X98254000Y-40735000D02*
X116376000Y-40735000D01*
X98257000Y-40695000D02*
X116373000Y-40695000D01*
X98260000Y-40655000D02*
X116370000Y-40655000D01*
X98263000Y-40614000D02*
X116367000Y-40614000D01*
X98266000Y-40574000D02*
X116364000Y-40574000D01*
X98270000Y-40534000D02*
X116360000Y-40534000D01*
X98273000Y-40494000D02*
X116357000Y-40494000D01*
X98277000Y-40454000D02*
X116353000Y-40454000D01*
X98281000Y-40414000D02*
X116349000Y-40414000D01*
X98285000Y-40374000D02*
X116345000Y-40374000D01*
X98289000Y-40334000D02*
X116341000Y-40334000D01*
X98294000Y-40294000D02*
X116336000Y-40294000D01*
X98299000Y-40254000D02*
X116331000Y-40254000D01*
X98304000Y-40214000D02*
X116326000Y-40214000D01*
X98309000Y-40174000D02*
X116321000Y-40174000D01*
X98314000Y-40134000D02*
X116316000Y-40134000D01*
X98319000Y-40094000D02*
X116311000Y-40094000D01*
X98325000Y-40054000D02*
X116305000Y-40054000D01*
X98331000Y-40014000D02*
X116299000Y-40014000D01*
X98336000Y-39974000D02*
X116294000Y-39974000D01*
X98343000Y-39934000D02*
X116287000Y-39934000D01*
X98349000Y-39894000D02*
X116281000Y-39894000D01*
X98355000Y-39854000D02*
X116275000Y-39854000D01*
X98362000Y-39814000D02*
X116268000Y-39814000D01*
X98369000Y-39774000D02*
X116261000Y-39774000D01*
X98376000Y-39734000D02*
X116254000Y-39734000D01*
X98383000Y-39694000D02*
X116247000Y-39694000D01*
X98391000Y-39654000D02*
X116239000Y-39654000D01*
X98398000Y-39614000D02*
X116232000Y-39614000D01*
X98406000Y-39574000D02*
X116224000Y-39574000D01*
X98414000Y-39534000D02*
X116216000Y-39534000D01*
X98422000Y-39494000D02*
X116208000Y-39494000D01*
X98430000Y-39454000D02*
X116200000Y-39454000D01*
X98439000Y-39414000D02*
X116191000Y-39414000D01*
X98448000Y-39374000D02*
X116182000Y-39374000D01*
X98457000Y-39334000D02*
X116173000Y-39334000D01*
X98466000Y-39294000D02*
X116164000Y-39294000D01*
X98475000Y-39254000D02*
X116155000Y-39254000D01*
X98484000Y-39214000D02*
X116146000Y-39214000D01*
X98494000Y-39174000D02*
X116136000Y-39174000D01*
X98504000Y-39134000D02*
X116126000Y-39134000D01*
X98514000Y-39094000D02*
X116116000Y-39094000D01*
X98524000Y-39054000D02*
X116106000Y-39054000D01*
X98535000Y-39014000D02*
X105875000Y-39014000D01*
X108755000Y-39014000D02*
X116095000Y-39014000D01*
X98545000Y-38974000D02*
X105875000Y-38974000D01*
X108755000Y-38974000D02*
X116085000Y-38974000D01*
X98556000Y-38934000D02*
X105875000Y-38934000D01*
X108755000Y-38934000D02*
X116074000Y-38934000D01*
X98567000Y-38894000D02*
X105875000Y-38894000D01*
X108755000Y-38894000D02*
X116063000Y-38894000D01*
X98578000Y-38854000D02*
X105875000Y-38854000D01*
X108755000Y-38854000D02*
X116052000Y-38854000D01*
X98590000Y-38814000D02*
X105875000Y-38814000D01*
X108755000Y-38814000D02*
X116040000Y-38814000D01*
X98601000Y-38774000D02*
X105875000Y-38774000D01*
X108755000Y-38774000D02*
X116029000Y-38774000D01*
X98613000Y-38734000D02*
X105875000Y-38734000D01*
X108755000Y-38734000D02*
X116017000Y-38734000D01*
X98625000Y-38694000D02*
X105875000Y-38694000D01*
X108755000Y-38694000D02*
X116005000Y-38694000D01*
X98637000Y-38654000D02*
X105875000Y-38654000D01*
X108755000Y-38654000D02*
X115993000Y-38654000D01*
X98650000Y-38614000D02*
X105875000Y-38614000D01*
X108755000Y-38614000D02*
X115980000Y-38614000D01*
X98662000Y-38574000D02*
X105875000Y-38574000D01*
X108755000Y-38574000D02*
X115968000Y-38574000D01*
X98675000Y-38534000D02*
X105875000Y-38534000D01*
X108755000Y-38534000D02*
X115955000Y-38534000D01*
X98688000Y-38494000D02*
X105875000Y-38494000D01*
X108755000Y-38494000D02*
X115942000Y-38494000D01*
X98701000Y-38454000D02*
X105875000Y-38454000D01*
X108755000Y-38454000D02*
X115929000Y-38454000D01*
X98715000Y-38414000D02*
X105875000Y-38414000D01*
X108755000Y-38414000D02*
X115915000Y-38414000D01*
X98728000Y-38374000D02*
X105875000Y-38374000D01*
X108755000Y-38374000D02*
X115902000Y-38374000D01*
X98742000Y-38334000D02*
X105875000Y-38334000D01*
X108755000Y-38334000D02*
X115888000Y-38334000D01*
X98756000Y-38294000D02*
X105875000Y-38294000D01*
X108755000Y-38294000D02*
X115874000Y-38294000D01*
X98770000Y-38254000D02*
X105875000Y-38254000D01*
X108755000Y-38254000D02*
X115860000Y-38254000D01*
X98785000Y-38214000D02*
X105875000Y-38214000D01*
X108755000Y-38214000D02*
X115845000Y-38214000D01*
X98799000Y-38174000D02*
X105875000Y-38174000D01*
X108755000Y-38174000D02*
X115831000Y-38174000D01*
X98814000Y-38134000D02*
X105875000Y-38134000D01*
X108755000Y-38134000D02*
X115816000Y-38134000D01*
X98829000Y-38094000D02*
X105875000Y-38094000D01*
X108755000Y-38094000D02*
X115801000Y-38094000D01*
X98845000Y-38054000D02*
X105875000Y-38054000D01*
X108755000Y-38054000D02*
X115785000Y-38054000D01*
X98860000Y-38014000D02*
X105875000Y-38014000D01*
X108755000Y-38014000D02*
X115770000Y-38014000D01*
X98876000Y-37974000D02*
X105875000Y-37974000D01*
X108755000Y-37974000D02*
X115754000Y-37974000D01*
X98892000Y-37934000D02*
X105875000Y-37934000D01*
X108755000Y-37934000D02*
X115738000Y-37934000D01*
X98908000Y-37894000D02*
X105875000Y-37894000D01*
X108755000Y-37894000D02*
X115722000Y-37894000D01*
X98925000Y-37854000D02*
X105875000Y-37854000D01*
X108755000Y-37854000D02*
X115705000Y-37854000D01*
X98941000Y-37814000D02*
X105875000Y-37814000D01*
X108755000Y-37814000D02*
X115689000Y-37814000D01*
X98958000Y-37774000D02*
X105875000Y-37774000D01*
X108755000Y-37774000D02*
X115672000Y-37774000D01*
X98975000Y-37734000D02*
X105875000Y-37734000D01*
X108755000Y-37734000D02*
X115655000Y-37734000D01*
X98992000Y-37694000D02*
X105875000Y-37694000D01*
X108755000Y-37694000D02*
X115638000Y-37694000D01*
X99010000Y-37654000D02*
X105875000Y-37654000D01*
X108755000Y-37654000D02*
X115620000Y-37654000D01*
X99028000Y-37614000D02*
X105875000Y-37614000D01*
X108755000Y-37614000D02*
X115602000Y-37614000D01*
X99046000Y-37574000D02*
X105875000Y-37574000D01*
X108755000Y-37574000D02*
X115584000Y-37574000D01*
X99064000Y-37534000D02*
X105875000Y-37534000D01*
X108755000Y-37534000D02*
X115566000Y-37534000D01*
X99082000Y-37494000D02*
X105875000Y-37494000D01*
X108755000Y-37494000D02*
X115548000Y-37494000D01*
X99101000Y-37454000D02*
X105875000Y-37454000D01*
X108755000Y-37454000D02*
X115529000Y-37454000D01*
X99120000Y-37414000D02*
X105875000Y-37414000D01*
X108755000Y-37414000D02*
X115510000Y-37414000D01*
X99139000Y-37374000D02*
X105875000Y-37374000D01*
X108755000Y-37374000D02*
X115491000Y-37374000D01*
X99159000Y-37334000D02*
X105875000Y-37334000D01*
X108755000Y-37334000D02*
X115471000Y-37334000D01*
X99178000Y-37294000D02*
X105875000Y-37294000D01*
X108755000Y-37294000D02*
X115452000Y-37294000D01*
X99198000Y-37254000D02*
X105875000Y-37254000D01*
X108755000Y-37254000D02*
X115432000Y-37254000D01*
X99218000Y-37214000D02*
X105875000Y-37214000D01*
X108755000Y-37214000D02*
X115412000Y-37214000D01*
X99239000Y-37174000D02*
X105875000Y-37174000D01*
X108755000Y-37174000D02*
X115391000Y-37174000D01*
X99259000Y-37134000D02*
X105875000Y-37134000D01*
X108755000Y-37134000D02*
X115371000Y-37134000D01*
X99280000Y-37094000D02*
X105875000Y-37094000D01*
X108755000Y-37094000D02*
X115350000Y-37094000D01*
X99301000Y-37054000D02*
X105875000Y-37054000D01*
X108755000Y-37054000D02*
X115329000Y-37054000D01*
X99323000Y-37014000D02*
X105875000Y-37014000D01*
X108755000Y-37014000D02*
X115307000Y-37014000D01*
X99344000Y-36974000D02*
X105875000Y-36974000D01*
X108755000Y-36974000D02*
X115286000Y-36974000D01*
X99366000Y-36934000D02*
X105875000Y-36934000D01*
X108755000Y-36934000D02*
X115264000Y-36934000D01*
X99388000Y-36894000D02*
X105875000Y-36894000D01*
X108755000Y-36894000D02*
X115242000Y-36894000D01*
X99411000Y-36854000D02*
X105875000Y-36854000D01*
X108755000Y-36854000D02*
X115219000Y-36854000D01*
X99433000Y-36814000D02*
X105875000Y-36814000D01*
X108755000Y-36814000D02*
X115197000Y-36814000D01*
X99456000Y-36774000D02*
X105875000Y-36774000D01*
X108755000Y-36774000D02*
X115174000Y-36774000D01*
X99480000Y-36734000D02*
X105875000Y-36734000D01*
X108755000Y-36734000D02*
X115150000Y-36734000D01*
X99503000Y-36694000D02*
X105875000Y-36694000D01*
X108755000Y-36694000D02*
X115127000Y-36694000D01*
X99527000Y-36654000D02*
X105875000Y-36654000D01*
X108755000Y-36654000D02*
X115103000Y-36654000D01*
X99551000Y-36614000D02*
X105875000Y-36614000D01*
X108755000Y-36614000D02*
X115079000Y-36614000D01*
X99575000Y-36574000D02*
X105875000Y-36574000D01*
X108755000Y-36574000D02*
X115055000Y-36574000D01*
X99600000Y-36534000D02*
X105875000Y-36534000D01*
X108755000Y-36534000D02*
X115030000Y-36534000D01*
X99625000Y-36494000D02*
X105875000Y-36494000D01*
X108755000Y-36494000D02*
X115005000Y-36494000D01*
X99650000Y-36454000D02*
X105875000Y-36454000D01*
X108755000Y-36454000D02*
X114980000Y-36454000D01*
X99675000Y-36414000D02*
X105875000Y-36414000D01*
X108755000Y-36414000D02*
X114955000Y-36414000D01*
X99701000Y-36374000D02*
X105875000Y-36374000D01*
X108755000Y-36374000D02*
X114929000Y-36374000D01*
X99727000Y-36334000D02*
X105875000Y-36334000D01*
X108755000Y-36334000D02*
X114903000Y-36334000D01*
X99754000Y-36294000D02*
X105875000Y-36294000D01*
X108755000Y-36294000D02*
X114876000Y-36294000D01*
X99780000Y-36254000D02*
X105875000Y-36254000D01*
X108755000Y-36254000D02*
X114850000Y-36254000D01*
X99807000Y-36214000D02*
X105875000Y-36214000D01*
X108755000Y-36214000D02*
X114823000Y-36214000D01*
X99835000Y-36174000D02*
X105875000Y-36174000D01*
X108755000Y-36174000D02*
X114795000Y-36174000D01*
X99862000Y-36134000D02*
X114768000Y-36134000D01*
X99890000Y-36094000D02*
X114740000Y-36094000D01*
X99918000Y-36054000D02*
X114712000Y-36054000D01*
X99947000Y-36014000D02*
X114683000Y-36014000D01*
X99976000Y-35974000D02*
X114654000Y-35974000D01*
X100005000Y-35934000D02*
X114625000Y-35934000D01*
X100035000Y-35894000D02*
X114595000Y-35894000D01*
X100065000Y-35854000D02*
X114565000Y-35854000D01*
X100095000Y-35814000D02*
X114535000Y-35814000D01*
X100125000Y-35774000D02*
X114505000Y-35774000D01*
X100156000Y-35734000D02*
X114474000Y-35734000D01*
X100188000Y-35694000D02*
X114442000Y-35694000D01*
X100219000Y-35654000D02*
X114411000Y-35654000D01*
X100251000Y-35614000D02*
X114379000Y-35614000D01*
X100284000Y-35574000D02*
X114346000Y-35574000D01*
X100316000Y-35534000D02*
X114314000Y-35534000D01*
X100350000Y-35494000D02*
X114280000Y-35494000D01*
X100383000Y-35454000D02*
X114247000Y-35454000D01*
X100417000Y-35414000D02*
X114213000Y-35414000D01*
X100451000Y-35374000D02*
X114179000Y-35374000D01*
X100486000Y-35334000D02*
X114144000Y-35334000D01*
X100521000Y-35294000D02*
X114109000Y-35294000D01*
X100557000Y-35254000D02*
X114073000Y-35254000D01*
X100593000Y-35214000D02*
X114037000Y-35214000D01*
X100629000Y-35174000D02*
X114001000Y-35174000D01*
X100666000Y-35134000D02*
X113964000Y-35134000D01*
X100703000Y-35094000D02*
X113927000Y-35094000D01*
X100741000Y-35054000D02*
X113889000Y-35054000D01*
X100779000Y-35014000D02*
X113851000Y-35014000D01*
X100818000Y-34974000D02*
X113812000Y-34974000D01*
X100857000Y-34934000D02*
X113773000Y-34934000D01*
X100897000Y-34894000D02*
X113733000Y-34894000D01*
X100937000Y-34854000D02*
X113693000Y-34854000D01*
X100978000Y-34814000D02*
X113652000Y-34814000D01*
X101019000Y-34774000D02*
X113611000Y-34774000D01*
X101061000Y-34734000D02*
X113569000Y-34734000D01*
X101103000Y-34694000D02*
X113527000Y-34694000D01*
X101145000Y-34654000D02*
X113485000Y-34654000D01*
X101189000Y-34614000D02*
X113441000Y-34614000D01*
X101233000Y-34574000D02*
X113397000Y-34574000D01*
X101277000Y-34534000D02*
X113353000Y-34534000D01*
X101322000Y-34494000D02*
X113308000Y-34494000D01*
X101368000Y-34454000D02*
X113262000Y-34454000D01*
X101414000Y-34414000D02*
X113216000Y-34414000D01*
X101461000Y-34374000D02*
X113169000Y-34374000D01*
X101509000Y-34334000D02*
X113121000Y-34334000D01*
X101557000Y-34294000D02*
X113073000Y-34294000D01*
X101606000Y-34254000D02*
X113024000Y-34254000D01*
X101655000Y-34214000D02*
X112975000Y-34214000D01*
X101706000Y-34174000D02*
X112924000Y-34174000D01*
X101757000Y-34134000D02*
X112873000Y-34134000D01*
X101809000Y-34094000D02*
X112821000Y-34094000D01*
X101861000Y-34054000D02*
X112769000Y-34054000D01*
X101915000Y-34014000D02*
X112715000Y-34014000D01*
X101969000Y-33974000D02*
X112661000Y-33974000D01*
X102024000Y-33934000D02*
X112606000Y-33934000D01*
X102080000Y-33894000D02*
X112550000Y-33894000D01*
X102137000Y-33854000D02*
X112493000Y-33854000D01*
X102195000Y-33814000D02*
X112435000Y-33814000D01*
X102253000Y-33774000D02*
X112377000Y-33774000D01*
X102313000Y-33734000D02*
X112317000Y-33734000D01*
X102374000Y-33694000D02*
X112256000Y-33694000D01*
X102436000Y-33654000D02*
X112194000Y-33654000D01*
X102499000Y-33614000D02*
X112131000Y-33614000D01*
X102563000Y-33574000D02*
X112067000Y-33574000D01*
X102629000Y-33534000D02*
X112001000Y-33534000D01*
X102695000Y-33494000D02*
X111935000Y-33494000D01*
X102763000Y-33454000D02*
X111867000Y-33454000D01*
X102833000Y-33414000D02*
X111797000Y-33414000D01*
X102903000Y-33374000D02*
X111727000Y-33374000D01*
X102976000Y-33334000D02*
X111654000Y-33334000D01*
X103050000Y-33294000D02*
X111580000Y-33294000D01*
X103125000Y-33254000D02*
X111505000Y-33254000D01*
X103202000Y-33214000D02*
X111428000Y-33214000D01*
X103282000Y-33174000D02*
X111348000Y-33174000D01*
X103363000Y-33135000D02*
X111267000Y-33135000D01*
X103446000Y-33095000D02*
X111184000Y-33095000D01*
X103531000Y-33055000D02*
X111099000Y-33055000D01*
X103619000Y-33015000D02*
X111011000Y-33015000D01*
X103710000Y-32975000D02*
X110920000Y-32975000D01*
X103803000Y-32935000D02*
X110827000Y-32935000D01*
X103899000Y-32895000D02*
X110731000Y-32895000D01*
X103998000Y-32855000D02*
X110632000Y-32855000D01*
X104101000Y-32815000D02*
X110529000Y-32815000D01*
X104208000Y-32775000D02*
X110422000Y-32775000D01*
X104319000Y-32735000D02*
X110311000Y-32735000D01*
X104435000Y-32695000D02*
X110195000Y-32695000D01*
X104556000Y-32655000D02*
X110074000Y-32655000D01*
X104683000Y-32615000D02*
X109947000Y-32615000D01*
X104817000Y-32575000D02*
X109813000Y-32575000D01*
X104960000Y-32535000D02*
X109670000Y-32535000D01*
X105112000Y-32495000D02*
X109518000Y-32495000D01*
X105276000Y-32455000D02*
X109354000Y-32455000D01*
X105455000Y-32415000D02*
X109175000Y-32415000D01*
X105654000Y-32375000D02*
X108976000Y-32375000D01*
X105880000Y-32335000D02*
X108750000Y-32335000D01*
X106149000Y-32295000D02*
X108481000Y-32295000D01*
X106501000Y-32255000D02*
X108129000Y-32255000D01*
X107275000Y-32215000D02*
X107355000Y-32215000D01*
X107280000Y-49062440D02*
X107280000Y-47262440D01*
X106380000Y-48162440D02*
X108180000Y-48162440D01*
%TO.C,C3*%
X147830000Y-81133733D02*
X147830000Y-81426267D01*
X146810000Y-81133733D02*
X146810000Y-81426267D01*
%TO.C,C2*%
X151276267Y-90680000D02*
X150983733Y-90680000D01*
X151276267Y-89660000D02*
X150983733Y-89660000D01*
%TO.C,C1*%
X154793733Y-77595000D02*
X155086267Y-77595000D01*
X154793733Y-78615000D02*
X155086267Y-78615000D01*
%TO.C,R9*%
D10*
X176427380Y-87796666D02*
X175951190Y-88130000D01*
X176427380Y-88368095D02*
X175427380Y-88368095D01*
X175427380Y-87987142D01*
X175475000Y-87891904D01*
X175522619Y-87844285D01*
X175617857Y-87796666D01*
X175760714Y-87796666D01*
X175855952Y-87844285D01*
X175903571Y-87891904D01*
X175951190Y-87987142D01*
X175951190Y-88368095D01*
X176427380Y-87320476D02*
X176427380Y-87130000D01*
X176379761Y-87034761D01*
X176332142Y-86987142D01*
X176189285Y-86891904D01*
X175998809Y-86844285D01*
X175617857Y-86844285D01*
X175522619Y-86891904D01*
X175475000Y-86939523D01*
X175427380Y-87034761D01*
X175427380Y-87225238D01*
X175475000Y-87320476D01*
X175522619Y-87368095D01*
X175617857Y-87415714D01*
X175855952Y-87415714D01*
X175951190Y-87368095D01*
X175998809Y-87320476D01*
X176046428Y-87225238D01*
X176046428Y-87034761D01*
X175998809Y-86939523D01*
X175951190Y-86891904D01*
X175855952Y-86844285D01*
%TO.C,U1*%
X127508095Y-26757380D02*
X127508095Y-27566904D01*
X127555714Y-27662142D01*
X127603333Y-27709761D01*
X127698571Y-27757380D01*
X127889047Y-27757380D01*
X127984285Y-27709761D01*
X128031904Y-27662142D01*
X128079523Y-27566904D01*
X128079523Y-26757380D01*
X129079523Y-27757380D02*
X128508095Y-27757380D01*
X128793809Y-27757380D02*
X128793809Y-26757380D01*
X128698571Y-26900238D01*
X128603333Y-26995476D01*
X128508095Y-27043095D01*
%TO.C,U2*%
X149087380Y-85216904D02*
X149896904Y-85216904D01*
X149992142Y-85169285D01*
X150039761Y-85121666D01*
X150087380Y-85026428D01*
X150087380Y-84835952D01*
X150039761Y-84740714D01*
X149992142Y-84693095D01*
X149896904Y-84645476D01*
X149087380Y-84645476D01*
X149182619Y-84216904D02*
X149135000Y-84169285D01*
X149087380Y-84074047D01*
X149087380Y-83835952D01*
X149135000Y-83740714D01*
X149182619Y-83693095D01*
X149277857Y-83645476D01*
X149373095Y-83645476D01*
X149515952Y-83693095D01*
X150087380Y-84264523D01*
X150087380Y-83645476D01*
%TO.C,R8*%
X83002380Y-27471666D02*
X82526190Y-27805000D01*
X83002380Y-28043095D02*
X82002380Y-28043095D01*
X82002380Y-27662142D01*
X82050000Y-27566904D01*
X82097619Y-27519285D01*
X82192857Y-27471666D01*
X82335714Y-27471666D01*
X82430952Y-27519285D01*
X82478571Y-27566904D01*
X82526190Y-27662142D01*
X82526190Y-28043095D01*
X82430952Y-26900238D02*
X82383333Y-26995476D01*
X82335714Y-27043095D01*
X82240476Y-27090714D01*
X82192857Y-27090714D01*
X82097619Y-27043095D01*
X82050000Y-26995476D01*
X82002380Y-26900238D01*
X82002380Y-26709761D01*
X82050000Y-26614523D01*
X82097619Y-26566904D01*
X82192857Y-26519285D01*
X82240476Y-26519285D01*
X82335714Y-26566904D01*
X82383333Y-26614523D01*
X82430952Y-26709761D01*
X82430952Y-26900238D01*
X82478571Y-26995476D01*
X82526190Y-27043095D01*
X82621428Y-27090714D01*
X82811904Y-27090714D01*
X82907142Y-27043095D01*
X82954761Y-26995476D01*
X83002380Y-26900238D01*
X83002380Y-26709761D01*
X82954761Y-26614523D01*
X82907142Y-26566904D01*
X82811904Y-26519285D01*
X82621428Y-26519285D01*
X82526190Y-26566904D01*
X82478571Y-26614523D01*
X82430952Y-26709761D01*
%TO.C,R7*%
X83732380Y-87161666D02*
X83256190Y-87495000D01*
X83732380Y-87733095D02*
X82732380Y-87733095D01*
X82732380Y-87352142D01*
X82780000Y-87256904D01*
X82827619Y-87209285D01*
X82922857Y-87161666D01*
X83065714Y-87161666D01*
X83160952Y-87209285D01*
X83208571Y-87256904D01*
X83256190Y-87352142D01*
X83256190Y-87733095D01*
X82732380Y-86828333D02*
X82732380Y-86161666D01*
X83732380Y-86590238D01*
%TO.C,R6*%
X161027380Y-96051666D02*
X160551190Y-96385000D01*
X161027380Y-96623095D02*
X160027380Y-96623095D01*
X160027380Y-96242142D01*
X160075000Y-96146904D01*
X160122619Y-96099285D01*
X160217857Y-96051666D01*
X160360714Y-96051666D01*
X160455952Y-96099285D01*
X160503571Y-96146904D01*
X160551190Y-96242142D01*
X160551190Y-96623095D01*
X160027380Y-95194523D02*
X160027380Y-95385000D01*
X160075000Y-95480238D01*
X160122619Y-95527857D01*
X160265476Y-95623095D01*
X160455952Y-95670714D01*
X160836904Y-95670714D01*
X160932142Y-95623095D01*
X160979761Y-95575476D01*
X161027380Y-95480238D01*
X161027380Y-95289761D01*
X160979761Y-95194523D01*
X160932142Y-95146904D01*
X160836904Y-95099285D01*
X160598809Y-95099285D01*
X160503571Y-95146904D01*
X160455952Y-95194523D01*
X160408333Y-95289761D01*
X160408333Y-95480238D01*
X160455952Y-95575476D01*
X160503571Y-95623095D01*
X160598809Y-95670714D01*
%TO.C,R5*%
X154773333Y-92052380D02*
X154440000Y-91576190D01*
X154201904Y-92052380D02*
X154201904Y-91052380D01*
X154582857Y-91052380D01*
X154678095Y-91100000D01*
X154725714Y-91147619D01*
X154773333Y-91242857D01*
X154773333Y-91385714D01*
X154725714Y-91480952D01*
X154678095Y-91528571D01*
X154582857Y-91576190D01*
X154201904Y-91576190D01*
X155678095Y-91052380D02*
X155201904Y-91052380D01*
X155154285Y-91528571D01*
X155201904Y-91480952D01*
X155297142Y-91433333D01*
X155535238Y-91433333D01*
X155630476Y-91480952D01*
X155678095Y-91528571D01*
X155725714Y-91623809D01*
X155725714Y-91861904D01*
X155678095Y-91957142D01*
X155630476Y-92004761D01*
X155535238Y-92052380D01*
X155297142Y-92052380D01*
X155201904Y-92004761D01*
X155154285Y-91957142D01*
%TO.C,R4*%
X149202380Y-85256666D02*
X148726190Y-85590000D01*
X149202380Y-85828095D02*
X148202380Y-85828095D01*
X148202380Y-85447142D01*
X148250000Y-85351904D01*
X148297619Y-85304285D01*
X148392857Y-85256666D01*
X148535714Y-85256666D01*
X148630952Y-85304285D01*
X148678571Y-85351904D01*
X148726190Y-85447142D01*
X148726190Y-85828095D01*
X148535714Y-84399523D02*
X149202380Y-84399523D01*
X148154761Y-84637619D02*
X148869047Y-84875714D01*
X148869047Y-84256666D01*
%TO.C,R3*%
X150963333Y-77127380D02*
X150630000Y-76651190D01*
X150391904Y-77127380D02*
X150391904Y-76127380D01*
X150772857Y-76127380D01*
X150868095Y-76175000D01*
X150915714Y-76222619D01*
X150963333Y-76317857D01*
X150963333Y-76460714D01*
X150915714Y-76555952D01*
X150868095Y-76603571D01*
X150772857Y-76651190D01*
X150391904Y-76651190D01*
X151296666Y-76127380D02*
X151915714Y-76127380D01*
X151582380Y-76508333D01*
X151725238Y-76508333D01*
X151820476Y-76555952D01*
X151868095Y-76603571D01*
X151915714Y-76698809D01*
X151915714Y-76936904D01*
X151868095Y-77032142D01*
X151820476Y-77079761D01*
X151725238Y-77127380D01*
X151439523Y-77127380D01*
X151344285Y-77079761D01*
X151296666Y-77032142D01*
%TO.C,R1*%
X112537380Y-96051666D02*
X112061190Y-96385000D01*
X112537380Y-96623095D02*
X111537380Y-96623095D01*
X111537380Y-96242142D01*
X111585000Y-96146904D01*
X111632619Y-96099285D01*
X111727857Y-96051666D01*
X111870714Y-96051666D01*
X111965952Y-96099285D01*
X112013571Y-96146904D01*
X112061190Y-96242142D01*
X112061190Y-96623095D01*
X112537380Y-95099285D02*
X112537380Y-95670714D01*
X112537380Y-95385000D02*
X111537380Y-95385000D01*
X111680238Y-95480238D01*
X111775476Y-95575476D01*
X111823095Y-95670714D01*
%TO.C,Q2*%
X157972619Y-83070238D02*
X157925000Y-83165476D01*
X157829761Y-83260714D01*
X157686904Y-83403571D01*
X157639285Y-83498809D01*
X157639285Y-83594047D01*
X157877380Y-83546428D02*
X157829761Y-83641666D01*
X157734523Y-83736904D01*
X157544047Y-83784523D01*
X157210714Y-83784523D01*
X157020238Y-83736904D01*
X156925000Y-83641666D01*
X156877380Y-83546428D01*
X156877380Y-83355952D01*
X156925000Y-83260714D01*
X157020238Y-83165476D01*
X157210714Y-83117857D01*
X157544047Y-83117857D01*
X157734523Y-83165476D01*
X157829761Y-83260714D01*
X157877380Y-83355952D01*
X157877380Y-83546428D01*
X156972619Y-82736904D02*
X156925000Y-82689285D01*
X156877380Y-82594047D01*
X156877380Y-82355952D01*
X156925000Y-82260714D01*
X156972619Y-82213095D01*
X157067857Y-82165476D01*
X157163095Y-82165476D01*
X157305952Y-82213095D01*
X157877380Y-82784523D01*
X157877380Y-82165476D01*
%TO.C,Q1*%
X151229761Y-101567619D02*
X151134523Y-101520000D01*
X151039285Y-101424761D01*
X150896428Y-101281904D01*
X150801190Y-101234285D01*
X150705952Y-101234285D01*
X150753571Y-101472380D02*
X150658333Y-101424761D01*
X150563095Y-101329523D01*
X150515476Y-101139047D01*
X150515476Y-100805714D01*
X150563095Y-100615238D01*
X150658333Y-100520000D01*
X150753571Y-100472380D01*
X150944047Y-100472380D01*
X151039285Y-100520000D01*
X151134523Y-100615238D01*
X151182142Y-100805714D01*
X151182142Y-101139047D01*
X151134523Y-101329523D01*
X151039285Y-101424761D01*
X150944047Y-101472380D01*
X150753571Y-101472380D01*
X152134523Y-101472380D02*
X151563095Y-101472380D01*
X151848809Y-101472380D02*
X151848809Y-100472380D01*
X151753571Y-100615238D01*
X151658333Y-100710476D01*
X151563095Y-100758095D01*
%TO.C,J7*%
X145716666Y-120102380D02*
X145716666Y-120816666D01*
X145669047Y-120959523D01*
X145573809Y-121054761D01*
X145430952Y-121102380D01*
X145335714Y-121102380D01*
X146097619Y-120102380D02*
X146764285Y-120102380D01*
X146335714Y-121102380D01*
%TO.C,J6*%
X166671666Y-119192380D02*
X166671666Y-119906666D01*
X166624047Y-120049523D01*
X166528809Y-120144761D01*
X166385952Y-120192380D01*
X166290714Y-120192380D01*
X167576428Y-119192380D02*
X167385952Y-119192380D01*
X167290714Y-119240000D01*
X167243095Y-119287619D01*
X167147857Y-119430476D01*
X167100238Y-119620952D01*
X167100238Y-120001904D01*
X167147857Y-120097142D01*
X167195476Y-120144761D01*
X167290714Y-120192380D01*
X167481190Y-120192380D01*
X167576428Y-120144761D01*
X167624047Y-120097142D01*
X167671666Y-120001904D01*
X167671666Y-119763809D01*
X167624047Y-119668571D01*
X167576428Y-119620952D01*
X167481190Y-119573333D01*
X167290714Y-119573333D01*
X167195476Y-119620952D01*
X167147857Y-119668571D01*
X167100238Y-119763809D01*
%TO.C,J4*%
X76501666Y-90187380D02*
X76501666Y-90901666D01*
X76454047Y-91044523D01*
X76358809Y-91139761D01*
X76215952Y-91187380D01*
X76120714Y-91187380D01*
X77406428Y-90520714D02*
X77406428Y-91187380D01*
X77168333Y-90139761D02*
X76930238Y-90854047D01*
X77549285Y-90854047D01*
%TO.C,J3*%
X101266666Y-118267380D02*
X101266666Y-118981666D01*
X101219047Y-119124523D01*
X101123809Y-119219761D01*
X100980952Y-119267380D01*
X100885714Y-119267380D01*
X101647619Y-118267380D02*
X102266666Y-118267380D01*
X101933333Y-118648333D01*
X102076190Y-118648333D01*
X102171428Y-118695952D01*
X102219047Y-118743571D01*
X102266666Y-118838809D01*
X102266666Y-119076904D01*
X102219047Y-119172142D01*
X102171428Y-119219761D01*
X102076190Y-119267380D01*
X101790476Y-119267380D01*
X101695238Y-119219761D01*
X101647619Y-119172142D01*
%TO.C,J2*%
X93646666Y-28662380D02*
X93646666Y-29376666D01*
X93599047Y-29519523D01*
X93503809Y-29614761D01*
X93360952Y-29662380D01*
X93265714Y-29662380D01*
X94075238Y-28757619D02*
X94122857Y-28710000D01*
X94218095Y-28662380D01*
X94456190Y-28662380D01*
X94551428Y-28710000D01*
X94599047Y-28757619D01*
X94646666Y-28852857D01*
X94646666Y-28948095D01*
X94599047Y-29090952D01*
X94027619Y-29662380D01*
X94646666Y-29662380D01*
%TO.C,J1*%
X98232380Y-59388333D02*
X98946666Y-59388333D01*
X99089523Y-59435952D01*
X99184761Y-59531190D01*
X99232380Y-59674047D01*
X99232380Y-59769285D01*
X99232380Y-58388333D02*
X99232380Y-58959761D01*
X99232380Y-58674047D02*
X98232380Y-58674047D01*
X98375238Y-58769285D01*
X98470476Y-58864523D01*
X98518095Y-58959761D01*
%TO.C,H6*%
X141478095Y-67372380D02*
X141478095Y-66372380D01*
X141478095Y-66848571D02*
X142049523Y-66848571D01*
X142049523Y-67372380D02*
X142049523Y-66372380D01*
X142954285Y-66372380D02*
X142763809Y-66372380D01*
X142668571Y-66420000D01*
X142620952Y-66467619D01*
X142525714Y-66610476D01*
X142478095Y-66800952D01*
X142478095Y-67181904D01*
X142525714Y-67277142D01*
X142573333Y-67324761D01*
X142668571Y-67372380D01*
X142859047Y-67372380D01*
X142954285Y-67324761D01*
X143001904Y-67277142D01*
X143049523Y-67181904D01*
X143049523Y-66943809D01*
X143001904Y-66848571D01*
X142954285Y-66800952D01*
X142859047Y-66753333D01*
X142668571Y-66753333D01*
X142573333Y-66800952D01*
X142525714Y-66848571D01*
X142478095Y-66943809D01*
%TO.C,H5*%
X123698095Y-112457380D02*
X123698095Y-111457380D01*
X123698095Y-111933571D02*
X124269523Y-111933571D01*
X124269523Y-112457380D02*
X124269523Y-111457380D01*
X125221904Y-111457380D02*
X124745714Y-111457380D01*
X124698095Y-111933571D01*
X124745714Y-111885952D01*
X124840952Y-111838333D01*
X125079047Y-111838333D01*
X125174285Y-111885952D01*
X125221904Y-111933571D01*
X125269523Y-112028809D01*
X125269523Y-112266904D01*
X125221904Y-112362142D01*
X125174285Y-112409761D01*
X125079047Y-112457380D01*
X124840952Y-112457380D01*
X124745714Y-112409761D01*
X124698095Y-112362142D01*
%TO.C,F1*%
X103806666Y-95178571D02*
X103473333Y-95178571D01*
X103473333Y-95702380D02*
X103473333Y-94702380D01*
X103949523Y-94702380D01*
X104854285Y-95702380D02*
X104282857Y-95702380D01*
X104568571Y-95702380D02*
X104568571Y-94702380D01*
X104473333Y-94845238D01*
X104378095Y-94940476D01*
X104282857Y-94988095D01*
%TO.C,C8*%
X202187142Y-58546666D02*
X202234761Y-58594285D01*
X202282380Y-58737142D01*
X202282380Y-58832380D01*
X202234761Y-58975238D01*
X202139523Y-59070476D01*
X202044285Y-59118095D01*
X201853809Y-59165714D01*
X201710952Y-59165714D01*
X201520476Y-59118095D01*
X201425238Y-59070476D01*
X201330000Y-58975238D01*
X201282380Y-58832380D01*
X201282380Y-58737142D01*
X201330000Y-58594285D01*
X201377619Y-58546666D01*
X201710952Y-57975238D02*
X201663333Y-58070476D01*
X201615714Y-58118095D01*
X201520476Y-58165714D01*
X201472857Y-58165714D01*
X201377619Y-58118095D01*
X201330000Y-58070476D01*
X201282380Y-57975238D01*
X201282380Y-57784761D01*
X201330000Y-57689523D01*
X201377619Y-57641904D01*
X201472857Y-57594285D01*
X201520476Y-57594285D01*
X201615714Y-57641904D01*
X201663333Y-57689523D01*
X201710952Y-57784761D01*
X201710952Y-57975238D01*
X201758571Y-58070476D01*
X201806190Y-58118095D01*
X201901428Y-58165714D01*
X202091904Y-58165714D01*
X202187142Y-58118095D01*
X202234761Y-58070476D01*
X202282380Y-57975238D01*
X202282380Y-57784761D01*
X202234761Y-57689523D01*
X202187142Y-57641904D01*
X202091904Y-57594285D01*
X201901428Y-57594285D01*
X201806190Y-57641904D01*
X201758571Y-57689523D01*
X201710952Y-57784761D01*
%TO.C,C7*%
X187137142Y-58646666D02*
X187184761Y-58694285D01*
X187232380Y-58837142D01*
X187232380Y-58932380D01*
X187184761Y-59075238D01*
X187089523Y-59170476D01*
X186994285Y-59218095D01*
X186803809Y-59265714D01*
X186660952Y-59265714D01*
X186470476Y-59218095D01*
X186375238Y-59170476D01*
X186280000Y-59075238D01*
X186232380Y-58932380D01*
X186232380Y-58837142D01*
X186280000Y-58694285D01*
X186327619Y-58646666D01*
X186232380Y-58313333D02*
X186232380Y-57646666D01*
X187232380Y-58075238D01*
%TO.C,C6*%
X164097142Y-35786666D02*
X164144761Y-35834285D01*
X164192380Y-35977142D01*
X164192380Y-36072380D01*
X164144761Y-36215238D01*
X164049523Y-36310476D01*
X163954285Y-36358095D01*
X163763809Y-36405714D01*
X163620952Y-36405714D01*
X163430476Y-36358095D01*
X163335238Y-36310476D01*
X163240000Y-36215238D01*
X163192380Y-36072380D01*
X163192380Y-35977142D01*
X163240000Y-35834285D01*
X163287619Y-35786666D01*
X163192380Y-34929523D02*
X163192380Y-35120000D01*
X163240000Y-35215238D01*
X163287619Y-35262857D01*
X163430476Y-35358095D01*
X163620952Y-35405714D01*
X164001904Y-35405714D01*
X164097142Y-35358095D01*
X164144761Y-35310476D01*
X164192380Y-35215238D01*
X164192380Y-35024761D01*
X164144761Y-34929523D01*
X164097142Y-34881904D01*
X164001904Y-34834285D01*
X163763809Y-34834285D01*
X163668571Y-34881904D01*
X163620952Y-34929523D01*
X163573333Y-35024761D01*
X163573333Y-35215238D01*
X163620952Y-35310476D01*
X163668571Y-35358095D01*
X163763809Y-35405714D01*
%TO.C,C5*%
X185687142Y-35786666D02*
X185734761Y-35834285D01*
X185782380Y-35977142D01*
X185782380Y-36072380D01*
X185734761Y-36215238D01*
X185639523Y-36310476D01*
X185544285Y-36358095D01*
X185353809Y-36405714D01*
X185210952Y-36405714D01*
X185020476Y-36358095D01*
X184925238Y-36310476D01*
X184830000Y-36215238D01*
X184782380Y-36072380D01*
X184782380Y-35977142D01*
X184830000Y-35834285D01*
X184877619Y-35786666D01*
X184782380Y-34881904D02*
X184782380Y-35358095D01*
X185258571Y-35405714D01*
X185210952Y-35358095D01*
X185163333Y-35262857D01*
X185163333Y-35024761D01*
X185210952Y-34929523D01*
X185258571Y-34881904D01*
X185353809Y-34834285D01*
X185591904Y-34834285D01*
X185687142Y-34881904D01*
X185734761Y-34929523D01*
X185782380Y-35024761D01*
X185782380Y-35262857D01*
X185734761Y-35358095D01*
X185687142Y-35405714D01*
%TO.C,C4*%
X97422142Y-41501666D02*
X97469761Y-41549285D01*
X97517380Y-41692142D01*
X97517380Y-41787380D01*
X97469761Y-41930238D01*
X97374523Y-42025476D01*
X97279285Y-42073095D01*
X97088809Y-42120714D01*
X96945952Y-42120714D01*
X96755476Y-42073095D01*
X96660238Y-42025476D01*
X96565000Y-41930238D01*
X96517380Y-41787380D01*
X96517380Y-41692142D01*
X96565000Y-41549285D01*
X96612619Y-41501666D01*
X96850714Y-40644523D02*
X97517380Y-40644523D01*
X96469761Y-40882619D02*
X97184047Y-41120714D01*
X97184047Y-40501666D01*
%TO.C,C3*%
X149107142Y-81446666D02*
X149154761Y-81494285D01*
X149202380Y-81637142D01*
X149202380Y-81732380D01*
X149154761Y-81875238D01*
X149059523Y-81970476D01*
X148964285Y-82018095D01*
X148773809Y-82065714D01*
X148630952Y-82065714D01*
X148440476Y-82018095D01*
X148345238Y-81970476D01*
X148250000Y-81875238D01*
X148202380Y-81732380D01*
X148202380Y-81637142D01*
X148250000Y-81494285D01*
X148297619Y-81446666D01*
X148202380Y-81113333D02*
X148202380Y-80494285D01*
X148583333Y-80827619D01*
X148583333Y-80684761D01*
X148630952Y-80589523D01*
X148678571Y-80541904D01*
X148773809Y-80494285D01*
X149011904Y-80494285D01*
X149107142Y-80541904D01*
X149154761Y-80589523D01*
X149202380Y-80684761D01*
X149202380Y-80970476D01*
X149154761Y-81065714D01*
X149107142Y-81113333D01*
%TO.C,C2*%
X150963333Y-91957142D02*
X150915714Y-92004761D01*
X150772857Y-92052380D01*
X150677619Y-92052380D01*
X150534761Y-92004761D01*
X150439523Y-91909523D01*
X150391904Y-91814285D01*
X150344285Y-91623809D01*
X150344285Y-91480952D01*
X150391904Y-91290476D01*
X150439523Y-91195238D01*
X150534761Y-91100000D01*
X150677619Y-91052380D01*
X150772857Y-91052380D01*
X150915714Y-91100000D01*
X150963333Y-91147619D01*
X151344285Y-91147619D02*
X151391904Y-91100000D01*
X151487142Y-91052380D01*
X151725238Y-91052380D01*
X151820476Y-91100000D01*
X151868095Y-91147619D01*
X151915714Y-91242857D01*
X151915714Y-91338095D01*
X151868095Y-91480952D01*
X151296666Y-92052380D01*
X151915714Y-92052380D01*
%TO.C,C1*%
X154773333Y-77032142D02*
X154725714Y-77079761D01*
X154582857Y-77127380D01*
X154487619Y-77127380D01*
X154344761Y-77079761D01*
X154249523Y-76984523D01*
X154201904Y-76889285D01*
X154154285Y-76698809D01*
X154154285Y-76555952D01*
X154201904Y-76365476D01*
X154249523Y-76270238D01*
X154344761Y-76175000D01*
X154487619Y-76127380D01*
X154582857Y-76127380D01*
X154725714Y-76175000D01*
X154773333Y-76222619D01*
X155725714Y-77127380D02*
X155154285Y-77127380D01*
X155440000Y-77127380D02*
X155440000Y-76127380D01*
X155344761Y-76270238D01*
X155249523Y-76365476D01*
X155154285Y-76413095D01*
%TD*%
M02*
