%TF.GenerationSoftware,KiCad,Pcbnew,5.1.7-a382d34a8~88~ubuntu18.04.1*%
%TF.CreationDate,2021-03-18T09:15:53-04:00*%
%TF.ProjectId,HV_DCDC,48565f44-4344-4432-9e6b-696361645f70,rev?*%
%TF.SameCoordinates,Original*%
%TF.FileFunction,Paste,Top*%
%TF.FilePolarity,Positive*%
%FSLAX46Y46*%
G04 Gerber Fmt 4.6, Leading zero omitted, Abs format (unit mm)*
G04 Created by KiCad (PCBNEW 5.1.7-a382d34a8~88~ubuntu18.04.1) date 2021-03-18 09:15:53*
%MOMM*%
%LPD*%
G01*
G04 APERTURE LIST*
%ADD10R,2.750000X3.050000*%
%ADD11R,1.200000X2.200000*%
%ADD12R,3.050000X2.750000*%
%ADD13R,2.200000X1.200000*%
G04 APERTURE END LIST*
%TO.C,R9*%
G36*
G01*
X171929999Y-89980000D02*
X174780001Y-89980000D01*
G75*
G02*
X175030000Y-90229999I0J-249999D01*
G01*
X175030000Y-91130001D01*
G75*
G02*
X174780001Y-91380000I-249999J0D01*
G01*
X171929999Y-91380000D01*
G75*
G02*
X171680000Y-91130001I0J249999D01*
G01*
X171680000Y-90229999D01*
G75*
G02*
X171929999Y-89980000I249999J0D01*
G01*
G37*
G36*
G01*
X171929999Y-83880000D02*
X174780001Y-83880000D01*
G75*
G02*
X175030000Y-84129999I0J-249999D01*
G01*
X175030000Y-85030001D01*
G75*
G02*
X174780001Y-85280000I-249999J0D01*
G01*
X171929999Y-85280000D01*
G75*
G02*
X171680000Y-85030001I0J249999D01*
G01*
X171680000Y-84129999D01*
G75*
G02*
X171929999Y-83880000I249999J0D01*
G01*
G37*
%TD*%
%TO.C,U2*%
G36*
G01*
X151280000Y-82955000D02*
X150980000Y-82955000D01*
G75*
G02*
X150830000Y-82805000I0J150000D01*
G01*
X150830000Y-81155000D01*
G75*
G02*
X150980000Y-81005000I150000J0D01*
G01*
X151280000Y-81005000D01*
G75*
G02*
X151430000Y-81155000I0J-150000D01*
G01*
X151430000Y-82805000D01*
G75*
G02*
X151280000Y-82955000I-150000J0D01*
G01*
G37*
G36*
G01*
X152550000Y-82955000D02*
X152250000Y-82955000D01*
G75*
G02*
X152100000Y-82805000I0J150000D01*
G01*
X152100000Y-81155000D01*
G75*
G02*
X152250000Y-81005000I150000J0D01*
G01*
X152550000Y-81005000D01*
G75*
G02*
X152700000Y-81155000I0J-150000D01*
G01*
X152700000Y-82805000D01*
G75*
G02*
X152550000Y-82955000I-150000J0D01*
G01*
G37*
G36*
G01*
X153820000Y-82955000D02*
X153520000Y-82955000D01*
G75*
G02*
X153370000Y-82805000I0J150000D01*
G01*
X153370000Y-81155000D01*
G75*
G02*
X153520000Y-81005000I150000J0D01*
G01*
X153820000Y-81005000D01*
G75*
G02*
X153970000Y-81155000I0J-150000D01*
G01*
X153970000Y-82805000D01*
G75*
G02*
X153820000Y-82955000I-150000J0D01*
G01*
G37*
G36*
G01*
X155090000Y-82955000D02*
X154790000Y-82955000D01*
G75*
G02*
X154640000Y-82805000I0J150000D01*
G01*
X154640000Y-81155000D01*
G75*
G02*
X154790000Y-81005000I150000J0D01*
G01*
X155090000Y-81005000D01*
G75*
G02*
X155240000Y-81155000I0J-150000D01*
G01*
X155240000Y-82805000D01*
G75*
G02*
X155090000Y-82955000I-150000J0D01*
G01*
G37*
G36*
G01*
X155090000Y-87905000D02*
X154790000Y-87905000D01*
G75*
G02*
X154640000Y-87755000I0J150000D01*
G01*
X154640000Y-86105000D01*
G75*
G02*
X154790000Y-85955000I150000J0D01*
G01*
X155090000Y-85955000D01*
G75*
G02*
X155240000Y-86105000I0J-150000D01*
G01*
X155240000Y-87755000D01*
G75*
G02*
X155090000Y-87905000I-150000J0D01*
G01*
G37*
G36*
G01*
X153820000Y-87905000D02*
X153520000Y-87905000D01*
G75*
G02*
X153370000Y-87755000I0J150000D01*
G01*
X153370000Y-86105000D01*
G75*
G02*
X153520000Y-85955000I150000J0D01*
G01*
X153820000Y-85955000D01*
G75*
G02*
X153970000Y-86105000I0J-150000D01*
G01*
X153970000Y-87755000D01*
G75*
G02*
X153820000Y-87905000I-150000J0D01*
G01*
G37*
G36*
G01*
X152550000Y-87905000D02*
X152250000Y-87905000D01*
G75*
G02*
X152100000Y-87755000I0J150000D01*
G01*
X152100000Y-86105000D01*
G75*
G02*
X152250000Y-85955000I150000J0D01*
G01*
X152550000Y-85955000D01*
G75*
G02*
X152700000Y-86105000I0J-150000D01*
G01*
X152700000Y-87755000D01*
G75*
G02*
X152550000Y-87905000I-150000J0D01*
G01*
G37*
G36*
G01*
X151280000Y-87905000D02*
X150980000Y-87905000D01*
G75*
G02*
X150830000Y-87755000I0J150000D01*
G01*
X150830000Y-86105000D01*
G75*
G02*
X150980000Y-85955000I150000J0D01*
G01*
X151280000Y-85955000D01*
G75*
G02*
X151430000Y-86105000I0J-150000D01*
G01*
X151430000Y-87755000D01*
G75*
G02*
X151280000Y-87905000I-150000J0D01*
G01*
G37*
%TD*%
%TO.C,R6*%
G36*
G01*
X164620001Y-93535000D02*
X161769999Y-93535000D01*
G75*
G02*
X161520000Y-93285001I0J249999D01*
G01*
X161520000Y-92384999D01*
G75*
G02*
X161769999Y-92135000I249999J0D01*
G01*
X164620001Y-92135000D01*
G75*
G02*
X164870000Y-92384999I0J-249999D01*
G01*
X164870000Y-93285001D01*
G75*
G02*
X164620001Y-93535000I-249999J0D01*
G01*
G37*
G36*
G01*
X164620001Y-99635000D02*
X161769999Y-99635000D01*
G75*
G02*
X161520000Y-99385001I0J249999D01*
G01*
X161520000Y-98484999D01*
G75*
G02*
X161769999Y-98235000I249999J0D01*
G01*
X164620001Y-98235000D01*
G75*
G02*
X164870000Y-98484999I0J-249999D01*
G01*
X164870000Y-99385001D01*
G75*
G02*
X164620001Y-99635000I-249999J0D01*
G01*
G37*
%TD*%
%TO.C,R5*%
G36*
G01*
X154515000Y-89932500D02*
X154515000Y-90407500D01*
G75*
G02*
X154277500Y-90645000I-237500J0D01*
G01*
X153777500Y-90645000D01*
G75*
G02*
X153540000Y-90407500I0J237500D01*
G01*
X153540000Y-89932500D01*
G75*
G02*
X153777500Y-89695000I237500J0D01*
G01*
X154277500Y-89695000D01*
G75*
G02*
X154515000Y-89932500I0J-237500D01*
G01*
G37*
G36*
G01*
X156340000Y-89932500D02*
X156340000Y-90407500D01*
G75*
G02*
X156102500Y-90645000I-237500J0D01*
G01*
X155602500Y-90645000D01*
G75*
G02*
X155365000Y-90407500I0J237500D01*
G01*
X155365000Y-89932500D01*
G75*
G02*
X155602500Y-89695000I237500J0D01*
G01*
X156102500Y-89695000D01*
G75*
G02*
X156340000Y-89932500I0J-237500D01*
G01*
G37*
%TD*%
%TO.C,R4*%
G36*
G01*
X147082500Y-85515000D02*
X147557500Y-85515000D01*
G75*
G02*
X147795000Y-85752500I0J-237500D01*
G01*
X147795000Y-86252500D01*
G75*
G02*
X147557500Y-86490000I-237500J0D01*
G01*
X147082500Y-86490000D01*
G75*
G02*
X146845000Y-86252500I0J237500D01*
G01*
X146845000Y-85752500D01*
G75*
G02*
X147082500Y-85515000I237500J0D01*
G01*
G37*
G36*
G01*
X147082500Y-83690000D02*
X147557500Y-83690000D01*
G75*
G02*
X147795000Y-83927500I0J-237500D01*
G01*
X147795000Y-84427500D01*
G75*
G02*
X147557500Y-84665000I-237500J0D01*
G01*
X147082500Y-84665000D01*
G75*
G02*
X146845000Y-84427500I0J237500D01*
G01*
X146845000Y-83927500D01*
G75*
G02*
X147082500Y-83690000I237500J0D01*
G01*
G37*
%TD*%
%TO.C,R3*%
G36*
G01*
X151555000Y-78342500D02*
X151555000Y-77867500D01*
G75*
G02*
X151792500Y-77630000I237500J0D01*
G01*
X152292500Y-77630000D01*
G75*
G02*
X152530000Y-77867500I0J-237500D01*
G01*
X152530000Y-78342500D01*
G75*
G02*
X152292500Y-78580000I-237500J0D01*
G01*
X151792500Y-78580000D01*
G75*
G02*
X151555000Y-78342500I0J237500D01*
G01*
G37*
G36*
G01*
X149730000Y-78342500D02*
X149730000Y-77867500D01*
G75*
G02*
X149967500Y-77630000I237500J0D01*
G01*
X150467500Y-77630000D01*
G75*
G02*
X150705000Y-77867500I0J-237500D01*
G01*
X150705000Y-78342500D01*
G75*
G02*
X150467500Y-78580000I-237500J0D01*
G01*
X149967500Y-78580000D01*
G75*
G02*
X149730000Y-78342500I0J237500D01*
G01*
G37*
%TD*%
D10*
%TO.C,Q2*%
X163450000Y-82550000D03*
X160400000Y-79200000D03*
X160400000Y-82550000D03*
X163450000Y-79200000D03*
D11*
X164205000Y-87175000D03*
X161925000Y-87175000D03*
X159645000Y-87175000D03*
%TD*%
D12*
%TO.C,Q1*%
X150900000Y-94995000D03*
X147550000Y-98045000D03*
X150900000Y-98045000D03*
X147550000Y-94995000D03*
D13*
X155525000Y-94240000D03*
X155525000Y-96520000D03*
X155525000Y-98800000D03*
%TD*%
%TO.C,C3*%
G36*
G01*
X147082500Y-81605000D02*
X147557500Y-81605000D01*
G75*
G02*
X147795000Y-81842500I0J-237500D01*
G01*
X147795000Y-82442500D01*
G75*
G02*
X147557500Y-82680000I-237500J0D01*
G01*
X147082500Y-82680000D01*
G75*
G02*
X146845000Y-82442500I0J237500D01*
G01*
X146845000Y-81842500D01*
G75*
G02*
X147082500Y-81605000I237500J0D01*
G01*
G37*
G36*
G01*
X147082500Y-79880000D02*
X147557500Y-79880000D01*
G75*
G02*
X147795000Y-80117500I0J-237500D01*
G01*
X147795000Y-80717500D01*
G75*
G02*
X147557500Y-80955000I-237500J0D01*
G01*
X147082500Y-80955000D01*
G75*
G02*
X146845000Y-80717500I0J237500D01*
G01*
X146845000Y-80117500D01*
G75*
G02*
X147082500Y-79880000I237500J0D01*
G01*
G37*
%TD*%
%TO.C,C2*%
G36*
G01*
X150805000Y-89932500D02*
X150805000Y-90407500D01*
G75*
G02*
X150567500Y-90645000I-237500J0D01*
G01*
X149967500Y-90645000D01*
G75*
G02*
X149730000Y-90407500I0J237500D01*
G01*
X149730000Y-89932500D01*
G75*
G02*
X149967500Y-89695000I237500J0D01*
G01*
X150567500Y-89695000D01*
G75*
G02*
X150805000Y-89932500I0J-237500D01*
G01*
G37*
G36*
G01*
X152530000Y-89932500D02*
X152530000Y-90407500D01*
G75*
G02*
X152292500Y-90645000I-237500J0D01*
G01*
X151692500Y-90645000D01*
G75*
G02*
X151455000Y-90407500I0J237500D01*
G01*
X151455000Y-89932500D01*
G75*
G02*
X151692500Y-89695000I237500J0D01*
G01*
X152292500Y-89695000D01*
G75*
G02*
X152530000Y-89932500I0J-237500D01*
G01*
G37*
%TD*%
%TO.C,C1*%
G36*
G01*
X155265000Y-78342500D02*
X155265000Y-77867500D01*
G75*
G02*
X155502500Y-77630000I237500J0D01*
G01*
X156102500Y-77630000D01*
G75*
G02*
X156340000Y-77867500I0J-237500D01*
G01*
X156340000Y-78342500D01*
G75*
G02*
X156102500Y-78580000I-237500J0D01*
G01*
X155502500Y-78580000D01*
G75*
G02*
X155265000Y-78342500I0J237500D01*
G01*
G37*
G36*
G01*
X153540000Y-78342500D02*
X153540000Y-77867500D01*
G75*
G02*
X153777500Y-77630000I237500J0D01*
G01*
X154377500Y-77630000D01*
G75*
G02*
X154615000Y-77867500I0J-237500D01*
G01*
X154615000Y-78342500D01*
G75*
G02*
X154377500Y-78580000I-237500J0D01*
G01*
X153777500Y-78580000D01*
G75*
G02*
X153540000Y-78342500I0J237500D01*
G01*
G37*
%TD*%
M02*
