M48
; DRILL file {KiCad 5.1.7-a382d34a8~88~ubuntu18.04.1} date Thu Mar 18 09:15:47 2021
; FORMAT={-:-/ absolute / metric / decimal}
; #@! TF.CreationDate,2021-03-18T09:15:47-04:00
; #@! TF.GenerationSoftware,Kicad,Pcbnew,5.1.7-a382d34a8~88~ubuntu18.04.1
FMAT,2
METRIC
T1C0.400
T2C0.750
T3C0.800
T4C1.200
T5C1.300
T6C1.400
T7C1.750
T8C1.800
T9C1.600
T10C2.000
T11C2.700
T12C3.180
T13C3.200
%
G90
G05
T1
X149.225Y-81.915
X154.305Y-85.09
T2
X155.195Y-116.84
X157.195Y-116.84
X159.195Y-116.84
X161.195Y-116.84
X163.195Y-116.84
X136.145Y-116.84
X138.145Y-116.84
X140.145Y-116.84
X142.145Y-116.84
X144.145Y-116.84
T3
X195.58Y-55.88
X195.58Y-60.88
T4
X116.205Y-80.645
X116.205Y-111.125
X195.58Y-31.87
X195.58Y-39.37
X173.99Y-31.87
X173.99Y-39.37
X88.9Y-59.055
X88.9Y-114.935
X132.08Y-33.02
X132.08Y-36.02
X132.08Y-39.02
X132.08Y-42.02
X132.08Y-47.02
X132.08Y-55.02
X156.08Y-33.02
X156.08Y-40.02
X156.08Y-43.02
X156.08Y-46.02
X176.53Y-54.73
X176.53Y-62.23
X107.315Y-37.585
X107.315Y-45.085
X76.835Y-29.21
X76.835Y-85.09
T5
X104.14Y-68.94
X104.14Y-91.44
T6
X104.12Y-59.055
X108.26Y-59.055
X112.4Y-59.055
X89.535Y-31.115
X89.535Y-35.255
X89.535Y-39.395
T7
X183.325Y-88.17
X183.325Y-92.17
X183.325Y-96.17
X183.325Y-100.17
X183.325Y-104.17
X187.325Y-90.17
X187.325Y-94.17
X187.325Y-98.17
X187.325Y-102.17
X191.325Y-88.17
X191.325Y-92.17
X191.325Y-96.17
X191.325Y-100.17
X191.325Y-104.17
T8
X76.835Y-95.885
X101.6Y-113.665
T9
X75.335Y-99.135
X103.1Y-110.415
T10
X176.525Y-78.47
X176.525Y-113.87
X194.625Y-76.97
X194.625Y-115.37
T11
X104.14Y-80.19
T12
X116.84Y-59.055
X89.535Y-43.835
T13
X142.24Y-71.12
X124.46Y-116.205
T0
M30
