M48
; DRILL file {KiCad 5.1.7-a382d34a8~88~ubuntu18.04.1} date Thu Feb 25 09:38:46 2021
; FORMAT={-:-/ absolute / metric / decimal}
; #@! TF.CreationDate,2021-02-25T09:38:46-05:00
; #@! TF.GenerationSoftware,Kicad,Pcbnew,5.1.7-a382d34a8~88~ubuntu18.04.1
FMAT,2
METRIC
T1C0.200
T2C0.800
T3C0.900
T4C0.950
T5C1.000
T6C1.200
T7C2.500
T8C3.200
%
G90
G05
T1
X116.586Y-108.966
X117.348Y-108.204
X123.088Y-111.557
X126.863Y-110.31
X127.508Y-106.172
X127.508Y-107.696
X127.664Y-108.801
X127.762Y-102.108
X127.762Y-106.934
X128.27Y-105.156
X128.353Y-107.44
X129.159Y-110.236
X129.54Y-101.473
X130.174Y-101.315
X130.302Y-109.728
X130.714Y-113.946
X130.835Y-101.19
X130.97Y-114.554
X131.064Y-109.728
X131.753Y-101.324
X131.826Y-109.728
X133.921Y-102.362
X135.509Y-104.267
X136.652Y-104.394
X136.652Y-111.506
X136.652Y-112.776
X137.414Y-104.394
X138.176Y-104.394
X138.43Y-100.584
X138.43Y-106.934
X138.43Y-112.776
X138.938Y-100.076
X139.446Y-99.568
X139.954Y-99.06
X141.884Y-107.544
X142.24Y-103.378
X142.24Y-106.426
X142.24Y-112.522
X142.545Y-108.204
X143.469Y-106.935
X143.51Y-112.522
X144.272Y-103.378
X146.304Y-114.046
X146.812Y-109.984
X146.92Y-110.781
X147.32Y-112.776
X147.574Y-107.95
X148.082Y-110.49
X148.59Y-106.934
X149.565Y-110.185
X150.114Y-105.156
X158.877Y-103.251
X159.067Y-105.727
X164.338Y-106.172
T2
X165.1Y-81.09
X167.64Y-78.549
X170.18Y-81.09
T3
X133.985Y-91.504
X135.255Y-91.504
X136.525Y-91.504
X137.795Y-91.504
X121.221Y-91.504
X122.491Y-91.504
X123.761Y-91.504
X125.031Y-91.504
X163.195Y-91.948
X164.465Y-91.948
X165.735Y-91.948
X167.005Y-91.948
X146.621Y-91.567
X147.891Y-91.567
X149.161Y-91.567
X150.431Y-91.567
T4
X183.896Y-98.552
X183.896Y-101.052
X183.896Y-103.552
X183.896Y-106.052
T5
X189.712Y-60.378
X189.712Y-65.459
X192.251Y-57.838
X192.251Y-60.378
X192.251Y-65.459
X192.251Y-67.998
X118.364Y-101.64
X118.364Y-104.14
X112.268Y-111.506
X112.268Y-114.046
X114.808Y-111.506
X114.808Y-114.046
X117.348Y-111.506
X117.348Y-114.046
X167.005Y-114.109
X169.545Y-114.109
X172.085Y-114.109
T6
X119.951Y-84.519
X122.486Y-84.516
X125.031Y-84.519
X127.572Y-84.519
X130.112Y-84.519
X132.651Y-84.519
X135.191Y-84.519
X137.731Y-84.519
X140.272Y-84.519
X142.811Y-84.519
X145.351Y-84.519
X147.891Y-84.519
X150.431Y-84.519
X152.971Y-84.519
X155.506Y-84.516
X158.052Y-84.519
T7
X112.251Y-46.518
X113.751Y-82.519
X189.751Y-82.519
X191.251Y-46.518
T8
X113.03Y-92.075
X182.308Y-91.123
T0
M30
