%TF.GenerationSoftware,KiCad,Pcbnew,5.1.7-a382d34a8~88~ubuntu18.04.1*%
%TF.CreationDate,2021-02-25T09:30:43-05:00*%
%TF.ProjectId,DaqBoard,44617142-6f61-4726-942e-6b696361645f,rev?*%
%TF.SameCoordinates,Original*%
%TF.FileFunction,Soldermask,Top*%
%TF.FilePolarity,Negative*%
%FSLAX46Y46*%
G04 Gerber Fmt 4.6, Leading zero omitted, Abs format (unit mm)*
G04 Created by KiCad (PCBNEW 5.1.7-a382d34a8~88~ubuntu18.04.1) date 2021-02-25 09:30:43*
%MOMM*%
%LPD*%
G01*
G04 APERTURE LIST*
%ADD10R,1.600000X0.550000*%
%ADD11R,0.550000X1.600000*%
%ADD12C,1.500000*%
%ADD13R,1.500000X1.500000*%
%ADD14C,3.650000*%
%ADD15C,2.625000*%
%ADD16R,2.625000X2.625000*%
%ADD17C,2.850000*%
%ADD18R,3.200000X0.400000*%
%ADD19O,2.300000X1.500000*%
%ADD20R,2.300000X1.500000*%
%ADD21C,0.100000*%
%ADD22O,1.700000X1.700000*%
%ADD23R,1.700000X1.700000*%
G04 APERTURE END LIST*
D10*
%TO.C,U1*%
X122292000Y-92137000D03*
X122292000Y-92937000D03*
X122292000Y-93737000D03*
X122292000Y-94537000D03*
X122292000Y-95337000D03*
X122292000Y-96137000D03*
X122292000Y-96937000D03*
X122292000Y-97737000D03*
D11*
X120842000Y-99187000D03*
X120042000Y-99187000D03*
X119242000Y-99187000D03*
X118442000Y-99187000D03*
X117642000Y-99187000D03*
X116842000Y-99187000D03*
X116042000Y-99187000D03*
X115242000Y-99187000D03*
D10*
X113792000Y-97737000D03*
X113792000Y-96937000D03*
X113792000Y-96137000D03*
X113792000Y-95337000D03*
X113792000Y-94537000D03*
X113792000Y-93737000D03*
X113792000Y-92937000D03*
X113792000Y-92137000D03*
D11*
X115242000Y-90687000D03*
X116042000Y-90687000D03*
X116842000Y-90687000D03*
X117642000Y-90687000D03*
X118442000Y-90687000D03*
X119242000Y-90687000D03*
X120042000Y-90687000D03*
X120842000Y-90687000D03*
%TD*%
D12*
%TO.C,J4*%
X144208500Y-93408500D03*
X146748500Y-94678500D03*
X144208500Y-95948500D03*
X146748500Y-97218500D03*
X144208500Y-98488500D03*
X146748500Y-99758500D03*
X144208500Y-101028500D03*
D13*
X146748500Y-102298500D03*
D14*
X153098500Y-103568500D03*
X153098500Y-92138500D03*
%TD*%
%TO.C,R4*%
G36*
G01*
X127118100Y-101413500D02*
X127593100Y-101413500D01*
G75*
G02*
X127830600Y-101651000I0J-237500D01*
G01*
X127830600Y-102151000D01*
G75*
G02*
X127593100Y-102388500I-237500J0D01*
G01*
X127118100Y-102388500D01*
G75*
G02*
X126880600Y-102151000I0J237500D01*
G01*
X126880600Y-101651000D01*
G75*
G02*
X127118100Y-101413500I237500J0D01*
G01*
G37*
G36*
G01*
X127118100Y-99588500D02*
X127593100Y-99588500D01*
G75*
G02*
X127830600Y-99826000I0J-237500D01*
G01*
X127830600Y-100326000D01*
G75*
G02*
X127593100Y-100563500I-237500J0D01*
G01*
X127118100Y-100563500D01*
G75*
G02*
X126880600Y-100326000I0J237500D01*
G01*
X126880600Y-99826000D01*
G75*
G02*
X127118100Y-99588500I237500J0D01*
G01*
G37*
%TD*%
D15*
%TO.C,J5*%
X132210000Y-81025000D03*
X136210000Y-81025000D03*
X140210000Y-81025000D03*
X144210000Y-81025000D03*
X148210000Y-81025000D03*
X152210000Y-81025000D03*
X134210000Y-77025000D03*
X138210000Y-77025000D03*
X142210000Y-77025000D03*
X146210000Y-77025000D03*
X150210000Y-77025000D03*
X132210000Y-73025000D03*
X136210000Y-73025000D03*
X140210000Y-73025000D03*
X144210000Y-73025000D03*
X148210000Y-73025000D03*
X152210000Y-73025000D03*
X128210000Y-81025000D03*
X156210000Y-81025000D03*
X130210000Y-77025000D03*
X154210000Y-77025000D03*
X128210000Y-73025000D03*
D16*
X156210000Y-73025000D03*
D17*
X121710000Y-77525000D03*
X162710000Y-77525000D03*
%TD*%
D14*
%TO.C,J1*%
X162610800Y-92151200D03*
X162610800Y-103581200D03*
D13*
X168960800Y-102311200D03*
D12*
X171500800Y-101041200D03*
X168960800Y-99771200D03*
X171500800Y-98501200D03*
X168960800Y-97231200D03*
X171500800Y-95961200D03*
X168960800Y-94691200D03*
X171500800Y-93421200D03*
%TD*%
D18*
%TO.C,Y1*%
X128397000Y-109277000D03*
X128397000Y-108077000D03*
X128397000Y-106877000D03*
%TD*%
D19*
%TO.C,U2*%
X139700000Y-102235000D03*
X139700000Y-104775000D03*
D20*
X139700000Y-107315000D03*
%TD*%
%TO.C,R2*%
G36*
G01*
X143847000Y-107001300D02*
X143847000Y-107476300D01*
G75*
G02*
X143609500Y-107713800I-237500J0D01*
G01*
X143109500Y-107713800D01*
G75*
G02*
X142872000Y-107476300I0J237500D01*
G01*
X142872000Y-107001300D01*
G75*
G02*
X143109500Y-106763800I237500J0D01*
G01*
X143609500Y-106763800D01*
G75*
G02*
X143847000Y-107001300I0J-237500D01*
G01*
G37*
G36*
G01*
X145672000Y-107001300D02*
X145672000Y-107476300D01*
G75*
G02*
X145434500Y-107713800I-237500J0D01*
G01*
X144934500Y-107713800D01*
G75*
G02*
X144697000Y-107476300I0J237500D01*
G01*
X144697000Y-107001300D01*
G75*
G02*
X144934500Y-106763800I237500J0D01*
G01*
X145434500Y-106763800D01*
G75*
G02*
X145672000Y-107001300I0J-237500D01*
G01*
G37*
%TD*%
%TO.C,R1*%
G36*
G01*
X125840500Y-90483500D02*
X125365500Y-90483500D01*
G75*
G02*
X125128000Y-90246000I0J237500D01*
G01*
X125128000Y-89746000D01*
G75*
G02*
X125365500Y-89508500I237500J0D01*
G01*
X125840500Y-89508500D01*
G75*
G02*
X126078000Y-89746000I0J-237500D01*
G01*
X126078000Y-90246000D01*
G75*
G02*
X125840500Y-90483500I-237500J0D01*
G01*
G37*
G36*
G01*
X125840500Y-92308500D02*
X125365500Y-92308500D01*
G75*
G02*
X125128000Y-92071000I0J237500D01*
G01*
X125128000Y-91571000D01*
G75*
G02*
X125365500Y-91333500I237500J0D01*
G01*
X125840500Y-91333500D01*
G75*
G02*
X126078000Y-91571000I0J-237500D01*
G01*
X126078000Y-92071000D01*
G75*
G02*
X125840500Y-92308500I-237500J0D01*
G01*
G37*
%TD*%
D21*
%TO.C,Q2*%
G36*
X136773345Y-89086344D02*
G01*
X136777328Y-89073212D01*
X136783797Y-89061110D01*
X136792503Y-89050503D01*
X136803110Y-89041797D01*
X136815212Y-89035328D01*
X136828344Y-89031345D01*
X136842000Y-89030000D01*
X141542000Y-89030000D01*
X141555656Y-89031345D01*
X141568788Y-89035328D01*
X141580890Y-89041797D01*
X141591497Y-89050503D01*
X141600203Y-89061110D01*
X141606672Y-89073212D01*
X141610655Y-89086344D01*
X141612000Y-89100000D01*
X141612000Y-90650000D01*
X141610655Y-90663656D01*
X141606672Y-90676788D01*
X141600203Y-90688890D01*
X141591497Y-90699497D01*
X141580890Y-90708203D01*
X141568788Y-90714672D01*
X141555656Y-90718655D01*
X141542000Y-90720000D01*
X141362000Y-90720000D01*
X141362000Y-93725000D01*
X141360655Y-93738656D01*
X141356672Y-93751788D01*
X141350203Y-93763890D01*
X141341497Y-93774497D01*
X141330890Y-93783203D01*
X141318788Y-93789672D01*
X141305656Y-93793655D01*
X141292000Y-93795000D01*
X137092000Y-93795000D01*
X137078344Y-93793655D01*
X137065212Y-93789672D01*
X137053110Y-93783203D01*
X137042503Y-93774497D01*
X137033797Y-93763890D01*
X137027328Y-93751788D01*
X137023345Y-93738656D01*
X137022000Y-93725000D01*
X137022000Y-90720000D01*
X136842000Y-90720000D01*
X136828344Y-90718655D01*
X136815212Y-90714672D01*
X136803110Y-90708203D01*
X136792503Y-90699497D01*
X136783797Y-90688890D01*
X136777328Y-90676788D01*
X136773345Y-90663656D01*
X136772000Y-90650000D01*
X136772000Y-89100000D01*
X136773345Y-89086344D01*
G37*
G36*
G01*
X140682000Y-95920000D02*
X140682000Y-94770000D01*
G75*
G02*
X140752000Y-94700000I70000J0D01*
G01*
X141452000Y-94700000D01*
G75*
G02*
X141522000Y-94770000I0J-70000D01*
G01*
X141522000Y-95920000D01*
G75*
G02*
X141452000Y-95990000I-70000J0D01*
G01*
X140752000Y-95990000D01*
G75*
G02*
X140682000Y-95920000I0J70000D01*
G01*
G37*
G36*
G01*
X139412000Y-95920000D02*
X139412000Y-94770000D01*
G75*
G02*
X139482000Y-94700000I70000J0D01*
G01*
X140182000Y-94700000D01*
G75*
G02*
X140252000Y-94770000I0J-70000D01*
G01*
X140252000Y-95920000D01*
G75*
G02*
X140182000Y-95990000I-70000J0D01*
G01*
X139482000Y-95990000D01*
G75*
G02*
X139412000Y-95920000I0J70000D01*
G01*
G37*
G36*
G01*
X136862000Y-95920000D02*
X136862000Y-94770000D01*
G75*
G02*
X136932000Y-94700000I70000J0D01*
G01*
X137632000Y-94700000D01*
G75*
G02*
X137702000Y-94770000I0J-70000D01*
G01*
X137702000Y-95920000D01*
G75*
G02*
X137632000Y-95990000I-70000J0D01*
G01*
X136932000Y-95990000D01*
G75*
G02*
X136862000Y-95920000I0J70000D01*
G01*
G37*
G36*
G01*
X138132000Y-95920000D02*
X138132000Y-94770000D01*
G75*
G02*
X138202000Y-94700000I70000J0D01*
G01*
X138902000Y-94700000D01*
G75*
G02*
X138972000Y-94770000I0J-70000D01*
G01*
X138972000Y-95920000D01*
G75*
G02*
X138902000Y-95990000I-70000J0D01*
G01*
X138202000Y-95990000D01*
G75*
G02*
X138132000Y-95920000I0J70000D01*
G01*
G37*
%TD*%
%TO.C,Q1*%
G36*
X134687656Y-87624345D02*
G01*
X134700788Y-87628328D01*
X134712890Y-87634797D01*
X134723497Y-87643503D01*
X134732203Y-87654110D01*
X134738672Y-87666212D01*
X134742655Y-87679344D01*
X134744000Y-87693000D01*
X134744000Y-92393000D01*
X134742655Y-92406656D01*
X134738672Y-92419788D01*
X134732203Y-92431890D01*
X134723497Y-92442497D01*
X134712890Y-92451203D01*
X134700788Y-92457672D01*
X134687656Y-92461655D01*
X134674000Y-92463000D01*
X133124000Y-92463000D01*
X133110344Y-92461655D01*
X133097212Y-92457672D01*
X133085110Y-92451203D01*
X133074503Y-92442497D01*
X133065797Y-92431890D01*
X133059328Y-92419788D01*
X133055345Y-92406656D01*
X133054000Y-92393000D01*
X133054000Y-92213000D01*
X130049000Y-92213000D01*
X130035344Y-92211655D01*
X130022212Y-92207672D01*
X130010110Y-92201203D01*
X129999503Y-92192497D01*
X129990797Y-92181890D01*
X129984328Y-92169788D01*
X129980345Y-92156656D01*
X129979000Y-92143000D01*
X129979000Y-87943000D01*
X129980345Y-87929344D01*
X129984328Y-87916212D01*
X129990797Y-87904110D01*
X129999503Y-87893503D01*
X130010110Y-87884797D01*
X130022212Y-87878328D01*
X130035344Y-87874345D01*
X130049000Y-87873000D01*
X133054000Y-87873000D01*
X133054000Y-87693000D01*
X133055345Y-87679344D01*
X133059328Y-87666212D01*
X133065797Y-87654110D01*
X133074503Y-87643503D01*
X133085110Y-87634797D01*
X133097212Y-87628328D01*
X133110344Y-87624345D01*
X133124000Y-87623000D01*
X134674000Y-87623000D01*
X134687656Y-87624345D01*
G37*
G36*
G01*
X127854000Y-91533000D02*
X129004000Y-91533000D01*
G75*
G02*
X129074000Y-91603000I0J-70000D01*
G01*
X129074000Y-92303000D01*
G75*
G02*
X129004000Y-92373000I-70000J0D01*
G01*
X127854000Y-92373000D01*
G75*
G02*
X127784000Y-92303000I0J70000D01*
G01*
X127784000Y-91603000D01*
G75*
G02*
X127854000Y-91533000I70000J0D01*
G01*
G37*
G36*
G01*
X127854000Y-90263000D02*
X129004000Y-90263000D01*
G75*
G02*
X129074000Y-90333000I0J-70000D01*
G01*
X129074000Y-91033000D01*
G75*
G02*
X129004000Y-91103000I-70000J0D01*
G01*
X127854000Y-91103000D01*
G75*
G02*
X127784000Y-91033000I0J70000D01*
G01*
X127784000Y-90333000D01*
G75*
G02*
X127854000Y-90263000I70000J0D01*
G01*
G37*
G36*
G01*
X127854000Y-87713000D02*
X129004000Y-87713000D01*
G75*
G02*
X129074000Y-87783000I0J-70000D01*
G01*
X129074000Y-88483000D01*
G75*
G02*
X129004000Y-88553000I-70000J0D01*
G01*
X127854000Y-88553000D01*
G75*
G02*
X127784000Y-88483000I0J70000D01*
G01*
X127784000Y-87783000D01*
G75*
G02*
X127854000Y-87713000I70000J0D01*
G01*
G37*
G36*
G01*
X127854000Y-88983000D02*
X129004000Y-88983000D01*
G75*
G02*
X129074000Y-89053000I0J-70000D01*
G01*
X129074000Y-89753000D01*
G75*
G02*
X129004000Y-89823000I-70000J0D01*
G01*
X127854000Y-89823000D01*
G75*
G02*
X127784000Y-89753000I0J70000D01*
G01*
X127784000Y-89053000D01*
G75*
G02*
X127854000Y-88983000I70000J0D01*
G01*
G37*
%TD*%
D22*
%TO.C,J3*%
X118237000Y-108458000D03*
X115697000Y-108458000D03*
X118237000Y-105918000D03*
X115697000Y-105918000D03*
X118237000Y-103378000D03*
D23*
X115697000Y-103378000D03*
%TD*%
D22*
%TO.C,J2*%
X145923000Y-85852000D03*
D23*
X143383000Y-85852000D03*
%TD*%
%TO.C,D1*%
G36*
G01*
X144684200Y-109889300D02*
X144684200Y-109414300D01*
G75*
G02*
X144921700Y-109176800I237500J0D01*
G01*
X145496700Y-109176800D01*
G75*
G02*
X145734200Y-109414300I0J-237500D01*
G01*
X145734200Y-109889300D01*
G75*
G02*
X145496700Y-110126800I-237500J0D01*
G01*
X144921700Y-110126800D01*
G75*
G02*
X144684200Y-109889300I0J237500D01*
G01*
G37*
G36*
G01*
X142934200Y-109889300D02*
X142934200Y-109414300D01*
G75*
G02*
X143171700Y-109176800I237500J0D01*
G01*
X143746700Y-109176800D01*
G75*
G02*
X143984200Y-109414300I0J-237500D01*
G01*
X143984200Y-109889300D01*
G75*
G02*
X143746700Y-110126800I-237500J0D01*
G01*
X143171700Y-110126800D01*
G75*
G02*
X142934200Y-109889300I0J237500D01*
G01*
G37*
%TD*%
%TO.C,C5*%
G36*
G01*
X128743700Y-101316500D02*
X129218700Y-101316500D01*
G75*
G02*
X129456200Y-101554000I0J-237500D01*
G01*
X129456200Y-102154000D01*
G75*
G02*
X129218700Y-102391500I-237500J0D01*
G01*
X128743700Y-102391500D01*
G75*
G02*
X128506200Y-102154000I0J237500D01*
G01*
X128506200Y-101554000D01*
G75*
G02*
X128743700Y-101316500I237500J0D01*
G01*
G37*
G36*
G01*
X128743700Y-99591500D02*
X129218700Y-99591500D01*
G75*
G02*
X129456200Y-99829000I0J-237500D01*
G01*
X129456200Y-100429000D01*
G75*
G02*
X129218700Y-100666500I-237500J0D01*
G01*
X128743700Y-100666500D01*
G75*
G02*
X128506200Y-100429000I0J237500D01*
G01*
X128506200Y-99829000D01*
G75*
G02*
X128743700Y-99591500I237500J0D01*
G01*
G37*
%TD*%
M02*
