M48
; DRILL file {KiCad 5.1.7-a382d34a8~88~ubuntu18.04.1} date Thu Feb 25 09:30:22 2021
; FORMAT={-:-/ absolute / metric / decimal}
; #@! TF.CreationDate,2021-02-25T09:30:22-05:00
; #@! TF.GenerationSoftware,Kicad,Pcbnew,5.1.7-a382d34a8~88~ubuntu18.04.1
FMAT,2
METRIC
T1C0.400
T2C0.900
T3C1.000
T4C1.750
T5C2.850
T6C3.450
%
G90
G05
T1
X113.792Y-90.424
X113.919Y-82.423
X113.919Y-83.723
X113.919Y-85.12
X115.625Y-93.744
X115.824Y-92.456
X116.459Y-82.423
X116.459Y-83.723
X116.459Y-85.12
X116.842Y-95.248
X118.364Y-93.98
X118.872Y-100.584
X118.999Y-82.423
X118.999Y-83.723
X118.999Y-85.12
X118.999Y-96.393
X120.396Y-96.012
X123.901Y-93.98
X124.443Y-95.433
X124.675Y-96.406
X125.781Y-101.854
X125.801Y-96.383
X126.035Y-100.279
X126.601Y-96.983
X127.063Y-97.98
X128.016Y-98.806
X130.683Y-101.981
X130.81Y-105.156
X131.064Y-107.315
X131.064Y-108.585
X131.318Y-97.028
X132.715Y-97.028
X137.287Y-97.028
X139.192Y-97.028
X141.097Y-96.52
X143.51Y-90.297
X144.78Y-90.297
X146.05Y-90.297
X147.32Y-90.297
T2
X144.208Y-93.408
X144.208Y-95.948
X144.208Y-98.489
X144.208Y-101.028
X146.749Y-94.678
X146.749Y-97.218
X146.749Y-99.758
X146.749Y-102.298
X168.961Y-94.691
X168.961Y-97.231
X168.961Y-99.771
X168.961Y-102.311
X171.501Y-93.421
X171.501Y-95.961
X171.501Y-98.501
X171.501Y-101.041
T3
X115.697Y-103.378
X115.697Y-105.918
X115.697Y-108.458
X118.237Y-103.378
X118.237Y-105.918
X118.237Y-108.458
X139.7Y-102.235
X139.7Y-104.775
X139.7Y-107.315
X143.383Y-85.852
X145.923Y-85.852
T4
X128.21Y-73.025
X128.21Y-81.025
X130.21Y-77.025
X132.21Y-73.025
X132.21Y-81.025
X134.21Y-77.025
X136.21Y-73.025
X136.21Y-81.025
X138.21Y-77.025
X140.21Y-73.025
X140.21Y-81.025
X142.21Y-77.025
X144.21Y-73.025
X144.21Y-81.025
X146.21Y-77.025
X148.21Y-73.025
X148.21Y-81.025
X150.21Y-77.025
X152.21Y-73.025
X152.21Y-81.025
X154.21Y-77.025
X156.21Y-73.025
X156.21Y-81.025
T5
X121.71Y-77.525
X162.71Y-77.525
T6
X153.099Y-92.138
X153.099Y-103.569
X162.611Y-92.151
X162.611Y-103.581
T0
M30
