%TF.GenerationSoftware,KiCad,Pcbnew,5.1.7-a382d34a8~88~ubuntu18.04.1*%
%TF.CreationDate,2021-02-25T09:30:43-05:00*%
%TF.ProjectId,DaqBoard,44617142-6f61-4726-942e-6b696361645f,rev?*%
%TF.SameCoordinates,Original*%
%TF.FileFunction,Legend,Bot*%
%TF.FilePolarity,Positive*%
%FSLAX46Y46*%
G04 Gerber Fmt 4.6, Leading zero omitted, Abs format (unit mm)*
G04 Created by KiCad (PCBNEW 5.1.7-a382d34a8~88~ubuntu18.04.1) date 2021-02-25 09:30:43*
%MOMM*%
%LPD*%
G01*
G04 APERTURE LIST*
%ADD10C,0.120000*%
%ADD11C,0.200000*%
%ADD12C,0.127000*%
%ADD13C,0.150000*%
%ADD14C,0.050000*%
G04 APERTURE END LIST*
D10*
%TO.C,C1*%
X116207000Y-97744233D02*
X116207000Y-98036767D01*
X115187000Y-97744233D02*
X115187000Y-98036767D01*
D11*
%TO.C,J5*%
X156310000Y-70325000D02*
G75*
G03*
X156310000Y-70325000I-100000J0D01*
G01*
D12*
X111810000Y-88825000D02*
X111810000Y-70975000D01*
X172610000Y-70975000D02*
X172610000Y-88825000D01*
X111810000Y-70975000D02*
X172610000Y-70975000D01*
X111810000Y-88825000D02*
X172610000Y-88825000D01*
D10*
%TO.C,J1*%
X172750800Y-90011200D02*
X172750800Y-105731200D01*
X172750800Y-105731200D02*
X156010800Y-105731200D01*
X172750800Y-90001200D02*
X156010800Y-90001200D01*
X156010800Y-90001200D02*
X156010800Y-105731200D01*
%TO.C,U4*%
X134513000Y-92391000D02*
X134513000Y-95841000D01*
X134513000Y-92391000D02*
X134513000Y-90441000D01*
X129393000Y-92391000D02*
X129393000Y-94341000D01*
X129393000Y-92391000D02*
X129393000Y-90441000D01*
%TO.C,U3*%
X132208000Y-99135000D02*
X134023000Y-99135000D01*
X132208000Y-98890000D02*
X132208000Y-99135000D01*
X128348000Y-98890000D02*
X132208000Y-98890000D01*
X124488000Y-98890000D02*
X124488000Y-99135000D01*
X128348000Y-98890000D02*
X124488000Y-98890000D01*
X132208000Y-110660000D02*
X132208000Y-110415000D01*
X128348000Y-110660000D02*
X132208000Y-110660000D01*
X124488000Y-110660000D02*
X124488000Y-110415000D01*
X128348000Y-110660000D02*
X124488000Y-110660000D01*
%TO.C,R5*%
X136731819Y-86467545D02*
X136371585Y-86107311D01*
X137470745Y-85728619D02*
X137110511Y-85368385D01*
%TO.C,R3*%
X141746500Y-98193776D02*
X141746500Y-98703224D01*
X140701500Y-98193776D02*
X140701500Y-98703224D01*
%TO.C,F1*%
X158948748Y-83380000D02*
X161721252Y-83380000D01*
X158948748Y-86800000D02*
X161721252Y-86800000D01*
%TO.C,C6*%
X128141000Y-91993767D02*
X128141000Y-91701233D01*
X129161000Y-91993767D02*
X129161000Y-91701233D01*
%TO.C,C4*%
X136908000Y-102242233D02*
X136908000Y-102534767D01*
X135888000Y-102242233D02*
X135888000Y-102534767D01*
%TO.C,C3*%
X135888000Y-106064267D02*
X135888000Y-105771733D01*
X136908000Y-106064267D02*
X136908000Y-105771733D01*
%TO.C,C2*%
X119791433Y-92708000D02*
X120083967Y-92708000D01*
X119791433Y-93728000D02*
X120083967Y-93728000D01*
%TO.C,C1*%
D13*
X114624142Y-97723833D02*
X114671761Y-97676214D01*
X114719380Y-97533357D01*
X114719380Y-97438119D01*
X114671761Y-97295261D01*
X114576523Y-97200023D01*
X114481285Y-97152404D01*
X114290809Y-97104785D01*
X114147952Y-97104785D01*
X113957476Y-97152404D01*
X113862238Y-97200023D01*
X113767000Y-97295261D01*
X113719380Y-97438119D01*
X113719380Y-97533357D01*
X113767000Y-97676214D01*
X113814619Y-97723833D01*
X114719380Y-98676214D02*
X114719380Y-98104785D01*
X114719380Y-98390500D02*
X113719380Y-98390500D01*
X113862238Y-98295261D01*
X113957476Y-98200023D01*
X114005095Y-98104785D01*
%TO.C,J5*%
D14*
X170139066Y-72892676D02*
X170139066Y-73893533D01*
X170205790Y-74093704D01*
X170339238Y-74227152D01*
X170539409Y-74293876D01*
X170672857Y-74293876D01*
X168804590Y-72892676D02*
X169471828Y-72892676D01*
X169538552Y-73559914D01*
X169471828Y-73493190D01*
X169338380Y-73426466D01*
X169004761Y-73426466D01*
X168871314Y-73493190D01*
X168804590Y-73559914D01*
X168737866Y-73693361D01*
X168737866Y-74026980D01*
X168804590Y-74160428D01*
X168871314Y-74227152D01*
X169004761Y-74293876D01*
X169338380Y-74293876D01*
X169471828Y-74227152D01*
X169538552Y-74160428D01*
X170341594Y-73525789D02*
X170408366Y-73592561D01*
X170608682Y-73659333D01*
X170742225Y-73659333D01*
X170942541Y-73592561D01*
X171076085Y-73459017D01*
X171142857Y-73325473D01*
X171209629Y-73058385D01*
X171209629Y-72858070D01*
X171142857Y-72590982D01*
X171076085Y-72457438D01*
X170942541Y-72323895D01*
X170742225Y-72257123D01*
X170608682Y-72257123D01*
X170408366Y-72323895D01*
X170341594Y-72390666D01*
X169540331Y-73659333D02*
X169673875Y-73592561D01*
X169740647Y-73525789D01*
X169807419Y-73392245D01*
X169807419Y-72991614D01*
X169740647Y-72858070D01*
X169673875Y-72791298D01*
X169540331Y-72724526D01*
X169340015Y-72724526D01*
X169206472Y-72791298D01*
X169139700Y-72858070D01*
X169072928Y-72991614D01*
X169072928Y-73392245D01*
X169139700Y-73525789D01*
X169206472Y-73592561D01*
X169340015Y-73659333D01*
X169540331Y-73659333D01*
X168471981Y-72724526D02*
X168471981Y-73659333D01*
X168471981Y-72858070D02*
X168405209Y-72791298D01*
X168271665Y-72724526D01*
X168071349Y-72724526D01*
X167937805Y-72791298D01*
X167871034Y-72924842D01*
X167871034Y-73659333D01*
X167203315Y-72724526D02*
X167203315Y-73659333D01*
X167203315Y-72858070D02*
X167136543Y-72791298D01*
X167002999Y-72724526D01*
X166802683Y-72724526D01*
X166669139Y-72791298D01*
X166602367Y-72924842D01*
X166602367Y-73659333D01*
X166268508Y-73792876D02*
X165200157Y-73792876D01*
X164599210Y-72257123D02*
X164465666Y-72257123D01*
X164332123Y-72323895D01*
X164265351Y-72390666D01*
X164198579Y-72524210D01*
X164131807Y-72791298D01*
X164131807Y-73125157D01*
X164198579Y-73392245D01*
X164265351Y-73525789D01*
X164332123Y-73592561D01*
X164465666Y-73659333D01*
X164599210Y-73659333D01*
X164732754Y-73592561D01*
X164799526Y-73525789D01*
X164866298Y-73392245D01*
X164933070Y-73125157D01*
X164933070Y-72791298D01*
X164866298Y-72524210D01*
X164799526Y-72390666D01*
X164732754Y-72323895D01*
X164599210Y-72257123D01*
X162796369Y-73659333D02*
X163597632Y-73659333D01*
X163197000Y-73659333D02*
X163197000Y-72257123D01*
X163330544Y-72457438D01*
X163464088Y-72590982D01*
X163597632Y-72657754D01*
X162328965Y-73659333D02*
X161594475Y-72724526D01*
X162328965Y-72724526D02*
X161594475Y-73659333D01*
X161127071Y-72390666D02*
X161060299Y-72323895D01*
X160926755Y-72257123D01*
X160592896Y-72257123D01*
X160459352Y-72323895D01*
X160392580Y-72390666D01*
X160325808Y-72524210D01*
X160325808Y-72657754D01*
X160392580Y-72858070D01*
X161193843Y-73659333D01*
X160325808Y-73659333D01*
X159858405Y-72257123D02*
X158990370Y-72257123D01*
X159457774Y-72791298D01*
X159257458Y-72791298D01*
X159123914Y-72858070D01*
X159057142Y-72924842D01*
X158990370Y-73058385D01*
X158990370Y-73392245D01*
X159057142Y-73525789D01*
X159123914Y-73592561D01*
X159257458Y-73659333D01*
X159658089Y-73659333D01*
X159791633Y-73592561D01*
X159858405Y-73525789D01*
%TO.C,J1*%
D13*
X154413180Y-97527866D02*
X155127466Y-97527866D01*
X155270323Y-97480247D01*
X155365561Y-97385009D01*
X155413180Y-97242152D01*
X155413180Y-97146914D01*
X155413180Y-98527866D02*
X155413180Y-97956438D01*
X155413180Y-98242152D02*
X154413180Y-98242152D01*
X154556038Y-98146914D01*
X154651276Y-98051676D01*
X154698895Y-97956438D01*
%TO.C,U4*%
X134805380Y-91629095D02*
X135614904Y-91629095D01*
X135710142Y-91676714D01*
X135757761Y-91724333D01*
X135805380Y-91819571D01*
X135805380Y-92010047D01*
X135757761Y-92105285D01*
X135710142Y-92152904D01*
X135614904Y-92200523D01*
X134805380Y-92200523D01*
X135138714Y-93105285D02*
X135805380Y-93105285D01*
X134757761Y-92867190D02*
X135472047Y-92629095D01*
X135472047Y-93248142D01*
%TO.C,U3*%
X129109904Y-97507380D02*
X129109904Y-98316904D01*
X129062285Y-98412142D01*
X129014666Y-98459761D01*
X128919428Y-98507380D01*
X128728952Y-98507380D01*
X128633714Y-98459761D01*
X128586095Y-98412142D01*
X128538476Y-98316904D01*
X128538476Y-97507380D01*
X128157523Y-97507380D02*
X127538476Y-97507380D01*
X127871809Y-97888333D01*
X127728952Y-97888333D01*
X127633714Y-97935952D01*
X127586095Y-97983571D01*
X127538476Y-98078809D01*
X127538476Y-98316904D01*
X127586095Y-98412142D01*
X127633714Y-98459761D01*
X127728952Y-98507380D01*
X128014666Y-98507380D01*
X128109904Y-98459761D01*
X128157523Y-98412142D01*
%TO.C,R5*%
X137730297Y-85344534D02*
X138302717Y-85243519D01*
X138134358Y-85748595D02*
X138841465Y-85041489D01*
X138572091Y-84772114D01*
X138471076Y-84738443D01*
X138403732Y-84738443D01*
X138302717Y-84772114D01*
X138201702Y-84873130D01*
X138168030Y-84974145D01*
X138168030Y-85041489D01*
X138201702Y-85142504D01*
X138471076Y-85411878D01*
X137797640Y-83997664D02*
X138134358Y-84334382D01*
X137831312Y-84704771D01*
X137831312Y-84637427D01*
X137797640Y-84536412D01*
X137629282Y-84368053D01*
X137528266Y-84334382D01*
X137460923Y-84334382D01*
X137359908Y-84368053D01*
X137191549Y-84536412D01*
X137157877Y-84637427D01*
X137157877Y-84704771D01*
X137191549Y-84805786D01*
X137359908Y-84974145D01*
X137460923Y-85007817D01*
X137528266Y-85007817D01*
%TO.C,R3*%
X140246380Y-98258333D02*
X139770190Y-97925000D01*
X140246380Y-97686904D02*
X139246380Y-97686904D01*
X139246380Y-98067857D01*
X139294000Y-98163095D01*
X139341619Y-98210714D01*
X139436857Y-98258333D01*
X139579714Y-98258333D01*
X139674952Y-98210714D01*
X139722571Y-98163095D01*
X139770190Y-98067857D01*
X139770190Y-97686904D01*
X139246380Y-98591666D02*
X139246380Y-99210714D01*
X139627333Y-98877380D01*
X139627333Y-99020238D01*
X139674952Y-99115476D01*
X139722571Y-99163095D01*
X139817809Y-99210714D01*
X140055904Y-99210714D01*
X140151142Y-99163095D01*
X140198761Y-99115476D01*
X140246380Y-99020238D01*
X140246380Y-98734523D01*
X140198761Y-98639285D01*
X140151142Y-98591666D01*
%TO.C,F1*%
X160668333Y-87668571D02*
X161001666Y-87668571D01*
X161001666Y-88192380D02*
X161001666Y-87192380D01*
X160525476Y-87192380D01*
X159620714Y-88192380D02*
X160192142Y-88192380D01*
X159906428Y-88192380D02*
X159906428Y-87192380D01*
X160001666Y-87335238D01*
X160096904Y-87430476D01*
X160192142Y-87478095D01*
%TO.C,C6*%
X130438142Y-91680833D02*
X130485761Y-91633214D01*
X130533380Y-91490357D01*
X130533380Y-91395119D01*
X130485761Y-91252261D01*
X130390523Y-91157023D01*
X130295285Y-91109404D01*
X130104809Y-91061785D01*
X129961952Y-91061785D01*
X129771476Y-91109404D01*
X129676238Y-91157023D01*
X129581000Y-91252261D01*
X129533380Y-91395119D01*
X129533380Y-91490357D01*
X129581000Y-91633214D01*
X129628619Y-91680833D01*
X129533380Y-92537976D02*
X129533380Y-92347500D01*
X129581000Y-92252261D01*
X129628619Y-92204642D01*
X129771476Y-92109404D01*
X129961952Y-92061785D01*
X130342904Y-92061785D01*
X130438142Y-92109404D01*
X130485761Y-92157023D01*
X130533380Y-92252261D01*
X130533380Y-92442738D01*
X130485761Y-92537976D01*
X130438142Y-92585595D01*
X130342904Y-92633214D01*
X130104809Y-92633214D01*
X130009571Y-92585595D01*
X129961952Y-92537976D01*
X129914333Y-92442738D01*
X129914333Y-92252261D01*
X129961952Y-92157023D01*
X130009571Y-92109404D01*
X130104809Y-92061785D01*
%TO.C,C4*%
X135485142Y-102195333D02*
X135532761Y-102147714D01*
X135580380Y-102004857D01*
X135580380Y-101909619D01*
X135532761Y-101766761D01*
X135437523Y-101671523D01*
X135342285Y-101623904D01*
X135151809Y-101576285D01*
X135008952Y-101576285D01*
X134818476Y-101623904D01*
X134723238Y-101671523D01*
X134628000Y-101766761D01*
X134580380Y-101909619D01*
X134580380Y-102004857D01*
X134628000Y-102147714D01*
X134675619Y-102195333D01*
X134913714Y-103052476D02*
X135580380Y-103052476D01*
X134532761Y-102814380D02*
X135247047Y-102576285D01*
X135247047Y-103195333D01*
%TO.C,C3*%
X135358142Y-105751333D02*
X135405761Y-105703714D01*
X135453380Y-105560857D01*
X135453380Y-105465619D01*
X135405761Y-105322761D01*
X135310523Y-105227523D01*
X135215285Y-105179904D01*
X135024809Y-105132285D01*
X134881952Y-105132285D01*
X134691476Y-105179904D01*
X134596238Y-105227523D01*
X134501000Y-105322761D01*
X134453380Y-105465619D01*
X134453380Y-105560857D01*
X134501000Y-105703714D01*
X134548619Y-105751333D01*
X134453380Y-106084666D02*
X134453380Y-106703714D01*
X134834333Y-106370380D01*
X134834333Y-106513238D01*
X134881952Y-106608476D01*
X134929571Y-106656095D01*
X135024809Y-106703714D01*
X135262904Y-106703714D01*
X135358142Y-106656095D01*
X135405761Y-106608476D01*
X135453380Y-106513238D01*
X135453380Y-106227523D01*
X135405761Y-106132285D01*
X135358142Y-106084666D01*
%TO.C,C2*%
X120104366Y-95005142D02*
X120151985Y-95052761D01*
X120294842Y-95100380D01*
X120390080Y-95100380D01*
X120532938Y-95052761D01*
X120628176Y-94957523D01*
X120675795Y-94862285D01*
X120723414Y-94671809D01*
X120723414Y-94528952D01*
X120675795Y-94338476D01*
X120628176Y-94243238D01*
X120532938Y-94148000D01*
X120390080Y-94100380D01*
X120294842Y-94100380D01*
X120151985Y-94148000D01*
X120104366Y-94195619D01*
X119723414Y-94195619D02*
X119675795Y-94148000D01*
X119580557Y-94100380D01*
X119342461Y-94100380D01*
X119247223Y-94148000D01*
X119199604Y-94195619D01*
X119151985Y-94290857D01*
X119151985Y-94386095D01*
X119199604Y-94528952D01*
X119771033Y-95100380D01*
X119151985Y-95100380D01*
%TD*%
M02*
