%TF.GenerationSoftware,KiCad,Pcbnew,5.1.7-a382d34a8~88~ubuntu18.04.1*%
%TF.CreationDate,2021-02-25T09:43:27-05:00*%
%TF.ProjectId,TSAL,5453414c-2e6b-4696-9361-645f70636258,rev?*%
%TF.SameCoordinates,Original*%
%TF.FileFunction,Soldermask,Top*%
%TF.FilePolarity,Negative*%
%FSLAX46Y46*%
G04 Gerber Fmt 4.6, Leading zero omitted, Abs format (unit mm)*
G04 Created by KiCad (PCBNEW 5.1.7-a382d34a8~88~ubuntu18.04.1) date 2021-02-25 09:43:27*
%MOMM*%
%LPD*%
G01*
G04 APERTURE LIST*
%ADD10R,1.780000X2.000000*%
%ADD11O,2.400000X2.400000*%
%ADD12C,2.400000*%
%ADD13R,6.400000X5.800000*%
%ADD14R,2.200000X1.200000*%
%ADD15R,5.800000X6.400000*%
%ADD16R,1.200000X2.200000*%
%ADD17C,3.180000*%
%ADD18O,3.300000X2.640000*%
%ADD19C,1.600000*%
%ADD20O,2.800000X2.460000*%
%ADD21C,3.200000*%
G04 APERTURE END LIST*
%TO.C,C3*%
G36*
G01*
X153780500Y-88818000D02*
X153305500Y-88818000D01*
G75*
G02*
X153068000Y-88580500I0J237500D01*
G01*
X153068000Y-88005500D01*
G75*
G02*
X153305500Y-87768000I237500J0D01*
G01*
X153780500Y-87768000D01*
G75*
G02*
X154018000Y-88005500I0J-237500D01*
G01*
X154018000Y-88580500D01*
G75*
G02*
X153780500Y-88818000I-237500J0D01*
G01*
G37*
G36*
G01*
X153780500Y-90568000D02*
X153305500Y-90568000D01*
G75*
G02*
X153068000Y-90330500I0J237500D01*
G01*
X153068000Y-89755500D01*
G75*
G02*
X153305500Y-89518000I237500J0D01*
G01*
X153780500Y-89518000D01*
G75*
G02*
X154018000Y-89755500I0J-237500D01*
G01*
X154018000Y-90330500D01*
G75*
G02*
X153780500Y-90568000I-237500J0D01*
G01*
G37*
%TD*%
%TO.C,U2*%
G36*
G01*
X155725000Y-91780000D02*
X155425000Y-91780000D01*
G75*
G02*
X155275000Y-91630000I0J150000D01*
G01*
X155275000Y-89980000D01*
G75*
G02*
X155425000Y-89830000I150000J0D01*
G01*
X155725000Y-89830000D01*
G75*
G02*
X155875000Y-89980000I0J-150000D01*
G01*
X155875000Y-91630000D01*
G75*
G02*
X155725000Y-91780000I-150000J0D01*
G01*
G37*
G36*
G01*
X156995000Y-91780000D02*
X156695000Y-91780000D01*
G75*
G02*
X156545000Y-91630000I0J150000D01*
G01*
X156545000Y-89980000D01*
G75*
G02*
X156695000Y-89830000I150000J0D01*
G01*
X156995000Y-89830000D01*
G75*
G02*
X157145000Y-89980000I0J-150000D01*
G01*
X157145000Y-91630000D01*
G75*
G02*
X156995000Y-91780000I-150000J0D01*
G01*
G37*
G36*
G01*
X158265000Y-91780000D02*
X157965000Y-91780000D01*
G75*
G02*
X157815000Y-91630000I0J150000D01*
G01*
X157815000Y-89980000D01*
G75*
G02*
X157965000Y-89830000I150000J0D01*
G01*
X158265000Y-89830000D01*
G75*
G02*
X158415000Y-89980000I0J-150000D01*
G01*
X158415000Y-91630000D01*
G75*
G02*
X158265000Y-91780000I-150000J0D01*
G01*
G37*
G36*
G01*
X159535000Y-91780000D02*
X159235000Y-91780000D01*
G75*
G02*
X159085000Y-91630000I0J150000D01*
G01*
X159085000Y-89980000D01*
G75*
G02*
X159235000Y-89830000I150000J0D01*
G01*
X159535000Y-89830000D01*
G75*
G02*
X159685000Y-89980000I0J-150000D01*
G01*
X159685000Y-91630000D01*
G75*
G02*
X159535000Y-91780000I-150000J0D01*
G01*
G37*
G36*
G01*
X159535000Y-96730000D02*
X159235000Y-96730000D01*
G75*
G02*
X159085000Y-96580000I0J150000D01*
G01*
X159085000Y-94930000D01*
G75*
G02*
X159235000Y-94780000I150000J0D01*
G01*
X159535000Y-94780000D01*
G75*
G02*
X159685000Y-94930000I0J-150000D01*
G01*
X159685000Y-96580000D01*
G75*
G02*
X159535000Y-96730000I-150000J0D01*
G01*
G37*
G36*
G01*
X158265000Y-96730000D02*
X157965000Y-96730000D01*
G75*
G02*
X157815000Y-96580000I0J150000D01*
G01*
X157815000Y-94930000D01*
G75*
G02*
X157965000Y-94780000I150000J0D01*
G01*
X158265000Y-94780000D01*
G75*
G02*
X158415000Y-94930000I0J-150000D01*
G01*
X158415000Y-96580000D01*
G75*
G02*
X158265000Y-96730000I-150000J0D01*
G01*
G37*
G36*
G01*
X156995000Y-96730000D02*
X156695000Y-96730000D01*
G75*
G02*
X156545000Y-96580000I0J150000D01*
G01*
X156545000Y-94930000D01*
G75*
G02*
X156695000Y-94780000I150000J0D01*
G01*
X156995000Y-94780000D01*
G75*
G02*
X157145000Y-94930000I0J-150000D01*
G01*
X157145000Y-96580000D01*
G75*
G02*
X156995000Y-96730000I-150000J0D01*
G01*
G37*
G36*
G01*
X155725000Y-96730000D02*
X155425000Y-96730000D01*
G75*
G02*
X155275000Y-96580000I0J150000D01*
G01*
X155275000Y-94930000D01*
G75*
G02*
X155425000Y-94780000I150000J0D01*
G01*
X155725000Y-94780000D01*
G75*
G02*
X155875000Y-94930000I0J-150000D01*
G01*
X155875000Y-96580000D01*
G75*
G02*
X155725000Y-96730000I-150000J0D01*
G01*
G37*
%TD*%
D10*
%TO.C,U1*%
X158750000Y-86360000D03*
X156210000Y-76830000D03*
X156210000Y-86360000D03*
X158750000Y-76830000D03*
%TD*%
%TO.C,R6*%
G36*
G01*
X175133500Y-93824999D02*
X175133500Y-96675001D01*
G75*
G02*
X174883501Y-96925000I-249999J0D01*
G01*
X173858499Y-96925000D01*
G75*
G02*
X173608500Y-96675001I0J249999D01*
G01*
X173608500Y-93824999D01*
G75*
G02*
X173858499Y-93575000I249999J0D01*
G01*
X174883501Y-93575000D01*
G75*
G02*
X175133500Y-93824999I0J-249999D01*
G01*
G37*
G36*
G01*
X181108500Y-93824999D02*
X181108500Y-96675001D01*
G75*
G02*
X180858501Y-96925000I-249999J0D01*
G01*
X179833499Y-96925000D01*
G75*
G02*
X179583500Y-96675001I0J249999D01*
G01*
X179583500Y-93824999D01*
G75*
G02*
X179833499Y-93575000I249999J0D01*
G01*
X180858501Y-93575000D01*
G75*
G02*
X181108500Y-93824999I0J-249999D01*
G01*
G37*
%TD*%
%TO.C,R5*%
G36*
G01*
X161687500Y-95600000D02*
X162162500Y-95600000D01*
G75*
G02*
X162400000Y-95837500I0J-237500D01*
G01*
X162400000Y-96412500D01*
G75*
G02*
X162162500Y-96650000I-237500J0D01*
G01*
X161687500Y-96650000D01*
G75*
G02*
X161450000Y-96412500I0J237500D01*
G01*
X161450000Y-95837500D01*
G75*
G02*
X161687500Y-95600000I237500J0D01*
G01*
G37*
G36*
G01*
X161687500Y-93850000D02*
X162162500Y-93850000D01*
G75*
G02*
X162400000Y-94087500I0J-237500D01*
G01*
X162400000Y-94662500D01*
G75*
G02*
X162162500Y-94900000I-237500J0D01*
G01*
X161687500Y-94900000D01*
G75*
G02*
X161450000Y-94662500I0J237500D01*
G01*
X161450000Y-94087500D01*
G75*
G02*
X161687500Y-93850000I237500J0D01*
G01*
G37*
%TD*%
%TO.C,R4*%
G36*
G01*
X150986000Y-94344500D02*
X150986000Y-93869500D01*
G75*
G02*
X151223500Y-93632000I237500J0D01*
G01*
X151798500Y-93632000D01*
G75*
G02*
X152036000Y-93869500I0J-237500D01*
G01*
X152036000Y-94344500D01*
G75*
G02*
X151798500Y-94582000I-237500J0D01*
G01*
X151223500Y-94582000D01*
G75*
G02*
X150986000Y-94344500I0J237500D01*
G01*
G37*
G36*
G01*
X149236000Y-94344500D02*
X149236000Y-93869500D01*
G75*
G02*
X149473500Y-93632000I237500J0D01*
G01*
X150048500Y-93632000D01*
G75*
G02*
X150286000Y-93869500I0J-237500D01*
G01*
X150286000Y-94344500D01*
G75*
G02*
X150048500Y-94582000I-237500J0D01*
G01*
X149473500Y-94582000D01*
G75*
G02*
X149236000Y-94344500I0J237500D01*
G01*
G37*
%TD*%
%TO.C,R3*%
G36*
G01*
X149368500Y-91296000D02*
X149843500Y-91296000D01*
G75*
G02*
X150081000Y-91533500I0J-237500D01*
G01*
X150081000Y-92108500D01*
G75*
G02*
X149843500Y-92346000I-237500J0D01*
G01*
X149368500Y-92346000D01*
G75*
G02*
X149131000Y-92108500I0J237500D01*
G01*
X149131000Y-91533500D01*
G75*
G02*
X149368500Y-91296000I237500J0D01*
G01*
G37*
G36*
G01*
X149368500Y-89546000D02*
X149843500Y-89546000D01*
G75*
G02*
X150081000Y-89783500I0J-237500D01*
G01*
X150081000Y-90358500D01*
G75*
G02*
X149843500Y-90596000I-237500J0D01*
G01*
X149368500Y-90596000D01*
G75*
G02*
X149131000Y-90358500I0J237500D01*
G01*
X149131000Y-89783500D01*
G75*
G02*
X149368500Y-89546000I237500J0D01*
G01*
G37*
%TD*%
%TO.C,R2*%
G36*
G01*
X151400500Y-91282000D02*
X151875500Y-91282000D01*
G75*
G02*
X152113000Y-91519500I0J-237500D01*
G01*
X152113000Y-92094500D01*
G75*
G02*
X151875500Y-92332000I-237500J0D01*
G01*
X151400500Y-92332000D01*
G75*
G02*
X151163000Y-92094500I0J237500D01*
G01*
X151163000Y-91519500D01*
G75*
G02*
X151400500Y-91282000I237500J0D01*
G01*
G37*
G36*
G01*
X151400500Y-89532000D02*
X151875500Y-89532000D01*
G75*
G02*
X152113000Y-89769500I0J-237500D01*
G01*
X152113000Y-90344500D01*
G75*
G02*
X151875500Y-90582000I-237500J0D01*
G01*
X151400500Y-90582000D01*
G75*
G02*
X151163000Y-90344500I0J237500D01*
G01*
X151163000Y-89769500D01*
G75*
G02*
X151400500Y-89532000I237500J0D01*
G01*
G37*
%TD*%
D11*
%TO.C,R1*%
X128270000Y-71120000D03*
D12*
X158750000Y-71120000D03*
%TD*%
D13*
%TO.C,Q2*%
X179519000Y-88646000D03*
D14*
X173219000Y-90926000D03*
X173219000Y-88646000D03*
X173219000Y-86366000D03*
%TD*%
D15*
%TO.C,Q1*%
X167005000Y-93980000D03*
D16*
X164725000Y-87680000D03*
X167005000Y-87680000D03*
X169285000Y-87680000D03*
%TD*%
D17*
%TO.C,J3*%
X179070000Y-70160000D03*
D18*
X179070000Y-74600000D03*
G36*
G01*
X180720000Y-77670000D02*
X180720000Y-79810000D01*
G75*
G02*
X180470000Y-80060000I-250000J0D01*
G01*
X177670000Y-80060000D01*
G75*
G02*
X177420000Y-79810000I0J250000D01*
G01*
X177420000Y-77670000D01*
G75*
G02*
X177670000Y-77420000I250000J0D01*
G01*
X180470000Y-77420000D01*
G75*
G02*
X180720000Y-77670000I0J-250000D01*
G01*
G37*
%TD*%
D17*
%TO.C,J2*%
X171450000Y-70160000D03*
D18*
X171450000Y-74600000D03*
G36*
G01*
X173100000Y-77670000D02*
X173100000Y-79810000D01*
G75*
G02*
X172850000Y-80060000I-250000J0D01*
G01*
X170050000Y-80060000D01*
G75*
G02*
X169800000Y-79810000I0J250000D01*
G01*
X169800000Y-77670000D01*
G75*
G02*
X170050000Y-77420000I250000J0D01*
G01*
X172850000Y-77420000D01*
G75*
G02*
X173100000Y-77670000I0J-250000D01*
G01*
G37*
%TD*%
D19*
%TO.C,J1*%
X135330000Y-78360000D03*
D20*
X132080000Y-79860000D03*
G36*
G01*
X133230001Y-85050000D02*
X130929999Y-85050000D01*
G75*
G02*
X130680000Y-84800001I0J249999D01*
G01*
X130680000Y-82839999D01*
G75*
G02*
X130929999Y-82590000I249999J0D01*
G01*
X133230001Y-82590000D01*
G75*
G02*
X133480000Y-82839999I0J-249999D01*
G01*
X133480000Y-84800001D01*
G75*
G02*
X133230001Y-85050000I-249999J0D01*
G01*
G37*
%TD*%
D21*
%TO.C,H1*%
X142240000Y-92710000D03*
%TD*%
%TO.C,C2*%
G36*
G01*
X150272000Y-96536500D02*
X150272000Y-97011500D01*
G75*
G02*
X150034500Y-97249000I-237500J0D01*
G01*
X149459500Y-97249000D01*
G75*
G02*
X149222000Y-97011500I0J237500D01*
G01*
X149222000Y-96536500D01*
G75*
G02*
X149459500Y-96299000I237500J0D01*
G01*
X150034500Y-96299000D01*
G75*
G02*
X150272000Y-96536500I0J-237500D01*
G01*
G37*
G36*
G01*
X152022000Y-96536500D02*
X152022000Y-97011500D01*
G75*
G02*
X151784500Y-97249000I-237500J0D01*
G01*
X151209500Y-97249000D01*
G75*
G02*
X150972000Y-97011500I0J237500D01*
G01*
X150972000Y-96536500D01*
G75*
G02*
X151209500Y-96299000I237500J0D01*
G01*
X151784500Y-96299000D01*
G75*
G02*
X152022000Y-96536500I0J-237500D01*
G01*
G37*
%TD*%
%TO.C,C1*%
G36*
G01*
X162162500Y-89185000D02*
X161687500Y-89185000D01*
G75*
G02*
X161450000Y-88947500I0J237500D01*
G01*
X161450000Y-88372500D01*
G75*
G02*
X161687500Y-88135000I237500J0D01*
G01*
X162162500Y-88135000D01*
G75*
G02*
X162400000Y-88372500I0J-237500D01*
G01*
X162400000Y-88947500D01*
G75*
G02*
X162162500Y-89185000I-237500J0D01*
G01*
G37*
G36*
G01*
X162162500Y-90935000D02*
X161687500Y-90935000D01*
G75*
G02*
X161450000Y-90697500I0J237500D01*
G01*
X161450000Y-90122500D01*
G75*
G02*
X161687500Y-89885000I237500J0D01*
G01*
X162162500Y-89885000D01*
G75*
G02*
X162400000Y-90122500I0J-237500D01*
G01*
X162400000Y-90697500D01*
G75*
G02*
X162162500Y-90935000I-237500J0D01*
G01*
G37*
%TD*%
M02*
