M48
; DRILL file {KiCad 5.1.7-a382d34a8~88~ubuntu18.04.1} date Thu Feb 25 09:43:24 2021
; FORMAT={-:-/ absolute / metric / decimal}
; #@! TF.CreationDate,2021-02-25T09:43:24-05:00
; #@! TF.GenerationSoftware,Kicad,Pcbnew,5.1.7-a382d34a8~88~ubuntu18.04.1
FMAT,2
METRIC
T1C0.400
T2C1.200
T3C1.400
T4C1.800
T5C1.600
T6C3.180
T7C3.200
%
G90
G05
T1
X149.86Y-88.392
X151.765Y-88.392
X152.654Y-92.964
X153.035Y-94.234
X153.67Y-91.821
X153.67Y-96.012
X156.355Y-92.964
X156.972Y-88.646
X158.115Y-92.71
X158.75Y-88.646
X160.274Y-88.646
X165.608Y-84.836
X166.878Y-83.82
X168.148Y-82.804
X171.704Y-92.964
X171.704Y-94.488
X171.704Y-96.012
X171.704Y-97.536
X177.292Y-92.964
X177.292Y-94.488
X177.292Y-96.012
X177.292Y-97.536
X182.372Y-92.964
X182.372Y-94.488
X182.372Y-96.012
X182.372Y-97.536
T2
X128.27Y-71.12
X158.75Y-71.12
T3
X179.07Y-74.6
X179.07Y-78.74
X171.45Y-74.6
X171.45Y-78.74
T4
X132.08Y-79.86
X132.08Y-83.82
T5
X135.33Y-78.36
T6
X179.07Y-70.16
X171.45Y-70.16
T7
X142.24Y-92.71
T0
M30
