M48
; DRILL file {KiCad 5.1.7-a382d34a8~88~ubuntu18.04.1} date Thu Mar 18 09:08:04 2021
; FORMAT={-:-/ absolute / metric / decimal}
; #@! TF.CreationDate,2021-03-18T09:08:04-04:00
; #@! TF.GenerationSoftware,Kicad,Pcbnew,5.1.7-a382d34a8~88~ubuntu18.04.1
FMAT,2
METRIC
T1C0.750
T2C0.800
T3C1.000
T4C1.200
T5C1.300
T6C1.700
T7C1.750
T8C1.800
T9C1.600
T10C2.700
T11C2.850
T12C3.200
%
G90
G05
T1
X136.5Y-125.0
X138.5Y-125.0
X140.5Y-125.0
X142.5Y-125.0
X137.7Y-97.155
X139.7Y-97.155
X141.7Y-97.155
X143.7Y-97.155
T2
X113.141Y-127.683
X120.761Y-127.683
T3
X138.771Y-105.641
X138.771Y-113.261
X138.771Y-115.801
X143.851Y-105.641
X143.851Y-113.261
X143.851Y-115.801
T4
X69.85Y-98.425
X69.85Y-128.905
X81.28Y-98.425
X81.28Y-128.905
T5
X71.75Y-81.28
X75.25Y-88.78
X78.75Y-81.28
X95.25Y-81.28
X95.25Y-88.78
X57.15Y-83.82
X57.15Y-106.32
X92.71Y-100.33
X92.71Y-122.83
T6
X124.063Y-119.555
X124.063Y-123.515
X123.809Y-109.903
X123.809Y-113.863
X113.141Y-119.301
X113.141Y-123.261
X113.141Y-109.903
X113.141Y-113.863
T7
X121.73Y-82.225
X121.73Y-90.225
X123.73Y-86.225
X125.73Y-82.225
X125.73Y-90.225
X127.73Y-86.225
X129.73Y-82.225
X129.73Y-90.225
T8
X75.692Y-138.811
X57.15Y-121.92
X95.377Y-139.065
T9
X96.877Y-142.315
X77.192Y-142.061
X58.65Y-125.17
T10
X57.15Y-95.07
X92.71Y-111.58
T11
X115.23Y-85.725
X136.23Y-85.725
T12
X104.775Y-99.06
X140.335Y-137.16
X53.975Y-137.795
T0
M30
