G04 #@! TF.GenerationSoftware,KiCad,Pcbnew,5.1.7-a382d34a8~88~ubuntu18.04.1*
G04 #@! TF.CreationDate,2021-02-25T09:37:14-05:00*
G04 #@! TF.ProjectId,Dash_Right,44617368-5f52-4696-9768-742e6b696361,rev?*
G04 #@! TF.SameCoordinates,Original*
G04 #@! TF.FileFunction,Paste,Bot*
G04 #@! TF.FilePolarity,Positive*
%FSLAX46Y46*%
G04 Gerber Fmt 4.6, Leading zero omitted, Abs format (unit mm)*
G04 Created by KiCad (PCBNEW 5.1.7-a382d34a8~88~ubuntu18.04.1) date 2021-02-25 09:37:14*
%MOMM*%
%LPD*%
G01*
G04 APERTURE LIST*
%ADD10R,3.200000X0.400000*%
G04 APERTURE END LIST*
G36*
G01*
X165902500Y-89447500D02*
X166202500Y-89447500D01*
G75*
G02*
X166352500Y-89597500I0J-150000D01*
G01*
X166352500Y-91247500D01*
G75*
G02*
X166202500Y-91397500I-150000J0D01*
G01*
X165902500Y-91397500D01*
G75*
G02*
X165752500Y-91247500I0J150000D01*
G01*
X165752500Y-89597500D01*
G75*
G02*
X165902500Y-89447500I150000J0D01*
G01*
G37*
G36*
G01*
X167172500Y-89447500D02*
X167472500Y-89447500D01*
G75*
G02*
X167622500Y-89597500I0J-150000D01*
G01*
X167622500Y-91247500D01*
G75*
G02*
X167472500Y-91397500I-150000J0D01*
G01*
X167172500Y-91397500D01*
G75*
G02*
X167022500Y-91247500I0J150000D01*
G01*
X167022500Y-89597500D01*
G75*
G02*
X167172500Y-89447500I150000J0D01*
G01*
G37*
G36*
G01*
X168442500Y-89447500D02*
X168742500Y-89447500D01*
G75*
G02*
X168892500Y-89597500I0J-150000D01*
G01*
X168892500Y-91247500D01*
G75*
G02*
X168742500Y-91397500I-150000J0D01*
G01*
X168442500Y-91397500D01*
G75*
G02*
X168292500Y-91247500I0J150000D01*
G01*
X168292500Y-89597500D01*
G75*
G02*
X168442500Y-89447500I150000J0D01*
G01*
G37*
G36*
G01*
X169712500Y-89447500D02*
X170012500Y-89447500D01*
G75*
G02*
X170162500Y-89597500I0J-150000D01*
G01*
X170162500Y-91247500D01*
G75*
G02*
X170012500Y-91397500I-150000J0D01*
G01*
X169712500Y-91397500D01*
G75*
G02*
X169562500Y-91247500I0J150000D01*
G01*
X169562500Y-89597500D01*
G75*
G02*
X169712500Y-89447500I150000J0D01*
G01*
G37*
G36*
G01*
X169712500Y-84497500D02*
X170012500Y-84497500D01*
G75*
G02*
X170162500Y-84647500I0J-150000D01*
G01*
X170162500Y-86297500D01*
G75*
G02*
X170012500Y-86447500I-150000J0D01*
G01*
X169712500Y-86447500D01*
G75*
G02*
X169562500Y-86297500I0J150000D01*
G01*
X169562500Y-84647500D01*
G75*
G02*
X169712500Y-84497500I150000J0D01*
G01*
G37*
G36*
G01*
X168442500Y-84497500D02*
X168742500Y-84497500D01*
G75*
G02*
X168892500Y-84647500I0J-150000D01*
G01*
X168892500Y-86297500D01*
G75*
G02*
X168742500Y-86447500I-150000J0D01*
G01*
X168442500Y-86447500D01*
G75*
G02*
X168292500Y-86297500I0J150000D01*
G01*
X168292500Y-84647500D01*
G75*
G02*
X168442500Y-84497500I150000J0D01*
G01*
G37*
G36*
G01*
X167172500Y-84497500D02*
X167472500Y-84497500D01*
G75*
G02*
X167622500Y-84647500I0J-150000D01*
G01*
X167622500Y-86297500D01*
G75*
G02*
X167472500Y-86447500I-150000J0D01*
G01*
X167172500Y-86447500D01*
G75*
G02*
X167022500Y-86297500I0J150000D01*
G01*
X167022500Y-84647500D01*
G75*
G02*
X167172500Y-84497500I150000J0D01*
G01*
G37*
G36*
G01*
X165902500Y-84497500D02*
X166202500Y-84497500D01*
G75*
G02*
X166352500Y-84647500I0J-150000D01*
G01*
X166352500Y-86297500D01*
G75*
G02*
X166202500Y-86447500I-150000J0D01*
G01*
X165902500Y-86447500D01*
G75*
G02*
X165752500Y-86297500I0J150000D01*
G01*
X165752500Y-84647500D01*
G75*
G02*
X165902500Y-84497500I150000J0D01*
G01*
G37*
D10*
X181102000Y-80194000D03*
X181102000Y-78994000D03*
X181102000Y-77794000D03*
G36*
G01*
X166644500Y-97265500D02*
X166644500Y-96790500D01*
G75*
G02*
X166882000Y-96553000I237500J0D01*
G01*
X167382000Y-96553000D01*
G75*
G02*
X167619500Y-96790500I0J-237500D01*
G01*
X167619500Y-97265500D01*
G75*
G02*
X167382000Y-97503000I-237500J0D01*
G01*
X166882000Y-97503000D01*
G75*
G02*
X166644500Y-97265500I0J237500D01*
G01*
G37*
G36*
G01*
X164819500Y-97265500D02*
X164819500Y-96790500D01*
G75*
G02*
X165057000Y-96553000I237500J0D01*
G01*
X165557000Y-96553000D01*
G75*
G02*
X165794500Y-96790500I0J-237500D01*
G01*
X165794500Y-97265500D01*
G75*
G02*
X165557000Y-97503000I-237500J0D01*
G01*
X165057000Y-97503000D01*
G75*
G02*
X164819500Y-97265500I0J237500D01*
G01*
G37*
G36*
G01*
X187598500Y-90504000D02*
X187598500Y-90979000D01*
G75*
G02*
X187361000Y-91216500I-237500J0D01*
G01*
X186861000Y-91216500D01*
G75*
G02*
X186623500Y-90979000I0J237500D01*
G01*
X186623500Y-90504000D01*
G75*
G02*
X186861000Y-90266500I237500J0D01*
G01*
X187361000Y-90266500D01*
G75*
G02*
X187598500Y-90504000I0J-237500D01*
G01*
G37*
G36*
G01*
X189423500Y-90504000D02*
X189423500Y-90979000D01*
G75*
G02*
X189186000Y-91216500I-237500J0D01*
G01*
X188686000Y-91216500D01*
G75*
G02*
X188448500Y-90979000I0J237500D01*
G01*
X188448500Y-90504000D01*
G75*
G02*
X188686000Y-90266500I237500J0D01*
G01*
X189186000Y-90266500D01*
G75*
G02*
X189423500Y-90504000I0J-237500D01*
G01*
G37*
G36*
G01*
X167968000Y-110094000D02*
X170868000Y-110094000D01*
G75*
G02*
X171118000Y-110344000I0J-250000D01*
G01*
X171118000Y-111144000D01*
G75*
G02*
X170868000Y-111394000I-250000J0D01*
G01*
X167968000Y-111394000D01*
G75*
G02*
X167718000Y-111144000I0J250000D01*
G01*
X167718000Y-110344000D01*
G75*
G02*
X167968000Y-110094000I250000J0D01*
G01*
G37*
G36*
G01*
X167968000Y-105644000D02*
X170868000Y-105644000D01*
G75*
G02*
X171118000Y-105894000I0J-250000D01*
G01*
X171118000Y-106694000D01*
G75*
G02*
X170868000Y-106944000I-250000J0D01*
G01*
X167968000Y-106944000D01*
G75*
G02*
X167718000Y-106694000I0J250000D01*
G01*
X167718000Y-105894000D01*
G75*
G02*
X167968000Y-105644000I250000J0D01*
G01*
G37*
G36*
G01*
X191469500Y-90504000D02*
X191469500Y-90979000D01*
G75*
G02*
X191232000Y-91216500I-237500J0D01*
G01*
X190657000Y-91216500D01*
G75*
G02*
X190419500Y-90979000I0J237500D01*
G01*
X190419500Y-90504000D01*
G75*
G02*
X190657000Y-90266500I237500J0D01*
G01*
X191232000Y-90266500D01*
G75*
G02*
X191469500Y-90504000I0J-237500D01*
G01*
G37*
G36*
G01*
X193219500Y-90504000D02*
X193219500Y-90979000D01*
G75*
G02*
X192982000Y-91216500I-237500J0D01*
G01*
X192407000Y-91216500D01*
G75*
G02*
X192169500Y-90979000I0J237500D01*
G01*
X192169500Y-90504000D01*
G75*
G02*
X192407000Y-90266500I237500J0D01*
G01*
X192982000Y-90266500D01*
G75*
G02*
X193219500Y-90504000I0J-237500D01*
G01*
G37*
G36*
G01*
X167823000Y-82566500D02*
X167823000Y-83041500D01*
G75*
G02*
X167585500Y-83279000I-237500J0D01*
G01*
X166985500Y-83279000D01*
G75*
G02*
X166748000Y-83041500I0J237500D01*
G01*
X166748000Y-82566500D01*
G75*
G02*
X166985500Y-82329000I237500J0D01*
G01*
X167585500Y-82329000D01*
G75*
G02*
X167823000Y-82566500I0J-237500D01*
G01*
G37*
G36*
G01*
X169548000Y-82566500D02*
X169548000Y-83041500D01*
G75*
G02*
X169310500Y-83279000I-237500J0D01*
G01*
X168710500Y-83279000D01*
G75*
G02*
X168473000Y-83041500I0J237500D01*
G01*
X168473000Y-82566500D01*
G75*
G02*
X168710500Y-82329000I237500J0D01*
G01*
X169310500Y-82329000D01*
G75*
G02*
X169548000Y-82566500I0J-237500D01*
G01*
G37*
G36*
G01*
X196325500Y-93337500D02*
X195850500Y-93337500D01*
G75*
G02*
X195613000Y-93100000I0J237500D01*
G01*
X195613000Y-92500000D01*
G75*
G02*
X195850500Y-92262500I237500J0D01*
G01*
X196325500Y-92262500D01*
G75*
G02*
X196563000Y-92500000I0J-237500D01*
G01*
X196563000Y-93100000D01*
G75*
G02*
X196325500Y-93337500I-237500J0D01*
G01*
G37*
G36*
G01*
X196325500Y-95062500D02*
X195850500Y-95062500D01*
G75*
G02*
X195613000Y-94825000I0J237500D01*
G01*
X195613000Y-94225000D01*
G75*
G02*
X195850500Y-93987500I237500J0D01*
G01*
X196325500Y-93987500D01*
G75*
G02*
X196563000Y-94225000I0J-237500D01*
G01*
X196563000Y-94825000D01*
G75*
G02*
X196325500Y-95062500I-237500J0D01*
G01*
G37*
M02*
