G04 #@! TF.GenerationSoftware,KiCad,Pcbnew,5.1.7-a382d34a8~88~ubuntu18.04.1*
G04 #@! TF.CreationDate,2021-02-25T09:37:14-05:00*
G04 #@! TF.ProjectId,Dash_Right,44617368-5f52-4696-9768-742e6b696361,rev?*
G04 #@! TF.SameCoordinates,Original*
G04 #@! TF.FileFunction,Legend,Top*
G04 #@! TF.FilePolarity,Positive*
%FSLAX46Y46*%
G04 Gerber Fmt 4.6, Leading zero omitted, Abs format (unit mm)*
G04 Created by KiCad (PCBNEW 5.1.7-a382d34a8~88~ubuntu18.04.1) date 2021-02-25 09:37:14*
%MOMM*%
%LPD*%
G01*
G04 APERTURE LIST*
%ADD10C,0.120000*%
%ADD11C,0.150000*%
%ADD12C,0.100000*%
G04 APERTURE END LIST*
D10*
X176988000Y-67702500D02*
X175173000Y-67702500D01*
X176988000Y-67457500D02*
X176988000Y-67702500D01*
X180848000Y-67457500D02*
X176988000Y-67457500D01*
X184708000Y-67457500D02*
X184708000Y-67702500D01*
X180848000Y-67457500D02*
X184708000Y-67457500D01*
X176988000Y-79227500D02*
X176988000Y-78982500D01*
X180848000Y-79227500D02*
X176988000Y-79227500D01*
X184708000Y-79227500D02*
X184708000Y-78982500D01*
X180848000Y-79227500D02*
X184708000Y-79227500D01*
D11*
X168944500Y-70225500D02*
X168944500Y-68800500D01*
X169169500Y-77475500D02*
X169169500Y-77150500D01*
X161919500Y-77475500D02*
X161919500Y-77150500D01*
X161919500Y-70225500D02*
X161919500Y-70550500D01*
X169169500Y-70225500D02*
X169169500Y-70550500D01*
X161919500Y-70225500D02*
X162244500Y-70225500D01*
X161919500Y-77475500D02*
X162244500Y-77475500D01*
X169169500Y-77475500D02*
X168844500Y-77475500D01*
X169169500Y-70225500D02*
X168944500Y-70225500D01*
D12*
X163164000Y-82576000D02*
X162739000Y-82576000D01*
X163164000Y-82601000D02*
X163164000Y-83051000D01*
X163164000Y-95476000D02*
X163164000Y-95026000D01*
X163164000Y-95476000D02*
X162739000Y-95476000D01*
X156114000Y-95476000D02*
X156489000Y-95476000D01*
X156114000Y-95476000D02*
X156114000Y-95076000D01*
X156114000Y-82951000D02*
X156114000Y-82576000D01*
X156114000Y-82576000D02*
X156464000Y-82576000D01*
X179420000Y-82577000D02*
X178995000Y-82577000D01*
X179420000Y-82602000D02*
X179420000Y-83052000D01*
X179420000Y-95477000D02*
X179420000Y-95027000D01*
X179420000Y-95477000D02*
X178995000Y-95477000D01*
X172370000Y-95477000D02*
X172745000Y-95477000D01*
X172370000Y-95477000D02*
X172370000Y-95077000D01*
X172370000Y-82952000D02*
X172370000Y-82577000D01*
X172370000Y-82577000D02*
X172720000Y-82577000D01*
D10*
X186498776Y-66689500D02*
X187008224Y-66689500D01*
X186498776Y-65644500D02*
X187008224Y-65644500D01*
X191362876Y-63260500D02*
X191872324Y-63260500D01*
X191362876Y-62215500D02*
X191872324Y-62215500D01*
X156401224Y-61898000D02*
X155891776Y-61898000D01*
X156401224Y-62943000D02*
X155891776Y-62943000D01*
X174370276Y-63387500D02*
X174879724Y-63387500D01*
X174370276Y-62342500D02*
X174879724Y-62342500D01*
X149456224Y-81773500D02*
X148946776Y-81773500D01*
X149456224Y-82818500D02*
X148946776Y-82818500D01*
X163053500Y-95399776D02*
X163053500Y-95909224D01*
X164098500Y-95399776D02*
X164098500Y-95909224D01*
X172197500Y-95352776D02*
X172197500Y-95862224D01*
X173242500Y-95352776D02*
X173242500Y-95862224D01*
X152714000Y-87728000D02*
X152514000Y-87728000D01*
X152714000Y-92028000D02*
X152714000Y-87728000D01*
X152564000Y-92028000D02*
X152714000Y-92028000D01*
X147514000Y-92028000D02*
X147664000Y-92028000D01*
X147514000Y-87728000D02*
X147514000Y-92028000D01*
X147714000Y-87728000D02*
X147514000Y-87728000D01*
X192822000Y-58254400D02*
X192822000Y-58098400D01*
X192822000Y-60570400D02*
X192822000Y-60414400D01*
X190220870Y-58254563D02*
G75*
G02*
X192302961Y-58254400I1041130J-1079837D01*
G01*
X190220870Y-60414237D02*
G75*
G03*
X192302961Y-60414400I1041130J1079837D01*
G01*
X189589665Y-58255792D02*
G75*
G02*
X192822000Y-58098884I1672335J-1078608D01*
G01*
X189589665Y-60413008D02*
G75*
G03*
X192822000Y-60569916I1672335J1078608D01*
G01*
X154904000Y-59881000D02*
X154904000Y-60037000D01*
X154904000Y-57565000D02*
X154904000Y-57721000D01*
X157505130Y-59880837D02*
G75*
G02*
X155423039Y-59881000I-1041130J1079837D01*
G01*
X157505130Y-57721163D02*
G75*
G03*
X155423039Y-57721000I-1041130J-1079837D01*
G01*
X158136335Y-59879608D02*
G75*
G02*
X154904000Y-60036516I-1672335J1078608D01*
G01*
X158136335Y-57722392D02*
G75*
G03*
X154904000Y-57565484I-1672335J-1078608D01*
G01*
X175804000Y-58457600D02*
X175804000Y-58301600D01*
X175804000Y-60773600D02*
X175804000Y-60617600D01*
X173202870Y-58457763D02*
G75*
G02*
X175284961Y-58457600I1041130J-1079837D01*
G01*
X173202870Y-60617437D02*
G75*
G03*
X175284961Y-60617600I1041130J1079837D01*
G01*
X172571665Y-58458992D02*
G75*
G02*
X175804000Y-58302084I1672335J-1078608D01*
G01*
X172571665Y-60616208D02*
G75*
G03*
X175804000Y-60773116I1672335J1078608D01*
G01*
X183089767Y-65657000D02*
X182797233Y-65657000D01*
X183089767Y-66677000D02*
X182797233Y-66677000D01*
X182755000Y-96258767D02*
X182755000Y-95966233D01*
X181735000Y-96258767D02*
X181735000Y-95966233D01*
X166070233Y-80774000D02*
X166362767Y-80774000D01*
X166070233Y-79754000D02*
X166362767Y-79754000D01*
X165461733Y-67312000D02*
X165754267Y-67312000D01*
X165461733Y-66292000D02*
X165754267Y-66292000D01*
D11*
X180086095Y-66074880D02*
X180086095Y-66884404D01*
X180133714Y-66979642D01*
X180181333Y-67027261D01*
X180276571Y-67074880D01*
X180467047Y-67074880D01*
X180562285Y-67027261D01*
X180609904Y-66979642D01*
X180657523Y-66884404D01*
X180657523Y-66074880D01*
X181038476Y-66074880D02*
X181657523Y-66074880D01*
X181324190Y-66455833D01*
X181467047Y-66455833D01*
X181562285Y-66503452D01*
X181609904Y-66551071D01*
X181657523Y-66646309D01*
X181657523Y-66884404D01*
X181609904Y-66979642D01*
X181562285Y-67027261D01*
X181467047Y-67074880D01*
X181181333Y-67074880D01*
X181086095Y-67027261D01*
X181038476Y-66979642D01*
X171046880Y-74612404D02*
X171856404Y-74612404D01*
X171951642Y-74564785D01*
X171999261Y-74517166D01*
X172046880Y-74421928D01*
X172046880Y-74231452D01*
X171999261Y-74136214D01*
X171951642Y-74088595D01*
X171856404Y-74040976D01*
X171046880Y-74040976D01*
X172046880Y-73040976D02*
X172046880Y-73612404D01*
X172046880Y-73326690D02*
X171046880Y-73326690D01*
X171189738Y-73421928D01*
X171284976Y-73517166D01*
X171332595Y-73612404D01*
X155541060Y-82031133D02*
X155683917Y-82078752D01*
X155922013Y-82078752D01*
X156017251Y-82031133D01*
X156064870Y-81983514D01*
X156112489Y-81888276D01*
X156112489Y-81793038D01*
X156064870Y-81697800D01*
X156017251Y-81650181D01*
X155922013Y-81602562D01*
X155731536Y-81554943D01*
X155636298Y-81507324D01*
X155588679Y-81459705D01*
X155541060Y-81364467D01*
X155541060Y-81269229D01*
X155588679Y-81173991D01*
X155636298Y-81126372D01*
X155731536Y-81078752D01*
X155969632Y-81078752D01*
X156112489Y-81126372D01*
X156445822Y-81078752D02*
X156683917Y-82078752D01*
X156874394Y-81364467D01*
X157064870Y-82078752D01*
X157302965Y-81078752D01*
X157636298Y-81173991D02*
X157683917Y-81126372D01*
X157779155Y-81078752D01*
X158017251Y-81078752D01*
X158112489Y-81126372D01*
X158160108Y-81173991D01*
X158207727Y-81269229D01*
X158207727Y-81364467D01*
X158160108Y-81507324D01*
X157588679Y-82078752D01*
X158207727Y-82078752D01*
X171797060Y-82032133D02*
X171939917Y-82079752D01*
X172178013Y-82079752D01*
X172273251Y-82032133D01*
X172320870Y-81984514D01*
X172368489Y-81889276D01*
X172368489Y-81794038D01*
X172320870Y-81698800D01*
X172273251Y-81651181D01*
X172178013Y-81603562D01*
X171987536Y-81555943D01*
X171892298Y-81508324D01*
X171844679Y-81460705D01*
X171797060Y-81365467D01*
X171797060Y-81270229D01*
X171844679Y-81174991D01*
X171892298Y-81127372D01*
X171987536Y-81079752D01*
X172225632Y-81079752D01*
X172368489Y-81127372D01*
X172701822Y-81079752D02*
X172939917Y-82079752D01*
X173130394Y-81365467D01*
X173320870Y-82079752D01*
X173558965Y-81079752D01*
X174463727Y-82079752D02*
X173892298Y-82079752D01*
X174178013Y-82079752D02*
X174178013Y-81079752D01*
X174082774Y-81222610D01*
X173987536Y-81317848D01*
X173892298Y-81365467D01*
X186586833Y-65189380D02*
X186253500Y-64713190D01*
X186015404Y-65189380D02*
X186015404Y-64189380D01*
X186396357Y-64189380D01*
X186491595Y-64237000D01*
X186539214Y-64284619D01*
X186586833Y-64379857D01*
X186586833Y-64522714D01*
X186539214Y-64617952D01*
X186491595Y-64665571D01*
X186396357Y-64713190D01*
X186015404Y-64713190D01*
X187158261Y-64617952D02*
X187063023Y-64570333D01*
X187015404Y-64522714D01*
X186967785Y-64427476D01*
X186967785Y-64379857D01*
X187015404Y-64284619D01*
X187063023Y-64237000D01*
X187158261Y-64189380D01*
X187348738Y-64189380D01*
X187443976Y-64237000D01*
X187491595Y-64284619D01*
X187539214Y-64379857D01*
X187539214Y-64427476D01*
X187491595Y-64522714D01*
X187443976Y-64570333D01*
X187348738Y-64617952D01*
X187158261Y-64617952D01*
X187063023Y-64665571D01*
X187015404Y-64713190D01*
X186967785Y-64808428D01*
X186967785Y-64998904D01*
X187015404Y-65094142D01*
X187063023Y-65141761D01*
X187158261Y-65189380D01*
X187348738Y-65189380D01*
X187443976Y-65141761D01*
X187491595Y-65094142D01*
X187539214Y-64998904D01*
X187539214Y-64808428D01*
X187491595Y-64713190D01*
X187443976Y-64665571D01*
X187348738Y-64617952D01*
X191349333Y-64968380D02*
X191016000Y-64492190D01*
X190777904Y-64968380D02*
X190777904Y-63968380D01*
X191158857Y-63968380D01*
X191254095Y-64016000D01*
X191301714Y-64063619D01*
X191349333Y-64158857D01*
X191349333Y-64301714D01*
X191301714Y-64396952D01*
X191254095Y-64444571D01*
X191158857Y-64492190D01*
X190777904Y-64492190D01*
X191682666Y-63968380D02*
X192349333Y-63968380D01*
X191920761Y-64968380D01*
X155979833Y-64302880D02*
X155646500Y-63826690D01*
X155408404Y-64302880D02*
X155408404Y-63302880D01*
X155789357Y-63302880D01*
X155884595Y-63350500D01*
X155932214Y-63398119D01*
X155979833Y-63493357D01*
X155979833Y-63636214D01*
X155932214Y-63731452D01*
X155884595Y-63779071D01*
X155789357Y-63826690D01*
X155408404Y-63826690D01*
X156836976Y-63302880D02*
X156646500Y-63302880D01*
X156551261Y-63350500D01*
X156503642Y-63398119D01*
X156408404Y-63540976D01*
X156360785Y-63731452D01*
X156360785Y-64112404D01*
X156408404Y-64207642D01*
X156456023Y-64255261D01*
X156551261Y-64302880D01*
X156741738Y-64302880D01*
X156836976Y-64255261D01*
X156884595Y-64207642D01*
X156932214Y-64112404D01*
X156932214Y-63874309D01*
X156884595Y-63779071D01*
X156836976Y-63731452D01*
X156741738Y-63683833D01*
X156551261Y-63683833D01*
X156456023Y-63731452D01*
X156408404Y-63779071D01*
X156360785Y-63874309D01*
X174458333Y-64968380D02*
X174125000Y-64492190D01*
X173886904Y-64968380D02*
X173886904Y-63968380D01*
X174267857Y-63968380D01*
X174363095Y-64016000D01*
X174410714Y-64063619D01*
X174458333Y-64158857D01*
X174458333Y-64301714D01*
X174410714Y-64396952D01*
X174363095Y-64444571D01*
X174267857Y-64492190D01*
X173886904Y-64492190D01*
X175363095Y-63968380D02*
X174886904Y-63968380D01*
X174839285Y-64444571D01*
X174886904Y-64396952D01*
X174982142Y-64349333D01*
X175220238Y-64349333D01*
X175315476Y-64396952D01*
X175363095Y-64444571D01*
X175410714Y-64539809D01*
X175410714Y-64777904D01*
X175363095Y-64873142D01*
X175315476Y-64920761D01*
X175220238Y-64968380D01*
X174982142Y-64968380D01*
X174886904Y-64920761D01*
X174839285Y-64873142D01*
X149034833Y-84178380D02*
X148701500Y-83702190D01*
X148463404Y-84178380D02*
X148463404Y-83178380D01*
X148844357Y-83178380D01*
X148939595Y-83226000D01*
X148987214Y-83273619D01*
X149034833Y-83368857D01*
X149034833Y-83511714D01*
X148987214Y-83606952D01*
X148939595Y-83654571D01*
X148844357Y-83702190D01*
X148463404Y-83702190D01*
X149891976Y-83511714D02*
X149891976Y-84178380D01*
X149653880Y-83130761D02*
X149415785Y-83845047D01*
X150034833Y-83845047D01*
X165458380Y-95821166D02*
X164982190Y-96154500D01*
X165458380Y-96392595D02*
X164458380Y-96392595D01*
X164458380Y-96011642D01*
X164506000Y-95916404D01*
X164553619Y-95868785D01*
X164648857Y-95821166D01*
X164791714Y-95821166D01*
X164886952Y-95868785D01*
X164934571Y-95916404D01*
X164982190Y-96011642D01*
X164982190Y-96392595D01*
X164553619Y-95440214D02*
X164506000Y-95392595D01*
X164458380Y-95297357D01*
X164458380Y-95059261D01*
X164506000Y-94964023D01*
X164553619Y-94916404D01*
X164648857Y-94868785D01*
X164744095Y-94868785D01*
X164886952Y-94916404D01*
X165458380Y-95487833D01*
X165458380Y-94868785D01*
X174602380Y-95774166D02*
X174126190Y-96107500D01*
X174602380Y-96345595D02*
X173602380Y-96345595D01*
X173602380Y-95964642D01*
X173650000Y-95869404D01*
X173697619Y-95821785D01*
X173792857Y-95774166D01*
X173935714Y-95774166D01*
X174030952Y-95821785D01*
X174078571Y-95869404D01*
X174126190Y-95964642D01*
X174126190Y-96345595D01*
X174602380Y-94821785D02*
X174602380Y-95393214D01*
X174602380Y-95107500D02*
X173602380Y-95107500D01*
X173745238Y-95202738D01*
X173840476Y-95297976D01*
X173888095Y-95393214D01*
X154141619Y-89893238D02*
X154094000Y-89988476D01*
X153998761Y-90083714D01*
X153855904Y-90226571D01*
X153808285Y-90321809D01*
X153808285Y-90417047D01*
X154046380Y-90369428D02*
X153998761Y-90464666D01*
X153903523Y-90559904D01*
X153713047Y-90607523D01*
X153379714Y-90607523D01*
X153189238Y-90559904D01*
X153094000Y-90464666D01*
X153046380Y-90369428D01*
X153046380Y-90178952D01*
X153094000Y-90083714D01*
X153189238Y-89988476D01*
X153379714Y-89940857D01*
X153713047Y-89940857D01*
X153903523Y-89988476D01*
X153998761Y-90083714D01*
X154046380Y-90178952D01*
X154046380Y-90369428D01*
X154046380Y-88988476D02*
X154046380Y-89559904D01*
X154046380Y-89274190D02*
X153046380Y-89274190D01*
X153189238Y-89369428D01*
X153284476Y-89464666D01*
X153332095Y-89559904D01*
X201422095Y-93343880D02*
X201422095Y-92343880D01*
X201422095Y-92820071D02*
X201993523Y-92820071D01*
X201993523Y-93343880D02*
X201993523Y-92343880D01*
X202422095Y-92439119D02*
X202469714Y-92391500D01*
X202564952Y-92343880D01*
X202803047Y-92343880D01*
X202898285Y-92391500D01*
X202945904Y-92439119D01*
X202993523Y-92534357D01*
X202993523Y-92629595D01*
X202945904Y-92772452D01*
X202374476Y-93343880D01*
X202993523Y-93343880D01*
X138176095Y-71944380D02*
X138176095Y-70944380D01*
X138176095Y-71420571D02*
X138747523Y-71420571D01*
X138747523Y-71944380D02*
X138747523Y-70944380D01*
X139747523Y-71944380D02*
X139176095Y-71944380D01*
X139461809Y-71944380D02*
X139461809Y-70944380D01*
X139366571Y-71087238D01*
X139271333Y-71182476D01*
X139176095Y-71230095D01*
X190523904Y-56332380D02*
X190523904Y-55332380D01*
X190762000Y-55332380D01*
X190904857Y-55380000D01*
X191000095Y-55475238D01*
X191047714Y-55570476D01*
X191095333Y-55760952D01*
X191095333Y-55903809D01*
X191047714Y-56094285D01*
X191000095Y-56189523D01*
X190904857Y-56284761D01*
X190762000Y-56332380D01*
X190523904Y-56332380D01*
X191952476Y-55665714D02*
X191952476Y-56332380D01*
X191714380Y-55284761D02*
X191476285Y-55999047D01*
X192095333Y-55999047D01*
X155725904Y-56293380D02*
X155725904Y-55293380D01*
X155964000Y-55293380D01*
X156106857Y-55341000D01*
X156202095Y-55436238D01*
X156249714Y-55531476D01*
X156297333Y-55721952D01*
X156297333Y-55864809D01*
X156249714Y-56055285D01*
X156202095Y-56150523D01*
X156106857Y-56245761D01*
X155964000Y-56293380D01*
X155725904Y-56293380D01*
X156630666Y-55293380D02*
X157249714Y-55293380D01*
X156916380Y-55674333D01*
X157059238Y-55674333D01*
X157154476Y-55721952D01*
X157202095Y-55769571D01*
X157249714Y-55864809D01*
X157249714Y-56102904D01*
X157202095Y-56198142D01*
X157154476Y-56245761D01*
X157059238Y-56293380D01*
X156773523Y-56293380D01*
X156678285Y-56245761D01*
X156630666Y-56198142D01*
X173505904Y-56840380D02*
X173505904Y-55840380D01*
X173744000Y-55840380D01*
X173886857Y-55888000D01*
X173982095Y-55983238D01*
X174029714Y-56078476D01*
X174077333Y-56268952D01*
X174077333Y-56411809D01*
X174029714Y-56602285D01*
X173982095Y-56697523D01*
X173886857Y-56792761D01*
X173744000Y-56840380D01*
X173505904Y-56840380D01*
X174458285Y-55935619D02*
X174505904Y-55888000D01*
X174601142Y-55840380D01*
X174839238Y-55840380D01*
X174934476Y-55888000D01*
X174982095Y-55935619D01*
X175029714Y-56030857D01*
X175029714Y-56126095D01*
X174982095Y-56268952D01*
X174410666Y-56840380D01*
X175029714Y-56840380D01*
X182776833Y-67954142D02*
X182729214Y-68001761D01*
X182586357Y-68049380D01*
X182491119Y-68049380D01*
X182348261Y-68001761D01*
X182253023Y-67906523D01*
X182205404Y-67811285D01*
X182157785Y-67620809D01*
X182157785Y-67477952D01*
X182205404Y-67287476D01*
X182253023Y-67192238D01*
X182348261Y-67097000D01*
X182491119Y-67049380D01*
X182586357Y-67049380D01*
X182729214Y-67097000D01*
X182776833Y-67144619D01*
X183681595Y-67049380D02*
X183205404Y-67049380D01*
X183157785Y-67525571D01*
X183205404Y-67477952D01*
X183300642Y-67430333D01*
X183538738Y-67430333D01*
X183633976Y-67477952D01*
X183681595Y-67525571D01*
X183729214Y-67620809D01*
X183729214Y-67858904D01*
X183681595Y-67954142D01*
X183633976Y-68001761D01*
X183538738Y-68049380D01*
X183300642Y-68049380D01*
X183205404Y-68001761D01*
X183157785Y-67954142D01*
X181172142Y-96279166D02*
X181219761Y-96326785D01*
X181267380Y-96469642D01*
X181267380Y-96564880D01*
X181219761Y-96707738D01*
X181124523Y-96802976D01*
X181029285Y-96850595D01*
X180838809Y-96898214D01*
X180695952Y-96898214D01*
X180505476Y-96850595D01*
X180410238Y-96802976D01*
X180315000Y-96707738D01*
X180267380Y-96564880D01*
X180267380Y-96469642D01*
X180315000Y-96326785D01*
X180362619Y-96279166D01*
X180600714Y-95422023D02*
X181267380Y-95422023D01*
X180219761Y-95660119D02*
X180934047Y-95898214D01*
X180934047Y-95279166D01*
X168997333Y-80367142D02*
X168949714Y-80414761D01*
X168806857Y-80462380D01*
X168711619Y-80462380D01*
X168568761Y-80414761D01*
X168473523Y-80319523D01*
X168425904Y-80224285D01*
X168378285Y-80033809D01*
X168378285Y-79890952D01*
X168425904Y-79700476D01*
X168473523Y-79605238D01*
X168568761Y-79510000D01*
X168711619Y-79462380D01*
X168806857Y-79462380D01*
X168949714Y-79510000D01*
X168997333Y-79557619D01*
X169378285Y-79557619D02*
X169425904Y-79510000D01*
X169521142Y-79462380D01*
X169759238Y-79462380D01*
X169854476Y-79510000D01*
X169902095Y-79557619D01*
X169949714Y-79652857D01*
X169949714Y-79748095D01*
X169902095Y-79890952D01*
X169330666Y-80462380D01*
X169949714Y-80462380D01*
X165441333Y-65729142D02*
X165393714Y-65776761D01*
X165250857Y-65824380D01*
X165155619Y-65824380D01*
X165012761Y-65776761D01*
X164917523Y-65681523D01*
X164869904Y-65586285D01*
X164822285Y-65395809D01*
X164822285Y-65252952D01*
X164869904Y-65062476D01*
X164917523Y-64967238D01*
X165012761Y-64872000D01*
X165155619Y-64824380D01*
X165250857Y-64824380D01*
X165393714Y-64872000D01*
X165441333Y-64919619D01*
X166393714Y-65824380D02*
X165822285Y-65824380D01*
X166108000Y-65824380D02*
X166108000Y-64824380D01*
X166012761Y-64967238D01*
X165917523Y-65062476D01*
X165822285Y-65110095D01*
M02*
