M48
; DRILL file {KiCad 5.1.7-a382d34a8~88~ubuntu18.04.1} date Thu Feb 25 09:37:13 2021
; FORMAT={-:-/ absolute / metric / decimal}
; #@! TF.CreationDate,2021-02-25T09:37:13-05:00
; #@! TF.GenerationSoftware,Kicad,Pcbnew,5.1.7-a382d34a8~88~ubuntu18.04.1
FMAT,2
METRIC
T1C0.200
T2C0.900
T3C0.950
T4C1.000
T5C1.750
T6C1.850
T7C2.000
T8C3.200
%
G90
G05
T1
X155.448Y-76.708
X161.036Y-77.724
X163.052Y-76.698
X163.068Y-66.929
X163.068Y-75.946
X163.576Y-70.866
X164.592Y-81.534
X165.989Y-76.454
X166.116Y-83.566
X166.497Y-75.946
X166.751Y-64.897
X167.005Y-75.311
X167.259Y-64.389
X167.767Y-64.008
X168.148Y-74.93
X168.176Y-66.068
X168.402Y-75.946
X168.91Y-80.137
X169.672Y-80.137
X169.926Y-83.566
X170.434Y-70.288
X170.561Y-80.137
X172.212Y-73.73
X177.546Y-66.04
X178.054Y-70.288
X178.181Y-66.04
X178.308Y-79.248
X178.816Y-66.04
X179.451Y-66.04
X180.848Y-76.708
X182.88Y-72.644
X182.88Y-73.66
X183.134Y-70.866
X183.134Y-71.628
T2
X189.992Y-59.334
X192.532Y-59.334
X155.194Y-58.801
X157.734Y-58.801
X172.974Y-59.538
X175.514Y-59.538
T3
X197.104Y-69.469
X197.104Y-71.969
X197.104Y-74.469
X147.574Y-73.279
X149.342Y-71.511
X151.11Y-69.743
X152.877Y-67.976
X197.104Y-83.439
X197.104Y-85.939
X197.104Y-88.439
X140.589Y-82.924
X140.589Y-85.424
X140.589Y-87.924
X140.589Y-90.424
T4
X186.436Y-98.615
X188.976Y-98.615
X191.516Y-98.615
X199.39Y-57.15
X199.39Y-59.69
X199.39Y-62.23
X201.93Y-57.15
X201.93Y-59.69
X201.93Y-62.23
T5
X143.384Y-106.744
X143.384Y-114.744
X145.384Y-110.744
X147.384Y-106.744
X147.384Y-114.744
X149.384Y-110.744
X151.384Y-106.744
X151.384Y-114.744
X153.384Y-110.744
X155.384Y-106.744
X155.384Y-114.744
X157.384Y-110.744
X159.384Y-106.744
X159.384Y-114.744
T6
X159.639Y-84.326
X159.639Y-89.026
X159.639Y-93.726
X175.895Y-84.327
X175.895Y-89.027
X175.895Y-93.727
T7
X132.184Y-118.044
X133.684Y-99.944
X169.084Y-99.944
X170.584Y-118.044
T8
X138.938Y-75.692
X202.184Y-97.091
T0
M30
