G04 #@! TF.GenerationSoftware,KiCad,Pcbnew,5.1.7-a382d34a8~88~ubuntu18.04.1*
G04 #@! TF.CreationDate,2021-02-25T09:37:14-05:00*
G04 #@! TF.ProjectId,Dash_Right,44617368-5f52-4696-9768-742e6b696361,rev?*
G04 #@! TF.SameCoordinates,Original*
G04 #@! TF.FileFunction,Paste,Top*
G04 #@! TF.FilePolarity,Positive*
%FSLAX46Y46*%
G04 Gerber Fmt 4.6, Leading zero omitted, Abs format (unit mm)*
G04 Created by KiCad (PCBNEW 5.1.7-a382d34a8~88~ubuntu18.04.1) date 2021-02-25 09:37:14*
%MOMM*%
%LPD*%
G01*
G04 APERTURE LIST*
%ADD10R,1.600000X0.550000*%
%ADD11R,0.550000X1.600000*%
%ADD12R,0.900000X0.600000*%
%ADD13R,0.600000X0.900000*%
%ADD14R,0.600000X1.050000*%
G04 APERTURE END LIST*
G36*
G01*
X184473000Y-68412500D02*
X184473000Y-68112500D01*
G75*
G02*
X184623000Y-67962500I150000J0D01*
G01*
X186373000Y-67962500D01*
G75*
G02*
X186523000Y-68112500I0J-150000D01*
G01*
X186523000Y-68412500D01*
G75*
G02*
X186373000Y-68562500I-150000J0D01*
G01*
X184623000Y-68562500D01*
G75*
G02*
X184473000Y-68412500I0J150000D01*
G01*
G37*
G36*
G01*
X184473000Y-69682500D02*
X184473000Y-69382500D01*
G75*
G02*
X184623000Y-69232500I150000J0D01*
G01*
X186373000Y-69232500D01*
G75*
G02*
X186523000Y-69382500I0J-150000D01*
G01*
X186523000Y-69682500D01*
G75*
G02*
X186373000Y-69832500I-150000J0D01*
G01*
X184623000Y-69832500D01*
G75*
G02*
X184473000Y-69682500I0J150000D01*
G01*
G37*
G36*
G01*
X184473000Y-70952500D02*
X184473000Y-70652500D01*
G75*
G02*
X184623000Y-70502500I150000J0D01*
G01*
X186373000Y-70502500D01*
G75*
G02*
X186523000Y-70652500I0J-150000D01*
G01*
X186523000Y-70952500D01*
G75*
G02*
X186373000Y-71102500I-150000J0D01*
G01*
X184623000Y-71102500D01*
G75*
G02*
X184473000Y-70952500I0J150000D01*
G01*
G37*
G36*
G01*
X184473000Y-72222500D02*
X184473000Y-71922500D01*
G75*
G02*
X184623000Y-71772500I150000J0D01*
G01*
X186373000Y-71772500D01*
G75*
G02*
X186523000Y-71922500I0J-150000D01*
G01*
X186523000Y-72222500D01*
G75*
G02*
X186373000Y-72372500I-150000J0D01*
G01*
X184623000Y-72372500D01*
G75*
G02*
X184473000Y-72222500I0J150000D01*
G01*
G37*
G36*
G01*
X184473000Y-73492500D02*
X184473000Y-73192500D01*
G75*
G02*
X184623000Y-73042500I150000J0D01*
G01*
X186373000Y-73042500D01*
G75*
G02*
X186523000Y-73192500I0J-150000D01*
G01*
X186523000Y-73492500D01*
G75*
G02*
X186373000Y-73642500I-150000J0D01*
G01*
X184623000Y-73642500D01*
G75*
G02*
X184473000Y-73492500I0J150000D01*
G01*
G37*
G36*
G01*
X184473000Y-74762500D02*
X184473000Y-74462500D01*
G75*
G02*
X184623000Y-74312500I150000J0D01*
G01*
X186373000Y-74312500D01*
G75*
G02*
X186523000Y-74462500I0J-150000D01*
G01*
X186523000Y-74762500D01*
G75*
G02*
X186373000Y-74912500I-150000J0D01*
G01*
X184623000Y-74912500D01*
G75*
G02*
X184473000Y-74762500I0J150000D01*
G01*
G37*
G36*
G01*
X184473000Y-76032500D02*
X184473000Y-75732500D01*
G75*
G02*
X184623000Y-75582500I150000J0D01*
G01*
X186373000Y-75582500D01*
G75*
G02*
X186523000Y-75732500I0J-150000D01*
G01*
X186523000Y-76032500D01*
G75*
G02*
X186373000Y-76182500I-150000J0D01*
G01*
X184623000Y-76182500D01*
G75*
G02*
X184473000Y-76032500I0J150000D01*
G01*
G37*
G36*
G01*
X184473000Y-77302500D02*
X184473000Y-77002500D01*
G75*
G02*
X184623000Y-76852500I150000J0D01*
G01*
X186373000Y-76852500D01*
G75*
G02*
X186523000Y-77002500I0J-150000D01*
G01*
X186523000Y-77302500D01*
G75*
G02*
X186373000Y-77452500I-150000J0D01*
G01*
X184623000Y-77452500D01*
G75*
G02*
X184473000Y-77302500I0J150000D01*
G01*
G37*
G36*
G01*
X184473000Y-78572500D02*
X184473000Y-78272500D01*
G75*
G02*
X184623000Y-78122500I150000J0D01*
G01*
X186373000Y-78122500D01*
G75*
G02*
X186523000Y-78272500I0J-150000D01*
G01*
X186523000Y-78572500D01*
G75*
G02*
X186373000Y-78722500I-150000J0D01*
G01*
X184623000Y-78722500D01*
G75*
G02*
X184473000Y-78572500I0J150000D01*
G01*
G37*
G36*
G01*
X175173000Y-78572500D02*
X175173000Y-78272500D01*
G75*
G02*
X175323000Y-78122500I150000J0D01*
G01*
X177073000Y-78122500D01*
G75*
G02*
X177223000Y-78272500I0J-150000D01*
G01*
X177223000Y-78572500D01*
G75*
G02*
X177073000Y-78722500I-150000J0D01*
G01*
X175323000Y-78722500D01*
G75*
G02*
X175173000Y-78572500I0J150000D01*
G01*
G37*
G36*
G01*
X175173000Y-77302500D02*
X175173000Y-77002500D01*
G75*
G02*
X175323000Y-76852500I150000J0D01*
G01*
X177073000Y-76852500D01*
G75*
G02*
X177223000Y-77002500I0J-150000D01*
G01*
X177223000Y-77302500D01*
G75*
G02*
X177073000Y-77452500I-150000J0D01*
G01*
X175323000Y-77452500D01*
G75*
G02*
X175173000Y-77302500I0J150000D01*
G01*
G37*
G36*
G01*
X175173000Y-76032500D02*
X175173000Y-75732500D01*
G75*
G02*
X175323000Y-75582500I150000J0D01*
G01*
X177073000Y-75582500D01*
G75*
G02*
X177223000Y-75732500I0J-150000D01*
G01*
X177223000Y-76032500D01*
G75*
G02*
X177073000Y-76182500I-150000J0D01*
G01*
X175323000Y-76182500D01*
G75*
G02*
X175173000Y-76032500I0J150000D01*
G01*
G37*
G36*
G01*
X175173000Y-74762500D02*
X175173000Y-74462500D01*
G75*
G02*
X175323000Y-74312500I150000J0D01*
G01*
X177073000Y-74312500D01*
G75*
G02*
X177223000Y-74462500I0J-150000D01*
G01*
X177223000Y-74762500D01*
G75*
G02*
X177073000Y-74912500I-150000J0D01*
G01*
X175323000Y-74912500D01*
G75*
G02*
X175173000Y-74762500I0J150000D01*
G01*
G37*
G36*
G01*
X175173000Y-73492500D02*
X175173000Y-73192500D01*
G75*
G02*
X175323000Y-73042500I150000J0D01*
G01*
X177073000Y-73042500D01*
G75*
G02*
X177223000Y-73192500I0J-150000D01*
G01*
X177223000Y-73492500D01*
G75*
G02*
X177073000Y-73642500I-150000J0D01*
G01*
X175323000Y-73642500D01*
G75*
G02*
X175173000Y-73492500I0J150000D01*
G01*
G37*
G36*
G01*
X175173000Y-72222500D02*
X175173000Y-71922500D01*
G75*
G02*
X175323000Y-71772500I150000J0D01*
G01*
X177073000Y-71772500D01*
G75*
G02*
X177223000Y-71922500I0J-150000D01*
G01*
X177223000Y-72222500D01*
G75*
G02*
X177073000Y-72372500I-150000J0D01*
G01*
X175323000Y-72372500D01*
G75*
G02*
X175173000Y-72222500I0J150000D01*
G01*
G37*
G36*
G01*
X175173000Y-70952500D02*
X175173000Y-70652500D01*
G75*
G02*
X175323000Y-70502500I150000J0D01*
G01*
X177073000Y-70502500D01*
G75*
G02*
X177223000Y-70652500I0J-150000D01*
G01*
X177223000Y-70952500D01*
G75*
G02*
X177073000Y-71102500I-150000J0D01*
G01*
X175323000Y-71102500D01*
G75*
G02*
X175173000Y-70952500I0J150000D01*
G01*
G37*
G36*
G01*
X175173000Y-69682500D02*
X175173000Y-69382500D01*
G75*
G02*
X175323000Y-69232500I150000J0D01*
G01*
X177073000Y-69232500D01*
G75*
G02*
X177223000Y-69382500I0J-150000D01*
G01*
X177223000Y-69682500D01*
G75*
G02*
X177073000Y-69832500I-150000J0D01*
G01*
X175323000Y-69832500D01*
G75*
G02*
X175173000Y-69682500I0J150000D01*
G01*
G37*
G36*
G01*
X175173000Y-68412500D02*
X175173000Y-68112500D01*
G75*
G02*
X175323000Y-67962500I150000J0D01*
G01*
X177073000Y-67962500D01*
G75*
G02*
X177223000Y-68112500I0J-150000D01*
G01*
X177223000Y-68412500D01*
G75*
G02*
X177073000Y-68562500I-150000J0D01*
G01*
X175323000Y-68562500D01*
G75*
G02*
X175173000Y-68412500I0J150000D01*
G01*
G37*
D10*
X169794500Y-71050500D03*
X169794500Y-71850500D03*
X169794500Y-72650500D03*
X169794500Y-73450500D03*
X169794500Y-74250500D03*
X169794500Y-75050500D03*
X169794500Y-75850500D03*
X169794500Y-76650500D03*
D11*
X168344500Y-78100500D03*
X167544500Y-78100500D03*
X166744500Y-78100500D03*
X165944500Y-78100500D03*
X165144500Y-78100500D03*
X164344500Y-78100500D03*
X163544500Y-78100500D03*
X162744500Y-78100500D03*
D10*
X161294500Y-76650500D03*
X161294500Y-75850500D03*
X161294500Y-75050500D03*
X161294500Y-74250500D03*
X161294500Y-73450500D03*
X161294500Y-72650500D03*
X161294500Y-71850500D03*
X161294500Y-71050500D03*
D11*
X162744500Y-69600500D03*
X163544500Y-69600500D03*
X164344500Y-69600500D03*
X165144500Y-69600500D03*
X165944500Y-69600500D03*
X166744500Y-69600500D03*
X167544500Y-69600500D03*
X168344500Y-69600500D03*
G36*
G01*
X187178500Y-66404500D02*
X187178500Y-65929500D01*
G75*
G02*
X187416000Y-65692000I237500J0D01*
G01*
X187916000Y-65692000D01*
G75*
G02*
X188153500Y-65929500I0J-237500D01*
G01*
X188153500Y-66404500D01*
G75*
G02*
X187916000Y-66642000I-237500J0D01*
G01*
X187416000Y-66642000D01*
G75*
G02*
X187178500Y-66404500I0J237500D01*
G01*
G37*
G36*
G01*
X185353500Y-66404500D02*
X185353500Y-65929500D01*
G75*
G02*
X185591000Y-65692000I237500J0D01*
G01*
X186091000Y-65692000D01*
G75*
G02*
X186328500Y-65929500I0J-237500D01*
G01*
X186328500Y-66404500D01*
G75*
G02*
X186091000Y-66642000I-237500J0D01*
G01*
X185591000Y-66642000D01*
G75*
G02*
X185353500Y-66404500I0J237500D01*
G01*
G37*
G36*
G01*
X192042600Y-62975500D02*
X192042600Y-62500500D01*
G75*
G02*
X192280100Y-62263000I237500J0D01*
G01*
X192780100Y-62263000D01*
G75*
G02*
X193017600Y-62500500I0J-237500D01*
G01*
X193017600Y-62975500D01*
G75*
G02*
X192780100Y-63213000I-237500J0D01*
G01*
X192280100Y-63213000D01*
G75*
G02*
X192042600Y-62975500I0J237500D01*
G01*
G37*
G36*
G01*
X190217600Y-62975500D02*
X190217600Y-62500500D01*
G75*
G02*
X190455100Y-62263000I237500J0D01*
G01*
X190955100Y-62263000D01*
G75*
G02*
X191192600Y-62500500I0J-237500D01*
G01*
X191192600Y-62975500D01*
G75*
G02*
X190955100Y-63213000I-237500J0D01*
G01*
X190455100Y-63213000D01*
G75*
G02*
X190217600Y-62975500I0J237500D01*
G01*
G37*
G36*
G01*
X155721500Y-62183000D02*
X155721500Y-62658000D01*
G75*
G02*
X155484000Y-62895500I-237500J0D01*
G01*
X154984000Y-62895500D01*
G75*
G02*
X154746500Y-62658000I0J237500D01*
G01*
X154746500Y-62183000D01*
G75*
G02*
X154984000Y-61945500I237500J0D01*
G01*
X155484000Y-61945500D01*
G75*
G02*
X155721500Y-62183000I0J-237500D01*
G01*
G37*
G36*
G01*
X157546500Y-62183000D02*
X157546500Y-62658000D01*
G75*
G02*
X157309000Y-62895500I-237500J0D01*
G01*
X156809000Y-62895500D01*
G75*
G02*
X156571500Y-62658000I0J237500D01*
G01*
X156571500Y-62183000D01*
G75*
G02*
X156809000Y-61945500I237500J0D01*
G01*
X157309000Y-61945500D01*
G75*
G02*
X157546500Y-62183000I0J-237500D01*
G01*
G37*
G36*
G01*
X175050000Y-63102500D02*
X175050000Y-62627500D01*
G75*
G02*
X175287500Y-62390000I237500J0D01*
G01*
X175787500Y-62390000D01*
G75*
G02*
X176025000Y-62627500I0J-237500D01*
G01*
X176025000Y-63102500D01*
G75*
G02*
X175787500Y-63340000I-237500J0D01*
G01*
X175287500Y-63340000D01*
G75*
G02*
X175050000Y-63102500I0J237500D01*
G01*
G37*
G36*
G01*
X173225000Y-63102500D02*
X173225000Y-62627500D01*
G75*
G02*
X173462500Y-62390000I237500J0D01*
G01*
X173962500Y-62390000D01*
G75*
G02*
X174200000Y-62627500I0J-237500D01*
G01*
X174200000Y-63102500D01*
G75*
G02*
X173962500Y-63340000I-237500J0D01*
G01*
X173462500Y-63340000D01*
G75*
G02*
X173225000Y-63102500I0J237500D01*
G01*
G37*
G36*
G01*
X148776500Y-82058500D02*
X148776500Y-82533500D01*
G75*
G02*
X148539000Y-82771000I-237500J0D01*
G01*
X148039000Y-82771000D01*
G75*
G02*
X147801500Y-82533500I0J237500D01*
G01*
X147801500Y-82058500D01*
G75*
G02*
X148039000Y-81821000I237500J0D01*
G01*
X148539000Y-81821000D01*
G75*
G02*
X148776500Y-82058500I0J-237500D01*
G01*
G37*
G36*
G01*
X150601500Y-82058500D02*
X150601500Y-82533500D01*
G75*
G02*
X150364000Y-82771000I-237500J0D01*
G01*
X149864000Y-82771000D01*
G75*
G02*
X149626500Y-82533500I0J237500D01*
G01*
X149626500Y-82058500D01*
G75*
G02*
X149864000Y-81821000I237500J0D01*
G01*
X150364000Y-81821000D01*
G75*
G02*
X150601500Y-82058500I0J-237500D01*
G01*
G37*
G36*
G01*
X163338500Y-96079500D02*
X163813500Y-96079500D01*
G75*
G02*
X164051000Y-96317000I0J-237500D01*
G01*
X164051000Y-96817000D01*
G75*
G02*
X163813500Y-97054500I-237500J0D01*
G01*
X163338500Y-97054500D01*
G75*
G02*
X163101000Y-96817000I0J237500D01*
G01*
X163101000Y-96317000D01*
G75*
G02*
X163338500Y-96079500I237500J0D01*
G01*
G37*
G36*
G01*
X163338500Y-94254500D02*
X163813500Y-94254500D01*
G75*
G02*
X164051000Y-94492000I0J-237500D01*
G01*
X164051000Y-94992000D01*
G75*
G02*
X163813500Y-95229500I-237500J0D01*
G01*
X163338500Y-95229500D01*
G75*
G02*
X163101000Y-94992000I0J237500D01*
G01*
X163101000Y-94492000D01*
G75*
G02*
X163338500Y-94254500I237500J0D01*
G01*
G37*
G36*
G01*
X172482500Y-96032500D02*
X172957500Y-96032500D01*
G75*
G02*
X173195000Y-96270000I0J-237500D01*
G01*
X173195000Y-96770000D01*
G75*
G02*
X172957500Y-97007500I-237500J0D01*
G01*
X172482500Y-97007500D01*
G75*
G02*
X172245000Y-96770000I0J237500D01*
G01*
X172245000Y-96270000D01*
G75*
G02*
X172482500Y-96032500I237500J0D01*
G01*
G37*
G36*
G01*
X172482500Y-94207500D02*
X172957500Y-94207500D01*
G75*
G02*
X173195000Y-94445000I0J-237500D01*
G01*
X173195000Y-94945000D01*
G75*
G02*
X172957500Y-95182500I-237500J0D01*
G01*
X172482500Y-95182500D01*
G75*
G02*
X172245000Y-94945000I0J237500D01*
G01*
X172245000Y-94445000D01*
G75*
G02*
X172482500Y-94207500I237500J0D01*
G01*
G37*
D12*
X150114000Y-90228000D03*
D13*
X149514000Y-92928000D03*
D14*
X148204000Y-87208000D03*
X149474000Y-87208000D03*
X152024000Y-87208000D03*
X150754000Y-87208000D03*
D13*
X150714000Y-92928000D03*
X148234000Y-92928000D03*
X151994000Y-92928000D03*
D12*
X150114000Y-89378000D03*
X150114000Y-91078000D03*
X148964000Y-91078000D03*
X148964000Y-89378000D03*
X148964000Y-90228000D03*
X151264000Y-91078000D03*
X151264000Y-89378000D03*
X151264000Y-90228000D03*
G36*
G01*
X182618500Y-65929500D02*
X182618500Y-66404500D01*
G75*
G02*
X182381000Y-66642000I-237500J0D01*
G01*
X181781000Y-66642000D01*
G75*
G02*
X181543500Y-66404500I0J237500D01*
G01*
X181543500Y-65929500D01*
G75*
G02*
X181781000Y-65692000I237500J0D01*
G01*
X182381000Y-65692000D01*
G75*
G02*
X182618500Y-65929500I0J-237500D01*
G01*
G37*
G36*
G01*
X184343500Y-65929500D02*
X184343500Y-66404500D01*
G75*
G02*
X184106000Y-66642000I-237500J0D01*
G01*
X183506000Y-66642000D01*
G75*
G02*
X183268500Y-66404500I0J237500D01*
G01*
X183268500Y-65929500D01*
G75*
G02*
X183506000Y-65692000I237500J0D01*
G01*
X184106000Y-65692000D01*
G75*
G02*
X184343500Y-65929500I0J-237500D01*
G01*
G37*
G36*
G01*
X182482500Y-95787500D02*
X182007500Y-95787500D01*
G75*
G02*
X181770000Y-95550000I0J237500D01*
G01*
X181770000Y-94950000D01*
G75*
G02*
X182007500Y-94712500I237500J0D01*
G01*
X182482500Y-94712500D01*
G75*
G02*
X182720000Y-94950000I0J-237500D01*
G01*
X182720000Y-95550000D01*
G75*
G02*
X182482500Y-95787500I-237500J0D01*
G01*
G37*
G36*
G01*
X182482500Y-97512500D02*
X182007500Y-97512500D01*
G75*
G02*
X181770000Y-97275000I0J237500D01*
G01*
X181770000Y-96675000D01*
G75*
G02*
X182007500Y-96437500I237500J0D01*
G01*
X182482500Y-96437500D01*
G75*
G02*
X182720000Y-96675000I0J-237500D01*
G01*
X182720000Y-97275000D01*
G75*
G02*
X182482500Y-97512500I-237500J0D01*
G01*
G37*
G36*
G01*
X166541500Y-80501500D02*
X166541500Y-80026500D01*
G75*
G02*
X166779000Y-79789000I237500J0D01*
G01*
X167379000Y-79789000D01*
G75*
G02*
X167616500Y-80026500I0J-237500D01*
G01*
X167616500Y-80501500D01*
G75*
G02*
X167379000Y-80739000I-237500J0D01*
G01*
X166779000Y-80739000D01*
G75*
G02*
X166541500Y-80501500I0J237500D01*
G01*
G37*
G36*
G01*
X164816500Y-80501500D02*
X164816500Y-80026500D01*
G75*
G02*
X165054000Y-79789000I237500J0D01*
G01*
X165654000Y-79789000D01*
G75*
G02*
X165891500Y-80026500I0J-237500D01*
G01*
X165891500Y-80501500D01*
G75*
G02*
X165654000Y-80739000I-237500J0D01*
G01*
X165054000Y-80739000D01*
G75*
G02*
X164816500Y-80501500I0J237500D01*
G01*
G37*
G36*
G01*
X165933000Y-67039500D02*
X165933000Y-66564500D01*
G75*
G02*
X166170500Y-66327000I237500J0D01*
G01*
X166770500Y-66327000D01*
G75*
G02*
X167008000Y-66564500I0J-237500D01*
G01*
X167008000Y-67039500D01*
G75*
G02*
X166770500Y-67277000I-237500J0D01*
G01*
X166170500Y-67277000D01*
G75*
G02*
X165933000Y-67039500I0J237500D01*
G01*
G37*
G36*
G01*
X164208000Y-67039500D02*
X164208000Y-66564500D01*
G75*
G02*
X164445500Y-66327000I237500J0D01*
G01*
X165045500Y-66327000D01*
G75*
G02*
X165283000Y-66564500I0J-237500D01*
G01*
X165283000Y-67039500D01*
G75*
G02*
X165045500Y-67277000I-237500J0D01*
G01*
X164445500Y-67277000D01*
G75*
G02*
X164208000Y-67039500I0J237500D01*
G01*
G37*
M02*
