G04 #@! TF.GenerationSoftware,KiCad,Pcbnew,5.1.7-a382d34a8~88~ubuntu18.04.1*
G04 #@! TF.CreationDate,2021-02-25T09:37:14-05:00*
G04 #@! TF.ProjectId,Dash_Right,44617368-5f52-4696-9768-742e6b696361,rev?*
G04 #@! TF.SameCoordinates,Original*
G04 #@! TF.FileFunction,Soldermask,Top*
G04 #@! TF.FilePolarity,Negative*
%FSLAX46Y46*%
G04 Gerber Fmt 4.6, Leading zero omitted, Abs format (unit mm)*
G04 Created by KiCad (PCBNEW 5.1.7-a382d34a8~88~ubuntu18.04.1) date 2021-02-25 09:37:14*
%MOMM*%
%LPD*%
G01*
G04 APERTURE LIST*
%ADD10C,2.000000*%
%ADD11C,2.625000*%
%ADD12R,2.625000X2.625000*%
%ADD13O,1.700000X1.700000*%
%ADD14R,1.700000X1.700000*%
%ADD15O,1.500000X2.300000*%
%ADD16R,1.500000X2.300000*%
%ADD17R,1.600000X0.550000*%
%ADD18R,0.550000X1.600000*%
%ADD19R,2.850000X2.850000*%
%ADD20C,2.850000*%
%ADD21C,0.100000*%
%ADD22O,1.950000X1.700000*%
%ADD23C,3.200000*%
%ADD24C,1.800000*%
%ADD25R,1.800000X1.800000*%
G04 APERTURE END LIST*
D10*
X132184000Y-118044000D03*
X170584000Y-118044000D03*
X133684000Y-99944000D03*
X169084000Y-99944000D03*
D11*
X143384000Y-114744000D03*
X147384000Y-114744000D03*
X151384000Y-114744000D03*
X155384000Y-114744000D03*
X159384000Y-114744000D03*
X145384000Y-110744000D03*
X149384000Y-110744000D03*
X153384000Y-110744000D03*
X157384000Y-110744000D03*
X143384000Y-106744000D03*
X147384000Y-106744000D03*
X151384000Y-106744000D03*
X155384000Y-106744000D03*
D12*
X159384000Y-106744000D03*
D13*
X199390000Y-62230000D03*
X201930000Y-62230000D03*
X199390000Y-59690000D03*
X201930000Y-59690000D03*
X199390000Y-57150000D03*
D14*
X201930000Y-57150000D03*
G36*
G01*
X184473000Y-68412500D02*
X184473000Y-68112500D01*
G75*
G02*
X184623000Y-67962500I150000J0D01*
G01*
X186373000Y-67962500D01*
G75*
G02*
X186523000Y-68112500I0J-150000D01*
G01*
X186523000Y-68412500D01*
G75*
G02*
X186373000Y-68562500I-150000J0D01*
G01*
X184623000Y-68562500D01*
G75*
G02*
X184473000Y-68412500I0J150000D01*
G01*
G37*
G36*
G01*
X184473000Y-69682500D02*
X184473000Y-69382500D01*
G75*
G02*
X184623000Y-69232500I150000J0D01*
G01*
X186373000Y-69232500D01*
G75*
G02*
X186523000Y-69382500I0J-150000D01*
G01*
X186523000Y-69682500D01*
G75*
G02*
X186373000Y-69832500I-150000J0D01*
G01*
X184623000Y-69832500D01*
G75*
G02*
X184473000Y-69682500I0J150000D01*
G01*
G37*
G36*
G01*
X184473000Y-70952500D02*
X184473000Y-70652500D01*
G75*
G02*
X184623000Y-70502500I150000J0D01*
G01*
X186373000Y-70502500D01*
G75*
G02*
X186523000Y-70652500I0J-150000D01*
G01*
X186523000Y-70952500D01*
G75*
G02*
X186373000Y-71102500I-150000J0D01*
G01*
X184623000Y-71102500D01*
G75*
G02*
X184473000Y-70952500I0J150000D01*
G01*
G37*
G36*
G01*
X184473000Y-72222500D02*
X184473000Y-71922500D01*
G75*
G02*
X184623000Y-71772500I150000J0D01*
G01*
X186373000Y-71772500D01*
G75*
G02*
X186523000Y-71922500I0J-150000D01*
G01*
X186523000Y-72222500D01*
G75*
G02*
X186373000Y-72372500I-150000J0D01*
G01*
X184623000Y-72372500D01*
G75*
G02*
X184473000Y-72222500I0J150000D01*
G01*
G37*
G36*
G01*
X184473000Y-73492500D02*
X184473000Y-73192500D01*
G75*
G02*
X184623000Y-73042500I150000J0D01*
G01*
X186373000Y-73042500D01*
G75*
G02*
X186523000Y-73192500I0J-150000D01*
G01*
X186523000Y-73492500D01*
G75*
G02*
X186373000Y-73642500I-150000J0D01*
G01*
X184623000Y-73642500D01*
G75*
G02*
X184473000Y-73492500I0J150000D01*
G01*
G37*
G36*
G01*
X184473000Y-74762500D02*
X184473000Y-74462500D01*
G75*
G02*
X184623000Y-74312500I150000J0D01*
G01*
X186373000Y-74312500D01*
G75*
G02*
X186523000Y-74462500I0J-150000D01*
G01*
X186523000Y-74762500D01*
G75*
G02*
X186373000Y-74912500I-150000J0D01*
G01*
X184623000Y-74912500D01*
G75*
G02*
X184473000Y-74762500I0J150000D01*
G01*
G37*
G36*
G01*
X184473000Y-76032500D02*
X184473000Y-75732500D01*
G75*
G02*
X184623000Y-75582500I150000J0D01*
G01*
X186373000Y-75582500D01*
G75*
G02*
X186523000Y-75732500I0J-150000D01*
G01*
X186523000Y-76032500D01*
G75*
G02*
X186373000Y-76182500I-150000J0D01*
G01*
X184623000Y-76182500D01*
G75*
G02*
X184473000Y-76032500I0J150000D01*
G01*
G37*
G36*
G01*
X184473000Y-77302500D02*
X184473000Y-77002500D01*
G75*
G02*
X184623000Y-76852500I150000J0D01*
G01*
X186373000Y-76852500D01*
G75*
G02*
X186523000Y-77002500I0J-150000D01*
G01*
X186523000Y-77302500D01*
G75*
G02*
X186373000Y-77452500I-150000J0D01*
G01*
X184623000Y-77452500D01*
G75*
G02*
X184473000Y-77302500I0J150000D01*
G01*
G37*
G36*
G01*
X184473000Y-78572500D02*
X184473000Y-78272500D01*
G75*
G02*
X184623000Y-78122500I150000J0D01*
G01*
X186373000Y-78122500D01*
G75*
G02*
X186523000Y-78272500I0J-150000D01*
G01*
X186523000Y-78572500D01*
G75*
G02*
X186373000Y-78722500I-150000J0D01*
G01*
X184623000Y-78722500D01*
G75*
G02*
X184473000Y-78572500I0J150000D01*
G01*
G37*
G36*
G01*
X175173000Y-78572500D02*
X175173000Y-78272500D01*
G75*
G02*
X175323000Y-78122500I150000J0D01*
G01*
X177073000Y-78122500D01*
G75*
G02*
X177223000Y-78272500I0J-150000D01*
G01*
X177223000Y-78572500D01*
G75*
G02*
X177073000Y-78722500I-150000J0D01*
G01*
X175323000Y-78722500D01*
G75*
G02*
X175173000Y-78572500I0J150000D01*
G01*
G37*
G36*
G01*
X175173000Y-77302500D02*
X175173000Y-77002500D01*
G75*
G02*
X175323000Y-76852500I150000J0D01*
G01*
X177073000Y-76852500D01*
G75*
G02*
X177223000Y-77002500I0J-150000D01*
G01*
X177223000Y-77302500D01*
G75*
G02*
X177073000Y-77452500I-150000J0D01*
G01*
X175323000Y-77452500D01*
G75*
G02*
X175173000Y-77302500I0J150000D01*
G01*
G37*
G36*
G01*
X175173000Y-76032500D02*
X175173000Y-75732500D01*
G75*
G02*
X175323000Y-75582500I150000J0D01*
G01*
X177073000Y-75582500D01*
G75*
G02*
X177223000Y-75732500I0J-150000D01*
G01*
X177223000Y-76032500D01*
G75*
G02*
X177073000Y-76182500I-150000J0D01*
G01*
X175323000Y-76182500D01*
G75*
G02*
X175173000Y-76032500I0J150000D01*
G01*
G37*
G36*
G01*
X175173000Y-74762500D02*
X175173000Y-74462500D01*
G75*
G02*
X175323000Y-74312500I150000J0D01*
G01*
X177073000Y-74312500D01*
G75*
G02*
X177223000Y-74462500I0J-150000D01*
G01*
X177223000Y-74762500D01*
G75*
G02*
X177073000Y-74912500I-150000J0D01*
G01*
X175323000Y-74912500D01*
G75*
G02*
X175173000Y-74762500I0J150000D01*
G01*
G37*
G36*
G01*
X175173000Y-73492500D02*
X175173000Y-73192500D01*
G75*
G02*
X175323000Y-73042500I150000J0D01*
G01*
X177073000Y-73042500D01*
G75*
G02*
X177223000Y-73192500I0J-150000D01*
G01*
X177223000Y-73492500D01*
G75*
G02*
X177073000Y-73642500I-150000J0D01*
G01*
X175323000Y-73642500D01*
G75*
G02*
X175173000Y-73492500I0J150000D01*
G01*
G37*
G36*
G01*
X175173000Y-72222500D02*
X175173000Y-71922500D01*
G75*
G02*
X175323000Y-71772500I150000J0D01*
G01*
X177073000Y-71772500D01*
G75*
G02*
X177223000Y-71922500I0J-150000D01*
G01*
X177223000Y-72222500D01*
G75*
G02*
X177073000Y-72372500I-150000J0D01*
G01*
X175323000Y-72372500D01*
G75*
G02*
X175173000Y-72222500I0J150000D01*
G01*
G37*
G36*
G01*
X175173000Y-70952500D02*
X175173000Y-70652500D01*
G75*
G02*
X175323000Y-70502500I150000J0D01*
G01*
X177073000Y-70502500D01*
G75*
G02*
X177223000Y-70652500I0J-150000D01*
G01*
X177223000Y-70952500D01*
G75*
G02*
X177073000Y-71102500I-150000J0D01*
G01*
X175323000Y-71102500D01*
G75*
G02*
X175173000Y-70952500I0J150000D01*
G01*
G37*
G36*
G01*
X175173000Y-69682500D02*
X175173000Y-69382500D01*
G75*
G02*
X175323000Y-69232500I150000J0D01*
G01*
X177073000Y-69232500D01*
G75*
G02*
X177223000Y-69382500I0J-150000D01*
G01*
X177223000Y-69682500D01*
G75*
G02*
X177073000Y-69832500I-150000J0D01*
G01*
X175323000Y-69832500D01*
G75*
G02*
X175173000Y-69682500I0J150000D01*
G01*
G37*
G36*
G01*
X175173000Y-68412500D02*
X175173000Y-68112500D01*
G75*
G02*
X175323000Y-67962500I150000J0D01*
G01*
X177073000Y-67962500D01*
G75*
G02*
X177223000Y-68112500I0J-150000D01*
G01*
X177223000Y-68412500D01*
G75*
G02*
X177073000Y-68562500I-150000J0D01*
G01*
X175323000Y-68562500D01*
G75*
G02*
X175173000Y-68412500I0J150000D01*
G01*
G37*
D15*
X186436000Y-98615500D03*
X188976000Y-98615500D03*
D16*
X191516000Y-98615500D03*
D17*
X169794500Y-71050500D03*
X169794500Y-71850500D03*
X169794500Y-72650500D03*
X169794500Y-73450500D03*
X169794500Y-74250500D03*
X169794500Y-75050500D03*
X169794500Y-75850500D03*
X169794500Y-76650500D03*
D18*
X168344500Y-78100500D03*
X167544500Y-78100500D03*
X166744500Y-78100500D03*
X165944500Y-78100500D03*
X165144500Y-78100500D03*
X164344500Y-78100500D03*
X163544500Y-78100500D03*
X162744500Y-78100500D03*
D17*
X161294500Y-76650500D03*
X161294500Y-75850500D03*
X161294500Y-75050500D03*
X161294500Y-74250500D03*
X161294500Y-73450500D03*
X161294500Y-72650500D03*
X161294500Y-71850500D03*
X161294500Y-71050500D03*
D18*
X162744500Y-69600500D03*
X163544500Y-69600500D03*
X164344500Y-69600500D03*
X165144500Y-69600500D03*
X165944500Y-69600500D03*
X166744500Y-69600500D03*
X167544500Y-69600500D03*
X168344500Y-69600500D03*
D19*
X159639000Y-93726000D03*
D20*
X159639000Y-89026000D03*
X159639000Y-84326000D03*
D19*
X175895000Y-93727000D03*
D20*
X175895000Y-89027000D03*
X175895000Y-84327000D03*
G36*
G01*
X187178500Y-66404500D02*
X187178500Y-65929500D01*
G75*
G02*
X187416000Y-65692000I237500J0D01*
G01*
X187916000Y-65692000D01*
G75*
G02*
X188153500Y-65929500I0J-237500D01*
G01*
X188153500Y-66404500D01*
G75*
G02*
X187916000Y-66642000I-237500J0D01*
G01*
X187416000Y-66642000D01*
G75*
G02*
X187178500Y-66404500I0J237500D01*
G01*
G37*
G36*
G01*
X185353500Y-66404500D02*
X185353500Y-65929500D01*
G75*
G02*
X185591000Y-65692000I237500J0D01*
G01*
X186091000Y-65692000D01*
G75*
G02*
X186328500Y-65929500I0J-237500D01*
G01*
X186328500Y-66404500D01*
G75*
G02*
X186091000Y-66642000I-237500J0D01*
G01*
X185591000Y-66642000D01*
G75*
G02*
X185353500Y-66404500I0J237500D01*
G01*
G37*
G36*
G01*
X192042600Y-62975500D02*
X192042600Y-62500500D01*
G75*
G02*
X192280100Y-62263000I237500J0D01*
G01*
X192780100Y-62263000D01*
G75*
G02*
X193017600Y-62500500I0J-237500D01*
G01*
X193017600Y-62975500D01*
G75*
G02*
X192780100Y-63213000I-237500J0D01*
G01*
X192280100Y-63213000D01*
G75*
G02*
X192042600Y-62975500I0J237500D01*
G01*
G37*
G36*
G01*
X190217600Y-62975500D02*
X190217600Y-62500500D01*
G75*
G02*
X190455100Y-62263000I237500J0D01*
G01*
X190955100Y-62263000D01*
G75*
G02*
X191192600Y-62500500I0J-237500D01*
G01*
X191192600Y-62975500D01*
G75*
G02*
X190955100Y-63213000I-237500J0D01*
G01*
X190455100Y-63213000D01*
G75*
G02*
X190217600Y-62975500I0J237500D01*
G01*
G37*
G36*
G01*
X155721500Y-62183000D02*
X155721500Y-62658000D01*
G75*
G02*
X155484000Y-62895500I-237500J0D01*
G01*
X154984000Y-62895500D01*
G75*
G02*
X154746500Y-62658000I0J237500D01*
G01*
X154746500Y-62183000D01*
G75*
G02*
X154984000Y-61945500I237500J0D01*
G01*
X155484000Y-61945500D01*
G75*
G02*
X155721500Y-62183000I0J-237500D01*
G01*
G37*
G36*
G01*
X157546500Y-62183000D02*
X157546500Y-62658000D01*
G75*
G02*
X157309000Y-62895500I-237500J0D01*
G01*
X156809000Y-62895500D01*
G75*
G02*
X156571500Y-62658000I0J237500D01*
G01*
X156571500Y-62183000D01*
G75*
G02*
X156809000Y-61945500I237500J0D01*
G01*
X157309000Y-61945500D01*
G75*
G02*
X157546500Y-62183000I0J-237500D01*
G01*
G37*
G36*
G01*
X175050000Y-63102500D02*
X175050000Y-62627500D01*
G75*
G02*
X175287500Y-62390000I237500J0D01*
G01*
X175787500Y-62390000D01*
G75*
G02*
X176025000Y-62627500I0J-237500D01*
G01*
X176025000Y-63102500D01*
G75*
G02*
X175787500Y-63340000I-237500J0D01*
G01*
X175287500Y-63340000D01*
G75*
G02*
X175050000Y-63102500I0J237500D01*
G01*
G37*
G36*
G01*
X173225000Y-63102500D02*
X173225000Y-62627500D01*
G75*
G02*
X173462500Y-62390000I237500J0D01*
G01*
X173962500Y-62390000D01*
G75*
G02*
X174200000Y-62627500I0J-237500D01*
G01*
X174200000Y-63102500D01*
G75*
G02*
X173962500Y-63340000I-237500J0D01*
G01*
X173462500Y-63340000D01*
G75*
G02*
X173225000Y-63102500I0J237500D01*
G01*
G37*
G36*
G01*
X148776500Y-82058500D02*
X148776500Y-82533500D01*
G75*
G02*
X148539000Y-82771000I-237500J0D01*
G01*
X148039000Y-82771000D01*
G75*
G02*
X147801500Y-82533500I0J237500D01*
G01*
X147801500Y-82058500D01*
G75*
G02*
X148039000Y-81821000I237500J0D01*
G01*
X148539000Y-81821000D01*
G75*
G02*
X148776500Y-82058500I0J-237500D01*
G01*
G37*
G36*
G01*
X150601500Y-82058500D02*
X150601500Y-82533500D01*
G75*
G02*
X150364000Y-82771000I-237500J0D01*
G01*
X149864000Y-82771000D01*
G75*
G02*
X149626500Y-82533500I0J237500D01*
G01*
X149626500Y-82058500D01*
G75*
G02*
X149864000Y-81821000I237500J0D01*
G01*
X150364000Y-81821000D01*
G75*
G02*
X150601500Y-82058500I0J-237500D01*
G01*
G37*
G36*
G01*
X163338500Y-96079500D02*
X163813500Y-96079500D01*
G75*
G02*
X164051000Y-96317000I0J-237500D01*
G01*
X164051000Y-96817000D01*
G75*
G02*
X163813500Y-97054500I-237500J0D01*
G01*
X163338500Y-97054500D01*
G75*
G02*
X163101000Y-96817000I0J237500D01*
G01*
X163101000Y-96317000D01*
G75*
G02*
X163338500Y-96079500I237500J0D01*
G01*
G37*
G36*
G01*
X163338500Y-94254500D02*
X163813500Y-94254500D01*
G75*
G02*
X164051000Y-94492000I0J-237500D01*
G01*
X164051000Y-94992000D01*
G75*
G02*
X163813500Y-95229500I-237500J0D01*
G01*
X163338500Y-95229500D01*
G75*
G02*
X163101000Y-94992000I0J237500D01*
G01*
X163101000Y-94492000D01*
G75*
G02*
X163338500Y-94254500I237500J0D01*
G01*
G37*
G36*
G01*
X172482500Y-96032500D02*
X172957500Y-96032500D01*
G75*
G02*
X173195000Y-96270000I0J-237500D01*
G01*
X173195000Y-96770000D01*
G75*
G02*
X172957500Y-97007500I-237500J0D01*
G01*
X172482500Y-97007500D01*
G75*
G02*
X172245000Y-96770000I0J237500D01*
G01*
X172245000Y-96270000D01*
G75*
G02*
X172482500Y-96032500I237500J0D01*
G01*
G37*
G36*
G01*
X172482500Y-94207500D02*
X172957500Y-94207500D01*
G75*
G02*
X173195000Y-94445000I0J-237500D01*
G01*
X173195000Y-94945000D01*
G75*
G02*
X172957500Y-95182500I-237500J0D01*
G01*
X172482500Y-95182500D01*
G75*
G02*
X172245000Y-94945000I0J237500D01*
G01*
X172245000Y-94445000D01*
G75*
G02*
X172482500Y-94207500I237500J0D01*
G01*
G37*
D21*
G36*
X152532655Y-93466656D02*
G01*
X152528672Y-93479788D01*
X152522203Y-93491890D01*
X152513497Y-93502497D01*
X152502890Y-93511203D01*
X152490788Y-93517672D01*
X152477656Y-93521655D01*
X152464000Y-93523000D01*
X147764000Y-93523000D01*
X147750344Y-93521655D01*
X147737212Y-93517672D01*
X147725110Y-93511203D01*
X147714503Y-93502497D01*
X147705797Y-93491890D01*
X147699328Y-93479788D01*
X147695345Y-93466656D01*
X147694000Y-93453000D01*
X147694000Y-91903000D01*
X147695345Y-91889344D01*
X147699328Y-91876212D01*
X147705797Y-91864110D01*
X147714503Y-91853503D01*
X147725110Y-91844797D01*
X147737212Y-91838328D01*
X147750344Y-91834345D01*
X147764000Y-91833000D01*
X147944000Y-91833000D01*
X147944000Y-88828000D01*
X147945345Y-88814344D01*
X147949328Y-88801212D01*
X147955797Y-88789110D01*
X147964503Y-88778503D01*
X147975110Y-88769797D01*
X147987212Y-88763328D01*
X148000344Y-88759345D01*
X148014000Y-88758000D01*
X152214000Y-88758000D01*
X152227656Y-88759345D01*
X152240788Y-88763328D01*
X152252890Y-88769797D01*
X152263497Y-88778503D01*
X152272203Y-88789110D01*
X152278672Y-88801212D01*
X152282655Y-88814344D01*
X152284000Y-88828000D01*
X152284000Y-91833000D01*
X152464000Y-91833000D01*
X152477656Y-91834345D01*
X152490788Y-91838328D01*
X152502890Y-91844797D01*
X152513497Y-91853503D01*
X152522203Y-91864110D01*
X152528672Y-91876212D01*
X152532655Y-91889344D01*
X152534000Y-91903000D01*
X152534000Y-93453000D01*
X152532655Y-93466656D01*
G37*
G36*
G01*
X148624000Y-86633000D02*
X148624000Y-87783000D01*
G75*
G02*
X148554000Y-87853000I-70000J0D01*
G01*
X147854000Y-87853000D01*
G75*
G02*
X147784000Y-87783000I0J70000D01*
G01*
X147784000Y-86633000D01*
G75*
G02*
X147854000Y-86563000I70000J0D01*
G01*
X148554000Y-86563000D01*
G75*
G02*
X148624000Y-86633000I0J-70000D01*
G01*
G37*
G36*
G01*
X149894000Y-86633000D02*
X149894000Y-87783000D01*
G75*
G02*
X149824000Y-87853000I-70000J0D01*
G01*
X149124000Y-87853000D01*
G75*
G02*
X149054000Y-87783000I0J70000D01*
G01*
X149054000Y-86633000D01*
G75*
G02*
X149124000Y-86563000I70000J0D01*
G01*
X149824000Y-86563000D01*
G75*
G02*
X149894000Y-86633000I0J-70000D01*
G01*
G37*
G36*
G01*
X152444000Y-86633000D02*
X152444000Y-87783000D01*
G75*
G02*
X152374000Y-87853000I-70000J0D01*
G01*
X151674000Y-87853000D01*
G75*
G02*
X151604000Y-87783000I0J70000D01*
G01*
X151604000Y-86633000D01*
G75*
G02*
X151674000Y-86563000I70000J0D01*
G01*
X152374000Y-86563000D01*
G75*
G02*
X152444000Y-86633000I0J-70000D01*
G01*
G37*
G36*
G01*
X151174000Y-86633000D02*
X151174000Y-87783000D01*
G75*
G02*
X151104000Y-87853000I-70000J0D01*
G01*
X150404000Y-87853000D01*
G75*
G02*
X150334000Y-87783000I0J70000D01*
G01*
X150334000Y-86633000D01*
G75*
G02*
X150404000Y-86563000I70000J0D01*
G01*
X151104000Y-86563000D01*
G75*
G02*
X151174000Y-86633000I0J-70000D01*
G01*
G37*
D22*
X140589000Y-82924000D03*
X140589000Y-85424000D03*
X140589000Y-87924000D03*
G36*
G01*
X141314000Y-91274000D02*
X139864000Y-91274000D01*
G75*
G02*
X139614000Y-91024000I0J250000D01*
G01*
X139614000Y-89824000D01*
G75*
G02*
X139864000Y-89574000I250000J0D01*
G01*
X141314000Y-89574000D01*
G75*
G02*
X141564000Y-89824000I0J-250000D01*
G01*
X141564000Y-91024000D01*
G75*
G02*
X141314000Y-91274000I-250000J0D01*
G01*
G37*
X197104000Y-88439000D03*
X197104000Y-85939000D03*
G36*
G01*
X196379000Y-82589000D02*
X197829000Y-82589000D01*
G75*
G02*
X198079000Y-82839000I0J-250000D01*
G01*
X198079000Y-84039000D01*
G75*
G02*
X197829000Y-84289000I-250000J0D01*
G01*
X196379000Y-84289000D01*
G75*
G02*
X196129000Y-84039000I0J250000D01*
G01*
X196129000Y-82839000D01*
G75*
G02*
X196379000Y-82589000I250000J0D01*
G01*
G37*
X197104000Y-74469000D03*
X197104000Y-71969000D03*
G36*
G01*
X196379000Y-68619000D02*
X197829000Y-68619000D01*
G75*
G02*
X198079000Y-68869000I0J-250000D01*
G01*
X198079000Y-70069000D01*
G75*
G02*
X197829000Y-70319000I-250000J0D01*
G01*
X196379000Y-70319000D01*
G75*
G02*
X196129000Y-70069000I0J250000D01*
G01*
X196129000Y-68869000D01*
G75*
G02*
X196379000Y-68619000I250000J0D01*
G01*
G37*
G36*
G01*
X152364648Y-68665128D02*
X152187872Y-68488352D01*
G75*
G02*
X152187872Y-67286270I601041J601041D01*
G01*
X152187872Y-67286270D01*
G75*
G02*
X153389954Y-67286270I601041J-601041D01*
G01*
X153566730Y-67463046D01*
G75*
G02*
X153566730Y-68665128I-601041J-601041D01*
G01*
X153566730Y-68665128D01*
G75*
G02*
X152364648Y-68665128I-601041J601041D01*
G01*
G37*
G36*
G01*
X150596881Y-70432895D02*
X150420105Y-70256119D01*
G75*
G02*
X150420105Y-69054037I601041J601041D01*
G01*
X150420105Y-69054037D01*
G75*
G02*
X151622187Y-69054037I601041J-601041D01*
G01*
X151798963Y-69230813D01*
G75*
G02*
X151798963Y-70432895I-601041J-601041D01*
G01*
X151798963Y-70432895D01*
G75*
G02*
X150596881Y-70432895I-601041J601041D01*
G01*
G37*
G36*
G01*
X148829114Y-72200662D02*
X148652338Y-72023886D01*
G75*
G02*
X148652338Y-70821804I601041J601041D01*
G01*
X148652338Y-70821804D01*
G75*
G02*
X149854420Y-70821804I601041J-601041D01*
G01*
X150031196Y-70998580D01*
G75*
G02*
X150031196Y-72200662I-601041J-601041D01*
G01*
X150031196Y-72200662D01*
G75*
G02*
X148829114Y-72200662I-601041J601041D01*
G01*
G37*
G36*
G01*
X147485611Y-74392693D02*
X146460307Y-73367389D01*
G75*
G02*
X146460307Y-73013835I176777J176777D01*
G01*
X147308835Y-72165307D01*
G75*
G02*
X147662389Y-72165307I176777J-176777D01*
G01*
X148687693Y-73190611D01*
G75*
G02*
X148687693Y-73544165I-176777J-176777D01*
G01*
X147839165Y-74392693D01*
G75*
G02*
X147485611Y-74392693I-176777J176777D01*
G01*
G37*
D23*
X202184000Y-97091500D03*
X138938000Y-75692000D03*
D24*
X189992000Y-59334400D03*
D25*
X192532000Y-59334400D03*
D24*
X157734000Y-58801000D03*
D25*
X155194000Y-58801000D03*
D24*
X172974000Y-59537600D03*
D25*
X175514000Y-59537600D03*
G36*
G01*
X182618500Y-65929500D02*
X182618500Y-66404500D01*
G75*
G02*
X182381000Y-66642000I-237500J0D01*
G01*
X181781000Y-66642000D01*
G75*
G02*
X181543500Y-66404500I0J237500D01*
G01*
X181543500Y-65929500D01*
G75*
G02*
X181781000Y-65692000I237500J0D01*
G01*
X182381000Y-65692000D01*
G75*
G02*
X182618500Y-65929500I0J-237500D01*
G01*
G37*
G36*
G01*
X184343500Y-65929500D02*
X184343500Y-66404500D01*
G75*
G02*
X184106000Y-66642000I-237500J0D01*
G01*
X183506000Y-66642000D01*
G75*
G02*
X183268500Y-66404500I0J237500D01*
G01*
X183268500Y-65929500D01*
G75*
G02*
X183506000Y-65692000I237500J0D01*
G01*
X184106000Y-65692000D01*
G75*
G02*
X184343500Y-65929500I0J-237500D01*
G01*
G37*
G36*
G01*
X182482500Y-95787500D02*
X182007500Y-95787500D01*
G75*
G02*
X181770000Y-95550000I0J237500D01*
G01*
X181770000Y-94950000D01*
G75*
G02*
X182007500Y-94712500I237500J0D01*
G01*
X182482500Y-94712500D01*
G75*
G02*
X182720000Y-94950000I0J-237500D01*
G01*
X182720000Y-95550000D01*
G75*
G02*
X182482500Y-95787500I-237500J0D01*
G01*
G37*
G36*
G01*
X182482500Y-97512500D02*
X182007500Y-97512500D01*
G75*
G02*
X181770000Y-97275000I0J237500D01*
G01*
X181770000Y-96675000D01*
G75*
G02*
X182007500Y-96437500I237500J0D01*
G01*
X182482500Y-96437500D01*
G75*
G02*
X182720000Y-96675000I0J-237500D01*
G01*
X182720000Y-97275000D01*
G75*
G02*
X182482500Y-97512500I-237500J0D01*
G01*
G37*
G36*
G01*
X166541500Y-80501500D02*
X166541500Y-80026500D01*
G75*
G02*
X166779000Y-79789000I237500J0D01*
G01*
X167379000Y-79789000D01*
G75*
G02*
X167616500Y-80026500I0J-237500D01*
G01*
X167616500Y-80501500D01*
G75*
G02*
X167379000Y-80739000I-237500J0D01*
G01*
X166779000Y-80739000D01*
G75*
G02*
X166541500Y-80501500I0J237500D01*
G01*
G37*
G36*
G01*
X164816500Y-80501500D02*
X164816500Y-80026500D01*
G75*
G02*
X165054000Y-79789000I237500J0D01*
G01*
X165654000Y-79789000D01*
G75*
G02*
X165891500Y-80026500I0J-237500D01*
G01*
X165891500Y-80501500D01*
G75*
G02*
X165654000Y-80739000I-237500J0D01*
G01*
X165054000Y-80739000D01*
G75*
G02*
X164816500Y-80501500I0J237500D01*
G01*
G37*
G36*
G01*
X165933000Y-67039500D02*
X165933000Y-66564500D01*
G75*
G02*
X166170500Y-66327000I237500J0D01*
G01*
X166770500Y-66327000D01*
G75*
G02*
X167008000Y-66564500I0J-237500D01*
G01*
X167008000Y-67039500D01*
G75*
G02*
X166770500Y-67277000I-237500J0D01*
G01*
X166170500Y-67277000D01*
G75*
G02*
X165933000Y-67039500I0J237500D01*
G01*
G37*
G36*
G01*
X164208000Y-67039500D02*
X164208000Y-66564500D01*
G75*
G02*
X164445500Y-66327000I237500J0D01*
G01*
X165045500Y-66327000D01*
G75*
G02*
X165283000Y-66564500I0J-237500D01*
G01*
X165283000Y-67039500D01*
G75*
G02*
X165045500Y-67277000I-237500J0D01*
G01*
X164445500Y-67277000D01*
G75*
G02*
X164208000Y-67039500I0J237500D01*
G01*
G37*
M02*
