%TF.GenerationSoftware,KiCad,Pcbnew,5.1.7-a382d34a8~88~ubuntu18.04.1*%
%TF.CreationDate,2021-02-25T09:45:04-05:00*%
%TF.ProjectId,PedalBaord,50656461-6c42-4616-9f72-642e6b696361,rev?*%
%TF.SameCoordinates,Original*%
%TF.FileFunction,Soldermask,Bot*%
%TF.FilePolarity,Negative*%
%FSLAX46Y46*%
G04 Gerber Fmt 4.6, Leading zero omitted, Abs format (unit mm)*
G04 Created by KiCad (PCBNEW 5.1.7-a382d34a8~88~ubuntu18.04.1) date 2021-02-25 09:45:04*
%MOMM*%
%LPD*%
G01*
G04 APERTURE LIST*
%ADD10R,3.200000X0.400000*%
%ADD11O,1.500000X2.300000*%
%ADD12R,1.500000X2.300000*%
%ADD13C,2.625000*%
%ADD14R,2.625000X2.625000*%
%ADD15C,2.850000*%
%ADD16O,1.700000X1.700000*%
%ADD17R,1.700000X1.700000*%
G04 APERTURE END LIST*
D10*
%TO.C,Y1*%
X137160000Y-71190000D03*
X137160000Y-72390000D03*
X137160000Y-73590000D03*
%TD*%
%TO.C,U4*%
G36*
G01*
X148820000Y-74445000D02*
X148820000Y-74145000D01*
G75*
G02*
X148970000Y-73995000I150000J0D01*
G01*
X150620000Y-73995000D01*
G75*
G02*
X150770000Y-74145000I0J-150000D01*
G01*
X150770000Y-74445000D01*
G75*
G02*
X150620000Y-74595000I-150000J0D01*
G01*
X148970000Y-74595000D01*
G75*
G02*
X148820000Y-74445000I0J150000D01*
G01*
G37*
G36*
G01*
X148820000Y-73175000D02*
X148820000Y-72875000D01*
G75*
G02*
X148970000Y-72725000I150000J0D01*
G01*
X150620000Y-72725000D01*
G75*
G02*
X150770000Y-72875000I0J-150000D01*
G01*
X150770000Y-73175000D01*
G75*
G02*
X150620000Y-73325000I-150000J0D01*
G01*
X148970000Y-73325000D01*
G75*
G02*
X148820000Y-73175000I0J150000D01*
G01*
G37*
G36*
G01*
X148820000Y-71905000D02*
X148820000Y-71605000D01*
G75*
G02*
X148970000Y-71455000I150000J0D01*
G01*
X150620000Y-71455000D01*
G75*
G02*
X150770000Y-71605000I0J-150000D01*
G01*
X150770000Y-71905000D01*
G75*
G02*
X150620000Y-72055000I-150000J0D01*
G01*
X148970000Y-72055000D01*
G75*
G02*
X148820000Y-71905000I0J150000D01*
G01*
G37*
G36*
G01*
X148820000Y-70635000D02*
X148820000Y-70335000D01*
G75*
G02*
X148970000Y-70185000I150000J0D01*
G01*
X150620000Y-70185000D01*
G75*
G02*
X150770000Y-70335000I0J-150000D01*
G01*
X150770000Y-70635000D01*
G75*
G02*
X150620000Y-70785000I-150000J0D01*
G01*
X148970000Y-70785000D01*
G75*
G02*
X148820000Y-70635000I0J150000D01*
G01*
G37*
G36*
G01*
X143870000Y-70635000D02*
X143870000Y-70335000D01*
G75*
G02*
X144020000Y-70185000I150000J0D01*
G01*
X145670000Y-70185000D01*
G75*
G02*
X145820000Y-70335000I0J-150000D01*
G01*
X145820000Y-70635000D01*
G75*
G02*
X145670000Y-70785000I-150000J0D01*
G01*
X144020000Y-70785000D01*
G75*
G02*
X143870000Y-70635000I0J150000D01*
G01*
G37*
G36*
G01*
X143870000Y-71905000D02*
X143870000Y-71605000D01*
G75*
G02*
X144020000Y-71455000I150000J0D01*
G01*
X145670000Y-71455000D01*
G75*
G02*
X145820000Y-71605000I0J-150000D01*
G01*
X145820000Y-71905000D01*
G75*
G02*
X145670000Y-72055000I-150000J0D01*
G01*
X144020000Y-72055000D01*
G75*
G02*
X143870000Y-71905000I0J150000D01*
G01*
G37*
G36*
G01*
X143870000Y-73175000D02*
X143870000Y-72875000D01*
G75*
G02*
X144020000Y-72725000I150000J0D01*
G01*
X145670000Y-72725000D01*
G75*
G02*
X145820000Y-72875000I0J-150000D01*
G01*
X145820000Y-73175000D01*
G75*
G02*
X145670000Y-73325000I-150000J0D01*
G01*
X144020000Y-73325000D01*
G75*
G02*
X143870000Y-73175000I0J150000D01*
G01*
G37*
G36*
G01*
X143870000Y-74445000D02*
X143870000Y-74145000D01*
G75*
G02*
X144020000Y-73995000I150000J0D01*
G01*
X145670000Y-73995000D01*
G75*
G02*
X145820000Y-74145000I0J-150000D01*
G01*
X145820000Y-74445000D01*
G75*
G02*
X145670000Y-74595000I-150000J0D01*
G01*
X144020000Y-74595000D01*
G75*
G02*
X143870000Y-74445000I0J150000D01*
G01*
G37*
%TD*%
D11*
%TO.C,U2*%
X158115000Y-75565000D03*
X155575000Y-75565000D03*
D12*
X153035000Y-75565000D03*
%TD*%
%TO.C,R5*%
G36*
G01*
X143747500Y-65892500D02*
X143272500Y-65892500D01*
G75*
G02*
X143035000Y-65655000I0J237500D01*
G01*
X143035000Y-65155000D01*
G75*
G02*
X143272500Y-64917500I237500J0D01*
G01*
X143747500Y-64917500D01*
G75*
G02*
X143985000Y-65155000I0J-237500D01*
G01*
X143985000Y-65655000D01*
G75*
G02*
X143747500Y-65892500I-237500J0D01*
G01*
G37*
G36*
G01*
X143747500Y-67717500D02*
X143272500Y-67717500D01*
G75*
G02*
X143035000Y-67480000I0J237500D01*
G01*
X143035000Y-66980000D01*
G75*
G02*
X143272500Y-66742500I237500J0D01*
G01*
X143747500Y-66742500D01*
G75*
G02*
X143985000Y-66980000I0J-237500D01*
G01*
X143985000Y-67480000D01*
G75*
G02*
X143747500Y-67717500I-237500J0D01*
G01*
G37*
%TD*%
%TO.C,R4*%
G36*
G01*
X138032500Y-78672500D02*
X137557500Y-78672500D01*
G75*
G02*
X137320000Y-78435000I0J237500D01*
G01*
X137320000Y-77935000D01*
G75*
G02*
X137557500Y-77697500I237500J0D01*
G01*
X138032500Y-77697500D01*
G75*
G02*
X138270000Y-77935000I0J-237500D01*
G01*
X138270000Y-78435000D01*
G75*
G02*
X138032500Y-78672500I-237500J0D01*
G01*
G37*
G36*
G01*
X138032500Y-80497500D02*
X137557500Y-80497500D01*
G75*
G02*
X137320000Y-80260000I0J237500D01*
G01*
X137320000Y-79760000D01*
G75*
G02*
X137557500Y-79522500I237500J0D01*
G01*
X138032500Y-79522500D01*
G75*
G02*
X138270000Y-79760000I0J-237500D01*
G01*
X138270000Y-80260000D01*
G75*
G02*
X138032500Y-80497500I-237500J0D01*
G01*
G37*
%TD*%
D13*
%TO.C,J2*%
X142060000Y-60660000D03*
X138060000Y-60660000D03*
X134060000Y-60660000D03*
X130060000Y-60660000D03*
X126060000Y-60660000D03*
X122060000Y-60660000D03*
X140060000Y-56660000D03*
X136060000Y-56660000D03*
X132060000Y-56660000D03*
X128060000Y-56660000D03*
X124060000Y-56660000D03*
X142060000Y-52660000D03*
X138060000Y-52660000D03*
X134060000Y-52660000D03*
X130060000Y-52660000D03*
X126060000Y-52660000D03*
X122060000Y-52660000D03*
X146060000Y-60660000D03*
X118060000Y-60660000D03*
X144060000Y-56660000D03*
X120060000Y-56660000D03*
X146060000Y-52660000D03*
D14*
X118060000Y-52660000D03*
D15*
X152560000Y-57160000D03*
X111560000Y-57160000D03*
%TD*%
D16*
%TO.C,J1*%
X106045000Y-76200000D03*
X103505000Y-76200000D03*
X106045000Y-73660000D03*
X103505000Y-73660000D03*
X106045000Y-71120000D03*
D17*
X103505000Y-71120000D03*
%TD*%
%TO.C,F1*%
G36*
G01*
X155755000Y-66370000D02*
X152855000Y-66370000D01*
G75*
G02*
X152605000Y-66120000I0J250000D01*
G01*
X152605000Y-65320000D01*
G75*
G02*
X152855000Y-65070000I250000J0D01*
G01*
X155755000Y-65070000D01*
G75*
G02*
X156005000Y-65320000I0J-250000D01*
G01*
X156005000Y-66120000D01*
G75*
G02*
X155755000Y-66370000I-250000J0D01*
G01*
G37*
G36*
G01*
X155755000Y-70820000D02*
X152855000Y-70820000D01*
G75*
G02*
X152605000Y-70570000I0J250000D01*
G01*
X152605000Y-69770000D01*
G75*
G02*
X152855000Y-69520000I250000J0D01*
G01*
X155755000Y-69520000D01*
G75*
G02*
X156005000Y-69770000I0J-250000D01*
G01*
X156005000Y-70570000D01*
G75*
G02*
X155755000Y-70820000I-250000J0D01*
G01*
G37*
%TD*%
%TO.C,C6*%
G36*
G01*
X148900000Y-77232500D02*
X148900000Y-77707500D01*
G75*
G02*
X148662500Y-77945000I-237500J0D01*
G01*
X148062500Y-77945000D01*
G75*
G02*
X147825000Y-77707500I0J237500D01*
G01*
X147825000Y-77232500D01*
G75*
G02*
X148062500Y-76995000I237500J0D01*
G01*
X148662500Y-76995000D01*
G75*
G02*
X148900000Y-77232500I0J-237500D01*
G01*
G37*
G36*
G01*
X150625000Y-77232500D02*
X150625000Y-77707500D01*
G75*
G02*
X150387500Y-77945000I-237500J0D01*
G01*
X149787500Y-77945000D01*
G75*
G02*
X149550000Y-77707500I0J237500D01*
G01*
X149550000Y-77232500D01*
G75*
G02*
X149787500Y-76995000I237500J0D01*
G01*
X150387500Y-76995000D01*
G75*
G02*
X150625000Y-77232500I0J-237500D01*
G01*
G37*
%TD*%
%TO.C,C5*%
G36*
G01*
X139937500Y-78822500D02*
X139462500Y-78822500D01*
G75*
G02*
X139225000Y-78585000I0J237500D01*
G01*
X139225000Y-77985000D01*
G75*
G02*
X139462500Y-77747500I237500J0D01*
G01*
X139937500Y-77747500D01*
G75*
G02*
X140175000Y-77985000I0J-237500D01*
G01*
X140175000Y-78585000D01*
G75*
G02*
X139937500Y-78822500I-237500J0D01*
G01*
G37*
G36*
G01*
X139937500Y-80547500D02*
X139462500Y-80547500D01*
G75*
G02*
X139225000Y-80310000I0J237500D01*
G01*
X139225000Y-79710000D01*
G75*
G02*
X139462500Y-79472500I237500J0D01*
G01*
X139937500Y-79472500D01*
G75*
G02*
X140175000Y-79710000I0J-237500D01*
G01*
X140175000Y-80310000D01*
G75*
G02*
X139937500Y-80547500I-237500J0D01*
G01*
G37*
%TD*%
%TO.C,C2*%
G36*
G01*
X114537500Y-73107500D02*
X114062500Y-73107500D01*
G75*
G02*
X113825000Y-72870000I0J237500D01*
G01*
X113825000Y-72270000D01*
G75*
G02*
X114062500Y-72032500I237500J0D01*
G01*
X114537500Y-72032500D01*
G75*
G02*
X114775000Y-72270000I0J-237500D01*
G01*
X114775000Y-72870000D01*
G75*
G02*
X114537500Y-73107500I-237500J0D01*
G01*
G37*
G36*
G01*
X114537500Y-74832500D02*
X114062500Y-74832500D01*
G75*
G02*
X113825000Y-74595000I0J237500D01*
G01*
X113825000Y-73995000D01*
G75*
G02*
X114062500Y-73757500I237500J0D01*
G01*
X114537500Y-73757500D01*
G75*
G02*
X114775000Y-73995000I0J-237500D01*
G01*
X114775000Y-74595000D01*
G75*
G02*
X114537500Y-74832500I-237500J0D01*
G01*
G37*
%TD*%
M02*
