%TF.GenerationSoftware,KiCad,Pcbnew,5.1.7-a382d34a8~88~ubuntu18.04.1*%
%TF.CreationDate,2021-02-25T09:45:04-05:00*%
%TF.ProjectId,PedalBaord,50656461-6c42-4616-9f72-642e6b696361,rev?*%
%TF.SameCoordinates,Original*%
%TF.FileFunction,Copper,L2,Bot*%
%TF.FilePolarity,Positive*%
%FSLAX46Y46*%
G04 Gerber Fmt 4.6, Leading zero omitted, Abs format (unit mm)*
G04 Created by KiCad (PCBNEW 5.1.7-a382d34a8~88~ubuntu18.04.1) date 2021-02-25 09:45:04*
%MOMM*%
%LPD*%
G01*
G04 APERTURE LIST*
%TA.AperFunction,SMDPad,CuDef*%
%ADD10R,3.200000X0.400000*%
%TD*%
%TA.AperFunction,ComponentPad*%
%ADD11O,1.500000X2.300000*%
%TD*%
%TA.AperFunction,ComponentPad*%
%ADD12R,1.500000X2.300000*%
%TD*%
%TA.AperFunction,ComponentPad*%
%ADD13C,2.625000*%
%TD*%
%TA.AperFunction,ComponentPad*%
%ADD14R,2.625000X2.625000*%
%TD*%
%TA.AperFunction,ComponentPad*%
%ADD15O,1.700000X1.700000*%
%TD*%
%TA.AperFunction,ComponentPad*%
%ADD16R,1.700000X1.700000*%
%TD*%
%TA.AperFunction,ViaPad*%
%ADD17C,0.800000*%
%TD*%
%TA.AperFunction,Conductor*%
%ADD18C,0.600000*%
%TD*%
%TA.AperFunction,Conductor*%
%ADD19C,0.360000*%
%TD*%
%TA.AperFunction,Conductor*%
%ADD20C,0.200000*%
%TD*%
%TA.AperFunction,Conductor*%
%ADD21C,0.254000*%
%TD*%
%TA.AperFunction,Conductor*%
%ADD22C,0.100000*%
%TD*%
G04 APERTURE END LIST*
D10*
%TO.P,Y1,3*%
%TO.N,Net-(U3-Pad8)*%
X137160000Y-71190000D03*
%TO.P,Y1,2*%
%TO.N,GND*%
X137160000Y-72390000D03*
%TO.P,Y1,1*%
%TO.N,Net-(U3-Pad7)*%
X137160000Y-73590000D03*
%TD*%
%TO.P,U4,8*%
%TO.N,GND*%
%TA.AperFunction,SMDPad,CuDef*%
G36*
G01*
X148820000Y-74445000D02*
X148820000Y-74145000D01*
G75*
G02*
X148970000Y-73995000I150000J0D01*
G01*
X150620000Y-73995000D01*
G75*
G02*
X150770000Y-74145000I0J-150000D01*
G01*
X150770000Y-74445000D01*
G75*
G02*
X150620000Y-74595000I-150000J0D01*
G01*
X148970000Y-74595000D01*
G75*
G02*
X148820000Y-74445000I0J150000D01*
G01*
G37*
%TD.AperFunction*%
%TO.P,U4,7*%
%TO.N,/CAN+*%
%TA.AperFunction,SMDPad,CuDef*%
G36*
G01*
X148820000Y-73175000D02*
X148820000Y-72875000D01*
G75*
G02*
X148970000Y-72725000I150000J0D01*
G01*
X150620000Y-72725000D01*
G75*
G02*
X150770000Y-72875000I0J-150000D01*
G01*
X150770000Y-73175000D01*
G75*
G02*
X150620000Y-73325000I-150000J0D01*
G01*
X148970000Y-73325000D01*
G75*
G02*
X148820000Y-73175000I0J150000D01*
G01*
G37*
%TD.AperFunction*%
%TO.P,U4,6*%
%TO.N,/CAN-*%
%TA.AperFunction,SMDPad,CuDef*%
G36*
G01*
X148820000Y-71905000D02*
X148820000Y-71605000D01*
G75*
G02*
X148970000Y-71455000I150000J0D01*
G01*
X150620000Y-71455000D01*
G75*
G02*
X150770000Y-71605000I0J-150000D01*
G01*
X150770000Y-71905000D01*
G75*
G02*
X150620000Y-72055000I-150000J0D01*
G01*
X148970000Y-72055000D01*
G75*
G02*
X148820000Y-71905000I0J150000D01*
G01*
G37*
%TD.AperFunction*%
%TO.P,U4,5*%
%TO.N,N/C*%
%TA.AperFunction,SMDPad,CuDef*%
G36*
G01*
X148820000Y-70635000D02*
X148820000Y-70335000D01*
G75*
G02*
X148970000Y-70185000I150000J0D01*
G01*
X150620000Y-70185000D01*
G75*
G02*
X150770000Y-70335000I0J-150000D01*
G01*
X150770000Y-70635000D01*
G75*
G02*
X150620000Y-70785000I-150000J0D01*
G01*
X148970000Y-70785000D01*
G75*
G02*
X148820000Y-70635000I0J150000D01*
G01*
G37*
%TD.AperFunction*%
%TO.P,U4,4*%
%TO.N,/RXCAN*%
%TA.AperFunction,SMDPad,CuDef*%
G36*
G01*
X143870000Y-70635000D02*
X143870000Y-70335000D01*
G75*
G02*
X144020000Y-70185000I150000J0D01*
G01*
X145670000Y-70185000D01*
G75*
G02*
X145820000Y-70335000I0J-150000D01*
G01*
X145820000Y-70635000D01*
G75*
G02*
X145670000Y-70785000I-150000J0D01*
G01*
X144020000Y-70785000D01*
G75*
G02*
X143870000Y-70635000I0J150000D01*
G01*
G37*
%TD.AperFunction*%
%TO.P,U4,3*%
%TO.N,+5V*%
%TA.AperFunction,SMDPad,CuDef*%
G36*
G01*
X143870000Y-71905000D02*
X143870000Y-71605000D01*
G75*
G02*
X144020000Y-71455000I150000J0D01*
G01*
X145670000Y-71455000D01*
G75*
G02*
X145820000Y-71605000I0J-150000D01*
G01*
X145820000Y-71905000D01*
G75*
G02*
X145670000Y-72055000I-150000J0D01*
G01*
X144020000Y-72055000D01*
G75*
G02*
X143870000Y-71905000I0J150000D01*
G01*
G37*
%TD.AperFunction*%
%TO.P,U4,2*%
%TO.N,GND*%
%TA.AperFunction,SMDPad,CuDef*%
G36*
G01*
X143870000Y-73175000D02*
X143870000Y-72875000D01*
G75*
G02*
X144020000Y-72725000I150000J0D01*
G01*
X145670000Y-72725000D01*
G75*
G02*
X145820000Y-72875000I0J-150000D01*
G01*
X145820000Y-73175000D01*
G75*
G02*
X145670000Y-73325000I-150000J0D01*
G01*
X144020000Y-73325000D01*
G75*
G02*
X143870000Y-73175000I0J150000D01*
G01*
G37*
%TD.AperFunction*%
%TO.P,U4,1*%
%TO.N,/TXCAN*%
%TA.AperFunction,SMDPad,CuDef*%
G36*
G01*
X143870000Y-74445000D02*
X143870000Y-74145000D01*
G75*
G02*
X144020000Y-73995000I150000J0D01*
G01*
X145670000Y-73995000D01*
G75*
G02*
X145820000Y-74145000I0J-150000D01*
G01*
X145820000Y-74445000D01*
G75*
G02*
X145670000Y-74595000I-150000J0D01*
G01*
X144020000Y-74595000D01*
G75*
G02*
X143870000Y-74445000I0J150000D01*
G01*
G37*
%TD.AperFunction*%
%TD*%
D11*
%TO.P,U2,3*%
%TO.N,+5V*%
X158115000Y-75565000D03*
%TO.P,U2,2*%
%TO.N,GND*%
X155575000Y-75565000D03*
D12*
%TO.P,U2,1*%
%TO.N,Net-(C3-Pad1)*%
X153035000Y-75565000D03*
%TD*%
%TO.P,R5,2*%
%TO.N,/CAN-*%
%TA.AperFunction,SMDPad,CuDef*%
G36*
G01*
X143747500Y-65892500D02*
X143272500Y-65892500D01*
G75*
G02*
X143035000Y-65655000I0J237500D01*
G01*
X143035000Y-65155000D01*
G75*
G02*
X143272500Y-64917500I237500J0D01*
G01*
X143747500Y-64917500D01*
G75*
G02*
X143985000Y-65155000I0J-237500D01*
G01*
X143985000Y-65655000D01*
G75*
G02*
X143747500Y-65892500I-237500J0D01*
G01*
G37*
%TD.AperFunction*%
%TO.P,R5,1*%
%TO.N,/CAN+*%
%TA.AperFunction,SMDPad,CuDef*%
G36*
G01*
X143747500Y-67717500D02*
X143272500Y-67717500D01*
G75*
G02*
X143035000Y-67480000I0J237500D01*
G01*
X143035000Y-66980000D01*
G75*
G02*
X143272500Y-66742500I237500J0D01*
G01*
X143747500Y-66742500D01*
G75*
G02*
X143985000Y-66980000I0J-237500D01*
G01*
X143985000Y-67480000D01*
G75*
G02*
X143747500Y-67717500I-237500J0D01*
G01*
G37*
%TD.AperFunction*%
%TD*%
%TO.P,R4,2*%
%TO.N,Net-(R4-Pad2)*%
%TA.AperFunction,SMDPad,CuDef*%
G36*
G01*
X138032500Y-78672500D02*
X137557500Y-78672500D01*
G75*
G02*
X137320000Y-78435000I0J237500D01*
G01*
X137320000Y-77935000D01*
G75*
G02*
X137557500Y-77697500I237500J0D01*
G01*
X138032500Y-77697500D01*
G75*
G02*
X138270000Y-77935000I0J-237500D01*
G01*
X138270000Y-78435000D01*
G75*
G02*
X138032500Y-78672500I-237500J0D01*
G01*
G37*
%TD.AperFunction*%
%TO.P,R4,1*%
%TO.N,+5V*%
%TA.AperFunction,SMDPad,CuDef*%
G36*
G01*
X138032500Y-80497500D02*
X137557500Y-80497500D01*
G75*
G02*
X137320000Y-80260000I0J237500D01*
G01*
X137320000Y-79760000D01*
G75*
G02*
X137557500Y-79522500I237500J0D01*
G01*
X138032500Y-79522500D01*
G75*
G02*
X138270000Y-79760000I0J-237500D01*
G01*
X138270000Y-80260000D01*
G75*
G02*
X138032500Y-80497500I-237500J0D01*
G01*
G37*
%TD.AperFunction*%
%TD*%
D13*
%TO.P,J2,22*%
%TO.N,/CAN-*%
X142060000Y-60660000D03*
%TO.P,J2,21*%
%TO.N,/CAN+*%
X138060000Y-60660000D03*
%TO.P,J2,20*%
%TO.N,/WHEEL_L*%
X134060000Y-60660000D03*
%TO.P,J2,19*%
%TO.N,/WHEEL_R*%
X130060000Y-60660000D03*
%TO.P,J2,18*%
%TO.N,/DAMPER_R*%
X126060000Y-60660000D03*
%TO.P,J2,17*%
%TO.N,/BRAKE1*%
X122060000Y-60660000D03*
%TO.P,J2,14*%
%TO.N,/CAN-*%
X140060000Y-56660000D03*
%TO.P,J2,13*%
%TO.N,/CAN+*%
X136060000Y-56660000D03*
%TO.P,J2,12*%
%TO.N,/DAMPER_L*%
X132060000Y-56660000D03*
%TO.P,J2,11*%
%TO.N,/STEER*%
X128060000Y-56660000D03*
%TO.P,J2,10*%
%TO.N,/ACC1*%
X124060000Y-56660000D03*
%TO.P,J2,7*%
%TO.N,+5V*%
X142060000Y-52660000D03*
%TO.P,J2,6*%
X138060000Y-52660000D03*
%TO.P,J2,5*%
X134060000Y-52660000D03*
%TO.P,J2,4*%
%TO.N,GND*%
X130060000Y-52660000D03*
%TO.P,J2,3*%
X126060000Y-52660000D03*
%TO.P,J2,2*%
X122060000Y-52660000D03*
%TO.P,J2,23*%
%TO.N,+12V*%
X146060000Y-60660000D03*
%TO.P,J2,16*%
%TO.N,/BRAKE0*%
X118060000Y-60660000D03*
%TO.P,J2,15*%
%TO.N,+12V*%
X144060000Y-56660000D03*
%TO.P,J2,9*%
%TO.N,/ACC0*%
X120060000Y-56660000D03*
%TO.P,J2,8*%
%TO.N,+5V*%
X146060000Y-52660000D03*
D14*
%TO.P,J2,1*%
%TO.N,GND*%
X118060000Y-52660000D03*
%TD*%
D15*
%TO.P,J1,6*%
%TO.N,GND*%
X106045000Y-76200000D03*
%TO.P,J1,5*%
%TO.N,/RESET*%
X103505000Y-76200000D03*
%TO.P,J1,4*%
%TO.N,/MOSI*%
X106045000Y-73660000D03*
%TO.P,J1,3*%
%TO.N,/SCK*%
X103505000Y-73660000D03*
%TO.P,J1,2*%
%TO.N,+5V*%
X106045000Y-71120000D03*
D16*
%TO.P,J1,1*%
%TO.N,/MISO*%
X103505000Y-71120000D03*
%TD*%
%TO.P,F1,2*%
%TO.N,+12V*%
%TA.AperFunction,SMDPad,CuDef*%
G36*
G01*
X155755000Y-66370000D02*
X152855000Y-66370000D01*
G75*
G02*
X152605000Y-66120000I0J250000D01*
G01*
X152605000Y-65320000D01*
G75*
G02*
X152855000Y-65070000I250000J0D01*
G01*
X155755000Y-65070000D01*
G75*
G02*
X156005000Y-65320000I0J-250000D01*
G01*
X156005000Y-66120000D01*
G75*
G02*
X155755000Y-66370000I-250000J0D01*
G01*
G37*
%TD.AperFunction*%
%TO.P,F1,1*%
%TO.N,Net-(C3-Pad1)*%
%TA.AperFunction,SMDPad,CuDef*%
G36*
G01*
X155755000Y-70820000D02*
X152855000Y-70820000D01*
G75*
G02*
X152605000Y-70570000I0J250000D01*
G01*
X152605000Y-69770000D01*
G75*
G02*
X152855000Y-69520000I250000J0D01*
G01*
X155755000Y-69520000D01*
G75*
G02*
X156005000Y-69770000I0J-250000D01*
G01*
X156005000Y-70570000D01*
G75*
G02*
X155755000Y-70820000I-250000J0D01*
G01*
G37*
%TD.AperFunction*%
%TD*%
%TO.P,C6,2*%
%TO.N,GND*%
%TA.AperFunction,SMDPad,CuDef*%
G36*
G01*
X148900000Y-77232500D02*
X148900000Y-77707500D01*
G75*
G02*
X148662500Y-77945000I-237500J0D01*
G01*
X148062500Y-77945000D01*
G75*
G02*
X147825000Y-77707500I0J237500D01*
G01*
X147825000Y-77232500D01*
G75*
G02*
X148062500Y-76995000I237500J0D01*
G01*
X148662500Y-76995000D01*
G75*
G02*
X148900000Y-77232500I0J-237500D01*
G01*
G37*
%TD.AperFunction*%
%TO.P,C6,1*%
%TO.N,+5V*%
%TA.AperFunction,SMDPad,CuDef*%
G36*
G01*
X150625000Y-77232500D02*
X150625000Y-77707500D01*
G75*
G02*
X150387500Y-77945000I-237500J0D01*
G01*
X149787500Y-77945000D01*
G75*
G02*
X149550000Y-77707500I0J237500D01*
G01*
X149550000Y-77232500D01*
G75*
G02*
X149787500Y-76995000I237500J0D01*
G01*
X150387500Y-76995000D01*
G75*
G02*
X150625000Y-77232500I0J-237500D01*
G01*
G37*
%TD.AperFunction*%
%TD*%
%TO.P,C5,2*%
%TO.N,GND*%
%TA.AperFunction,SMDPad,CuDef*%
G36*
G01*
X139937500Y-78822500D02*
X139462500Y-78822500D01*
G75*
G02*
X139225000Y-78585000I0J237500D01*
G01*
X139225000Y-77985000D01*
G75*
G02*
X139462500Y-77747500I237500J0D01*
G01*
X139937500Y-77747500D01*
G75*
G02*
X140175000Y-77985000I0J-237500D01*
G01*
X140175000Y-78585000D01*
G75*
G02*
X139937500Y-78822500I-237500J0D01*
G01*
G37*
%TD.AperFunction*%
%TO.P,C5,1*%
%TO.N,+5V*%
%TA.AperFunction,SMDPad,CuDef*%
G36*
G01*
X139937500Y-80547500D02*
X139462500Y-80547500D01*
G75*
G02*
X139225000Y-80310000I0J237500D01*
G01*
X139225000Y-79710000D01*
G75*
G02*
X139462500Y-79472500I237500J0D01*
G01*
X139937500Y-79472500D01*
G75*
G02*
X140175000Y-79710000I0J-237500D01*
G01*
X140175000Y-80310000D01*
G75*
G02*
X139937500Y-80547500I-237500J0D01*
G01*
G37*
%TD.AperFunction*%
%TD*%
%TO.P,C2,2*%
%TO.N,GND*%
%TA.AperFunction,SMDPad,CuDef*%
G36*
G01*
X114537500Y-73107500D02*
X114062500Y-73107500D01*
G75*
G02*
X113825000Y-72870000I0J237500D01*
G01*
X113825000Y-72270000D01*
G75*
G02*
X114062500Y-72032500I237500J0D01*
G01*
X114537500Y-72032500D01*
G75*
G02*
X114775000Y-72270000I0J-237500D01*
G01*
X114775000Y-72870000D01*
G75*
G02*
X114537500Y-73107500I-237500J0D01*
G01*
G37*
%TD.AperFunction*%
%TO.P,C2,1*%
%TO.N,Net-(C2-Pad1)*%
%TA.AperFunction,SMDPad,CuDef*%
G36*
G01*
X114537500Y-74832500D02*
X114062500Y-74832500D01*
G75*
G02*
X113825000Y-74595000I0J237500D01*
G01*
X113825000Y-73995000D01*
G75*
G02*
X114062500Y-73757500I237500J0D01*
G01*
X114537500Y-73757500D01*
G75*
G02*
X114775000Y-73995000I0J-237500D01*
G01*
X114775000Y-74595000D01*
G75*
G02*
X114537500Y-74832500I-237500J0D01*
G01*
G37*
%TD.AperFunction*%
%TD*%
D17*
%TO.N,*%
X154940000Y-80645000D03*
%TO.N,GND*%
X118110000Y-63500000D03*
X111760000Y-72390000D03*
X107950000Y-68580000D03*
X118745000Y-80645000D03*
X120650000Y-80645000D03*
X130810000Y-80645000D03*
X132715000Y-80645000D03*
X152400000Y-80645000D03*
X149860000Y-75565000D03*
X111633000Y-74676000D03*
X119888000Y-73152000D03*
X102997000Y-81280000D03*
X104521000Y-81280000D03*
X105918000Y-81280000D03*
%TO.N,+5V*%
X107950000Y-80010000D03*
X136525000Y-80645000D03*
%TO.N,Net-(C2-Pad1)*%
X116205000Y-74295000D03*
%TO.N,/MOSI*%
X125095000Y-72390000D03*
X132860000Y-75530024D03*
X115709995Y-77075000D03*
%TO.N,/SCK*%
X125095000Y-74930000D03*
X137160000Y-74930000D03*
%TO.N,/MISO*%
X125095000Y-73660000D03*
X132715000Y-76835000D03*
X116709998Y-77075000D03*
X125095000Y-73660000D03*
%TO.N,Net-(R4-Pad2)*%
X136525000Y-79375000D03*
%TO.N,/CAN_INT*%
X132860000Y-73025000D03*
X112395000Y-68580000D03*
%TO.N,/CAN_CS*%
X111760000Y-77144998D03*
X131445000Y-78105000D03*
%TO.N,Net-(U3-Pad8)*%
X140970000Y-71755000D03*
%TO.N,Net-(U3-Pad7)*%
X140970000Y-73025000D03*
%TO.N,/RXCAN*%
X142240000Y-76835000D03*
%TO.N,/TXCAN*%
X146050000Y-79375000D03*
%TO.N,/ADC_CS*%
X114300000Y-76835000D03*
X121285000Y-71120000D03*
%TD*%
D18*
%TO.N,+5V*%
X107950000Y-80010000D02*
X107950000Y-71755000D01*
X107315000Y-71120000D02*
X106045000Y-71120000D01*
X107950000Y-71755000D02*
X107315000Y-71120000D01*
D19*
X150087500Y-77470000D02*
X149860000Y-77470000D01*
X149860000Y-77470000D02*
X146685000Y-74295000D01*
X146685000Y-74295000D02*
X146685000Y-72390000D01*
X146050000Y-71755000D02*
X144845000Y-71755000D01*
X146685000Y-72390000D02*
X146050000Y-71755000D01*
X137795000Y-80010000D02*
X139700000Y-80010000D01*
X137795000Y-80010000D02*
X137160000Y-80010000D01*
X137160000Y-80010000D02*
X136525000Y-80645000D01*
X150087500Y-77470000D02*
X157988000Y-77470000D01*
X158115000Y-77343000D02*
X158115000Y-75565000D01*
X157988000Y-77470000D02*
X158115000Y-77343000D01*
%TO.N,Net-(C2-Pad1)*%
X116205000Y-74295000D02*
X114300000Y-74295000D01*
%TO.N,/MOSI*%
X125095000Y-72390000D02*
X129719976Y-72390000D01*
X129719976Y-72390000D02*
X132860000Y-75530024D01*
X121359990Y-76125010D02*
X125095000Y-72390000D01*
X116094300Y-76125010D02*
X121359990Y-76125010D01*
X115709995Y-77075000D02*
X115709995Y-76509315D01*
X115709995Y-76509315D02*
X116094300Y-76125010D01*
%TO.N,/SCK*%
X125095000Y-74930000D02*
X129540000Y-74930000D01*
X129540000Y-74930000D02*
X132225001Y-77615001D01*
X132225001Y-77615001D02*
X132715000Y-78105000D01*
X132715000Y-78105000D02*
X135890000Y-78105000D01*
X135890000Y-78105000D02*
X137160000Y-76835000D01*
X137160000Y-76835000D02*
X137160000Y-74930000D01*
%TO.N,/MISO*%
X125095000Y-73660000D02*
X129540000Y-73660000D01*
X129540000Y-73660000D02*
X132715000Y-76835000D01*
X116709998Y-77075000D02*
X121680000Y-77075000D01*
X121680000Y-77075000D02*
X125095000Y-73660000D01*
%TO.N,Net-(R4-Pad2)*%
X137795000Y-78185000D02*
X137715000Y-78185000D01*
X137715000Y-78185000D02*
X136525000Y-79375000D01*
%TO.N,/CAN_INT*%
X132860000Y-73025000D02*
X128415000Y-68580000D01*
X128415000Y-68580000D02*
X112395000Y-68580000D01*
%TO.N,/CAN_CS*%
X111760000Y-77144998D02*
X112720002Y-78105000D01*
X112720002Y-78105000D02*
X131445000Y-78105000D01*
%TO.N,Net-(U3-Pad8)*%
X140335000Y-71190000D02*
X139065000Y-71190000D01*
X140970000Y-71755000D02*
X140335000Y-71190000D01*
X139065000Y-71190000D02*
X137160000Y-71190000D01*
%TO.N,Net-(U3-Pad7)*%
X140335000Y-73590000D02*
X139065000Y-73590000D01*
X140970000Y-73025000D02*
X140335000Y-73590000D01*
X139065000Y-73590000D02*
X137160000Y-73590000D01*
%TO.N,/RXCAN*%
X142240000Y-72115000D02*
X142240000Y-76835000D01*
X144845000Y-70485000D02*
X143870000Y-70485000D01*
X143870000Y-70485000D02*
X142240000Y-72115000D01*
%TO.N,/TXCAN*%
X144845000Y-74295000D02*
X144845000Y-76900000D01*
X144845000Y-76900000D02*
X146050000Y-78105000D01*
X146050000Y-78105000D02*
X146050000Y-79375000D01*
%TO.N,/ADC_CS*%
X114300000Y-76835000D02*
X115570000Y-75565000D01*
X115570000Y-75565000D02*
X118745000Y-75565000D01*
X118745000Y-75565000D02*
X120650000Y-73660000D01*
X120650000Y-73660000D02*
X120650000Y-71755000D01*
X120650000Y-71755000D02*
X121285000Y-71120000D01*
D20*
%TO.N,/CAN-*%
X149161397Y-71755000D02*
X149795000Y-71755000D01*
X143510000Y-65405000D02*
X147545000Y-69440000D01*
X147545000Y-69440000D02*
X147545000Y-70138603D01*
X147545000Y-70138603D02*
X149161397Y-71755000D01*
D19*
X140060000Y-58660000D02*
X142060000Y-60660000D01*
X140060000Y-56660000D02*
X140060000Y-58660000D01*
D20*
X140786190Y-63859156D02*
X140733669Y-63817272D01*
X140912210Y-63903252D02*
X140846716Y-63888303D01*
X140979389Y-63903252D02*
X140912210Y-63903252D01*
X141105409Y-63859156D02*
X141044883Y-63888303D01*
X141157932Y-63817270D02*
X141105409Y-63859156D01*
X140733669Y-63817272D02*
X140285000Y-63368603D01*
X141434656Y-63551184D02*
X141382133Y-63593070D01*
X141560676Y-63507088D02*
X141495182Y-63522037D01*
X141627855Y-63507088D02*
X141560676Y-63507088D01*
X141693349Y-63522037D02*
X141627855Y-63507088D01*
X141848284Y-63645593D02*
X141806398Y-63593070D01*
X141753875Y-63551184D02*
X141693349Y-63522037D01*
X141540312Y-64613278D02*
X141511165Y-64552752D01*
X141495182Y-63522037D02*
X141434656Y-63551184D01*
X141511165Y-64552752D02*
X141496216Y-64487258D01*
X140285000Y-63368603D02*
X140285000Y-62435000D01*
X142321397Y-65405000D02*
X141582198Y-64665801D01*
X141382133Y-63593070D02*
X141157932Y-63817270D01*
X141877431Y-63706119D02*
X141848284Y-63645593D01*
X141496216Y-64420079D02*
X141511165Y-64354585D01*
X141511165Y-64354585D02*
X141540312Y-64294059D01*
X141496216Y-64487258D02*
X141496216Y-64420079D01*
X141540312Y-64294059D02*
X141582198Y-64241536D01*
X140285000Y-62435000D02*
X142060000Y-60660000D01*
X141848284Y-63964812D02*
X141877431Y-63904286D01*
X141892380Y-63771613D02*
X141877431Y-63706119D01*
X140846716Y-63888303D02*
X140786190Y-63859156D01*
X141806398Y-63593070D02*
X141753875Y-63551184D01*
X141582198Y-64241536D02*
X141806398Y-64017335D01*
X141806398Y-64017335D02*
X141848284Y-63964812D01*
X141044883Y-63888303D02*
X140979389Y-63903252D01*
X141582198Y-64665801D02*
X141540312Y-64613278D01*
X141877431Y-63904286D02*
X141892380Y-63838792D01*
X143510000Y-65405000D02*
X142321397Y-65405000D01*
X141892380Y-63838792D02*
X141892380Y-63771613D01*
%TO.N,/CAN+*%
X138060000Y-60660000D02*
X139835000Y-62435000D01*
X139835000Y-62435000D02*
X139835000Y-63555000D01*
X139835000Y-63555000D02*
X142003198Y-65723198D01*
X142003198Y-65723198D02*
X143510000Y-67230000D01*
X143510000Y-67230000D02*
X144698603Y-67230000D01*
X144698603Y-67230000D02*
X147095000Y-69626397D01*
X147095000Y-70325000D02*
X148519990Y-71749990D01*
X148519990Y-71749990D02*
X148519990Y-72091402D01*
X147095000Y-69626397D02*
X147095000Y-70325000D01*
X148519990Y-72091402D02*
X148783598Y-72355010D01*
X148783598Y-72355010D02*
X149125010Y-72355010D01*
X149125010Y-72355010D02*
X149795000Y-73025000D01*
D19*
X136060000Y-58660000D02*
X138060000Y-60660000D01*
X136060000Y-56660000D02*
X136060000Y-58660000D01*
%TD*%
D21*
%TO.N,+12V*%
X144253748Y-56645858D02*
X144239605Y-56660000D01*
X145418128Y-57838523D01*
X145714496Y-57705081D01*
X145886590Y-57362224D01*
X145923000Y-57230075D01*
X145923000Y-57785000D01*
X145925440Y-57809776D01*
X145932667Y-57833601D01*
X145944403Y-57855557D01*
X145960197Y-57874803D01*
X147076604Y-58991210D01*
X146762224Y-58833410D01*
X146392380Y-58731510D01*
X146009764Y-58703721D01*
X145629079Y-58751111D01*
X145264952Y-58871858D01*
X145014919Y-59005504D01*
X144881477Y-59301872D01*
X146060000Y-60480395D01*
X146074143Y-60466253D01*
X146253748Y-60645858D01*
X146239605Y-60660000D01*
X147418128Y-61838523D01*
X147714496Y-61705081D01*
X147886590Y-61362224D01*
X147988490Y-60992380D01*
X148016279Y-60609764D01*
X147968889Y-60229079D01*
X147848142Y-59864952D01*
X147730782Y-59645388D01*
X151675197Y-63589803D01*
X151694443Y-63605597D01*
X151716399Y-63617333D01*
X151740224Y-63624560D01*
X151765000Y-63627000D01*
X155545020Y-63627000D01*
X156718000Y-64213490D01*
X156718000Y-67183000D01*
X151803452Y-67183000D01*
X150583952Y-66370000D01*
X151966928Y-66370000D01*
X151979188Y-66494482D01*
X152015498Y-66614180D01*
X152074463Y-66724494D01*
X152153815Y-66821185D01*
X152250506Y-66900537D01*
X152360820Y-66959502D01*
X152480518Y-66995812D01*
X152605000Y-67008072D01*
X154019250Y-67005000D01*
X154178000Y-66846250D01*
X154178000Y-65847000D01*
X154432000Y-65847000D01*
X154432000Y-66846250D01*
X154590750Y-67005000D01*
X156005000Y-67008072D01*
X156129482Y-66995812D01*
X156249180Y-66959502D01*
X156359494Y-66900537D01*
X156456185Y-66821185D01*
X156535537Y-66724494D01*
X156594502Y-66614180D01*
X156630812Y-66494482D01*
X156643072Y-66370000D01*
X156640000Y-66005750D01*
X156481250Y-65847000D01*
X154432000Y-65847000D01*
X154178000Y-65847000D01*
X152128750Y-65847000D01*
X151970000Y-66005750D01*
X151966928Y-66370000D01*
X150583952Y-66370000D01*
X148633952Y-65070000D01*
X151966928Y-65070000D01*
X151970000Y-65434250D01*
X152128750Y-65593000D01*
X154178000Y-65593000D01*
X154178000Y-64593750D01*
X154432000Y-64593750D01*
X154432000Y-65593000D01*
X156481250Y-65593000D01*
X156640000Y-65434250D01*
X156643072Y-65070000D01*
X156630812Y-64945518D01*
X156594502Y-64825820D01*
X156535537Y-64715506D01*
X156456185Y-64618815D01*
X156359494Y-64539463D01*
X156249180Y-64480498D01*
X156129482Y-64444188D01*
X156005000Y-64431928D01*
X154590750Y-64435000D01*
X154432000Y-64593750D01*
X154178000Y-64593750D01*
X154019250Y-64435000D01*
X152605000Y-64431928D01*
X152480518Y-64444188D01*
X152360820Y-64480498D01*
X152250506Y-64539463D01*
X152153815Y-64618815D01*
X152074463Y-64715506D01*
X152015498Y-64825820D01*
X151979188Y-64945518D01*
X151966928Y-65070000D01*
X148633952Y-65070000D01*
X144272000Y-62162032D01*
X144272000Y-62018128D01*
X144881477Y-62018128D01*
X145014919Y-62314496D01*
X145357776Y-62486590D01*
X145727620Y-62588490D01*
X146110236Y-62616279D01*
X146490921Y-62568889D01*
X146855048Y-62448142D01*
X147105081Y-62314496D01*
X147238523Y-62018128D01*
X146060000Y-60839605D01*
X144881477Y-62018128D01*
X144272000Y-62018128D01*
X144272000Y-61455314D01*
X144405504Y-61705081D01*
X144701872Y-61838523D01*
X145880395Y-60660000D01*
X144701872Y-59481477D01*
X144405504Y-59614919D01*
X144272000Y-59880894D01*
X144272000Y-59690000D01*
X144269560Y-59665224D01*
X144262333Y-59641399D01*
X144250597Y-59619443D01*
X144234803Y-59600197D01*
X144215447Y-59584330D01*
X142367000Y-58352032D01*
X142367000Y-58018128D01*
X142881477Y-58018128D01*
X143014919Y-58314496D01*
X143357776Y-58486590D01*
X143727620Y-58588490D01*
X144110236Y-58616279D01*
X144490921Y-58568889D01*
X144855048Y-58448142D01*
X145105081Y-58314496D01*
X145238523Y-58018128D01*
X144060000Y-56839605D01*
X142881477Y-58018128D01*
X142367000Y-58018128D01*
X142367000Y-57633045D01*
X142405504Y-57705081D01*
X142701872Y-57838523D01*
X143880395Y-56660000D01*
X143866253Y-56645858D01*
X144045858Y-56466253D01*
X144060000Y-56480395D01*
X144074143Y-56466253D01*
X144253748Y-56645858D01*
%TA.AperFunction,Conductor*%
D22*
G36*
X144253748Y-56645858D02*
G01*
X144239605Y-56660000D01*
X145418128Y-57838523D01*
X145714496Y-57705081D01*
X145886590Y-57362224D01*
X145923000Y-57230075D01*
X145923000Y-57785000D01*
X145925440Y-57809776D01*
X145932667Y-57833601D01*
X145944403Y-57855557D01*
X145960197Y-57874803D01*
X147076604Y-58991210D01*
X146762224Y-58833410D01*
X146392380Y-58731510D01*
X146009764Y-58703721D01*
X145629079Y-58751111D01*
X145264952Y-58871858D01*
X145014919Y-59005504D01*
X144881477Y-59301872D01*
X146060000Y-60480395D01*
X146074143Y-60466253D01*
X146253748Y-60645858D01*
X146239605Y-60660000D01*
X147418128Y-61838523D01*
X147714496Y-61705081D01*
X147886590Y-61362224D01*
X147988490Y-60992380D01*
X148016279Y-60609764D01*
X147968889Y-60229079D01*
X147848142Y-59864952D01*
X147730782Y-59645388D01*
X151675197Y-63589803D01*
X151694443Y-63605597D01*
X151716399Y-63617333D01*
X151740224Y-63624560D01*
X151765000Y-63627000D01*
X155545020Y-63627000D01*
X156718000Y-64213490D01*
X156718000Y-67183000D01*
X151803452Y-67183000D01*
X150583952Y-66370000D01*
X151966928Y-66370000D01*
X151979188Y-66494482D01*
X152015498Y-66614180D01*
X152074463Y-66724494D01*
X152153815Y-66821185D01*
X152250506Y-66900537D01*
X152360820Y-66959502D01*
X152480518Y-66995812D01*
X152605000Y-67008072D01*
X154019250Y-67005000D01*
X154178000Y-66846250D01*
X154178000Y-65847000D01*
X154432000Y-65847000D01*
X154432000Y-66846250D01*
X154590750Y-67005000D01*
X156005000Y-67008072D01*
X156129482Y-66995812D01*
X156249180Y-66959502D01*
X156359494Y-66900537D01*
X156456185Y-66821185D01*
X156535537Y-66724494D01*
X156594502Y-66614180D01*
X156630812Y-66494482D01*
X156643072Y-66370000D01*
X156640000Y-66005750D01*
X156481250Y-65847000D01*
X154432000Y-65847000D01*
X154178000Y-65847000D01*
X152128750Y-65847000D01*
X151970000Y-66005750D01*
X151966928Y-66370000D01*
X150583952Y-66370000D01*
X148633952Y-65070000D01*
X151966928Y-65070000D01*
X151970000Y-65434250D01*
X152128750Y-65593000D01*
X154178000Y-65593000D01*
X154178000Y-64593750D01*
X154432000Y-64593750D01*
X154432000Y-65593000D01*
X156481250Y-65593000D01*
X156640000Y-65434250D01*
X156643072Y-65070000D01*
X156630812Y-64945518D01*
X156594502Y-64825820D01*
X156535537Y-64715506D01*
X156456185Y-64618815D01*
X156359494Y-64539463D01*
X156249180Y-64480498D01*
X156129482Y-64444188D01*
X156005000Y-64431928D01*
X154590750Y-64435000D01*
X154432000Y-64593750D01*
X154178000Y-64593750D01*
X154019250Y-64435000D01*
X152605000Y-64431928D01*
X152480518Y-64444188D01*
X152360820Y-64480498D01*
X152250506Y-64539463D01*
X152153815Y-64618815D01*
X152074463Y-64715506D01*
X152015498Y-64825820D01*
X151979188Y-64945518D01*
X151966928Y-65070000D01*
X148633952Y-65070000D01*
X144272000Y-62162032D01*
X144272000Y-62018128D01*
X144881477Y-62018128D01*
X145014919Y-62314496D01*
X145357776Y-62486590D01*
X145727620Y-62588490D01*
X146110236Y-62616279D01*
X146490921Y-62568889D01*
X146855048Y-62448142D01*
X147105081Y-62314496D01*
X147238523Y-62018128D01*
X146060000Y-60839605D01*
X144881477Y-62018128D01*
X144272000Y-62018128D01*
X144272000Y-61455314D01*
X144405504Y-61705081D01*
X144701872Y-61838523D01*
X145880395Y-60660000D01*
X144701872Y-59481477D01*
X144405504Y-59614919D01*
X144272000Y-59880894D01*
X144272000Y-59690000D01*
X144269560Y-59665224D01*
X144262333Y-59641399D01*
X144250597Y-59619443D01*
X144234803Y-59600197D01*
X144215447Y-59584330D01*
X142367000Y-58352032D01*
X142367000Y-58018128D01*
X142881477Y-58018128D01*
X143014919Y-58314496D01*
X143357776Y-58486590D01*
X143727620Y-58588490D01*
X144110236Y-58616279D01*
X144490921Y-58568889D01*
X144855048Y-58448142D01*
X145105081Y-58314496D01*
X145238523Y-58018128D01*
X144060000Y-56839605D01*
X142881477Y-58018128D01*
X142367000Y-58018128D01*
X142367000Y-57633045D01*
X142405504Y-57705081D01*
X142701872Y-57838523D01*
X143880395Y-56660000D01*
X143866253Y-56645858D01*
X144045858Y-56466253D01*
X144060000Y-56480395D01*
X144074143Y-56466253D01*
X144253748Y-56645858D01*
G37*
%TD.AperFunction*%
%TD*%
D21*
%TO.N,Net-(C3-Pad1)*%
X155697989Y-68882595D02*
X154590750Y-68885000D01*
X154432000Y-69043750D01*
X154432000Y-70043000D01*
X156481250Y-70043000D01*
X156640000Y-69884250D01*
X156640499Y-69825105D01*
X156718000Y-69902606D01*
X156718000Y-70578389D01*
X156642228Y-70719970D01*
X156640000Y-70455750D01*
X156481250Y-70297000D01*
X154432000Y-70297000D01*
X154432000Y-71296250D01*
X154590750Y-71455000D01*
X156005000Y-71458072D01*
X156129482Y-71445812D01*
X156249180Y-71409502D01*
X156282827Y-71391517D01*
X155795554Y-72301996D01*
X155243154Y-72670263D01*
X155233084Y-72677719D01*
X154541983Y-73244286D01*
X154524370Y-73261881D01*
X154510527Y-73282574D01*
X154505167Y-73293899D01*
X154229837Y-73958605D01*
X154139494Y-73884463D01*
X154029180Y-73825498D01*
X153909482Y-73789188D01*
X153785000Y-73776928D01*
X153320750Y-73780000D01*
X153162000Y-73938750D01*
X153162000Y-75438000D01*
X153182000Y-75438000D01*
X153182000Y-75692000D01*
X153162000Y-75692000D01*
X153162000Y-75712000D01*
X152908000Y-75712000D01*
X152908000Y-75692000D01*
X152888000Y-75692000D01*
X152888000Y-75438000D01*
X152908000Y-75438000D01*
X152908000Y-73938750D01*
X152749250Y-73780000D01*
X152285000Y-73776928D01*
X152160518Y-73789188D01*
X152040820Y-73825498D01*
X151930506Y-73884463D01*
X151892000Y-73916064D01*
X151892000Y-70537606D01*
X151969967Y-70459639D01*
X151966928Y-70820000D01*
X151979188Y-70944482D01*
X152015498Y-71064180D01*
X152074463Y-71174494D01*
X152153815Y-71271185D01*
X152250506Y-71350537D01*
X152360820Y-71409502D01*
X152480518Y-71445812D01*
X152605000Y-71458072D01*
X154019250Y-71455000D01*
X154178000Y-71296250D01*
X154178000Y-70297000D01*
X154158000Y-70297000D01*
X154158000Y-70043000D01*
X154178000Y-70043000D01*
X154178000Y-69043750D01*
X154019250Y-68885000D01*
X153545635Y-68883971D01*
X154357606Y-68072000D01*
X154887394Y-68072000D01*
X155697989Y-68882595D01*
%TA.AperFunction,Conductor*%
D22*
G36*
X155697989Y-68882595D02*
G01*
X154590750Y-68885000D01*
X154432000Y-69043750D01*
X154432000Y-70043000D01*
X156481250Y-70043000D01*
X156640000Y-69884250D01*
X156640499Y-69825105D01*
X156718000Y-69902606D01*
X156718000Y-70578389D01*
X156642228Y-70719970D01*
X156640000Y-70455750D01*
X156481250Y-70297000D01*
X154432000Y-70297000D01*
X154432000Y-71296250D01*
X154590750Y-71455000D01*
X156005000Y-71458072D01*
X156129482Y-71445812D01*
X156249180Y-71409502D01*
X156282827Y-71391517D01*
X155795554Y-72301996D01*
X155243154Y-72670263D01*
X155233084Y-72677719D01*
X154541983Y-73244286D01*
X154524370Y-73261881D01*
X154510527Y-73282574D01*
X154505167Y-73293899D01*
X154229837Y-73958605D01*
X154139494Y-73884463D01*
X154029180Y-73825498D01*
X153909482Y-73789188D01*
X153785000Y-73776928D01*
X153320750Y-73780000D01*
X153162000Y-73938750D01*
X153162000Y-75438000D01*
X153182000Y-75438000D01*
X153182000Y-75692000D01*
X153162000Y-75692000D01*
X153162000Y-75712000D01*
X152908000Y-75712000D01*
X152908000Y-75692000D01*
X152888000Y-75692000D01*
X152888000Y-75438000D01*
X152908000Y-75438000D01*
X152908000Y-73938750D01*
X152749250Y-73780000D01*
X152285000Y-73776928D01*
X152160518Y-73789188D01*
X152040820Y-73825498D01*
X151930506Y-73884463D01*
X151892000Y-73916064D01*
X151892000Y-70537606D01*
X151969967Y-70459639D01*
X151966928Y-70820000D01*
X151979188Y-70944482D01*
X152015498Y-71064180D01*
X152074463Y-71174494D01*
X152153815Y-71271185D01*
X152250506Y-71350537D01*
X152360820Y-71409502D01*
X152480518Y-71445812D01*
X152605000Y-71458072D01*
X154019250Y-71455000D01*
X154178000Y-71296250D01*
X154178000Y-70297000D01*
X154158000Y-70297000D01*
X154158000Y-70043000D01*
X154178000Y-70043000D01*
X154178000Y-69043750D01*
X154019250Y-68885000D01*
X153545635Y-68883971D01*
X154357606Y-68072000D01*
X154887394Y-68072000D01*
X155697989Y-68882595D01*
G37*
%TD.AperFunction*%
%TD*%
D21*
%TO.N,GND*%
X116210101Y-51005843D02*
X116157998Y-51103320D01*
X116121688Y-51223018D01*
X116109428Y-51347500D01*
X116112500Y-52374250D01*
X116271250Y-52533000D01*
X117933000Y-52533000D01*
X117933000Y-52513000D01*
X118187000Y-52513000D01*
X118187000Y-52533000D01*
X119848750Y-52533000D01*
X120007500Y-52374250D01*
X120010572Y-51347500D01*
X119998312Y-51223018D01*
X119962002Y-51103320D01*
X119910311Y-51006614D01*
X121014316Y-51006844D01*
X120881477Y-51301872D01*
X122060000Y-52480395D01*
X123238523Y-51301872D01*
X123105881Y-51007280D01*
X125013940Y-51007677D01*
X124881477Y-51301872D01*
X126060000Y-52480395D01*
X127238523Y-51301872D01*
X127106256Y-51008113D01*
X129013565Y-51008511D01*
X128881477Y-51301872D01*
X130060000Y-52480395D01*
X131238523Y-51301872D01*
X131106631Y-51008947D01*
X133024971Y-51009346D01*
X132818541Y-51147278D01*
X132547278Y-51418541D01*
X132334148Y-51737513D01*
X132187341Y-52091935D01*
X132112500Y-52468188D01*
X132112500Y-52851812D01*
X132187341Y-53228065D01*
X132334148Y-53582487D01*
X132547278Y-53901459D01*
X132818541Y-54172722D01*
X133137513Y-54385852D01*
X133491935Y-54532659D01*
X133868188Y-54607500D01*
X134251812Y-54607500D01*
X134628065Y-54532659D01*
X134982487Y-54385852D01*
X135301459Y-54172722D01*
X135572722Y-53901459D01*
X135785852Y-53582487D01*
X135932659Y-53228065D01*
X136007500Y-52851812D01*
X136007500Y-52468188D01*
X135932659Y-52091935D01*
X135785852Y-51737513D01*
X135572722Y-51418541D01*
X135301459Y-51147278D01*
X135095675Y-51009778D01*
X137023724Y-51010179D01*
X136818541Y-51147278D01*
X136547278Y-51418541D01*
X136334148Y-51737513D01*
X136187341Y-52091935D01*
X136112500Y-52468188D01*
X136112500Y-52851812D01*
X136187341Y-53228065D01*
X136334148Y-53582487D01*
X136547278Y-53901459D01*
X136818541Y-54172722D01*
X137137513Y-54385852D01*
X137491935Y-54532659D01*
X137868188Y-54607500D01*
X138251812Y-54607500D01*
X138628065Y-54532659D01*
X138982487Y-54385852D01*
X139301459Y-54172722D01*
X139572722Y-53901459D01*
X139785852Y-53582487D01*
X139932659Y-53228065D01*
X140007500Y-52851812D01*
X140007500Y-52468188D01*
X139932659Y-52091935D01*
X139785852Y-51737513D01*
X139572722Y-51418541D01*
X139301459Y-51147278D01*
X139096923Y-51010611D01*
X141022477Y-51011012D01*
X140818541Y-51147278D01*
X140547278Y-51418541D01*
X140334148Y-51737513D01*
X140187341Y-52091935D01*
X140112500Y-52468188D01*
X140112500Y-52851812D01*
X140187341Y-53228065D01*
X140334148Y-53582487D01*
X140547278Y-53901459D01*
X140818541Y-54172722D01*
X141137513Y-54385852D01*
X141491935Y-54532659D01*
X141868188Y-54607500D01*
X142251812Y-54607500D01*
X142628065Y-54532659D01*
X142982487Y-54385852D01*
X143301459Y-54172722D01*
X143572722Y-53901459D01*
X143785852Y-53582487D01*
X143932659Y-53228065D01*
X144007500Y-52851812D01*
X144007500Y-52468188D01*
X143932659Y-52091935D01*
X143785852Y-51737513D01*
X143572722Y-51418541D01*
X143301459Y-51147278D01*
X143098170Y-51011445D01*
X145021230Y-51011846D01*
X144818541Y-51147278D01*
X144547278Y-51418541D01*
X144334148Y-51737513D01*
X144187341Y-52091935D01*
X144112500Y-52468188D01*
X144112500Y-52851812D01*
X144187341Y-53228065D01*
X144334148Y-53582487D01*
X144547278Y-53901459D01*
X144818541Y-54172722D01*
X145137513Y-54385852D01*
X145491935Y-54532659D01*
X145868188Y-54607500D01*
X146251812Y-54607500D01*
X146628065Y-54532659D01*
X146982487Y-54385852D01*
X147301459Y-54172722D01*
X147572722Y-53901459D01*
X147785852Y-53582487D01*
X147932659Y-53228065D01*
X148007500Y-52851812D01*
X148007500Y-52468188D01*
X147932659Y-52091935D01*
X147785852Y-51737513D01*
X147572722Y-51418541D01*
X147301459Y-51147278D01*
X147099418Y-51012278D01*
X161900000Y-51015362D01*
X161900001Y-81890000D01*
X102260000Y-81890000D01*
X102260000Y-77009655D01*
X102351525Y-77146632D01*
X102558368Y-77353475D01*
X102801589Y-77515990D01*
X103071842Y-77627932D01*
X103358740Y-77685000D01*
X103651260Y-77685000D01*
X103938158Y-77627932D01*
X104208411Y-77515990D01*
X104451632Y-77353475D01*
X104658475Y-77146632D01*
X104776100Y-76970594D01*
X104947412Y-77200269D01*
X105163645Y-77395178D01*
X105413748Y-77544157D01*
X105688109Y-77641481D01*
X105918000Y-77520814D01*
X105918000Y-76327000D01*
X105898000Y-76327000D01*
X105898000Y-76073000D01*
X105918000Y-76073000D01*
X105918000Y-76053000D01*
X106172000Y-76053000D01*
X106172000Y-76073000D01*
X106192000Y-76073000D01*
X106192000Y-76327000D01*
X106172000Y-76327000D01*
X106172000Y-77520814D01*
X106401891Y-77641481D01*
X106676252Y-77544157D01*
X106926355Y-77395178D01*
X107015000Y-77315275D01*
X107015000Y-79562704D01*
X106954774Y-79708102D01*
X106915000Y-79908061D01*
X106915000Y-80111939D01*
X106954774Y-80311898D01*
X107032795Y-80500256D01*
X107146063Y-80669774D01*
X107290226Y-80813937D01*
X107459744Y-80927205D01*
X107648102Y-81005226D01*
X107848061Y-81045000D01*
X108051939Y-81045000D01*
X108251898Y-81005226D01*
X108440256Y-80927205D01*
X108609774Y-80813937D01*
X108753937Y-80669774D01*
X108867205Y-80500256D01*
X108945226Y-80311898D01*
X108985000Y-80111939D01*
X108985000Y-79908061D01*
X108945226Y-79708102D01*
X108885000Y-79562705D01*
X108885000Y-77043059D01*
X110725000Y-77043059D01*
X110725000Y-77246937D01*
X110764774Y-77446896D01*
X110842795Y-77635254D01*
X110956063Y-77804772D01*
X111100226Y-77948935D01*
X111269744Y-78062203D01*
X111458102Y-78140224D01*
X111638532Y-78176113D01*
X112115403Y-78652985D01*
X112140922Y-78684080D01*
X112172017Y-78709599D01*
X112239248Y-78764774D01*
X112265022Y-78785926D01*
X112406606Y-78861605D01*
X112560234Y-78908207D01*
X112679969Y-78920000D01*
X112679979Y-78920000D01*
X112720002Y-78923942D01*
X112760025Y-78920000D01*
X130801783Y-78920000D01*
X130954744Y-79022205D01*
X131143102Y-79100226D01*
X131343061Y-79140000D01*
X131546939Y-79140000D01*
X131746898Y-79100226D01*
X131935256Y-79022205D01*
X132104774Y-78908937D01*
X132242315Y-78771396D01*
X132260020Y-78785926D01*
X132401604Y-78861605D01*
X132555232Y-78908207D01*
X132674967Y-78920000D01*
X132674976Y-78920000D01*
X132714999Y-78923942D01*
X132755022Y-78920000D01*
X135593191Y-78920000D01*
X135529774Y-79073102D01*
X135490000Y-79273061D01*
X135490000Y-79476939D01*
X135529774Y-79676898D01*
X135607795Y-79865256D01*
X135704510Y-80010000D01*
X135607795Y-80154744D01*
X135529774Y-80343102D01*
X135490000Y-80543061D01*
X135490000Y-80746939D01*
X135529774Y-80946898D01*
X135607795Y-81135256D01*
X135721063Y-81304774D01*
X135865226Y-81448937D01*
X136034744Y-81562205D01*
X136223102Y-81640226D01*
X136423061Y-81680000D01*
X136626939Y-81680000D01*
X136826898Y-81640226D01*
X137015256Y-81562205D01*
X137184774Y-81448937D01*
X137328937Y-81304774D01*
X137442205Y-81135256D01*
X137446599Y-81124649D01*
X137557500Y-81135572D01*
X138032500Y-81135572D01*
X138203316Y-81118748D01*
X138367567Y-81068923D01*
X138518942Y-80988012D01*
X138651623Y-80879123D01*
X138696041Y-80825000D01*
X138757925Y-80825000D01*
X138843377Y-80929123D01*
X138976058Y-81038012D01*
X139127433Y-81118923D01*
X139291684Y-81168748D01*
X139462500Y-81185572D01*
X139937500Y-81185572D01*
X140108316Y-81168748D01*
X140272567Y-81118923D01*
X140423942Y-81038012D01*
X140556623Y-80929123D01*
X140665512Y-80796442D01*
X140746423Y-80645067D01*
X140777366Y-80543061D01*
X153905000Y-80543061D01*
X153905000Y-80746939D01*
X153944774Y-80946898D01*
X154022795Y-81135256D01*
X154136063Y-81304774D01*
X154280226Y-81448937D01*
X154449744Y-81562205D01*
X154638102Y-81640226D01*
X154838061Y-81680000D01*
X155041939Y-81680000D01*
X155241898Y-81640226D01*
X155430256Y-81562205D01*
X155599774Y-81448937D01*
X155743937Y-81304774D01*
X155857205Y-81135256D01*
X155935226Y-80946898D01*
X155975000Y-80746939D01*
X155975000Y-80543061D01*
X155935226Y-80343102D01*
X155857205Y-80154744D01*
X155743937Y-79985226D01*
X155599774Y-79841063D01*
X155430256Y-79727795D01*
X155241898Y-79649774D01*
X155041939Y-79610000D01*
X154838061Y-79610000D01*
X154638102Y-79649774D01*
X154449744Y-79727795D01*
X154280226Y-79841063D01*
X154136063Y-79985226D01*
X154022795Y-80154744D01*
X153944774Y-80343102D01*
X153905000Y-80543061D01*
X140777366Y-80543061D01*
X140796248Y-80480816D01*
X140813072Y-80310000D01*
X140813072Y-79710000D01*
X140796248Y-79539184D01*
X140746423Y-79374933D01*
X140666226Y-79224894D01*
X140705537Y-79176994D01*
X140764502Y-79066680D01*
X140800812Y-78946982D01*
X140813072Y-78822500D01*
X140810000Y-78570750D01*
X140651250Y-78412000D01*
X139827000Y-78412000D01*
X139827000Y-78432000D01*
X139573000Y-78432000D01*
X139573000Y-78412000D01*
X139553000Y-78412000D01*
X139553000Y-78158000D01*
X139573000Y-78158000D01*
X139573000Y-77271250D01*
X139827000Y-77271250D01*
X139827000Y-78158000D01*
X140651250Y-78158000D01*
X140810000Y-77999250D01*
X140813072Y-77747500D01*
X140800812Y-77623018D01*
X140764502Y-77503320D01*
X140705537Y-77393006D01*
X140626185Y-77296315D01*
X140529494Y-77216963D01*
X140419180Y-77157998D01*
X140299482Y-77121688D01*
X140175000Y-77109428D01*
X139985750Y-77112500D01*
X139827000Y-77271250D01*
X139573000Y-77271250D01*
X139414250Y-77112500D01*
X139225000Y-77109428D01*
X139100518Y-77121688D01*
X138980820Y-77157998D01*
X138870506Y-77216963D01*
X138773815Y-77296315D01*
X138704692Y-77380542D01*
X138651623Y-77315877D01*
X138518942Y-77206988D01*
X138367567Y-77126077D01*
X138203316Y-77076252D01*
X138032500Y-77059428D01*
X137943593Y-77059428D01*
X137963207Y-76994768D01*
X137975000Y-76875033D01*
X137975000Y-76875024D01*
X137978942Y-76835001D01*
X137975000Y-76794978D01*
X137975000Y-75573217D01*
X138077205Y-75420256D01*
X138155226Y-75231898D01*
X138195000Y-75031939D01*
X138195000Y-74828061D01*
X138155226Y-74628102D01*
X138077205Y-74439744D01*
X138069406Y-74428072D01*
X138760000Y-74428072D01*
X138884482Y-74415812D01*
X138920124Y-74405000D01*
X140271130Y-74405000D01*
X140287310Y-74407552D01*
X140351224Y-74405000D01*
X140375033Y-74405000D01*
X140391266Y-74403401D01*
X140447722Y-74401147D01*
X140470964Y-74395551D01*
X140494768Y-74393207D01*
X140548863Y-74376798D01*
X140603803Y-74363571D01*
X140625509Y-74353548D01*
X140648396Y-74346605D01*
X140698250Y-74319957D01*
X140749554Y-74296266D01*
X140768889Y-74282200D01*
X140789980Y-74270926D01*
X140833676Y-74235066D01*
X140846845Y-74225485D01*
X140864602Y-74209685D01*
X140914080Y-74169080D01*
X140924478Y-74156410D01*
X141032833Y-74060000D01*
X141071939Y-74060000D01*
X141271898Y-74020226D01*
X141425000Y-73956808D01*
X141425001Y-76191782D01*
X141322795Y-76344744D01*
X141244774Y-76533102D01*
X141205000Y-76733061D01*
X141205000Y-76936939D01*
X141244774Y-77136898D01*
X141322795Y-77325256D01*
X141436063Y-77494774D01*
X141580226Y-77638937D01*
X141749744Y-77752205D01*
X141938102Y-77830226D01*
X142138061Y-77870000D01*
X142341939Y-77870000D01*
X142541898Y-77830226D01*
X142730256Y-77752205D01*
X142899774Y-77638937D01*
X143043937Y-77494774D01*
X143157205Y-77325256D01*
X143235226Y-77136898D01*
X143275000Y-76936939D01*
X143275000Y-76733061D01*
X143235226Y-76533102D01*
X143157205Y-76344744D01*
X143055000Y-76191783D01*
X143055000Y-72452583D01*
X143295081Y-72212503D01*
X143363730Y-72340936D01*
X143339463Y-72370506D01*
X143280498Y-72480820D01*
X143244188Y-72600518D01*
X143231928Y-72725000D01*
X143235000Y-72739250D01*
X143393750Y-72898000D01*
X144718000Y-72898000D01*
X144718000Y-72878000D01*
X144972000Y-72878000D01*
X144972000Y-72898000D01*
X144992000Y-72898000D01*
X144992000Y-73152000D01*
X144972000Y-73152000D01*
X144972000Y-73172000D01*
X144718000Y-73172000D01*
X144718000Y-73152000D01*
X143393750Y-73152000D01*
X143235000Y-73310750D01*
X143231928Y-73325000D01*
X143244188Y-73449482D01*
X143280498Y-73569180D01*
X143339463Y-73679494D01*
X143363730Y-73709064D01*
X143291916Y-73843418D01*
X143247071Y-73991255D01*
X143231928Y-74145000D01*
X143231928Y-74445000D01*
X143247071Y-74598745D01*
X143291916Y-74746582D01*
X143364742Y-74882829D01*
X143462749Y-75002251D01*
X143582171Y-75100258D01*
X143718418Y-75173084D01*
X143866255Y-75217929D01*
X144020000Y-75233072D01*
X144030000Y-75233072D01*
X144030001Y-76859967D01*
X144026058Y-76900000D01*
X144030001Y-76940033D01*
X144041794Y-77059768D01*
X144072205Y-77160021D01*
X144088396Y-77213396D01*
X144164074Y-77354980D01*
X144233520Y-77439599D01*
X144265921Y-77479080D01*
X144297015Y-77504599D01*
X145235000Y-78442584D01*
X145235000Y-78731782D01*
X145132795Y-78884744D01*
X145054774Y-79073102D01*
X145015000Y-79273061D01*
X145015000Y-79476939D01*
X145054774Y-79676898D01*
X145132795Y-79865256D01*
X145246063Y-80034774D01*
X145390226Y-80178937D01*
X145559744Y-80292205D01*
X145748102Y-80370226D01*
X145948061Y-80410000D01*
X146151939Y-80410000D01*
X146351898Y-80370226D01*
X146540256Y-80292205D01*
X146709774Y-80178937D01*
X146853937Y-80034774D01*
X146967205Y-79865256D01*
X147045226Y-79676898D01*
X147085000Y-79476939D01*
X147085000Y-79273061D01*
X147045226Y-79073102D01*
X146967205Y-78884744D01*
X146865000Y-78731783D01*
X146865000Y-78145022D01*
X146868942Y-78104999D01*
X146865000Y-78064976D01*
X146865000Y-78064967D01*
X146853207Y-77945232D01*
X146853137Y-77945000D01*
X147186928Y-77945000D01*
X147199188Y-78069482D01*
X147235498Y-78189180D01*
X147294463Y-78299494D01*
X147373815Y-78396185D01*
X147470506Y-78475537D01*
X147580820Y-78534502D01*
X147700518Y-78570812D01*
X147825000Y-78583072D01*
X148076750Y-78580000D01*
X148235500Y-78421250D01*
X148235500Y-77597000D01*
X147348750Y-77597000D01*
X147190000Y-77755750D01*
X147186928Y-77945000D01*
X146853137Y-77945000D01*
X146806605Y-77791604D01*
X146730926Y-77650020D01*
X146629080Y-77525920D01*
X146597986Y-77500402D01*
X145660000Y-76562417D01*
X145660000Y-75233072D01*
X145670000Y-75233072D01*
X145823745Y-75217929D01*
X145971582Y-75173084D01*
X146107829Y-75100258D01*
X146227251Y-75002251D01*
X146232848Y-74995431D01*
X147628462Y-76391046D01*
X147580820Y-76405498D01*
X147470506Y-76464463D01*
X147373815Y-76543815D01*
X147294463Y-76640506D01*
X147235498Y-76750820D01*
X147199188Y-76870518D01*
X147186928Y-76995000D01*
X147190000Y-77184250D01*
X147348750Y-77343000D01*
X148235500Y-77343000D01*
X148235500Y-77323000D01*
X148489500Y-77323000D01*
X148489500Y-77343000D01*
X148509500Y-77343000D01*
X148509500Y-77597000D01*
X148489500Y-77597000D01*
X148489500Y-78421250D01*
X148648250Y-78580000D01*
X148900000Y-78583072D01*
X149024482Y-78570812D01*
X149144180Y-78534502D01*
X149254494Y-78475537D01*
X149302394Y-78436226D01*
X149452433Y-78516423D01*
X149616684Y-78566248D01*
X149787500Y-78583072D01*
X150387500Y-78583072D01*
X150558316Y-78566248D01*
X150722567Y-78516423D01*
X150873942Y-78435512D01*
X151006623Y-78326623D01*
X151040782Y-78285000D01*
X157947977Y-78285000D01*
X157988000Y-78288942D01*
X158028023Y-78285000D01*
X158028033Y-78285000D01*
X158147768Y-78273207D01*
X158301396Y-78226605D01*
X158442980Y-78150926D01*
X158567080Y-78049080D01*
X158592603Y-78017980D01*
X158662981Y-77947602D01*
X158694080Y-77922080D01*
X158795926Y-77797980D01*
X158871605Y-77656396D01*
X158918207Y-77502768D01*
X158930000Y-77383033D01*
X158930000Y-77383024D01*
X158933942Y-77343001D01*
X158930000Y-77302978D01*
X158930000Y-77087843D01*
X159099081Y-76949081D01*
X159272157Y-76738188D01*
X159400764Y-76497581D01*
X159479960Y-76236507D01*
X159500000Y-76033036D01*
X159500000Y-75096963D01*
X159479960Y-74893493D01*
X159400764Y-74632419D01*
X159272157Y-74391812D01*
X159099080Y-74180919D01*
X158888187Y-74007843D01*
X158647580Y-73879236D01*
X158386506Y-73800040D01*
X158115000Y-73773299D01*
X157843493Y-73800040D01*
X157582419Y-73879236D01*
X157341812Y-74007843D01*
X157130919Y-74180920D01*
X156957843Y-74391813D01*
X156842514Y-74607579D01*
X156805972Y-74517651D01*
X156656028Y-74289939D01*
X156464540Y-74095855D01*
X156238868Y-73942858D01*
X155987684Y-73836827D01*
X155916185Y-73822682D01*
X155702000Y-73945344D01*
X155702000Y-75438000D01*
X155722000Y-75438000D01*
X155722000Y-75692000D01*
X155702000Y-75692000D01*
X155702000Y-75712000D01*
X155448000Y-75712000D01*
X155448000Y-75692000D01*
X155428000Y-75692000D01*
X155428000Y-75438000D01*
X155448000Y-75438000D01*
X155448000Y-73945344D01*
X155233815Y-73822682D01*
X155162316Y-73836827D01*
X154911132Y-73942858D01*
X154685460Y-74095855D01*
X154493972Y-74289939D01*
X154421582Y-74399874D01*
X154410812Y-74290518D01*
X154374502Y-74170820D01*
X154315537Y-74060506D01*
X154236185Y-73963815D01*
X154139494Y-73884463D01*
X154029180Y-73825498D01*
X153909482Y-73789188D01*
X153785000Y-73776928D01*
X152285000Y-73776928D01*
X152160518Y-73789188D01*
X152040820Y-73825498D01*
X151930506Y-73884463D01*
X151833815Y-73963815D01*
X151754463Y-74060506D01*
X151695498Y-74170820D01*
X151659188Y-74290518D01*
X151646928Y-74415000D01*
X151646928Y-76655000D01*
X151040782Y-76655000D01*
X151006623Y-76613377D01*
X150873942Y-76504488D01*
X150722567Y-76423577D01*
X150558316Y-76373752D01*
X150387500Y-76356928D01*
X149899512Y-76356928D01*
X148770811Y-75228227D01*
X148820000Y-75233072D01*
X149509250Y-75230000D01*
X149668000Y-75071250D01*
X149668000Y-74422000D01*
X149922000Y-74422000D01*
X149922000Y-75071250D01*
X150080750Y-75230000D01*
X150770000Y-75233072D01*
X150894482Y-75220812D01*
X151014180Y-75184502D01*
X151124494Y-75125537D01*
X151221185Y-75046185D01*
X151300537Y-74949494D01*
X151359502Y-74839180D01*
X151395812Y-74719482D01*
X151408072Y-74595000D01*
X151405000Y-74580750D01*
X151246250Y-74422000D01*
X149922000Y-74422000D01*
X149668000Y-74422000D01*
X148343750Y-74422000D01*
X148185000Y-74580750D01*
X148181928Y-74595000D01*
X148186773Y-74644189D01*
X147500000Y-73957417D01*
X147500000Y-72430033D01*
X147503943Y-72390000D01*
X147488207Y-72230232D01*
X147441605Y-72076604D01*
X147365926Y-71935020D01*
X147289599Y-71842015D01*
X147264080Y-71810920D01*
X147232985Y-71785401D01*
X146654603Y-71207020D01*
X146629080Y-71175920D01*
X146504980Y-71074074D01*
X146364678Y-70999080D01*
X146398084Y-70936582D01*
X146442929Y-70788745D01*
X146453283Y-70683625D01*
X146480914Y-70735320D01*
X146572763Y-70847238D01*
X146600808Y-70870254D01*
X147784990Y-72054437D01*
X147784990Y-72055297D01*
X147781434Y-72091402D01*
X147784990Y-72127506D01*
X147784990Y-72127507D01*
X147795625Y-72235487D01*
X147837653Y-72374035D01*
X147905903Y-72501722D01*
X147997753Y-72613640D01*
X148025798Y-72636656D01*
X148189300Y-72800158D01*
X148181928Y-72875000D01*
X148181928Y-73175000D01*
X148197071Y-73328745D01*
X148241916Y-73476582D01*
X148313730Y-73610936D01*
X148289463Y-73640506D01*
X148230498Y-73750820D01*
X148194188Y-73870518D01*
X148181928Y-73995000D01*
X148185000Y-74009250D01*
X148343750Y-74168000D01*
X149668000Y-74168000D01*
X149668000Y-74148000D01*
X149922000Y-74148000D01*
X149922000Y-74168000D01*
X151246250Y-74168000D01*
X151405000Y-74009250D01*
X151408072Y-73995000D01*
X151395812Y-73870518D01*
X151359502Y-73750820D01*
X151300537Y-73640506D01*
X151276270Y-73610936D01*
X151348084Y-73476582D01*
X151392929Y-73328745D01*
X151408072Y-73175000D01*
X151408072Y-72875000D01*
X151392929Y-72721255D01*
X151348084Y-72573418D01*
X151275258Y-72437171D01*
X151236546Y-72390000D01*
X151275258Y-72342829D01*
X151348084Y-72206582D01*
X151392929Y-72058745D01*
X151408072Y-71905000D01*
X151408072Y-71605000D01*
X151392929Y-71451255D01*
X151348084Y-71303418D01*
X151275258Y-71167171D01*
X151236546Y-71120000D01*
X151275258Y-71072829D01*
X151348084Y-70936582D01*
X151392929Y-70788745D01*
X151408072Y-70635000D01*
X151408072Y-70335000D01*
X151392929Y-70181255D01*
X151348084Y-70033418D01*
X151275258Y-69897171D01*
X151177251Y-69777749D01*
X151167809Y-69770000D01*
X151966928Y-69770000D01*
X151966928Y-70570000D01*
X151983992Y-70743254D01*
X152034528Y-70909850D01*
X152116595Y-71063386D01*
X152227038Y-71197962D01*
X152361614Y-71308405D01*
X152515150Y-71390472D01*
X152681746Y-71441008D01*
X152855000Y-71458072D01*
X155755000Y-71458072D01*
X155928254Y-71441008D01*
X156094850Y-71390472D01*
X156248386Y-71308405D01*
X156382962Y-71197962D01*
X156493405Y-71063386D01*
X156575472Y-70909850D01*
X156626008Y-70743254D01*
X156643072Y-70570000D01*
X156643072Y-69770000D01*
X156626008Y-69596746D01*
X156575472Y-69430150D01*
X156493405Y-69276614D01*
X156382962Y-69142038D01*
X156248386Y-69031595D01*
X156094850Y-68949528D01*
X155928254Y-68898992D01*
X155755000Y-68881928D01*
X152855000Y-68881928D01*
X152681746Y-68898992D01*
X152515150Y-68949528D01*
X152361614Y-69031595D01*
X152227038Y-69142038D01*
X152116595Y-69276614D01*
X152034528Y-69430150D01*
X151983992Y-69596746D01*
X151966928Y-69770000D01*
X151167809Y-69770000D01*
X151057829Y-69679742D01*
X150921582Y-69606916D01*
X150773745Y-69562071D01*
X150620000Y-69546928D01*
X148970000Y-69546928D01*
X148816255Y-69562071D01*
X148668418Y-69606916D01*
X148532171Y-69679742D01*
X148412749Y-69777749D01*
X148327486Y-69881643D01*
X148280000Y-69834157D01*
X148280000Y-69476105D01*
X148283556Y-69440000D01*
X148269365Y-69295915D01*
X148227337Y-69157366D01*
X148159087Y-69029680D01*
X148090253Y-68945806D01*
X148090250Y-68945803D01*
X148067237Y-68917762D01*
X148039197Y-68894750D01*
X144623072Y-65478626D01*
X144623072Y-65320000D01*
X151966928Y-65320000D01*
X151966928Y-66120000D01*
X151983992Y-66293254D01*
X152034528Y-66459850D01*
X152116595Y-66613386D01*
X152227038Y-66747962D01*
X152361614Y-66858405D01*
X152515150Y-66940472D01*
X152681746Y-66991008D01*
X152855000Y-67008072D01*
X155755000Y-67008072D01*
X155928254Y-66991008D01*
X156094850Y-66940472D01*
X156248386Y-66858405D01*
X156382962Y-66747962D01*
X156493405Y-66613386D01*
X156575472Y-66459850D01*
X156626008Y-66293254D01*
X156643072Y-66120000D01*
X156643072Y-65320000D01*
X156626008Y-65146746D01*
X156575472Y-64980150D01*
X156493405Y-64826614D01*
X156382962Y-64692038D01*
X156248386Y-64581595D01*
X156094850Y-64499528D01*
X155928254Y-64448992D01*
X155755000Y-64431928D01*
X152855000Y-64431928D01*
X152681746Y-64448992D01*
X152515150Y-64499528D01*
X152361614Y-64581595D01*
X152227038Y-64692038D01*
X152116595Y-64826614D01*
X152034528Y-64980150D01*
X151983992Y-65146746D01*
X151966928Y-65320000D01*
X144623072Y-65320000D01*
X144623072Y-65155000D01*
X144606248Y-64984184D01*
X144556423Y-64819933D01*
X144475512Y-64668558D01*
X144366623Y-64535877D01*
X144233942Y-64426988D01*
X144082567Y-64346077D01*
X143918316Y-64296252D01*
X143747500Y-64279428D01*
X143272500Y-64279428D01*
X143101684Y-64296252D01*
X142937433Y-64346077D01*
X142786058Y-64426988D01*
X142653377Y-64535877D01*
X142580510Y-64624666D01*
X142403812Y-64447969D01*
X142414731Y-64434664D01*
X142438402Y-64408912D01*
X142470695Y-64355879D01*
X142504449Y-64303798D01*
X142521680Y-64260492D01*
X142528462Y-64246408D01*
X142551570Y-64205948D01*
X142571247Y-64147081D01*
X142592579Y-64088752D01*
X142599740Y-64042702D01*
X142603212Y-64027488D01*
X142616745Y-63982877D01*
X142622831Y-63921082D01*
X142630645Y-63859511D01*
X142627380Y-63813025D01*
X142627380Y-63797380D01*
X142630645Y-63750894D01*
X142622831Y-63689320D01*
X142616745Y-63627529D01*
X142603213Y-63582921D01*
X142599740Y-63567703D01*
X142592579Y-63521653D01*
X142571247Y-63463324D01*
X142551570Y-63404457D01*
X142528462Y-63363997D01*
X142521680Y-63349913D01*
X142504449Y-63306607D01*
X142470695Y-63254526D01*
X142438402Y-63201493D01*
X142406854Y-63167171D01*
X142397122Y-63154967D01*
X142370684Y-63116577D01*
X142326162Y-63073286D01*
X142282891Y-63028784D01*
X142244511Y-63002354D01*
X142232288Y-62992606D01*
X142197974Y-62961065D01*
X142144957Y-62928781D01*
X142092861Y-62895019D01*
X142049549Y-62877786D01*
X142035476Y-62871009D01*
X141995011Y-62847898D01*
X141936138Y-62828219D01*
X141877815Y-62806889D01*
X141831767Y-62799729D01*
X141816551Y-62796256D01*
X141771940Y-62782723D01*
X141710143Y-62776637D01*
X141648573Y-62768823D01*
X141602087Y-62772088D01*
X141586443Y-62772088D01*
X141539957Y-62768823D01*
X141478386Y-62776637D01*
X141416591Y-62782723D01*
X141371980Y-62796256D01*
X141356766Y-62799728D01*
X141310716Y-62806889D01*
X141252387Y-62828221D01*
X141193520Y-62847898D01*
X141153060Y-62871006D01*
X141138976Y-62877788D01*
X141095670Y-62895019D01*
X141043589Y-62928773D01*
X141020000Y-62943136D01*
X141020000Y-62739446D01*
X141304447Y-62454999D01*
X141491935Y-62532659D01*
X141868188Y-62607500D01*
X142251812Y-62607500D01*
X142628065Y-62532659D01*
X142982487Y-62385852D01*
X143301459Y-62172722D01*
X143572722Y-61901459D01*
X143785852Y-61582487D01*
X143932659Y-61228065D01*
X144007500Y-60851812D01*
X144007500Y-60468188D01*
X144112500Y-60468188D01*
X144112500Y-60851812D01*
X144187341Y-61228065D01*
X144334148Y-61582487D01*
X144547278Y-61901459D01*
X144818541Y-62172722D01*
X145137513Y-62385852D01*
X145491935Y-62532659D01*
X145868188Y-62607500D01*
X146251812Y-62607500D01*
X146628065Y-62532659D01*
X146982487Y-62385852D01*
X147301459Y-62172722D01*
X147572722Y-61901459D01*
X147785852Y-61582487D01*
X147932659Y-61228065D01*
X148007500Y-60851812D01*
X148007500Y-60468188D01*
X147932659Y-60091935D01*
X147785852Y-59737513D01*
X147572722Y-59418541D01*
X147301459Y-59147278D01*
X146982487Y-58934148D01*
X146628065Y-58787341D01*
X146251812Y-58712500D01*
X145868188Y-58712500D01*
X145491935Y-58787341D01*
X145137513Y-58934148D01*
X144818541Y-59147278D01*
X144547278Y-59418541D01*
X144334148Y-59737513D01*
X144187341Y-60091935D01*
X144112500Y-60468188D01*
X144007500Y-60468188D01*
X143932659Y-60091935D01*
X143785852Y-59737513D01*
X143572722Y-59418541D01*
X143301459Y-59147278D01*
X142982487Y-58934148D01*
X142628065Y-58787341D01*
X142251812Y-58712500D01*
X141868188Y-58712500D01*
X141491935Y-58787341D01*
X141384447Y-58831864D01*
X140951338Y-58398755D01*
X140982487Y-58385852D01*
X141301459Y-58172722D01*
X141572722Y-57901459D01*
X141785852Y-57582487D01*
X141932659Y-57228065D01*
X142007500Y-56851812D01*
X142007500Y-56468188D01*
X142112500Y-56468188D01*
X142112500Y-56851812D01*
X142187341Y-57228065D01*
X142334148Y-57582487D01*
X142547278Y-57901459D01*
X142818541Y-58172722D01*
X143137513Y-58385852D01*
X143491935Y-58532659D01*
X143868188Y-58607500D01*
X144251812Y-58607500D01*
X144628065Y-58532659D01*
X144982487Y-58385852D01*
X145301459Y-58172722D01*
X145572722Y-57901459D01*
X145785852Y-57582487D01*
X145932659Y-57228065D01*
X145986555Y-56957108D01*
X150500000Y-56957108D01*
X150500000Y-57362892D01*
X150579165Y-57760880D01*
X150734452Y-58135776D01*
X150959894Y-58473173D01*
X151246827Y-58760106D01*
X151584224Y-58985548D01*
X151959120Y-59140835D01*
X152357108Y-59220000D01*
X152762892Y-59220000D01*
X153160880Y-59140835D01*
X153535776Y-58985548D01*
X153873173Y-58760106D01*
X154160106Y-58473173D01*
X154385548Y-58135776D01*
X154540835Y-57760880D01*
X154620000Y-57362892D01*
X154620000Y-56957108D01*
X154540835Y-56559120D01*
X154385548Y-56184224D01*
X154160106Y-55846827D01*
X153873173Y-55559894D01*
X153535776Y-55334452D01*
X153160880Y-55179165D01*
X152762892Y-55100000D01*
X152357108Y-55100000D01*
X151959120Y-55179165D01*
X151584224Y-55334452D01*
X151246827Y-55559894D01*
X150959894Y-55846827D01*
X150734452Y-56184224D01*
X150579165Y-56559120D01*
X150500000Y-56957108D01*
X145986555Y-56957108D01*
X146007500Y-56851812D01*
X146007500Y-56468188D01*
X145932659Y-56091935D01*
X145785852Y-55737513D01*
X145572722Y-55418541D01*
X145301459Y-55147278D01*
X144982487Y-54934148D01*
X144628065Y-54787341D01*
X144251812Y-54712500D01*
X143868188Y-54712500D01*
X143491935Y-54787341D01*
X143137513Y-54934148D01*
X142818541Y-55147278D01*
X142547278Y-55418541D01*
X142334148Y-55737513D01*
X142187341Y-56091935D01*
X142112500Y-56468188D01*
X142007500Y-56468188D01*
X141932659Y-56091935D01*
X141785852Y-55737513D01*
X141572722Y-55418541D01*
X141301459Y-55147278D01*
X140982487Y-54934148D01*
X140628065Y-54787341D01*
X140251812Y-54712500D01*
X139868188Y-54712500D01*
X139491935Y-54787341D01*
X139137513Y-54934148D01*
X138818541Y-55147278D01*
X138547278Y-55418541D01*
X138334148Y-55737513D01*
X138187341Y-56091935D01*
X138112500Y-56468188D01*
X138112500Y-56851812D01*
X138187341Y-57228065D01*
X138334148Y-57582487D01*
X138547278Y-57901459D01*
X138818541Y-58172722D01*
X139137513Y-58385852D01*
X139245001Y-58430375D01*
X139245001Y-58619967D01*
X139241058Y-58660000D01*
X139256794Y-58819767D01*
X139303396Y-58973396D01*
X139379074Y-59114980D01*
X139455401Y-59207984D01*
X139480921Y-59239080D01*
X139512016Y-59264599D01*
X140231864Y-59984447D01*
X140187341Y-60091935D01*
X140112500Y-60468188D01*
X140112500Y-60851812D01*
X140187341Y-61228065D01*
X140265001Y-61415553D01*
X140060000Y-61620553D01*
X139854999Y-61415552D01*
X139932659Y-61228065D01*
X140007500Y-60851812D01*
X140007500Y-60468188D01*
X139932659Y-60091935D01*
X139785852Y-59737513D01*
X139572722Y-59418541D01*
X139301459Y-59147278D01*
X138982487Y-58934148D01*
X138628065Y-58787341D01*
X138251812Y-58712500D01*
X137868188Y-58712500D01*
X137491935Y-58787341D01*
X137384447Y-58831864D01*
X136951338Y-58398755D01*
X136982487Y-58385852D01*
X137301459Y-58172722D01*
X137572722Y-57901459D01*
X137785852Y-57582487D01*
X137932659Y-57228065D01*
X138007500Y-56851812D01*
X138007500Y-56468188D01*
X137932659Y-56091935D01*
X137785852Y-55737513D01*
X137572722Y-55418541D01*
X137301459Y-55147278D01*
X136982487Y-54934148D01*
X136628065Y-54787341D01*
X136251812Y-54712500D01*
X135868188Y-54712500D01*
X135491935Y-54787341D01*
X135137513Y-54934148D01*
X134818541Y-55147278D01*
X134547278Y-55418541D01*
X134334148Y-55737513D01*
X134187341Y-56091935D01*
X134112500Y-56468188D01*
X134112500Y-56851812D01*
X134187341Y-57228065D01*
X134334148Y-57582487D01*
X134547278Y-57901459D01*
X134818541Y-58172722D01*
X135137513Y-58385852D01*
X135245001Y-58430375D01*
X135245001Y-58619967D01*
X135241058Y-58660000D01*
X135256794Y-58819767D01*
X135303396Y-58973396D01*
X135379074Y-59114980D01*
X135455401Y-59207984D01*
X135480921Y-59239080D01*
X135512016Y-59264599D01*
X136231864Y-59984447D01*
X136187341Y-60091935D01*
X136112500Y-60468188D01*
X136112500Y-60851812D01*
X136187341Y-61228065D01*
X136334148Y-61582487D01*
X136547278Y-61901459D01*
X136818541Y-62172722D01*
X137137513Y-62385852D01*
X137491935Y-62532659D01*
X137868188Y-62607500D01*
X138251812Y-62607500D01*
X138628065Y-62532659D01*
X138815552Y-62454999D01*
X139100000Y-62739447D01*
X139100001Y-63518885D01*
X139096444Y-63555000D01*
X139110635Y-63699085D01*
X139146633Y-63817753D01*
X139152664Y-63837633D01*
X139220914Y-63965320D01*
X139312763Y-64077238D01*
X139340808Y-64100254D01*
X141509004Y-66268451D01*
X141509009Y-66268455D01*
X142396928Y-67156375D01*
X142396928Y-67480000D01*
X142413752Y-67650816D01*
X142463577Y-67815067D01*
X142544488Y-67966442D01*
X142653377Y-68099123D01*
X142786058Y-68208012D01*
X142937433Y-68288923D01*
X143101684Y-68338748D01*
X143272500Y-68355572D01*
X143747500Y-68355572D01*
X143918316Y-68338748D01*
X144082567Y-68288923D01*
X144233942Y-68208012D01*
X144366623Y-68099123D01*
X144439491Y-68010334D01*
X146113791Y-69684635D01*
X146107829Y-69679742D01*
X145971582Y-69606916D01*
X145823745Y-69562071D01*
X145670000Y-69546928D01*
X144020000Y-69546928D01*
X143866255Y-69562071D01*
X143718418Y-69606916D01*
X143582171Y-69679742D01*
X143462749Y-69777749D01*
X143461561Y-69779197D01*
X143415019Y-69804074D01*
X143358669Y-69850320D01*
X143290920Y-69905920D01*
X143265401Y-69937015D01*
X141901987Y-71300430D01*
X141887205Y-71264744D01*
X141773937Y-71095226D01*
X141629774Y-70951063D01*
X141460256Y-70837795D01*
X141271898Y-70759774D01*
X141071939Y-70720000D01*
X141032833Y-70720000D01*
X140924478Y-70623590D01*
X140914080Y-70610920D01*
X140864602Y-70570315D01*
X140846845Y-70554515D01*
X140833676Y-70544934D01*
X140789980Y-70509074D01*
X140768889Y-70497800D01*
X140749554Y-70483734D01*
X140698250Y-70460043D01*
X140648396Y-70433395D01*
X140625509Y-70426452D01*
X140603803Y-70416429D01*
X140548863Y-70403202D01*
X140494768Y-70386793D01*
X140470964Y-70384449D01*
X140447722Y-70378853D01*
X140391266Y-70376599D01*
X140375033Y-70375000D01*
X140351224Y-70375000D01*
X140287310Y-70372448D01*
X140271130Y-70375000D01*
X138920124Y-70375000D01*
X138884482Y-70364188D01*
X138760000Y-70351928D01*
X135560000Y-70351928D01*
X135435518Y-70364188D01*
X135315820Y-70400498D01*
X135205506Y-70459463D01*
X135108815Y-70538815D01*
X135029463Y-70635506D01*
X134970498Y-70745820D01*
X134934188Y-70865518D01*
X134921928Y-70990000D01*
X134921928Y-71390000D01*
X134934188Y-71514482D01*
X134970498Y-71634180D01*
X135029463Y-71744494D01*
X135066775Y-71789959D01*
X135032415Y-71831126D01*
X134972540Y-71940948D01*
X134935240Y-72060342D01*
X134925000Y-72158250D01*
X135083750Y-72317000D01*
X137033000Y-72317000D01*
X137033000Y-72243000D01*
X137287000Y-72243000D01*
X137287000Y-72317000D01*
X139236250Y-72317000D01*
X139395000Y-72158250D01*
X139384760Y-72060342D01*
X139367471Y-72005000D01*
X139964451Y-72005000D01*
X139974774Y-72056898D01*
X140052795Y-72245256D01*
X140149510Y-72390000D01*
X140052795Y-72534744D01*
X139974774Y-72723102D01*
X139964451Y-72775000D01*
X139367471Y-72775000D01*
X139384760Y-72719658D01*
X139395000Y-72621750D01*
X139236250Y-72463000D01*
X137287000Y-72463000D01*
X137287000Y-72537000D01*
X137033000Y-72537000D01*
X137033000Y-72463000D01*
X135083750Y-72463000D01*
X134925000Y-72621750D01*
X134935240Y-72719658D01*
X134972540Y-72839052D01*
X135032415Y-72948874D01*
X135066775Y-72990041D01*
X135029463Y-73035506D01*
X134970498Y-73145820D01*
X134934188Y-73265518D01*
X134921928Y-73390000D01*
X134921928Y-73790000D01*
X134934188Y-73914482D01*
X134970498Y-74034180D01*
X135029463Y-74144494D01*
X135108815Y-74241185D01*
X135205506Y-74320537D01*
X135315820Y-74379502D01*
X135435518Y-74415812D01*
X135560000Y-74428072D01*
X136250594Y-74428072D01*
X136242795Y-74439744D01*
X136164774Y-74628102D01*
X136125000Y-74828061D01*
X136125000Y-75031939D01*
X136164774Y-75231898D01*
X136242795Y-75420256D01*
X136345001Y-75573218D01*
X136345000Y-76497416D01*
X135552417Y-77290000D01*
X133646809Y-77290000D01*
X133710226Y-77136898D01*
X133750000Y-76936939D01*
X133750000Y-76733061D01*
X133710226Y-76533102D01*
X133632205Y-76344744D01*
X133582852Y-76270883D01*
X133663937Y-76189798D01*
X133777205Y-76020280D01*
X133855226Y-75831922D01*
X133895000Y-75631963D01*
X133895000Y-75428085D01*
X133855226Y-75228126D01*
X133777205Y-75039768D01*
X133663937Y-74870250D01*
X133519774Y-74726087D01*
X133350256Y-74612819D01*
X133161898Y-74534798D01*
X132981468Y-74498909D01*
X132463671Y-73981111D01*
X132558102Y-74020226D01*
X132758061Y-74060000D01*
X132961939Y-74060000D01*
X133161898Y-74020226D01*
X133350256Y-73942205D01*
X133519774Y-73828937D01*
X133663937Y-73684774D01*
X133777205Y-73515256D01*
X133855226Y-73326898D01*
X133895000Y-73126939D01*
X133895000Y-72923061D01*
X133855226Y-72723102D01*
X133777205Y-72534744D01*
X133663937Y-72365226D01*
X133519774Y-72221063D01*
X133350256Y-72107795D01*
X133161898Y-72029774D01*
X132981469Y-71993885D01*
X129019603Y-68032020D01*
X128994080Y-68000920D01*
X128869980Y-67899074D01*
X128728396Y-67823395D01*
X128574768Y-67776793D01*
X128455033Y-67765000D01*
X128455023Y-67765000D01*
X128415000Y-67761058D01*
X128374977Y-67765000D01*
X113038217Y-67765000D01*
X112885256Y-67662795D01*
X112696898Y-67584774D01*
X112496939Y-67545000D01*
X112293061Y-67545000D01*
X112093102Y-67584774D01*
X111904744Y-67662795D01*
X111735226Y-67776063D01*
X111591063Y-67920226D01*
X111477795Y-68089744D01*
X111399774Y-68278102D01*
X111360000Y-68478061D01*
X111360000Y-68681939D01*
X111399774Y-68881898D01*
X111477795Y-69070256D01*
X111591063Y-69239774D01*
X111735226Y-69383937D01*
X111904744Y-69497205D01*
X112093102Y-69575226D01*
X112293061Y-69615000D01*
X112496939Y-69615000D01*
X112696898Y-69575226D01*
X112885256Y-69497205D01*
X113038217Y-69395000D01*
X128077417Y-69395000D01*
X131828885Y-73146469D01*
X131864774Y-73326898D01*
X131903889Y-73421330D01*
X130324579Y-71842020D01*
X130299056Y-71810920D01*
X130174956Y-71709074D01*
X130033372Y-71633395D01*
X129879744Y-71586793D01*
X129760009Y-71575000D01*
X129759999Y-71575000D01*
X129719976Y-71571058D01*
X129679953Y-71575000D01*
X125738217Y-71575000D01*
X125585256Y-71472795D01*
X125396898Y-71394774D01*
X125196939Y-71355000D01*
X124993061Y-71355000D01*
X124793102Y-71394774D01*
X124604744Y-71472795D01*
X124435226Y-71586063D01*
X124291063Y-71730226D01*
X124177795Y-71899744D01*
X124099774Y-72088102D01*
X124063885Y-72268531D01*
X121022407Y-75310010D01*
X120152573Y-75310010D01*
X121197986Y-74264598D01*
X121229080Y-74239080D01*
X121330926Y-74114980D01*
X121406605Y-73973396D01*
X121453207Y-73819768D01*
X121465000Y-73700033D01*
X121465000Y-73700023D01*
X121468942Y-73660000D01*
X121465000Y-73619977D01*
X121465000Y-72139473D01*
X121586898Y-72115226D01*
X121775256Y-72037205D01*
X121944774Y-71923937D01*
X122088937Y-71779774D01*
X122202205Y-71610256D01*
X122280226Y-71421898D01*
X122320000Y-71221939D01*
X122320000Y-71018061D01*
X122280226Y-70818102D01*
X122202205Y-70629744D01*
X122088937Y-70460226D01*
X121944774Y-70316063D01*
X121775256Y-70202795D01*
X121586898Y-70124774D01*
X121386939Y-70085000D01*
X121183061Y-70085000D01*
X120983102Y-70124774D01*
X120794744Y-70202795D01*
X120625226Y-70316063D01*
X120481063Y-70460226D01*
X120367795Y-70629744D01*
X120289774Y-70818102D01*
X120253884Y-70998532D01*
X120102016Y-71150401D01*
X120070921Y-71175920D01*
X120045402Y-71207015D01*
X120045401Y-71207016D01*
X119969074Y-71300020D01*
X119917627Y-71396271D01*
X119893396Y-71441604D01*
X119846794Y-71595232D01*
X119841894Y-71644980D01*
X119831058Y-71755000D01*
X119835001Y-71795033D01*
X119835000Y-73322416D01*
X118407417Y-74750000D01*
X117136809Y-74750000D01*
X117200226Y-74596898D01*
X117240000Y-74396939D01*
X117240000Y-74193061D01*
X117200226Y-73993102D01*
X117122205Y-73804744D01*
X117008937Y-73635226D01*
X116864774Y-73491063D01*
X116695256Y-73377795D01*
X116506898Y-73299774D01*
X116306939Y-73260000D01*
X116103061Y-73260000D01*
X115903102Y-73299774D01*
X115714744Y-73377795D01*
X115561783Y-73480000D01*
X115290760Y-73480000D01*
X115305537Y-73461994D01*
X115364502Y-73351680D01*
X115400812Y-73231982D01*
X115413072Y-73107500D01*
X115410000Y-72855750D01*
X115251250Y-72697000D01*
X114427000Y-72697000D01*
X114427000Y-72717000D01*
X114173000Y-72717000D01*
X114173000Y-72697000D01*
X113348750Y-72697000D01*
X113190000Y-72855750D01*
X113186928Y-73107500D01*
X113199188Y-73231982D01*
X113235498Y-73351680D01*
X113294463Y-73461994D01*
X113333774Y-73509894D01*
X113253577Y-73659933D01*
X113203752Y-73824184D01*
X113186928Y-73995000D01*
X113186928Y-74595000D01*
X113203752Y-74765816D01*
X113253577Y-74930067D01*
X113334488Y-75081442D01*
X113443377Y-75214123D01*
X113576058Y-75323012D01*
X113727433Y-75403923D01*
X113891684Y-75453748D01*
X114062500Y-75470572D01*
X114511844Y-75470572D01*
X114178532Y-75803885D01*
X113998102Y-75839774D01*
X113809744Y-75917795D01*
X113640226Y-76031063D01*
X113496063Y-76175226D01*
X113382795Y-76344744D01*
X113304774Y-76533102D01*
X113265000Y-76733061D01*
X113265000Y-76936939D01*
X113304774Y-77136898D01*
X113368191Y-77290000D01*
X113057586Y-77290000D01*
X112791115Y-77023530D01*
X112755226Y-76843100D01*
X112677205Y-76654742D01*
X112563937Y-76485224D01*
X112419774Y-76341061D01*
X112250256Y-76227793D01*
X112061898Y-76149772D01*
X111861939Y-76109998D01*
X111658061Y-76109998D01*
X111458102Y-76149772D01*
X111269744Y-76227793D01*
X111100226Y-76341061D01*
X110956063Y-76485224D01*
X110842795Y-76654742D01*
X110764774Y-76843100D01*
X110725000Y-77043059D01*
X108885000Y-77043059D01*
X108885000Y-72032500D01*
X113186928Y-72032500D01*
X113190000Y-72284250D01*
X113348750Y-72443000D01*
X114173000Y-72443000D01*
X114173000Y-71556250D01*
X114427000Y-71556250D01*
X114427000Y-72443000D01*
X115251250Y-72443000D01*
X115410000Y-72284250D01*
X115413072Y-72032500D01*
X115400812Y-71908018D01*
X115364502Y-71788320D01*
X115305537Y-71678006D01*
X115226185Y-71581315D01*
X115129494Y-71501963D01*
X115019180Y-71442998D01*
X114899482Y-71406688D01*
X114775000Y-71394428D01*
X114585750Y-71397500D01*
X114427000Y-71556250D01*
X114173000Y-71556250D01*
X114014250Y-71397500D01*
X113825000Y-71394428D01*
X113700518Y-71406688D01*
X113580820Y-71442998D01*
X113470506Y-71501963D01*
X113373815Y-71581315D01*
X113294463Y-71678006D01*
X113235498Y-71788320D01*
X113199188Y-71908018D01*
X113186928Y-72032500D01*
X108885000Y-72032500D01*
X108885000Y-71800935D01*
X108889524Y-71755000D01*
X108871472Y-71571708D01*
X108818007Y-71395459D01*
X108773286Y-71311793D01*
X108731186Y-71233028D01*
X108614344Y-71090656D01*
X108578659Y-71061370D01*
X108008630Y-70491341D01*
X107979344Y-70455656D01*
X107836972Y-70338814D01*
X107674540Y-70251993D01*
X107498292Y-70198529D01*
X107360932Y-70185000D01*
X107315000Y-70180476D01*
X107269068Y-70185000D01*
X107206247Y-70185000D01*
X107198475Y-70173368D01*
X106991632Y-69966525D01*
X106748411Y-69804010D01*
X106478158Y-69692068D01*
X106191260Y-69635000D01*
X105898740Y-69635000D01*
X105611842Y-69692068D01*
X105341589Y-69804010D01*
X105098368Y-69966525D01*
X104966513Y-70098380D01*
X104944502Y-70025820D01*
X104885537Y-69915506D01*
X104806185Y-69818815D01*
X104709494Y-69739463D01*
X104599180Y-69680498D01*
X104479482Y-69644188D01*
X104355000Y-69631928D01*
X102655000Y-69631928D01*
X102530518Y-69644188D01*
X102410820Y-69680498D01*
X102300506Y-69739463D01*
X102260000Y-69772705D01*
X102260000Y-60468188D01*
X116112500Y-60468188D01*
X116112500Y-60851812D01*
X116187341Y-61228065D01*
X116334148Y-61582487D01*
X116547278Y-61901459D01*
X116818541Y-62172722D01*
X117137513Y-62385852D01*
X117491935Y-62532659D01*
X117868188Y-62607500D01*
X118251812Y-62607500D01*
X118628065Y-62532659D01*
X118982487Y-62385852D01*
X119301459Y-62172722D01*
X119572722Y-61901459D01*
X119785852Y-61582487D01*
X119932659Y-61228065D01*
X120007500Y-60851812D01*
X120007500Y-60468188D01*
X120112500Y-60468188D01*
X120112500Y-60851812D01*
X120187341Y-61228065D01*
X120334148Y-61582487D01*
X120547278Y-61901459D01*
X120818541Y-62172722D01*
X121137513Y-62385852D01*
X121491935Y-62532659D01*
X121868188Y-62607500D01*
X122251812Y-62607500D01*
X122628065Y-62532659D01*
X122982487Y-62385852D01*
X123301459Y-62172722D01*
X123572722Y-61901459D01*
X123785852Y-61582487D01*
X123932659Y-61228065D01*
X124007500Y-60851812D01*
X124007500Y-60468188D01*
X124112500Y-60468188D01*
X124112500Y-60851812D01*
X124187341Y-61228065D01*
X124334148Y-61582487D01*
X124547278Y-61901459D01*
X124818541Y-62172722D01*
X125137513Y-62385852D01*
X125491935Y-62532659D01*
X125868188Y-62607500D01*
X126251812Y-62607500D01*
X126628065Y-62532659D01*
X126982487Y-62385852D01*
X127301459Y-62172722D01*
X127572722Y-61901459D01*
X127785852Y-61582487D01*
X127932659Y-61228065D01*
X128007500Y-60851812D01*
X128007500Y-60468188D01*
X128112500Y-60468188D01*
X128112500Y-60851812D01*
X128187341Y-61228065D01*
X128334148Y-61582487D01*
X128547278Y-61901459D01*
X128818541Y-62172722D01*
X129137513Y-62385852D01*
X129491935Y-62532659D01*
X129868188Y-62607500D01*
X130251812Y-62607500D01*
X130628065Y-62532659D01*
X130982487Y-62385852D01*
X131301459Y-62172722D01*
X131572722Y-61901459D01*
X131785852Y-61582487D01*
X131932659Y-61228065D01*
X132007500Y-60851812D01*
X132007500Y-60468188D01*
X132112500Y-60468188D01*
X132112500Y-60851812D01*
X132187341Y-61228065D01*
X132334148Y-61582487D01*
X132547278Y-61901459D01*
X132818541Y-62172722D01*
X133137513Y-62385852D01*
X133491935Y-62532659D01*
X133868188Y-62607500D01*
X134251812Y-62607500D01*
X134628065Y-62532659D01*
X134982487Y-62385852D01*
X135301459Y-62172722D01*
X135572722Y-61901459D01*
X135785852Y-61582487D01*
X135932659Y-61228065D01*
X136007500Y-60851812D01*
X136007500Y-60468188D01*
X135932659Y-60091935D01*
X135785852Y-59737513D01*
X135572722Y-59418541D01*
X135301459Y-59147278D01*
X134982487Y-58934148D01*
X134628065Y-58787341D01*
X134251812Y-58712500D01*
X133868188Y-58712500D01*
X133491935Y-58787341D01*
X133137513Y-58934148D01*
X132818541Y-59147278D01*
X132547278Y-59418541D01*
X132334148Y-59737513D01*
X132187341Y-60091935D01*
X132112500Y-60468188D01*
X132007500Y-60468188D01*
X131932659Y-60091935D01*
X131785852Y-59737513D01*
X131572722Y-59418541D01*
X131301459Y-59147278D01*
X130982487Y-58934148D01*
X130628065Y-58787341D01*
X130251812Y-58712500D01*
X129868188Y-58712500D01*
X129491935Y-58787341D01*
X129137513Y-58934148D01*
X128818541Y-59147278D01*
X128547278Y-59418541D01*
X128334148Y-59737513D01*
X128187341Y-60091935D01*
X128112500Y-60468188D01*
X128007500Y-60468188D01*
X127932659Y-60091935D01*
X127785852Y-59737513D01*
X127572722Y-59418541D01*
X127301459Y-59147278D01*
X126982487Y-58934148D01*
X126628065Y-58787341D01*
X126251812Y-58712500D01*
X125868188Y-58712500D01*
X125491935Y-58787341D01*
X125137513Y-58934148D01*
X124818541Y-59147278D01*
X124547278Y-59418541D01*
X124334148Y-59737513D01*
X124187341Y-60091935D01*
X124112500Y-60468188D01*
X124007500Y-60468188D01*
X123932659Y-60091935D01*
X123785852Y-59737513D01*
X123572722Y-59418541D01*
X123301459Y-59147278D01*
X122982487Y-58934148D01*
X122628065Y-58787341D01*
X122251812Y-58712500D01*
X121868188Y-58712500D01*
X121491935Y-58787341D01*
X121137513Y-58934148D01*
X120818541Y-59147278D01*
X120547278Y-59418541D01*
X120334148Y-59737513D01*
X120187341Y-60091935D01*
X120112500Y-60468188D01*
X120007500Y-60468188D01*
X119932659Y-60091935D01*
X119785852Y-59737513D01*
X119572722Y-59418541D01*
X119301459Y-59147278D01*
X118982487Y-58934148D01*
X118628065Y-58787341D01*
X118251812Y-58712500D01*
X117868188Y-58712500D01*
X117491935Y-58787341D01*
X117137513Y-58934148D01*
X116818541Y-59147278D01*
X116547278Y-59418541D01*
X116334148Y-59737513D01*
X116187341Y-60091935D01*
X116112500Y-60468188D01*
X102260000Y-60468188D01*
X102260000Y-56957108D01*
X109500000Y-56957108D01*
X109500000Y-57362892D01*
X109579165Y-57760880D01*
X109734452Y-58135776D01*
X109959894Y-58473173D01*
X110246827Y-58760106D01*
X110584224Y-58985548D01*
X110959120Y-59140835D01*
X111357108Y-59220000D01*
X111762892Y-59220000D01*
X112160880Y-59140835D01*
X112535776Y-58985548D01*
X112873173Y-58760106D01*
X113160106Y-58473173D01*
X113385548Y-58135776D01*
X113540835Y-57760880D01*
X113620000Y-57362892D01*
X113620000Y-56957108D01*
X113540835Y-56559120D01*
X113503170Y-56468188D01*
X118112500Y-56468188D01*
X118112500Y-56851812D01*
X118187341Y-57228065D01*
X118334148Y-57582487D01*
X118547278Y-57901459D01*
X118818541Y-58172722D01*
X119137513Y-58385852D01*
X119491935Y-58532659D01*
X119868188Y-58607500D01*
X120251812Y-58607500D01*
X120628065Y-58532659D01*
X120982487Y-58385852D01*
X121301459Y-58172722D01*
X121572722Y-57901459D01*
X121785852Y-57582487D01*
X121932659Y-57228065D01*
X122007500Y-56851812D01*
X122007500Y-56468188D01*
X122112500Y-56468188D01*
X122112500Y-56851812D01*
X122187341Y-57228065D01*
X122334148Y-57582487D01*
X122547278Y-57901459D01*
X122818541Y-58172722D01*
X123137513Y-58385852D01*
X123491935Y-58532659D01*
X123868188Y-58607500D01*
X124251812Y-58607500D01*
X124628065Y-58532659D01*
X124982487Y-58385852D01*
X125301459Y-58172722D01*
X125572722Y-57901459D01*
X125785852Y-57582487D01*
X125932659Y-57228065D01*
X126007500Y-56851812D01*
X126007500Y-56468188D01*
X126112500Y-56468188D01*
X126112500Y-56851812D01*
X126187341Y-57228065D01*
X126334148Y-57582487D01*
X126547278Y-57901459D01*
X126818541Y-58172722D01*
X127137513Y-58385852D01*
X127491935Y-58532659D01*
X127868188Y-58607500D01*
X128251812Y-58607500D01*
X128628065Y-58532659D01*
X128982487Y-58385852D01*
X129301459Y-58172722D01*
X129572722Y-57901459D01*
X129785852Y-57582487D01*
X129932659Y-57228065D01*
X130007500Y-56851812D01*
X130007500Y-56468188D01*
X130112500Y-56468188D01*
X130112500Y-56851812D01*
X130187341Y-57228065D01*
X130334148Y-57582487D01*
X130547278Y-57901459D01*
X130818541Y-58172722D01*
X131137513Y-58385852D01*
X131491935Y-58532659D01*
X131868188Y-58607500D01*
X132251812Y-58607500D01*
X132628065Y-58532659D01*
X132982487Y-58385852D01*
X133301459Y-58172722D01*
X133572722Y-57901459D01*
X133785852Y-57582487D01*
X133932659Y-57228065D01*
X134007500Y-56851812D01*
X134007500Y-56468188D01*
X133932659Y-56091935D01*
X133785852Y-55737513D01*
X133572722Y-55418541D01*
X133301459Y-55147278D01*
X132982487Y-54934148D01*
X132628065Y-54787341D01*
X132251812Y-54712500D01*
X131868188Y-54712500D01*
X131491935Y-54787341D01*
X131137513Y-54934148D01*
X130818541Y-55147278D01*
X130547278Y-55418541D01*
X130334148Y-55737513D01*
X130187341Y-56091935D01*
X130112500Y-56468188D01*
X130007500Y-56468188D01*
X129932659Y-56091935D01*
X129785852Y-55737513D01*
X129572722Y-55418541D01*
X129301459Y-55147278D01*
X128982487Y-54934148D01*
X128628065Y-54787341D01*
X128251812Y-54712500D01*
X127868188Y-54712500D01*
X127491935Y-54787341D01*
X127137513Y-54934148D01*
X126818541Y-55147278D01*
X126547278Y-55418541D01*
X126334148Y-55737513D01*
X126187341Y-56091935D01*
X126112500Y-56468188D01*
X126007500Y-56468188D01*
X125932659Y-56091935D01*
X125785852Y-55737513D01*
X125572722Y-55418541D01*
X125301459Y-55147278D01*
X124982487Y-54934148D01*
X124628065Y-54787341D01*
X124251812Y-54712500D01*
X123868188Y-54712500D01*
X123491935Y-54787341D01*
X123137513Y-54934148D01*
X122818541Y-55147278D01*
X122547278Y-55418541D01*
X122334148Y-55737513D01*
X122187341Y-56091935D01*
X122112500Y-56468188D01*
X122007500Y-56468188D01*
X121932659Y-56091935D01*
X121785852Y-55737513D01*
X121572722Y-55418541D01*
X121301459Y-55147278D01*
X120982487Y-54934148D01*
X120628065Y-54787341D01*
X120251812Y-54712500D01*
X119868188Y-54712500D01*
X119491935Y-54787341D01*
X119137513Y-54934148D01*
X118818541Y-55147278D01*
X118547278Y-55418541D01*
X118334148Y-55737513D01*
X118187341Y-56091935D01*
X118112500Y-56468188D01*
X113503170Y-56468188D01*
X113385548Y-56184224D01*
X113160106Y-55846827D01*
X112873173Y-55559894D01*
X112535776Y-55334452D01*
X112160880Y-55179165D01*
X111762892Y-55100000D01*
X111357108Y-55100000D01*
X110959120Y-55179165D01*
X110584224Y-55334452D01*
X110246827Y-55559894D01*
X109959894Y-55846827D01*
X109734452Y-56184224D01*
X109579165Y-56559120D01*
X109500000Y-56957108D01*
X102260000Y-56957108D01*
X102260000Y-53972500D01*
X116109428Y-53972500D01*
X116121688Y-54096982D01*
X116157998Y-54216680D01*
X116216963Y-54326994D01*
X116296315Y-54423685D01*
X116393006Y-54503037D01*
X116503320Y-54562002D01*
X116623018Y-54598312D01*
X116747500Y-54610572D01*
X117774250Y-54607500D01*
X117933000Y-54448750D01*
X117933000Y-52787000D01*
X118187000Y-52787000D01*
X118187000Y-54448750D01*
X118345750Y-54607500D01*
X119372500Y-54610572D01*
X119496982Y-54598312D01*
X119616680Y-54562002D01*
X119726994Y-54503037D01*
X119823685Y-54423685D01*
X119903037Y-54326994D01*
X119962002Y-54216680D01*
X119998312Y-54096982D01*
X120006078Y-54018128D01*
X120881477Y-54018128D01*
X121014919Y-54314496D01*
X121357776Y-54486590D01*
X121727620Y-54588490D01*
X122110236Y-54616279D01*
X122490921Y-54568889D01*
X122855048Y-54448142D01*
X123105081Y-54314496D01*
X123238523Y-54018128D01*
X124881477Y-54018128D01*
X125014919Y-54314496D01*
X125357776Y-54486590D01*
X125727620Y-54588490D01*
X126110236Y-54616279D01*
X126490921Y-54568889D01*
X126855048Y-54448142D01*
X127105081Y-54314496D01*
X127238523Y-54018128D01*
X128881477Y-54018128D01*
X129014919Y-54314496D01*
X129357776Y-54486590D01*
X129727620Y-54588490D01*
X130110236Y-54616279D01*
X130490921Y-54568889D01*
X130855048Y-54448142D01*
X131105081Y-54314496D01*
X131238523Y-54018128D01*
X130060000Y-52839605D01*
X128881477Y-54018128D01*
X127238523Y-54018128D01*
X126060000Y-52839605D01*
X124881477Y-54018128D01*
X123238523Y-54018128D01*
X122060000Y-52839605D01*
X120881477Y-54018128D01*
X120006078Y-54018128D01*
X120010572Y-53972500D01*
X120007500Y-52945750D01*
X119848750Y-52787000D01*
X118187000Y-52787000D01*
X117933000Y-52787000D01*
X116271250Y-52787000D01*
X116112500Y-52945750D01*
X116109428Y-53972500D01*
X102260000Y-53972500D01*
X102260000Y-52710236D01*
X120103721Y-52710236D01*
X120151111Y-53090921D01*
X120271858Y-53455048D01*
X120405504Y-53705081D01*
X120701872Y-53838523D01*
X121880395Y-52660000D01*
X122239605Y-52660000D01*
X123418128Y-53838523D01*
X123714496Y-53705081D01*
X123886590Y-53362224D01*
X123988490Y-52992380D01*
X124008981Y-52710236D01*
X124103721Y-52710236D01*
X124151111Y-53090921D01*
X124271858Y-53455048D01*
X124405504Y-53705081D01*
X124701872Y-53838523D01*
X125880395Y-52660000D01*
X126239605Y-52660000D01*
X127418128Y-53838523D01*
X127714496Y-53705081D01*
X127886590Y-53362224D01*
X127988490Y-52992380D01*
X128008981Y-52710236D01*
X128103721Y-52710236D01*
X128151111Y-53090921D01*
X128271858Y-53455048D01*
X128405504Y-53705081D01*
X128701872Y-53838523D01*
X129880395Y-52660000D01*
X130239605Y-52660000D01*
X131418128Y-53838523D01*
X131714496Y-53705081D01*
X131886590Y-53362224D01*
X131988490Y-52992380D01*
X132016279Y-52609764D01*
X131968889Y-52229079D01*
X131848142Y-51864952D01*
X131714496Y-51614919D01*
X131418128Y-51481477D01*
X130239605Y-52660000D01*
X129880395Y-52660000D01*
X128701872Y-51481477D01*
X128405504Y-51614919D01*
X128233410Y-51957776D01*
X128131510Y-52327620D01*
X128103721Y-52710236D01*
X128008981Y-52710236D01*
X128016279Y-52609764D01*
X127968889Y-52229079D01*
X127848142Y-51864952D01*
X127714496Y-51614919D01*
X127418128Y-51481477D01*
X126239605Y-52660000D01*
X125880395Y-52660000D01*
X124701872Y-51481477D01*
X124405504Y-51614919D01*
X124233410Y-51957776D01*
X124131510Y-52327620D01*
X124103721Y-52710236D01*
X124008981Y-52710236D01*
X124016279Y-52609764D01*
X123968889Y-52229079D01*
X123848142Y-51864952D01*
X123714496Y-51614919D01*
X123418128Y-51481477D01*
X122239605Y-52660000D01*
X121880395Y-52660000D01*
X120701872Y-51481477D01*
X120405504Y-51614919D01*
X120233410Y-51957776D01*
X120131510Y-52327620D01*
X120103721Y-52710236D01*
X102260000Y-52710236D01*
X102260000Y-51002937D01*
X116210101Y-51005843D01*
%TA.AperFunction,Conductor*%
D22*
G36*
X116210101Y-51005843D02*
G01*
X116157998Y-51103320D01*
X116121688Y-51223018D01*
X116109428Y-51347500D01*
X116112500Y-52374250D01*
X116271250Y-52533000D01*
X117933000Y-52533000D01*
X117933000Y-52513000D01*
X118187000Y-52513000D01*
X118187000Y-52533000D01*
X119848750Y-52533000D01*
X120007500Y-52374250D01*
X120010572Y-51347500D01*
X119998312Y-51223018D01*
X119962002Y-51103320D01*
X119910311Y-51006614D01*
X121014316Y-51006844D01*
X120881477Y-51301872D01*
X122060000Y-52480395D01*
X123238523Y-51301872D01*
X123105881Y-51007280D01*
X125013940Y-51007677D01*
X124881477Y-51301872D01*
X126060000Y-52480395D01*
X127238523Y-51301872D01*
X127106256Y-51008113D01*
X129013565Y-51008511D01*
X128881477Y-51301872D01*
X130060000Y-52480395D01*
X131238523Y-51301872D01*
X131106631Y-51008947D01*
X133024971Y-51009346D01*
X132818541Y-51147278D01*
X132547278Y-51418541D01*
X132334148Y-51737513D01*
X132187341Y-52091935D01*
X132112500Y-52468188D01*
X132112500Y-52851812D01*
X132187341Y-53228065D01*
X132334148Y-53582487D01*
X132547278Y-53901459D01*
X132818541Y-54172722D01*
X133137513Y-54385852D01*
X133491935Y-54532659D01*
X133868188Y-54607500D01*
X134251812Y-54607500D01*
X134628065Y-54532659D01*
X134982487Y-54385852D01*
X135301459Y-54172722D01*
X135572722Y-53901459D01*
X135785852Y-53582487D01*
X135932659Y-53228065D01*
X136007500Y-52851812D01*
X136007500Y-52468188D01*
X135932659Y-52091935D01*
X135785852Y-51737513D01*
X135572722Y-51418541D01*
X135301459Y-51147278D01*
X135095675Y-51009778D01*
X137023724Y-51010179D01*
X136818541Y-51147278D01*
X136547278Y-51418541D01*
X136334148Y-51737513D01*
X136187341Y-52091935D01*
X136112500Y-52468188D01*
X136112500Y-52851812D01*
X136187341Y-53228065D01*
X136334148Y-53582487D01*
X136547278Y-53901459D01*
X136818541Y-54172722D01*
X137137513Y-54385852D01*
X137491935Y-54532659D01*
X137868188Y-54607500D01*
X138251812Y-54607500D01*
X138628065Y-54532659D01*
X138982487Y-54385852D01*
X139301459Y-54172722D01*
X139572722Y-53901459D01*
X139785852Y-53582487D01*
X139932659Y-53228065D01*
X140007500Y-52851812D01*
X140007500Y-52468188D01*
X139932659Y-52091935D01*
X139785852Y-51737513D01*
X139572722Y-51418541D01*
X139301459Y-51147278D01*
X139096923Y-51010611D01*
X141022477Y-51011012D01*
X140818541Y-51147278D01*
X140547278Y-51418541D01*
X140334148Y-51737513D01*
X140187341Y-52091935D01*
X140112500Y-52468188D01*
X140112500Y-52851812D01*
X140187341Y-53228065D01*
X140334148Y-53582487D01*
X140547278Y-53901459D01*
X140818541Y-54172722D01*
X141137513Y-54385852D01*
X141491935Y-54532659D01*
X141868188Y-54607500D01*
X142251812Y-54607500D01*
X142628065Y-54532659D01*
X142982487Y-54385852D01*
X143301459Y-54172722D01*
X143572722Y-53901459D01*
X143785852Y-53582487D01*
X143932659Y-53228065D01*
X144007500Y-52851812D01*
X144007500Y-52468188D01*
X143932659Y-52091935D01*
X143785852Y-51737513D01*
X143572722Y-51418541D01*
X143301459Y-51147278D01*
X143098170Y-51011445D01*
X145021230Y-51011846D01*
X144818541Y-51147278D01*
X144547278Y-51418541D01*
X144334148Y-51737513D01*
X144187341Y-52091935D01*
X144112500Y-52468188D01*
X144112500Y-52851812D01*
X144187341Y-53228065D01*
X144334148Y-53582487D01*
X144547278Y-53901459D01*
X144818541Y-54172722D01*
X145137513Y-54385852D01*
X145491935Y-54532659D01*
X145868188Y-54607500D01*
X146251812Y-54607500D01*
X146628065Y-54532659D01*
X146982487Y-54385852D01*
X147301459Y-54172722D01*
X147572722Y-53901459D01*
X147785852Y-53582487D01*
X147932659Y-53228065D01*
X148007500Y-52851812D01*
X148007500Y-52468188D01*
X147932659Y-52091935D01*
X147785852Y-51737513D01*
X147572722Y-51418541D01*
X147301459Y-51147278D01*
X147099418Y-51012278D01*
X161900000Y-51015362D01*
X161900001Y-81890000D01*
X102260000Y-81890000D01*
X102260000Y-77009655D01*
X102351525Y-77146632D01*
X102558368Y-77353475D01*
X102801589Y-77515990D01*
X103071842Y-77627932D01*
X103358740Y-77685000D01*
X103651260Y-77685000D01*
X103938158Y-77627932D01*
X104208411Y-77515990D01*
X104451632Y-77353475D01*
X104658475Y-77146632D01*
X104776100Y-76970594D01*
X104947412Y-77200269D01*
X105163645Y-77395178D01*
X105413748Y-77544157D01*
X105688109Y-77641481D01*
X105918000Y-77520814D01*
X105918000Y-76327000D01*
X105898000Y-76327000D01*
X105898000Y-76073000D01*
X105918000Y-76073000D01*
X105918000Y-76053000D01*
X106172000Y-76053000D01*
X106172000Y-76073000D01*
X106192000Y-76073000D01*
X106192000Y-76327000D01*
X106172000Y-76327000D01*
X106172000Y-77520814D01*
X106401891Y-77641481D01*
X106676252Y-77544157D01*
X106926355Y-77395178D01*
X107015000Y-77315275D01*
X107015000Y-79562704D01*
X106954774Y-79708102D01*
X106915000Y-79908061D01*
X106915000Y-80111939D01*
X106954774Y-80311898D01*
X107032795Y-80500256D01*
X107146063Y-80669774D01*
X107290226Y-80813937D01*
X107459744Y-80927205D01*
X107648102Y-81005226D01*
X107848061Y-81045000D01*
X108051939Y-81045000D01*
X108251898Y-81005226D01*
X108440256Y-80927205D01*
X108609774Y-80813937D01*
X108753937Y-80669774D01*
X108867205Y-80500256D01*
X108945226Y-80311898D01*
X108985000Y-80111939D01*
X108985000Y-79908061D01*
X108945226Y-79708102D01*
X108885000Y-79562705D01*
X108885000Y-77043059D01*
X110725000Y-77043059D01*
X110725000Y-77246937D01*
X110764774Y-77446896D01*
X110842795Y-77635254D01*
X110956063Y-77804772D01*
X111100226Y-77948935D01*
X111269744Y-78062203D01*
X111458102Y-78140224D01*
X111638532Y-78176113D01*
X112115403Y-78652985D01*
X112140922Y-78684080D01*
X112172017Y-78709599D01*
X112239248Y-78764774D01*
X112265022Y-78785926D01*
X112406606Y-78861605D01*
X112560234Y-78908207D01*
X112679969Y-78920000D01*
X112679979Y-78920000D01*
X112720002Y-78923942D01*
X112760025Y-78920000D01*
X130801783Y-78920000D01*
X130954744Y-79022205D01*
X131143102Y-79100226D01*
X131343061Y-79140000D01*
X131546939Y-79140000D01*
X131746898Y-79100226D01*
X131935256Y-79022205D01*
X132104774Y-78908937D01*
X132242315Y-78771396D01*
X132260020Y-78785926D01*
X132401604Y-78861605D01*
X132555232Y-78908207D01*
X132674967Y-78920000D01*
X132674976Y-78920000D01*
X132714999Y-78923942D01*
X132755022Y-78920000D01*
X135593191Y-78920000D01*
X135529774Y-79073102D01*
X135490000Y-79273061D01*
X135490000Y-79476939D01*
X135529774Y-79676898D01*
X135607795Y-79865256D01*
X135704510Y-80010000D01*
X135607795Y-80154744D01*
X135529774Y-80343102D01*
X135490000Y-80543061D01*
X135490000Y-80746939D01*
X135529774Y-80946898D01*
X135607795Y-81135256D01*
X135721063Y-81304774D01*
X135865226Y-81448937D01*
X136034744Y-81562205D01*
X136223102Y-81640226D01*
X136423061Y-81680000D01*
X136626939Y-81680000D01*
X136826898Y-81640226D01*
X137015256Y-81562205D01*
X137184774Y-81448937D01*
X137328937Y-81304774D01*
X137442205Y-81135256D01*
X137446599Y-81124649D01*
X137557500Y-81135572D01*
X138032500Y-81135572D01*
X138203316Y-81118748D01*
X138367567Y-81068923D01*
X138518942Y-80988012D01*
X138651623Y-80879123D01*
X138696041Y-80825000D01*
X138757925Y-80825000D01*
X138843377Y-80929123D01*
X138976058Y-81038012D01*
X139127433Y-81118923D01*
X139291684Y-81168748D01*
X139462500Y-81185572D01*
X139937500Y-81185572D01*
X140108316Y-81168748D01*
X140272567Y-81118923D01*
X140423942Y-81038012D01*
X140556623Y-80929123D01*
X140665512Y-80796442D01*
X140746423Y-80645067D01*
X140777366Y-80543061D01*
X153905000Y-80543061D01*
X153905000Y-80746939D01*
X153944774Y-80946898D01*
X154022795Y-81135256D01*
X154136063Y-81304774D01*
X154280226Y-81448937D01*
X154449744Y-81562205D01*
X154638102Y-81640226D01*
X154838061Y-81680000D01*
X155041939Y-81680000D01*
X155241898Y-81640226D01*
X155430256Y-81562205D01*
X155599774Y-81448937D01*
X155743937Y-81304774D01*
X155857205Y-81135256D01*
X155935226Y-80946898D01*
X155975000Y-80746939D01*
X155975000Y-80543061D01*
X155935226Y-80343102D01*
X155857205Y-80154744D01*
X155743937Y-79985226D01*
X155599774Y-79841063D01*
X155430256Y-79727795D01*
X155241898Y-79649774D01*
X155041939Y-79610000D01*
X154838061Y-79610000D01*
X154638102Y-79649774D01*
X154449744Y-79727795D01*
X154280226Y-79841063D01*
X154136063Y-79985226D01*
X154022795Y-80154744D01*
X153944774Y-80343102D01*
X153905000Y-80543061D01*
X140777366Y-80543061D01*
X140796248Y-80480816D01*
X140813072Y-80310000D01*
X140813072Y-79710000D01*
X140796248Y-79539184D01*
X140746423Y-79374933D01*
X140666226Y-79224894D01*
X140705537Y-79176994D01*
X140764502Y-79066680D01*
X140800812Y-78946982D01*
X140813072Y-78822500D01*
X140810000Y-78570750D01*
X140651250Y-78412000D01*
X139827000Y-78412000D01*
X139827000Y-78432000D01*
X139573000Y-78432000D01*
X139573000Y-78412000D01*
X139553000Y-78412000D01*
X139553000Y-78158000D01*
X139573000Y-78158000D01*
X139573000Y-77271250D01*
X139827000Y-77271250D01*
X139827000Y-78158000D01*
X140651250Y-78158000D01*
X140810000Y-77999250D01*
X140813072Y-77747500D01*
X140800812Y-77623018D01*
X140764502Y-77503320D01*
X140705537Y-77393006D01*
X140626185Y-77296315D01*
X140529494Y-77216963D01*
X140419180Y-77157998D01*
X140299482Y-77121688D01*
X140175000Y-77109428D01*
X139985750Y-77112500D01*
X139827000Y-77271250D01*
X139573000Y-77271250D01*
X139414250Y-77112500D01*
X139225000Y-77109428D01*
X139100518Y-77121688D01*
X138980820Y-77157998D01*
X138870506Y-77216963D01*
X138773815Y-77296315D01*
X138704692Y-77380542D01*
X138651623Y-77315877D01*
X138518942Y-77206988D01*
X138367567Y-77126077D01*
X138203316Y-77076252D01*
X138032500Y-77059428D01*
X137943593Y-77059428D01*
X137963207Y-76994768D01*
X137975000Y-76875033D01*
X137975000Y-76875024D01*
X137978942Y-76835001D01*
X137975000Y-76794978D01*
X137975000Y-75573217D01*
X138077205Y-75420256D01*
X138155226Y-75231898D01*
X138195000Y-75031939D01*
X138195000Y-74828061D01*
X138155226Y-74628102D01*
X138077205Y-74439744D01*
X138069406Y-74428072D01*
X138760000Y-74428072D01*
X138884482Y-74415812D01*
X138920124Y-74405000D01*
X140271130Y-74405000D01*
X140287310Y-74407552D01*
X140351224Y-74405000D01*
X140375033Y-74405000D01*
X140391266Y-74403401D01*
X140447722Y-74401147D01*
X140470964Y-74395551D01*
X140494768Y-74393207D01*
X140548863Y-74376798D01*
X140603803Y-74363571D01*
X140625509Y-74353548D01*
X140648396Y-74346605D01*
X140698250Y-74319957D01*
X140749554Y-74296266D01*
X140768889Y-74282200D01*
X140789980Y-74270926D01*
X140833676Y-74235066D01*
X140846845Y-74225485D01*
X140864602Y-74209685D01*
X140914080Y-74169080D01*
X140924478Y-74156410D01*
X141032833Y-74060000D01*
X141071939Y-74060000D01*
X141271898Y-74020226D01*
X141425000Y-73956808D01*
X141425001Y-76191782D01*
X141322795Y-76344744D01*
X141244774Y-76533102D01*
X141205000Y-76733061D01*
X141205000Y-76936939D01*
X141244774Y-77136898D01*
X141322795Y-77325256D01*
X141436063Y-77494774D01*
X141580226Y-77638937D01*
X141749744Y-77752205D01*
X141938102Y-77830226D01*
X142138061Y-77870000D01*
X142341939Y-77870000D01*
X142541898Y-77830226D01*
X142730256Y-77752205D01*
X142899774Y-77638937D01*
X143043937Y-77494774D01*
X143157205Y-77325256D01*
X143235226Y-77136898D01*
X143275000Y-76936939D01*
X143275000Y-76733061D01*
X143235226Y-76533102D01*
X143157205Y-76344744D01*
X143055000Y-76191783D01*
X143055000Y-72452583D01*
X143295081Y-72212503D01*
X143363730Y-72340936D01*
X143339463Y-72370506D01*
X143280498Y-72480820D01*
X143244188Y-72600518D01*
X143231928Y-72725000D01*
X143235000Y-72739250D01*
X143393750Y-72898000D01*
X144718000Y-72898000D01*
X144718000Y-72878000D01*
X144972000Y-72878000D01*
X144972000Y-72898000D01*
X144992000Y-72898000D01*
X144992000Y-73152000D01*
X144972000Y-73152000D01*
X144972000Y-73172000D01*
X144718000Y-73172000D01*
X144718000Y-73152000D01*
X143393750Y-73152000D01*
X143235000Y-73310750D01*
X143231928Y-73325000D01*
X143244188Y-73449482D01*
X143280498Y-73569180D01*
X143339463Y-73679494D01*
X143363730Y-73709064D01*
X143291916Y-73843418D01*
X143247071Y-73991255D01*
X143231928Y-74145000D01*
X143231928Y-74445000D01*
X143247071Y-74598745D01*
X143291916Y-74746582D01*
X143364742Y-74882829D01*
X143462749Y-75002251D01*
X143582171Y-75100258D01*
X143718418Y-75173084D01*
X143866255Y-75217929D01*
X144020000Y-75233072D01*
X144030000Y-75233072D01*
X144030001Y-76859967D01*
X144026058Y-76900000D01*
X144030001Y-76940033D01*
X144041794Y-77059768D01*
X144072205Y-77160021D01*
X144088396Y-77213396D01*
X144164074Y-77354980D01*
X144233520Y-77439599D01*
X144265921Y-77479080D01*
X144297015Y-77504599D01*
X145235000Y-78442584D01*
X145235000Y-78731782D01*
X145132795Y-78884744D01*
X145054774Y-79073102D01*
X145015000Y-79273061D01*
X145015000Y-79476939D01*
X145054774Y-79676898D01*
X145132795Y-79865256D01*
X145246063Y-80034774D01*
X145390226Y-80178937D01*
X145559744Y-80292205D01*
X145748102Y-80370226D01*
X145948061Y-80410000D01*
X146151939Y-80410000D01*
X146351898Y-80370226D01*
X146540256Y-80292205D01*
X146709774Y-80178937D01*
X146853937Y-80034774D01*
X146967205Y-79865256D01*
X147045226Y-79676898D01*
X147085000Y-79476939D01*
X147085000Y-79273061D01*
X147045226Y-79073102D01*
X146967205Y-78884744D01*
X146865000Y-78731783D01*
X146865000Y-78145022D01*
X146868942Y-78104999D01*
X146865000Y-78064976D01*
X146865000Y-78064967D01*
X146853207Y-77945232D01*
X146853137Y-77945000D01*
X147186928Y-77945000D01*
X147199188Y-78069482D01*
X147235498Y-78189180D01*
X147294463Y-78299494D01*
X147373815Y-78396185D01*
X147470506Y-78475537D01*
X147580820Y-78534502D01*
X147700518Y-78570812D01*
X147825000Y-78583072D01*
X148076750Y-78580000D01*
X148235500Y-78421250D01*
X148235500Y-77597000D01*
X147348750Y-77597000D01*
X147190000Y-77755750D01*
X147186928Y-77945000D01*
X146853137Y-77945000D01*
X146806605Y-77791604D01*
X146730926Y-77650020D01*
X146629080Y-77525920D01*
X146597986Y-77500402D01*
X145660000Y-76562417D01*
X145660000Y-75233072D01*
X145670000Y-75233072D01*
X145823745Y-75217929D01*
X145971582Y-75173084D01*
X146107829Y-75100258D01*
X146227251Y-75002251D01*
X146232848Y-74995431D01*
X147628462Y-76391046D01*
X147580820Y-76405498D01*
X147470506Y-76464463D01*
X147373815Y-76543815D01*
X147294463Y-76640506D01*
X147235498Y-76750820D01*
X147199188Y-76870518D01*
X147186928Y-76995000D01*
X147190000Y-77184250D01*
X147348750Y-77343000D01*
X148235500Y-77343000D01*
X148235500Y-77323000D01*
X148489500Y-77323000D01*
X148489500Y-77343000D01*
X148509500Y-77343000D01*
X148509500Y-77597000D01*
X148489500Y-77597000D01*
X148489500Y-78421250D01*
X148648250Y-78580000D01*
X148900000Y-78583072D01*
X149024482Y-78570812D01*
X149144180Y-78534502D01*
X149254494Y-78475537D01*
X149302394Y-78436226D01*
X149452433Y-78516423D01*
X149616684Y-78566248D01*
X149787500Y-78583072D01*
X150387500Y-78583072D01*
X150558316Y-78566248D01*
X150722567Y-78516423D01*
X150873942Y-78435512D01*
X151006623Y-78326623D01*
X151040782Y-78285000D01*
X157947977Y-78285000D01*
X157988000Y-78288942D01*
X158028023Y-78285000D01*
X158028033Y-78285000D01*
X158147768Y-78273207D01*
X158301396Y-78226605D01*
X158442980Y-78150926D01*
X158567080Y-78049080D01*
X158592603Y-78017980D01*
X158662981Y-77947602D01*
X158694080Y-77922080D01*
X158795926Y-77797980D01*
X158871605Y-77656396D01*
X158918207Y-77502768D01*
X158930000Y-77383033D01*
X158930000Y-77383024D01*
X158933942Y-77343001D01*
X158930000Y-77302978D01*
X158930000Y-77087843D01*
X159099081Y-76949081D01*
X159272157Y-76738188D01*
X159400764Y-76497581D01*
X159479960Y-76236507D01*
X159500000Y-76033036D01*
X159500000Y-75096963D01*
X159479960Y-74893493D01*
X159400764Y-74632419D01*
X159272157Y-74391812D01*
X159099080Y-74180919D01*
X158888187Y-74007843D01*
X158647580Y-73879236D01*
X158386506Y-73800040D01*
X158115000Y-73773299D01*
X157843493Y-73800040D01*
X157582419Y-73879236D01*
X157341812Y-74007843D01*
X157130919Y-74180920D01*
X156957843Y-74391813D01*
X156842514Y-74607579D01*
X156805972Y-74517651D01*
X156656028Y-74289939D01*
X156464540Y-74095855D01*
X156238868Y-73942858D01*
X155987684Y-73836827D01*
X155916185Y-73822682D01*
X155702000Y-73945344D01*
X155702000Y-75438000D01*
X155722000Y-75438000D01*
X155722000Y-75692000D01*
X155702000Y-75692000D01*
X155702000Y-75712000D01*
X155448000Y-75712000D01*
X155448000Y-75692000D01*
X155428000Y-75692000D01*
X155428000Y-75438000D01*
X155448000Y-75438000D01*
X155448000Y-73945344D01*
X155233815Y-73822682D01*
X155162316Y-73836827D01*
X154911132Y-73942858D01*
X154685460Y-74095855D01*
X154493972Y-74289939D01*
X154421582Y-74399874D01*
X154410812Y-74290518D01*
X154374502Y-74170820D01*
X154315537Y-74060506D01*
X154236185Y-73963815D01*
X154139494Y-73884463D01*
X154029180Y-73825498D01*
X153909482Y-73789188D01*
X153785000Y-73776928D01*
X152285000Y-73776928D01*
X152160518Y-73789188D01*
X152040820Y-73825498D01*
X151930506Y-73884463D01*
X151833815Y-73963815D01*
X151754463Y-74060506D01*
X151695498Y-74170820D01*
X151659188Y-74290518D01*
X151646928Y-74415000D01*
X151646928Y-76655000D01*
X151040782Y-76655000D01*
X151006623Y-76613377D01*
X150873942Y-76504488D01*
X150722567Y-76423577D01*
X150558316Y-76373752D01*
X150387500Y-76356928D01*
X149899512Y-76356928D01*
X148770811Y-75228227D01*
X148820000Y-75233072D01*
X149509250Y-75230000D01*
X149668000Y-75071250D01*
X149668000Y-74422000D01*
X149922000Y-74422000D01*
X149922000Y-75071250D01*
X150080750Y-75230000D01*
X150770000Y-75233072D01*
X150894482Y-75220812D01*
X151014180Y-75184502D01*
X151124494Y-75125537D01*
X151221185Y-75046185D01*
X151300537Y-74949494D01*
X151359502Y-74839180D01*
X151395812Y-74719482D01*
X151408072Y-74595000D01*
X151405000Y-74580750D01*
X151246250Y-74422000D01*
X149922000Y-74422000D01*
X149668000Y-74422000D01*
X148343750Y-74422000D01*
X148185000Y-74580750D01*
X148181928Y-74595000D01*
X148186773Y-74644189D01*
X147500000Y-73957417D01*
X147500000Y-72430033D01*
X147503943Y-72390000D01*
X147488207Y-72230232D01*
X147441605Y-72076604D01*
X147365926Y-71935020D01*
X147289599Y-71842015D01*
X147264080Y-71810920D01*
X147232985Y-71785401D01*
X146654603Y-71207020D01*
X146629080Y-71175920D01*
X146504980Y-71074074D01*
X146364678Y-70999080D01*
X146398084Y-70936582D01*
X146442929Y-70788745D01*
X146453283Y-70683625D01*
X146480914Y-70735320D01*
X146572763Y-70847238D01*
X146600808Y-70870254D01*
X147784990Y-72054437D01*
X147784990Y-72055297D01*
X147781434Y-72091402D01*
X147784990Y-72127506D01*
X147784990Y-72127507D01*
X147795625Y-72235487D01*
X147837653Y-72374035D01*
X147905903Y-72501722D01*
X147997753Y-72613640D01*
X148025798Y-72636656D01*
X148189300Y-72800158D01*
X148181928Y-72875000D01*
X148181928Y-73175000D01*
X148197071Y-73328745D01*
X148241916Y-73476582D01*
X148313730Y-73610936D01*
X148289463Y-73640506D01*
X148230498Y-73750820D01*
X148194188Y-73870518D01*
X148181928Y-73995000D01*
X148185000Y-74009250D01*
X148343750Y-74168000D01*
X149668000Y-74168000D01*
X149668000Y-74148000D01*
X149922000Y-74148000D01*
X149922000Y-74168000D01*
X151246250Y-74168000D01*
X151405000Y-74009250D01*
X151408072Y-73995000D01*
X151395812Y-73870518D01*
X151359502Y-73750820D01*
X151300537Y-73640506D01*
X151276270Y-73610936D01*
X151348084Y-73476582D01*
X151392929Y-73328745D01*
X151408072Y-73175000D01*
X151408072Y-72875000D01*
X151392929Y-72721255D01*
X151348084Y-72573418D01*
X151275258Y-72437171D01*
X151236546Y-72390000D01*
X151275258Y-72342829D01*
X151348084Y-72206582D01*
X151392929Y-72058745D01*
X151408072Y-71905000D01*
X151408072Y-71605000D01*
X151392929Y-71451255D01*
X151348084Y-71303418D01*
X151275258Y-71167171D01*
X151236546Y-71120000D01*
X151275258Y-71072829D01*
X151348084Y-70936582D01*
X151392929Y-70788745D01*
X151408072Y-70635000D01*
X151408072Y-70335000D01*
X151392929Y-70181255D01*
X151348084Y-70033418D01*
X151275258Y-69897171D01*
X151177251Y-69777749D01*
X151167809Y-69770000D01*
X151966928Y-69770000D01*
X151966928Y-70570000D01*
X151983992Y-70743254D01*
X152034528Y-70909850D01*
X152116595Y-71063386D01*
X152227038Y-71197962D01*
X152361614Y-71308405D01*
X152515150Y-71390472D01*
X152681746Y-71441008D01*
X152855000Y-71458072D01*
X155755000Y-71458072D01*
X155928254Y-71441008D01*
X156094850Y-71390472D01*
X156248386Y-71308405D01*
X156382962Y-71197962D01*
X156493405Y-71063386D01*
X156575472Y-70909850D01*
X156626008Y-70743254D01*
X156643072Y-70570000D01*
X156643072Y-69770000D01*
X156626008Y-69596746D01*
X156575472Y-69430150D01*
X156493405Y-69276614D01*
X156382962Y-69142038D01*
X156248386Y-69031595D01*
X156094850Y-68949528D01*
X155928254Y-68898992D01*
X155755000Y-68881928D01*
X152855000Y-68881928D01*
X152681746Y-68898992D01*
X152515150Y-68949528D01*
X152361614Y-69031595D01*
X152227038Y-69142038D01*
X152116595Y-69276614D01*
X152034528Y-69430150D01*
X151983992Y-69596746D01*
X151966928Y-69770000D01*
X151167809Y-69770000D01*
X151057829Y-69679742D01*
X150921582Y-69606916D01*
X150773745Y-69562071D01*
X150620000Y-69546928D01*
X148970000Y-69546928D01*
X148816255Y-69562071D01*
X148668418Y-69606916D01*
X148532171Y-69679742D01*
X148412749Y-69777749D01*
X148327486Y-69881643D01*
X148280000Y-69834157D01*
X148280000Y-69476105D01*
X148283556Y-69440000D01*
X148269365Y-69295915D01*
X148227337Y-69157366D01*
X148159087Y-69029680D01*
X148090253Y-68945806D01*
X148090250Y-68945803D01*
X148067237Y-68917762D01*
X148039197Y-68894750D01*
X144623072Y-65478626D01*
X144623072Y-65320000D01*
X151966928Y-65320000D01*
X151966928Y-66120000D01*
X151983992Y-66293254D01*
X152034528Y-66459850D01*
X152116595Y-66613386D01*
X152227038Y-66747962D01*
X152361614Y-66858405D01*
X152515150Y-66940472D01*
X152681746Y-66991008D01*
X152855000Y-67008072D01*
X155755000Y-67008072D01*
X155928254Y-66991008D01*
X156094850Y-66940472D01*
X156248386Y-66858405D01*
X156382962Y-66747962D01*
X156493405Y-66613386D01*
X156575472Y-66459850D01*
X156626008Y-66293254D01*
X156643072Y-66120000D01*
X156643072Y-65320000D01*
X156626008Y-65146746D01*
X156575472Y-64980150D01*
X156493405Y-64826614D01*
X156382962Y-64692038D01*
X156248386Y-64581595D01*
X156094850Y-64499528D01*
X155928254Y-64448992D01*
X155755000Y-64431928D01*
X152855000Y-64431928D01*
X152681746Y-64448992D01*
X152515150Y-64499528D01*
X152361614Y-64581595D01*
X152227038Y-64692038D01*
X152116595Y-64826614D01*
X152034528Y-64980150D01*
X151983992Y-65146746D01*
X151966928Y-65320000D01*
X144623072Y-65320000D01*
X144623072Y-65155000D01*
X144606248Y-64984184D01*
X144556423Y-64819933D01*
X144475512Y-64668558D01*
X144366623Y-64535877D01*
X144233942Y-64426988D01*
X144082567Y-64346077D01*
X143918316Y-64296252D01*
X143747500Y-64279428D01*
X143272500Y-64279428D01*
X143101684Y-64296252D01*
X142937433Y-64346077D01*
X142786058Y-64426988D01*
X142653377Y-64535877D01*
X142580510Y-64624666D01*
X142403812Y-64447969D01*
X142414731Y-64434664D01*
X142438402Y-64408912D01*
X142470695Y-64355879D01*
X142504449Y-64303798D01*
X142521680Y-64260492D01*
X142528462Y-64246408D01*
X142551570Y-64205948D01*
X142571247Y-64147081D01*
X142592579Y-64088752D01*
X142599740Y-64042702D01*
X142603212Y-64027488D01*
X142616745Y-63982877D01*
X142622831Y-63921082D01*
X142630645Y-63859511D01*
X142627380Y-63813025D01*
X142627380Y-63797380D01*
X142630645Y-63750894D01*
X142622831Y-63689320D01*
X142616745Y-63627529D01*
X142603213Y-63582921D01*
X142599740Y-63567703D01*
X142592579Y-63521653D01*
X142571247Y-63463324D01*
X142551570Y-63404457D01*
X142528462Y-63363997D01*
X142521680Y-63349913D01*
X142504449Y-63306607D01*
X142470695Y-63254526D01*
X142438402Y-63201493D01*
X142406854Y-63167171D01*
X142397122Y-63154967D01*
X142370684Y-63116577D01*
X142326162Y-63073286D01*
X142282891Y-63028784D01*
X142244511Y-63002354D01*
X142232288Y-62992606D01*
X142197974Y-62961065D01*
X142144957Y-62928781D01*
X142092861Y-62895019D01*
X142049549Y-62877786D01*
X142035476Y-62871009D01*
X141995011Y-62847898D01*
X141936138Y-62828219D01*
X141877815Y-62806889D01*
X141831767Y-62799729D01*
X141816551Y-62796256D01*
X141771940Y-62782723D01*
X141710143Y-62776637D01*
X141648573Y-62768823D01*
X141602087Y-62772088D01*
X141586443Y-62772088D01*
X141539957Y-62768823D01*
X141478386Y-62776637D01*
X141416591Y-62782723D01*
X141371980Y-62796256D01*
X141356766Y-62799728D01*
X141310716Y-62806889D01*
X141252387Y-62828221D01*
X141193520Y-62847898D01*
X141153060Y-62871006D01*
X141138976Y-62877788D01*
X141095670Y-62895019D01*
X141043589Y-62928773D01*
X141020000Y-62943136D01*
X141020000Y-62739446D01*
X141304447Y-62454999D01*
X141491935Y-62532659D01*
X141868188Y-62607500D01*
X142251812Y-62607500D01*
X142628065Y-62532659D01*
X142982487Y-62385852D01*
X143301459Y-62172722D01*
X143572722Y-61901459D01*
X143785852Y-61582487D01*
X143932659Y-61228065D01*
X144007500Y-60851812D01*
X144007500Y-60468188D01*
X144112500Y-60468188D01*
X144112500Y-60851812D01*
X144187341Y-61228065D01*
X144334148Y-61582487D01*
X144547278Y-61901459D01*
X144818541Y-62172722D01*
X145137513Y-62385852D01*
X145491935Y-62532659D01*
X145868188Y-62607500D01*
X146251812Y-62607500D01*
X146628065Y-62532659D01*
X146982487Y-62385852D01*
X147301459Y-62172722D01*
X147572722Y-61901459D01*
X147785852Y-61582487D01*
X147932659Y-61228065D01*
X148007500Y-60851812D01*
X148007500Y-60468188D01*
X147932659Y-60091935D01*
X147785852Y-59737513D01*
X147572722Y-59418541D01*
X147301459Y-59147278D01*
X146982487Y-58934148D01*
X146628065Y-58787341D01*
X146251812Y-58712500D01*
X145868188Y-58712500D01*
X145491935Y-58787341D01*
X145137513Y-58934148D01*
X144818541Y-59147278D01*
X144547278Y-59418541D01*
X144334148Y-59737513D01*
X144187341Y-60091935D01*
X144112500Y-60468188D01*
X144007500Y-60468188D01*
X143932659Y-60091935D01*
X143785852Y-59737513D01*
X143572722Y-59418541D01*
X143301459Y-59147278D01*
X142982487Y-58934148D01*
X142628065Y-58787341D01*
X142251812Y-58712500D01*
X141868188Y-58712500D01*
X141491935Y-58787341D01*
X141384447Y-58831864D01*
X140951338Y-58398755D01*
X140982487Y-58385852D01*
X141301459Y-58172722D01*
X141572722Y-57901459D01*
X141785852Y-57582487D01*
X141932659Y-57228065D01*
X142007500Y-56851812D01*
X142007500Y-56468188D01*
X142112500Y-56468188D01*
X142112500Y-56851812D01*
X142187341Y-57228065D01*
X142334148Y-57582487D01*
X142547278Y-57901459D01*
X142818541Y-58172722D01*
X143137513Y-58385852D01*
X143491935Y-58532659D01*
X143868188Y-58607500D01*
X144251812Y-58607500D01*
X144628065Y-58532659D01*
X144982487Y-58385852D01*
X145301459Y-58172722D01*
X145572722Y-57901459D01*
X145785852Y-57582487D01*
X145932659Y-57228065D01*
X145986555Y-56957108D01*
X150500000Y-56957108D01*
X150500000Y-57362892D01*
X150579165Y-57760880D01*
X150734452Y-58135776D01*
X150959894Y-58473173D01*
X151246827Y-58760106D01*
X151584224Y-58985548D01*
X151959120Y-59140835D01*
X152357108Y-59220000D01*
X152762892Y-59220000D01*
X153160880Y-59140835D01*
X153535776Y-58985548D01*
X153873173Y-58760106D01*
X154160106Y-58473173D01*
X154385548Y-58135776D01*
X154540835Y-57760880D01*
X154620000Y-57362892D01*
X154620000Y-56957108D01*
X154540835Y-56559120D01*
X154385548Y-56184224D01*
X154160106Y-55846827D01*
X153873173Y-55559894D01*
X153535776Y-55334452D01*
X153160880Y-55179165D01*
X152762892Y-55100000D01*
X152357108Y-55100000D01*
X151959120Y-55179165D01*
X151584224Y-55334452D01*
X151246827Y-55559894D01*
X150959894Y-55846827D01*
X150734452Y-56184224D01*
X150579165Y-56559120D01*
X150500000Y-56957108D01*
X145986555Y-56957108D01*
X146007500Y-56851812D01*
X146007500Y-56468188D01*
X145932659Y-56091935D01*
X145785852Y-55737513D01*
X145572722Y-55418541D01*
X145301459Y-55147278D01*
X144982487Y-54934148D01*
X144628065Y-54787341D01*
X144251812Y-54712500D01*
X143868188Y-54712500D01*
X143491935Y-54787341D01*
X143137513Y-54934148D01*
X142818541Y-55147278D01*
X142547278Y-55418541D01*
X142334148Y-55737513D01*
X142187341Y-56091935D01*
X142112500Y-56468188D01*
X142007500Y-56468188D01*
X141932659Y-56091935D01*
X141785852Y-55737513D01*
X141572722Y-55418541D01*
X141301459Y-55147278D01*
X140982487Y-54934148D01*
X140628065Y-54787341D01*
X140251812Y-54712500D01*
X139868188Y-54712500D01*
X139491935Y-54787341D01*
X139137513Y-54934148D01*
X138818541Y-55147278D01*
X138547278Y-55418541D01*
X138334148Y-55737513D01*
X138187341Y-56091935D01*
X138112500Y-56468188D01*
X138112500Y-56851812D01*
X138187341Y-57228065D01*
X138334148Y-57582487D01*
X138547278Y-57901459D01*
X138818541Y-58172722D01*
X139137513Y-58385852D01*
X139245001Y-58430375D01*
X139245001Y-58619967D01*
X139241058Y-58660000D01*
X139256794Y-58819767D01*
X139303396Y-58973396D01*
X139379074Y-59114980D01*
X139455401Y-59207984D01*
X139480921Y-59239080D01*
X139512016Y-59264599D01*
X140231864Y-59984447D01*
X140187341Y-60091935D01*
X140112500Y-60468188D01*
X140112500Y-60851812D01*
X140187341Y-61228065D01*
X140265001Y-61415553D01*
X140060000Y-61620553D01*
X139854999Y-61415552D01*
X139932659Y-61228065D01*
X140007500Y-60851812D01*
X140007500Y-60468188D01*
X139932659Y-60091935D01*
X139785852Y-59737513D01*
X139572722Y-59418541D01*
X139301459Y-59147278D01*
X138982487Y-58934148D01*
X138628065Y-58787341D01*
X138251812Y-58712500D01*
X137868188Y-58712500D01*
X137491935Y-58787341D01*
X137384447Y-58831864D01*
X136951338Y-58398755D01*
X136982487Y-58385852D01*
X137301459Y-58172722D01*
X137572722Y-57901459D01*
X137785852Y-57582487D01*
X137932659Y-57228065D01*
X138007500Y-56851812D01*
X138007500Y-56468188D01*
X137932659Y-56091935D01*
X137785852Y-55737513D01*
X137572722Y-55418541D01*
X137301459Y-55147278D01*
X136982487Y-54934148D01*
X136628065Y-54787341D01*
X136251812Y-54712500D01*
X135868188Y-54712500D01*
X135491935Y-54787341D01*
X135137513Y-54934148D01*
X134818541Y-55147278D01*
X134547278Y-55418541D01*
X134334148Y-55737513D01*
X134187341Y-56091935D01*
X134112500Y-56468188D01*
X134112500Y-56851812D01*
X134187341Y-57228065D01*
X134334148Y-57582487D01*
X134547278Y-57901459D01*
X134818541Y-58172722D01*
X135137513Y-58385852D01*
X135245001Y-58430375D01*
X135245001Y-58619967D01*
X135241058Y-58660000D01*
X135256794Y-58819767D01*
X135303396Y-58973396D01*
X135379074Y-59114980D01*
X135455401Y-59207984D01*
X135480921Y-59239080D01*
X135512016Y-59264599D01*
X136231864Y-59984447D01*
X136187341Y-60091935D01*
X136112500Y-60468188D01*
X136112500Y-60851812D01*
X136187341Y-61228065D01*
X136334148Y-61582487D01*
X136547278Y-61901459D01*
X136818541Y-62172722D01*
X137137513Y-62385852D01*
X137491935Y-62532659D01*
X137868188Y-62607500D01*
X138251812Y-62607500D01*
X138628065Y-62532659D01*
X138815552Y-62454999D01*
X139100000Y-62739447D01*
X139100001Y-63518885D01*
X139096444Y-63555000D01*
X139110635Y-63699085D01*
X139146633Y-63817753D01*
X139152664Y-63837633D01*
X139220914Y-63965320D01*
X139312763Y-64077238D01*
X139340808Y-64100254D01*
X141509004Y-66268451D01*
X141509009Y-66268455D01*
X142396928Y-67156375D01*
X142396928Y-67480000D01*
X142413752Y-67650816D01*
X142463577Y-67815067D01*
X142544488Y-67966442D01*
X142653377Y-68099123D01*
X142786058Y-68208012D01*
X142937433Y-68288923D01*
X143101684Y-68338748D01*
X143272500Y-68355572D01*
X143747500Y-68355572D01*
X143918316Y-68338748D01*
X144082567Y-68288923D01*
X144233942Y-68208012D01*
X144366623Y-68099123D01*
X144439491Y-68010334D01*
X146113791Y-69684635D01*
X146107829Y-69679742D01*
X145971582Y-69606916D01*
X145823745Y-69562071D01*
X145670000Y-69546928D01*
X144020000Y-69546928D01*
X143866255Y-69562071D01*
X143718418Y-69606916D01*
X143582171Y-69679742D01*
X143462749Y-69777749D01*
X143461561Y-69779197D01*
X143415019Y-69804074D01*
X143358669Y-69850320D01*
X143290920Y-69905920D01*
X143265401Y-69937015D01*
X141901987Y-71300430D01*
X141887205Y-71264744D01*
X141773937Y-71095226D01*
X141629774Y-70951063D01*
X141460256Y-70837795D01*
X141271898Y-70759774D01*
X141071939Y-70720000D01*
X141032833Y-70720000D01*
X140924478Y-70623590D01*
X140914080Y-70610920D01*
X140864602Y-70570315D01*
X140846845Y-70554515D01*
X140833676Y-70544934D01*
X140789980Y-70509074D01*
X140768889Y-70497800D01*
X140749554Y-70483734D01*
X140698250Y-70460043D01*
X140648396Y-70433395D01*
X140625509Y-70426452D01*
X140603803Y-70416429D01*
X140548863Y-70403202D01*
X140494768Y-70386793D01*
X140470964Y-70384449D01*
X140447722Y-70378853D01*
X140391266Y-70376599D01*
X140375033Y-70375000D01*
X140351224Y-70375000D01*
X140287310Y-70372448D01*
X140271130Y-70375000D01*
X138920124Y-70375000D01*
X138884482Y-70364188D01*
X138760000Y-70351928D01*
X135560000Y-70351928D01*
X135435518Y-70364188D01*
X135315820Y-70400498D01*
X135205506Y-70459463D01*
X135108815Y-70538815D01*
X135029463Y-70635506D01*
X134970498Y-70745820D01*
X134934188Y-70865518D01*
X134921928Y-70990000D01*
X134921928Y-71390000D01*
X134934188Y-71514482D01*
X134970498Y-71634180D01*
X135029463Y-71744494D01*
X135066775Y-71789959D01*
X135032415Y-71831126D01*
X134972540Y-71940948D01*
X134935240Y-72060342D01*
X134925000Y-72158250D01*
X135083750Y-72317000D01*
X137033000Y-72317000D01*
X137033000Y-72243000D01*
X137287000Y-72243000D01*
X137287000Y-72317000D01*
X139236250Y-72317000D01*
X139395000Y-72158250D01*
X139384760Y-72060342D01*
X139367471Y-72005000D01*
X139964451Y-72005000D01*
X139974774Y-72056898D01*
X140052795Y-72245256D01*
X140149510Y-72390000D01*
X140052795Y-72534744D01*
X139974774Y-72723102D01*
X139964451Y-72775000D01*
X139367471Y-72775000D01*
X139384760Y-72719658D01*
X139395000Y-72621750D01*
X139236250Y-72463000D01*
X137287000Y-72463000D01*
X137287000Y-72537000D01*
X137033000Y-72537000D01*
X137033000Y-72463000D01*
X135083750Y-72463000D01*
X134925000Y-72621750D01*
X134935240Y-72719658D01*
X134972540Y-72839052D01*
X135032415Y-72948874D01*
X135066775Y-72990041D01*
X135029463Y-73035506D01*
X134970498Y-73145820D01*
X134934188Y-73265518D01*
X134921928Y-73390000D01*
X134921928Y-73790000D01*
X134934188Y-73914482D01*
X134970498Y-74034180D01*
X135029463Y-74144494D01*
X135108815Y-74241185D01*
X135205506Y-74320537D01*
X135315820Y-74379502D01*
X135435518Y-74415812D01*
X135560000Y-74428072D01*
X136250594Y-74428072D01*
X136242795Y-74439744D01*
X136164774Y-74628102D01*
X136125000Y-74828061D01*
X136125000Y-75031939D01*
X136164774Y-75231898D01*
X136242795Y-75420256D01*
X136345001Y-75573218D01*
X136345000Y-76497416D01*
X135552417Y-77290000D01*
X133646809Y-77290000D01*
X133710226Y-77136898D01*
X133750000Y-76936939D01*
X133750000Y-76733061D01*
X133710226Y-76533102D01*
X133632205Y-76344744D01*
X133582852Y-76270883D01*
X133663937Y-76189798D01*
X133777205Y-76020280D01*
X133855226Y-75831922D01*
X133895000Y-75631963D01*
X133895000Y-75428085D01*
X133855226Y-75228126D01*
X133777205Y-75039768D01*
X133663937Y-74870250D01*
X133519774Y-74726087D01*
X133350256Y-74612819D01*
X133161898Y-74534798D01*
X132981468Y-74498909D01*
X132463671Y-73981111D01*
X132558102Y-74020226D01*
X132758061Y-74060000D01*
X132961939Y-74060000D01*
X133161898Y-74020226D01*
X133350256Y-73942205D01*
X133519774Y-73828937D01*
X133663937Y-73684774D01*
X133777205Y-73515256D01*
X133855226Y-73326898D01*
X133895000Y-73126939D01*
X133895000Y-72923061D01*
X133855226Y-72723102D01*
X133777205Y-72534744D01*
X133663937Y-72365226D01*
X133519774Y-72221063D01*
X133350256Y-72107795D01*
X133161898Y-72029774D01*
X132981469Y-71993885D01*
X129019603Y-68032020D01*
X128994080Y-68000920D01*
X128869980Y-67899074D01*
X128728396Y-67823395D01*
X128574768Y-67776793D01*
X128455033Y-67765000D01*
X128455023Y-67765000D01*
X128415000Y-67761058D01*
X128374977Y-67765000D01*
X113038217Y-67765000D01*
X112885256Y-67662795D01*
X112696898Y-67584774D01*
X112496939Y-67545000D01*
X112293061Y-67545000D01*
X112093102Y-67584774D01*
X111904744Y-67662795D01*
X111735226Y-67776063D01*
X111591063Y-67920226D01*
X111477795Y-68089744D01*
X111399774Y-68278102D01*
X111360000Y-68478061D01*
X111360000Y-68681939D01*
X111399774Y-68881898D01*
X111477795Y-69070256D01*
X111591063Y-69239774D01*
X111735226Y-69383937D01*
X111904744Y-69497205D01*
X112093102Y-69575226D01*
X112293061Y-69615000D01*
X112496939Y-69615000D01*
X112696898Y-69575226D01*
X112885256Y-69497205D01*
X113038217Y-69395000D01*
X128077417Y-69395000D01*
X131828885Y-73146469D01*
X131864774Y-73326898D01*
X131903889Y-73421330D01*
X130324579Y-71842020D01*
X130299056Y-71810920D01*
X130174956Y-71709074D01*
X130033372Y-71633395D01*
X129879744Y-71586793D01*
X129760009Y-71575000D01*
X129759999Y-71575000D01*
X129719976Y-71571058D01*
X129679953Y-71575000D01*
X125738217Y-71575000D01*
X125585256Y-71472795D01*
X125396898Y-71394774D01*
X125196939Y-71355000D01*
X124993061Y-71355000D01*
X124793102Y-71394774D01*
X124604744Y-71472795D01*
X124435226Y-71586063D01*
X124291063Y-71730226D01*
X124177795Y-71899744D01*
X124099774Y-72088102D01*
X124063885Y-72268531D01*
X121022407Y-75310010D01*
X120152573Y-75310010D01*
X121197986Y-74264598D01*
X121229080Y-74239080D01*
X121330926Y-74114980D01*
X121406605Y-73973396D01*
X121453207Y-73819768D01*
X121465000Y-73700033D01*
X121465000Y-73700023D01*
X121468942Y-73660000D01*
X121465000Y-73619977D01*
X121465000Y-72139473D01*
X121586898Y-72115226D01*
X121775256Y-72037205D01*
X121944774Y-71923937D01*
X122088937Y-71779774D01*
X122202205Y-71610256D01*
X122280226Y-71421898D01*
X122320000Y-71221939D01*
X122320000Y-71018061D01*
X122280226Y-70818102D01*
X122202205Y-70629744D01*
X122088937Y-70460226D01*
X121944774Y-70316063D01*
X121775256Y-70202795D01*
X121586898Y-70124774D01*
X121386939Y-70085000D01*
X121183061Y-70085000D01*
X120983102Y-70124774D01*
X120794744Y-70202795D01*
X120625226Y-70316063D01*
X120481063Y-70460226D01*
X120367795Y-70629744D01*
X120289774Y-70818102D01*
X120253884Y-70998532D01*
X120102016Y-71150401D01*
X120070921Y-71175920D01*
X120045402Y-71207015D01*
X120045401Y-71207016D01*
X119969074Y-71300020D01*
X119917627Y-71396271D01*
X119893396Y-71441604D01*
X119846794Y-71595232D01*
X119841894Y-71644980D01*
X119831058Y-71755000D01*
X119835001Y-71795033D01*
X119835000Y-73322416D01*
X118407417Y-74750000D01*
X117136809Y-74750000D01*
X117200226Y-74596898D01*
X117240000Y-74396939D01*
X117240000Y-74193061D01*
X117200226Y-73993102D01*
X117122205Y-73804744D01*
X117008937Y-73635226D01*
X116864774Y-73491063D01*
X116695256Y-73377795D01*
X116506898Y-73299774D01*
X116306939Y-73260000D01*
X116103061Y-73260000D01*
X115903102Y-73299774D01*
X115714744Y-73377795D01*
X115561783Y-73480000D01*
X115290760Y-73480000D01*
X115305537Y-73461994D01*
X115364502Y-73351680D01*
X115400812Y-73231982D01*
X115413072Y-73107500D01*
X115410000Y-72855750D01*
X115251250Y-72697000D01*
X114427000Y-72697000D01*
X114427000Y-72717000D01*
X114173000Y-72717000D01*
X114173000Y-72697000D01*
X113348750Y-72697000D01*
X113190000Y-72855750D01*
X113186928Y-73107500D01*
X113199188Y-73231982D01*
X113235498Y-73351680D01*
X113294463Y-73461994D01*
X113333774Y-73509894D01*
X113253577Y-73659933D01*
X113203752Y-73824184D01*
X113186928Y-73995000D01*
X113186928Y-74595000D01*
X113203752Y-74765816D01*
X113253577Y-74930067D01*
X113334488Y-75081442D01*
X113443377Y-75214123D01*
X113576058Y-75323012D01*
X113727433Y-75403923D01*
X113891684Y-75453748D01*
X114062500Y-75470572D01*
X114511844Y-75470572D01*
X114178532Y-75803885D01*
X113998102Y-75839774D01*
X113809744Y-75917795D01*
X113640226Y-76031063D01*
X113496063Y-76175226D01*
X113382795Y-76344744D01*
X113304774Y-76533102D01*
X113265000Y-76733061D01*
X113265000Y-76936939D01*
X113304774Y-77136898D01*
X113368191Y-77290000D01*
X113057586Y-77290000D01*
X112791115Y-77023530D01*
X112755226Y-76843100D01*
X112677205Y-76654742D01*
X112563937Y-76485224D01*
X112419774Y-76341061D01*
X112250256Y-76227793D01*
X112061898Y-76149772D01*
X111861939Y-76109998D01*
X111658061Y-76109998D01*
X111458102Y-76149772D01*
X111269744Y-76227793D01*
X111100226Y-76341061D01*
X110956063Y-76485224D01*
X110842795Y-76654742D01*
X110764774Y-76843100D01*
X110725000Y-77043059D01*
X108885000Y-77043059D01*
X108885000Y-72032500D01*
X113186928Y-72032500D01*
X113190000Y-72284250D01*
X113348750Y-72443000D01*
X114173000Y-72443000D01*
X114173000Y-71556250D01*
X114427000Y-71556250D01*
X114427000Y-72443000D01*
X115251250Y-72443000D01*
X115410000Y-72284250D01*
X115413072Y-72032500D01*
X115400812Y-71908018D01*
X115364502Y-71788320D01*
X115305537Y-71678006D01*
X115226185Y-71581315D01*
X115129494Y-71501963D01*
X115019180Y-71442998D01*
X114899482Y-71406688D01*
X114775000Y-71394428D01*
X114585750Y-71397500D01*
X114427000Y-71556250D01*
X114173000Y-71556250D01*
X114014250Y-71397500D01*
X113825000Y-71394428D01*
X113700518Y-71406688D01*
X113580820Y-71442998D01*
X113470506Y-71501963D01*
X113373815Y-71581315D01*
X113294463Y-71678006D01*
X113235498Y-71788320D01*
X113199188Y-71908018D01*
X113186928Y-72032500D01*
X108885000Y-72032500D01*
X108885000Y-71800935D01*
X108889524Y-71755000D01*
X108871472Y-71571708D01*
X108818007Y-71395459D01*
X108773286Y-71311793D01*
X108731186Y-71233028D01*
X108614344Y-71090656D01*
X108578659Y-71061370D01*
X108008630Y-70491341D01*
X107979344Y-70455656D01*
X107836972Y-70338814D01*
X107674540Y-70251993D01*
X107498292Y-70198529D01*
X107360932Y-70185000D01*
X107315000Y-70180476D01*
X107269068Y-70185000D01*
X107206247Y-70185000D01*
X107198475Y-70173368D01*
X106991632Y-69966525D01*
X106748411Y-69804010D01*
X106478158Y-69692068D01*
X106191260Y-69635000D01*
X105898740Y-69635000D01*
X105611842Y-69692068D01*
X105341589Y-69804010D01*
X105098368Y-69966525D01*
X104966513Y-70098380D01*
X104944502Y-70025820D01*
X104885537Y-69915506D01*
X104806185Y-69818815D01*
X104709494Y-69739463D01*
X104599180Y-69680498D01*
X104479482Y-69644188D01*
X104355000Y-69631928D01*
X102655000Y-69631928D01*
X102530518Y-69644188D01*
X102410820Y-69680498D01*
X102300506Y-69739463D01*
X102260000Y-69772705D01*
X102260000Y-60468188D01*
X116112500Y-60468188D01*
X116112500Y-60851812D01*
X116187341Y-61228065D01*
X116334148Y-61582487D01*
X116547278Y-61901459D01*
X116818541Y-62172722D01*
X117137513Y-62385852D01*
X117491935Y-62532659D01*
X117868188Y-62607500D01*
X118251812Y-62607500D01*
X118628065Y-62532659D01*
X118982487Y-62385852D01*
X119301459Y-62172722D01*
X119572722Y-61901459D01*
X119785852Y-61582487D01*
X119932659Y-61228065D01*
X120007500Y-60851812D01*
X120007500Y-60468188D01*
X120112500Y-60468188D01*
X120112500Y-60851812D01*
X120187341Y-61228065D01*
X120334148Y-61582487D01*
X120547278Y-61901459D01*
X120818541Y-62172722D01*
X121137513Y-62385852D01*
X121491935Y-62532659D01*
X121868188Y-62607500D01*
X122251812Y-62607500D01*
X122628065Y-62532659D01*
X122982487Y-62385852D01*
X123301459Y-62172722D01*
X123572722Y-61901459D01*
X123785852Y-61582487D01*
X123932659Y-61228065D01*
X124007500Y-60851812D01*
X124007500Y-60468188D01*
X124112500Y-60468188D01*
X124112500Y-60851812D01*
X124187341Y-61228065D01*
X124334148Y-61582487D01*
X124547278Y-61901459D01*
X124818541Y-62172722D01*
X125137513Y-62385852D01*
X125491935Y-62532659D01*
X125868188Y-62607500D01*
X126251812Y-62607500D01*
X126628065Y-62532659D01*
X126982487Y-62385852D01*
X127301459Y-62172722D01*
X127572722Y-61901459D01*
X127785852Y-61582487D01*
X127932659Y-61228065D01*
X128007500Y-60851812D01*
X128007500Y-60468188D01*
X128112500Y-60468188D01*
X128112500Y-60851812D01*
X128187341Y-61228065D01*
X128334148Y-61582487D01*
X128547278Y-61901459D01*
X128818541Y-62172722D01*
X129137513Y-62385852D01*
X129491935Y-62532659D01*
X129868188Y-62607500D01*
X130251812Y-62607500D01*
X130628065Y-62532659D01*
X130982487Y-62385852D01*
X131301459Y-62172722D01*
X131572722Y-61901459D01*
X131785852Y-61582487D01*
X131932659Y-61228065D01*
X132007500Y-60851812D01*
X132007500Y-60468188D01*
X132112500Y-60468188D01*
X132112500Y-60851812D01*
X132187341Y-61228065D01*
X132334148Y-61582487D01*
X132547278Y-61901459D01*
X132818541Y-62172722D01*
X133137513Y-62385852D01*
X133491935Y-62532659D01*
X133868188Y-62607500D01*
X134251812Y-62607500D01*
X134628065Y-62532659D01*
X134982487Y-62385852D01*
X135301459Y-62172722D01*
X135572722Y-61901459D01*
X135785852Y-61582487D01*
X135932659Y-61228065D01*
X136007500Y-60851812D01*
X136007500Y-60468188D01*
X135932659Y-60091935D01*
X135785852Y-59737513D01*
X135572722Y-59418541D01*
X135301459Y-59147278D01*
X134982487Y-58934148D01*
X134628065Y-58787341D01*
X134251812Y-58712500D01*
X133868188Y-58712500D01*
X133491935Y-58787341D01*
X133137513Y-58934148D01*
X132818541Y-59147278D01*
X132547278Y-59418541D01*
X132334148Y-59737513D01*
X132187341Y-60091935D01*
X132112500Y-60468188D01*
X132007500Y-60468188D01*
X131932659Y-60091935D01*
X131785852Y-59737513D01*
X131572722Y-59418541D01*
X131301459Y-59147278D01*
X130982487Y-58934148D01*
X130628065Y-58787341D01*
X130251812Y-58712500D01*
X129868188Y-58712500D01*
X129491935Y-58787341D01*
X129137513Y-58934148D01*
X128818541Y-59147278D01*
X128547278Y-59418541D01*
X128334148Y-59737513D01*
X128187341Y-60091935D01*
X128112500Y-60468188D01*
X128007500Y-60468188D01*
X127932659Y-60091935D01*
X127785852Y-59737513D01*
X127572722Y-59418541D01*
X127301459Y-59147278D01*
X126982487Y-58934148D01*
X126628065Y-58787341D01*
X126251812Y-58712500D01*
X125868188Y-58712500D01*
X125491935Y-58787341D01*
X125137513Y-58934148D01*
X124818541Y-59147278D01*
X124547278Y-59418541D01*
X124334148Y-59737513D01*
X124187341Y-60091935D01*
X124112500Y-60468188D01*
X124007500Y-60468188D01*
X123932659Y-60091935D01*
X123785852Y-59737513D01*
X123572722Y-59418541D01*
X123301459Y-59147278D01*
X122982487Y-58934148D01*
X122628065Y-58787341D01*
X122251812Y-58712500D01*
X121868188Y-58712500D01*
X121491935Y-58787341D01*
X121137513Y-58934148D01*
X120818541Y-59147278D01*
X120547278Y-59418541D01*
X120334148Y-59737513D01*
X120187341Y-60091935D01*
X120112500Y-60468188D01*
X120007500Y-60468188D01*
X119932659Y-60091935D01*
X119785852Y-59737513D01*
X119572722Y-59418541D01*
X119301459Y-59147278D01*
X118982487Y-58934148D01*
X118628065Y-58787341D01*
X118251812Y-58712500D01*
X117868188Y-58712500D01*
X117491935Y-58787341D01*
X117137513Y-58934148D01*
X116818541Y-59147278D01*
X116547278Y-59418541D01*
X116334148Y-59737513D01*
X116187341Y-60091935D01*
X116112500Y-60468188D01*
X102260000Y-60468188D01*
X102260000Y-56957108D01*
X109500000Y-56957108D01*
X109500000Y-57362892D01*
X109579165Y-57760880D01*
X109734452Y-58135776D01*
X109959894Y-58473173D01*
X110246827Y-58760106D01*
X110584224Y-58985548D01*
X110959120Y-59140835D01*
X111357108Y-59220000D01*
X111762892Y-59220000D01*
X112160880Y-59140835D01*
X112535776Y-58985548D01*
X112873173Y-58760106D01*
X113160106Y-58473173D01*
X113385548Y-58135776D01*
X113540835Y-57760880D01*
X113620000Y-57362892D01*
X113620000Y-56957108D01*
X113540835Y-56559120D01*
X113503170Y-56468188D01*
X118112500Y-56468188D01*
X118112500Y-56851812D01*
X118187341Y-57228065D01*
X118334148Y-57582487D01*
X118547278Y-57901459D01*
X118818541Y-58172722D01*
X119137513Y-58385852D01*
X119491935Y-58532659D01*
X119868188Y-58607500D01*
X120251812Y-58607500D01*
X120628065Y-58532659D01*
X120982487Y-58385852D01*
X121301459Y-58172722D01*
X121572722Y-57901459D01*
X121785852Y-57582487D01*
X121932659Y-57228065D01*
X122007500Y-56851812D01*
X122007500Y-56468188D01*
X122112500Y-56468188D01*
X122112500Y-56851812D01*
X122187341Y-57228065D01*
X122334148Y-57582487D01*
X122547278Y-57901459D01*
X122818541Y-58172722D01*
X123137513Y-58385852D01*
X123491935Y-58532659D01*
X123868188Y-58607500D01*
X124251812Y-58607500D01*
X124628065Y-58532659D01*
X124982487Y-58385852D01*
X125301459Y-58172722D01*
X125572722Y-57901459D01*
X125785852Y-57582487D01*
X125932659Y-57228065D01*
X126007500Y-56851812D01*
X126007500Y-56468188D01*
X126112500Y-56468188D01*
X126112500Y-56851812D01*
X126187341Y-57228065D01*
X126334148Y-57582487D01*
X126547278Y-57901459D01*
X126818541Y-58172722D01*
X127137513Y-58385852D01*
X127491935Y-58532659D01*
X127868188Y-58607500D01*
X128251812Y-58607500D01*
X128628065Y-58532659D01*
X128982487Y-58385852D01*
X129301459Y-58172722D01*
X129572722Y-57901459D01*
X129785852Y-57582487D01*
X129932659Y-57228065D01*
X130007500Y-56851812D01*
X130007500Y-56468188D01*
X130112500Y-56468188D01*
X130112500Y-56851812D01*
X130187341Y-57228065D01*
X130334148Y-57582487D01*
X130547278Y-57901459D01*
X130818541Y-58172722D01*
X131137513Y-58385852D01*
X131491935Y-58532659D01*
X131868188Y-58607500D01*
X132251812Y-58607500D01*
X132628065Y-58532659D01*
X132982487Y-58385852D01*
X133301459Y-58172722D01*
X133572722Y-57901459D01*
X133785852Y-57582487D01*
X133932659Y-57228065D01*
X134007500Y-56851812D01*
X134007500Y-56468188D01*
X133932659Y-56091935D01*
X133785852Y-55737513D01*
X133572722Y-55418541D01*
X133301459Y-55147278D01*
X132982487Y-54934148D01*
X132628065Y-54787341D01*
X132251812Y-54712500D01*
X131868188Y-54712500D01*
X131491935Y-54787341D01*
X131137513Y-54934148D01*
X130818541Y-55147278D01*
X130547278Y-55418541D01*
X130334148Y-55737513D01*
X130187341Y-56091935D01*
X130112500Y-56468188D01*
X130007500Y-56468188D01*
X129932659Y-56091935D01*
X129785852Y-55737513D01*
X129572722Y-55418541D01*
X129301459Y-55147278D01*
X128982487Y-54934148D01*
X128628065Y-54787341D01*
X128251812Y-54712500D01*
X127868188Y-54712500D01*
X127491935Y-54787341D01*
X127137513Y-54934148D01*
X126818541Y-55147278D01*
X126547278Y-55418541D01*
X126334148Y-55737513D01*
X126187341Y-56091935D01*
X126112500Y-56468188D01*
X126007500Y-56468188D01*
X125932659Y-56091935D01*
X125785852Y-55737513D01*
X125572722Y-55418541D01*
X125301459Y-55147278D01*
X124982487Y-54934148D01*
X124628065Y-54787341D01*
X124251812Y-54712500D01*
X123868188Y-54712500D01*
X123491935Y-54787341D01*
X123137513Y-54934148D01*
X122818541Y-55147278D01*
X122547278Y-55418541D01*
X122334148Y-55737513D01*
X122187341Y-56091935D01*
X122112500Y-56468188D01*
X122007500Y-56468188D01*
X121932659Y-56091935D01*
X121785852Y-55737513D01*
X121572722Y-55418541D01*
X121301459Y-55147278D01*
X120982487Y-54934148D01*
X120628065Y-54787341D01*
X120251812Y-54712500D01*
X119868188Y-54712500D01*
X119491935Y-54787341D01*
X119137513Y-54934148D01*
X118818541Y-55147278D01*
X118547278Y-55418541D01*
X118334148Y-55737513D01*
X118187341Y-56091935D01*
X118112500Y-56468188D01*
X113503170Y-56468188D01*
X113385548Y-56184224D01*
X113160106Y-55846827D01*
X112873173Y-55559894D01*
X112535776Y-55334452D01*
X112160880Y-55179165D01*
X111762892Y-55100000D01*
X111357108Y-55100000D01*
X110959120Y-55179165D01*
X110584224Y-55334452D01*
X110246827Y-55559894D01*
X109959894Y-55846827D01*
X109734452Y-56184224D01*
X109579165Y-56559120D01*
X109500000Y-56957108D01*
X102260000Y-56957108D01*
X102260000Y-53972500D01*
X116109428Y-53972500D01*
X116121688Y-54096982D01*
X116157998Y-54216680D01*
X116216963Y-54326994D01*
X116296315Y-54423685D01*
X116393006Y-54503037D01*
X116503320Y-54562002D01*
X116623018Y-54598312D01*
X116747500Y-54610572D01*
X117774250Y-54607500D01*
X117933000Y-54448750D01*
X117933000Y-52787000D01*
X118187000Y-52787000D01*
X118187000Y-54448750D01*
X118345750Y-54607500D01*
X119372500Y-54610572D01*
X119496982Y-54598312D01*
X119616680Y-54562002D01*
X119726994Y-54503037D01*
X119823685Y-54423685D01*
X119903037Y-54326994D01*
X119962002Y-54216680D01*
X119998312Y-54096982D01*
X120006078Y-54018128D01*
X120881477Y-54018128D01*
X121014919Y-54314496D01*
X121357776Y-54486590D01*
X121727620Y-54588490D01*
X122110236Y-54616279D01*
X122490921Y-54568889D01*
X122855048Y-54448142D01*
X123105081Y-54314496D01*
X123238523Y-54018128D01*
X124881477Y-54018128D01*
X125014919Y-54314496D01*
X125357776Y-54486590D01*
X125727620Y-54588490D01*
X126110236Y-54616279D01*
X126490921Y-54568889D01*
X126855048Y-54448142D01*
X127105081Y-54314496D01*
X127238523Y-54018128D01*
X128881477Y-54018128D01*
X129014919Y-54314496D01*
X129357776Y-54486590D01*
X129727620Y-54588490D01*
X130110236Y-54616279D01*
X130490921Y-54568889D01*
X130855048Y-54448142D01*
X131105081Y-54314496D01*
X131238523Y-54018128D01*
X130060000Y-52839605D01*
X128881477Y-54018128D01*
X127238523Y-54018128D01*
X126060000Y-52839605D01*
X124881477Y-54018128D01*
X123238523Y-54018128D01*
X122060000Y-52839605D01*
X120881477Y-54018128D01*
X120006078Y-54018128D01*
X120010572Y-53972500D01*
X120007500Y-52945750D01*
X119848750Y-52787000D01*
X118187000Y-52787000D01*
X117933000Y-52787000D01*
X116271250Y-52787000D01*
X116112500Y-52945750D01*
X116109428Y-53972500D01*
X102260000Y-53972500D01*
X102260000Y-52710236D01*
X120103721Y-52710236D01*
X120151111Y-53090921D01*
X120271858Y-53455048D01*
X120405504Y-53705081D01*
X120701872Y-53838523D01*
X121880395Y-52660000D01*
X122239605Y-52660000D01*
X123418128Y-53838523D01*
X123714496Y-53705081D01*
X123886590Y-53362224D01*
X123988490Y-52992380D01*
X124008981Y-52710236D01*
X124103721Y-52710236D01*
X124151111Y-53090921D01*
X124271858Y-53455048D01*
X124405504Y-53705081D01*
X124701872Y-53838523D01*
X125880395Y-52660000D01*
X126239605Y-52660000D01*
X127418128Y-53838523D01*
X127714496Y-53705081D01*
X127886590Y-53362224D01*
X127988490Y-52992380D01*
X128008981Y-52710236D01*
X128103721Y-52710236D01*
X128151111Y-53090921D01*
X128271858Y-53455048D01*
X128405504Y-53705081D01*
X128701872Y-53838523D01*
X129880395Y-52660000D01*
X130239605Y-52660000D01*
X131418128Y-53838523D01*
X131714496Y-53705081D01*
X131886590Y-53362224D01*
X131988490Y-52992380D01*
X132016279Y-52609764D01*
X131968889Y-52229079D01*
X131848142Y-51864952D01*
X131714496Y-51614919D01*
X131418128Y-51481477D01*
X130239605Y-52660000D01*
X129880395Y-52660000D01*
X128701872Y-51481477D01*
X128405504Y-51614919D01*
X128233410Y-51957776D01*
X128131510Y-52327620D01*
X128103721Y-52710236D01*
X128008981Y-52710236D01*
X128016279Y-52609764D01*
X127968889Y-52229079D01*
X127848142Y-51864952D01*
X127714496Y-51614919D01*
X127418128Y-51481477D01*
X126239605Y-52660000D01*
X125880395Y-52660000D01*
X124701872Y-51481477D01*
X124405504Y-51614919D01*
X124233410Y-51957776D01*
X124131510Y-52327620D01*
X124103721Y-52710236D01*
X124008981Y-52710236D01*
X124016279Y-52609764D01*
X123968889Y-52229079D01*
X123848142Y-51864952D01*
X123714496Y-51614919D01*
X123418128Y-51481477D01*
X122239605Y-52660000D01*
X121880395Y-52660000D01*
X120701872Y-51481477D01*
X120405504Y-51614919D01*
X120233410Y-51957776D01*
X120131510Y-52327620D01*
X120103721Y-52710236D01*
X102260000Y-52710236D01*
X102260000Y-51002937D01*
X116210101Y-51005843D01*
G37*
%TD.AperFunction*%
%TD*%
M02*
