%TF.GenerationSoftware,KiCad,Pcbnew,5.1.7-a382d34a8~88~ubuntu18.04.1*%
%TF.CreationDate,2021-02-25T09:45:04-05:00*%
%TF.ProjectId,PedalBaord,50656461-6c42-4616-9f72-642e6b696361,rev?*%
%TF.SameCoordinates,Original*%
%TF.FileFunction,Legend,Bot*%
%TF.FilePolarity,Positive*%
%FSLAX46Y46*%
G04 Gerber Fmt 4.6, Leading zero omitted, Abs format (unit mm)*
G04 Created by KiCad (PCBNEW 5.1.7-a382d34a8~88~ubuntu18.04.1) date 2021-02-25 09:45:04*
%MOMM*%
%LPD*%
G01*
G04 APERTURE LIST*
%ADD10C,0.150000*%
%ADD11C,0.010000*%
%ADD12C,0.120000*%
G04 APERTURE END LIST*
D10*
X104085380Y-52015047D02*
X103085380Y-52015047D01*
X103085380Y-52396000D01*
X103133000Y-52491238D01*
X103180619Y-52538857D01*
X103275857Y-52586476D01*
X103418714Y-52586476D01*
X103513952Y-52538857D01*
X103561571Y-52491238D01*
X103609190Y-52396000D01*
X103609190Y-52015047D01*
X103561571Y-53015047D02*
X103561571Y-53348380D01*
X104085380Y-53491238D02*
X104085380Y-53015047D01*
X103085380Y-53015047D01*
X103085380Y-53491238D01*
X104085380Y-53919809D02*
X103085380Y-53919809D01*
X103085380Y-54157904D01*
X103133000Y-54300761D01*
X103228238Y-54396000D01*
X103323476Y-54443619D01*
X103513952Y-54491238D01*
X103656809Y-54491238D01*
X103847285Y-54443619D01*
X103942523Y-54396000D01*
X104037761Y-54300761D01*
X104085380Y-54157904D01*
X104085380Y-53919809D01*
X103799666Y-54872190D02*
X103799666Y-55348380D01*
X104085380Y-54776952D02*
X103085380Y-55110285D01*
X104085380Y-55443619D01*
X104085380Y-56253142D02*
X104085380Y-55776952D01*
X103085380Y-55776952D01*
X103561571Y-57681714D02*
X103609190Y-57824571D01*
X103656809Y-57872190D01*
X103752047Y-57919809D01*
X103894904Y-57919809D01*
X103990142Y-57872190D01*
X104037761Y-57824571D01*
X104085380Y-57729333D01*
X104085380Y-57348380D01*
X103085380Y-57348380D01*
X103085380Y-57681714D01*
X103133000Y-57776952D01*
X103180619Y-57824571D01*
X103275857Y-57872190D01*
X103371095Y-57872190D01*
X103466333Y-57824571D01*
X103513952Y-57776952D01*
X103561571Y-57681714D01*
X103561571Y-57348380D01*
X103085380Y-58538857D02*
X103085380Y-58729333D01*
X103133000Y-58824571D01*
X103228238Y-58919809D01*
X103418714Y-58967428D01*
X103752047Y-58967428D01*
X103942523Y-58919809D01*
X104037761Y-58824571D01*
X104085380Y-58729333D01*
X104085380Y-58538857D01*
X104037761Y-58443619D01*
X103942523Y-58348380D01*
X103752047Y-58300761D01*
X103418714Y-58300761D01*
X103228238Y-58348380D01*
X103133000Y-58443619D01*
X103085380Y-58538857D01*
X103799666Y-59348380D02*
X103799666Y-59824571D01*
X104085380Y-59253142D02*
X103085380Y-59586476D01*
X104085380Y-59919809D01*
X104085380Y-60824571D02*
X103609190Y-60491238D01*
X104085380Y-60253142D02*
X103085380Y-60253142D01*
X103085380Y-60634095D01*
X103133000Y-60729333D01*
X103180619Y-60776952D01*
X103275857Y-60824571D01*
X103418714Y-60824571D01*
X103513952Y-60776952D01*
X103561571Y-60729333D01*
X103609190Y-60634095D01*
X103609190Y-60253142D01*
X104085380Y-61253142D02*
X103085380Y-61253142D01*
X103085380Y-61491238D01*
X103133000Y-61634095D01*
X103228238Y-61729333D01*
X103323476Y-61776952D01*
X103513952Y-61824571D01*
X103656809Y-61824571D01*
X103847285Y-61776952D01*
X103942523Y-61729333D01*
X104037761Y-61634095D01*
X104085380Y-61491238D01*
X104085380Y-61253142D01*
X104783000Y-53300761D02*
X104735380Y-53205523D01*
X104735380Y-53062666D01*
X104783000Y-52919809D01*
X104878238Y-52824571D01*
X104973476Y-52776952D01*
X105163952Y-52729333D01*
X105306809Y-52729333D01*
X105497285Y-52776952D01*
X105592523Y-52824571D01*
X105687761Y-52919809D01*
X105735380Y-53062666D01*
X105735380Y-53157904D01*
X105687761Y-53300761D01*
X105640142Y-53348380D01*
X105306809Y-53348380D01*
X105306809Y-53157904D01*
X105640142Y-53776952D02*
X105687761Y-53824571D01*
X105735380Y-53776952D01*
X105687761Y-53729333D01*
X105640142Y-53776952D01*
X105735380Y-53776952D01*
X105687761Y-54205523D02*
X105735380Y-54348380D01*
X105735380Y-54586476D01*
X105687761Y-54681714D01*
X105640142Y-54729333D01*
X105544904Y-54776952D01*
X105449666Y-54776952D01*
X105354428Y-54729333D01*
X105306809Y-54681714D01*
X105259190Y-54586476D01*
X105211571Y-54396000D01*
X105163952Y-54300761D01*
X105116333Y-54253142D01*
X105021095Y-54205523D01*
X104925857Y-54205523D01*
X104830619Y-54253142D01*
X104783000Y-54300761D01*
X104735380Y-54396000D01*
X104735380Y-54634095D01*
X104783000Y-54776952D01*
X105735380Y-55205523D02*
X104735380Y-55205523D01*
X104735380Y-55586476D01*
X104783000Y-55681714D01*
X104830619Y-55729333D01*
X104925857Y-55776952D01*
X105068714Y-55776952D01*
X105163952Y-55729333D01*
X105211571Y-55681714D01*
X105259190Y-55586476D01*
X105259190Y-55205523D01*
X105211571Y-56205523D02*
X105211571Y-56538857D01*
X105735380Y-56681714D02*
X105735380Y-56205523D01*
X104735380Y-56205523D01*
X104735380Y-56681714D01*
X105449666Y-57062666D02*
X105449666Y-57538857D01*
X105735380Y-56967428D02*
X104735380Y-57300761D01*
X105735380Y-57634095D01*
X105735380Y-58538857D02*
X105259190Y-58205523D01*
X105735380Y-57967428D02*
X104735380Y-57967428D01*
X104735380Y-58348380D01*
X104783000Y-58443619D01*
X104830619Y-58491238D01*
X104925857Y-58538857D01*
X105068714Y-58538857D01*
X105163952Y-58491238D01*
X105211571Y-58443619D01*
X105259190Y-58348380D01*
X105259190Y-57967428D01*
X105735380Y-58967428D02*
X104735380Y-58967428D01*
X105735380Y-59443619D02*
X104735380Y-59443619D01*
X105735380Y-60015047D01*
X104735380Y-60015047D01*
X104783000Y-61015047D02*
X104735380Y-60919809D01*
X104735380Y-60776952D01*
X104783000Y-60634095D01*
X104878238Y-60538857D01*
X104973476Y-60491238D01*
X105163952Y-60443619D01*
X105306809Y-60443619D01*
X105497285Y-60491238D01*
X105592523Y-60538857D01*
X105687761Y-60634095D01*
X105735380Y-60776952D01*
X105735380Y-60872190D01*
X105687761Y-61015047D01*
X105640142Y-61062666D01*
X105306809Y-61062666D01*
X105306809Y-60872190D01*
X106480619Y-54467428D02*
X106433000Y-54515047D01*
X106385380Y-54610285D01*
X106385380Y-54848380D01*
X106433000Y-54943619D01*
X106480619Y-54991238D01*
X106575857Y-55038857D01*
X106671095Y-55038857D01*
X106813952Y-54991238D01*
X107385380Y-54419809D01*
X107385380Y-55038857D01*
X107385380Y-55991238D02*
X107385380Y-55419809D01*
X107385380Y-55705523D02*
X106385380Y-55705523D01*
X106528238Y-55610285D01*
X106623476Y-55515047D01*
X106671095Y-55419809D01*
X107290142Y-56419809D02*
X107337761Y-56467428D01*
X107385380Y-56419809D01*
X107337761Y-56372190D01*
X107290142Y-56419809D01*
X107385380Y-56419809D01*
X106385380Y-57086476D02*
X106385380Y-57181714D01*
X106433000Y-57276952D01*
X106480619Y-57324571D01*
X106575857Y-57372190D01*
X106766333Y-57419809D01*
X107004428Y-57419809D01*
X107194904Y-57372190D01*
X107290142Y-57324571D01*
X107337761Y-57276952D01*
X107385380Y-57181714D01*
X107385380Y-57086476D01*
X107337761Y-56991238D01*
X107290142Y-56943619D01*
X107194904Y-56896000D01*
X107004428Y-56848380D01*
X106766333Y-56848380D01*
X106575857Y-56896000D01*
X106480619Y-56943619D01*
X106433000Y-56991238D01*
X106385380Y-57086476D01*
X107385380Y-58372190D02*
X107385380Y-57800761D01*
X107385380Y-58086476D02*
X106385380Y-58086476D01*
X106528238Y-57991238D01*
X106623476Y-57896000D01*
X106671095Y-57800761D01*
X106480619Y-58753142D02*
X106433000Y-58800761D01*
X106385380Y-58896000D01*
X106385380Y-59134095D01*
X106433000Y-59229333D01*
X106480619Y-59276952D01*
X106575857Y-59324571D01*
X106671095Y-59324571D01*
X106813952Y-59276952D01*
X107385380Y-58705523D01*
X107385380Y-59324571D01*
D11*
%TO.C,G\u002A\u002A\u002A*%
G36*
X157754976Y-61359646D02*
G01*
X158173936Y-61779092D01*
X160272130Y-61779092D01*
X161145556Y-60904758D01*
X160754968Y-60514677D01*
X160364381Y-60124597D01*
X160176240Y-60124597D01*
X160176240Y-60707166D01*
X160253422Y-60781973D01*
X160330604Y-60856781D01*
X160173597Y-61015001D01*
X160016589Y-61173221D01*
X158453181Y-61173221D01*
X158221027Y-60940193D01*
X157988874Y-60707166D01*
X160176240Y-60707166D01*
X160176240Y-60124597D01*
X158150620Y-60124597D01*
X157743318Y-60532398D01*
X157336015Y-60940200D01*
X157754976Y-61359646D01*
G37*
X157754976Y-61359646D02*
X158173936Y-61779092D01*
X160272130Y-61779092D01*
X161145556Y-60904758D01*
X160754968Y-60514677D01*
X160364381Y-60124597D01*
X160176240Y-60124597D01*
X160176240Y-60707166D01*
X160253422Y-60781973D01*
X160330604Y-60856781D01*
X160173597Y-61015001D01*
X160016589Y-61173221D01*
X158453181Y-61173221D01*
X158221027Y-60940193D01*
X157988874Y-60707166D01*
X160176240Y-60707166D01*
X160176240Y-60124597D01*
X158150620Y-60124597D01*
X157743318Y-60532398D01*
X157336015Y-60940200D01*
X157754976Y-61359646D01*
G36*
X158011886Y-59821661D02*
G01*
X158616252Y-59821661D01*
X159024998Y-59414809D01*
X159240974Y-59629886D01*
X159456949Y-59844964D01*
X160363415Y-59844964D01*
X160486826Y-59966841D01*
X160610236Y-60088719D01*
X160878008Y-59820947D01*
X161145779Y-59553175D01*
X160621211Y-59030465D01*
X160364881Y-59260377D01*
X160061547Y-59261386D01*
X159758214Y-59262395D01*
X159502679Y-59006065D01*
X159247143Y-58749734D01*
X160389935Y-58749734D01*
X160504951Y-58866505D01*
X160619966Y-58983276D01*
X160882744Y-58721243D01*
X160971933Y-58631409D01*
X161048151Y-58552925D01*
X161105811Y-58491682D01*
X161139323Y-58453576D01*
X161145523Y-58444144D01*
X161129520Y-58423733D01*
X161085324Y-58377141D01*
X161018657Y-58310156D01*
X160935241Y-58228566D01*
X160878528Y-58174051D01*
X160611533Y-57919023D01*
X160489003Y-58043094D01*
X160366473Y-58167166D01*
X158943184Y-58167166D01*
X158943184Y-58703129D01*
X158646188Y-59000125D01*
X158349193Y-59297121D01*
X157755201Y-58703129D01*
X158943184Y-58703129D01*
X158943184Y-58167166D01*
X158082562Y-58167166D01*
X157947749Y-58033759D01*
X157812935Y-57900352D01*
X157580055Y-58132358D01*
X157347174Y-58364365D01*
X157347174Y-59158135D01*
X158011886Y-59821661D01*
G37*
X158011886Y-59821661D02*
X158616252Y-59821661D01*
X159024998Y-59414809D01*
X159240974Y-59629886D01*
X159456949Y-59844964D01*
X160363415Y-59844964D01*
X160486826Y-59966841D01*
X160610236Y-60088719D01*
X160878008Y-59820947D01*
X161145779Y-59553175D01*
X160621211Y-59030465D01*
X160364881Y-59260377D01*
X160061547Y-59261386D01*
X159758214Y-59262395D01*
X159502679Y-59006065D01*
X159247143Y-58749734D01*
X160389935Y-58749734D01*
X160504951Y-58866505D01*
X160619966Y-58983276D01*
X160882744Y-58721243D01*
X160971933Y-58631409D01*
X161048151Y-58552925D01*
X161105811Y-58491682D01*
X161139323Y-58453576D01*
X161145523Y-58444144D01*
X161129520Y-58423733D01*
X161085324Y-58377141D01*
X161018657Y-58310156D01*
X160935241Y-58228566D01*
X160878528Y-58174051D01*
X160611533Y-57919023D01*
X160489003Y-58043094D01*
X160366473Y-58167166D01*
X158943184Y-58167166D01*
X158943184Y-58703129D01*
X158646188Y-59000125D01*
X158349193Y-59297121D01*
X157755201Y-58703129D01*
X158943184Y-58703129D01*
X158943184Y-58167166D01*
X158082562Y-58167166D01*
X157947749Y-58033759D01*
X157812935Y-57900352D01*
X157580055Y-58132358D01*
X157347174Y-58364365D01*
X157347174Y-59158135D01*
X158011886Y-59821661D01*
G36*
X157783140Y-55352392D02*
G01*
X158209151Y-55777937D01*
X158430719Y-55557290D01*
X158652287Y-55336644D01*
X158011927Y-54695056D01*
X158980316Y-54695056D01*
X158966716Y-55579992D01*
X159252174Y-55295167D01*
X159537633Y-55010342D01*
X159537633Y-54695056D01*
X160211041Y-54695056D01*
X160274396Y-54778118D01*
X160337750Y-54861180D01*
X159864112Y-55336436D01*
X160284556Y-55756880D01*
X160715039Y-55324224D01*
X160830280Y-55207994D01*
X160933877Y-55102725D01*
X161021512Y-55012870D01*
X161088866Y-54942880D01*
X161131621Y-54897208D01*
X161145523Y-54880432D01*
X161129751Y-54861509D01*
X161085522Y-54814519D01*
X161017462Y-54744219D01*
X160930199Y-54655367D01*
X160828361Y-54552720D01*
X160766596Y-54490892D01*
X160387669Y-54112487D01*
X158176062Y-54112487D01*
X157766596Y-54519667D01*
X157357129Y-54926848D01*
X157783140Y-55352392D01*
G37*
X157783140Y-55352392D02*
X158209151Y-55777937D01*
X158430719Y-55557290D01*
X158652287Y-55336644D01*
X158011927Y-54695056D01*
X158980316Y-54695056D01*
X158966716Y-55579992D01*
X159252174Y-55295167D01*
X159537633Y-55010342D01*
X159537633Y-54695056D01*
X160211041Y-54695056D01*
X160274396Y-54778118D01*
X160337750Y-54861180D01*
X159864112Y-55336436D01*
X160284556Y-55756880D01*
X160715039Y-55324224D01*
X160830280Y-55207994D01*
X160933877Y-55102725D01*
X161021512Y-55012870D01*
X161088866Y-54942880D01*
X161131621Y-54897208D01*
X161145523Y-54880432D01*
X161129751Y-54861509D01*
X161085522Y-54814519D01*
X161017462Y-54744219D01*
X160930199Y-54655367D01*
X160828361Y-54552720D01*
X160766596Y-54490892D01*
X160387669Y-54112487D01*
X158176062Y-54112487D01*
X157766596Y-54519667D01*
X157357129Y-54926848D01*
X157783140Y-55352392D01*
G36*
X157749377Y-53291302D02*
G01*
X158151605Y-53693037D01*
X160363415Y-53693037D01*
X160486826Y-53814915D01*
X160610236Y-53936792D01*
X160878008Y-53669020D01*
X161145779Y-53401248D01*
X160609979Y-52866968D01*
X160363415Y-53110468D01*
X159887174Y-53110468D01*
X159887174Y-52597808D01*
X160363415Y-52597808D01*
X160486826Y-52719685D01*
X160610236Y-52841563D01*
X160878008Y-52573791D01*
X161145779Y-52306019D01*
X160609979Y-51771739D01*
X160363415Y-52015239D01*
X159281303Y-52015239D01*
X159281303Y-52597808D01*
X159281303Y-53110468D01*
X158522668Y-53110468D01*
X158255334Y-52855319D01*
X157988000Y-52600169D01*
X158634651Y-52598989D01*
X159281303Y-52597808D01*
X159281303Y-52015239D01*
X158220567Y-52015239D01*
X157783858Y-52452403D01*
X157347149Y-52889566D01*
X157749377Y-53291302D01*
G37*
X157749377Y-53291302D02*
X158151605Y-53693037D01*
X160363415Y-53693037D01*
X160486826Y-53814915D01*
X160610236Y-53936792D01*
X160878008Y-53669020D01*
X161145779Y-53401248D01*
X160609979Y-52866968D01*
X160363415Y-53110468D01*
X159887174Y-53110468D01*
X159887174Y-52597808D01*
X160363415Y-52597808D01*
X160486826Y-52719685D01*
X160610236Y-52841563D01*
X160878008Y-52573791D01*
X161145779Y-52306019D01*
X160609979Y-51771739D01*
X160363415Y-52015239D01*
X159281303Y-52015239D01*
X159281303Y-52597808D01*
X159281303Y-53110468D01*
X158522668Y-53110468D01*
X158255334Y-52855319D01*
X157988000Y-52600169D01*
X158634651Y-52598989D01*
X159281303Y-52597808D01*
X159281303Y-52015239D01*
X158220567Y-52015239D01*
X157783858Y-52452403D01*
X157347149Y-52889566D01*
X157749377Y-53291302D01*
G36*
X157883138Y-57363221D02*
G01*
X158535615Y-57123968D01*
X158535615Y-57486059D01*
X158535894Y-57622644D01*
X158537236Y-57718683D01*
X158540399Y-57780233D01*
X158546143Y-57813352D01*
X158555225Y-57824098D01*
X158568403Y-57818529D01*
X158576394Y-57811850D01*
X158600919Y-57793199D01*
X158659574Y-57750096D01*
X158748611Y-57685240D01*
X158864280Y-57601330D01*
X159002830Y-57501061D01*
X159160511Y-57387134D01*
X159333575Y-57262246D01*
X159518270Y-57129094D01*
X159710846Y-56990378D01*
X159907555Y-56848794D01*
X160104645Y-56707041D01*
X160298368Y-56567817D01*
X160484972Y-56433820D01*
X160660708Y-56307748D01*
X160821827Y-56192299D01*
X160964578Y-56090170D01*
X161085211Y-56004061D01*
X161179976Y-55936669D01*
X161245123Y-55890691D01*
X161276903Y-55868827D01*
X161277655Y-55868348D01*
X161265273Y-55870188D01*
X161213011Y-55886017D01*
X161124990Y-55914459D01*
X161005330Y-55954138D01*
X160858151Y-56003676D01*
X160687575Y-56061698D01*
X160497720Y-56126827D01*
X160318454Y-56188761D01*
X160112915Y-56259951D01*
X159921314Y-56326228D01*
X159748054Y-56386075D01*
X159597540Y-56437976D01*
X159474175Y-56480411D01*
X159382363Y-56511865D01*
X159326509Y-56530820D01*
X159310610Y-56535973D01*
X159308511Y-56514019D01*
X159306732Y-56453553D01*
X159305414Y-56362667D01*
X159304696Y-56249455D01*
X159304605Y-56189675D01*
X159304605Y-55843378D01*
X158716211Y-56103646D01*
X158530004Y-56185932D01*
X158328723Y-56274743D01*
X158125005Y-56364512D01*
X157931484Y-56449673D01*
X157760798Y-56524661D01*
X157679238Y-56560424D01*
X157230661Y-56756934D01*
X157230661Y-57602473D01*
X157883138Y-57363221D01*
G37*
X157883138Y-57363221D02*
X158535615Y-57123968D01*
X158535615Y-57486059D01*
X158535894Y-57622644D01*
X158537236Y-57718683D01*
X158540399Y-57780233D01*
X158546143Y-57813352D01*
X158555225Y-57824098D01*
X158568403Y-57818529D01*
X158576394Y-57811850D01*
X158600919Y-57793199D01*
X158659574Y-57750096D01*
X158748611Y-57685240D01*
X158864280Y-57601330D01*
X159002830Y-57501061D01*
X159160511Y-57387134D01*
X159333575Y-57262246D01*
X159518270Y-57129094D01*
X159710846Y-56990378D01*
X159907555Y-56848794D01*
X160104645Y-56707041D01*
X160298368Y-56567817D01*
X160484972Y-56433820D01*
X160660708Y-56307748D01*
X160821827Y-56192299D01*
X160964578Y-56090170D01*
X161085211Y-56004061D01*
X161179976Y-55936669D01*
X161245123Y-55890691D01*
X161276903Y-55868827D01*
X161277655Y-55868348D01*
X161265273Y-55870188D01*
X161213011Y-55886017D01*
X161124990Y-55914459D01*
X161005330Y-55954138D01*
X160858151Y-56003676D01*
X160687575Y-56061698D01*
X160497720Y-56126827D01*
X160318454Y-56188761D01*
X160112915Y-56259951D01*
X159921314Y-56326228D01*
X159748054Y-56386075D01*
X159597540Y-56437976D01*
X159474175Y-56480411D01*
X159382363Y-56511865D01*
X159326509Y-56530820D01*
X159310610Y-56535973D01*
X159308511Y-56514019D01*
X159306732Y-56453553D01*
X159305414Y-56362667D01*
X159304696Y-56249455D01*
X159304605Y-56189675D01*
X159304605Y-55843378D01*
X158716211Y-56103646D01*
X158530004Y-56185932D01*
X158328723Y-56274743D01*
X158125005Y-56364512D01*
X157931484Y-56449673D01*
X157760798Y-56524661D01*
X157679238Y-56560424D01*
X157230661Y-56756934D01*
X157230661Y-57602473D01*
X157883138Y-57363221D01*
D12*
%TO.C,Y1*%
X138360000Y-70590000D02*
X136360000Y-70590000D01*
X136360000Y-74190000D02*
X138360000Y-74190000D01*
X135960000Y-73140000D02*
X135560000Y-73140000D01*
X138360000Y-74390000D02*
X136360000Y-74390000D01*
X136360000Y-70590000D02*
X135960000Y-70590000D01*
X136360000Y-74190000D02*
X135960000Y-74190000D01*
X136360000Y-74390000D02*
X135960000Y-74390000D01*
X138360000Y-74190000D02*
X138360000Y-74040000D01*
X135960000Y-74190000D02*
X135960000Y-74040000D01*
X135960000Y-73140000D02*
X135960000Y-73190000D01*
X135960000Y-70590000D02*
X135960000Y-70740000D01*
X138360000Y-70590000D02*
X138360000Y-70740000D01*
%TO.C,U4*%
X147320000Y-69830000D02*
X149270000Y-69830000D01*
X147320000Y-69830000D02*
X145370000Y-69830000D01*
X147320000Y-74950000D02*
X149270000Y-74950000D01*
X147320000Y-74950000D02*
X143870000Y-74950000D01*
%TO.C,R5*%
X144032500Y-66572224D02*
X144032500Y-66062776D01*
X142987500Y-66572224D02*
X142987500Y-66062776D01*
%TO.C,R4*%
X138317500Y-79352224D02*
X138317500Y-78842776D01*
X137272500Y-79352224D02*
X137272500Y-78842776D01*
%TO.C,F1*%
X156015000Y-69331252D02*
X156015000Y-66558748D01*
X152595000Y-69331252D02*
X152595000Y-66558748D01*
%TO.C,C6*%
X149371267Y-76960000D02*
X149078733Y-76960000D01*
X149371267Y-77980000D02*
X149078733Y-77980000D01*
%TO.C,C5*%
X140210000Y-79293767D02*
X140210000Y-79001233D01*
X139190000Y-79293767D02*
X139190000Y-79001233D01*
%TO.C,C2*%
X114810000Y-73578767D02*
X114810000Y-73286233D01*
X113790000Y-73578767D02*
X113790000Y-73286233D01*
%TO.C,Y1*%
D10*
X139586190Y-71913809D02*
X140062380Y-71913809D01*
X139062380Y-71580476D02*
X139586190Y-71913809D01*
X139062380Y-72247142D01*
X140062380Y-73104285D02*
X140062380Y-72532857D01*
X140062380Y-72818571D02*
X139062380Y-72818571D01*
X139205238Y-72723333D01*
X139300476Y-72628095D01*
X139348095Y-72532857D01*
%TO.C,U4*%
X148081904Y-75242380D02*
X148081904Y-76051904D01*
X148034285Y-76147142D01*
X147986666Y-76194761D01*
X147891428Y-76242380D01*
X147700952Y-76242380D01*
X147605714Y-76194761D01*
X147558095Y-76147142D01*
X147510476Y-76051904D01*
X147510476Y-75242380D01*
X146605714Y-75575714D02*
X146605714Y-76242380D01*
X146843809Y-75194761D02*
X147081904Y-75909047D01*
X146462857Y-75909047D01*
%TO.C,R5*%
X145392380Y-66150833D02*
X144916190Y-65817500D01*
X145392380Y-65579404D02*
X144392380Y-65579404D01*
X144392380Y-65960357D01*
X144440000Y-66055595D01*
X144487619Y-66103214D01*
X144582857Y-66150833D01*
X144725714Y-66150833D01*
X144820952Y-66103214D01*
X144868571Y-66055595D01*
X144916190Y-65960357D01*
X144916190Y-65579404D01*
X144392380Y-67055595D02*
X144392380Y-66579404D01*
X144868571Y-66531785D01*
X144820952Y-66579404D01*
X144773333Y-66674642D01*
X144773333Y-66912738D01*
X144820952Y-67007976D01*
X144868571Y-67055595D01*
X144963809Y-67103214D01*
X145201904Y-67103214D01*
X145297142Y-67055595D01*
X145344761Y-67007976D01*
X145392380Y-66912738D01*
X145392380Y-66674642D01*
X145344761Y-66579404D01*
X145297142Y-66531785D01*
%TO.C,R4*%
X138882380Y-76287333D02*
X138406190Y-75954000D01*
X138882380Y-75715904D02*
X137882380Y-75715904D01*
X137882380Y-76096857D01*
X137930000Y-76192095D01*
X137977619Y-76239714D01*
X138072857Y-76287333D01*
X138215714Y-76287333D01*
X138310952Y-76239714D01*
X138358571Y-76192095D01*
X138406190Y-76096857D01*
X138406190Y-75715904D01*
X138215714Y-77144476D02*
X138882380Y-77144476D01*
X137834761Y-76906380D02*
X138549047Y-76668285D01*
X138549047Y-77287333D01*
%TO.C,F1*%
X156883571Y-67611666D02*
X156883571Y-67278333D01*
X157407380Y-67278333D02*
X156407380Y-67278333D01*
X156407380Y-67754523D01*
X157407380Y-68659285D02*
X157407380Y-68087857D01*
X157407380Y-68373571D02*
X156407380Y-68373571D01*
X156550238Y-68278333D01*
X156645476Y-68183095D01*
X156693095Y-68087857D01*
%TO.C,C6*%
X149391666Y-76397142D02*
X149439285Y-76444761D01*
X149582142Y-76492380D01*
X149677380Y-76492380D01*
X149820238Y-76444761D01*
X149915476Y-76349523D01*
X149963095Y-76254285D01*
X150010714Y-76063809D01*
X150010714Y-75920952D01*
X149963095Y-75730476D01*
X149915476Y-75635238D01*
X149820238Y-75540000D01*
X149677380Y-75492380D01*
X149582142Y-75492380D01*
X149439285Y-75540000D01*
X149391666Y-75587619D01*
X148534523Y-75492380D02*
X148725000Y-75492380D01*
X148820238Y-75540000D01*
X148867857Y-75587619D01*
X148963095Y-75730476D01*
X149010714Y-75920952D01*
X149010714Y-76301904D01*
X148963095Y-76397142D01*
X148915476Y-76444761D01*
X148820238Y-76492380D01*
X148629761Y-76492380D01*
X148534523Y-76444761D01*
X148486904Y-76397142D01*
X148439285Y-76301904D01*
X148439285Y-76063809D01*
X148486904Y-75968571D01*
X148534523Y-75920952D01*
X148629761Y-75873333D01*
X148820238Y-75873333D01*
X148915476Y-75920952D01*
X148963095Y-75968571D01*
X149010714Y-76063809D01*
%TO.C,C5*%
X140692142Y-76414333D02*
X140739761Y-76366714D01*
X140787380Y-76223857D01*
X140787380Y-76128619D01*
X140739761Y-75985761D01*
X140644523Y-75890523D01*
X140549285Y-75842904D01*
X140358809Y-75795285D01*
X140215952Y-75795285D01*
X140025476Y-75842904D01*
X139930238Y-75890523D01*
X139835000Y-75985761D01*
X139787380Y-76128619D01*
X139787380Y-76223857D01*
X139835000Y-76366714D01*
X139882619Y-76414333D01*
X139787380Y-77319095D02*
X139787380Y-76842904D01*
X140263571Y-76795285D01*
X140215952Y-76842904D01*
X140168333Y-76938142D01*
X140168333Y-77176238D01*
X140215952Y-77271476D01*
X140263571Y-77319095D01*
X140358809Y-77366714D01*
X140596904Y-77366714D01*
X140692142Y-77319095D01*
X140739761Y-77271476D01*
X140787380Y-77176238D01*
X140787380Y-76938142D01*
X140739761Y-76842904D01*
X140692142Y-76795285D01*
%TO.C,C2*%
X113387142Y-72858333D02*
X113434761Y-72810714D01*
X113482380Y-72667857D01*
X113482380Y-72572619D01*
X113434761Y-72429761D01*
X113339523Y-72334523D01*
X113244285Y-72286904D01*
X113053809Y-72239285D01*
X112910952Y-72239285D01*
X112720476Y-72286904D01*
X112625238Y-72334523D01*
X112530000Y-72429761D01*
X112482380Y-72572619D01*
X112482380Y-72667857D01*
X112530000Y-72810714D01*
X112577619Y-72858333D01*
X112577619Y-73239285D02*
X112530000Y-73286904D01*
X112482380Y-73382142D01*
X112482380Y-73620238D01*
X112530000Y-73715476D01*
X112577619Y-73763095D01*
X112672857Y-73810714D01*
X112768095Y-73810714D01*
X112910952Y-73763095D01*
X113482380Y-73191666D01*
X113482380Y-73810714D01*
%TD*%
M02*
