G04 #@! TF.GenerationSoftware,KiCad,Pcbnew,5.1.7-a382d34a8~88~ubuntu18.04.1*
G04 #@! TF.CreationDate,2021-02-25T09:38:48-05:00*
G04 #@! TF.ProjectId,Dash_Left,44617368-5f4c-4656-9674-2e6b69636164,rev?*
G04 #@! TF.SameCoordinates,Original*
G04 #@! TF.FileFunction,Legend,Top*
G04 #@! TF.FilePolarity,Positive*
%FSLAX46Y46*%
G04 Gerber Fmt 4.6, Leading zero omitted, Abs format (unit mm)*
G04 Created by KiCad (PCBNEW 5.1.7-a382d34a8~88~ubuntu18.04.1) date 2021-02-25 09:38:48*
%MOMM*%
%LPD*%
G01*
G04 APERTURE LIST*
%ADD10C,0.120000*%
%ADD11C,0.150000*%
G04 APERTURE END LIST*
D10*
X139570847Y-110648020D02*
X139278313Y-110648020D01*
X139570847Y-111668020D02*
X139278313Y-111668020D01*
X123077500Y-96749776D02*
X123077500Y-97259224D01*
X122032500Y-96749776D02*
X122032500Y-97259224D01*
X124792000Y-96773276D02*
X124792000Y-97282724D01*
X123747000Y-96773276D02*
X123747000Y-97282724D01*
X126506500Y-96876776D02*
X126506500Y-97386224D01*
X125461500Y-96876776D02*
X125461500Y-97386224D01*
X135206000Y-96709776D02*
X135206000Y-97219224D01*
X134161000Y-96709776D02*
X134161000Y-97219224D01*
X136984000Y-96686276D02*
X136984000Y-97195724D01*
X135939000Y-96686276D02*
X135939000Y-97195724D01*
X138698500Y-96669776D02*
X138698500Y-97179224D01*
X137653500Y-96669776D02*
X137653500Y-97179224D01*
X147817100Y-96671676D02*
X147817100Y-97181124D01*
X146772100Y-96671676D02*
X146772100Y-97181124D01*
X149595100Y-96671676D02*
X149595100Y-97181124D01*
X148550100Y-96671676D02*
X148550100Y-97181124D01*
X151309600Y-96671676D02*
X151309600Y-97181124D01*
X150264600Y-96671676D02*
X150264600Y-97181124D01*
X164098500Y-96749776D02*
X164098500Y-97259224D01*
X163053500Y-96749776D02*
X163053500Y-97259224D01*
X166003500Y-96773276D02*
X166003500Y-97282724D01*
X164958500Y-96773276D02*
X164958500Y-97282724D01*
X167781500Y-96773276D02*
X167781500Y-97282724D01*
X166736500Y-96773276D02*
X166736500Y-97282724D01*
X169862500Y-101135500D02*
X166412500Y-101135500D01*
X169862500Y-101135500D02*
X171812500Y-101135500D01*
X169862500Y-106255500D02*
X167912500Y-106255500D01*
X169862500Y-106255500D02*
X171812500Y-106255500D01*
X160324000Y-113336000D02*
X162139000Y-113336000D01*
X160324000Y-113581000D02*
X160324000Y-113336000D01*
X156464000Y-113581000D02*
X160324000Y-113581000D01*
X152604000Y-113581000D02*
X152604000Y-113336000D01*
X156464000Y-113581000D02*
X152604000Y-113581000D01*
X160324000Y-101811000D02*
X160324000Y-102056000D01*
X156464000Y-101811000D02*
X160324000Y-101811000D01*
X152604000Y-101811000D02*
X152604000Y-102056000D01*
X156464000Y-101811000D02*
X152604000Y-101811000D01*
X143124000Y-109329000D02*
X146724000Y-109329000D01*
X143124000Y-109329000D02*
X140924000Y-109329000D01*
X143124000Y-101259000D02*
X145324000Y-101259000D01*
X143124000Y-101259000D02*
X140924000Y-101259000D01*
X115971500Y-75518500D02*
X115971500Y-50518500D01*
X186971500Y-75518500D02*
X115971500Y-75518500D01*
X186971500Y-50518500D02*
X186971500Y-75518500D01*
X115971500Y-50518500D02*
X186971500Y-50518500D01*
X119971500Y-54518500D02*
X183971500Y-54518500D01*
X184971500Y-55518500D02*
X184971500Y-69518500D01*
X183971500Y-70518500D02*
X119971500Y-70518500D01*
X118941500Y-69518500D02*
X118941500Y-55518500D01*
X154471500Y-87018500D02*
X151471500Y-87018500D01*
X109611500Y-86658500D02*
X109611500Y-47628500D01*
X193891500Y-86658500D02*
X109611500Y-86658500D01*
X193891500Y-47628500D02*
X193891500Y-86658500D01*
X109611500Y-42378500D02*
X193891500Y-42378500D01*
X109611500Y-47628500D02*
X111471500Y-47628500D01*
X109611500Y-45408500D02*
X109611500Y-42378500D01*
X111471500Y-45408500D02*
X109611500Y-45408500D01*
X193891500Y-47628500D02*
X192071500Y-47628500D01*
X193891500Y-42378500D02*
X193891500Y-45408500D01*
X193891500Y-45408500D02*
X192071500Y-45408500D01*
X119945760Y-54514800D02*
G75*
G03*
X118945000Y-55515560I0J-1000760D01*
G01*
X118937540Y-69526040D02*
G75*
G03*
X119935760Y-70524260I998220J0D01*
G01*
X183976140Y-70514260D02*
G75*
G03*
X184974360Y-69516040I0J998220D01*
G01*
X184966900Y-55495560D02*
G75*
G03*
X183966140Y-54494800I-1000760J0D01*
G01*
X111461500Y-45398500D02*
G75*
G03*
X111131500Y-47308500I790000J-1120000D01*
G01*
X111131500Y-45748500D02*
G75*
G03*
X111471500Y-47628500I1110000J-770000D01*
G01*
X192071500Y-47628500D02*
G75*
G03*
X192361500Y-45698500I-820000J1110000D01*
G01*
X192361500Y-47338500D02*
G75*
G03*
X192071500Y-45408500I-1110000J820000D01*
G01*
D11*
X125847000Y-104442000D02*
X124422000Y-104442000D01*
X133097000Y-104217000D02*
X132772000Y-104217000D01*
X133097000Y-111467000D02*
X132772000Y-111467000D01*
X125847000Y-111467000D02*
X126172000Y-111467000D01*
X125847000Y-104217000D02*
X126172000Y-104217000D01*
X125847000Y-111467000D02*
X125847000Y-111142000D01*
X133097000Y-111467000D02*
X133097000Y-111142000D01*
X133097000Y-104217000D02*
X133097000Y-104542000D01*
X125847000Y-104217000D02*
X125847000Y-104442000D01*
D10*
X176706000Y-102718776D02*
X176706000Y-103228224D01*
X177751000Y-102718776D02*
X177751000Y-103228224D01*
X149557000Y-112736724D02*
X149557000Y-112227276D01*
X148512000Y-112736724D02*
X148512000Y-112227276D01*
X142625356Y-111718620D02*
X143134804Y-111718620D01*
X142625356Y-110673620D02*
X143134804Y-110673620D01*
X120396724Y-107554500D02*
X119887276Y-107554500D01*
X120396724Y-108599500D02*
X119887276Y-108599500D01*
X125686500Y-90423500D02*
X125686500Y-89958500D01*
X125686500Y-93048500D02*
X125686500Y-92583500D01*
X120872021Y-90423071D02*
G75*
G02*
X125381184Y-90423500I2254479J-1080429D01*
G01*
X120872021Y-92583929D02*
G75*
G03*
X125381184Y-92583500I2254479J1080429D01*
G01*
X120338685Y-90422673D02*
G75*
G02*
X125686500Y-89958670I2787815J-1080827D01*
G01*
X120338685Y-92584327D02*
G75*
G03*
X125686500Y-93048330I2787815J1080827D01*
G01*
X138450000Y-90423500D02*
X138450000Y-89958500D01*
X138450000Y-93048500D02*
X138450000Y-92583500D01*
X133635521Y-90423071D02*
G75*
G02*
X138144684Y-90423500I2254479J-1080429D01*
G01*
X133635521Y-92583929D02*
G75*
G03*
X138144684Y-92583500I2254479J1080429D01*
G01*
X133102185Y-90422673D02*
G75*
G02*
X138450000Y-89958670I2787815J-1080827D01*
G01*
X133102185Y-92584327D02*
G75*
G03*
X138450000Y-93048330I2787815J1080827D01*
G01*
X151086500Y-90487000D02*
X151086500Y-90022000D01*
X151086500Y-93112000D02*
X151086500Y-92647000D01*
X146272021Y-90486571D02*
G75*
G02*
X150781184Y-90487000I2254479J-1080429D01*
G01*
X146272021Y-92647429D02*
G75*
G03*
X150781184Y-92647000I2254479J1080429D01*
G01*
X145738685Y-90486173D02*
G75*
G02*
X151086500Y-90022170I2787815J-1080827D01*
G01*
X145738685Y-92647827D02*
G75*
G03*
X151086500Y-93111830I2787815J1080827D01*
G01*
X167660000Y-90868000D02*
X167660000Y-90403000D01*
X167660000Y-93493000D02*
X167660000Y-93028000D01*
X162845521Y-90867571D02*
G75*
G02*
X167354684Y-90868000I2254479J-1080429D01*
G01*
X162845521Y-93028429D02*
G75*
G03*
X167354684Y-93028000I2254479J1080429D01*
G01*
X162312185Y-90867173D02*
G75*
G02*
X167660000Y-90403170I2787815J-1080827D01*
G01*
X162312185Y-93028827D02*
G75*
G03*
X167660000Y-93492830I2787815J1080827D01*
G01*
X164848000Y-104032267D02*
X164848000Y-103739733D01*
X163828000Y-104032267D02*
X163828000Y-103739733D01*
X136142000Y-108973233D02*
X136142000Y-109265767D01*
X137162000Y-108973233D02*
X137162000Y-109265767D01*
X123499340Y-107309967D02*
X123499340Y-107017433D01*
X122479340Y-107309967D02*
X122479340Y-107017433D01*
D11*
X139257913Y-112945162D02*
X139210294Y-112992781D01*
X139067437Y-113040400D01*
X138972199Y-113040400D01*
X138829341Y-112992781D01*
X138734103Y-112897543D01*
X138686484Y-112802305D01*
X138638865Y-112611829D01*
X138638865Y-112468972D01*
X138686484Y-112278496D01*
X138734103Y-112183258D01*
X138829341Y-112088020D01*
X138972199Y-112040400D01*
X139067437Y-112040400D01*
X139210294Y-112088020D01*
X139257913Y-112135639D01*
X140115056Y-112040400D02*
X139924580Y-112040400D01*
X139829341Y-112088020D01*
X139781722Y-112135639D01*
X139686484Y-112278496D01*
X139638865Y-112468972D01*
X139638865Y-112849924D01*
X139686484Y-112945162D01*
X139734103Y-112992781D01*
X139829341Y-113040400D01*
X140019818Y-113040400D01*
X140115056Y-112992781D01*
X140162675Y-112945162D01*
X140210294Y-112849924D01*
X140210294Y-112611829D01*
X140162675Y-112516591D01*
X140115056Y-112468972D01*
X140019818Y-112421353D01*
X139829341Y-112421353D01*
X139734103Y-112468972D01*
X139686484Y-112516591D01*
X139638865Y-112611829D01*
X119245142Y-97480380D02*
X118911809Y-97004190D01*
X118673714Y-97480380D02*
X118673714Y-96480380D01*
X119054666Y-96480380D01*
X119149904Y-96528000D01*
X119197523Y-96575619D01*
X119245142Y-96670857D01*
X119245142Y-96813714D01*
X119197523Y-96908952D01*
X119149904Y-96956571D01*
X119054666Y-97004190D01*
X118673714Y-97004190D01*
X120197523Y-97480380D02*
X119626095Y-97480380D01*
X119911809Y-97480380D02*
X119911809Y-96480380D01*
X119816571Y-96623238D01*
X119721333Y-96718476D01*
X119626095Y-96766095D01*
X120530857Y-96480380D02*
X121197523Y-96480380D01*
X120768952Y-97480380D01*
X123309142Y-100274380D02*
X122975809Y-99798190D01*
X122737714Y-100274380D02*
X122737714Y-99274380D01*
X123118666Y-99274380D01*
X123213904Y-99322000D01*
X123261523Y-99369619D01*
X123309142Y-99464857D01*
X123309142Y-99607714D01*
X123261523Y-99702952D01*
X123213904Y-99750571D01*
X123118666Y-99798190D01*
X122737714Y-99798190D01*
X124261523Y-100274380D02*
X123690095Y-100274380D01*
X123975809Y-100274380D02*
X123975809Y-99274380D01*
X123880571Y-99417238D01*
X123785333Y-99512476D01*
X123690095Y-99560095D01*
X125118666Y-99274380D02*
X124928190Y-99274380D01*
X124832952Y-99322000D01*
X124785333Y-99369619D01*
X124690095Y-99512476D01*
X124642476Y-99702952D01*
X124642476Y-100083904D01*
X124690095Y-100179142D01*
X124737714Y-100226761D01*
X124832952Y-100274380D01*
X125023428Y-100274380D01*
X125118666Y-100226761D01*
X125166285Y-100179142D01*
X125213904Y-100083904D01*
X125213904Y-99845809D01*
X125166285Y-99750571D01*
X125118666Y-99702952D01*
X125023428Y-99655333D01*
X124832952Y-99655333D01*
X124737714Y-99702952D01*
X124690095Y-99750571D01*
X124642476Y-99845809D01*
X127881142Y-97480380D02*
X127547809Y-97004190D01*
X127309714Y-97480380D02*
X127309714Y-96480380D01*
X127690666Y-96480380D01*
X127785904Y-96528000D01*
X127833523Y-96575619D01*
X127881142Y-96670857D01*
X127881142Y-96813714D01*
X127833523Y-96908952D01*
X127785904Y-96956571D01*
X127690666Y-97004190D01*
X127309714Y-97004190D01*
X128833523Y-97480380D02*
X128262095Y-97480380D01*
X128547809Y-97480380D02*
X128547809Y-96480380D01*
X128452571Y-96623238D01*
X128357333Y-96718476D01*
X128262095Y-96766095D01*
X129738285Y-96480380D02*
X129262095Y-96480380D01*
X129214476Y-96956571D01*
X129262095Y-96908952D01*
X129357333Y-96861333D01*
X129595428Y-96861333D01*
X129690666Y-96908952D01*
X129738285Y-96956571D01*
X129785904Y-97051809D01*
X129785904Y-97289904D01*
X129738285Y-97385142D01*
X129690666Y-97432761D01*
X129595428Y-97480380D01*
X129357333Y-97480380D01*
X129262095Y-97432761D01*
X129214476Y-97385142D01*
X132834142Y-99766380D02*
X132500809Y-99290190D01*
X132262714Y-99766380D02*
X132262714Y-98766380D01*
X132643666Y-98766380D01*
X132738904Y-98814000D01*
X132786523Y-98861619D01*
X132834142Y-98956857D01*
X132834142Y-99099714D01*
X132786523Y-99194952D01*
X132738904Y-99242571D01*
X132643666Y-99290190D01*
X132262714Y-99290190D01*
X133786523Y-99766380D02*
X133215095Y-99766380D01*
X133500809Y-99766380D02*
X133500809Y-98766380D01*
X133405571Y-98909238D01*
X133310333Y-99004476D01*
X133215095Y-99052095D01*
X134643666Y-99099714D02*
X134643666Y-99766380D01*
X134405571Y-98718761D02*
X134167476Y-99433047D01*
X134786523Y-99433047D01*
X136072642Y-99829880D02*
X135739309Y-99353690D01*
X135501214Y-99829880D02*
X135501214Y-98829880D01*
X135882166Y-98829880D01*
X135977404Y-98877500D01*
X136025023Y-98925119D01*
X136072642Y-99020357D01*
X136072642Y-99163214D01*
X136025023Y-99258452D01*
X135977404Y-99306071D01*
X135882166Y-99353690D01*
X135501214Y-99353690D01*
X137025023Y-99829880D02*
X136453595Y-99829880D01*
X136739309Y-99829880D02*
X136739309Y-98829880D01*
X136644071Y-98972738D01*
X136548833Y-99067976D01*
X136453595Y-99115595D01*
X137358357Y-98829880D02*
X137977404Y-98829880D01*
X137644071Y-99210833D01*
X137786928Y-99210833D01*
X137882166Y-99258452D01*
X137929785Y-99306071D01*
X137977404Y-99401309D01*
X137977404Y-99639404D01*
X137929785Y-99734642D01*
X137882166Y-99782261D01*
X137786928Y-99829880D01*
X137501214Y-99829880D01*
X137405976Y-99782261D01*
X137358357Y-99734642D01*
X139501642Y-99766380D02*
X139168309Y-99290190D01*
X138930214Y-99766380D02*
X138930214Y-98766380D01*
X139311166Y-98766380D01*
X139406404Y-98814000D01*
X139454023Y-98861619D01*
X139501642Y-98956857D01*
X139501642Y-99099714D01*
X139454023Y-99194952D01*
X139406404Y-99242571D01*
X139311166Y-99290190D01*
X138930214Y-99290190D01*
X140454023Y-99766380D02*
X139882595Y-99766380D01*
X140168309Y-99766380D02*
X140168309Y-98766380D01*
X140073071Y-98909238D01*
X139977833Y-99004476D01*
X139882595Y-99052095D01*
X140834976Y-98861619D02*
X140882595Y-98814000D01*
X140977833Y-98766380D01*
X141215928Y-98766380D01*
X141311166Y-98814000D01*
X141358785Y-98861619D01*
X141406404Y-98956857D01*
X141406404Y-99052095D01*
X141358785Y-99194952D01*
X140787357Y-99766380D01*
X141406404Y-99766380D01*
X145572242Y-99664780D02*
X145238909Y-99188590D01*
X145000814Y-99664780D02*
X145000814Y-98664780D01*
X145381766Y-98664780D01*
X145477004Y-98712400D01*
X145524623Y-98760019D01*
X145572242Y-98855257D01*
X145572242Y-98998114D01*
X145524623Y-99093352D01*
X145477004Y-99140971D01*
X145381766Y-99188590D01*
X145000814Y-99188590D01*
X146524623Y-99664780D02*
X145953195Y-99664780D01*
X146238909Y-99664780D02*
X146238909Y-98664780D01*
X146143671Y-98807638D01*
X146048433Y-98902876D01*
X145953195Y-98950495D01*
X147477004Y-99664780D02*
X146905576Y-99664780D01*
X147191290Y-99664780D02*
X147191290Y-98664780D01*
X147096052Y-98807638D01*
X147000814Y-98902876D01*
X146905576Y-98950495D01*
X149128242Y-99791780D02*
X148794909Y-99315590D01*
X148556814Y-99791780D02*
X148556814Y-98791780D01*
X148937766Y-98791780D01*
X149033004Y-98839400D01*
X149080623Y-98887019D01*
X149128242Y-98982257D01*
X149128242Y-99125114D01*
X149080623Y-99220352D01*
X149033004Y-99267971D01*
X148937766Y-99315590D01*
X148556814Y-99315590D01*
X150080623Y-99791780D02*
X149509195Y-99791780D01*
X149794909Y-99791780D02*
X149794909Y-98791780D01*
X149699671Y-98934638D01*
X149604433Y-99029876D01*
X149509195Y-99077495D01*
X150699671Y-98791780D02*
X150794909Y-98791780D01*
X150890147Y-98839400D01*
X150937766Y-98887019D01*
X150985385Y-98982257D01*
X151033004Y-99172733D01*
X151033004Y-99410828D01*
X150985385Y-99601304D01*
X150937766Y-99696542D01*
X150890147Y-99744161D01*
X150794909Y-99791780D01*
X150699671Y-99791780D01*
X150604433Y-99744161D01*
X150556814Y-99696542D01*
X150509195Y-99601304D01*
X150461576Y-99410828D01*
X150461576Y-99172733D01*
X150509195Y-98982257D01*
X150556814Y-98887019D01*
X150604433Y-98839400D01*
X150699671Y-98791780D01*
X152334933Y-99855280D02*
X152001600Y-99379090D01*
X151763504Y-99855280D02*
X151763504Y-98855280D01*
X152144457Y-98855280D01*
X152239695Y-98902900D01*
X152287314Y-98950519D01*
X152334933Y-99045757D01*
X152334933Y-99188614D01*
X152287314Y-99283852D01*
X152239695Y-99331471D01*
X152144457Y-99379090D01*
X151763504Y-99379090D01*
X152811123Y-99855280D02*
X153001600Y-99855280D01*
X153096838Y-99807661D01*
X153144457Y-99760042D01*
X153239695Y-99617185D01*
X153287314Y-99426709D01*
X153287314Y-99045757D01*
X153239695Y-98950519D01*
X153192076Y-98902900D01*
X153096838Y-98855280D01*
X152906361Y-98855280D01*
X152811123Y-98902900D01*
X152763504Y-98950519D01*
X152715885Y-99045757D01*
X152715885Y-99283852D01*
X152763504Y-99379090D01*
X152811123Y-99426709D01*
X152906361Y-99474328D01*
X153096838Y-99474328D01*
X153192076Y-99426709D01*
X153239695Y-99379090D01*
X153287314Y-99283852D01*
X162774333Y-99893380D02*
X162441000Y-99417190D01*
X162202904Y-99893380D02*
X162202904Y-98893380D01*
X162583857Y-98893380D01*
X162679095Y-98941000D01*
X162726714Y-98988619D01*
X162774333Y-99083857D01*
X162774333Y-99226714D01*
X162726714Y-99321952D01*
X162679095Y-99369571D01*
X162583857Y-99417190D01*
X162202904Y-99417190D01*
X163345761Y-99321952D02*
X163250523Y-99274333D01*
X163202904Y-99226714D01*
X163155285Y-99131476D01*
X163155285Y-99083857D01*
X163202904Y-98988619D01*
X163250523Y-98941000D01*
X163345761Y-98893380D01*
X163536238Y-98893380D01*
X163631476Y-98941000D01*
X163679095Y-98988619D01*
X163726714Y-99083857D01*
X163726714Y-99131476D01*
X163679095Y-99226714D01*
X163631476Y-99274333D01*
X163536238Y-99321952D01*
X163345761Y-99321952D01*
X163250523Y-99369571D01*
X163202904Y-99417190D01*
X163155285Y-99512428D01*
X163155285Y-99702904D01*
X163202904Y-99798142D01*
X163250523Y-99845761D01*
X163345761Y-99893380D01*
X163536238Y-99893380D01*
X163631476Y-99845761D01*
X163679095Y-99798142D01*
X163726714Y-99702904D01*
X163726714Y-99512428D01*
X163679095Y-99417190D01*
X163631476Y-99369571D01*
X163536238Y-99321952D01*
X165314333Y-100020380D02*
X164981000Y-99544190D01*
X164742904Y-100020380D02*
X164742904Y-99020380D01*
X165123857Y-99020380D01*
X165219095Y-99068000D01*
X165266714Y-99115619D01*
X165314333Y-99210857D01*
X165314333Y-99353714D01*
X165266714Y-99448952D01*
X165219095Y-99496571D01*
X165123857Y-99544190D01*
X164742904Y-99544190D01*
X165647666Y-99020380D02*
X166314333Y-99020380D01*
X165885761Y-100020380D01*
X167727333Y-100020380D02*
X167394000Y-99544190D01*
X167155904Y-100020380D02*
X167155904Y-99020380D01*
X167536857Y-99020380D01*
X167632095Y-99068000D01*
X167679714Y-99115619D01*
X167727333Y-99210857D01*
X167727333Y-99353714D01*
X167679714Y-99448952D01*
X167632095Y-99496571D01*
X167536857Y-99544190D01*
X167155904Y-99544190D01*
X168584476Y-99020380D02*
X168394000Y-99020380D01*
X168298761Y-99068000D01*
X168251142Y-99115619D01*
X168155904Y-99258476D01*
X168108285Y-99448952D01*
X168108285Y-99829904D01*
X168155904Y-99925142D01*
X168203523Y-99972761D01*
X168298761Y-100020380D01*
X168489238Y-100020380D01*
X168584476Y-99972761D01*
X168632095Y-99925142D01*
X168679714Y-99829904D01*
X168679714Y-99591809D01*
X168632095Y-99496571D01*
X168584476Y-99448952D01*
X168489238Y-99401333D01*
X168298761Y-99401333D01*
X168203523Y-99448952D01*
X168155904Y-99496571D01*
X168108285Y-99591809D01*
X173685295Y-99477580D02*
X173685295Y-100287104D01*
X173732914Y-100382342D01*
X173780533Y-100429961D01*
X173875771Y-100477580D01*
X174066247Y-100477580D01*
X174161485Y-100429961D01*
X174209104Y-100382342D01*
X174256723Y-100287104D01*
X174256723Y-99477580D01*
X175161485Y-99477580D02*
X174971009Y-99477580D01*
X174875771Y-99525200D01*
X174828152Y-99572819D01*
X174732914Y-99715676D01*
X174685295Y-99906152D01*
X174685295Y-100287104D01*
X174732914Y-100382342D01*
X174780533Y-100429961D01*
X174875771Y-100477580D01*
X175066247Y-100477580D01*
X175161485Y-100429961D01*
X175209104Y-100382342D01*
X175256723Y-100287104D01*
X175256723Y-100049009D01*
X175209104Y-99953771D01*
X175161485Y-99906152D01*
X175066247Y-99858533D01*
X174875771Y-99858533D01*
X174780533Y-99906152D01*
X174732914Y-99953771D01*
X174685295Y-100049009D01*
X150774495Y-114158780D02*
X150774495Y-114968304D01*
X150822114Y-115063542D01*
X150869733Y-115111161D01*
X150964971Y-115158780D01*
X151155447Y-115158780D01*
X151250685Y-115111161D01*
X151298304Y-115063542D01*
X151345923Y-114968304D01*
X151345923Y-114158780D01*
X152298304Y-114158780D02*
X151822114Y-114158780D01*
X151774495Y-114634971D01*
X151822114Y-114587352D01*
X151917352Y-114539733D01*
X152155447Y-114539733D01*
X152250685Y-114587352D01*
X152298304Y-114634971D01*
X152345923Y-114730209D01*
X152345923Y-114968304D01*
X152298304Y-115063542D01*
X152250685Y-115111161D01*
X152155447Y-115158780D01*
X151917352Y-115158780D01*
X151822114Y-115111161D01*
X151774495Y-115063542D01*
X144907095Y-109688380D02*
X144907095Y-110497904D01*
X144954714Y-110593142D01*
X145002333Y-110640761D01*
X145097571Y-110688380D01*
X145288047Y-110688380D01*
X145383285Y-110640761D01*
X145430904Y-110593142D01*
X145478523Y-110497904D01*
X145478523Y-109688380D01*
X146383285Y-110021714D02*
X146383285Y-110688380D01*
X146145190Y-109640761D02*
X145907095Y-110355047D01*
X146526142Y-110355047D01*
X190739595Y-87380880D02*
X190739595Y-88190404D01*
X190787214Y-88285642D01*
X190834833Y-88333261D01*
X190930071Y-88380880D01*
X191120547Y-88380880D01*
X191215785Y-88333261D01*
X191263404Y-88285642D01*
X191311023Y-88190404D01*
X191311023Y-87380880D01*
X191691976Y-87380880D02*
X192311023Y-87380880D01*
X191977690Y-87761833D01*
X192120547Y-87761833D01*
X192215785Y-87809452D01*
X192263404Y-87857071D01*
X192311023Y-87952309D01*
X192311023Y-88190404D01*
X192263404Y-88285642D01*
X192215785Y-88333261D01*
X192120547Y-88380880D01*
X191834833Y-88380880D01*
X191739595Y-88333261D01*
X191691976Y-88285642D01*
X128710095Y-101244380D02*
X128710095Y-102053904D01*
X128757714Y-102149142D01*
X128805333Y-102196761D01*
X128900571Y-102244380D01*
X129091047Y-102244380D01*
X129186285Y-102196761D01*
X129233904Y-102149142D01*
X129281523Y-102053904D01*
X129281523Y-101244380D01*
X130281523Y-102244380D02*
X129710095Y-102244380D01*
X129995809Y-102244380D02*
X129995809Y-101244380D01*
X129900571Y-101387238D01*
X129805333Y-101482476D01*
X129710095Y-101530095D01*
X179110880Y-103140166D02*
X178634690Y-103473500D01*
X179110880Y-103711595D02*
X178110880Y-103711595D01*
X178110880Y-103330642D01*
X178158500Y-103235404D01*
X178206119Y-103187785D01*
X178301357Y-103140166D01*
X178444214Y-103140166D01*
X178539452Y-103187785D01*
X178587071Y-103235404D01*
X178634690Y-103330642D01*
X178634690Y-103711595D01*
X178110880Y-102235404D02*
X178110880Y-102711595D01*
X178587071Y-102759214D01*
X178539452Y-102711595D01*
X178491833Y-102616357D01*
X178491833Y-102378261D01*
X178539452Y-102283023D01*
X178587071Y-102235404D01*
X178682309Y-102187785D01*
X178920404Y-102187785D01*
X179015642Y-102235404D01*
X179063261Y-102283023D01*
X179110880Y-102378261D01*
X179110880Y-102616357D01*
X179063261Y-102711595D01*
X179015642Y-102759214D01*
X149359880Y-109854666D02*
X148883690Y-110188000D01*
X149359880Y-110426095D02*
X148359880Y-110426095D01*
X148359880Y-110045142D01*
X148407500Y-109949904D01*
X148455119Y-109902285D01*
X148550357Y-109854666D01*
X148693214Y-109854666D01*
X148788452Y-109902285D01*
X148836071Y-109949904D01*
X148883690Y-110045142D01*
X148883690Y-110426095D01*
X148693214Y-108997523D02*
X149359880Y-108997523D01*
X148312261Y-109235619D02*
X149026547Y-109473714D01*
X149026547Y-108854666D01*
X142708333Y-113228380D02*
X142375000Y-112752190D01*
X142136904Y-113228380D02*
X142136904Y-112228380D01*
X142517857Y-112228380D01*
X142613095Y-112276000D01*
X142660714Y-112323619D01*
X142708333Y-112418857D01*
X142708333Y-112561714D01*
X142660714Y-112656952D01*
X142613095Y-112704571D01*
X142517857Y-112752190D01*
X142136904Y-112752190D01*
X143041666Y-112228380D02*
X143660714Y-112228380D01*
X143327380Y-112609333D01*
X143470238Y-112609333D01*
X143565476Y-112656952D01*
X143613095Y-112704571D01*
X143660714Y-112799809D01*
X143660714Y-113037904D01*
X143613095Y-113133142D01*
X143565476Y-113180761D01*
X143470238Y-113228380D01*
X143184523Y-113228380D01*
X143089285Y-113180761D01*
X143041666Y-113133142D01*
X116830173Y-108656380D02*
X116496840Y-108180190D01*
X116258744Y-108656380D02*
X116258744Y-107656380D01*
X116639697Y-107656380D01*
X116734935Y-107704000D01*
X116782554Y-107751619D01*
X116830173Y-107846857D01*
X116830173Y-107989714D01*
X116782554Y-108084952D01*
X116734935Y-108132571D01*
X116639697Y-108180190D01*
X116258744Y-108180190D01*
X117211125Y-107751619D02*
X117258744Y-107704000D01*
X117353982Y-107656380D01*
X117592078Y-107656380D01*
X117687316Y-107704000D01*
X117734935Y-107751619D01*
X117782554Y-107846857D01*
X117782554Y-107942095D01*
X117734935Y-108084952D01*
X117163506Y-108656380D01*
X117782554Y-108656380D01*
X112268095Y-88327380D02*
X112268095Y-87327380D01*
X112268095Y-87803571D02*
X112839523Y-87803571D01*
X112839523Y-88327380D02*
X112839523Y-87327380D01*
X113268095Y-87422619D02*
X113315714Y-87375000D01*
X113410952Y-87327380D01*
X113649047Y-87327380D01*
X113744285Y-87375000D01*
X113791904Y-87422619D01*
X113839523Y-87517857D01*
X113839523Y-87613095D01*
X113791904Y-87755952D01*
X113220476Y-88327380D01*
X113839523Y-88327380D01*
X181546595Y-87374880D02*
X181546595Y-86374880D01*
X181546595Y-86851071D02*
X182118023Y-86851071D01*
X182118023Y-87374880D02*
X182118023Y-86374880D01*
X183118023Y-87374880D02*
X182546595Y-87374880D01*
X182832309Y-87374880D02*
X182832309Y-86374880D01*
X182737071Y-86517738D01*
X182641833Y-86612976D01*
X182546595Y-86660595D01*
X122515404Y-88082380D02*
X122515404Y-87082380D01*
X122753500Y-87082380D01*
X122896357Y-87130000D01*
X122991595Y-87225238D01*
X123039214Y-87320476D01*
X123086833Y-87510952D01*
X123086833Y-87653809D01*
X123039214Y-87844285D01*
X122991595Y-87939523D01*
X122896357Y-88034761D01*
X122753500Y-88082380D01*
X122515404Y-88082380D01*
X123991595Y-87082380D02*
X123515404Y-87082380D01*
X123467785Y-87558571D01*
X123515404Y-87510952D01*
X123610642Y-87463333D01*
X123848738Y-87463333D01*
X123943976Y-87510952D01*
X123991595Y-87558571D01*
X124039214Y-87653809D01*
X124039214Y-87891904D01*
X123991595Y-87987142D01*
X123943976Y-88034761D01*
X123848738Y-88082380D01*
X123610642Y-88082380D01*
X123515404Y-88034761D01*
X123467785Y-87987142D01*
X135405904Y-88082380D02*
X135405904Y-87082380D01*
X135644000Y-87082380D01*
X135786857Y-87130000D01*
X135882095Y-87225238D01*
X135929714Y-87320476D01*
X135977333Y-87510952D01*
X135977333Y-87653809D01*
X135929714Y-87844285D01*
X135882095Y-87939523D01*
X135786857Y-88034761D01*
X135644000Y-88082380D01*
X135405904Y-88082380D01*
X136834476Y-87415714D02*
X136834476Y-88082380D01*
X136596380Y-87034761D02*
X136358285Y-87749047D01*
X136977333Y-87749047D01*
X146835904Y-88018880D02*
X146835904Y-87018880D01*
X147074000Y-87018880D01*
X147216857Y-87066500D01*
X147312095Y-87161738D01*
X147359714Y-87256976D01*
X147407333Y-87447452D01*
X147407333Y-87590309D01*
X147359714Y-87780785D01*
X147312095Y-87876023D01*
X147216857Y-87971261D01*
X147074000Y-88018880D01*
X146835904Y-88018880D01*
X147740666Y-87018880D02*
X148359714Y-87018880D01*
X148026380Y-87399833D01*
X148169238Y-87399833D01*
X148264476Y-87447452D01*
X148312095Y-87495071D01*
X148359714Y-87590309D01*
X148359714Y-87828404D01*
X148312095Y-87923642D01*
X148264476Y-87971261D01*
X148169238Y-88018880D01*
X147883523Y-88018880D01*
X147788285Y-87971261D01*
X147740666Y-87923642D01*
X164361904Y-88082380D02*
X164361904Y-87082380D01*
X164600000Y-87082380D01*
X164742857Y-87130000D01*
X164838095Y-87225238D01*
X164885714Y-87320476D01*
X164933333Y-87510952D01*
X164933333Y-87653809D01*
X164885714Y-87844285D01*
X164838095Y-87939523D01*
X164742857Y-88034761D01*
X164600000Y-88082380D01*
X164361904Y-88082380D01*
X165314285Y-87177619D02*
X165361904Y-87130000D01*
X165457142Y-87082380D01*
X165695238Y-87082380D01*
X165790476Y-87130000D01*
X165838095Y-87177619D01*
X165885714Y-87272857D01*
X165885714Y-87368095D01*
X165838095Y-87510952D01*
X165266666Y-88082380D01*
X165885714Y-88082380D01*
X163265142Y-104052666D02*
X163312761Y-104100285D01*
X163360380Y-104243142D01*
X163360380Y-104338380D01*
X163312761Y-104481238D01*
X163217523Y-104576476D01*
X163122285Y-104624095D01*
X162931809Y-104671714D01*
X162788952Y-104671714D01*
X162598476Y-104624095D01*
X162503238Y-104576476D01*
X162408000Y-104481238D01*
X162360380Y-104338380D01*
X162360380Y-104243142D01*
X162408000Y-104100285D01*
X162455619Y-104052666D01*
X162788952Y-103481238D02*
X162741333Y-103576476D01*
X162693714Y-103624095D01*
X162598476Y-103671714D01*
X162550857Y-103671714D01*
X162455619Y-103624095D01*
X162408000Y-103576476D01*
X162360380Y-103481238D01*
X162360380Y-103290761D01*
X162408000Y-103195523D01*
X162455619Y-103147904D01*
X162550857Y-103100285D01*
X162598476Y-103100285D01*
X162693714Y-103147904D01*
X162741333Y-103195523D01*
X162788952Y-103290761D01*
X162788952Y-103481238D01*
X162836571Y-103576476D01*
X162884190Y-103624095D01*
X162979428Y-103671714D01*
X163169904Y-103671714D01*
X163265142Y-103624095D01*
X163312761Y-103576476D01*
X163360380Y-103481238D01*
X163360380Y-103290761D01*
X163312761Y-103195523D01*
X163265142Y-103147904D01*
X163169904Y-103100285D01*
X162979428Y-103100285D01*
X162884190Y-103147904D01*
X162836571Y-103195523D01*
X162788952Y-103290761D01*
X137199642Y-112043166D02*
X137247261Y-112090785D01*
X137294880Y-112233642D01*
X137294880Y-112328880D01*
X137247261Y-112471738D01*
X137152023Y-112566976D01*
X137056785Y-112614595D01*
X136866309Y-112662214D01*
X136723452Y-112662214D01*
X136532976Y-112614595D01*
X136437738Y-112566976D01*
X136342500Y-112471738D01*
X136294880Y-112328880D01*
X136294880Y-112233642D01*
X136342500Y-112090785D01*
X136390119Y-112043166D01*
X136390119Y-111662214D02*
X136342500Y-111614595D01*
X136294880Y-111519357D01*
X136294880Y-111281261D01*
X136342500Y-111186023D01*
X136390119Y-111138404D01*
X136485357Y-111090785D01*
X136580595Y-111090785D01*
X136723452Y-111138404D01*
X137294880Y-111709833D01*
X137294880Y-111090785D01*
X123112802Y-104439846D02*
X123160421Y-104487465D01*
X123208040Y-104630322D01*
X123208040Y-104725560D01*
X123160421Y-104868418D01*
X123065183Y-104963656D01*
X122969945Y-105011275D01*
X122779469Y-105058894D01*
X122636612Y-105058894D01*
X122446136Y-105011275D01*
X122350898Y-104963656D01*
X122255660Y-104868418D01*
X122208040Y-104725560D01*
X122208040Y-104630322D01*
X122255660Y-104487465D01*
X122303279Y-104439846D01*
X123208040Y-103487465D02*
X123208040Y-104058894D01*
X123208040Y-103773180D02*
X122208040Y-103773180D01*
X122350898Y-103868418D01*
X122446136Y-103963656D01*
X122493755Y-104058894D01*
M02*
