G04 #@! TF.GenerationSoftware,KiCad,Pcbnew,5.1.7-a382d34a8~88~ubuntu18.04.1*
G04 #@! TF.CreationDate,2021-02-25T09:38:48-05:00*
G04 #@! TF.ProjectId,Dash_Left,44617368-5f4c-4656-9674-2e6b69636164,rev?*
G04 #@! TF.SameCoordinates,Original*
G04 #@! TF.FileFunction,Paste,Top*
G04 #@! TF.FilePolarity,Positive*
%FSLAX46Y46*%
G04 Gerber Fmt 4.6, Leading zero omitted, Abs format (unit mm)*
G04 Created by KiCad (PCBNEW 5.1.7-a382d34a8~88~ubuntu18.04.1) date 2021-02-25 09:38:48*
%MOMM*%
%LPD*%
G01*
G04 APERTURE LIST*
%ADD10R,0.550000X1.600000*%
%ADD11R,1.600000X0.550000*%
G04 APERTURE END LIST*
G36*
G01*
X139099580Y-110920520D02*
X139099580Y-111395520D01*
G75*
G02*
X138862080Y-111633020I-237500J0D01*
G01*
X138262080Y-111633020D01*
G75*
G02*
X138024580Y-111395520I0J237500D01*
G01*
X138024580Y-110920520D01*
G75*
G02*
X138262080Y-110683020I237500J0D01*
G01*
X138862080Y-110683020D01*
G75*
G02*
X139099580Y-110920520I0J-237500D01*
G01*
G37*
G36*
G01*
X140824580Y-110920520D02*
X140824580Y-111395520D01*
G75*
G02*
X140587080Y-111633020I-237500J0D01*
G01*
X139987080Y-111633020D01*
G75*
G02*
X139749580Y-111395520I0J237500D01*
G01*
X139749580Y-110920520D01*
G75*
G02*
X139987080Y-110683020I237500J0D01*
G01*
X140587080Y-110683020D01*
G75*
G02*
X140824580Y-110920520I0J-237500D01*
G01*
G37*
G36*
G01*
X122317500Y-97429500D02*
X122792500Y-97429500D01*
G75*
G02*
X123030000Y-97667000I0J-237500D01*
G01*
X123030000Y-98167000D01*
G75*
G02*
X122792500Y-98404500I-237500J0D01*
G01*
X122317500Y-98404500D01*
G75*
G02*
X122080000Y-98167000I0J237500D01*
G01*
X122080000Y-97667000D01*
G75*
G02*
X122317500Y-97429500I237500J0D01*
G01*
G37*
G36*
G01*
X122317500Y-95604500D02*
X122792500Y-95604500D01*
G75*
G02*
X123030000Y-95842000I0J-237500D01*
G01*
X123030000Y-96342000D01*
G75*
G02*
X122792500Y-96579500I-237500J0D01*
G01*
X122317500Y-96579500D01*
G75*
G02*
X122080000Y-96342000I0J237500D01*
G01*
X122080000Y-95842000D01*
G75*
G02*
X122317500Y-95604500I237500J0D01*
G01*
G37*
G36*
G01*
X124032000Y-97453000D02*
X124507000Y-97453000D01*
G75*
G02*
X124744500Y-97690500I0J-237500D01*
G01*
X124744500Y-98190500D01*
G75*
G02*
X124507000Y-98428000I-237500J0D01*
G01*
X124032000Y-98428000D01*
G75*
G02*
X123794500Y-98190500I0J237500D01*
G01*
X123794500Y-97690500D01*
G75*
G02*
X124032000Y-97453000I237500J0D01*
G01*
G37*
G36*
G01*
X124032000Y-95628000D02*
X124507000Y-95628000D01*
G75*
G02*
X124744500Y-95865500I0J-237500D01*
G01*
X124744500Y-96365500D01*
G75*
G02*
X124507000Y-96603000I-237500J0D01*
G01*
X124032000Y-96603000D01*
G75*
G02*
X123794500Y-96365500I0J237500D01*
G01*
X123794500Y-95865500D01*
G75*
G02*
X124032000Y-95628000I237500J0D01*
G01*
G37*
G36*
G01*
X125746500Y-97556500D02*
X126221500Y-97556500D01*
G75*
G02*
X126459000Y-97794000I0J-237500D01*
G01*
X126459000Y-98294000D01*
G75*
G02*
X126221500Y-98531500I-237500J0D01*
G01*
X125746500Y-98531500D01*
G75*
G02*
X125509000Y-98294000I0J237500D01*
G01*
X125509000Y-97794000D01*
G75*
G02*
X125746500Y-97556500I237500J0D01*
G01*
G37*
G36*
G01*
X125746500Y-95731500D02*
X126221500Y-95731500D01*
G75*
G02*
X126459000Y-95969000I0J-237500D01*
G01*
X126459000Y-96469000D01*
G75*
G02*
X126221500Y-96706500I-237500J0D01*
G01*
X125746500Y-96706500D01*
G75*
G02*
X125509000Y-96469000I0J237500D01*
G01*
X125509000Y-95969000D01*
G75*
G02*
X125746500Y-95731500I237500J0D01*
G01*
G37*
G36*
G01*
X134446000Y-97389500D02*
X134921000Y-97389500D01*
G75*
G02*
X135158500Y-97627000I0J-237500D01*
G01*
X135158500Y-98127000D01*
G75*
G02*
X134921000Y-98364500I-237500J0D01*
G01*
X134446000Y-98364500D01*
G75*
G02*
X134208500Y-98127000I0J237500D01*
G01*
X134208500Y-97627000D01*
G75*
G02*
X134446000Y-97389500I237500J0D01*
G01*
G37*
G36*
G01*
X134446000Y-95564500D02*
X134921000Y-95564500D01*
G75*
G02*
X135158500Y-95802000I0J-237500D01*
G01*
X135158500Y-96302000D01*
G75*
G02*
X134921000Y-96539500I-237500J0D01*
G01*
X134446000Y-96539500D01*
G75*
G02*
X134208500Y-96302000I0J237500D01*
G01*
X134208500Y-95802000D01*
G75*
G02*
X134446000Y-95564500I237500J0D01*
G01*
G37*
G36*
G01*
X136224000Y-97366000D02*
X136699000Y-97366000D01*
G75*
G02*
X136936500Y-97603500I0J-237500D01*
G01*
X136936500Y-98103500D01*
G75*
G02*
X136699000Y-98341000I-237500J0D01*
G01*
X136224000Y-98341000D01*
G75*
G02*
X135986500Y-98103500I0J237500D01*
G01*
X135986500Y-97603500D01*
G75*
G02*
X136224000Y-97366000I237500J0D01*
G01*
G37*
G36*
G01*
X136224000Y-95541000D02*
X136699000Y-95541000D01*
G75*
G02*
X136936500Y-95778500I0J-237500D01*
G01*
X136936500Y-96278500D01*
G75*
G02*
X136699000Y-96516000I-237500J0D01*
G01*
X136224000Y-96516000D01*
G75*
G02*
X135986500Y-96278500I0J237500D01*
G01*
X135986500Y-95778500D01*
G75*
G02*
X136224000Y-95541000I237500J0D01*
G01*
G37*
G36*
G01*
X137938500Y-97349500D02*
X138413500Y-97349500D01*
G75*
G02*
X138651000Y-97587000I0J-237500D01*
G01*
X138651000Y-98087000D01*
G75*
G02*
X138413500Y-98324500I-237500J0D01*
G01*
X137938500Y-98324500D01*
G75*
G02*
X137701000Y-98087000I0J237500D01*
G01*
X137701000Y-97587000D01*
G75*
G02*
X137938500Y-97349500I237500J0D01*
G01*
G37*
G36*
G01*
X137938500Y-95524500D02*
X138413500Y-95524500D01*
G75*
G02*
X138651000Y-95762000I0J-237500D01*
G01*
X138651000Y-96262000D01*
G75*
G02*
X138413500Y-96499500I-237500J0D01*
G01*
X137938500Y-96499500D01*
G75*
G02*
X137701000Y-96262000I0J237500D01*
G01*
X137701000Y-95762000D01*
G75*
G02*
X137938500Y-95524500I237500J0D01*
G01*
G37*
G36*
G01*
X147057100Y-97351400D02*
X147532100Y-97351400D01*
G75*
G02*
X147769600Y-97588900I0J-237500D01*
G01*
X147769600Y-98088900D01*
G75*
G02*
X147532100Y-98326400I-237500J0D01*
G01*
X147057100Y-98326400D01*
G75*
G02*
X146819600Y-98088900I0J237500D01*
G01*
X146819600Y-97588900D01*
G75*
G02*
X147057100Y-97351400I237500J0D01*
G01*
G37*
G36*
G01*
X147057100Y-95526400D02*
X147532100Y-95526400D01*
G75*
G02*
X147769600Y-95763900I0J-237500D01*
G01*
X147769600Y-96263900D01*
G75*
G02*
X147532100Y-96501400I-237500J0D01*
G01*
X147057100Y-96501400D01*
G75*
G02*
X146819600Y-96263900I0J237500D01*
G01*
X146819600Y-95763900D01*
G75*
G02*
X147057100Y-95526400I237500J0D01*
G01*
G37*
G36*
G01*
X148835100Y-97351400D02*
X149310100Y-97351400D01*
G75*
G02*
X149547600Y-97588900I0J-237500D01*
G01*
X149547600Y-98088900D01*
G75*
G02*
X149310100Y-98326400I-237500J0D01*
G01*
X148835100Y-98326400D01*
G75*
G02*
X148597600Y-98088900I0J237500D01*
G01*
X148597600Y-97588900D01*
G75*
G02*
X148835100Y-97351400I237500J0D01*
G01*
G37*
G36*
G01*
X148835100Y-95526400D02*
X149310100Y-95526400D01*
G75*
G02*
X149547600Y-95763900I0J-237500D01*
G01*
X149547600Y-96263900D01*
G75*
G02*
X149310100Y-96501400I-237500J0D01*
G01*
X148835100Y-96501400D01*
G75*
G02*
X148597600Y-96263900I0J237500D01*
G01*
X148597600Y-95763900D01*
G75*
G02*
X148835100Y-95526400I237500J0D01*
G01*
G37*
G36*
G01*
X150549600Y-97351400D02*
X151024600Y-97351400D01*
G75*
G02*
X151262100Y-97588900I0J-237500D01*
G01*
X151262100Y-98088900D01*
G75*
G02*
X151024600Y-98326400I-237500J0D01*
G01*
X150549600Y-98326400D01*
G75*
G02*
X150312100Y-98088900I0J237500D01*
G01*
X150312100Y-97588900D01*
G75*
G02*
X150549600Y-97351400I237500J0D01*
G01*
G37*
G36*
G01*
X150549600Y-95526400D02*
X151024600Y-95526400D01*
G75*
G02*
X151262100Y-95763900I0J-237500D01*
G01*
X151262100Y-96263900D01*
G75*
G02*
X151024600Y-96501400I-237500J0D01*
G01*
X150549600Y-96501400D01*
G75*
G02*
X150312100Y-96263900I0J237500D01*
G01*
X150312100Y-95763900D01*
G75*
G02*
X150549600Y-95526400I237500J0D01*
G01*
G37*
G36*
G01*
X163338500Y-97429500D02*
X163813500Y-97429500D01*
G75*
G02*
X164051000Y-97667000I0J-237500D01*
G01*
X164051000Y-98167000D01*
G75*
G02*
X163813500Y-98404500I-237500J0D01*
G01*
X163338500Y-98404500D01*
G75*
G02*
X163101000Y-98167000I0J237500D01*
G01*
X163101000Y-97667000D01*
G75*
G02*
X163338500Y-97429500I237500J0D01*
G01*
G37*
G36*
G01*
X163338500Y-95604500D02*
X163813500Y-95604500D01*
G75*
G02*
X164051000Y-95842000I0J-237500D01*
G01*
X164051000Y-96342000D01*
G75*
G02*
X163813500Y-96579500I-237500J0D01*
G01*
X163338500Y-96579500D01*
G75*
G02*
X163101000Y-96342000I0J237500D01*
G01*
X163101000Y-95842000D01*
G75*
G02*
X163338500Y-95604500I237500J0D01*
G01*
G37*
G36*
G01*
X165243500Y-97453000D02*
X165718500Y-97453000D01*
G75*
G02*
X165956000Y-97690500I0J-237500D01*
G01*
X165956000Y-98190500D01*
G75*
G02*
X165718500Y-98428000I-237500J0D01*
G01*
X165243500Y-98428000D01*
G75*
G02*
X165006000Y-98190500I0J237500D01*
G01*
X165006000Y-97690500D01*
G75*
G02*
X165243500Y-97453000I237500J0D01*
G01*
G37*
G36*
G01*
X165243500Y-95628000D02*
X165718500Y-95628000D01*
G75*
G02*
X165956000Y-95865500I0J-237500D01*
G01*
X165956000Y-96365500D01*
G75*
G02*
X165718500Y-96603000I-237500J0D01*
G01*
X165243500Y-96603000D01*
G75*
G02*
X165006000Y-96365500I0J237500D01*
G01*
X165006000Y-95865500D01*
G75*
G02*
X165243500Y-95628000I237500J0D01*
G01*
G37*
G36*
G01*
X167021500Y-97453000D02*
X167496500Y-97453000D01*
G75*
G02*
X167734000Y-97690500I0J-237500D01*
G01*
X167734000Y-98190500D01*
G75*
G02*
X167496500Y-98428000I-237500J0D01*
G01*
X167021500Y-98428000D01*
G75*
G02*
X166784000Y-98190500I0J237500D01*
G01*
X166784000Y-97690500D01*
G75*
G02*
X167021500Y-97453000I237500J0D01*
G01*
G37*
G36*
G01*
X167021500Y-95628000D02*
X167496500Y-95628000D01*
G75*
G02*
X167734000Y-95865500I0J-237500D01*
G01*
X167734000Y-96365500D01*
G75*
G02*
X167496500Y-96603000I-237500J0D01*
G01*
X167021500Y-96603000D01*
G75*
G02*
X166784000Y-96365500I0J237500D01*
G01*
X166784000Y-95865500D01*
G75*
G02*
X167021500Y-95628000I237500J0D01*
G01*
G37*
G36*
G01*
X171362500Y-101940500D02*
X171362500Y-101640500D01*
G75*
G02*
X171512500Y-101490500I150000J0D01*
G01*
X173162500Y-101490500D01*
G75*
G02*
X173312500Y-101640500I0J-150000D01*
G01*
X173312500Y-101940500D01*
G75*
G02*
X173162500Y-102090500I-150000J0D01*
G01*
X171512500Y-102090500D01*
G75*
G02*
X171362500Y-101940500I0J150000D01*
G01*
G37*
G36*
G01*
X171362500Y-103210500D02*
X171362500Y-102910500D01*
G75*
G02*
X171512500Y-102760500I150000J0D01*
G01*
X173162500Y-102760500D01*
G75*
G02*
X173312500Y-102910500I0J-150000D01*
G01*
X173312500Y-103210500D01*
G75*
G02*
X173162500Y-103360500I-150000J0D01*
G01*
X171512500Y-103360500D01*
G75*
G02*
X171362500Y-103210500I0J150000D01*
G01*
G37*
G36*
G01*
X171362500Y-104480500D02*
X171362500Y-104180500D01*
G75*
G02*
X171512500Y-104030500I150000J0D01*
G01*
X173162500Y-104030500D01*
G75*
G02*
X173312500Y-104180500I0J-150000D01*
G01*
X173312500Y-104480500D01*
G75*
G02*
X173162500Y-104630500I-150000J0D01*
G01*
X171512500Y-104630500D01*
G75*
G02*
X171362500Y-104480500I0J150000D01*
G01*
G37*
G36*
G01*
X171362500Y-105750500D02*
X171362500Y-105450500D01*
G75*
G02*
X171512500Y-105300500I150000J0D01*
G01*
X173162500Y-105300500D01*
G75*
G02*
X173312500Y-105450500I0J-150000D01*
G01*
X173312500Y-105750500D01*
G75*
G02*
X173162500Y-105900500I-150000J0D01*
G01*
X171512500Y-105900500D01*
G75*
G02*
X171362500Y-105750500I0J150000D01*
G01*
G37*
G36*
G01*
X166412500Y-105750500D02*
X166412500Y-105450500D01*
G75*
G02*
X166562500Y-105300500I150000J0D01*
G01*
X168212500Y-105300500D01*
G75*
G02*
X168362500Y-105450500I0J-150000D01*
G01*
X168362500Y-105750500D01*
G75*
G02*
X168212500Y-105900500I-150000J0D01*
G01*
X166562500Y-105900500D01*
G75*
G02*
X166412500Y-105750500I0J150000D01*
G01*
G37*
G36*
G01*
X166412500Y-104480500D02*
X166412500Y-104180500D01*
G75*
G02*
X166562500Y-104030500I150000J0D01*
G01*
X168212500Y-104030500D01*
G75*
G02*
X168362500Y-104180500I0J-150000D01*
G01*
X168362500Y-104480500D01*
G75*
G02*
X168212500Y-104630500I-150000J0D01*
G01*
X166562500Y-104630500D01*
G75*
G02*
X166412500Y-104480500I0J150000D01*
G01*
G37*
G36*
G01*
X166412500Y-103210500D02*
X166412500Y-102910500D01*
G75*
G02*
X166562500Y-102760500I150000J0D01*
G01*
X168212500Y-102760500D01*
G75*
G02*
X168362500Y-102910500I0J-150000D01*
G01*
X168362500Y-103210500D01*
G75*
G02*
X168212500Y-103360500I-150000J0D01*
G01*
X166562500Y-103360500D01*
G75*
G02*
X166412500Y-103210500I0J150000D01*
G01*
G37*
G36*
G01*
X166412500Y-101940500D02*
X166412500Y-101640500D01*
G75*
G02*
X166562500Y-101490500I150000J0D01*
G01*
X168212500Y-101490500D01*
G75*
G02*
X168362500Y-101640500I0J-150000D01*
G01*
X168362500Y-101940500D01*
G75*
G02*
X168212500Y-102090500I-150000J0D01*
G01*
X166562500Y-102090500D01*
G75*
G02*
X166412500Y-101940500I0J150000D01*
G01*
G37*
G36*
G01*
X152839000Y-112626000D02*
X152839000Y-112926000D01*
G75*
G02*
X152689000Y-113076000I-150000J0D01*
G01*
X150939000Y-113076000D01*
G75*
G02*
X150789000Y-112926000I0J150000D01*
G01*
X150789000Y-112626000D01*
G75*
G02*
X150939000Y-112476000I150000J0D01*
G01*
X152689000Y-112476000D01*
G75*
G02*
X152839000Y-112626000I0J-150000D01*
G01*
G37*
G36*
G01*
X152839000Y-111356000D02*
X152839000Y-111656000D01*
G75*
G02*
X152689000Y-111806000I-150000J0D01*
G01*
X150939000Y-111806000D01*
G75*
G02*
X150789000Y-111656000I0J150000D01*
G01*
X150789000Y-111356000D01*
G75*
G02*
X150939000Y-111206000I150000J0D01*
G01*
X152689000Y-111206000D01*
G75*
G02*
X152839000Y-111356000I0J-150000D01*
G01*
G37*
G36*
G01*
X152839000Y-110086000D02*
X152839000Y-110386000D01*
G75*
G02*
X152689000Y-110536000I-150000J0D01*
G01*
X150939000Y-110536000D01*
G75*
G02*
X150789000Y-110386000I0J150000D01*
G01*
X150789000Y-110086000D01*
G75*
G02*
X150939000Y-109936000I150000J0D01*
G01*
X152689000Y-109936000D01*
G75*
G02*
X152839000Y-110086000I0J-150000D01*
G01*
G37*
G36*
G01*
X152839000Y-108816000D02*
X152839000Y-109116000D01*
G75*
G02*
X152689000Y-109266000I-150000J0D01*
G01*
X150939000Y-109266000D01*
G75*
G02*
X150789000Y-109116000I0J150000D01*
G01*
X150789000Y-108816000D01*
G75*
G02*
X150939000Y-108666000I150000J0D01*
G01*
X152689000Y-108666000D01*
G75*
G02*
X152839000Y-108816000I0J-150000D01*
G01*
G37*
G36*
G01*
X152839000Y-107546000D02*
X152839000Y-107846000D01*
G75*
G02*
X152689000Y-107996000I-150000J0D01*
G01*
X150939000Y-107996000D01*
G75*
G02*
X150789000Y-107846000I0J150000D01*
G01*
X150789000Y-107546000D01*
G75*
G02*
X150939000Y-107396000I150000J0D01*
G01*
X152689000Y-107396000D01*
G75*
G02*
X152839000Y-107546000I0J-150000D01*
G01*
G37*
G36*
G01*
X152839000Y-106276000D02*
X152839000Y-106576000D01*
G75*
G02*
X152689000Y-106726000I-150000J0D01*
G01*
X150939000Y-106726000D01*
G75*
G02*
X150789000Y-106576000I0J150000D01*
G01*
X150789000Y-106276000D01*
G75*
G02*
X150939000Y-106126000I150000J0D01*
G01*
X152689000Y-106126000D01*
G75*
G02*
X152839000Y-106276000I0J-150000D01*
G01*
G37*
G36*
G01*
X152839000Y-105006000D02*
X152839000Y-105306000D01*
G75*
G02*
X152689000Y-105456000I-150000J0D01*
G01*
X150939000Y-105456000D01*
G75*
G02*
X150789000Y-105306000I0J150000D01*
G01*
X150789000Y-105006000D01*
G75*
G02*
X150939000Y-104856000I150000J0D01*
G01*
X152689000Y-104856000D01*
G75*
G02*
X152839000Y-105006000I0J-150000D01*
G01*
G37*
G36*
G01*
X152839000Y-103736000D02*
X152839000Y-104036000D01*
G75*
G02*
X152689000Y-104186000I-150000J0D01*
G01*
X150939000Y-104186000D01*
G75*
G02*
X150789000Y-104036000I0J150000D01*
G01*
X150789000Y-103736000D01*
G75*
G02*
X150939000Y-103586000I150000J0D01*
G01*
X152689000Y-103586000D01*
G75*
G02*
X152839000Y-103736000I0J-150000D01*
G01*
G37*
G36*
G01*
X152839000Y-102466000D02*
X152839000Y-102766000D01*
G75*
G02*
X152689000Y-102916000I-150000J0D01*
G01*
X150939000Y-102916000D01*
G75*
G02*
X150789000Y-102766000I0J150000D01*
G01*
X150789000Y-102466000D01*
G75*
G02*
X150939000Y-102316000I150000J0D01*
G01*
X152689000Y-102316000D01*
G75*
G02*
X152839000Y-102466000I0J-150000D01*
G01*
G37*
G36*
G01*
X162139000Y-102466000D02*
X162139000Y-102766000D01*
G75*
G02*
X161989000Y-102916000I-150000J0D01*
G01*
X160239000Y-102916000D01*
G75*
G02*
X160089000Y-102766000I0J150000D01*
G01*
X160089000Y-102466000D01*
G75*
G02*
X160239000Y-102316000I150000J0D01*
G01*
X161989000Y-102316000D01*
G75*
G02*
X162139000Y-102466000I0J-150000D01*
G01*
G37*
G36*
G01*
X162139000Y-103736000D02*
X162139000Y-104036000D01*
G75*
G02*
X161989000Y-104186000I-150000J0D01*
G01*
X160239000Y-104186000D01*
G75*
G02*
X160089000Y-104036000I0J150000D01*
G01*
X160089000Y-103736000D01*
G75*
G02*
X160239000Y-103586000I150000J0D01*
G01*
X161989000Y-103586000D01*
G75*
G02*
X162139000Y-103736000I0J-150000D01*
G01*
G37*
G36*
G01*
X162139000Y-105006000D02*
X162139000Y-105306000D01*
G75*
G02*
X161989000Y-105456000I-150000J0D01*
G01*
X160239000Y-105456000D01*
G75*
G02*
X160089000Y-105306000I0J150000D01*
G01*
X160089000Y-105006000D01*
G75*
G02*
X160239000Y-104856000I150000J0D01*
G01*
X161989000Y-104856000D01*
G75*
G02*
X162139000Y-105006000I0J-150000D01*
G01*
G37*
G36*
G01*
X162139000Y-106276000D02*
X162139000Y-106576000D01*
G75*
G02*
X161989000Y-106726000I-150000J0D01*
G01*
X160239000Y-106726000D01*
G75*
G02*
X160089000Y-106576000I0J150000D01*
G01*
X160089000Y-106276000D01*
G75*
G02*
X160239000Y-106126000I150000J0D01*
G01*
X161989000Y-106126000D01*
G75*
G02*
X162139000Y-106276000I0J-150000D01*
G01*
G37*
G36*
G01*
X162139000Y-107546000D02*
X162139000Y-107846000D01*
G75*
G02*
X161989000Y-107996000I-150000J0D01*
G01*
X160239000Y-107996000D01*
G75*
G02*
X160089000Y-107846000I0J150000D01*
G01*
X160089000Y-107546000D01*
G75*
G02*
X160239000Y-107396000I150000J0D01*
G01*
X161989000Y-107396000D01*
G75*
G02*
X162139000Y-107546000I0J-150000D01*
G01*
G37*
G36*
G01*
X162139000Y-108816000D02*
X162139000Y-109116000D01*
G75*
G02*
X161989000Y-109266000I-150000J0D01*
G01*
X160239000Y-109266000D01*
G75*
G02*
X160089000Y-109116000I0J150000D01*
G01*
X160089000Y-108816000D01*
G75*
G02*
X160239000Y-108666000I150000J0D01*
G01*
X161989000Y-108666000D01*
G75*
G02*
X162139000Y-108816000I0J-150000D01*
G01*
G37*
G36*
G01*
X162139000Y-110086000D02*
X162139000Y-110386000D01*
G75*
G02*
X161989000Y-110536000I-150000J0D01*
G01*
X160239000Y-110536000D01*
G75*
G02*
X160089000Y-110386000I0J150000D01*
G01*
X160089000Y-110086000D01*
G75*
G02*
X160239000Y-109936000I150000J0D01*
G01*
X161989000Y-109936000D01*
G75*
G02*
X162139000Y-110086000I0J-150000D01*
G01*
G37*
G36*
G01*
X162139000Y-111356000D02*
X162139000Y-111656000D01*
G75*
G02*
X161989000Y-111806000I-150000J0D01*
G01*
X160239000Y-111806000D01*
G75*
G02*
X160089000Y-111656000I0J150000D01*
G01*
X160089000Y-111356000D01*
G75*
G02*
X160239000Y-111206000I150000J0D01*
G01*
X161989000Y-111206000D01*
G75*
G02*
X162139000Y-111356000I0J-150000D01*
G01*
G37*
G36*
G01*
X162139000Y-112626000D02*
X162139000Y-112926000D01*
G75*
G02*
X161989000Y-113076000I-150000J0D01*
G01*
X160239000Y-113076000D01*
G75*
G02*
X160089000Y-112926000I0J150000D01*
G01*
X160089000Y-112626000D01*
G75*
G02*
X160239000Y-112476000I150000J0D01*
G01*
X161989000Y-112476000D01*
G75*
G02*
X162139000Y-112626000I0J-150000D01*
G01*
G37*
G36*
G01*
X140999000Y-108769000D02*
X140999000Y-108969000D01*
G75*
G02*
X140899000Y-109069000I-100000J0D01*
G01*
X139624000Y-109069000D01*
G75*
G02*
X139524000Y-108969000I0J100000D01*
G01*
X139524000Y-108769000D01*
G75*
G02*
X139624000Y-108669000I100000J0D01*
G01*
X140899000Y-108669000D01*
G75*
G02*
X140999000Y-108769000I0J-100000D01*
G01*
G37*
G36*
G01*
X140999000Y-108119000D02*
X140999000Y-108319000D01*
G75*
G02*
X140899000Y-108419000I-100000J0D01*
G01*
X139624000Y-108419000D01*
G75*
G02*
X139524000Y-108319000I0J100000D01*
G01*
X139524000Y-108119000D01*
G75*
G02*
X139624000Y-108019000I100000J0D01*
G01*
X140899000Y-108019000D01*
G75*
G02*
X140999000Y-108119000I0J-100000D01*
G01*
G37*
G36*
G01*
X140999000Y-107469000D02*
X140999000Y-107669000D01*
G75*
G02*
X140899000Y-107769000I-100000J0D01*
G01*
X139624000Y-107769000D01*
G75*
G02*
X139524000Y-107669000I0J100000D01*
G01*
X139524000Y-107469000D01*
G75*
G02*
X139624000Y-107369000I100000J0D01*
G01*
X140899000Y-107369000D01*
G75*
G02*
X140999000Y-107469000I0J-100000D01*
G01*
G37*
G36*
G01*
X140999000Y-106819000D02*
X140999000Y-107019000D01*
G75*
G02*
X140899000Y-107119000I-100000J0D01*
G01*
X139624000Y-107119000D01*
G75*
G02*
X139524000Y-107019000I0J100000D01*
G01*
X139524000Y-106819000D01*
G75*
G02*
X139624000Y-106719000I100000J0D01*
G01*
X140899000Y-106719000D01*
G75*
G02*
X140999000Y-106819000I0J-100000D01*
G01*
G37*
G36*
G01*
X140999000Y-106169000D02*
X140999000Y-106369000D01*
G75*
G02*
X140899000Y-106469000I-100000J0D01*
G01*
X139624000Y-106469000D01*
G75*
G02*
X139524000Y-106369000I0J100000D01*
G01*
X139524000Y-106169000D01*
G75*
G02*
X139624000Y-106069000I100000J0D01*
G01*
X140899000Y-106069000D01*
G75*
G02*
X140999000Y-106169000I0J-100000D01*
G01*
G37*
G36*
G01*
X140999000Y-105519000D02*
X140999000Y-105719000D01*
G75*
G02*
X140899000Y-105819000I-100000J0D01*
G01*
X139624000Y-105819000D01*
G75*
G02*
X139524000Y-105719000I0J100000D01*
G01*
X139524000Y-105519000D01*
G75*
G02*
X139624000Y-105419000I100000J0D01*
G01*
X140899000Y-105419000D01*
G75*
G02*
X140999000Y-105519000I0J-100000D01*
G01*
G37*
G36*
G01*
X140999000Y-104869000D02*
X140999000Y-105069000D01*
G75*
G02*
X140899000Y-105169000I-100000J0D01*
G01*
X139624000Y-105169000D01*
G75*
G02*
X139524000Y-105069000I0J100000D01*
G01*
X139524000Y-104869000D01*
G75*
G02*
X139624000Y-104769000I100000J0D01*
G01*
X140899000Y-104769000D01*
G75*
G02*
X140999000Y-104869000I0J-100000D01*
G01*
G37*
G36*
G01*
X140999000Y-104219000D02*
X140999000Y-104419000D01*
G75*
G02*
X140899000Y-104519000I-100000J0D01*
G01*
X139624000Y-104519000D01*
G75*
G02*
X139524000Y-104419000I0J100000D01*
G01*
X139524000Y-104219000D01*
G75*
G02*
X139624000Y-104119000I100000J0D01*
G01*
X140899000Y-104119000D01*
G75*
G02*
X140999000Y-104219000I0J-100000D01*
G01*
G37*
G36*
G01*
X140999000Y-103569000D02*
X140999000Y-103769000D01*
G75*
G02*
X140899000Y-103869000I-100000J0D01*
G01*
X139624000Y-103869000D01*
G75*
G02*
X139524000Y-103769000I0J100000D01*
G01*
X139524000Y-103569000D01*
G75*
G02*
X139624000Y-103469000I100000J0D01*
G01*
X140899000Y-103469000D01*
G75*
G02*
X140999000Y-103569000I0J-100000D01*
G01*
G37*
G36*
G01*
X140999000Y-102919000D02*
X140999000Y-103119000D01*
G75*
G02*
X140899000Y-103219000I-100000J0D01*
G01*
X139624000Y-103219000D01*
G75*
G02*
X139524000Y-103119000I0J100000D01*
G01*
X139524000Y-102919000D01*
G75*
G02*
X139624000Y-102819000I100000J0D01*
G01*
X140899000Y-102819000D01*
G75*
G02*
X140999000Y-102919000I0J-100000D01*
G01*
G37*
G36*
G01*
X140999000Y-102269000D02*
X140999000Y-102469000D01*
G75*
G02*
X140899000Y-102569000I-100000J0D01*
G01*
X139624000Y-102569000D01*
G75*
G02*
X139524000Y-102469000I0J100000D01*
G01*
X139524000Y-102269000D01*
G75*
G02*
X139624000Y-102169000I100000J0D01*
G01*
X140899000Y-102169000D01*
G75*
G02*
X140999000Y-102269000I0J-100000D01*
G01*
G37*
G36*
G01*
X140999000Y-101619000D02*
X140999000Y-101819000D01*
G75*
G02*
X140899000Y-101919000I-100000J0D01*
G01*
X139624000Y-101919000D01*
G75*
G02*
X139524000Y-101819000I0J100000D01*
G01*
X139524000Y-101619000D01*
G75*
G02*
X139624000Y-101519000I100000J0D01*
G01*
X140899000Y-101519000D01*
G75*
G02*
X140999000Y-101619000I0J-100000D01*
G01*
G37*
G36*
G01*
X146724000Y-101619000D02*
X146724000Y-101819000D01*
G75*
G02*
X146624000Y-101919000I-100000J0D01*
G01*
X145349000Y-101919000D01*
G75*
G02*
X145249000Y-101819000I0J100000D01*
G01*
X145249000Y-101619000D01*
G75*
G02*
X145349000Y-101519000I100000J0D01*
G01*
X146624000Y-101519000D01*
G75*
G02*
X146724000Y-101619000I0J-100000D01*
G01*
G37*
G36*
G01*
X146724000Y-102269000D02*
X146724000Y-102469000D01*
G75*
G02*
X146624000Y-102569000I-100000J0D01*
G01*
X145349000Y-102569000D01*
G75*
G02*
X145249000Y-102469000I0J100000D01*
G01*
X145249000Y-102269000D01*
G75*
G02*
X145349000Y-102169000I100000J0D01*
G01*
X146624000Y-102169000D01*
G75*
G02*
X146724000Y-102269000I0J-100000D01*
G01*
G37*
G36*
G01*
X146724000Y-102919000D02*
X146724000Y-103119000D01*
G75*
G02*
X146624000Y-103219000I-100000J0D01*
G01*
X145349000Y-103219000D01*
G75*
G02*
X145249000Y-103119000I0J100000D01*
G01*
X145249000Y-102919000D01*
G75*
G02*
X145349000Y-102819000I100000J0D01*
G01*
X146624000Y-102819000D01*
G75*
G02*
X146724000Y-102919000I0J-100000D01*
G01*
G37*
G36*
G01*
X146724000Y-103569000D02*
X146724000Y-103769000D01*
G75*
G02*
X146624000Y-103869000I-100000J0D01*
G01*
X145349000Y-103869000D01*
G75*
G02*
X145249000Y-103769000I0J100000D01*
G01*
X145249000Y-103569000D01*
G75*
G02*
X145349000Y-103469000I100000J0D01*
G01*
X146624000Y-103469000D01*
G75*
G02*
X146724000Y-103569000I0J-100000D01*
G01*
G37*
G36*
G01*
X146724000Y-104219000D02*
X146724000Y-104419000D01*
G75*
G02*
X146624000Y-104519000I-100000J0D01*
G01*
X145349000Y-104519000D01*
G75*
G02*
X145249000Y-104419000I0J100000D01*
G01*
X145249000Y-104219000D01*
G75*
G02*
X145349000Y-104119000I100000J0D01*
G01*
X146624000Y-104119000D01*
G75*
G02*
X146724000Y-104219000I0J-100000D01*
G01*
G37*
G36*
G01*
X146724000Y-104869000D02*
X146724000Y-105069000D01*
G75*
G02*
X146624000Y-105169000I-100000J0D01*
G01*
X145349000Y-105169000D01*
G75*
G02*
X145249000Y-105069000I0J100000D01*
G01*
X145249000Y-104869000D01*
G75*
G02*
X145349000Y-104769000I100000J0D01*
G01*
X146624000Y-104769000D01*
G75*
G02*
X146724000Y-104869000I0J-100000D01*
G01*
G37*
G36*
G01*
X146724000Y-105519000D02*
X146724000Y-105719000D01*
G75*
G02*
X146624000Y-105819000I-100000J0D01*
G01*
X145349000Y-105819000D01*
G75*
G02*
X145249000Y-105719000I0J100000D01*
G01*
X145249000Y-105519000D01*
G75*
G02*
X145349000Y-105419000I100000J0D01*
G01*
X146624000Y-105419000D01*
G75*
G02*
X146724000Y-105519000I0J-100000D01*
G01*
G37*
G36*
G01*
X146724000Y-106169000D02*
X146724000Y-106369000D01*
G75*
G02*
X146624000Y-106469000I-100000J0D01*
G01*
X145349000Y-106469000D01*
G75*
G02*
X145249000Y-106369000I0J100000D01*
G01*
X145249000Y-106169000D01*
G75*
G02*
X145349000Y-106069000I100000J0D01*
G01*
X146624000Y-106069000D01*
G75*
G02*
X146724000Y-106169000I0J-100000D01*
G01*
G37*
G36*
G01*
X146724000Y-106819000D02*
X146724000Y-107019000D01*
G75*
G02*
X146624000Y-107119000I-100000J0D01*
G01*
X145349000Y-107119000D01*
G75*
G02*
X145249000Y-107019000I0J100000D01*
G01*
X145249000Y-106819000D01*
G75*
G02*
X145349000Y-106719000I100000J0D01*
G01*
X146624000Y-106719000D01*
G75*
G02*
X146724000Y-106819000I0J-100000D01*
G01*
G37*
G36*
G01*
X146724000Y-107469000D02*
X146724000Y-107669000D01*
G75*
G02*
X146624000Y-107769000I-100000J0D01*
G01*
X145349000Y-107769000D01*
G75*
G02*
X145249000Y-107669000I0J100000D01*
G01*
X145249000Y-107469000D01*
G75*
G02*
X145349000Y-107369000I100000J0D01*
G01*
X146624000Y-107369000D01*
G75*
G02*
X146724000Y-107469000I0J-100000D01*
G01*
G37*
G36*
G01*
X146724000Y-108119000D02*
X146724000Y-108319000D01*
G75*
G02*
X146624000Y-108419000I-100000J0D01*
G01*
X145349000Y-108419000D01*
G75*
G02*
X145249000Y-108319000I0J100000D01*
G01*
X145249000Y-108119000D01*
G75*
G02*
X145349000Y-108019000I100000J0D01*
G01*
X146624000Y-108019000D01*
G75*
G02*
X146724000Y-108119000I0J-100000D01*
G01*
G37*
G36*
G01*
X146724000Y-108769000D02*
X146724000Y-108969000D01*
G75*
G02*
X146624000Y-109069000I-100000J0D01*
G01*
X145349000Y-109069000D01*
G75*
G02*
X145249000Y-108969000I0J100000D01*
G01*
X145249000Y-108769000D01*
G75*
G02*
X145349000Y-108669000I100000J0D01*
G01*
X146624000Y-108669000D01*
G75*
G02*
X146724000Y-108769000I0J-100000D01*
G01*
G37*
D10*
X126672000Y-103592000D03*
X127472000Y-103592000D03*
X128272000Y-103592000D03*
X129072000Y-103592000D03*
X129872000Y-103592000D03*
X130672000Y-103592000D03*
X131472000Y-103592000D03*
X132272000Y-103592000D03*
D11*
X133722000Y-105042000D03*
X133722000Y-105842000D03*
X133722000Y-106642000D03*
X133722000Y-107442000D03*
X133722000Y-108242000D03*
X133722000Y-109042000D03*
X133722000Y-109842000D03*
X133722000Y-110642000D03*
D10*
X132272000Y-112092000D03*
X131472000Y-112092000D03*
X130672000Y-112092000D03*
X129872000Y-112092000D03*
X129072000Y-112092000D03*
X128272000Y-112092000D03*
X127472000Y-112092000D03*
X126672000Y-112092000D03*
D11*
X125222000Y-110642000D03*
X125222000Y-109842000D03*
X125222000Y-109042000D03*
X125222000Y-108242000D03*
X125222000Y-107442000D03*
X125222000Y-106642000D03*
X125222000Y-105842000D03*
X125222000Y-105042000D03*
G36*
G01*
X176991000Y-103398500D02*
X177466000Y-103398500D01*
G75*
G02*
X177703500Y-103636000I0J-237500D01*
G01*
X177703500Y-104136000D01*
G75*
G02*
X177466000Y-104373500I-237500J0D01*
G01*
X176991000Y-104373500D01*
G75*
G02*
X176753500Y-104136000I0J237500D01*
G01*
X176753500Y-103636000D01*
G75*
G02*
X176991000Y-103398500I237500J0D01*
G01*
G37*
G36*
G01*
X176991000Y-101573500D02*
X177466000Y-101573500D01*
G75*
G02*
X177703500Y-101811000I0J-237500D01*
G01*
X177703500Y-102311000D01*
G75*
G02*
X177466000Y-102548500I-237500J0D01*
G01*
X176991000Y-102548500D01*
G75*
G02*
X176753500Y-102311000I0J237500D01*
G01*
X176753500Y-101811000D01*
G75*
G02*
X176991000Y-101573500I237500J0D01*
G01*
G37*
G36*
G01*
X149272000Y-112057000D02*
X148797000Y-112057000D01*
G75*
G02*
X148559500Y-111819500I0J237500D01*
G01*
X148559500Y-111319500D01*
G75*
G02*
X148797000Y-111082000I237500J0D01*
G01*
X149272000Y-111082000D01*
G75*
G02*
X149509500Y-111319500I0J-237500D01*
G01*
X149509500Y-111819500D01*
G75*
G02*
X149272000Y-112057000I-237500J0D01*
G01*
G37*
G36*
G01*
X149272000Y-113882000D02*
X148797000Y-113882000D01*
G75*
G02*
X148559500Y-113644500I0J237500D01*
G01*
X148559500Y-113144500D01*
G75*
G02*
X148797000Y-112907000I237500J0D01*
G01*
X149272000Y-112907000D01*
G75*
G02*
X149509500Y-113144500I0J-237500D01*
G01*
X149509500Y-113644500D01*
G75*
G02*
X149272000Y-113882000I-237500J0D01*
G01*
G37*
G36*
G01*
X143305080Y-111433620D02*
X143305080Y-110958620D01*
G75*
G02*
X143542580Y-110721120I237500J0D01*
G01*
X144042580Y-110721120D01*
G75*
G02*
X144280080Y-110958620I0J-237500D01*
G01*
X144280080Y-111433620D01*
G75*
G02*
X144042580Y-111671120I-237500J0D01*
G01*
X143542580Y-111671120D01*
G75*
G02*
X143305080Y-111433620I0J237500D01*
G01*
G37*
G36*
G01*
X141480080Y-111433620D02*
X141480080Y-110958620D01*
G75*
G02*
X141717580Y-110721120I237500J0D01*
G01*
X142217580Y-110721120D01*
G75*
G02*
X142455080Y-110958620I0J-237500D01*
G01*
X142455080Y-111433620D01*
G75*
G02*
X142217580Y-111671120I-237500J0D01*
G01*
X141717580Y-111671120D01*
G75*
G02*
X141480080Y-111433620I0J237500D01*
G01*
G37*
G36*
G01*
X119717000Y-107839500D02*
X119717000Y-108314500D01*
G75*
G02*
X119479500Y-108552000I-237500J0D01*
G01*
X118979500Y-108552000D01*
G75*
G02*
X118742000Y-108314500I0J237500D01*
G01*
X118742000Y-107839500D01*
G75*
G02*
X118979500Y-107602000I237500J0D01*
G01*
X119479500Y-107602000D01*
G75*
G02*
X119717000Y-107839500I0J-237500D01*
G01*
G37*
G36*
G01*
X121542000Y-107839500D02*
X121542000Y-108314500D01*
G75*
G02*
X121304500Y-108552000I-237500J0D01*
G01*
X120804500Y-108552000D01*
G75*
G02*
X120567000Y-108314500I0J237500D01*
G01*
X120567000Y-107839500D01*
G75*
G02*
X120804500Y-107602000I237500J0D01*
G01*
X121304500Y-107602000D01*
G75*
G02*
X121542000Y-107839500I0J-237500D01*
G01*
G37*
G36*
G01*
X164575500Y-103561000D02*
X164100500Y-103561000D01*
G75*
G02*
X163863000Y-103323500I0J237500D01*
G01*
X163863000Y-102723500D01*
G75*
G02*
X164100500Y-102486000I237500J0D01*
G01*
X164575500Y-102486000D01*
G75*
G02*
X164813000Y-102723500I0J-237500D01*
G01*
X164813000Y-103323500D01*
G75*
G02*
X164575500Y-103561000I-237500J0D01*
G01*
G37*
G36*
G01*
X164575500Y-105286000D02*
X164100500Y-105286000D01*
G75*
G02*
X163863000Y-105048500I0J237500D01*
G01*
X163863000Y-104448500D01*
G75*
G02*
X164100500Y-104211000I237500J0D01*
G01*
X164575500Y-104211000D01*
G75*
G02*
X164813000Y-104448500I0J-237500D01*
G01*
X164813000Y-105048500D01*
G75*
G02*
X164575500Y-105286000I-237500J0D01*
G01*
G37*
G36*
G01*
X136414500Y-109444500D02*
X136889500Y-109444500D01*
G75*
G02*
X137127000Y-109682000I0J-237500D01*
G01*
X137127000Y-110282000D01*
G75*
G02*
X136889500Y-110519500I-237500J0D01*
G01*
X136414500Y-110519500D01*
G75*
G02*
X136177000Y-110282000I0J237500D01*
G01*
X136177000Y-109682000D01*
G75*
G02*
X136414500Y-109444500I237500J0D01*
G01*
G37*
G36*
G01*
X136414500Y-107719500D02*
X136889500Y-107719500D01*
G75*
G02*
X137127000Y-107957000I0J-237500D01*
G01*
X137127000Y-108557000D01*
G75*
G02*
X136889500Y-108794500I-237500J0D01*
G01*
X136414500Y-108794500D01*
G75*
G02*
X136177000Y-108557000I0J237500D01*
G01*
X136177000Y-107957000D01*
G75*
G02*
X136414500Y-107719500I237500J0D01*
G01*
G37*
G36*
G01*
X123226840Y-106838700D02*
X122751840Y-106838700D01*
G75*
G02*
X122514340Y-106601200I0J237500D01*
G01*
X122514340Y-106001200D01*
G75*
G02*
X122751840Y-105763700I237500J0D01*
G01*
X123226840Y-105763700D01*
G75*
G02*
X123464340Y-106001200I0J-237500D01*
G01*
X123464340Y-106601200D01*
G75*
G02*
X123226840Y-106838700I-237500J0D01*
G01*
G37*
G36*
G01*
X123226840Y-108563700D02*
X122751840Y-108563700D01*
G75*
G02*
X122514340Y-108326200I0J237500D01*
G01*
X122514340Y-107726200D01*
G75*
G02*
X122751840Y-107488700I237500J0D01*
G01*
X123226840Y-107488700D01*
G75*
G02*
X123464340Y-107726200I0J-237500D01*
G01*
X123464340Y-108326200D01*
G75*
G02*
X123226840Y-108563700I-237500J0D01*
G01*
G37*
M02*
